<?xml version="1.0" encoding="utf-8"?>
<svg xmlns="http://www.w3.org/2000/svg" xmlns:xlink="http://www.w3.org/1999/xlink" width="600" height="400" viewBox="0 0 2400 1600">
<defs>
  <clipPath id="clip260">
    <rect x="0" y="0" width="2400" height="1600"/>
  </clipPath>
</defs>
<path clip-path="url(#clip260)" d="
M0 1600 L2400 1600 L2400 0 L0 0  Z
  " fill="#ffffff" fill-rule="evenodd" fill-opacity="1"/>
<defs>
  <clipPath id="clip261">
    <rect x="480" y="0" width="1681" height="1600"/>
  </clipPath>
</defs>
<path clip-path="url(#clip260)" d="
M193.288 1486.45 L2352.76 1486.45 L2352.76 47.2441 L193.288 47.2441  Z
  " fill="#ffffff" fill-rule="evenodd" fill-opacity="1"/>
<defs>
  <clipPath id="clip262">
    <rect x="193" y="47" width="2160" height="1440"/>
  </clipPath>
</defs>
<polyline clip-path="url(#clip262)" style="stroke:#000000; stroke-linecap:butt; stroke-linejoin:round; stroke-width:2; stroke-opacity:0.1; fill:none" points="
  252.366,1486.45 252.366,47.2441 
  "/>
<polyline clip-path="url(#clip262)" style="stroke:#000000; stroke-linecap:butt; stroke-linejoin:round; stroke-width:2; stroke-opacity:0.1; fill:none" points="
  762.184,1486.45 762.184,47.2441 
  "/>
<polyline clip-path="url(#clip262)" style="stroke:#000000; stroke-linecap:butt; stroke-linejoin:round; stroke-width:2; stroke-opacity:0.1; fill:none" points="
  1272,1486.45 1272,47.2441 
  "/>
<polyline clip-path="url(#clip262)" style="stroke:#000000; stroke-linecap:butt; stroke-linejoin:round; stroke-width:2; stroke-opacity:0.1; fill:none" points="
  1781.82,1486.45 1781.82,47.2441 
  "/>
<polyline clip-path="url(#clip262)" style="stroke:#000000; stroke-linecap:butt; stroke-linejoin:round; stroke-width:2; stroke-opacity:0.1; fill:none" points="
  2291.64,1486.45 2291.64,47.2441 
  "/>
<polyline clip-path="url(#clip260)" style="stroke:#000000; stroke-linecap:butt; stroke-linejoin:round; stroke-width:4; stroke-opacity:1; fill:none" points="
  193.288,1486.45 2352.76,1486.45 
  "/>
<polyline clip-path="url(#clip260)" style="stroke:#000000; stroke-linecap:butt; stroke-linejoin:round; stroke-width:4; stroke-opacity:1; fill:none" points="
  252.366,1486.45 252.366,1467.55 
  "/>
<polyline clip-path="url(#clip260)" style="stroke:#000000; stroke-linecap:butt; stroke-linejoin:round; stroke-width:4; stroke-opacity:1; fill:none" points="
  762.184,1486.45 762.184,1467.55 
  "/>
<polyline clip-path="url(#clip260)" style="stroke:#000000; stroke-linecap:butt; stroke-linejoin:round; stroke-width:4; stroke-opacity:1; fill:none" points="
  1272,1486.45 1272,1467.55 
  "/>
<polyline clip-path="url(#clip260)" style="stroke:#000000; stroke-linecap:butt; stroke-linejoin:round; stroke-width:4; stroke-opacity:1; fill:none" points="
  1781.82,1486.45 1781.82,1467.55 
  "/>
<polyline clip-path="url(#clip260)" style="stroke:#000000; stroke-linecap:butt; stroke-linejoin:round; stroke-width:4; stroke-opacity:1; fill:none" points="
  2291.64,1486.45 2291.64,1467.55 
  "/>
<path clip-path="url(#clip260)" d="M252.366 1517.37 Q248.755 1517.37 246.926 1520.93 Q245.12 1524.47 245.12 1531.6 Q245.12 1538.71 246.926 1542.27 Q248.755 1545.82 252.366 1545.82 Q256 1545.82 257.805 1542.27 Q259.634 1538.71 259.634 1531.6 Q259.634 1524.47 257.805 1520.93 Q256 1517.37 252.366 1517.37 M252.366 1513.66 Q258.176 1513.66 261.231 1518.27 Q264.31 1522.85 264.31 1531.6 Q264.31 1540.33 261.231 1544.94 Q258.176 1549.52 252.366 1549.52 Q246.555 1549.52 243.477 1544.94 Q240.421 1540.33 240.421 1531.6 Q240.421 1522.85 243.477 1518.27 Q246.555 1513.66 252.366 1513.66 Z" fill="#000000" fill-rule="evenodd" fill-opacity="1" /><path clip-path="url(#clip260)" d="M725.876 1544.91 L742.196 1544.91 L742.196 1548.85 L720.251 1548.85 L720.251 1544.91 Q722.913 1542.16 727.497 1537.53 Q732.103 1532.88 733.284 1531.53 Q735.529 1529.01 736.409 1527.27 Q737.311 1525.51 737.311 1523.82 Q737.311 1521.07 735.367 1519.33 Q733.446 1517.6 730.344 1517.6 Q728.145 1517.6 725.691 1518.36 Q723.261 1519.13 720.483 1520.68 L720.483 1515.95 Q723.307 1514.82 725.761 1514.24 Q728.214 1513.66 730.251 1513.66 Q735.622 1513.66 738.816 1516.35 Q742.01 1519.03 742.01 1523.52 Q742.01 1525.65 741.2 1527.57 Q740.413 1529.47 738.307 1532.07 Q737.728 1532.74 734.626 1535.95 Q731.524 1539.15 725.876 1544.91 Z" fill="#000000" fill-rule="evenodd" fill-opacity="1" /><path clip-path="url(#clip260)" d="M752.057 1514.29 L770.413 1514.29 L770.413 1518.22 L756.339 1518.22 L756.339 1526.7 Q757.358 1526.35 758.376 1526.19 Q759.395 1526 760.413 1526 Q766.2 1526 769.58 1529.17 Q772.959 1532.34 772.959 1537.76 Q772.959 1543.34 769.487 1546.44 Q766.015 1549.52 759.696 1549.52 Q757.52 1549.52 755.251 1549.15 Q753.006 1548.78 750.598 1548.04 L750.598 1543.34 Q752.682 1544.47 754.904 1545.03 Q757.126 1545.58 759.603 1545.58 Q763.608 1545.58 765.945 1543.48 Q768.283 1541.37 768.283 1537.76 Q768.283 1534.15 765.945 1532.04 Q763.608 1529.94 759.603 1529.94 Q757.728 1529.94 755.853 1530.35 Q754.001 1530.77 752.057 1531.65 L752.057 1514.29 Z" fill="#000000" fill-rule="evenodd" fill-opacity="1" /><path clip-path="url(#clip260)" d="M792.172 1517.37 Q788.561 1517.37 786.732 1520.93 Q784.927 1524.47 784.927 1531.6 Q784.927 1538.71 786.732 1542.27 Q788.561 1545.82 792.172 1545.82 Q795.806 1545.82 797.612 1542.27 Q799.441 1538.71 799.441 1531.6 Q799.441 1524.47 797.612 1520.93 Q795.806 1517.37 792.172 1517.37 M792.172 1513.66 Q797.982 1513.66 801.038 1518.27 Q804.117 1522.85 804.117 1531.6 Q804.117 1540.33 801.038 1544.94 Q797.982 1549.52 792.172 1549.52 Q786.362 1549.52 783.283 1544.94 Q780.228 1540.33 780.228 1531.6 Q780.228 1522.85 783.283 1518.27 Q786.362 1513.66 792.172 1513.66 Z" fill="#000000" fill-rule="evenodd" fill-opacity="1" /><path clip-path="url(#clip260)" d="M1231.62 1514.29 L1249.98 1514.29 L1249.98 1518.22 L1235.9 1518.22 L1235.9 1526.7 Q1236.92 1526.35 1237.94 1526.19 Q1238.96 1526 1239.98 1526 Q1245.76 1526 1249.14 1529.17 Q1252.52 1532.34 1252.52 1537.76 Q1252.52 1543.34 1249.05 1546.44 Q1245.58 1549.52 1239.26 1549.52 Q1237.08 1549.52 1234.81 1549.15 Q1232.57 1548.78 1230.16 1548.04 L1230.16 1543.34 Q1232.25 1544.47 1234.47 1545.03 Q1236.69 1545.58 1239.17 1545.58 Q1243.17 1545.58 1245.51 1543.48 Q1247.85 1541.37 1247.85 1537.76 Q1247.85 1534.15 1245.51 1532.04 Q1243.17 1529.94 1239.17 1529.94 Q1237.29 1529.94 1235.42 1530.35 Q1233.56 1530.77 1231.62 1531.65 L1231.62 1514.29 Z" fill="#000000" fill-rule="evenodd" fill-opacity="1" /><path clip-path="url(#clip260)" d="M1271.74 1517.37 Q1268.12 1517.37 1266.3 1520.93 Q1264.49 1524.47 1264.49 1531.6 Q1264.49 1538.71 1266.3 1542.27 Q1268.12 1545.82 1271.74 1545.82 Q1275.37 1545.82 1277.18 1542.27 Q1279 1538.71 1279 1531.6 Q1279 1524.47 1277.18 1520.93 Q1275.37 1517.37 1271.74 1517.37 M1271.74 1513.66 Q1277.55 1513.66 1280.6 1518.27 Q1283.68 1522.85 1283.68 1531.6 Q1283.68 1540.33 1280.6 1544.94 Q1277.55 1549.52 1271.74 1549.52 Q1265.93 1549.52 1262.85 1544.94 Q1259.79 1540.33 1259.79 1531.6 Q1259.79 1522.85 1262.85 1518.27 Q1265.93 1513.66 1271.74 1513.66 Z" fill="#000000" fill-rule="evenodd" fill-opacity="1" /><path clip-path="url(#clip260)" d="M1301.9 1517.37 Q1298.29 1517.37 1296.46 1520.93 Q1294.65 1524.47 1294.65 1531.6 Q1294.65 1538.71 1296.46 1542.27 Q1298.29 1545.82 1301.9 1545.82 Q1305.53 1545.82 1307.34 1542.27 Q1309.17 1538.71 1309.17 1531.6 Q1309.17 1524.47 1307.34 1520.93 Q1305.53 1517.37 1301.9 1517.37 M1301.9 1513.66 Q1307.71 1513.66 1310.76 1518.27 Q1313.84 1522.85 1313.84 1531.6 Q1313.84 1540.33 1310.76 1544.94 Q1307.71 1549.52 1301.9 1549.52 Q1296.09 1549.52 1293.01 1544.94 Q1289.95 1540.33 1289.95 1531.6 Q1289.95 1522.85 1293.01 1518.27 Q1296.09 1513.66 1301.9 1513.66 Z" fill="#000000" fill-rule="evenodd" fill-opacity="1" /><path clip-path="url(#clip260)" d="M1740.1 1514.29 L1762.32 1514.29 L1762.32 1516.28 L1749.77 1548.85 L1744.89 1548.85 L1756.69 1518.22 L1740.1 1518.22 L1740.1 1514.29 Z" fill="#000000" fill-rule="evenodd" fill-opacity="1" /><path clip-path="url(#clip260)" d="M1771.48 1514.29 L1789.84 1514.29 L1789.84 1518.22 L1775.77 1518.22 L1775.77 1526.7 Q1776.79 1526.35 1777.8 1526.19 Q1778.82 1526 1779.84 1526 Q1785.63 1526 1789.01 1529.17 Q1792.39 1532.34 1792.39 1537.76 Q1792.39 1543.34 1788.92 1546.44 Q1785.44 1549.52 1779.12 1549.52 Q1776.95 1549.52 1774.68 1549.15 Q1772.43 1548.78 1770.03 1548.04 L1770.03 1543.34 Q1772.11 1544.47 1774.33 1545.03 Q1776.55 1545.58 1779.03 1545.58 Q1783.04 1545.58 1785.37 1543.48 Q1787.71 1541.37 1787.71 1537.76 Q1787.71 1534.15 1785.37 1532.04 Q1783.04 1529.94 1779.03 1529.94 Q1777.16 1529.94 1775.28 1530.35 Q1773.43 1530.77 1771.48 1531.65 L1771.48 1514.29 Z" fill="#000000" fill-rule="evenodd" fill-opacity="1" /><path clip-path="url(#clip260)" d="M1811.6 1517.37 Q1807.99 1517.37 1806.16 1520.93 Q1804.36 1524.47 1804.36 1531.6 Q1804.36 1538.71 1806.16 1542.27 Q1807.99 1545.82 1811.6 1545.82 Q1815.23 1545.82 1817.04 1542.27 Q1818.87 1538.71 1818.87 1531.6 Q1818.87 1524.47 1817.04 1520.93 Q1815.23 1517.37 1811.6 1517.37 M1811.6 1513.66 Q1817.41 1513.66 1820.47 1518.27 Q1823.54 1522.85 1823.54 1531.6 Q1823.54 1540.33 1820.47 1544.94 Q1817.41 1549.52 1811.6 1549.52 Q1805.79 1549.52 1802.71 1544.94 Q1799.66 1540.33 1799.66 1531.6 Q1799.66 1522.85 1802.71 1518.27 Q1805.79 1513.66 1811.6 1513.66 Z" fill="#000000" fill-rule="evenodd" fill-opacity="1" /><path clip-path="url(#clip260)" d="M2236.16 1544.91 L2243.8 1544.91 L2243.8 1518.55 L2235.49 1520.21 L2235.49 1515.95 L2243.76 1514.29 L2248.43 1514.29 L2248.43 1544.91 L2256.07 1544.91 L2256.07 1548.85 L2236.16 1548.85 L2236.16 1544.91 Z" fill="#000000" fill-rule="evenodd" fill-opacity="1" /><path clip-path="url(#clip260)" d="M2275.52 1517.37 Q2271.91 1517.37 2270.08 1520.93 Q2268.27 1524.47 2268.27 1531.6 Q2268.27 1538.71 2270.08 1542.27 Q2271.91 1545.82 2275.52 1545.82 Q2279.15 1545.82 2280.96 1542.27 Q2282.78 1538.71 2282.78 1531.6 Q2282.78 1524.47 2280.96 1520.93 Q2279.15 1517.37 2275.52 1517.37 M2275.52 1513.66 Q2281.33 1513.66 2284.38 1518.27 Q2287.46 1522.85 2287.46 1531.6 Q2287.46 1540.33 2284.38 1544.94 Q2281.33 1549.52 2275.52 1549.52 Q2269.71 1549.52 2266.63 1544.94 Q2263.57 1540.33 2263.57 1531.6 Q2263.57 1522.85 2266.63 1518.27 Q2269.71 1513.66 2275.52 1513.66 Z" fill="#000000" fill-rule="evenodd" fill-opacity="1" /><path clip-path="url(#clip260)" d="M2305.68 1517.37 Q2302.07 1517.37 2300.24 1520.93 Q2298.43 1524.47 2298.43 1531.6 Q2298.43 1538.71 2300.24 1542.27 Q2302.07 1545.82 2305.68 1545.82 Q2309.31 1545.82 2311.12 1542.27 Q2312.95 1538.71 2312.95 1531.6 Q2312.95 1524.47 2311.12 1520.93 Q2309.31 1517.37 2305.68 1517.37 M2305.68 1513.66 Q2311.49 1513.66 2314.54 1518.27 Q2317.62 1522.85 2317.62 1531.6 Q2317.62 1540.33 2314.54 1544.94 Q2311.49 1549.52 2305.68 1549.52 Q2299.87 1549.52 2296.79 1544.94 Q2293.73 1540.33 2293.73 1531.6 Q2293.73 1522.85 2296.79 1518.27 Q2299.87 1513.66 2305.68 1513.66 Z" fill="#000000" fill-rule="evenodd" fill-opacity="1" /><path clip-path="url(#clip260)" d="M2335.84 1517.37 Q2332.23 1517.37 2330.4 1520.93 Q2328.59 1524.47 2328.59 1531.6 Q2328.59 1538.71 2330.4 1542.27 Q2332.23 1545.82 2335.84 1545.82 Q2339.47 1545.82 2341.28 1542.27 Q2343.11 1538.71 2343.11 1531.6 Q2343.11 1524.47 2341.28 1520.93 Q2339.47 1517.37 2335.84 1517.37 M2335.84 1513.66 Q2341.65 1513.66 2344.71 1518.27 Q2347.78 1522.85 2347.78 1531.6 Q2347.78 1540.33 2344.71 1544.94 Q2341.65 1549.52 2335.84 1549.52 Q2330.03 1549.52 2326.95 1544.94 Q2323.9 1540.33 2323.9 1531.6 Q2323.9 1522.85 2326.95 1518.27 Q2330.03 1513.66 2335.84 1513.66 Z" fill="#000000" fill-rule="evenodd" fill-opacity="1" /><polyline clip-path="url(#clip262)" style="stroke:#000000; stroke-linecap:butt; stroke-linejoin:round; stroke-width:2; stroke-opacity:0.1; fill:none" points="
  193.288,1266.2 2352.76,1266.2 
  "/>
<polyline clip-path="url(#clip262)" style="stroke:#000000; stroke-linecap:butt; stroke-linejoin:round; stroke-width:2; stroke-opacity:0.1; fill:none" points="
  193.288,994.301 2352.76,994.301 
  "/>
<polyline clip-path="url(#clip262)" style="stroke:#000000; stroke-linecap:butt; stroke-linejoin:round; stroke-width:2; stroke-opacity:0.1; fill:none" points="
  193.288,722.403 2352.76,722.403 
  "/>
<polyline clip-path="url(#clip262)" style="stroke:#000000; stroke-linecap:butt; stroke-linejoin:round; stroke-width:2; stroke-opacity:0.1; fill:none" points="
  193.288,450.506 2352.76,450.506 
  "/>
<polyline clip-path="url(#clip262)" style="stroke:#000000; stroke-linecap:butt; stroke-linejoin:round; stroke-width:2; stroke-opacity:0.1; fill:none" points="
  193.288,178.609 2352.76,178.609 
  "/>
<polyline clip-path="url(#clip260)" style="stroke:#000000; stroke-linecap:butt; stroke-linejoin:round; stroke-width:4; stroke-opacity:1; fill:none" points="
  193.288,1486.45 193.288,47.2441 
  "/>
<polyline clip-path="url(#clip260)" style="stroke:#000000; stroke-linecap:butt; stroke-linejoin:round; stroke-width:4; stroke-opacity:1; fill:none" points="
  193.288,1266.2 212.185,1266.2 
  "/>
<polyline clip-path="url(#clip260)" style="stroke:#000000; stroke-linecap:butt; stroke-linejoin:round; stroke-width:4; stroke-opacity:1; fill:none" points="
  193.288,994.301 212.185,994.301 
  "/>
<polyline clip-path="url(#clip260)" style="stroke:#000000; stroke-linecap:butt; stroke-linejoin:round; stroke-width:4; stroke-opacity:1; fill:none" points="
  193.288,722.403 212.185,722.403 
  "/>
<polyline clip-path="url(#clip260)" style="stroke:#000000; stroke-linecap:butt; stroke-linejoin:round; stroke-width:4; stroke-opacity:1; fill:none" points="
  193.288,450.506 212.185,450.506 
  "/>
<polyline clip-path="url(#clip260)" style="stroke:#000000; stroke-linecap:butt; stroke-linejoin:round; stroke-width:4; stroke-opacity:1; fill:none" points="
  193.288,178.609 212.185,178.609 
  "/>
<path clip-path="url(#clip260)" d="M50.9921 1266.65 L80.6679 1266.65 L80.6679 1270.58 L50.9921 1270.58 L50.9921 1266.65 Z" fill="#000000" fill-rule="evenodd" fill-opacity="1" /><path clip-path="url(#clip260)" d="M100.76 1252 Q97.1493 1252 95.3206 1255.56 Q93.515 1259.1 93.515 1266.23 Q93.515 1273.34 95.3206 1276.9 Q97.1493 1280.45 100.76 1280.45 Q104.395 1280.45 106.2 1276.9 Q108.029 1273.34 108.029 1266.23 Q108.029 1259.1 106.2 1255.56 Q104.395 1252 100.76 1252 M100.76 1248.29 Q106.571 1248.29 109.626 1252.9 Q112.705 1257.48 112.705 1266.23 Q112.705 1274.96 109.626 1279.57 Q106.571 1284.15 100.76 1284.15 Q94.9502 1284.15 91.8715 1279.57 Q88.816 1274.96 88.816 1266.23 Q88.816 1257.48 91.8715 1252.9 Q94.9502 1248.29 100.76 1248.29 Z" fill="#000000" fill-rule="evenodd" fill-opacity="1" /><path clip-path="url(#clip260)" d="M120.922 1277.6 L125.807 1277.6 L125.807 1283.48 L120.922 1283.48 L120.922 1277.6 Z" fill="#000000" fill-rule="evenodd" fill-opacity="1" /><path clip-path="url(#clip260)" d="M150.158 1264.84 Q153.515 1265.56 155.39 1267.83 Q157.288 1270.1 157.288 1273.43 Q157.288 1278.55 153.769 1281.35 Q150.251 1284.15 143.769 1284.15 Q141.593 1284.15 139.279 1283.71 Q136.987 1283.29 134.533 1282.44 L134.533 1277.92 Q136.478 1279.06 138.793 1279.64 Q141.107 1280.21 143.631 1280.21 Q148.029 1280.21 150.32 1278.48 Q152.635 1276.74 152.635 1273.43 Q152.635 1270.38 150.482 1268.66 Q148.353 1266.93 144.533 1266.93 L140.506 1266.93 L140.506 1263.08 L144.718 1263.08 Q148.168 1263.08 149.996 1261.72 Q151.825 1260.33 151.825 1257.74 Q151.825 1255.08 149.927 1253.66 Q148.052 1252.23 144.533 1252.23 Q142.612 1252.23 140.413 1252.64 Q138.214 1253.06 135.575 1253.94 L135.575 1249.77 Q138.237 1249.03 140.552 1248.66 Q142.89 1248.29 144.95 1248.29 Q150.274 1248.29 153.376 1250.72 Q156.478 1253.13 156.478 1257.25 Q156.478 1260.12 154.834 1262.11 Q153.191 1264.08 150.158 1264.84 Z" fill="#000000" fill-rule="evenodd" fill-opacity="1" /><path clip-path="url(#clip260)" d="M100.112 980.099 Q96.5011 980.099 94.6724 983.664 Q92.8669 987.206 92.8669 994.335 Q92.8669 1001.44 94.6724 1005.01 Q96.5011 1008.55 100.112 1008.55 Q103.746 1008.55 105.552 1005.01 Q107.381 1001.44 107.381 994.335 Q107.381 987.206 105.552 983.664 Q103.746 980.099 100.112 980.099 M100.112 976.396 Q105.922 976.396 108.978 981.002 Q112.057 985.585 112.057 994.335 Q112.057 1003.06 108.978 1007.67 Q105.922 1012.25 100.112 1012.25 Q94.3021 1012.25 91.2234 1007.67 Q88.1679 1003.06 88.1679 994.335 Q88.1679 985.585 91.2234 981.002 Q94.3021 976.396 100.112 976.396 Z" fill="#000000" fill-rule="evenodd" fill-opacity="1" /><path clip-path="url(#clip260)" d="M120.274 1005.7 L125.158 1005.7 L125.158 1011.58 L120.274 1011.58 L120.274 1005.7 Z" fill="#000000" fill-rule="evenodd" fill-opacity="1" /><path clip-path="url(#clip260)" d="M145.343 980.099 Q141.732 980.099 139.904 983.664 Q138.098 987.206 138.098 994.335 Q138.098 1001.44 139.904 1005.01 Q141.732 1008.55 145.343 1008.55 Q148.978 1008.55 150.783 1005.01 Q152.612 1001.44 152.612 994.335 Q152.612 987.206 150.783 983.664 Q148.978 980.099 145.343 980.099 M145.343 976.396 Q151.154 976.396 154.209 981.002 Q157.288 985.585 157.288 994.335 Q157.288 1003.06 154.209 1007.67 Q151.154 1012.25 145.343 1012.25 Q139.533 1012.25 136.455 1007.67 Q133.399 1003.06 133.399 994.335 Q133.399 985.585 136.455 981.002 Q139.533 976.396 145.343 976.396 Z" fill="#000000" fill-rule="evenodd" fill-opacity="1" /><path clip-path="url(#clip260)" d="M100.76 708.202 Q97.1493 708.202 95.3206 711.767 Q93.515 715.308 93.515 722.438 Q93.515 729.544 95.3206 733.109 Q97.1493 736.651 100.76 736.651 Q104.395 736.651 106.2 733.109 Q108.029 729.544 108.029 722.438 Q108.029 715.308 106.2 711.767 Q104.395 708.202 100.76 708.202 M100.76 704.498 Q106.571 704.498 109.626 709.105 Q112.705 713.688 112.705 722.438 Q112.705 731.165 109.626 735.771 Q106.571 740.355 100.76 740.355 Q94.9502 740.355 91.8715 735.771 Q88.816 731.165 88.816 722.438 Q88.816 713.688 91.8715 709.105 Q94.9502 704.498 100.76 704.498 Z" fill="#000000" fill-rule="evenodd" fill-opacity="1" /><path clip-path="url(#clip260)" d="M120.922 733.804 L125.807 733.804 L125.807 739.683 L120.922 739.683 L120.922 733.804 Z" fill="#000000" fill-rule="evenodd" fill-opacity="1" /><path clip-path="url(#clip260)" d="M150.158 721.049 Q153.515 721.767 155.39 724.035 Q157.288 726.304 157.288 729.637 Q157.288 734.753 153.769 737.554 Q150.251 740.355 143.769 740.355 Q141.593 740.355 139.279 739.915 Q136.987 739.498 134.533 738.642 L134.533 734.128 Q136.478 735.262 138.793 735.841 Q141.107 736.419 143.631 736.419 Q148.029 736.419 150.32 734.683 Q152.635 732.947 152.635 729.637 Q152.635 726.582 150.482 724.869 Q148.353 723.132 144.533 723.132 L140.506 723.132 L140.506 719.29 L144.718 719.29 Q148.168 719.29 149.996 717.924 Q151.825 716.535 151.825 713.943 Q151.825 711.281 149.927 709.869 Q148.052 708.433 144.533 708.433 Q142.612 708.433 140.413 708.85 Q138.214 709.267 135.575 710.146 L135.575 705.98 Q138.237 705.239 140.552 704.869 Q142.89 704.498 144.95 704.498 Q150.274 704.498 153.376 706.929 Q156.478 709.336 156.478 713.457 Q156.478 716.327 154.834 718.318 Q153.191 720.285 150.158 721.049 Z" fill="#000000" fill-rule="evenodd" fill-opacity="1" /><path clip-path="url(#clip260)" d="M99.9502 436.305 Q96.3391 436.305 94.5104 439.869 Q92.7049 443.411 92.7049 450.541 Q92.7049 457.647 94.5104 461.212 Q96.3391 464.754 99.9502 464.754 Q103.584 464.754 105.39 461.212 Q107.219 457.647 107.219 450.541 Q107.219 443.411 105.39 439.869 Q103.584 436.305 99.9502 436.305 M99.9502 432.601 Q105.76 432.601 108.816 437.207 Q111.895 441.791 111.895 450.541 Q111.895 459.268 108.816 463.874 Q105.76 468.457 99.9502 468.457 Q94.14 468.457 91.0614 463.874 Q88.0058 459.268 88.0058 450.541 Q88.0058 441.791 91.0614 437.207 Q94.14 432.601 99.9502 432.601 Z" fill="#000000" fill-rule="evenodd" fill-opacity="1" /><path clip-path="url(#clip260)" d="M120.112 461.906 L124.996 461.906 L124.996 467.786 L120.112 467.786 L120.112 461.906 Z" fill="#000000" fill-rule="evenodd" fill-opacity="1" /><path clip-path="url(#clip260)" d="M145.76 448.643 Q142.612 448.643 140.76 450.795 Q138.931 452.948 138.931 456.698 Q138.931 460.425 140.76 462.601 Q142.612 464.754 145.76 464.754 Q148.908 464.754 150.737 462.601 Q152.589 460.425 152.589 456.698 Q152.589 452.948 150.737 450.795 Q148.908 448.643 145.76 448.643 M155.042 433.99 L155.042 438.249 Q153.283 437.416 151.478 436.976 Q149.695 436.536 147.936 436.536 Q143.306 436.536 140.853 439.661 Q138.422 442.786 138.075 449.106 Q139.441 447.092 141.501 446.027 Q143.561 444.939 146.038 444.939 Q151.246 444.939 154.255 448.11 Q157.288 451.258 157.288 456.698 Q157.288 462.022 154.14 465.24 Q150.992 468.457 145.76 468.457 Q139.765 468.457 136.594 463.874 Q133.422 459.268 133.422 450.541 Q133.422 442.346 137.311 437.485 Q141.2 432.601 147.751 432.601 Q149.51 432.601 151.293 432.948 Q153.098 433.295 155.042 433.99 Z" fill="#000000" fill-rule="evenodd" fill-opacity="1" /><path clip-path="url(#clip260)" d="M100.297 164.407 Q96.6863 164.407 94.8576 167.972 Q93.0521 171.514 93.0521 178.643 Q93.0521 185.75 94.8576 189.315 Q96.6863 192.856 100.297 192.856 Q103.932 192.856 105.737 189.315 Q107.566 185.75 107.566 178.643 Q107.566 171.514 105.737 167.972 Q103.932 164.407 100.297 164.407 M100.297 160.704 Q106.108 160.704 109.163 165.31 Q112.242 169.893 112.242 178.643 Q112.242 187.37 109.163 191.977 Q106.108 196.56 100.297 196.56 Q94.4873 196.56 91.4086 191.977 Q88.353 187.37 88.353 178.643 Q88.353 169.893 91.4086 165.31 Q94.4873 160.704 100.297 160.704 Z" fill="#000000" fill-rule="evenodd" fill-opacity="1" /><path clip-path="url(#clip260)" d="M120.459 190.009 L125.344 190.009 L125.344 195.889 L120.459 195.889 L120.459 190.009 Z" fill="#000000" fill-rule="evenodd" fill-opacity="1" /><path clip-path="url(#clip260)" d="M135.668 195.171 L135.668 190.912 Q137.427 191.745 139.232 192.185 Q141.038 192.625 142.774 192.625 Q147.404 192.625 149.834 189.523 Q152.288 186.398 152.635 180.055 Q151.293 182.046 149.232 183.111 Q147.172 184.176 144.672 184.176 Q139.487 184.176 136.455 181.051 Q133.445 177.903 133.445 172.463 Q133.445 167.139 136.594 163.921 Q139.742 160.704 144.973 160.704 Q150.968 160.704 154.117 165.31 Q157.288 169.893 157.288 178.643 Q157.288 186.815 153.399 191.699 Q149.533 196.56 142.982 196.56 Q141.223 196.56 139.418 196.213 Q137.612 195.866 135.668 195.171 M144.973 180.518 Q148.121 180.518 149.95 178.366 Q151.802 176.213 151.802 172.463 Q151.802 168.736 149.95 166.583 Q148.121 164.407 144.973 164.407 Q141.825 164.407 139.973 166.583 Q138.144 168.736 138.144 172.463 Q138.144 176.213 139.973 178.366 Q141.825 180.518 144.973 180.518 Z" fill="#000000" fill-rule="evenodd" fill-opacity="1" /><polyline clip-path="url(#clip262)" style="stroke:#009af9; stroke-linecap:butt; stroke-linejoin:round; stroke-width:4; stroke-opacity:0.4; fill:none" points="
  254.405,1104.6 256.444,843.513 258.483,733.838 260.523,1371.6 262.562,579.043 264.601,597.178 266.641,1142.65 268.68,1044 270.719,1336.49 272.758,1225.06 
  274.798,867.602 276.837,986.438 278.876,766.501 280.915,783.988 282.955,722.907 284.994,829.739 287.033,982.223 289.073,600.33 291.112,1260.52 293.151,676.355 
  295.19,1294.21 297.23,604.587 299.269,1033.95 301.308,905.995 303.347,1022.23 305.387,839.777 307.426,601.689 309.465,1020.14 311.505,1246.15 313.544,977.114 
  315.583,898.031 317.622,987.068 319.662,1031.49 321.701,779.772 323.74,687.739 325.779,559.147 327.819,950.739 329.858,550.041 331.897,735.736 333.937,1355.9 
  335.976,1122.11 338.015,577.579 340.054,1407.68 342.094,704.449 344.133,1007.93 346.172,1024.16 348.211,755.651 350.251,685.082 352.29,946.933 354.329,927.944 
  356.369,956.925 358.408,790.567 360.447,1189.68 362.486,793.266 364.526,915.888 366.565,1212.46 368.604,850.15 370.643,1186.26 372.683,1089.99 374.722,1324.17 
  376.761,1222.13 378.801,881.875 380.84,1360.47 382.879,569.512 384.918,800.478 386.958,579.088 388.997,988.504 391.036,769.515 393.075,741.585 395.115,768.094 
  397.154,1347.88 399.193,1250.49 401.233,831.84 403.272,910.228 405.311,1092.51 407.35,810.97 409.39,1380.45 411.429,956.72 413.468,1424.86 415.507,562.166 
  417.547,542.338 419.586,1418.61 421.625,880.343 423.665,900.758 425.704,649.682 427.743,1061.11 429.782,1056.65 431.822,763.882 433.861,814.533 435.9,1257.23 
  437.939,1215.13 439.979,840.366 442.018,862.288 444.057,971.855 446.097,695.975 448.136,545.916 450.175,802.989 452.214,1285.04 454.254,1304.87 456.293,1343.55 
  458.332,885.115 460.371,1001.67 462.411,574.315 464.45,1076.27 466.489,692.218 468.529,730.409 470.568,1130.11 472.607,1009.56 474.646,843.308 476.686,780.322 
  478.725,678.153 480.764,736.588 482.803,943.574 484.843,693.126 486.882,746.314 488.921,877.173 490.961,1155.08 493,895.363 495.039,1122.06 497.078,949.037 
  499.118,892.655 501.157,896.151 503.196,793.156 505.235,1267.53 507.275,920.758 509.314,1153.19 511.353,1380.38 513.393,1222.49 515.432,1289.44 517.471,1269.37 
  519.51,972.109 521.55,873.132 523.589,1410.01 525.628,1121.12 527.667,646.244 529.707,1129.34 531.746,554.715 533.785,1269.13 535.825,1273.52 537.864,1364.57 
  539.903,1280.78 541.942,1325.47 543.982,1149.72 546.021,798.471 548.06,1005.6 550.099,1118.82 552.139,969.107 554.178,623.833 556.217,546.111 558.257,1310.59 
  560.296,1239.32 562.335,561.487 564.374,830.616 566.414,941.643 568.453,635.018 570.492,853.071 572.532,551.927 574.571,692.347 576.61,1035.04 578.649,1231.22 
  580.689,859.545 582.728,1441.82 584.767,738.402 586.806,1256.93 588.846,1263.18 590.885,753.547 592.924,1072.83 594.964,1405.15 597.003,661.086 599.042,1072.8 
  601.081,1412.69 603.121,842.228 605.16,639.197 607.199,686.552 609.238,953.139 611.278,757.829 613.317,837.985 615.356,1269.82 617.396,1311.57 619.435,791.822 
  621.474,1254.14 623.513,1407.62 625.553,645.785 627.592,623.48 629.631,1286.06 631.67,1035.46 633.71,1033.61 635.749,1016.03 637.788,1215.27 639.828,643.577 
  641.867,1010.19 643.906,1016.42 645.945,1264.02 647.985,843.143 650.024,1267 652.063,821.729 654.102,1189.54 656.142,1235.89 658.181,708.069 660.22,796.586 
  662.26,720.873 664.299,811.922 666.338,810.421 668.377,1309.26 670.417,865.957 672.456,661.154 674.495,1169.39 676.534,1167.69 678.574,1320.88 680.613,1094.94 
  682.652,657.539 684.692,1392.25 686.731,1067 688.77,1306.88 690.809,724.745 692.849,637.611 694.888,708.958 696.927,927.703 698.966,628.05 701.006,900.259 
  703.045,863.337 705.084,774.256 707.124,1181.18 709.163,742.865 711.202,1265.9 713.241,1274.73 715.281,1210.16 717.32,557.364 719.359,1377.25 721.398,742.556 
  723.438,566.603 725.477,843.332 727.516,1104.11 729.556,1303.11 731.595,659.912 733.634,1268.25 735.673,1366.03 737.713,1269.69 739.752,667.307 741.791,913.016 
  743.83,863.485 745.87,555.676 747.909,1272.35 749.948,583.304 751.988,1227.87 754.027,805.36 756.066,1252.73 758.105,833.013 760.145,1333.47 762.184,886.621 
  764.223,1164.23 766.262,1166.85 768.302,716.631 770.341,644.732 772.38,1300.36 774.42,1432.47 776.459,1305.37 778.498,1037 780.537,1116.52 782.577,1221.81 
  784.616,1102.35 786.655,991.021 788.694,1209.81 790.734,1166.77 792.773,1439.84 794.812,1181.81 796.852,1192.64 798.891,936.634 800.93,1017.92 802.969,1333.07 
  805.009,1157.7 807.048,1011.79 809.087,1084.1 811.126,874.209 813.166,628.232 815.205,743.326 817.244,1413.9 819.284,1259.99 821.323,837.178 823.362,622.915 
  825.401,967.924 827.441,1111.23 829.48,777.014 831.519,1268.99 833.558,909.263 835.598,944.147 837.637,700.46 839.676,926.942 841.716,811.584 843.755,1213.08 
  845.794,1157.35 847.833,734.167 849.873,1003.89 851.912,1413.3 853.951,994.25 855.99,1313.19 858.03,1090.84 860.069,789.36 862.108,1251.68 864.148,1154.56 
  866.187,1051.06 868.226,1425.04 870.265,1151.69 872.305,592.751 874.344,786.451 876.383,882.446 878.422,710.589 880.462,617.109 882.501,1349.53 884.54,724.131 
  886.58,1158.95 888.619,721.538 890.658,932.036 892.697,877.23 894.737,614.777 896.776,984.295 898.815,634.448 900.855,944.992 902.894,1261.18 904.933,961.814 
  906.972,1358.61 909.012,1383.91 911.051,968.257 913.09,952.985 915.129,1055.19 917.169,847.049 919.208,656.331 921.247,1163.71 923.287,1355.41 925.326,733.423 
  927.365,1035.69 929.404,889.495 931.444,609.818 933.483,1342.95 935.522,743.55 937.561,1191.33 939.601,702.5 941.64,608.061 943.679,1183.86 945.719,1442.56 
  947.758,1146.76 949.797,692.481 951.836,643.196 953.876,756.611 955.915,644.275 957.954,730.42 959.993,904.459 962.033,795.944 964.072,667.139 966.111,1209.08 
  968.151,1032.71 970.19,664.757 972.229,727.471 974.268,561.384 976.308,1295.68 978.347,1086.67 980.386,1016.24 982.425,768.487 984.465,948.594 986.504,1412.79 
  988.543,838.948 990.583,1010.53 992.622,1276.64 994.661,1023.22 996.7,661.581 998.74,1430.04 1000.78,706.701 1002.82,686.863 1004.86,649.069 1006.9,733.061 
  1008.94,880.413 1010.98,1040.23 1013.01,1290.81 1015.05,1060.6 1017.09,1402.55 1019.13,1107.6 1021.17,1059.38 1023.21,1344.06 1025.25,1281.11 1027.29,748.595 
  1029.33,612.575 1031.37,745.449 1033.41,1115.38 1035.45,679.529 1037.49,859.229 1039.53,951.022 1041.56,988.916 1043.6,834.053 1045.64,881.219 1047.68,1325.55 
  1049.72,1445.13 1051.76,627.477 1053.8,889.279 1055.84,1198.35 1057.88,1054.93 1059.92,1171.37 1061.96,789.84 1064,1115.69 1066.04,1360.35 1068.07,1209.21 
  1070.11,1113.35 1072.15,1320.48 1074.19,1137.1 1076.23,1323.52 1078.27,938.04 1080.31,1093.66 1082.35,1321.69 1084.39,679.084 1086.43,1087.39 1088.47,1016.2 
  1090.51,575.337 1092.55,762.598 1094.59,1356.91 1096.62,1338.17 1098.66,695.775 1100.7,1302.15 1102.74,683.684 1104.78,975.263 1106.82,1360.18 1108.86,1411.89 
  1110.9,1152.67 1112.94,588.273 1114.98,579.984 1117.02,771.146 1119.06,1240.19 1121.1,745.58 1123.14,1023.02 1125.17,898.553 1127.21,1069.53 1129.25,629.071 
  1131.29,1172.5 1133.33,1202.07 1135.37,919.22 1137.41,913.789 1139.45,579.617 1141.49,959.971 1143.53,916.4 1145.57,999.24 1147.61,1261.65 1149.65,1306.67 
  1151.69,1322.43 1153.72,1255.31 1155.76,1056.14 1157.8,1279.72 1159.84,1296.3 1161.88,623.116 1163.92,708.851 1165.96,1268.16 1168,554.662 1170.04,953.868 
  1172.08,956.956 1174.12,1119.76 1176.16,1079.95 1178.2,552.335 1180.23,996.712 1182.27,546.705 1184.31,1144.36 1186.35,1237.52 1188.39,683.29 1190.43,818.37 
  1192.47,1337.65 1194.51,830.266 1196.55,819.424 1198.59,685.785 1200.63,1169.61 1202.67,1336.22 1204.71,1325.63 1206.75,970.42 1208.78,951.671 1210.82,950.314 
  1212.86,666.026 1214.9,1403.81 1216.94,1435.54 1218.98,1427.66 1221.02,617.779 1223.06,725.581 1225.1,1247.95 1227.14,797.976 1229.18,900.276 1231.22,1165.82 
  1233.26,724.45 1235.3,595.226 1237.33,1093.06 1239.37,857.407 1241.41,629.576 1243.45,1425.44 1245.49,1138.17 1247.53,883.886 1249.57,903.35 1251.61,1319.16 
  1253.65,795.384 1255.69,1206.97 1257.73,740.573 1259.77,694.151 1261.81,1041.21 1263.85,821.102 1265.88,903.026 1267.92,1137.51 1269.96,884.911 1272,797.387 
  1274.04,990.951 1276.08,1295.82 1278.12,926.517 1280.16,1018.16 1282.2,1342.07 1284.24,1180.58 1286.28,882.343 1288.32,692.849 1290.36,934.864 1292.39,850.139 
  1294.43,1172.5 1296.47,872.89 1298.51,583.707 1300.55,845.574 1302.59,1304.97 1304.63,1437.07 1306.67,617.978 1308.71,613 1310.75,949.369 1312.79,1272.67 
  1314.83,600.766 1316.87,1337.72 1318.91,1292.5 1320.94,697.501 1322.98,934.758 1325.02,1074.61 1327.06,1115.85 1329.1,1261.79 1331.14,1423.44 1333.18,1425.56 
  1335.22,1241.49 1337.26,754.398 1339.3,1025.01 1341.34,1093.55 1343.38,851.558 1345.42,764.151 1347.46,1304.46 1349.49,765.766 1351.53,1225.06 1353.57,1016.95 
  1355.61,691.678 1357.65,559.919 1359.69,825.96 1361.73,1198.06 1363.77,1169.18 1365.81,1172.08 1367.85,578.203 1369.89,1207.84 1371.93,544.871 1373.97,1059.32 
  1376.01,1121.46 1378.04,893.856 1380.08,1224.58 1382.12,1261.5 1384.16,1321.38 1386.2,656.649 1388.24,1243.3 1390.28,1212.72 1392.32,967.059 1394.36,1033.29 
  1396.4,1261.07 1398.44,681.923 1400.48,566.892 1402.52,735.514 1404.56,1169.13 1406.59,606.644 1408.63,1124.91 1410.67,737.771 1412.71,657.371 1414.75,1118.42 
  1416.79,1016.54 1418.83,1286.74 1420.87,831.505 1422.91,660.175 1424.95,1100.9 1426.99,903.871 1429.03,914.036 1431.07,1291.77 1433.1,1438.38 1435.14,1141.29 
  1437.18,1059.75 1439.22,778.538 1441.26,1106.93 1443.3,615.612 1445.34,804.625 1447.38,577.322 1449.42,1309.32 1451.46,606.757 1453.5,1231.5 1455.54,802.065 
  1457.58,715.83 1459.62,618.506 1461.65,1339.4 1463.69,581.126 1465.73,643.625 1467.77,1261.9 1469.81,1060.32 1471.85,930.593 1473.89,888.909 1475.93,1067.61 
  1477.97,994.119 1480.01,1154.78 1482.05,579.26 1484.09,814.47 1486.13,906.737 1488.17,902.993 1490.2,1042.17 1492.24,947.891 1494.28,932.512 1496.32,1175.49 
  1498.36,693.552 1500.4,915.962 1502.44,987.658 1504.48,923.998 1506.52,981.727 1508.56,1169.14 1510.6,556.279 1512.64,1037.86 1514.68,720.538 1516.72,730.294 
  1518.75,1435.82 1520.79,1288.55 1522.83,698.412 1524.87,568.358 1526.91,1038.39 1528.95,1430.94 1530.99,601.725 1533.03,1000.49 1535.07,1298.21 1537.11,1243.99 
  1539.15,1411.02 1541.19,1109.11 1543.23,1349.01 1545.26,969.452 1547.3,1027.93 1549.34,682.909 1551.38,563.83 1553.42,1438.54 1555.46,846.478 1557.5,601.007 
  1559.54,683.265 1561.58,645.865 1563.62,1314.27 1565.66,1047.38 1567.7,1050.5 1569.74,1253.5 1571.78,873.498 1573.81,1056.57 1575.85,720.83 1577.89,606.876 
  1579.93,1382.71 1581.97,1390.2 1584.01,800.76 1586.05,1340.84 1588.09,632.428 1590.13,783.198 1592.17,692.277 1594.21,766.906 1596.25,876.029 1598.29,847.841 
  1600.33,637.355 1602.36,1022.61 1604.4,816.598 1606.44,1294.72 1608.48,1316.74 1610.52,1218.94 1612.56,920.839 1614.6,661.605 1616.64,1385 1618.68,1418.99 
  1620.72,642.735 1622.76,550.27 1624.8,725.693 1626.84,1012.94 1628.88,1103.71 1630.91,1439.96 1632.95,1313.38 1634.99,1194.25 1637.03,667.754 1639.07,1294.73 
  1641.11,962.177 1643.15,827.162 1645.19,552.304 1647.23,564.707 1649.27,631.357 1651.31,856.298 1653.35,1124.07 1655.39,1389.86 1657.42,632.794 1659.46,740.693 
  1661.5,1352.78 1663.54,570.354 1665.58,1312.15 1667.62,1050.98 1669.66,815.147 1671.7,1407.68 1673.74,732.332 1675.78,694.867 1677.82,1280.51 1679.86,567.66 
  1681.9,883.494 1683.94,804.598 1685.97,1254.06 1688.01,1217.18 1690.05,1260.3 1692.09,1156.43 1694.13,999.015 1696.17,1268.13 1698.21,963.339 1700.25,1395.91 
  1702.29,1183.83 1704.33,776.299 1706.37,1392.2 1708.41,853.28 1710.45,1203.1 1712.49,864.46 1714.52,1367.88 1716.56,1162.18 1718.6,715.519 1720.64,810.942 
  1722.68,1269.93 1724.72,1119.84 1726.76,1358.19 1728.8,1030.11 1730.84,585.325 1732.88,795.507 1734.92,1294.34 1736.96,991.309 1739,893.841 1741.04,838.944 
  1743.07,926.933 1745.11,1052.39 1747.15,1315.73 1749.19,983.226 1751.23,1168.86 1753.27,1032.39 1755.31,609.867 1757.35,734.744 1759.39,906.448 1761.43,1436.96 
  1763.47,946.198 1765.51,1010.22 1767.55,810.785 1769.58,860.736 1771.62,957.741 1773.66,565.043 1775.7,947.812 1777.74,1276.31 1779.78,598.303 1781.82,872.209 
  1783.86,1116.45 1785.9,925.888 1787.94,1355.95 1789.98,1387.85 1792.02,1394.98 1794.06,1338.43 1796.1,952.924 1798.13,1181.76 1800.17,765.869 1802.21,1157.52 
  1804.25,591.081 1806.29,589.155 1808.33,738.966 1810.37,913.974 1812.41,693.069 1814.45,926.03 1816.49,1245.34 1818.53,1389.75 1820.57,889.09 1822.61,1257.12 
  1824.65,1041.71 1826.68,1348.59 1828.72,795.297 1830.76,1308.14 1832.8,1260 1834.84,947.15 1836.88,1375.82 1838.92,645.073 1840.96,1184.35 1843,1046.42 
  1845.04,1136.44 1847.08,915.432 1849.12,751.576 1851.16,911.124 1853.2,1121.99 1855.23,1112.76 1857.27,1395.27 1859.31,576.115 1861.35,769.204 1863.39,1293.38 
  1865.43,624.294 1867.47,1411.47 1869.51,1099.4 1871.55,1199 1873.59,1299.44 1875.63,554.881 1877.67,1370.31 1879.71,1373.11 1881.74,1129.29 1883.78,1257.4 
  1885.82,1231.08 1887.86,675.98 1889.9,829.615 1891.94,659.734 1893.98,654.947 1896.02,1093.2 1898.06,1225.83 1900.1,1335.91 1902.14,1083.42 1904.18,847.415 
  1906.22,868.768 1908.26,565.488 1910.29,838.914 1912.33,1055.8 1914.37,935.555 1916.41,1413.99 1918.45,1345.45 1920.49,915.748 1922.53,929.549 1924.57,995.683 
  1926.61,1347.02 1928.65,600.198 1930.69,992.238 1932.73,1281.75 1934.77,950.545 1936.81,1347.4 1938.84,1034.81 1940.88,1263.85 1942.92,1402.45 1944.96,901.665 
  1947,932.699 1949.04,1438.21 1951.08,558.394 1953.12,1067.05 1955.16,806.985 1957.2,766.808 1959.24,845.007 1961.28,1376.1 1963.32,802.361 1965.36,1201.22 
  1967.39,892.172 1969.43,750.716 1971.47,922.371 1973.51,1143.76 1975.55,1117.2 1977.59,961.539 1979.63,1043.41 1981.67,676.433 1983.71,939.191 1985.75,1134.16 
  1987.79,1442.41 1989.83,990.913 1991.87,1258.07 1993.9,555.354 1995.94,900.075 1997.98,670.937 2000.02,908.51 2002.06,802.051 2004.1,819.552 2006.14,879.656 
  2008.18,758.222 2010.22,1077.69 2012.26,1282.3 2014.3,990.401 2016.34,882.665 2018.38,1151.69 2020.42,899.88 2022.45,988.948 2024.49,1417.97 2026.53,953.275 
  2028.57,558.054 2030.61,692.196 2032.65,972.229 2034.69,741.68 2036.73,816.58 2038.77,948.206 2040.81,1069.28 2042.85,1277.32 2044.89,637.335 2046.93,1338.06 
  2048.97,665.74 2051,1243.28 2053.04,1356.3 2055.08,1114.64 2057.12,1324.9 2059.16,1333.76 2061.2,570.181 2063.24,642.445 2065.28,660.255 2067.32,736.052 
  2069.36,1264 2071.4,1439.37 2073.44,1338.47 2075.48,1335.13 2077.52,1341.76 2079.55,676.933 2081.59,879.678 2083.63,646.24 2085.67,821.569 2087.71,1189.34 
  2089.75,1057.57 2091.79,1294.2 2093.83,1129.52 2095.87,1081.22 2097.91,1361.76 2099.95,814.867 2101.99,1415.78 2104.03,661.677 2106.07,833.569 2108.1,1376.75 
  2110.14,1445.72 2112.18,1306.31 2114.22,1044.78 2116.26,1157.12 2118.3,890.572 2120.34,1102.09 2122.38,802.091 2124.42,1195.27 2126.46,1163.61 2128.5,816.271 
  2130.54,1115.32 2132.58,1346.61 2134.61,581.305 2136.65,716.461 2138.69,686.791 2140.73,878.997 2142.77,746.78 2144.81,1141.36 2146.85,1322.48 2148.89,739.199 
  2150.93,1107.21 2152.97,707.745 2155.01,1415.1 2157.05,1024.13 2159.09,1183.06 2161.13,1069.42 2163.16,945.913 2165.2,832.235 2167.24,656.13 2169.28,1135.33 
  2171.32,1167.35 2173.36,965.56 2175.4,976.788 2177.44,1247.37 2179.48,664.507 2181.52,1205.34 2183.56,908.271 2185.6,844.658 2187.64,1150.98 2189.68,945.833 
  2191.71,1171.35 2193.75,1173.57 2195.79,1233.17 2197.83,1086.6 2199.87,777.536 2201.91,605.277 2203.95,1308.92 2205.99,634.757 2208.03,1037.92 2210.07,891.595 
  2212.11,609.682 2214.15,610.301 2216.19,1308.73 2218.23,1074.68 2220.26,994.203 2222.3,702.384 2224.34,609.364 2226.38,769.394 2228.42,1355.55 2230.46,597.543 
  2232.5,1402.92 2234.54,904.771 2236.58,658.478 2238.62,1098.1 2240.66,852.509 2242.7,1404.09 2244.74,1356.61 2246.77,1411.73 2248.81,1223.57 2250.85,1168.76 
  2252.89,1157.15 2254.93,868.165 2256.97,700.249 2259.01,1313.26 2261.05,841.322 2263.09,726.153 2265.13,743.317 2267.17,1348.49 2269.21,1429.55 2271.25,1078.18 
  2273.29,763.084 2275.32,958.979 2277.36,568.262 2279.4,1127.65 2281.44,545.855 2283.48,1414.74 2285.52,720.873 2287.56,769.608 2289.6,923.494 2291.64,1080.83 
  
  "/>
<polyline clip-path="url(#clip262)" style="stroke:#e26f46; stroke-linecap:butt; stroke-linejoin:round; stroke-width:4; stroke-opacity:1; fill:none" points="
  254.405,87.9763 256.444,809.685 258.483,803.837 260.523,709.322 262.562,680.23 264.601,682.869 266.641,692.112 268.68,710.566 270.719,695.856 272.758,701.813 
  274.798,714.059 276.837,727.101 278.876,731.333 280.915,736.85 282.955,739.026 284.994,746.136 287.033,753.725 289.073,747.839 291.112,742.197 293.151,742.162 
  295.19,735.522 297.23,731.805 299.269,736.838 301.308,742.45 303.347,747.047 305.387,751.36 307.426,747.888 309.465,751.708 311.505,748.529 313.544,752.662 
  315.583,756.639 317.622,760.303 319.662,763.363 321.701,765.298 323.74,764.936 325.779,760.146 327.819,763.347 329.858,758.878 331.897,760.394 333.937,752.518 
  335.976,753.344 338.015,750.557 340.054,741.817 342.094,742.625 344.133,745.133 346.172,747.43 348.211,748.935 350.251,749.247 352.29,751.764 354.329,754.243 
  356.369,756.58 358.408,758.293 360.447,757.489 362.486,759.124 364.526,761.312 366.565,760.05 368.604,761.963 370.643,761.359 372.683,762.367 374.722,758.688 
  376.761,757.753 378.801,759.592 380.84,755.464 382.879,752.788 384.918,754.075 386.958,751.916 388.997,753.655 391.036,754.651 393.075,755.352 395.115,756.337 
  397.154,752.749 399.193,751.501 401.233,752.894 403.272,754.538 405.311,755.451 407.35,756.623 409.39,752.755 411.429,754.32 413.468,749.686 415.507,747.49 
  417.547,745.076 419.586,740.944 421.625,742.404 423.665,743.888 425.704,743.393 427.743,744.515 429.782,745.648 431.822,746.371 433.861,747.437 435.9,746.51 
  437.939,746.208 439.979,747.343 442.018,748.55 444.057,749.854 446.097,749.858 448.136,747.864 450.175,748.786 452.214,747.485 454.254,745.978 456.293,743.972 
  458.332,744.427 460.371,744.559 462.411,742.7 464.45,746.077 466.489,747.484 468.529,749.001 470.568,749.102 472.607,749.223 474.646,752.308 476.686,753.58 
  478.725,752.325 480.764,751.623 482.803,752.166 484.843,751.445 486.882,751.634 488.921,751.783 490.961,750.788 493,753.058 495.039,754.559 497.078,755.956 
  499.118,758.697 501.157,760.988 503.196,760.785 505.235,758.402 507.275,758.561 509.314,757.75 511.353,756.107 513.393,754.61 515.432,754.027 517.471,751.899 
  519.51,751.948 521.55,751.849 523.589,747.651 525.628,747.726 527.667,747.233 529.707,749.945 531.746,746.562 533.785,748.117 535.825,747.326 537.864,747.188 
  539.903,745.706 541.942,746.476 543.982,749.645 546.021,750.527 548.06,750.53 550.099,750.169 552.139,751.218 554.178,750.387 556.217,746.552 558.257,744.378 
  560.296,743.063 562.335,740.252 564.374,740.684 566.414,741.343 568.453,739.079 570.492,739.902 572.532,736.717 574.571,736.166 576.61,736.376 578.649,737.52 
  580.689,738.646 582.728,734.284 584.767,736.389 586.806,737.733 588.846,736.587 590.885,738.685 592.924,738.494 594.964,735.735 597.003,734.862 599.042,735.578 
  601.081,734.573 603.121,735.615 605.16,733.799 607.199,732.265 609.238,732.527 611.278,732.141 613.317,735.067 615.356,733.311 617.396,735.064 619.435,737.703 
  621.474,739.868 623.513,740.057 625.553,738.067 627.592,735.752 629.631,735.971 631.67,736.04 633.71,736.099 635.749,736.995 637.788,736.508 639.828,735.729 
  641.867,736.804 643.906,737.151 645.945,735.865 647.985,735.486 650.024,735.566 652.063,738.876 654.102,738.82 656.142,739.338 658.181,739.703 660.22,741.548 
  662.26,740.377 664.299,739.825 666.338,742.537 668.377,740.58 670.417,742.006 672.456,741.205 674.495,740.947 676.534,740.301 678.574,738.542 680.613,739.232 
  682.652,738.966 684.692,737.243 686.731,737.225 688.77,737.354 690.809,737.123 692.849,734.785 694.888,733.545 696.927,733.658 698.966,731.292 701.006,731.158 
  703.045,731.025 705.084,730.277 707.124,730.418 709.163,730.603 711.202,729.307 713.241,728.306 715.281,730.24 717.32,727.63 719.359,726.491 721.398,726.85 
  723.438,723.594 725.477,723.457 727.516,726.643 729.556,725.046 731.595,725.213 733.634,724.077 735.673,724.834 737.713,724.828 739.752,724.467 741.791,727.147 
  743.83,728.657 745.87,727.776 747.909,726.646 749.948,724.413 751.988,723.171 754.027,723.118 756.066,721.597 758.105,723.466 760.145,724.471 762.184,726.428 
  764.223,727.076 766.262,729.644 768.302,728.755 770.341,726.695 772.38,726.958 774.42,723.512 776.459,725.271 778.498,726.983 780.537,726.745 782.577,726.826 
  784.616,727.002 786.655,730.73 788.694,731.184 790.734,731.914 792.773,729.545 794.812,730.149 796.852,729.575 798.891,732.547 800.93,734.836 802.969,732.87 
  805.009,735.614 807.048,736.149 809.087,738.758 811.126,740.497 813.166,737.635 815.205,737.486 817.244,734.971 819.284,735.066 821.323,736.17 823.362,734.167 
  825.401,735.3 827.441,738.241 829.48,739.769 831.519,741.393 833.558,742.704 835.598,742.636 837.637,740.78 839.676,740.664 841.716,740.852 843.755,742.542 
  845.794,742.085 847.833,740.617 849.873,741.98 851.912,739.167 853.951,740.519 855.99,739.337 858.03,739.851 860.069,739.966 862.108,740.544 864.148,741.052 
  866.187,742.751 868.226,740.321 870.265,740.905 872.305,738.88 874.344,738.277 876.383,740.444 878.422,739.029 880.462,736.421 882.501,736.057 884.54,734.627 
  886.58,736.6 888.619,737.884 890.658,737.86 892.697,739.4 894.737,737.971 896.776,740.564 898.815,739.589 900.855,739.633 902.894,741.132 904.933,741.32 
  906.972,739.339 909.012,737.817 911.051,738.294 913.09,739.707 915.129,740.903 917.169,741.692 919.208,740.002 921.247,743.629 923.287,743.94 925.326,743.839 
  927.365,747.92 929.404,748.207 931.444,745.012 933.483,744.512 935.522,745.57 937.561,746.246 939.601,746.899 941.64,745.159 943.679,746.781 945.719,743.139 
  947.758,743.218 949.797,745.374 951.836,744.001 953.876,746.387 955.915,744.697 957.954,743.982 959.993,745.061 962.033,744.782 964.072,744.884 966.111,744.193 
  968.151,744.739 970.19,743.183 972.229,743.3 974.268,742.006 976.308,742.064 978.347,745.859 980.386,747.942 982.425,747.075 984.465,747.44 986.504,744.814 
  988.543,744.723 990.583,744.705 992.622,743.99 994.661,744.669 996.7,747.115 998.74,743.738 1000.78,743.349 1002.82,741.804 1004.86,739.903 1006.9,741.699 
  1008.94,742.426 1010.98,742.342 1013.01,740.411 1015.05,740.322 1017.09,738.63 1019.13,739.214 1021.17,743.042 1023.21,741.904 1025.25,740.277 1027.29,741.703 
  1029.33,739.175 1031.37,738.639 1033.41,738.894 1035.45,739.133 1037.49,738.982 1039.53,738.985 1041.56,740.328 1043.6,740.024 1045.64,740.346 1047.68,738.983 
  1049.72,735.193 1051.76,734.006 1053.8,733.922 1055.84,736.788 1057.88,736.642 1059.92,738.2 1061.96,737.96 1064,738.065 1066.04,736.6 1068.07,736.133 
  1070.11,735.846 1072.15,737.521 1074.19,737.625 1076.23,737.882 1078.27,738.535 1080.31,738.412 1082.35,737.48 1084.39,738.292 1086.43,740.773 1088.47,742.053 
  1090.51,739.465 1092.55,739.845 1094.59,737.054 1096.62,734.798 1098.66,735.841 1100.7,733.91 1102.74,734.541 1104.78,734.575 1106.82,733.344 1108.86,729.986 
  1110.9,732.052 1112.94,731.962 1114.98,728.855 1117.02,728.039 1119.06,726.866 1121.1,726.161 1123.14,728.134 1125.17,728.624 1127.21,731.165 1129.25,729.979 
  1131.29,729.321 1133.33,728.541 1135.37,731.127 1137.41,733.537 1139.45,731.524 1141.49,732.395 1143.53,733.787 1145.57,736.488 1147.61,735.758 1149.65,737.847 
  1151.69,736.112 1153.72,736.394 1155.76,738.699 1157.8,738.247 1159.84,739.068 1161.88,737.678 1163.92,736.168 1165.96,735.664 1168,733.932 1170.04,734.693 
  1172.08,734.669 1174.12,736.671 1176.16,738.13 1178.2,737.968 1180.23,739.588 1182.27,735.588 1184.31,735.201 1186.35,735.254 1188.39,733.286 1190.43,735.898 
  1192.47,734.223 1194.51,733.641 1196.55,734.484 1198.59,732.627 1200.63,734.236 1202.67,735.638 1204.71,735.298 1206.75,737.274 1208.78,739.773 1210.82,741.247 
  1212.86,739.211 1214.9,736.218 1216.94,734.256 1218.98,731.051 1221.02,730.878 1223.06,729.512 1225.1,728.474 1227.14,729.799 1229.18,731.082 1231.22,731.814 
  1233.26,733.269 1235.3,731.329 1237.33,731.415 1239.37,733.038 1241.41,730.734 1243.45,727.445 1245.49,727.139 1247.53,727.425 1249.57,727.524 1251.61,727.599 
  1253.65,730.389 1255.69,732.391 1257.73,731.278 1259.77,730.124 1261.81,730.147 1263.85,730.075 1265.88,730.742 1267.92,730.637 1269.96,732.902 1272,733.044 
  1274.04,733.33 1276.08,733.633 1278.12,733.976 1280.16,736.16 1282.2,733.763 1284.24,733.268 1286.28,735.207 1288.32,735.368 1290.36,735.52 1292.39,735.191 
  1294.43,737.817 1296.47,738.565 1298.51,738.075 1300.55,740.255 1302.59,739.778 1304.63,737.723 1306.67,736.861 1308.71,734.196 1310.75,737.021 1312.79,739.031 
  1314.83,736.948 1316.87,737.257 1318.91,738.507 1320.94,737.782 1322.98,739.052 1325.02,739.993 1327.06,739.679 1329.1,738.335 1331.14,734.78 1333.18,733.809 
  1335.22,733.256 1337.26,732.908 1339.3,733.008 1341.34,732.969 1343.38,735.98 1345.42,734.92 1347.46,733.282 1349.49,732.2 1351.53,732.542 1353.57,734.363 
  1355.61,734.662 1357.65,732.49 1359.69,732.112 1361.73,732.922 1363.77,734.161 1365.81,735.991 1367.85,734.251 1369.89,734.846 1371.93,734.681 1373.97,734.589 
  1376.01,734.248 1378.04,734.435 1380.08,733.497 1382.12,735.769 1384.16,733.69 1386.2,735.378 1388.24,734.622 1390.28,734.841 1392.32,736.773 1394.36,737.414 
  1396.4,738.309 1398.44,736.878 1400.48,733.861 1402.52,734.416 1404.56,734.419 1406.59,733.753 1408.63,735.587 1410.67,734.372 1412.71,732.31 1414.75,731.99 
  1416.79,733.971 1418.83,735.596 1420.87,739.121 1422.91,741.126 1424.95,743.4 1426.99,744.589 1429.03,745.967 1431.07,744.669 1433.1,740.693 1435.14,740.855 
  1437.18,742.158 1439.22,744.409 1441.26,744.349 1443.3,741.866 1445.34,743.796 1447.38,744.25 1449.42,742.603 1451.46,739.96 1453.5,738.881 1455.54,740.462 
  1457.58,739.751 1459.62,738.25 1461.65,736.773 1463.69,735.261 1465.73,733.181 1467.77,732.089 1469.81,732.081 1471.85,732.511 1473.89,732.525 1475.93,733.026 
  1477.97,733.024 1480.01,734.359 1482.05,731.33 1484.09,730.864 1486.13,733.408 1488.17,734.19 1490.2,734.229 1492.24,735.722 1494.28,735.719 1496.32,735.22 
  1498.36,734.479 1500.4,734.606 1502.44,737.563 1504.48,737.843 1506.52,740.008 1508.56,743.567 1510.6,742.618 1512.64,745.117 1514.68,743.847 1516.72,744.573 
  1518.75,742.94 1520.79,743.612 1522.83,744.21 1524.87,742.474 1526.91,742.391 1528.95,738.37 1530.99,736.158 1533.03,737.868 1535.07,739.841 1537.11,742.549 
  1539.15,740.076 1541.19,740.524 1543.23,737.701 1545.26,738.012 1547.3,738.209 1549.34,737.425 1551.38,736.542 1553.42,732.93 1555.46,733.958 1557.5,731.505 
  1559.54,731.417 1561.58,732.599 1563.62,730.584 1565.66,731.499 1567.7,732.169 1569.74,731.386 1571.78,734.112 1573.81,735.092 1575.85,737.385 1577.89,735.061 
  1579.93,732.138 1581.97,728.815 1584.01,729.544 1586.05,728.531 1588.09,728.902 1590.13,730.061 1592.17,730.271 1594.21,730.903 1596.25,730.803 1598.29,730.745 
  1600.33,730.853 1602.36,732.044 1604.4,734.504 1606.44,733.098 1608.48,731.453 1610.52,732.51 1612.56,733.008 1614.6,732.248 1616.64,730.58 1618.68,727.125 
  1620.72,725.201 1622.76,724.036 1624.8,723.333 1626.84,724.932 1628.88,724.916 1630.91,720.734 1632.95,718.578 1634.99,719.561 1637.03,722.094 1639.07,720.634 
  1641.11,720.813 1643.15,721.097 1645.19,718.467 1647.23,717.787 1649.27,716.295 1651.31,718.719 1653.35,720.499 1655.39,719.347 1657.42,718.751 1659.46,718.336 
  1661.5,716.582 1663.54,715.94 1665.58,716.3 1667.62,718.831 1669.66,720.328 1671.7,718.366 1673.74,717.513 1675.78,716.209 1677.82,714.518 1679.86,711.872 
  1681.9,711.781 1683.94,712.033 1685.97,713.11 1688.01,712.398 1690.05,710.969 1692.09,710.46 1694.13,710.531 1696.17,709.028 1698.21,709.061 1700.25,706.675 
  1702.29,707.429 1704.33,706.751 1706.37,703.86 1708.41,703.618 1710.45,702.815 1712.49,703.124 1714.52,703.912 1716.56,703.457 1718.6,703.408 1720.64,704.039 
  1722.68,706.111 1724.72,707.36 1726.76,706.611 1728.8,709.911 1730.84,706.873 1732.88,709.498 1734.92,710.691 1736.96,710.69 1739,712.107 1741.04,712.799 
  1743.07,715.936 1745.11,716.13 1747.15,716.548 1749.19,716.553 1751.23,715.982 1753.27,717.658 1755.31,718.338 1757.35,720.89 1759.39,721.131 1761.43,720.214 
  1763.47,721.965 1765.51,724.27 1767.55,725.503 1769.58,725.225 1771.62,725.265 1773.66,723.226 1775.7,723.433 1777.74,721.965 1779.78,720.48 1781.82,722.923 
  1783.86,725.528 1785.9,728.574 1787.94,726.609 1789.98,725.942 1792.02,725.318 1794.06,724.022 1796.1,725.781 1798.13,726.275 1800.17,725.502 1802.21,725.57 
  1804.25,724.883 1806.29,721.627 1808.33,720.975 1810.37,722.411 1812.41,722.581 1814.45,723.448 1816.49,722.362 1818.53,721.625 1820.57,724.162 1822.61,726.239 
  1824.65,728.583 1826.68,730.227 1828.72,730.886 1830.76,729.183 1832.8,728.172 1834.84,731.625 1836.88,730.818 1838.92,729.015 1840.96,730.581 1843,732.144 
  1845.04,731.856 1847.08,732.319 1849.12,735.078 1851.16,738.803 1853.2,741.521 1855.23,741.883 1857.27,739.321 1859.31,738.14 1861.35,739.842 1863.39,739.902 
  1865.43,739.025 1867.47,739.977 1869.51,741.53 1871.55,740.923 1873.59,740.309 1875.63,738.877 1877.67,738.152 1879.71,738.021 1881.74,739.055 1883.78,742.405 
  1885.82,742.159 1887.86,740.615 1889.9,740.681 1891.94,738.59 1893.98,736.931 1896.02,737.181 1898.06,736.401 1900.1,735.67 1902.14,735.687 1904.18,737.767 
  1906.22,737.837 1908.26,734.971 1910.29,737.165 1912.33,737.626 1914.37,738.229 1916.41,735.518 1918.45,735.817 1920.49,736.049 1922.53,737.663 1924.57,738.488 
  1926.61,737.605 1928.65,734.44 1930.69,736.782 1932.73,735.353 1934.77,738.88 1936.81,737.726 1938.84,739.208 1940.88,738.049 1942.92,735.569 1944.96,735.953 
  1947,735.975 1949.04,732.732 1951.08,730.11 1953.12,730.106 1955.16,729.629 1957.2,728.419 1959.24,731.038 1961.28,730.253 1963.32,729.57 1965.36,732.233 
  1967.39,732.017 1969.43,730.612 1971.47,731.272 1973.51,731.494 1975.55,731.417 1977.59,735.476 1979.63,735.605 1981.67,734.408 1983.71,737.843 1985.75,738.113 
  1987.79,734.956 1989.83,735.148 1991.87,736.192 1993.9,734.315 1995.94,736.724 1997.98,736.403 2000.02,736.259 2002.06,735.971 2004.1,736.427 2006.14,736.536 
  2008.18,738.729 2010.22,742.186 2012.26,742.312 2014.3,742.519 2016.34,744.297 2018.38,744.152 2020.42,744.854 2022.45,747.641 2024.49,744.75 2026.53,745.795 
  2028.57,741.574 2030.61,741.827 2032.65,742.711 2034.69,743.132 2036.73,743.792 2038.77,743.794 2040.81,746.591 2042.85,747.573 2044.89,745.592 2046.93,743.306 
  2048.97,741.487 2051,740.407 2053.04,739.147 2055.08,739.087 2057.12,737.359 2059.16,735.51 2061.2,734.742 2063.24,735.76 2065.28,734.537 2067.32,734.872 
  2069.36,736.259 2071.4,735.798 2073.44,733.801 2075.48,732.428 2077.52,731.917 2079.55,733.765 2081.59,736.037 2083.63,736.312 2085.67,736.078 2087.71,736.692 
  2089.75,737.733 2091.79,737.949 2093.83,738.173 2095.87,740.372 2097.91,740.356 2099.95,739.738 2101.99,737.402 2104.03,737.183 2106.07,736.751 2108.1,734.514 
  2110.14,731.219 2112.18,733.507 2114.22,734.136 2116.26,733.805 2118.3,733.614 2120.34,736.498 2122.38,737.721 2124.42,737.277 2126.46,737.012 2128.5,736.224 
  2130.54,738.183 2132.58,739.515 2134.61,735.74 2136.65,735.382 2138.69,733.409 2140.73,735.333 2142.77,734.067 2144.81,735.025 2146.85,736.154 2148.89,735.019 
  2150.93,734.88 2152.97,737.058 2155.01,737.415 2157.05,737.489 2159.09,737.609 2161.13,738.663 2163.16,739.114 2165.2,741.23 2167.24,739.638 2169.28,740.074 
  2171.32,739.78 2173.36,741.037 2175.4,741.161 2177.44,740.384 2179.48,738.325 2181.52,737.568 2183.56,737.412 2185.6,739.036 2187.64,738.719 2189.68,738.962 
  2191.71,742.22 2193.75,741.652 2195.79,741.891 2197.83,745.898 2199.87,745.046 2201.91,744.061 2203.95,742.482 2205.99,740.521 2208.03,741.246 2210.07,741.307 
  2212.11,739.366 2214.15,736.319 2216.19,736.02 2218.23,735.939 2220.26,736.246 2222.3,734.841 2224.34,732.042 2226.38,731.015 2228.42,731.944 2230.46,728.921 
  2232.5,729.544 2234.54,731.225 2236.58,728.955 2238.62,730.11 2240.66,730.347 2242.7,727.451 2244.74,725.285 2246.77,723.628 2248.81,725.565 2250.85,727.05 
  2252.89,729.118 2254.93,729.587 2256.97,729.849 2259.01,728.347 2261.05,729.618 2263.09,730.113 2265.13,732.438 2267.17,732.858 2269.21,732.067 2271.25,733.609 
  2273.29,733.425 2275.32,736.815 2277.36,735.054 2279.4,736.875 2281.44,735.066 2283.48,733.799 2285.52,732.544 2287.56,733.959 2289.6,734.485 2291.64,735.033 
  
  "/>
<path clip-path="url(#clip260)" d="
M1611.97 250.738 L2280.77 250.738 L2280.77 95.2176 L1611.97 95.2176  Z
  " fill="#ffffff" fill-rule="evenodd" fill-opacity="1"/>
<polyline clip-path="url(#clip260)" style="stroke:#000000; stroke-linecap:butt; stroke-linejoin:round; stroke-width:4; stroke-opacity:1; fill:none" points="
  1611.97,250.738 2280.77,250.738 2280.77,95.2176 1611.97,95.2176 1611.97,250.738 
  "/>
<polyline clip-path="url(#clip260)" style="stroke:#009af9; stroke-linecap:butt; stroke-linejoin:round; stroke-width:4; stroke-opacity:0.4; fill:none" points="
  1635.96,147.058 1779.93,147.058 
  "/>
<path clip-path="url(#clip260)" d="M1803.92 129.778 L1808.6 129.778 L1808.6 164.338 L1803.92 164.338 L1803.92 129.778 Z" fill="#000000" fill-rule="evenodd" fill-opacity="1" /><path clip-path="url(#clip260)" d="M1839.27 148.689 L1839.27 164.338 L1835.01 164.338 L1835.01 148.828 Q1835.01 145.148 1833.57 143.319 Q1832.14 141.49 1829.27 141.49 Q1825.82 141.49 1823.83 143.69 Q1821.84 145.889 1821.84 149.685 L1821.84 164.338 L1817.56 164.338 L1817.56 138.412 L1821.84 138.412 L1821.84 142.44 Q1823.37 140.102 1825.43 138.944 Q1827.51 137.787 1830.22 137.787 Q1834.69 137.787 1836.98 140.565 Q1839.27 143.319 1839.27 148.689 Z" fill="#000000" fill-rule="evenodd" fill-opacity="1" /><path clip-path="url(#clip260)" d="M1851.88 160.449 L1851.88 174.199 L1847.6 174.199 L1847.6 138.412 L1851.88 138.412 L1851.88 142.347 Q1853.23 140.032 1855.26 138.921 Q1857.32 137.787 1860.17 137.787 Q1864.89 137.787 1867.83 141.537 Q1870.8 145.287 1870.8 151.398 Q1870.8 157.509 1867.83 161.259 Q1864.89 165.009 1860.17 165.009 Q1857.32 165.009 1855.26 163.898 Q1853.23 162.763 1851.88 160.449 M1866.38 151.398 Q1866.38 146.699 1864.43 144.037 Q1862.51 141.352 1859.13 141.352 Q1855.75 141.352 1853.81 144.037 Q1851.88 146.699 1851.88 151.398 Q1851.88 156.097 1853.81 158.782 Q1855.75 161.444 1859.13 161.444 Q1862.51 161.444 1864.43 158.782 Q1866.38 156.097 1866.38 151.398 Z" fill="#000000" fill-rule="evenodd" fill-opacity="1" /><path clip-path="url(#clip260)" d="M1877.42 154.106 L1877.42 138.412 L1881.68 138.412 L1881.68 153.944 Q1881.68 157.625 1883.11 159.476 Q1884.55 161.305 1887.42 161.305 Q1890.87 161.305 1892.86 159.106 Q1894.87 156.907 1894.87 153.111 L1894.87 138.412 L1899.13 138.412 L1899.13 164.338 L1894.87 164.338 L1894.87 160.356 Q1893.32 162.717 1891.26 163.875 Q1889.22 165.009 1886.51 165.009 Q1882.05 165.009 1879.73 162.231 Q1877.42 159.453 1877.42 154.106 M1888.13 137.787 L1888.13 137.787 Z" fill="#000000" fill-rule="evenodd" fill-opacity="1" /><path clip-path="url(#clip260)" d="M1912.12 131.051 L1912.12 138.412 L1920.89 138.412 L1920.89 141.722 L1912.12 141.722 L1912.12 155.796 Q1912.12 158.967 1912.97 159.87 Q1913.85 160.773 1916.51 160.773 L1920.89 160.773 L1920.89 164.338 L1916.51 164.338 Q1911.58 164.338 1909.71 162.509 Q1907.83 160.657 1907.83 155.796 L1907.83 141.722 L1904.71 141.722 L1904.71 138.412 L1907.83 138.412 L1907.83 131.051 L1912.12 131.051 Z" fill="#000000" fill-rule="evenodd" fill-opacity="1" /><polyline clip-path="url(#clip260)" style="stroke:#e26f46; stroke-linecap:butt; stroke-linejoin:round; stroke-width:4; stroke-opacity:1; fill:none" points="
  1635.96,198.898 1779.93,198.898 
  "/>
<path clip-path="url(#clip260)" d="M1822.35 191.016 L1822.35 195.043 Q1820.54 194.117 1818.6 193.655 Q1816.65 193.192 1814.57 193.192 Q1811.4 193.192 1809.8 194.164 Q1808.23 195.136 1808.23 197.08 Q1808.23 198.562 1809.36 199.418 Q1810.5 200.252 1813.92 201.016 L1815.38 201.34 Q1819.92 202.312 1821.82 204.094 Q1823.74 205.854 1823.74 209.025 Q1823.74 212.636 1820.87 214.742 Q1818.02 216.849 1813.02 216.849 Q1810.94 216.849 1808.67 216.432 Q1806.42 216.039 1803.92 215.228 L1803.92 210.83 Q1806.28 212.057 1808.57 212.682 Q1810.87 213.284 1813.11 213.284 Q1816.12 213.284 1817.74 212.266 Q1819.36 211.224 1819.36 209.349 Q1819.36 207.613 1818.18 206.687 Q1817.02 205.761 1813.07 204.904 L1811.58 204.557 Q1807.63 203.724 1805.87 202.011 Q1804.11 200.275 1804.11 197.266 Q1804.11 193.608 1806.7 191.618 Q1809.29 189.627 1814.06 189.627 Q1816.42 189.627 1818.51 189.974 Q1820.59 190.321 1822.35 191.016 Z" fill="#000000" fill-rule="evenodd" fill-opacity="1" /><path clip-path="url(#clip260)" d="M1834.73 182.891 L1834.73 190.252 L1843.51 190.252 L1843.51 193.562 L1834.73 193.562 L1834.73 207.636 Q1834.73 210.807 1835.59 211.71 Q1836.47 212.613 1839.13 212.613 L1843.51 212.613 L1843.51 216.178 L1839.13 216.178 Q1834.2 216.178 1832.32 214.349 Q1830.45 212.497 1830.45 207.636 L1830.45 193.562 L1827.32 193.562 L1827.32 190.252 L1830.45 190.252 L1830.45 182.891 L1834.73 182.891 Z" fill="#000000" fill-rule="evenodd" fill-opacity="1" /><path clip-path="url(#clip260)" d="M1866.17 194.187 L1866.17 180.159 L1870.43 180.159 L1870.43 216.178 L1866.17 216.178 L1866.17 212.289 Q1864.82 214.603 1862.76 215.738 Q1860.73 216.849 1857.86 216.849 Q1853.16 216.849 1850.19 213.099 Q1847.26 209.349 1847.26 203.238 Q1847.26 197.127 1850.19 193.377 Q1853.16 189.627 1857.86 189.627 Q1860.73 189.627 1862.76 190.761 Q1864.82 191.872 1866.17 194.187 M1851.65 203.238 Q1851.65 207.937 1853.57 210.622 Q1855.52 213.284 1858.9 213.284 Q1862.28 213.284 1864.22 210.622 Q1866.17 207.937 1866.17 203.238 Q1866.17 198.539 1864.22 195.877 Q1862.28 193.192 1858.9 193.192 Q1855.52 193.192 1853.57 195.877 Q1851.65 198.539 1851.65 203.238 Z" fill="#000000" fill-rule="evenodd" fill-opacity="1" /><path clip-path="url(#clip260)" d="M1904.5 180.206 Q1901.4 185.53 1899.89 190.738 Q1898.39 195.946 1898.39 201.293 Q1898.39 206.641 1899.89 211.895 Q1901.42 217.127 1904.5 222.428 L1900.8 222.428 Q1897.32 216.988 1895.59 211.733 Q1893.88 206.479 1893.88 201.293 Q1893.88 196.131 1895.59 190.9 Q1897.3 185.668 1900.8 180.206 L1904.5 180.206 Z" fill="#000000" fill-rule="evenodd" fill-opacity="1" /><path clip-path="url(#clip260)" d="M1910.29 190.252 L1914.55 190.252 L1919.87 210.483 L1925.17 190.252 L1930.19 190.252 L1935.52 210.483 L1940.82 190.252 L1945.08 190.252 L1938.3 216.178 L1933.27 216.178 L1927.69 194.928 L1922.09 216.178 L1917.07 216.178 L1910.29 190.252 Z" fill="#000000" fill-rule="evenodd" fill-opacity="1" /><path clip-path="url(#clip260)" d="M1951.54 190.252 L1955.8 190.252 L1955.8 216.178 L1951.54 216.178 L1951.54 190.252 M1951.54 180.159 L1955.8 180.159 L1955.8 185.553 L1951.54 185.553 L1951.54 180.159 Z" fill="#000000" fill-rule="evenodd" fill-opacity="1" /><path clip-path="url(#clip260)" d="M1986.26 200.529 L1986.26 216.178 L1982 216.178 L1982 200.668 Q1982 196.988 1980.56 195.159 Q1979.13 193.33 1976.26 193.33 Q1972.81 193.33 1970.82 195.53 Q1968.83 197.729 1968.83 201.525 L1968.83 216.178 L1964.55 216.178 L1964.55 190.252 L1968.83 190.252 L1968.83 194.28 Q1970.36 191.942 1972.42 190.784 Q1974.5 189.627 1977.21 189.627 Q1981.68 189.627 1983.97 192.405 Q1986.26 195.159 1986.26 200.529 Z" fill="#000000" fill-rule="evenodd" fill-opacity="1" /><path clip-path="url(#clip260)" d="M2011.81 194.187 L2011.81 180.159 L2016.07 180.159 L2016.07 216.178 L2011.81 216.178 L2011.81 212.289 Q2010.47 214.603 2008.41 215.738 Q2006.37 216.849 2003.5 216.849 Q1998.81 216.849 1995.84 213.099 Q1992.9 209.349 1992.9 203.238 Q1992.9 197.127 1995.84 193.377 Q1998.81 189.627 2003.5 189.627 Q2006.37 189.627 2008.41 190.761 Q2010.47 191.872 2011.81 194.187 M1997.3 203.238 Q1997.3 207.937 1999.22 210.622 Q2001.17 213.284 2004.55 213.284 Q2007.93 213.284 2009.87 210.622 Q2011.81 207.937 2011.81 203.238 Q2011.81 198.539 2009.87 195.877 Q2007.93 193.192 2004.55 193.192 Q2001.17 193.192 1999.22 195.877 Q1997.3 198.539 1997.3 203.238 Z" fill="#000000" fill-rule="evenodd" fill-opacity="1" /><path clip-path="url(#clip260)" d="M2034.89 193.238 Q2031.47 193.238 2029.48 195.923 Q2027.49 198.585 2027.49 203.238 Q2027.49 207.891 2029.45 210.576 Q2031.44 213.238 2034.89 213.238 Q2038.3 213.238 2040.29 210.553 Q2042.28 207.867 2042.28 203.238 Q2042.28 198.631 2040.29 195.946 Q2038.3 193.238 2034.89 193.238 M2034.89 189.627 Q2040.45 189.627 2043.62 193.238 Q2046.79 196.849 2046.79 203.238 Q2046.79 209.604 2043.62 213.238 Q2040.45 216.849 2034.89 216.849 Q2029.31 216.849 2026.14 213.238 Q2022.99 209.604 2022.99 203.238 Q2022.99 196.849 2026.14 193.238 Q2029.31 189.627 2034.89 189.627 Z" fill="#000000" fill-rule="evenodd" fill-opacity="1" /><path clip-path="url(#clip260)" d="M2051.37 190.252 L2055.63 190.252 L2060.96 210.483 L2066.26 190.252 L2071.28 190.252 L2076.61 210.483 L2081.91 190.252 L2086.17 190.252 L2079.38 216.178 L2074.36 216.178 L2068.78 194.928 L2063.18 216.178 L2058.16 216.178 L2051.37 190.252 Z" fill="#000000" fill-rule="evenodd" fill-opacity="1" /><path clip-path="url(#clip260)" d="M2093.18 194.65 L2122.86 194.65 L2122.86 198.539 L2093.18 198.539 L2093.18 194.65 M2093.18 204.094 L2122.86 204.094 L2122.86 208.029 L2093.18 208.029 L2093.18 204.094 Z" fill="#000000" fill-rule="evenodd" fill-opacity="1" /><path clip-path="url(#clip260)" d="M2133.76 212.242 L2141.4 212.242 L2141.4 185.877 L2133.09 187.543 L2133.09 183.284 L2141.35 181.618 L2146.03 181.618 L2146.03 212.242 L2153.67 212.242 L2153.67 216.178 L2133.76 216.178 L2133.76 212.242 Z" fill="#000000" fill-rule="evenodd" fill-opacity="1" /><path clip-path="url(#clip260)" d="M2173.11 184.696 Q2169.5 184.696 2167.67 188.261 Q2165.86 191.803 2165.86 198.932 Q2165.86 206.039 2167.67 209.604 Q2169.5 213.145 2173.11 213.145 Q2176.74 213.145 2178.55 209.604 Q2180.38 206.039 2180.38 198.932 Q2180.38 191.803 2178.55 188.261 Q2176.74 184.696 2173.11 184.696 M2173.11 180.993 Q2178.92 180.993 2181.98 185.599 Q2185.05 190.182 2185.05 198.932 Q2185.05 207.659 2181.98 212.266 Q2178.92 216.849 2173.11 216.849 Q2167.3 216.849 2164.22 212.266 Q2161.17 207.659 2161.17 198.932 Q2161.17 190.182 2164.22 185.599 Q2167.3 180.993 2173.11 180.993 Z" fill="#000000" fill-rule="evenodd" fill-opacity="1" /><path clip-path="url(#clip260)" d="M2203.27 184.696 Q2199.66 184.696 2197.83 188.261 Q2196.03 191.803 2196.03 198.932 Q2196.03 206.039 2197.83 209.604 Q2199.66 213.145 2203.27 213.145 Q2206.91 213.145 2208.71 209.604 Q2210.54 206.039 2210.54 198.932 Q2210.54 191.803 2208.71 188.261 Q2206.91 184.696 2203.27 184.696 M2203.27 180.993 Q2209.08 180.993 2212.14 185.599 Q2215.22 190.182 2215.22 198.932 Q2215.22 207.659 2212.14 212.266 Q2209.08 216.849 2203.27 216.849 Q2197.46 216.849 2194.38 212.266 Q2191.33 207.659 2191.33 198.932 Q2191.33 190.182 2194.38 185.599 Q2197.46 180.993 2203.27 180.993 Z" fill="#000000" fill-rule="evenodd" fill-opacity="1" /><path clip-path="url(#clip260)" d="M2222.16 180.206 L2225.86 180.206 Q2229.34 185.668 2231.05 190.9 Q2232.79 196.131 2232.79 201.293 Q2232.79 206.479 2231.05 211.733 Q2229.34 216.988 2225.86 222.428 L2222.16 222.428 Q2225.24 217.127 2226.74 211.895 Q2228.27 206.641 2228.27 201.293 Q2228.27 195.946 2226.74 190.738 Q2225.24 185.53 2222.16 180.206 Z" fill="#000000" fill-rule="evenodd" fill-opacity="1" /></svg>
