<?xml version="1.0" encoding="utf-8"?>
<svg xmlns="http://www.w3.org/2000/svg" xmlns:xlink="http://www.w3.org/1999/xlink" width="600" height="400" viewBox="0 0 2400 1600">
<defs>
  <clipPath id="clip960">
    <rect x="0" y="0" width="2400" height="1600"/>
  </clipPath>
</defs>
<path clip-path="url(#clip960)" d="
M0 1600 L2400 1600 L2400 0 L0 0  Z
  " fill="#ffffff" fill-rule="evenodd" fill-opacity="1"/>
<defs>
  <clipPath id="clip961">
    <rect x="480" y="0" width="1681" height="1600"/>
  </clipPath>
</defs>
<path clip-path="url(#clip960)" d="
M193.936 1486.45 L2352.76 1486.45 L2352.76 123.472 L193.936 123.472  Z
  " fill="#ffffff" fill-rule="evenodd" fill-opacity="1"/>
<defs>
  <clipPath id="clip962">
    <rect x="193" y="123" width="2160" height="1364"/>
  </clipPath>
</defs>
<polyline clip-path="url(#clip962)" style="stroke:#000000; stroke-linecap:butt; stroke-linejoin:round; stroke-width:2; stroke-opacity:0.1; fill:none" points="
  481.326,1486.45 481.326,123.472 
  "/>
<polyline clip-path="url(#clip962)" style="stroke:#000000; stroke-linecap:butt; stroke-linejoin:round; stroke-width:2; stroke-opacity:0.1; fill:none" points="
  933.909,1486.45 933.909,123.472 
  "/>
<polyline clip-path="url(#clip962)" style="stroke:#000000; stroke-linecap:butt; stroke-linejoin:round; stroke-width:2; stroke-opacity:0.1; fill:none" points="
  1386.49,1486.45 1386.49,123.472 
  "/>
<polyline clip-path="url(#clip962)" style="stroke:#000000; stroke-linecap:butt; stroke-linejoin:round; stroke-width:2; stroke-opacity:0.1; fill:none" points="
  1839.07,1486.45 1839.07,123.472 
  "/>
<polyline clip-path="url(#clip962)" style="stroke:#000000; stroke-linecap:butt; stroke-linejoin:round; stroke-width:2; stroke-opacity:0.1; fill:none" points="
  2291.66,1486.45 2291.66,123.472 
  "/>
<polyline clip-path="url(#clip960)" style="stroke:#000000; stroke-linecap:butt; stroke-linejoin:round; stroke-width:4; stroke-opacity:1; fill:none" points="
  193.936,1486.45 2352.76,1486.45 
  "/>
<polyline clip-path="url(#clip960)" style="stroke:#000000; stroke-linecap:butt; stroke-linejoin:round; stroke-width:4; stroke-opacity:1; fill:none" points="
  481.326,1486.45 481.326,1467.55 
  "/>
<polyline clip-path="url(#clip960)" style="stroke:#000000; stroke-linecap:butt; stroke-linejoin:round; stroke-width:4; stroke-opacity:1; fill:none" points="
  933.909,1486.45 933.909,1467.55 
  "/>
<polyline clip-path="url(#clip960)" style="stroke:#000000; stroke-linecap:butt; stroke-linejoin:round; stroke-width:4; stroke-opacity:1; fill:none" points="
  1386.49,1486.45 1386.49,1467.55 
  "/>
<polyline clip-path="url(#clip960)" style="stroke:#000000; stroke-linecap:butt; stroke-linejoin:round; stroke-width:4; stroke-opacity:1; fill:none" points="
  1839.07,1486.45 1839.07,1467.55 
  "/>
<polyline clip-path="url(#clip960)" style="stroke:#000000; stroke-linecap:butt; stroke-linejoin:round; stroke-width:4; stroke-opacity:1; fill:none" points="
  2291.66,1486.45 2291.66,1467.55 
  "/>
<path clip-path="url(#clip960)" d="M475.979 1543.18 L492.298 1543.18 L492.298 1547.12 L470.354 1547.12 L470.354 1543.18 Q473.016 1540.43 477.599 1535.8 Q482.206 1531.15 483.386 1529.81 Q485.632 1527.28 486.511 1525.55 Q487.414 1523.79 487.414 1522.1 Q487.414 1519.34 485.47 1517.61 Q483.548 1515.87 480.446 1515.87 Q478.247 1515.87 475.794 1516.63 Q473.363 1517.4 470.585 1518.95 L470.585 1514.23 Q473.409 1513.09 475.863 1512.51 Q478.317 1511.93 480.354 1511.93 Q485.724 1511.93 488.919 1514.62 Q492.113 1517.31 492.113 1521.8 Q492.113 1523.93 491.303 1525.85 Q490.516 1527.74 488.409 1530.34 Q487.831 1531.01 484.729 1534.23 Q481.627 1537.42 475.979 1543.18 Z" fill="#000000" fill-rule="evenodd" fill-opacity="1" /><path clip-path="url(#clip960)" d="M936.918 1516.63 L925.113 1535.08 L936.918 1535.08 L936.918 1516.63 M935.691 1512.56 L941.571 1512.56 L941.571 1535.08 L946.501 1535.08 L946.501 1538.97 L941.571 1538.97 L941.571 1547.12 L936.918 1547.12 L936.918 1538.97 L921.316 1538.97 L921.316 1534.46 L935.691 1512.56 Z" fill="#000000" fill-rule="evenodd" fill-opacity="1" /><path clip-path="url(#clip960)" d="M1386.9 1527.98 Q1383.75 1527.98 1381.9 1530.13 Q1380.07 1532.28 1380.07 1536.03 Q1380.07 1539.76 1381.9 1541.93 Q1383.75 1544.09 1386.9 1544.09 Q1390.04 1544.09 1391.87 1541.93 Q1393.73 1539.76 1393.73 1536.03 Q1393.73 1532.28 1391.87 1530.13 Q1390.04 1527.98 1386.9 1527.98 M1396.18 1513.32 L1396.18 1517.58 Q1394.42 1516.75 1392.61 1516.31 Q1390.83 1515.87 1389.07 1515.87 Q1384.44 1515.87 1381.99 1519 Q1379.56 1522.12 1379.21 1528.44 Q1380.58 1526.43 1382.64 1525.36 Q1384.7 1524.27 1387.17 1524.27 Q1392.38 1524.27 1395.39 1527.44 Q1398.42 1530.59 1398.42 1536.03 Q1398.42 1541.36 1395.28 1544.57 Q1392.13 1547.79 1386.9 1547.79 Q1380.9 1547.79 1377.73 1543.21 Q1374.56 1538.6 1374.56 1529.87 Q1374.56 1521.68 1378.45 1516.82 Q1382.34 1511.93 1388.89 1511.93 Q1390.65 1511.93 1392.43 1512.28 Q1394.23 1512.63 1396.18 1513.32 Z" fill="#000000" fill-rule="evenodd" fill-opacity="1" /><path clip-path="url(#clip960)" d="M1839.07 1530.71 Q1835.74 1530.71 1833.82 1532.49 Q1831.92 1534.27 1831.92 1537.4 Q1831.92 1540.52 1833.82 1542.31 Q1835.74 1544.09 1839.07 1544.09 Q1842.41 1544.09 1844.33 1542.31 Q1846.25 1540.5 1846.25 1537.4 Q1846.25 1534.27 1844.33 1532.49 Q1842.43 1530.71 1839.07 1530.71 M1834.4 1528.72 Q1831.39 1527.98 1829.7 1525.92 Q1828.03 1523.86 1828.03 1520.89 Q1828.03 1516.75 1830.97 1514.34 Q1833.94 1511.93 1839.07 1511.93 Q1844.24 1511.93 1847.18 1514.34 Q1850.12 1516.75 1850.12 1520.89 Q1850.12 1523.86 1848.43 1525.92 Q1846.76 1527.98 1843.77 1528.72 Q1847.15 1529.5 1849.03 1531.8 Q1850.93 1534.09 1850.93 1537.4 Q1850.93 1542.42 1847.85 1545.11 Q1844.79 1547.79 1839.07 1547.79 Q1833.36 1547.79 1830.28 1545.11 Q1827.22 1542.42 1827.22 1537.4 Q1827.22 1534.09 1829.12 1531.8 Q1831.02 1529.5 1834.4 1528.72 M1832.69 1521.33 Q1832.69 1524.02 1834.35 1525.52 Q1836.04 1527.03 1839.07 1527.03 Q1842.08 1527.03 1843.77 1525.52 Q1845.49 1524.02 1845.49 1521.33 Q1845.49 1518.65 1843.77 1517.14 Q1842.08 1515.64 1839.07 1515.64 Q1836.04 1515.64 1834.35 1517.14 Q1832.69 1518.65 1832.69 1521.33 Z" fill="#000000" fill-rule="evenodd" fill-opacity="1" /><path clip-path="url(#clip960)" d="M2266.34 1543.18 L2273.98 1543.18 L2273.98 1516.82 L2265.67 1518.49 L2265.67 1514.23 L2273.94 1512.56 L2278.61 1512.56 L2278.61 1543.18 L2286.25 1543.18 L2286.25 1547.12 L2266.34 1547.12 L2266.34 1543.18 Z" fill="#000000" fill-rule="evenodd" fill-opacity="1" /><path clip-path="url(#clip960)" d="M2305.7 1515.64 Q2302.09 1515.64 2300.26 1519.2 Q2298.45 1522.75 2298.45 1529.87 Q2298.45 1536.98 2300.26 1540.55 Q2302.09 1544.09 2305.7 1544.09 Q2309.33 1544.09 2311.14 1540.55 Q2312.96 1536.98 2312.96 1529.87 Q2312.96 1522.75 2311.14 1519.2 Q2309.33 1515.64 2305.7 1515.64 M2305.7 1511.93 Q2311.51 1511.93 2314.56 1516.54 Q2317.64 1521.12 2317.64 1529.87 Q2317.64 1538.6 2314.56 1543.21 Q2311.51 1547.79 2305.7 1547.79 Q2299.89 1547.79 2296.81 1543.21 Q2293.75 1538.6 2293.75 1529.87 Q2293.75 1521.12 2296.81 1516.54 Q2299.89 1511.93 2305.7 1511.93 Z" fill="#000000" fill-rule="evenodd" fill-opacity="1" /><polyline clip-path="url(#clip962)" style="stroke:#000000; stroke-linecap:butt; stroke-linejoin:round; stroke-width:2; stroke-opacity:0.1; fill:none" points="
  193.936,1484.57 2352.76,1484.57 
  "/>
<polyline clip-path="url(#clip962)" style="stroke:#000000; stroke-linecap:butt; stroke-linejoin:round; stroke-width:2; stroke-opacity:0.1; fill:none" points="
  193.936,1213.8 2352.76,1213.8 
  "/>
<polyline clip-path="url(#clip962)" style="stroke:#000000; stroke-linecap:butt; stroke-linejoin:round; stroke-width:2; stroke-opacity:0.1; fill:none" points="
  193.936,943.03 2352.76,943.03 
  "/>
<polyline clip-path="url(#clip962)" style="stroke:#000000; stroke-linecap:butt; stroke-linejoin:round; stroke-width:2; stroke-opacity:0.1; fill:none" points="
  193.936,672.263 2352.76,672.263 
  "/>
<polyline clip-path="url(#clip962)" style="stroke:#000000; stroke-linecap:butt; stroke-linejoin:round; stroke-width:2; stroke-opacity:0.1; fill:none" points="
  193.936,401.495 2352.76,401.495 
  "/>
<polyline clip-path="url(#clip962)" style="stroke:#000000; stroke-linecap:butt; stroke-linejoin:round; stroke-width:2; stroke-opacity:0.1; fill:none" points="
  193.936,130.728 2352.76,130.728 
  "/>
<polyline clip-path="url(#clip960)" style="stroke:#000000; stroke-linecap:butt; stroke-linejoin:round; stroke-width:4; stroke-opacity:1; fill:none" points="
  193.936,1486.45 193.936,123.472 
  "/>
<polyline clip-path="url(#clip960)" style="stroke:#000000; stroke-linecap:butt; stroke-linejoin:round; stroke-width:4; stroke-opacity:1; fill:none" points="
  193.936,1484.57 212.834,1484.57 
  "/>
<polyline clip-path="url(#clip960)" style="stroke:#000000; stroke-linecap:butt; stroke-linejoin:round; stroke-width:4; stroke-opacity:1; fill:none" points="
  193.936,1213.8 212.834,1213.8 
  "/>
<polyline clip-path="url(#clip960)" style="stroke:#000000; stroke-linecap:butt; stroke-linejoin:round; stroke-width:4; stroke-opacity:1; fill:none" points="
  193.936,943.03 212.834,943.03 
  "/>
<polyline clip-path="url(#clip960)" style="stroke:#000000; stroke-linecap:butt; stroke-linejoin:round; stroke-width:4; stroke-opacity:1; fill:none" points="
  193.936,672.263 212.834,672.263 
  "/>
<polyline clip-path="url(#clip960)" style="stroke:#000000; stroke-linecap:butt; stroke-linejoin:round; stroke-width:4; stroke-opacity:1; fill:none" points="
  193.936,401.495 212.834,401.495 
  "/>
<polyline clip-path="url(#clip960)" style="stroke:#000000; stroke-linecap:butt; stroke-linejoin:round; stroke-width:4; stroke-opacity:1; fill:none" points="
  193.936,130.728 212.834,130.728 
  "/>
<path clip-path="url(#clip960)" d="M50.9921 1485.02 L80.6679 1485.02 L80.6679 1488.95 L50.9921 1488.95 L50.9921 1485.02 Z" fill="#000000" fill-rule="evenodd" fill-opacity="1" /><path clip-path="url(#clip960)" d="M91.5706 1497.91 L99.2095 1497.91 L99.2095 1471.54 L90.8993 1473.21 L90.8993 1468.95 L99.1632 1467.29 L103.839 1467.29 L103.839 1497.91 L111.478 1497.91 L111.478 1501.85 L91.5706 1501.85 L91.5706 1497.91 Z" fill="#000000" fill-rule="evenodd" fill-opacity="1" /><path clip-path="url(#clip960)" d="M120.922 1495.97 L125.807 1495.97 L125.807 1501.85 L120.922 1501.85 L120.922 1495.97 Z" fill="#000000" fill-rule="evenodd" fill-opacity="1" /><path clip-path="url(#clip960)" d="M145.992 1470.36 Q142.381 1470.36 140.552 1473.93 Q138.746 1477.47 138.746 1484.6 Q138.746 1491.71 140.552 1495.27 Q142.381 1498.81 145.992 1498.81 Q149.626 1498.81 151.431 1495.27 Q153.26 1491.71 153.26 1484.6 Q153.26 1477.47 151.431 1473.93 Q149.626 1470.36 145.992 1470.36 M145.992 1466.66 Q151.802 1466.66 154.857 1471.27 Q157.936 1475.85 157.936 1484.6 Q157.936 1493.33 154.857 1497.93 Q151.802 1502.52 145.992 1502.52 Q140.181 1502.52 137.103 1497.93 Q134.047 1493.33 134.047 1484.6 Q134.047 1475.85 137.103 1471.27 Q140.181 1466.66 145.992 1466.66 Z" fill="#000000" fill-rule="evenodd" fill-opacity="1" /><path clip-path="url(#clip960)" d="M51.9875 1214.25 L81.6633 1214.25 L81.6633 1218.18 L51.9875 1218.18 L51.9875 1214.25 Z" fill="#000000" fill-rule="evenodd" fill-opacity="1" /><path clip-path="url(#clip960)" d="M101.756 1199.6 Q98.1447 1199.6 96.316 1203.16 Q94.5104 1206.7 94.5104 1213.83 Q94.5104 1220.94 96.316 1224.5 Q98.1447 1228.05 101.756 1228.05 Q105.39 1228.05 107.196 1224.5 Q109.024 1220.94 109.024 1213.83 Q109.024 1206.7 107.196 1203.16 Q105.39 1199.6 101.756 1199.6 M101.756 1195.89 Q107.566 1195.89 110.621 1200.5 Q113.7 1205.08 113.7 1213.83 Q113.7 1222.56 110.621 1227.17 Q107.566 1231.75 101.756 1231.75 Q95.9456 1231.75 92.8669 1227.17 Q89.8114 1222.56 89.8114 1213.83 Q89.8114 1205.08 92.8669 1200.5 Q95.9456 1195.89 101.756 1195.89 Z" fill="#000000" fill-rule="evenodd" fill-opacity="1" /><path clip-path="url(#clip960)" d="M121.918 1225.2 L126.802 1225.2 L126.802 1231.08 L121.918 1231.08 L121.918 1225.2 Z" fill="#000000" fill-rule="evenodd" fill-opacity="1" /><path clip-path="url(#clip960)" d="M137.033 1196.52 L155.39 1196.52 L155.39 1200.45 L141.316 1200.45 L141.316 1208.93 Q142.334 1208.58 143.353 1208.42 Q144.371 1208.23 145.39 1208.23 Q151.177 1208.23 154.556 1211.4 Q157.936 1214.57 157.936 1219.99 Q157.936 1225.57 154.464 1228.67 Q150.992 1231.75 144.672 1231.75 Q142.496 1231.75 140.228 1231.38 Q137.982 1231.01 135.575 1230.27 L135.575 1225.57 Q137.658 1226.7 139.881 1227.26 Q142.103 1227.81 144.58 1227.81 Q148.584 1227.81 150.922 1225.71 Q153.26 1223.6 153.26 1219.99 Q153.26 1216.38 150.922 1214.27 Q148.584 1212.17 144.58 1212.17 Q142.705 1212.17 140.83 1212.58 Q138.978 1213 137.033 1213.88 L137.033 1196.52 Z" fill="#000000" fill-rule="evenodd" fill-opacity="1" /><path clip-path="url(#clip960)" d="M100.76 928.829 Q97.1493 928.829 95.3206 932.394 Q93.515 935.936 93.515 943.065 Q93.515 950.172 95.3206 953.736 Q97.1493 957.278 100.76 957.278 Q104.395 957.278 106.2 953.736 Q108.029 950.172 108.029 943.065 Q108.029 935.936 106.2 932.394 Q104.395 928.829 100.76 928.829 M100.76 925.125 Q106.571 925.125 109.626 929.732 Q112.705 934.315 112.705 943.065 Q112.705 951.792 109.626 956.398 Q106.571 960.982 100.76 960.982 Q94.9502 960.982 91.8715 956.398 Q88.816 951.792 88.816 943.065 Q88.816 934.315 91.8715 929.732 Q94.9502 925.125 100.76 925.125 Z" fill="#000000" fill-rule="evenodd" fill-opacity="1" /><path clip-path="url(#clip960)" d="M120.922 954.431 L125.807 954.431 L125.807 960.31 L120.922 960.31 L120.922 954.431 Z" fill="#000000" fill-rule="evenodd" fill-opacity="1" /><path clip-path="url(#clip960)" d="M145.992 928.829 Q142.381 928.829 140.552 932.394 Q138.746 935.936 138.746 943.065 Q138.746 950.172 140.552 953.736 Q142.381 957.278 145.992 957.278 Q149.626 957.278 151.431 953.736 Q153.26 950.172 153.26 943.065 Q153.26 935.936 151.431 932.394 Q149.626 928.829 145.992 928.829 M145.992 925.125 Q151.802 925.125 154.857 929.732 Q157.936 934.315 157.936 943.065 Q157.936 951.792 154.857 956.398 Q151.802 960.982 145.992 960.982 Q140.181 960.982 137.103 956.398 Q134.047 951.792 134.047 943.065 Q134.047 934.315 137.103 929.732 Q140.181 925.125 145.992 925.125 Z" fill="#000000" fill-rule="evenodd" fill-opacity="1" /><path clip-path="url(#clip960)" d="M101.756 658.061 Q98.1447 658.061 96.316 661.626 Q94.5104 665.168 94.5104 672.297 Q94.5104 679.404 96.316 682.969 Q98.1447 686.51 101.756 686.51 Q105.39 686.51 107.196 682.969 Q109.024 679.404 109.024 672.297 Q109.024 665.168 107.196 661.626 Q105.39 658.061 101.756 658.061 M101.756 654.358 Q107.566 654.358 110.621 658.964 Q113.7 663.548 113.7 672.297 Q113.7 681.024 110.621 685.631 Q107.566 690.214 101.756 690.214 Q95.9456 690.214 92.8669 685.631 Q89.8114 681.024 89.8114 672.297 Q89.8114 663.548 92.8669 658.964 Q95.9456 654.358 101.756 654.358 Z" fill="#000000" fill-rule="evenodd" fill-opacity="1" /><path clip-path="url(#clip960)" d="M121.918 683.663 L126.802 683.663 L126.802 689.543 L121.918 689.543 L121.918 683.663 Z" fill="#000000" fill-rule="evenodd" fill-opacity="1" /><path clip-path="url(#clip960)" d="M137.033 654.983 L155.39 654.983 L155.39 658.918 L141.316 658.918 L141.316 667.39 Q142.334 667.043 143.353 666.881 Q144.371 666.696 145.39 666.696 Q151.177 666.696 154.556 669.867 Q157.936 673.038 157.936 678.455 Q157.936 684.034 154.464 687.135 Q150.992 690.214 144.672 690.214 Q142.496 690.214 140.228 689.844 Q137.982 689.473 135.575 688.733 L135.575 684.034 Q137.658 685.168 139.881 685.723 Q142.103 686.279 144.58 686.279 Q148.584 686.279 150.922 684.172 Q153.26 682.066 153.26 678.455 Q153.26 674.844 150.922 672.737 Q148.584 670.631 144.58 670.631 Q142.705 670.631 140.83 671.047 Q138.978 671.464 137.033 672.344 L137.033 654.983 Z" fill="#000000" fill-rule="evenodd" fill-opacity="1" /><path clip-path="url(#clip960)" d="M91.5706 414.84 L99.2095 414.84 L99.2095 388.474 L90.8993 390.141 L90.8993 385.882 L99.1632 384.215 L103.839 384.215 L103.839 414.84 L111.478 414.84 L111.478 418.775 L91.5706 418.775 L91.5706 414.84 Z" fill="#000000" fill-rule="evenodd" fill-opacity="1" /><path clip-path="url(#clip960)" d="M120.922 412.896 L125.807 412.896 L125.807 418.775 L120.922 418.775 L120.922 412.896 Z" fill="#000000" fill-rule="evenodd" fill-opacity="1" /><path clip-path="url(#clip960)" d="M145.992 387.294 Q142.381 387.294 140.552 390.859 Q138.746 394.4 138.746 401.53 Q138.746 408.636 140.552 412.201 Q142.381 415.743 145.992 415.743 Q149.626 415.743 151.431 412.201 Q153.26 408.636 153.26 401.53 Q153.26 394.4 151.431 390.859 Q149.626 387.294 145.992 387.294 M145.992 383.59 Q151.802 383.59 154.857 388.197 Q157.936 392.78 157.936 401.53 Q157.936 410.257 154.857 414.863 Q151.802 419.446 145.992 419.446 Q140.181 419.446 137.103 414.863 Q134.047 410.257 134.047 401.53 Q134.047 392.78 137.103 388.197 Q140.181 383.59 145.992 383.59 Z" fill="#000000" fill-rule="evenodd" fill-opacity="1" /><path clip-path="url(#clip960)" d="M92.566 144.072 L100.205 144.072 L100.205 117.707 L91.8947 119.373 L91.8947 115.114 L100.159 113.448 L104.834 113.448 L104.834 144.072 L112.473 144.072 L112.473 148.008 L92.566 148.008 L92.566 144.072 Z" fill="#000000" fill-rule="evenodd" fill-opacity="1" /><path clip-path="url(#clip960)" d="M121.918 142.128 L126.802 142.128 L126.802 148.008 L121.918 148.008 L121.918 142.128 Z" fill="#000000" fill-rule="evenodd" fill-opacity="1" /><path clip-path="url(#clip960)" d="M137.033 113.448 L155.39 113.448 L155.39 117.383 L141.316 117.383 L141.316 125.855 Q142.334 125.508 143.353 125.346 Q144.371 125.16 145.39 125.16 Q151.177 125.16 154.556 128.332 Q157.936 131.503 157.936 136.92 Q157.936 142.498 154.464 145.6 Q150.992 148.679 144.672 148.679 Q142.496 148.679 140.228 148.308 Q137.982 147.938 135.575 147.197 L135.575 142.498 Q137.658 143.633 139.881 144.188 Q142.103 144.744 144.58 144.744 Q148.584 144.744 150.922 142.637 Q153.26 140.531 153.26 136.92 Q153.26 133.309 150.922 131.202 Q148.584 129.096 144.58 129.096 Q142.705 129.096 140.83 129.512 Q138.978 129.929 137.033 130.809 L137.033 113.448 Z" fill="#000000" fill-rule="evenodd" fill-opacity="1" /><path clip-path="url(#clip960)" d="M1016.15 44.2197 Q1018.79 45.1109 1021.26 48.0275 Q1023.77 50.9442 1026.28 56.0483 L1034.59 72.576 L1025.8 72.576 L1018.06 57.061 Q1015.06 50.9847 1012.22 48.9997 Q1009.43 47.0148 1004.57 47.0148 L995.656 47.0148 L995.656 72.576 L987.474 72.576 L987.474 12.096 L1005.95 12.096 Q1016.32 12.096 1021.42 16.4305 Q1026.52 20.7649 1026.52 29.5149 Q1026.52 35.2267 1023.85 38.994 Q1021.22 42.7613 1016.15 44.2197 M995.656 18.8205 L995.656 40.2903 L1005.95 40.2903 Q1011.86 40.2903 1014.86 37.5762 Q1017.9 34.8216 1017.9 29.5149 Q1017.9 24.2082 1014.86 21.5346 Q1011.86 18.8205 1005.95 18.8205 L995.656 18.8205 Z" fill="#000000" fill-rule="evenodd" fill-opacity="1" /><path clip-path="url(#clip960)" d="M1058.65 32.4315 Q1052.65 32.4315 1049.17 37.1306 Q1045.69 41.7891 1045.69 49.9314 Q1045.69 58.0738 1049.13 62.7728 Q1052.61 67.4314 1058.65 67.4314 Q1064.6 67.4314 1068.09 62.7323 Q1071.57 58.0333 1071.57 49.9314 Q1071.57 41.8701 1068.09 37.1711 Q1064.6 32.4315 1058.65 32.4315 M1058.65 26.1121 Q1068.37 26.1121 1073.92 32.4315 Q1079.47 38.7509 1079.47 49.9314 Q1079.47 61.0714 1073.92 67.4314 Q1068.37 73.7508 1058.65 73.7508 Q1048.89 73.7508 1043.34 67.4314 Q1037.83 61.0714 1037.83 49.9314 Q1037.83 38.7509 1043.34 32.4315 Q1048.89 26.1121 1058.65 26.1121 Z" fill="#000000" fill-rule="evenodd" fill-opacity="1" /><path clip-path="url(#clip960)" d="M1091.82 9.54393 L1099.28 9.54393 L1099.28 72.576 L1091.82 72.576 L1091.82 9.54393 Z" fill="#000000" fill-rule="evenodd" fill-opacity="1" /><path clip-path="url(#clip960)" d="M1114.87 9.54393 L1122.33 9.54393 L1122.33 72.576 L1114.87 72.576 L1114.87 9.54393 Z" fill="#000000" fill-rule="evenodd" fill-opacity="1" /><path clip-path="url(#clip960)" d="M1137.92 27.2059 L1145.38 27.2059 L1145.38 72.576 L1137.92 72.576 L1137.92 27.2059 M1137.92 9.54393 L1145.38 9.54393 L1145.38 18.9825 L1137.92 18.9825 L1137.92 9.54393 Z" fill="#000000" fill-rule="evenodd" fill-opacity="1" /><path clip-path="url(#clip960)" d="M1198.69 45.1919 L1198.69 72.576 L1191.23 72.576 L1191.23 45.4349 Q1191.23 38.994 1188.72 35.7938 Q1186.21 32.5936 1181.19 32.5936 Q1175.15 32.5936 1171.67 36.4419 Q1168.18 40.2903 1168.18 46.9338 L1168.18 72.576 L1160.69 72.576 L1160.69 27.2059 L1168.18 27.2059 L1168.18 34.2544 Q1170.86 30.163 1174.46 28.1376 Q1178.11 26.1121 1182.85 26.1121 Q1190.67 26.1121 1194.68 30.9732 Q1198.69 35.7938 1198.69 45.1919 Z" fill="#000000" fill-rule="evenodd" fill-opacity="1" /><path clip-path="url(#clip960)" d="M1243.41 49.3643 Q1243.41 41.2625 1240.05 36.8065 Q1236.73 32.3505 1230.69 32.3505 Q1224.69 32.3505 1221.33 36.8065 Q1218.01 41.2625 1218.01 49.3643 Q1218.01 57.4256 1221.33 61.8816 Q1224.69 66.3376 1230.69 66.3376 Q1236.73 66.3376 1240.05 61.8816 Q1243.41 57.4256 1243.41 49.3643 M1250.86 66.9452 Q1250.86 78.5308 1245.72 84.1616 Q1240.57 89.8329 1229.96 89.8329 Q1226.03 89.8329 1222.55 89.2252 Q1219.06 88.6581 1215.78 87.4428 L1215.78 80.1917 Q1219.06 81.9741 1222.26 82.8248 Q1225.46 83.6755 1228.79 83.6755 Q1236.12 83.6755 1239.76 79.8271 Q1243.41 76.0193 1243.41 68.282 L1243.41 64.5957 Q1241.1 68.6061 1237.5 70.5911 Q1233.89 72.576 1228.87 72.576 Q1220.52 72.576 1215.42 66.2161 Q1210.31 59.8562 1210.31 49.3643 Q1210.31 38.832 1215.42 32.472 Q1220.52 26.1121 1228.87 26.1121 Q1233.89 26.1121 1237.5 28.0971 Q1241.1 30.082 1243.41 34.0924 L1243.41 27.2059 L1250.86 27.2059 L1250.86 66.9452 Z" fill="#000000" fill-rule="evenodd" fill-opacity="1" /><path clip-path="url(#clip960)" d="M1327.91 35.9153 Q1330.71 30.8922 1334.6 28.5022 Q1338.48 26.1121 1343.75 26.1121 Q1350.84 26.1121 1354.69 31.0947 Q1358.54 36.0368 1358.54 45.1919 L1358.54 72.576 L1351.04 72.576 L1351.04 45.4349 Q1351.04 38.913 1348.73 35.7533 Q1346.42 32.5936 1341.68 32.5936 Q1335.89 32.5936 1332.53 36.4419 Q1329.17 40.2903 1329.17 46.9338 L1329.17 72.576 L1321.67 72.576 L1321.67 45.4349 Q1321.67 38.8725 1319.36 35.7533 Q1317.06 32.5936 1312.23 32.5936 Q1306.52 32.5936 1303.16 36.4824 Q1299.8 40.3308 1299.8 46.9338 L1299.8 72.576 L1292.3 72.576 L1292.3 27.2059 L1299.8 27.2059 L1299.8 34.2544 Q1302.35 30.082 1305.92 28.0971 Q1309.48 26.1121 1314.38 26.1121 Q1319.32 26.1121 1322.77 28.6237 Q1326.25 31.1352 1327.91 35.9153 Z" fill="#000000" fill-rule="evenodd" fill-opacity="1" /><path clip-path="url(#clip960)" d="M1412.21 48.0275 L1412.21 51.6733 L1377.94 51.6733 Q1378.43 59.3701 1382.56 63.421 Q1386.73 67.4314 1394.14 67.4314 Q1398.44 67.4314 1402.45 66.3781 Q1406.5 65.3249 1410.47 63.2184 L1410.47 70.267 Q1406.46 71.9684 1402.25 72.8596 Q1398.03 73.7508 1393.7 73.7508 Q1382.84 73.7508 1376.48 67.4314 Q1370.16 61.1119 1370.16 50.3365 Q1370.16 39.1965 1376.16 32.6746 Q1382.19 26.1121 1392.4 26.1121 Q1401.56 26.1121 1406.86 32.0264 Q1412.21 37.9003 1412.21 48.0275 M1404.76 45.84 Q1404.68 39.7232 1401.31 36.0774 Q1397.99 32.4315 1392.48 32.4315 Q1386.24 32.4315 1382.48 35.9558 Q1378.75 39.4801 1378.18 45.8805 L1404.76 45.84 Z" fill="#000000" fill-rule="evenodd" fill-opacity="1" /><path clip-path="url(#clip960)" d="M1445.06 49.7694 Q1436.03 49.7694 1432.55 51.8354 Q1429.06 53.9013 1429.06 58.8839 Q1429.06 62.8538 1431.66 65.2034 Q1434.29 67.5124 1438.78 67.5124 Q1444.98 67.5124 1448.71 63.1374 Q1452.48 58.7219 1452.48 51.4303 L1452.48 49.7694 L1445.06 49.7694 M1459.93 46.6907 L1459.93 72.576 L1452.48 72.576 L1452.48 65.6895 Q1449.92 69.8214 1446.12 71.8063 Q1442.31 73.7508 1436.8 73.7508 Q1429.83 73.7508 1425.7 69.8619 Q1421.61 65.9325 1421.61 59.3701 Q1421.61 51.7138 1426.71 47.825 Q1431.86 43.9361 1442.03 43.9361 L1452.48 43.9361 L1452.48 43.2069 Q1452.48 38.0623 1449.07 35.2672 Q1445.71 32.4315 1439.6 32.4315 Q1435.71 32.4315 1432.02 33.3632 Q1428.33 34.295 1424.93 36.1584 L1424.93 29.2718 Q1429.02 27.692 1432.87 26.9223 Q1436.72 26.1121 1440.36 26.1121 Q1450.21 26.1121 1455.07 31.2163 Q1459.93 36.3204 1459.93 46.6907 Z" fill="#000000" fill-rule="evenodd" fill-opacity="1" /><path clip-path="url(#clip960)" d="M1513 45.1919 L1513 72.576 L1505.54 72.576 L1505.54 45.4349 Q1505.54 38.994 1503.03 35.7938 Q1500.52 32.5936 1495.5 32.5936 Q1489.46 32.5936 1485.98 36.4419 Q1482.49 40.2903 1482.49 46.9338 L1482.49 72.576 L1475 72.576 L1475 27.2059 L1482.49 27.2059 L1482.49 34.2544 Q1485.17 30.163 1488.77 28.1376 Q1492.42 26.1121 1497.16 26.1121 Q1504.98 26.1121 1508.99 30.9732 Q1513 35.7938 1513 45.1919 Z" fill="#000000" fill-rule="evenodd" fill-opacity="1" /><path clip-path="url(#clip960)" d="M1556.79 28.5427 L1556.79 35.5912 Q1553.63 33.9709 1550.23 33.1607 Q1546.82 32.3505 1543.18 32.3505 Q1537.63 32.3505 1534.83 34.0519 Q1532.08 35.7533 1532.08 39.156 Q1532.08 41.7486 1534.06 43.2475 Q1536.05 44.7058 1542.04 46.0426 L1544.59 46.6097 Q1552.53 48.3111 1555.86 51.4303 Q1559.22 54.509 1559.22 60.0587 Q1559.22 66.3781 1554.2 70.0644 Q1549.21 73.7508 1540.46 73.7508 Q1536.82 73.7508 1532.85 73.0216 Q1528.92 72.3329 1524.54 70.9151 L1524.54 63.2184 Q1528.67 65.3654 1532.68 66.4591 Q1536.7 67.5124 1540.62 67.5124 Q1545.89 67.5124 1548.73 65.73 Q1551.56 63.9071 1551.56 60.6258 Q1551.56 57.5877 1549.5 55.9673 Q1547.47 54.3469 1540.54 52.8481 L1537.95 52.2405 Q1531.02 50.7821 1527.95 47.7845 Q1524.87 44.7463 1524.87 39.4801 Q1524.87 33.0797 1529.4 29.5959 Q1533.94 26.1121 1542.29 26.1121 Q1546.42 26.1121 1550.06 26.7198 Q1553.71 27.3274 1556.79 28.5427 Z" fill="#000000" fill-rule="evenodd" fill-opacity="1" /><polyline clip-path="url(#clip962)" style="stroke:#009af9; stroke-linecap:butt; stroke-linejoin:round; stroke-width:4; stroke-opacity:1; fill:none" points="
  255.035,314.754 275.607,255.815 296.179,209.822 316.751,346.252 337.322,309.332 357.894,276.224 378.466,162.047 399.038,256.592 419.61,222.556 440.182,210.862 
  460.754,376.685 481.326,418.293 501.898,263.042 522.47,465.826 543.042,374.633 563.614,501.435 584.186,356.674 604.758,567.187 625.33,539.255 645.902,616.114 
  666.474,613.066 687.046,760.193 707.617,736.413 728.189,843.623 748.761,937.682 769.333,817.971 789.905,922.714 810.477,991.315 831.049,1034.2 851.621,1052.45 
  872.193,1052.02 892.765,1272.53 913.337,1260.11 933.909,1257.08 954.481,1203.57 975.053,1219.18 995.625,1219.32 1016.2,1237.27 1036.77,1446.27 1057.34,1312.42 
  1077.91,1213.65 1098.48,1277.97 1119.06,1298.91 1139.63,1269.8 1160.2,1447.87 1180.77,1405.34 1201.34,1193.87 1221.92,1216.97 1242.49,1118.5 1263.06,1228.19 
  1283.63,1259.02 1304.2,1075.72 1324.78,1037.29 1345.35,963.625 1365.92,988.47 1386.49,1004.12 1407.06,847.558 1427.64,799.35 1448.21,737.184 1468.78,876.655 
  1489.35,713.078 1509.92,729.006 1530.5,570.884 1551.07,694.844 1571.64,540.963 1592.21,390.481 1612.78,445.426 1633.35,381.649 1653.93,254.051 1674.5,426.92 
  1695.07,339.466 1715.64,319.993 1736.21,230.994 1756.79,194.239 1777.36,385.774 1797.93,187.577 1818.5,211.185 1839.07,389.289 1859.65,415.382 1880.22,206.259 
  1900.79,431.393 1921.36,454.661 1941.93,359.584 1962.51,426.51 1983.08,444.011 2003.65,345.247 2024.22,398.023 2044.79,547.342 2065.37,611.927 2085.94,729.738 
  2106.51,636.212 2127.08,693.136 2147.65,900.568 2168.23,711.53 2188.8,891.183 2209.37,979.957 2229.94,1054.01 2250.51,1054.17 2271.09,980.826 2291.66,1099.43 
  
  "/>
<polyline clip-path="url(#clip962)" style="stroke:#e26f46; stroke-linecap:butt; stroke-linejoin:round; stroke-width:8; stroke-opacity:1; fill:none" points="
  337.322,287.195 357.894,279.489 378.466,260.735 399.038,270.089 419.61,245.35 440.182,225.656 460.754,245.748 481.326,296.997 501.898,298.287 522.47,346.941 
  543.042,379.696 563.614,404.646 584.186,392.322 604.758,453.151 625.33,467.837 645.902,516.133 666.474,538.459 687.046,619.163 707.617,653.008 728.189,713.882 
  748.761,778.195 769.333,819.176 789.905,851.68 810.477,902.661 831.049,940.776 851.621,963.73 872.193,1010.54 892.765,1080.5 913.337,1134.26 933.909,1178.84 
  954.481,1209.06 975.053,1242.49 995.625,1231.85 1016.2,1227.28 1036.77,1265.12 1057.34,1286.89 1077.91,1285.79 1098.48,1297.52 1119.06,1309.84 1139.63,1274.55 
  1160.2,1301.64 1180.77,1339.98 1201.34,1323.16 1221.92,1306.77 1242.49,1276.51 1263.06,1232.57 1283.63,1203.31 1304.2,1179.68 1324.78,1143.75 1345.35,1112.77 
  1365.92,1064.83 1386.49,1013.84 1407.06,968.211 1427.64,920.624 1448.21,875.336 1468.78,852.973 1489.35,794.765 1509.92,771.055 1530.5,725.362 1551.07,716.893 
  1571.64,649.755 1592.21,585.236 1612.78,528.52 1633.35,490.673 1653.93,402.514 1674.5,379.705 1695.07,369.502 1715.64,344.416 1736.21,314.285 1756.79,302.323 
  1777.36,294.093 1797.93,263.715 1818.5,241.954 1839.07,273.613 1859.65,317.841 1880.22,281.938 1900.79,330.701 1921.36,379.397 1941.93,373.456 1962.51,375.681 
  1983.08,423.232 2003.65,406.003 2024.22,394.675 2044.79,432.227 2065.37,469.31 2085.94,526.455 2106.51,584.648 2127.08,643.671 2147.65,714.316 2168.23,734.237 
  2188.8,766.526 2209.37,835.275 2229.94,907.45 2250.51,938.172 2271.09,992.031 2291.66,1033.68 
  "/>
<polyline clip-path="url(#clip962)" style="stroke:#3da44d; stroke-linecap:butt; stroke-linejoin:round; stroke-width:8; stroke-opacity:1; fill:none" points="
  440.182,256.426 460.754,262.619 481.326,278.866 501.898,284.188 522.47,296.146 543.042,302.676 563.614,325.197 584.186,344.66 604.758,375.719 625.33,407.389 
  645.902,447.914 666.474,471.553 687.046,505.743 707.617,553.08 728.189,590.859 748.761,647.164 769.333,678.818 789.905,735.422 810.477,777.835 831.049,827.329 
  851.621,870.963 872.193,914.858 892.765,966.092 913.337,1018.46 933.909,1059.81 954.481,1086.4 975.053,1126.52 995.625,1156.18 1016.2,1180.77 1036.77,1221.98 
  1057.34,1247.98 1077.91,1264.14 1098.48,1264.68 1119.06,1268.56 1139.63,1269.84 1160.2,1294.27 1180.77,1312.88 1201.34,1310.34 1221.92,1308.31 1242.49,1275.53 
  1263.06,1267.11 1283.63,1271.65 1304.2,1251.42 1324.78,1225.26 1345.35,1194.64 1365.92,1148.7 1386.49,1108.58 1407.06,1073.95 1427.64,1032.18 1448.21,994.053 
  1468.78,958.899 1489.35,904.305 1509.92,869.633 1530.5,822.993 1551.07,796.115 1571.64,751.364 1592.21,690 1612.78,649.787 1633.35,608.017 1653.93,559.704 
  1674.5,514.73 1695.07,477.369 1715.64,436.468 1736.21,402.479 1756.79,352.418 1777.36,336.899 1797.93,316.609 1818.5,293.185 1839.07,293.949 1859.65,310.082 
  1880.22,288.016 1900.79,297.208 1921.36,310.675 1941.93,323.534 1962.51,346.761 1983.08,352.585 2003.65,368.352 2024.22,387.036 2044.79,402.841 2065.37,422.496 
  2085.94,474.844 2106.51,495.325 2127.08,519.173 2147.65,573.271 2168.23,601.773 2188.8,646.49 2209.37,709.961 2229.94,775.561 2250.51,826.244 2271.09,863.134 
  2291.66,900.103 
  "/>
<polyline clip-path="url(#clip962)" style="stroke:#c271d2; stroke-linecap:butt; stroke-linejoin:round; stroke-width:8; stroke-opacity:1; fill:none" points="
  645.902,352.17 666.474,367.086 687.046,392.304 707.617,418.634 728.189,443.503 748.761,474.92 769.333,502.007 789.905,540.041 810.477,576.777 831.049,617.359 
  851.621,659.439 872.193,693.205 892.765,735.917 913.337,785.77 933.909,825.333 954.481,866.78 975.053,902.667 995.625,945.799 1016.2,979.304 1036.77,1024.65 
  1057.34,1059.47 1077.91,1089.5 1098.48,1115.39 1119.06,1143.51 1139.63,1164.82 1160.2,1190.33 1180.77,1219.7 1201.34,1233.26 1221.92,1244.54 1242.49,1248.75 
  1263.06,1257.54 1283.63,1267.89 1304.2,1258.05 1324.78,1246.91 1345.35,1232.24 1365.92,1221.48 1386.49,1210.73 1407.06,1192.14 1427.64,1170.25 1448.21,1134.79 
  1468.78,1113 1489.35,1087.97 1509.92,1060.53 1530.5,1024.13 1551.07,995.378 1571.64,950.032 1592.21,899.289 1612.78,861.867 1633.35,820.101 1653.93,776.878 
  1674.5,736.815 1695.07,690.837 1715.64,653.05 1736.21,612.736 1756.79,574.266 1777.36,544.132 1797.93,503.305 1818.5,471.486 1839.07,450.983 1859.65,434.893 
  1880.22,401.373 1900.79,387.289 1921.36,373.571 1941.93,363.006 1962.51,349.59 1983.08,344.742 2003.65,342.48 2024.22,340.11 2044.79,348.395 2065.37,366.289 
  2085.94,381.43 2106.51,396.267 2127.08,414.924 2147.65,448.403 2168.23,474.267 2188.8,499.538 2209.37,539.157 2229.94,581.298 2250.51,614.542 2271.09,642.815 
  2291.66,687.473 
  "/>
<path clip-path="url(#clip960)" d="
M1838.54 428.105 L2280.8 428.105 L2280.8 168.905 L1838.54 168.905  Z
  " fill="#ffffff" fill-rule="evenodd" fill-opacity="1"/>
<polyline clip-path="url(#clip960)" style="stroke:#000000; stroke-linecap:butt; stroke-linejoin:round; stroke-width:4; stroke-opacity:1; fill:none" points="
  1838.54,428.105 2280.8,428.105 2280.8,168.905 1838.54,168.905 1838.54,428.105 
  "/>
<polyline clip-path="url(#clip960)" style="stroke:#009af9; stroke-linecap:butt; stroke-linejoin:round; stroke-width:4; stroke-opacity:1; fill:none" points="
  1862.53,220.745 2006.45,220.745 
  "/>
<path clip-path="url(#clip960)" d="M2045.62 216.08 Q2044.91 215.664 2044.05 215.478 Q2043.22 215.27 2042.2 215.27 Q2038.59 215.27 2036.64 217.631 Q2034.72 219.969 2034.72 224.367 L2034.72 238.025 L2030.44 238.025 L2030.44 212.099 L2034.72 212.099 L2034.72 216.127 Q2036.06 213.766 2038.22 212.631 Q2040.37 211.474 2043.45 211.474 Q2043.89 211.474 2044.42 211.543 Q2044.95 211.59 2045.6 211.705 L2045.62 216.08 Z" fill="#000000" fill-rule="evenodd" fill-opacity="1" /><path clip-path="url(#clip960)" d="M2061.87 224.992 Q2056.71 224.992 2054.72 226.173 Q2052.73 227.353 2052.73 230.201 Q2052.73 232.469 2054.21 233.812 Q2055.72 235.131 2058.29 235.131 Q2061.83 235.131 2063.96 232.631 Q2066.11 230.108 2066.11 225.941 L2066.11 224.992 L2061.87 224.992 M2070.37 223.233 L2070.37 238.025 L2066.11 238.025 L2066.11 234.089 Q2064.65 236.451 2062.48 237.585 Q2060.3 238.696 2057.15 238.696 Q2053.17 238.696 2050.81 236.474 Q2048.47 234.228 2048.47 230.478 Q2048.47 226.103 2051.39 223.881 Q2054.33 221.659 2060.14 221.659 L2066.11 221.659 L2066.11 221.242 Q2066.11 218.303 2064.16 216.705 Q2062.24 215.085 2058.75 215.085 Q2056.53 215.085 2054.42 215.617 Q2052.31 216.15 2050.37 217.215 L2050.37 213.279 Q2052.71 212.377 2054.91 211.937 Q2057.1 211.474 2059.19 211.474 Q2064.81 211.474 2067.59 214.391 Q2070.37 217.307 2070.37 223.233 Z" fill="#000000" fill-rule="evenodd" fill-opacity="1" /><path clip-path="url(#clip960)" d="M2076.66 212.099 L2080.92 212.099 L2086.25 232.33 L2091.55 212.099 L2096.57 212.099 L2101.9 232.33 L2107.2 212.099 L2111.46 212.099 L2104.67 238.025 L2099.65 238.025 L2094.07 216.775 L2088.47 238.025 L2083.45 238.025 L2076.66 212.099 Z" fill="#000000" fill-rule="evenodd" fill-opacity="1" /><polyline clip-path="url(#clip960)" style="stroke:#e26f46; stroke-linecap:butt; stroke-linejoin:round; stroke-width:4; stroke-opacity:1; fill:none" points="
  1862.53,272.585 2006.45,272.585 
  "/>
<path clip-path="url(#clip960)" d="M2050.79 268.916 Q2052.38 266.045 2054.6 264.68 Q2056.83 263.314 2059.84 263.314 Q2063.89 263.314 2066.09 266.161 Q2068.29 268.985 2068.29 274.217 L2068.29 289.865 L2064 289.865 L2064 274.355 Q2064 270.629 2062.68 268.823 Q2061.36 267.018 2058.66 267.018 Q2055.35 267.018 2053.42 269.217 Q2051.5 271.416 2051.5 275.212 L2051.5 289.865 L2047.22 289.865 L2047.22 274.355 Q2047.22 270.605 2045.9 268.823 Q2044.58 267.018 2041.83 267.018 Q2038.56 267.018 2036.64 269.24 Q2034.72 271.439 2034.72 275.212 L2034.72 289.865 L2030.44 289.865 L2030.44 263.939 L2034.72 263.939 L2034.72 267.967 Q2036.18 265.582 2038.22 264.448 Q2040.25 263.314 2043.05 263.314 Q2045.88 263.314 2047.85 264.749 Q2049.84 266.184 2050.79 268.916 Z" fill="#000000" fill-rule="evenodd" fill-opacity="1" /><path clip-path="url(#clip960)" d="M2098.96 275.837 L2098.96 277.92 L2079.37 277.92 Q2079.65 282.318 2082.01 284.633 Q2084.4 286.925 2088.63 286.925 Q2091.09 286.925 2093.38 286.323 Q2095.69 285.721 2097.96 284.517 L2097.96 288.545 Q2095.67 289.517 2093.26 290.027 Q2090.85 290.536 2088.38 290.536 Q2082.17 290.536 2078.54 286.925 Q2074.93 283.314 2074.93 277.156 Q2074.93 270.791 2078.35 267.064 Q2081.8 263.314 2087.64 263.314 Q2092.87 263.314 2095.9 266.693 Q2098.96 270.05 2098.96 275.837 M2094.7 274.587 Q2094.65 271.092 2092.73 269.008 Q2090.83 266.925 2087.68 266.925 Q2084.12 266.925 2081.97 268.939 Q2079.84 270.953 2079.51 274.61 L2094.7 274.587 Z" fill="#000000" fill-rule="evenodd" fill-opacity="1" /><path clip-path="url(#clip960)" d="M2117.73 276.832 Q2112.57 276.832 2110.58 278.013 Q2108.59 279.193 2108.59 282.041 Q2108.59 284.309 2110.07 285.652 Q2111.57 286.971 2114.14 286.971 Q2117.68 286.971 2119.81 284.471 Q2121.97 281.948 2121.97 277.781 L2121.97 276.832 L2117.73 276.832 M2126.22 275.073 L2126.22 289.865 L2121.97 289.865 L2121.97 285.929 Q2120.51 288.291 2118.33 289.425 Q2116.16 290.536 2113.01 290.536 Q2109.03 290.536 2106.66 288.314 Q2104.33 286.068 2104.33 282.318 Q2104.33 277.943 2107.24 275.721 Q2110.18 273.499 2115.99 273.499 L2121.97 273.499 L2121.97 273.082 Q2121.97 270.143 2120.02 268.545 Q2118.1 266.925 2114.6 266.925 Q2112.38 266.925 2110.28 267.457 Q2108.17 267.99 2106.22 269.055 L2106.22 265.119 Q2108.56 264.217 2110.76 263.777 Q2112.96 263.314 2115.04 263.314 Q2120.67 263.314 2123.45 266.231 Q2126.22 269.147 2126.22 275.073 Z" fill="#000000" fill-rule="evenodd" fill-opacity="1" /><path clip-path="url(#clip960)" d="M2156.55 274.217 L2156.55 289.865 L2152.29 289.865 L2152.29 274.355 Q2152.29 270.675 2150.85 268.846 Q2149.42 267.018 2146.55 267.018 Q2143.1 267.018 2141.11 269.217 Q2139.12 271.416 2139.12 275.212 L2139.12 289.865 L2134.84 289.865 L2134.84 263.939 L2139.12 263.939 L2139.12 267.967 Q2140.65 265.629 2142.71 264.471 Q2144.79 263.314 2147.5 263.314 Q2151.97 263.314 2154.26 266.092 Q2156.55 268.846 2156.55 274.217 Z" fill="#000000" fill-rule="evenodd" fill-opacity="1" /><path clip-path="url(#clip960)" d="M2180.76 255.305 L2199.12 255.305 L2199.12 259.24 L2185.04 259.24 L2185.04 267.712 Q2186.06 267.365 2187.08 267.203 Q2188.1 267.018 2189.12 267.018 Q2194.91 267.018 2198.28 270.189 Q2201.66 273.36 2201.66 278.777 Q2201.66 284.355 2198.19 287.457 Q2194.72 290.536 2188.4 290.536 Q2186.22 290.536 2183.96 290.166 Q2181.71 289.795 2179.3 289.054 L2179.3 284.355 Q2181.39 285.49 2183.61 286.045 Q2185.83 286.601 2188.31 286.601 Q2192.31 286.601 2194.65 284.494 Q2196.99 282.388 2196.99 278.777 Q2196.99 275.166 2194.65 273.059 Q2192.31 270.953 2188.31 270.953 Q2186.43 270.953 2184.56 271.369 Q2182.71 271.786 2180.76 272.666 L2180.76 255.305 Z" fill="#000000" fill-rule="evenodd" fill-opacity="1" /><polyline clip-path="url(#clip960)" style="stroke:#3da44d; stroke-linecap:butt; stroke-linejoin:round; stroke-width:4; stroke-opacity:1; fill:none" points="
  1862.53,324.425 2006.45,324.425 
  "/>
<path clip-path="url(#clip960)" d="M2050.79 320.756 Q2052.38 317.885 2054.6 316.52 Q2056.83 315.154 2059.84 315.154 Q2063.89 315.154 2066.09 318.001 Q2068.29 320.825 2068.29 326.057 L2068.29 341.705 L2064 341.705 L2064 326.195 Q2064 322.469 2062.68 320.663 Q2061.36 318.858 2058.66 318.858 Q2055.35 318.858 2053.42 321.057 Q2051.5 323.256 2051.5 327.052 L2051.5 341.705 L2047.22 341.705 L2047.22 326.195 Q2047.22 322.445 2045.9 320.663 Q2044.58 318.858 2041.83 318.858 Q2038.56 318.858 2036.64 321.08 Q2034.72 323.279 2034.72 327.052 L2034.72 341.705 L2030.44 341.705 L2030.44 315.779 L2034.72 315.779 L2034.72 319.807 Q2036.18 317.422 2038.22 316.288 Q2040.25 315.154 2043.05 315.154 Q2045.88 315.154 2047.85 316.589 Q2049.84 318.024 2050.79 320.756 Z" fill="#000000" fill-rule="evenodd" fill-opacity="1" /><path clip-path="url(#clip960)" d="M2098.96 327.677 L2098.96 329.76 L2079.37 329.76 Q2079.65 334.158 2082.01 336.473 Q2084.4 338.765 2088.63 338.765 Q2091.09 338.765 2093.38 338.163 Q2095.69 337.561 2097.96 336.357 L2097.96 340.385 Q2095.67 341.357 2093.26 341.867 Q2090.85 342.376 2088.38 342.376 Q2082.17 342.376 2078.54 338.765 Q2074.93 335.154 2074.93 328.996 Q2074.93 322.631 2078.35 318.904 Q2081.8 315.154 2087.64 315.154 Q2092.87 315.154 2095.9 318.533 Q2098.96 321.89 2098.96 327.677 M2094.7 326.427 Q2094.65 322.932 2092.73 320.848 Q2090.83 318.765 2087.68 318.765 Q2084.12 318.765 2081.97 320.779 Q2079.84 322.793 2079.51 326.45 L2094.7 326.427 Z" fill="#000000" fill-rule="evenodd" fill-opacity="1" /><path clip-path="url(#clip960)" d="M2117.73 328.672 Q2112.57 328.672 2110.58 329.853 Q2108.59 331.033 2108.59 333.881 Q2108.59 336.149 2110.07 337.492 Q2111.57 338.811 2114.14 338.811 Q2117.68 338.811 2119.81 336.311 Q2121.97 333.788 2121.97 329.621 L2121.97 328.672 L2117.73 328.672 M2126.22 326.913 L2126.22 341.705 L2121.97 341.705 L2121.97 337.769 Q2120.51 340.131 2118.33 341.265 Q2116.16 342.376 2113.01 342.376 Q2109.03 342.376 2106.66 340.154 Q2104.33 337.908 2104.33 334.158 Q2104.33 329.783 2107.24 327.561 Q2110.18 325.339 2115.99 325.339 L2121.97 325.339 L2121.97 324.922 Q2121.97 321.983 2120.02 320.385 Q2118.1 318.765 2114.6 318.765 Q2112.38 318.765 2110.28 319.297 Q2108.17 319.83 2106.22 320.895 L2106.22 316.959 Q2108.56 316.057 2110.76 315.617 Q2112.96 315.154 2115.04 315.154 Q2120.67 315.154 2123.45 318.071 Q2126.22 320.987 2126.22 326.913 Z" fill="#000000" fill-rule="evenodd" fill-opacity="1" /><path clip-path="url(#clip960)" d="M2156.55 326.057 L2156.55 341.705 L2152.29 341.705 L2152.29 326.195 Q2152.29 322.515 2150.85 320.686 Q2149.42 318.858 2146.55 318.858 Q2143.1 318.858 2141.11 321.057 Q2139.12 323.256 2139.12 327.052 L2139.12 341.705 L2134.84 341.705 L2134.84 315.779 L2139.12 315.779 L2139.12 319.807 Q2140.65 317.469 2142.71 316.311 Q2144.79 315.154 2147.5 315.154 Q2151.97 315.154 2154.26 317.932 Q2156.55 320.686 2156.55 326.057 Z" fill="#000000" fill-rule="evenodd" fill-opacity="1" /><path clip-path="url(#clip960)" d="M2181.53 337.769 L2189.16 337.769 L2189.16 311.404 L2180.85 313.071 L2180.85 308.811 L2189.12 307.145 L2193.79 307.145 L2193.79 337.769 L2201.43 337.769 L2201.43 341.705 L2181.53 341.705 L2181.53 337.769 Z" fill="#000000" fill-rule="evenodd" fill-opacity="1" /><path clip-path="url(#clip960)" d="M2220.88 310.223 Q2217.27 310.223 2215.44 313.788 Q2213.63 317.33 2213.63 324.459 Q2213.63 331.566 2215.44 335.131 Q2217.27 338.672 2220.88 338.672 Q2224.51 338.672 2226.32 335.131 Q2228.15 331.566 2228.15 324.459 Q2228.15 317.33 2226.32 313.788 Q2224.51 310.223 2220.88 310.223 M2220.88 306.52 Q2226.69 306.52 2229.74 311.126 Q2232.82 315.709 2232.82 324.459 Q2232.82 333.186 2229.74 337.793 Q2226.69 342.376 2220.88 342.376 Q2215.07 342.376 2211.99 337.793 Q2208.93 333.186 2208.93 324.459 Q2208.93 315.709 2211.99 311.126 Q2215.07 306.52 2220.88 306.52 Z" fill="#000000" fill-rule="evenodd" fill-opacity="1" /><polyline clip-path="url(#clip960)" style="stroke:#c271d2; stroke-linecap:butt; stroke-linejoin:round; stroke-width:4; stroke-opacity:1; fill:none" points="
  1862.53,376.265 2006.45,376.265 
  "/>
<path clip-path="url(#clip960)" d="M2050.79 372.596 Q2052.38 369.725 2054.6 368.36 Q2056.83 366.994 2059.84 366.994 Q2063.89 366.994 2066.09 369.841 Q2068.29 372.665 2068.29 377.897 L2068.29 393.545 L2064 393.545 L2064 378.035 Q2064 374.309 2062.68 372.503 Q2061.36 370.698 2058.66 370.698 Q2055.35 370.698 2053.42 372.897 Q2051.5 375.096 2051.5 378.892 L2051.5 393.545 L2047.22 393.545 L2047.22 378.035 Q2047.22 374.285 2045.9 372.503 Q2044.58 370.698 2041.83 370.698 Q2038.56 370.698 2036.64 372.92 Q2034.72 375.119 2034.72 378.892 L2034.72 393.545 L2030.44 393.545 L2030.44 367.619 L2034.72 367.619 L2034.72 371.647 Q2036.18 369.262 2038.22 368.128 Q2040.25 366.994 2043.05 366.994 Q2045.88 366.994 2047.85 368.429 Q2049.84 369.864 2050.79 372.596 Z" fill="#000000" fill-rule="evenodd" fill-opacity="1" /><path clip-path="url(#clip960)" d="M2098.96 379.517 L2098.96 381.6 L2079.37 381.6 Q2079.65 385.998 2082.01 388.313 Q2084.4 390.605 2088.63 390.605 Q2091.09 390.605 2093.38 390.003 Q2095.69 389.401 2097.96 388.197 L2097.96 392.225 Q2095.67 393.197 2093.26 393.707 Q2090.85 394.216 2088.38 394.216 Q2082.17 394.216 2078.54 390.605 Q2074.93 386.994 2074.93 380.836 Q2074.93 374.471 2078.35 370.744 Q2081.8 366.994 2087.64 366.994 Q2092.87 366.994 2095.9 370.373 Q2098.96 373.73 2098.96 379.517 M2094.7 378.267 Q2094.65 374.772 2092.73 372.688 Q2090.83 370.605 2087.68 370.605 Q2084.12 370.605 2081.97 372.619 Q2079.84 374.633 2079.51 378.29 L2094.7 378.267 Z" fill="#000000" fill-rule="evenodd" fill-opacity="1" /><path clip-path="url(#clip960)" d="M2117.73 380.512 Q2112.57 380.512 2110.58 381.693 Q2108.59 382.873 2108.59 385.721 Q2108.59 387.989 2110.07 389.332 Q2111.57 390.651 2114.14 390.651 Q2117.68 390.651 2119.81 388.151 Q2121.97 385.628 2121.97 381.461 L2121.97 380.512 L2117.73 380.512 M2126.22 378.753 L2126.22 393.545 L2121.97 393.545 L2121.97 389.609 Q2120.51 391.971 2118.33 393.105 Q2116.16 394.216 2113.01 394.216 Q2109.03 394.216 2106.66 391.994 Q2104.33 389.748 2104.33 385.998 Q2104.33 381.623 2107.24 379.401 Q2110.18 377.179 2115.99 377.179 L2121.97 377.179 L2121.97 376.762 Q2121.97 373.823 2120.02 372.225 Q2118.1 370.605 2114.6 370.605 Q2112.38 370.605 2110.28 371.137 Q2108.17 371.67 2106.22 372.735 L2106.22 368.799 Q2108.56 367.897 2110.76 367.457 Q2112.96 366.994 2115.04 366.994 Q2120.67 366.994 2123.45 369.911 Q2126.22 372.827 2126.22 378.753 Z" fill="#000000" fill-rule="evenodd" fill-opacity="1" /><path clip-path="url(#clip960)" d="M2156.55 377.897 L2156.55 393.545 L2152.29 393.545 L2152.29 378.035 Q2152.29 374.355 2150.85 372.526 Q2149.42 370.698 2146.55 370.698 Q2143.1 370.698 2141.11 372.897 Q2139.12 375.096 2139.12 378.892 L2139.12 393.545 L2134.84 393.545 L2134.84 367.619 L2139.12 367.619 L2139.12 371.647 Q2140.65 369.309 2142.71 368.151 Q2144.79 366.994 2147.5 366.994 Q2151.97 366.994 2154.26 369.772 Q2156.55 372.526 2156.55 377.897 Z" fill="#000000" fill-rule="evenodd" fill-opacity="1" /><path clip-path="url(#clip960)" d="M2184.74 389.609 L2201.06 389.609 L2201.06 393.545 L2179.12 393.545 L2179.12 389.609 Q2181.78 386.855 2186.36 382.225 Q2190.97 377.573 2192.15 376.23 Q2194.4 373.707 2195.28 371.971 Q2196.18 370.211 2196.18 368.522 Q2196.18 365.767 2194.23 364.031 Q2192.31 362.295 2189.21 362.295 Q2187.01 362.295 2184.56 363.059 Q2182.13 363.823 2179.35 365.374 L2179.35 360.651 Q2182.17 359.517 2184.63 358.938 Q2187.08 358.36 2189.12 358.36 Q2194.49 358.36 2197.68 361.045 Q2200.88 363.73 2200.88 368.221 Q2200.88 370.35 2200.07 372.272 Q2199.28 374.17 2197.17 376.762 Q2196.59 377.434 2193.49 380.651 Q2190.39 383.846 2184.74 389.609 Z" fill="#000000" fill-rule="evenodd" fill-opacity="1" /><path clip-path="url(#clip960)" d="M2220.88 362.063 Q2217.27 362.063 2215.44 365.628 Q2213.63 369.17 2213.63 376.299 Q2213.63 383.406 2215.44 386.971 Q2217.27 390.512 2220.88 390.512 Q2224.51 390.512 2226.32 386.971 Q2228.15 383.406 2228.15 376.299 Q2228.15 369.17 2226.32 365.628 Q2224.51 362.063 2220.88 362.063 M2220.88 358.36 Q2226.69 358.36 2229.74 362.966 Q2232.82 367.549 2232.82 376.299 Q2232.82 385.026 2229.74 389.633 Q2226.69 394.216 2220.88 394.216 Q2215.07 394.216 2211.99 389.633 Q2208.93 385.026 2208.93 376.299 Q2208.93 367.549 2211.99 362.966 Q2215.07 358.36 2220.88 358.36 Z" fill="#000000" fill-rule="evenodd" fill-opacity="1" /></svg>
