<?xml version="1.0" encoding="utf-8"?>
<svg xmlns="http://www.w3.org/2000/svg" xmlns:xlink="http://www.w3.org/1999/xlink" width="600" height="400" viewBox="0 0 2400 1600">
<defs>
  <clipPath id="clip350">
    <rect x="0" y="0" width="2400" height="1600"/>
  </clipPath>
</defs>
<path clip-path="url(#clip350)" d="
M0 1600 L2400 1600 L2400 0 L0 0  Z
  " fill="#ffffff" fill-rule="evenodd" fill-opacity="1"/>
<defs>
  <clipPath id="clip351">
    <rect x="480" y="0" width="1681" height="1600"/>
  </clipPath>
</defs>
<path clip-path="url(#clip350)" d="
M193.288 1486.45 L2352.76 1486.45 L2352.76 47.2441 L193.288 47.2441  Z
  " fill="#ffffff" fill-rule="evenodd" fill-opacity="1"/>
<defs>
  <clipPath id="clip352">
    <rect x="193" y="47" width="2160" height="1440"/>
  </clipPath>
</defs>
<polyline clip-path="url(#clip352)" style="stroke:#000000; stroke-linecap:butt; stroke-linejoin:round; stroke-width:2; stroke-opacity:0.1; fill:none" points="
  252.366,1486.45 252.366,47.2441 
  "/>
<polyline clip-path="url(#clip352)" style="stroke:#000000; stroke-linecap:butt; stroke-linejoin:round; stroke-width:2; stroke-opacity:0.1; fill:none" points="
  762.184,1486.45 762.184,47.2441 
  "/>
<polyline clip-path="url(#clip352)" style="stroke:#000000; stroke-linecap:butt; stroke-linejoin:round; stroke-width:2; stroke-opacity:0.1; fill:none" points="
  1272,1486.45 1272,47.2441 
  "/>
<polyline clip-path="url(#clip352)" style="stroke:#000000; stroke-linecap:butt; stroke-linejoin:round; stroke-width:2; stroke-opacity:0.1; fill:none" points="
  1781.82,1486.45 1781.82,47.2441 
  "/>
<polyline clip-path="url(#clip352)" style="stroke:#000000; stroke-linecap:butt; stroke-linejoin:round; stroke-width:2; stroke-opacity:0.1; fill:none" points="
  2291.64,1486.45 2291.64,47.2441 
  "/>
<polyline clip-path="url(#clip350)" style="stroke:#000000; stroke-linecap:butt; stroke-linejoin:round; stroke-width:4; stroke-opacity:1; fill:none" points="
  193.288,1486.45 2352.76,1486.45 
  "/>
<polyline clip-path="url(#clip350)" style="stroke:#000000; stroke-linecap:butt; stroke-linejoin:round; stroke-width:4; stroke-opacity:1; fill:none" points="
  252.366,1486.45 252.366,1467.55 
  "/>
<polyline clip-path="url(#clip350)" style="stroke:#000000; stroke-linecap:butt; stroke-linejoin:round; stroke-width:4; stroke-opacity:1; fill:none" points="
  762.184,1486.45 762.184,1467.55 
  "/>
<polyline clip-path="url(#clip350)" style="stroke:#000000; stroke-linecap:butt; stroke-linejoin:round; stroke-width:4; stroke-opacity:1; fill:none" points="
  1272,1486.45 1272,1467.55 
  "/>
<polyline clip-path="url(#clip350)" style="stroke:#000000; stroke-linecap:butt; stroke-linejoin:round; stroke-width:4; stroke-opacity:1; fill:none" points="
  1781.82,1486.45 1781.82,1467.55 
  "/>
<polyline clip-path="url(#clip350)" style="stroke:#000000; stroke-linecap:butt; stroke-linejoin:round; stroke-width:4; stroke-opacity:1; fill:none" points="
  2291.64,1486.45 2291.64,1467.55 
  "/>
<path clip-path="url(#clip350)" d="M252.366 1517.37 Q248.755 1517.37 246.926 1520.93 Q245.12 1524.47 245.12 1531.6 Q245.12 1538.71 246.926 1542.27 Q248.755 1545.82 252.366 1545.82 Q256 1545.82 257.805 1542.27 Q259.634 1538.71 259.634 1531.6 Q259.634 1524.47 257.805 1520.93 Q256 1517.37 252.366 1517.37 M252.366 1513.66 Q258.176 1513.66 261.231 1518.27 Q264.31 1522.85 264.31 1531.6 Q264.31 1540.33 261.231 1544.94 Q258.176 1549.52 252.366 1549.52 Q246.555 1549.52 243.477 1544.94 Q240.421 1540.33 240.421 1531.6 Q240.421 1522.85 243.477 1518.27 Q246.555 1513.66 252.366 1513.66 Z" fill="#000000" fill-rule="evenodd" fill-opacity="1" /><path clip-path="url(#clip350)" d="M725.876 1544.91 L742.196 1544.91 L742.196 1548.85 L720.251 1548.85 L720.251 1544.91 Q722.913 1542.16 727.497 1537.53 Q732.103 1532.88 733.284 1531.53 Q735.529 1529.01 736.409 1527.27 Q737.311 1525.51 737.311 1523.82 Q737.311 1521.07 735.367 1519.33 Q733.446 1517.6 730.344 1517.6 Q728.145 1517.6 725.691 1518.36 Q723.261 1519.13 720.483 1520.68 L720.483 1515.95 Q723.307 1514.82 725.761 1514.24 Q728.214 1513.66 730.251 1513.66 Q735.622 1513.66 738.816 1516.35 Q742.01 1519.03 742.01 1523.52 Q742.01 1525.65 741.2 1527.57 Q740.413 1529.47 738.307 1532.07 Q737.728 1532.74 734.626 1535.95 Q731.524 1539.15 725.876 1544.91 Z" fill="#000000" fill-rule="evenodd" fill-opacity="1" /><path clip-path="url(#clip350)" d="M752.057 1514.29 L770.413 1514.29 L770.413 1518.22 L756.339 1518.22 L756.339 1526.7 Q757.358 1526.35 758.376 1526.19 Q759.395 1526 760.413 1526 Q766.2 1526 769.58 1529.17 Q772.959 1532.34 772.959 1537.76 Q772.959 1543.34 769.487 1546.44 Q766.015 1549.52 759.696 1549.52 Q757.52 1549.52 755.251 1549.15 Q753.006 1548.78 750.598 1548.04 L750.598 1543.34 Q752.682 1544.47 754.904 1545.03 Q757.126 1545.58 759.603 1545.58 Q763.608 1545.58 765.945 1543.48 Q768.283 1541.37 768.283 1537.76 Q768.283 1534.15 765.945 1532.04 Q763.608 1529.94 759.603 1529.94 Q757.728 1529.94 755.853 1530.35 Q754.001 1530.77 752.057 1531.65 L752.057 1514.29 Z" fill="#000000" fill-rule="evenodd" fill-opacity="1" /><path clip-path="url(#clip350)" d="M792.172 1517.37 Q788.561 1517.37 786.732 1520.93 Q784.927 1524.47 784.927 1531.6 Q784.927 1538.71 786.732 1542.27 Q788.561 1545.82 792.172 1545.82 Q795.806 1545.82 797.612 1542.27 Q799.441 1538.71 799.441 1531.6 Q799.441 1524.47 797.612 1520.93 Q795.806 1517.37 792.172 1517.37 M792.172 1513.66 Q797.982 1513.66 801.038 1518.27 Q804.117 1522.85 804.117 1531.6 Q804.117 1540.33 801.038 1544.94 Q797.982 1549.52 792.172 1549.52 Q786.362 1549.52 783.283 1544.94 Q780.228 1540.33 780.228 1531.6 Q780.228 1522.85 783.283 1518.27 Q786.362 1513.66 792.172 1513.66 Z" fill="#000000" fill-rule="evenodd" fill-opacity="1" /><path clip-path="url(#clip350)" d="M1231.62 1514.29 L1249.98 1514.29 L1249.98 1518.22 L1235.9 1518.22 L1235.9 1526.7 Q1236.92 1526.35 1237.94 1526.19 Q1238.96 1526 1239.98 1526 Q1245.76 1526 1249.14 1529.17 Q1252.52 1532.34 1252.52 1537.76 Q1252.52 1543.34 1249.05 1546.44 Q1245.58 1549.52 1239.26 1549.52 Q1237.08 1549.52 1234.81 1549.15 Q1232.57 1548.78 1230.16 1548.04 L1230.16 1543.34 Q1232.25 1544.47 1234.47 1545.03 Q1236.69 1545.58 1239.17 1545.58 Q1243.17 1545.58 1245.51 1543.48 Q1247.85 1541.37 1247.85 1537.76 Q1247.85 1534.15 1245.51 1532.04 Q1243.17 1529.94 1239.17 1529.94 Q1237.29 1529.94 1235.42 1530.35 Q1233.56 1530.77 1231.62 1531.65 L1231.62 1514.29 Z" fill="#000000" fill-rule="evenodd" fill-opacity="1" /><path clip-path="url(#clip350)" d="M1271.74 1517.37 Q1268.12 1517.37 1266.3 1520.93 Q1264.49 1524.47 1264.49 1531.6 Q1264.49 1538.71 1266.3 1542.27 Q1268.12 1545.82 1271.74 1545.82 Q1275.37 1545.82 1277.18 1542.27 Q1279 1538.71 1279 1531.6 Q1279 1524.47 1277.18 1520.93 Q1275.37 1517.37 1271.74 1517.37 M1271.74 1513.66 Q1277.55 1513.66 1280.6 1518.27 Q1283.68 1522.85 1283.68 1531.6 Q1283.68 1540.33 1280.6 1544.94 Q1277.55 1549.52 1271.74 1549.52 Q1265.93 1549.52 1262.85 1544.94 Q1259.79 1540.33 1259.79 1531.6 Q1259.79 1522.85 1262.85 1518.27 Q1265.93 1513.66 1271.74 1513.66 Z" fill="#000000" fill-rule="evenodd" fill-opacity="1" /><path clip-path="url(#clip350)" d="M1301.9 1517.37 Q1298.29 1517.37 1296.46 1520.93 Q1294.65 1524.47 1294.65 1531.6 Q1294.65 1538.71 1296.46 1542.27 Q1298.29 1545.82 1301.9 1545.82 Q1305.53 1545.82 1307.34 1542.27 Q1309.17 1538.71 1309.17 1531.6 Q1309.17 1524.47 1307.34 1520.93 Q1305.53 1517.37 1301.9 1517.37 M1301.9 1513.66 Q1307.71 1513.66 1310.76 1518.27 Q1313.84 1522.85 1313.84 1531.6 Q1313.84 1540.33 1310.76 1544.94 Q1307.71 1549.52 1301.9 1549.52 Q1296.09 1549.52 1293.01 1544.94 Q1289.95 1540.33 1289.95 1531.6 Q1289.95 1522.85 1293.01 1518.27 Q1296.09 1513.66 1301.9 1513.66 Z" fill="#000000" fill-rule="evenodd" fill-opacity="1" /><path clip-path="url(#clip350)" d="M1740.1 1514.29 L1762.32 1514.29 L1762.32 1516.28 L1749.77 1548.85 L1744.89 1548.85 L1756.69 1518.22 L1740.1 1518.22 L1740.1 1514.29 Z" fill="#000000" fill-rule="evenodd" fill-opacity="1" /><path clip-path="url(#clip350)" d="M1771.48 1514.29 L1789.84 1514.29 L1789.84 1518.22 L1775.77 1518.22 L1775.77 1526.7 Q1776.79 1526.35 1777.8 1526.19 Q1778.82 1526 1779.84 1526 Q1785.63 1526 1789.01 1529.17 Q1792.39 1532.34 1792.39 1537.76 Q1792.39 1543.34 1788.92 1546.44 Q1785.44 1549.52 1779.12 1549.52 Q1776.95 1549.52 1774.68 1549.15 Q1772.43 1548.78 1770.03 1548.04 L1770.03 1543.34 Q1772.11 1544.47 1774.33 1545.03 Q1776.55 1545.58 1779.03 1545.58 Q1783.04 1545.58 1785.37 1543.48 Q1787.71 1541.37 1787.71 1537.76 Q1787.71 1534.15 1785.37 1532.04 Q1783.04 1529.94 1779.03 1529.94 Q1777.16 1529.94 1775.28 1530.35 Q1773.43 1530.77 1771.48 1531.65 L1771.48 1514.29 Z" fill="#000000" fill-rule="evenodd" fill-opacity="1" /><path clip-path="url(#clip350)" d="M1811.6 1517.37 Q1807.99 1517.37 1806.16 1520.93 Q1804.36 1524.47 1804.36 1531.6 Q1804.36 1538.71 1806.16 1542.27 Q1807.99 1545.82 1811.6 1545.82 Q1815.23 1545.82 1817.04 1542.27 Q1818.87 1538.71 1818.87 1531.6 Q1818.87 1524.47 1817.04 1520.93 Q1815.23 1517.37 1811.6 1517.37 M1811.6 1513.66 Q1817.41 1513.66 1820.47 1518.27 Q1823.54 1522.85 1823.54 1531.6 Q1823.54 1540.33 1820.47 1544.94 Q1817.41 1549.52 1811.6 1549.52 Q1805.79 1549.52 1802.71 1544.94 Q1799.66 1540.33 1799.66 1531.6 Q1799.66 1522.85 1802.71 1518.27 Q1805.79 1513.66 1811.6 1513.66 Z" fill="#000000" fill-rule="evenodd" fill-opacity="1" /><path clip-path="url(#clip350)" d="M2236.16 1544.91 L2243.8 1544.91 L2243.8 1518.55 L2235.49 1520.21 L2235.49 1515.95 L2243.76 1514.29 L2248.43 1514.29 L2248.43 1544.91 L2256.07 1544.91 L2256.07 1548.85 L2236.16 1548.85 L2236.16 1544.91 Z" fill="#000000" fill-rule="evenodd" fill-opacity="1" /><path clip-path="url(#clip350)" d="M2275.52 1517.37 Q2271.91 1517.37 2270.08 1520.93 Q2268.27 1524.47 2268.27 1531.6 Q2268.27 1538.71 2270.08 1542.27 Q2271.91 1545.82 2275.52 1545.82 Q2279.15 1545.82 2280.96 1542.27 Q2282.78 1538.71 2282.78 1531.6 Q2282.78 1524.47 2280.96 1520.93 Q2279.15 1517.37 2275.52 1517.37 M2275.52 1513.66 Q2281.33 1513.66 2284.38 1518.27 Q2287.46 1522.85 2287.46 1531.6 Q2287.46 1540.33 2284.38 1544.94 Q2281.33 1549.52 2275.52 1549.52 Q2269.71 1549.52 2266.63 1544.94 Q2263.57 1540.33 2263.57 1531.6 Q2263.57 1522.85 2266.63 1518.27 Q2269.71 1513.66 2275.52 1513.66 Z" fill="#000000" fill-rule="evenodd" fill-opacity="1" /><path clip-path="url(#clip350)" d="M2305.68 1517.37 Q2302.07 1517.37 2300.24 1520.93 Q2298.43 1524.47 2298.43 1531.6 Q2298.43 1538.71 2300.24 1542.27 Q2302.07 1545.82 2305.68 1545.82 Q2309.31 1545.82 2311.12 1542.27 Q2312.95 1538.71 2312.95 1531.6 Q2312.95 1524.47 2311.12 1520.93 Q2309.31 1517.37 2305.68 1517.37 M2305.68 1513.66 Q2311.49 1513.66 2314.54 1518.27 Q2317.62 1522.85 2317.62 1531.6 Q2317.62 1540.33 2314.54 1544.94 Q2311.49 1549.52 2305.68 1549.52 Q2299.87 1549.52 2296.79 1544.94 Q2293.73 1540.33 2293.73 1531.6 Q2293.73 1522.85 2296.79 1518.27 Q2299.87 1513.66 2305.68 1513.66 Z" fill="#000000" fill-rule="evenodd" fill-opacity="1" /><path clip-path="url(#clip350)" d="M2335.84 1517.37 Q2332.23 1517.37 2330.4 1520.93 Q2328.59 1524.47 2328.59 1531.6 Q2328.59 1538.71 2330.4 1542.27 Q2332.23 1545.82 2335.84 1545.82 Q2339.47 1545.82 2341.28 1542.27 Q2343.11 1538.71 2343.11 1531.6 Q2343.11 1524.47 2341.28 1520.93 Q2339.47 1517.37 2335.84 1517.37 M2335.84 1513.66 Q2341.65 1513.66 2344.71 1518.27 Q2347.78 1522.85 2347.78 1531.6 Q2347.78 1540.33 2344.71 1544.94 Q2341.65 1549.52 2335.84 1549.52 Q2330.03 1549.52 2326.95 1544.94 Q2323.9 1540.33 2323.9 1531.6 Q2323.9 1522.85 2326.95 1518.27 Q2330.03 1513.66 2335.84 1513.66 Z" fill="#000000" fill-rule="evenodd" fill-opacity="1" /><polyline clip-path="url(#clip352)" style="stroke:#000000; stroke-linecap:butt; stroke-linejoin:round; stroke-width:2; stroke-opacity:0.1; fill:none" points="
  193.288,1266.65 2352.76,1266.65 
  "/>
<polyline clip-path="url(#clip352)" style="stroke:#000000; stroke-linecap:butt; stroke-linejoin:round; stroke-width:2; stroke-opacity:0.1; fill:none" points="
  193.288,994.651 2352.76,994.651 
  "/>
<polyline clip-path="url(#clip352)" style="stroke:#000000; stroke-linecap:butt; stroke-linejoin:round; stroke-width:2; stroke-opacity:0.1; fill:none" points="
  193.288,722.648 2352.76,722.648 
  "/>
<polyline clip-path="url(#clip352)" style="stroke:#000000; stroke-linecap:butt; stroke-linejoin:round; stroke-width:2; stroke-opacity:0.1; fill:none" points="
  193.288,450.646 2352.76,450.646 
  "/>
<polyline clip-path="url(#clip352)" style="stroke:#000000; stroke-linecap:butt; stroke-linejoin:round; stroke-width:2; stroke-opacity:0.1; fill:none" points="
  193.288,178.644 2352.76,178.644 
  "/>
<polyline clip-path="url(#clip350)" style="stroke:#000000; stroke-linecap:butt; stroke-linejoin:round; stroke-width:4; stroke-opacity:1; fill:none" points="
  193.288,1486.45 193.288,47.2441 
  "/>
<polyline clip-path="url(#clip350)" style="stroke:#000000; stroke-linecap:butt; stroke-linejoin:round; stroke-width:4; stroke-opacity:1; fill:none" points="
  193.288,1266.65 212.185,1266.65 
  "/>
<polyline clip-path="url(#clip350)" style="stroke:#000000; stroke-linecap:butt; stroke-linejoin:round; stroke-width:4; stroke-opacity:1; fill:none" points="
  193.288,994.651 212.185,994.651 
  "/>
<polyline clip-path="url(#clip350)" style="stroke:#000000; stroke-linecap:butt; stroke-linejoin:round; stroke-width:4; stroke-opacity:1; fill:none" points="
  193.288,722.648 212.185,722.648 
  "/>
<polyline clip-path="url(#clip350)" style="stroke:#000000; stroke-linecap:butt; stroke-linejoin:round; stroke-width:4; stroke-opacity:1; fill:none" points="
  193.288,450.646 212.185,450.646 
  "/>
<polyline clip-path="url(#clip350)" style="stroke:#000000; stroke-linecap:butt; stroke-linejoin:round; stroke-width:4; stroke-opacity:1; fill:none" points="
  193.288,178.644 212.185,178.644 
  "/>
<path clip-path="url(#clip350)" d="M50.9921 1267.1 L80.6679 1267.1 L80.6679 1271.04 L50.9921 1271.04 L50.9921 1267.1 Z" fill="#000000" fill-rule="evenodd" fill-opacity="1" /><path clip-path="url(#clip350)" d="M100.76 1252.45 Q97.1493 1252.45 95.3206 1256.02 Q93.515 1259.56 93.515 1266.69 Q93.515 1273.79 95.3206 1277.36 Q97.1493 1280.9 100.76 1280.9 Q104.395 1280.9 106.2 1277.36 Q108.029 1273.79 108.029 1266.69 Q108.029 1259.56 106.2 1256.02 Q104.395 1252.45 100.76 1252.45 M100.76 1248.75 Q106.571 1248.75 109.626 1253.35 Q112.705 1257.94 112.705 1266.69 Q112.705 1275.41 109.626 1280.02 Q106.571 1284.6 100.76 1284.6 Q94.9502 1284.6 91.8715 1280.02 Q88.816 1275.41 88.816 1266.69 Q88.816 1257.94 91.8715 1253.35 Q94.9502 1248.75 100.76 1248.75 Z" fill="#000000" fill-rule="evenodd" fill-opacity="1" /><path clip-path="url(#clip350)" d="M120.922 1278.05 L125.807 1278.05 L125.807 1283.93 L120.922 1283.93 L120.922 1278.05 Z" fill="#000000" fill-rule="evenodd" fill-opacity="1" /><path clip-path="url(#clip350)" d="M150.158 1265.3 Q153.515 1266.02 155.39 1268.28 Q157.288 1270.55 157.288 1273.89 Q157.288 1279 153.769 1281.8 Q150.251 1284.6 143.769 1284.6 Q141.593 1284.6 139.279 1284.16 Q136.987 1283.75 134.533 1282.89 L134.533 1278.38 Q136.478 1279.51 138.793 1280.09 Q141.107 1280.67 143.631 1280.67 Q148.029 1280.67 150.32 1278.93 Q152.635 1277.2 152.635 1273.89 Q152.635 1270.83 150.482 1269.12 Q148.353 1267.38 144.533 1267.38 L140.506 1267.38 L140.506 1263.54 L144.718 1263.54 Q148.168 1263.54 149.996 1262.17 Q151.825 1260.78 151.825 1258.19 Q151.825 1255.53 149.927 1254.12 Q148.052 1252.68 144.533 1252.68 Q142.612 1252.68 140.413 1253.1 Q138.214 1253.52 135.575 1254.4 L135.575 1250.23 Q138.237 1249.49 140.552 1249.12 Q142.89 1248.75 144.95 1248.75 Q150.274 1248.75 153.376 1251.18 Q156.478 1253.59 156.478 1257.71 Q156.478 1260.58 154.834 1262.57 Q153.191 1264.53 150.158 1265.3 Z" fill="#000000" fill-rule="evenodd" fill-opacity="1" /><path clip-path="url(#clip350)" d="M100.112 980.449 Q96.5011 980.449 94.6724 984.014 Q92.8669 987.556 92.8669 994.685 Q92.8669 1001.79 94.6724 1005.36 Q96.5011 1008.9 100.112 1008.9 Q103.746 1008.9 105.552 1005.36 Q107.381 1001.79 107.381 994.685 Q107.381 987.556 105.552 984.014 Q103.746 980.449 100.112 980.449 M100.112 976.746 Q105.922 976.746 108.978 981.352 Q112.057 985.935 112.057 994.685 Q112.057 1003.41 108.978 1008.02 Q105.922 1012.6 100.112 1012.6 Q94.3021 1012.6 91.2234 1008.02 Q88.1679 1003.41 88.1679 994.685 Q88.1679 985.935 91.2234 981.352 Q94.3021 976.746 100.112 976.746 Z" fill="#000000" fill-rule="evenodd" fill-opacity="1" /><path clip-path="url(#clip350)" d="M120.274 1006.05 L125.158 1006.05 L125.158 1011.93 L120.274 1011.93 L120.274 1006.05 Z" fill="#000000" fill-rule="evenodd" fill-opacity="1" /><path clip-path="url(#clip350)" d="M145.343 980.449 Q141.732 980.449 139.904 984.014 Q138.098 987.556 138.098 994.685 Q138.098 1001.79 139.904 1005.36 Q141.732 1008.9 145.343 1008.9 Q148.978 1008.9 150.783 1005.36 Q152.612 1001.79 152.612 994.685 Q152.612 987.556 150.783 984.014 Q148.978 980.449 145.343 980.449 M145.343 976.746 Q151.154 976.746 154.209 981.352 Q157.288 985.935 157.288 994.685 Q157.288 1003.41 154.209 1008.02 Q151.154 1012.6 145.343 1012.6 Q139.533 1012.6 136.455 1008.02 Q133.399 1003.41 133.399 994.685 Q133.399 985.935 136.455 981.352 Q139.533 976.746 145.343 976.746 Z" fill="#000000" fill-rule="evenodd" fill-opacity="1" /><path clip-path="url(#clip350)" d="M100.76 708.447 Q97.1493 708.447 95.3206 712.012 Q93.515 715.553 93.515 722.683 Q93.515 729.789 95.3206 733.354 Q97.1493 736.896 100.76 736.896 Q104.395 736.896 106.2 733.354 Q108.029 729.789 108.029 722.683 Q108.029 715.553 106.2 712.012 Q104.395 708.447 100.76 708.447 M100.76 704.743 Q106.571 704.743 109.626 709.35 Q112.705 713.933 112.705 722.683 Q112.705 731.41 109.626 736.016 Q106.571 740.6 100.76 740.6 Q94.9502 740.6 91.8715 736.016 Q88.816 731.41 88.816 722.683 Q88.816 713.933 91.8715 709.35 Q94.9502 704.743 100.76 704.743 Z" fill="#000000" fill-rule="evenodd" fill-opacity="1" /><path clip-path="url(#clip350)" d="M120.922 734.049 L125.807 734.049 L125.807 739.928 L120.922 739.928 L120.922 734.049 Z" fill="#000000" fill-rule="evenodd" fill-opacity="1" /><path clip-path="url(#clip350)" d="M150.158 721.294 Q153.515 722.012 155.39 724.28 Q157.288 726.549 157.288 729.882 Q157.288 734.998 153.769 737.799 Q150.251 740.6 143.769 740.6 Q141.593 740.6 139.279 740.16 Q136.987 739.743 134.533 738.887 L134.533 734.373 Q136.478 735.507 138.793 736.086 Q141.107 736.664 143.631 736.664 Q148.029 736.664 150.32 734.928 Q152.635 733.192 152.635 729.882 Q152.635 726.827 150.482 725.114 Q148.353 723.377 144.533 723.377 L140.506 723.377 L140.506 719.535 L144.718 719.535 Q148.168 719.535 149.996 718.169 Q151.825 716.78 151.825 714.188 Q151.825 711.526 149.927 710.114 Q148.052 708.678 144.533 708.678 Q142.612 708.678 140.413 709.095 Q138.214 709.512 135.575 710.391 L135.575 706.225 Q138.237 705.484 140.552 705.114 Q142.89 704.743 144.95 704.743 Q150.274 704.743 153.376 707.174 Q156.478 709.581 156.478 713.702 Q156.478 716.572 154.834 718.563 Q153.191 720.53 150.158 721.294 Z" fill="#000000" fill-rule="evenodd" fill-opacity="1" /><path clip-path="url(#clip350)" d="M99.9502 436.445 Q96.3391 436.445 94.5104 440.009 Q92.7049 443.551 92.7049 450.681 Q92.7049 457.787 94.5104 461.352 Q96.3391 464.894 99.9502 464.894 Q103.584 464.894 105.39 461.352 Q107.219 457.787 107.219 450.681 Q107.219 443.551 105.39 440.009 Q103.584 436.445 99.9502 436.445 M99.9502 432.741 Q105.76 432.741 108.816 437.347 Q111.895 441.931 111.895 450.681 Q111.895 459.408 108.816 464.014 Q105.76 468.597 99.9502 468.597 Q94.14 468.597 91.0614 464.014 Q88.0058 459.408 88.0058 450.681 Q88.0058 441.931 91.0614 437.347 Q94.14 432.741 99.9502 432.741 Z" fill="#000000" fill-rule="evenodd" fill-opacity="1" /><path clip-path="url(#clip350)" d="M120.112 462.046 L124.996 462.046 L124.996 467.926 L120.112 467.926 L120.112 462.046 Z" fill="#000000" fill-rule="evenodd" fill-opacity="1" /><path clip-path="url(#clip350)" d="M145.76 448.783 Q142.612 448.783 140.76 450.935 Q138.931 453.088 138.931 456.838 Q138.931 460.565 140.76 462.741 Q142.612 464.894 145.76 464.894 Q148.908 464.894 150.737 462.741 Q152.589 460.565 152.589 456.838 Q152.589 453.088 150.737 450.935 Q148.908 448.783 145.76 448.783 M155.042 434.13 L155.042 438.389 Q153.283 437.556 151.478 437.116 Q149.695 436.676 147.936 436.676 Q143.306 436.676 140.853 439.801 Q138.422 442.926 138.075 449.246 Q139.441 447.232 141.501 446.167 Q143.561 445.079 146.038 445.079 Q151.246 445.079 154.255 448.25 Q157.288 451.398 157.288 456.838 Q157.288 462.162 154.14 465.38 Q150.992 468.597 145.76 468.597 Q139.765 468.597 136.594 464.014 Q133.422 459.408 133.422 450.681 Q133.422 442.486 137.311 437.625 Q141.2 432.741 147.751 432.741 Q149.51 432.741 151.293 433.088 Q153.098 433.435 155.042 434.13 Z" fill="#000000" fill-rule="evenodd" fill-opacity="1" /><path clip-path="url(#clip350)" d="M100.297 164.442 Q96.6863 164.442 94.8576 168.007 Q93.0521 171.549 93.0521 178.678 Q93.0521 185.785 94.8576 189.35 Q96.6863 192.891 100.297 192.891 Q103.932 192.891 105.737 189.35 Q107.566 185.785 107.566 178.678 Q107.566 171.549 105.737 168.007 Q103.932 164.442 100.297 164.442 M100.297 160.739 Q106.108 160.739 109.163 165.345 Q112.242 169.928 112.242 178.678 Q112.242 187.405 109.163 192.012 Q106.108 196.595 100.297 196.595 Q94.4873 196.595 91.4086 192.012 Q88.353 187.405 88.353 178.678 Q88.353 169.928 91.4086 165.345 Q94.4873 160.739 100.297 160.739 Z" fill="#000000" fill-rule="evenodd" fill-opacity="1" /><path clip-path="url(#clip350)" d="M120.459 190.044 L125.344 190.044 L125.344 195.924 L120.459 195.924 L120.459 190.044 Z" fill="#000000" fill-rule="evenodd" fill-opacity="1" /><path clip-path="url(#clip350)" d="M135.668 195.206 L135.668 190.947 Q137.427 191.78 139.232 192.22 Q141.038 192.66 142.774 192.66 Q147.404 192.66 149.834 189.558 Q152.288 186.433 152.635 180.09 Q151.293 182.081 149.232 183.146 Q147.172 184.211 144.672 184.211 Q139.487 184.211 136.455 181.086 Q133.445 177.938 133.445 172.498 Q133.445 167.174 136.594 163.956 Q139.742 160.739 144.973 160.739 Q150.968 160.739 154.117 165.345 Q157.288 169.928 157.288 178.678 Q157.288 186.85 153.399 191.734 Q149.533 196.595 142.982 196.595 Q141.223 196.595 139.418 196.248 Q137.612 195.901 135.668 195.206 M144.973 180.553 Q148.121 180.553 149.95 178.401 Q151.802 176.248 151.802 172.498 Q151.802 168.771 149.95 166.618 Q148.121 164.442 144.973 164.442 Q141.825 164.442 139.973 166.618 Q138.144 168.771 138.144 172.498 Q138.144 176.248 139.973 178.401 Q141.825 180.553 144.973 180.553 Z" fill="#000000" fill-rule="evenodd" fill-opacity="1" /><polyline clip-path="url(#clip352)" style="stroke:#009af9; stroke-linecap:butt; stroke-linejoin:round; stroke-width:4; stroke-opacity:0.4; fill:none" points="
  254.405,927.327 256.444,675.497 258.483,1351.71 260.523,949.427 262.562,1041.33 264.601,749.295 266.641,723.971 268.68,587.59 270.719,1397.45 272.758,971.86 
  274.798,806.217 276.837,1001.81 278.876,854.861 280.915,586.722 282.955,1165.21 284.994,940.38 287.033,693.391 289.073,946.319 291.112,988.791 293.151,1133.94 
  295.19,632.153 297.23,666.785 299.269,842.954 301.308,1158.47 303.347,668.325 305.387,1342.18 307.426,637.704 309.465,1247.44 311.505,554.222 313.544,917.889 
  315.583,1004.74 317.622,1319.14 319.662,992.431 321.701,747.637 323.74,1146.88 325.779,1157.17 327.819,1332.9 329.858,1009.04 331.897,694.028 333.937,757.791 
  335.976,590.79 338.015,854.805 340.054,1227.35 342.094,757.918 344.133,1371.07 346.172,673.328 348.211,859.127 350.251,611.636 352.29,872.701 354.329,1308.02 
  356.369,1386.07 358.408,670.432 360.447,816.415 362.486,1409.84 364.526,1348.82 366.565,1131.05 368.604,707.586 370.643,1414.39 372.683,636.246 374.722,1430.69 
  376.761,733.216 378.801,1427.83 380.84,1029.87 382.879,1148.7 384.918,860.494 386.958,1104 388.997,602.019 391.036,1277.04 393.075,646.527 395.115,1155.12 
  397.154,1235.7 399.193,786.574 401.233,1227.33 403.272,1377.74 405.311,889.04 407.35,672.451 409.39,1041.79 411.429,1282.63 413.468,1321.23 415.507,1396.32 
  417.547,552.778 419.586,573.339 421.625,1384.24 423.665,1445.37 425.704,987.547 427.743,604.095 429.782,1056.18 431.822,580.968 433.861,1143.58 435.9,1113.27 
  437.939,776.291 439.979,764.524 442.018,1393.86 444.057,850.704 446.097,1367.2 448.136,869.299 450.175,1301.18 452.214,1426.36 454.254,714.044 456.293,1226.55 
  458.332,826.255 460.371,1064.89 462.411,648.264 464.45,720.717 466.489,1261.02 468.529,1315.17 470.568,1241.06 472.607,1403.18 474.646,717.248 476.686,593.085 
  478.725,704.187 480.764,1014.95 482.803,636.855 484.843,1075.96 486.882,1071.93 488.921,1032.35 490.961,1299.78 493,895.54 495.039,943.586 497.078,1261.04 
  499.118,1217.71 501.157,1153.76 503.196,977.533 505.235,1189.52 507.275,1394.1 509.314,1276.57 511.353,860.205 513.393,1249.37 515.432,938.065 517.471,1299.81 
  519.51,1211.74 521.55,1320.17 523.589,797.717 525.628,1201.48 527.667,645.126 529.707,720.792 531.746,911.804 533.785,939.813 535.825,1031.59 537.864,762.742 
  539.903,1342.33 541.942,1233.16 543.982,809.053 546.021,896.653 548.06,1309.92 550.099,1060.82 552.139,890.132 554.178,1169.87 556.217,1103.9 558.257,1076.55 
  560.296,791.534 562.335,595.598 564.374,1366.14 566.414,902.943 568.453,728.136 570.492,608.275 572.532,1182.1 574.571,868.932 576.61,933.418 578.649,975.815 
  580.689,1258.66 582.728,1143.99 584.767,1399.09 586.806,1261.48 588.846,862.075 590.885,1220.43 592.924,1316.28 594.964,561.83 597.003,577.362 599.042,1414.77 
  601.081,705.37 603.121,675.958 605.16,1220.46 607.199,874.813 609.238,1405.42 611.278,1025.15 613.317,725.779 615.356,1169.19 617.396,645.37 619.435,661.029 
  621.474,1062.64 623.513,658.867 625.553,1077.66 627.592,802.644 629.631,1135.99 631.67,1184.49 633.71,1270.2 635.749,626.006 637.788,1387.87 639.828,1156.91 
  641.867,1414.83 643.906,909.488 645.945,1101.69 647.985,767.975 650.024,1010.16 652.063,901.658 654.102,1110.38 656.142,909.606 658.181,656.455 660.22,585.461 
  662.26,1344.74 664.299,753.778 666.338,1294.88 668.377,1336.56 670.417,840.371 672.456,1218.18 674.495,641.698 676.534,1110.74 678.574,718.233 680.613,1137.85 
  682.652,669.556 684.692,938.115 686.731,889.595 688.77,681.699 690.809,1063.04 692.849,1150.83 694.888,1317.3 696.927,979.443 698.966,1151.27 701.006,1106.69 
  703.045,850.762 705.084,716.675 707.124,686.028 709.163,715.522 711.202,647.859 713.241,1258.91 715.281,723.95 717.32,1043.46 719.359,987.264 721.398,1444.02 
  723.438,1068.99 725.477,1259.87 727.516,1105.59 729.556,818.424 731.595,991.165 733.634,1061.29 735.673,701.168 737.713,1319.4 739.752,918.685 741.791,754.737 
  743.83,868.124 745.87,615.473 747.909,1341.72 749.948,705.969 751.988,894.097 754.027,1085.17 756.066,988.605 758.105,598.205 760.145,954.274 762.184,967.452 
  764.223,1371 766.262,791.264 768.302,1341.32 770.341,580.735 772.38,686.423 774.42,1293.45 776.459,557.42 778.498,1031.72 780.537,1158.27 782.577,1385.14 
  784.616,1405.46 786.655,1372.21 788.694,769.425 790.734,1315.53 792.773,1384.06 794.812,944.907 796.852,606.344 798.891,1410.76 800.93,1239.63 802.969,1354.44 
  805.009,1330.93 807.048,574.309 809.087,1156.72 811.126,770.802 813.166,1267.39 815.205,631.661 817.244,1313.86 819.284,755.619 821.323,1236.18 823.362,886.687 
  825.401,1160.77 827.441,1372.7 829.48,782.385 831.519,1327.38 833.558,1250.45 835.598,882.305 837.637,643.065 839.676,931.306 841.716,969.105 843.755,899.706 
  845.794,831.904 847.833,793.674 849.873,1222.79 851.912,877.936 853.951,975.92 855.99,660.331 858.03,644.812 860.069,894.25 862.108,630.596 864.148,801.152 
  866.187,909.757 868.226,808.583 870.265,607.588 872.305,1403.46 874.344,691.122 876.383,1181.06 878.422,880.226 880.462,579.653 882.501,965.581 884.54,1171.63 
  886.58,641.124 888.619,654.616 890.658,783.516 892.697,1326.88 894.737,613.82 896.776,1006.59 898.815,1124.36 900.855,684.337 902.894,1232.93 904.933,1104.63 
  906.972,628.966 909.012,923.313 911.051,950.274 913.09,635.959 915.129,699.517 917.169,1443.5 919.208,1313.36 921.247,754.644 923.287,1308.4 925.326,729.278 
  927.365,1187.6 929.404,1025.63 931.444,1022.63 933.483,1285.1 935.522,1129.59 937.561,590.692 939.601,781.681 941.64,1238.64 943.679,781.385 945.719,1363 
  947.758,1225.94 949.797,1127.44 951.836,1033.18 953.876,1209.82 955.915,957.331 957.954,1121.08 959.993,1121.81 962.033,1376.53 964.072,827.685 966.111,1443.35 
  968.151,963.178 970.19,1380.89 972.229,931.962 974.268,1167.63 976.308,635.059 978.347,1073.1 980.386,1327.49 982.425,816.289 984.465,747.467 986.504,669.053 
  988.543,1272.86 990.583,1194.41 992.622,912.188 994.661,632.239 996.7,1418.17 998.74,785.816 1000.78,1252.39 1002.82,1074.39 1004.86,1429.15 1006.9,1086.64 
  1008.94,1386.7 1010.98,770.645 1013.01,1356.77 1015.05,890.134 1017.09,1263.99 1019.13,1197.63 1021.17,1319.81 1023.21,1314.01 1025.25,1302.41 1027.29,914.406 
  1029.33,1269.07 1031.37,1091.56 1033.41,896.626 1035.45,1023.25 1037.49,864.007 1039.53,672.145 1041.56,1028.47 1043.6,1070.81 1045.64,1146.4 1047.68,1106.17 
  1049.72,864.434 1051.76,937.023 1053.8,701.348 1055.84,605.314 1057.88,700.513 1059.92,901.913 1061.96,615.62 1064,1383.35 1066.04,1385.17 1068.07,1390.5 
  1070.11,650.062 1072.15,883.922 1074.19,907.054 1076.23,1081.3 1078.27,584.16 1080.31,1149.23 1082.35,813.033 1084.39,632.632 1086.43,1129.73 1088.47,594.892 
  1090.51,688.963 1092.55,591.32 1094.59,1428.86 1096.62,569.754 1098.66,805.146 1100.7,759.544 1102.74,813.473 1104.78,823.369 1106.82,586.219 1108.86,928.616 
  1110.9,1106.84 1112.94,681.629 1114.98,1012.37 1117.02,772.756 1119.06,1205.81 1121.1,866.347 1123.14,839.559 1125.17,1416.85 1127.21,591.529 1129.25,695.704 
  1131.29,1026.18 1133.33,1085.53 1135.37,860.038 1137.41,1385.17 1139.45,889.109 1141.49,713.491 1143.53,598.668 1145.57,1287.49 1147.61,887.768 1149.65,794.139 
  1151.69,1445.05 1153.72,622.931 1155.76,1028.6 1157.8,652.06 1159.84,590.966 1161.88,999.138 1163.92,579.274 1165.96,1420.4 1168,1022.75 1170.04,848.907 
  1172.08,858.872 1174.12,644.52 1176.16,1031.85 1178.2,652.572 1180.23,1122.23 1182.27,1250.19 1184.31,1163.29 1186.35,1174.75 1188.39,806.201 1190.43,771.56 
  1192.47,1375.04 1194.51,1038.72 1196.55,747.695 1198.59,680.404 1200.63,656.66 1202.67,1284.92 1204.71,1329.43 1206.75,634.51 1208.78,1155.74 1210.82,670.201 
  1212.86,777.655 1214.9,1434.63 1216.94,829.155 1218.98,959.752 1221.02,656.996 1223.06,1158.82 1225.1,839.848 1227.14,1363.33 1229.18,1310.86 1231.22,1213.14 
  1233.26,1217.64 1235.3,1316.64 1237.33,1094.8 1239.37,936.64 1241.41,1321.71 1243.45,672.265 1245.49,705.091 1247.53,1445.72 1249.57,1424.63 1251.61,906.191 
  1253.65,1366.21 1255.69,628.399 1257.73,595.676 1259.77,1358.92 1261.81,698.614 1263.85,1058.53 1265.88,1013.32 1267.92,628.509 1269.96,678.179 1272,926.137 
  1274.04,698.498 1276.08,1144.48 1278.12,675.795 1280.16,623.764 1282.2,1042.31 1284.24,592.819 1286.28,1030.43 1288.32,864.652 1290.36,1284.2 1292.39,1024.78 
  1294.43,772.251 1296.47,545.994 1298.51,555.896 1300.55,779.675 1302.59,1257.97 1304.63,953.764 1306.67,1003.88 1308.71,912.593 1310.75,727.716 1312.79,815.681 
  1314.83,843.865 1316.87,797.497 1318.91,943.961 1320.94,945.032 1322.98,1194.27 1325.02,911.36 1327.06,1381.57 1329.1,1071.05 1331.14,550.771 1333.18,1115.27 
  1335.22,1216.85 1337.26,1342.63 1339.3,1054.16 1341.34,752.377 1343.38,801.298 1345.42,1255.83 1347.46,1432.76 1349.49,880.633 1351.53,636.868 1353.57,649.651 
  1355.61,1269.94 1357.65,1369.11 1359.69,1275.8 1361.73,765.187 1363.77,1314.87 1365.81,1255.39 1367.85,1284.38 1369.89,1428.79 1371.93,994.536 1373.97,802.759 
  1376.01,740.779 1378.04,1290.04 1380.08,644.699 1382.12,1352.98 1384.16,1408.78 1386.2,1198.86 1388.24,1315.84 1390.28,1297.19 1392.32,768.926 1394.36,1210.01 
  1396.4,824.667 1398.44,1046.07 1400.48,1389.36 1402.52,553.49 1404.56,1113.21 1406.59,714.38 1408.63,1054.76 1410.67,1310.33 1412.71,736.557 1414.75,973.986 
  1416.79,716.578 1418.83,1090.93 1420.87,748.795 1422.91,1390.38 1424.95,978.449 1426.99,999.698 1429.03,1433.19 1431.07,1359.61 1433.1,1309.08 1435.14,1441.25 
  1437.18,875.355 1439.22,864.331 1441.26,1292.39 1443.3,1291.76 1445.34,978.189 1447.38,1268.17 1449.42,1390.28 1451.46,643.425 1453.5,896.858 1455.54,992.477 
  1457.58,591.378 1459.62,677.277 1461.65,975.447 1463.69,935.816 1465.73,923.218 1467.77,1430.37 1469.81,661.478 1471.85,1275.32 1473.89,851.861 1475.93,1152.67 
  1477.97,1041.58 1480.01,1050.24 1482.05,1200.65 1484.09,755.557 1486.13,816.365 1488.17,853.218 1490.2,1320.1 1492.24,680.141 1494.28,1084.26 1496.32,658.632 
  1498.36,1202.54 1500.4,932.153 1502.44,1332.99 1504.48,978.434 1506.52,693.154 1508.56,1274.53 1510.6,1111.48 1512.64,1304.99 1514.68,717.327 1516.72,1412.65 
  1518.75,821.685 1520.79,996.152 1522.83,936.116 1524.87,692.14 1526.91,613.619 1528.95,721.572 1530.99,1086.15 1533.03,862.65 1535.07,1339.3 1537.11,1289.8 
  1539.15,1355.99 1541.19,574.185 1543.23,1166.23 1545.26,894.724 1547.3,1309.84 1549.34,778.435 1551.38,585.637 1553.42,1232.61 1555.46,828.437 1557.5,1317.95 
  1559.54,1311.55 1561.58,1047.25 1563.62,748.353 1565.66,915.874 1567.7,871.099 1569.74,762.171 1571.78,1251.12 1573.81,1046.88 1575.85,1112.74 1577.89,1069.76 
  1579.93,571.374 1581.97,1330.03 1584.01,922.188 1586.05,566.085 1588.09,650.022 1590.13,992.565 1592.17,1087.15 1594.21,1026.17 1596.25,669.998 1598.29,663.239 
  1600.33,886.53 1602.36,616.265 1604.4,817.688 1606.44,1097.79 1608.48,1119.85 1610.52,1304.33 1612.56,1054.27 1614.6,1267.82 1616.64,918.897 1618.68,822.891 
  1620.72,933.05 1622.76,1231.67 1624.8,1044.75 1626.84,941.878 1628.88,967.763 1630.91,951.763 1632.95,835.351 1634.99,1331.88 1637.03,1179.48 1639.07,1091.34 
  1641.11,1131.47 1643.15,1159.55 1645.19,1444.11 1647.23,1301.66 1649.27,1314.45 1651.31,619.781 1653.35,1227.52 1655.39,685.454 1657.42,883.986 1659.46,1317.2 
  1661.5,1302.72 1663.54,1262.05 1665.58,1178.46 1667.62,1236.45 1669.66,1323.97 1671.7,1353.34 1673.74,1173.95 1675.78,1204.11 1677.82,1205.73 1679.86,806.778 
  1681.9,614.439 1683.94,551.714 1685.97,1432.18 1688.01,1382.69 1690.05,765.786 1692.09,1125.19 1694.13,922.826 1696.17,1356.66 1698.21,1266.12 1700.25,1257.4 
  1702.29,809.136 1704.33,1240.03 1706.37,1073.31 1708.41,1131.65 1710.45,759.252 1712.49,1099.46 1714.52,794.03 1716.56,1010.06 1718.6,591.259 1720.64,1120.6 
  1722.68,971.103 1724.72,1228.16 1726.76,781.185 1728.8,1178.38 1730.84,1040.09 1732.88,830.005 1734.92,1373.23 1736.96,947.945 1739,1257.4 1741.04,1282.12 
  1743.07,1366.02 1745.11,605.278 1747.15,835.166 1749.19,680.762 1751.23,1150.61 1753.27,860.723 1755.31,683.344 1757.35,1218.79 1759.39,1330.77 1761.43,1403.5 
  1763.47,1383.78 1765.51,1072.5 1767.55,1046.39 1769.58,625.118 1771.62,1381.3 1773.66,758.055 1775.7,1025.88 1777.74,1293.3 1779.78,1122.49 1781.82,854.014 
  1783.86,1201.44 1785.9,1203.33 1787.94,896.879 1789.98,564.502 1792.02,1175.7 1794.06,675.077 1796.1,1265.6 1798.13,1145.24 1800.17,1129.76 1802.21,544.755 
  1804.25,1139.82 1806.29,559.68 1808.33,972.657 1810.37,1354.5 1812.41,613.893 1814.45,1097.39 1816.49,639.725 1818.53,795.47 1820.57,816.12 1822.61,1305.37 
  1824.65,633.948 1826.68,571.882 1828.72,981.55 1830.76,1370.06 1832.8,1169.09 1834.84,1301.63 1836.88,587.676 1838.92,824.516 1840.96,1273.3 1843,728.136 
  1845.04,1051.03 1847.08,1317.4 1849.12,721.948 1851.16,680.996 1853.2,1400.89 1855.23,1321.31 1857.27,1092.71 1859.31,1352.4 1861.35,1130.46 1863.39,976.505 
  1865.43,923.727 1867.47,1325.4 1869.51,825.179 1871.55,872.214 1873.59,997.065 1875.63,729.881 1877.67,1042.26 1879.71,993.479 1881.74,1109.09 1883.78,1227.93 
  1885.82,868.507 1887.86,1432.6 1889.9,1390.54 1891.94,558.971 1893.98,1041.56 1896.02,791.27 1898.06,1103.4 1900.1,1201.56 1902.14,932.076 1904.18,571 
  1906.22,631.248 1908.26,799.416 1910.29,957.238 1912.33,1082.94 1914.37,1076.5 1916.41,1392.84 1918.45,1374.07 1920.49,1089.49 1922.53,1000.08 1924.57,1195.68 
  1926.61,1088.73 1928.65,695.059 1930.69,908.05 1932.73,1435.12 1934.77,1144.03 1936.81,1112.45 1938.84,973.664 1940.88,1445.05 1942.92,889.725 1944.96,1236.64 
  1947,1212.47 1949.04,1266.97 1951.08,828.931 1953.12,761.667 1955.16,567.3 1957.2,1374.73 1959.24,853.497 1961.28,1305.47 1963.32,617.103 1965.36,542.049 
  1967.39,1167.69 1969.43,1199.88 1971.47,574.319 1973.51,983.061 1975.55,1004.76 1977.59,977.079 1979.63,912.822 1981.67,1433.98 1983.71,707.41 1985.75,1145.38 
  1987.79,1397.86 1989.83,1195.65 1991.87,813.261 1993.9,1338.83 1995.94,1388.58 1997.98,1047.39 2000.02,1141.77 2002.06,1133.01 2004.1,966.405 2006.14,1163.23 
  2008.18,984.607 2010.22,701.405 2012.26,894.965 2014.3,1259.03 2016.34,1247.99 2018.38,1441.01 2020.42,1088.33 2022.45,619.879 2024.49,1351.64 2026.53,818.119 
  2028.57,646.701 2030.61,1347.65 2032.65,583.7 2034.69,1166.61 2036.73,1407.67 2038.77,1323.19 2040.81,1373.74 2042.85,1028.01 2044.89,778.61 2046.93,623.651 
  2048.97,1260.71 2051,650.847 2053.04,1026.52 2055.08,1160.19 2057.12,1100.19 2059.16,1209.78 2061.2,1362.86 2063.24,1287.74 2065.28,1111.18 2067.32,681.227 
  2069.36,1235.87 2071.4,941.249 2073.44,745.357 2075.48,610.83 2077.52,874.39 2079.55,923.992 2081.59,672.263 2083.63,605.979 2085.67,745.538 2087.71,568.382 
  2089.75,816.214 2091.79,781.337 2093.83,1213.83 2095.87,1235 2097.91,951.052 2099.95,883.321 2101.99,1194.1 2104.03,1332 2106.07,1400.82 2108.1,556.193 
  2110.14,892.198 2112.18,782.254 2114.22,691.588 2116.26,1167.26 2118.3,1208.72 2120.34,914.654 2122.38,594.219 2124.42,775.678 2126.46,1049.82 2128.5,714.46 
  2130.54,624.914 2132.58,1008.54 2134.61,1161.15 2136.65,1094.89 2138.69,896.152 2140.73,1373.39 2142.77,691.969 2144.81,946.938 2146.85,1095.93 2148.89,1328.03 
  2150.93,1252.11 2152.97,1425.55 2155.01,1283.56 2157.05,562.503 2159.09,647.789 2161.13,640.466 2163.16,722.269 2165.2,1371.92 2167.24,1232.98 2169.28,739.134 
  2171.32,878.422 2173.36,1052.64 2175.4,1422.79 2177.44,560.634 2179.48,741.222 2181.52,1190.61 2183.56,1041.8 2185.6,1198.12 2187.64,897.747 2189.68,778.872 
  2191.71,1372.15 2193.75,1224.43 2195.79,1226.97 2197.83,1154.44 2199.87,578.492 2201.91,568.044 2203.95,1024.23 2205.99,636.42 2208.03,1360.77 2210.07,1316.52 
  2212.11,1364.41 2214.15,723.469 2216.19,1428.83 2218.23,1437.63 2220.26,1202.31 2222.3,1326.91 2224.34,849.289 2226.38,757.15 2228.42,1332.63 2230.46,1144.12 
  2232.5,1216.86 2234.54,945.176 2236.58,1197.68 2238.62,951.852 2240.66,1110.56 2242.7,668.16 2244.74,549.063 2246.77,1275.78 2248.81,940.727 2250.85,1422.01 
  2252.89,742.292 2254.93,1199.99 2256.97,689.862 2259.01,1198.81 2261.05,603.369 2263.09,717.103 2265.13,1185.28 2267.17,827.873 2269.21,871.807 2271.25,795.72 
  2273.29,1182.98 2275.32,921.813 2277.36,862.932 2279.4,1291.86 2281.44,593.46 2283.48,1134.6 2285.52,1344.89 2287.56,1220.96 2289.6,1183.56 2291.64,1022.82 
  
  "/>
<polyline clip-path="url(#clip352)" style="stroke:#e26f46; stroke-linecap:butt; stroke-linejoin:round; stroke-width:4; stroke-opacity:1; fill:none" points="
  254.405,87.9763 256.444,816.58 258.483,652.894 260.523,715.046 262.562,750.749 264.601,755.545 266.641,760.379 268.68,748.477 270.719,706.092 272.758,722.328 
  274.798,733.286 276.837,744.48 278.876,754.178 280.915,746.452 282.955,745.998 284.994,754.372 287.033,755.561 289.073,762.517 291.112,768.324 293.151,768.92 
  295.19,765.564 297.23,765.115 299.269,770.081 301.308,768.634 303.347,768.257 305.387,756.374 307.426,754.961 309.465,750.714 311.505,745.793 313.544,750.11 
  315.583,753.559 317.622,746.623 319.662,750.216 321.701,752.065 323.74,752.558 325.779,752.922 327.819,747.331 329.858,750.455 331.897,750.388 333.937,751.871 
  335.976,749.037 338.015,751.811 340.054,750.273 342.094,751.74 344.133,745.528 346.172,745.283 348.211,747.789 350.251,746.174 352.29,748.674 354.329,745.128 
  356.369,739.479 358.408,739.284 360.447,741.246 362.486,735.315 364.526,731.865 366.565,733.106 368.604,733.467 370.643,728.561 372.683,727.64 374.722,722.697 
  376.761,723.459 378.801,719.014 380.84,721.107 382.879,722.283 384.918,724.11 386.958,725.64 388.997,724.023 391.036,723.309 393.075,722.606 395.115,723.578 
  397.154,723.577 399.193,724.659 401.233,724.775 403.272,722.422 405.311,724.093 407.35,723.715 409.39,725.372 411.429,724.781 413.468,723.67 415.507,721.349 
  417.547,718.893 419.586,716.992 421.625,715.013 423.665,712.053 425.704,713.74 427.743,712.423 429.782,713.945 431.822,712.347 433.861,713.388 435.9,714.603 
  437.939,715.359 439.979,716.022 442.018,714.14 444.057,715.341 446.097,713.962 448.136,715.21 450.175,714.763 452.214,712.636 454.254,712.732 456.293,713.122 
  458.332,712.723 460.371,714.377 462.411,714.71 464.45,713.499 466.489,712.168 468.529,711.235 470.568,711.401 472.607,711.481 474.646,712.905 476.686,710.053 
  478.725,709.2 480.764,709.192 482.803,707.317 484.843,710.077 486.882,710.493 488.921,710.514 490.961,710.512 493,710.371 495.039,710.318 497.078,709.424 
  499.118,711.043 501.157,712.745 503.196,713.232 505.235,713.052 507.275,712.651 509.314,713.334 511.353,715.507 513.393,715.492 515.432,719.363 517.471,718.216 
  519.51,717.623 521.55,717.612 523.589,716.657 525.628,717.591 527.667,715.135 529.707,713.763 531.746,715.288 533.785,715.176 535.825,717.11 537.864,717.157 
  539.903,718.796 541.942,718.629 543.982,718.422 546.021,719.454 548.06,720.15 550.099,722.517 552.139,722.701 554.178,725.758 556.217,726.219 558.257,727.537 
  560.296,728.7 562.335,727.563 564.374,726.421 566.414,728.721 568.453,728.901 570.492,725.831 572.532,727.261 574.571,729.686 576.61,732.401 578.649,735.588 
  580.689,736.14 582.728,739.061 584.767,736.303 586.806,735.518 588.846,735.528 590.885,734.92 592.924,736.956 594.964,733.815 597.003,732.702 599.042,730.154 
  601.081,728.996 603.121,727.765 605.16,727.817 607.199,729.819 609.238,727.355 611.278,729.727 613.317,728.017 615.356,728.887 617.396,727.945 619.435,728.383 
  621.474,732.361 623.513,733.678 625.553,736.269 627.592,739.176 629.631,738.852 631.67,741.52 633.71,740.25 635.749,740.988 637.788,738.578 639.828,738.377 
  641.867,736.525 643.906,737.597 645.945,740.169 647.985,739.468 650.024,741.852 652.063,742.025 654.102,743.459 656.142,746.661 658.181,745.896 660.22,743.242 
  662.26,741.63 664.299,740.397 666.338,741.401 668.377,741.113 670.417,741.663 672.456,742.639 674.495,740.953 676.534,743.876 678.574,743.887 680.613,747.048 
  682.652,746.591 684.692,746.484 686.731,749.051 688.77,746.921 690.809,746.942 692.849,746.545 694.888,746.332 696.927,746.581 698.966,746.282 701.006,747.361 
  703.045,747.731 705.084,746.475 707.124,744.465 709.163,743.593 711.202,744.464 713.241,744.664 715.281,743.591 717.32,744.925 719.359,744.97 721.398,742.728 
  723.438,743.613 725.477,744.355 727.516,744.784 729.556,745.159 731.595,747.515 733.634,748.883 735.673,747.302 737.713,745.155 739.752,745.079 741.791,745.003 
  743.83,747.247 745.87,745.762 747.909,743.772 749.948,742.368 751.988,744.381 754.027,744.289 756.066,744.451 758.105,742.294 760.145,742.623 762.184,742.837 
  764.223,740.387 766.262,742.618 768.302,742.99 770.341,739.95 772.38,739.505 774.42,740.29 776.459,737.568 778.498,737.744 780.537,737.159 782.577,734.005 
  784.616,732.042 786.655,729.677 788.694,732.058 790.734,731.423 792.773,728.682 794.812,729.688 796.852,729.134 798.891,729.011 800.93,731.073 802.969,731.98 
  805.009,731.445 807.048,729.992 809.087,730.457 811.126,729.766 813.166,731.566 815.205,729.091 817.244,728.513 819.284,728.005 821.323,729.237 823.362,731.185 
  825.401,730.77 827.441,730.488 829.48,729.614 831.519,728.491 833.558,727.704 835.598,727.961 837.637,726.783 839.676,729.398 841.716,732.193 843.755,732.466 
  845.794,735.329 847.833,734.692 849.873,733.897 851.912,734.628 853.951,734.626 855.99,732.643 858.03,730.638 860.069,730.588 862.108,730.249 864.148,732.689 
  866.187,735.052 868.226,735.487 870.265,734.667 872.305,733.652 874.344,732.427 876.383,732.745 878.422,734.753 880.462,732.047 882.501,733.322 884.54,733.09 
  886.58,732.737 888.619,730.786 890.658,730.231 892.697,729.539 894.737,727.175 896.776,727.745 898.815,729.564 900.855,728.015 902.894,727.325 904.933,727.336 
  906.972,725.428 909.012,726.58 911.051,728.102 913.09,727.212 915.129,727.793 917.169,725.16 919.208,724.229 921.247,723.379 923.287,721.357 925.326,724.293 
  927.365,723.606 929.404,725.096 931.444,725.386 933.483,724.008 935.522,723.572 937.561,720.985 939.601,721.672 941.64,722.59 943.679,721.973 945.719,720.057 
  947.758,719.155 949.797,721.252 951.836,723.584 953.876,724.088 955.915,724.234 957.954,724.08 959.993,723.751 962.033,723.928 964.072,723.429 966.111,719.786 
  968.151,722.319 970.19,720.437 972.229,722.496 974.268,725.284 976.308,724.623 978.347,726.115 980.386,727.949 982.425,727.262 984.465,726.451 986.504,727.194 
  988.543,728.921 990.583,730.885 992.622,731.722 994.661,731.275 996.7,730.735 998.74,729.995 1000.78,731.482 1002.82,734.749 1004.86,732.227 1006.9,734.616 
  1008.94,733.815 1010.98,736.241 1013.01,734.18 1015.05,734.936 1017.09,734.972 1019.13,736.793 1021.17,736.719 1023.21,736.019 1025.25,735.339 1027.29,735.453 
  1029.33,734.577 1031.37,737.056 1033.41,737.8 1035.45,739.853 1037.49,740.717 1039.53,738.878 1041.56,741.372 1043.6,741.374 1045.64,740.988 1047.68,741.004 
  1049.72,741.209 1051.76,742.02 1053.8,741.123 1055.84,738.32 1057.88,736.587 1059.92,738.649 1061.96,738.224 1064,735.594 1066.04,735.593 1068.07,733.732 
  1070.11,731.367 1072.15,731.856 1074.19,734.864 1076.23,737.702 1078.27,736.121 1080.31,736.308 1082.35,735.87 1084.39,736.714 1086.43,736.502 1088.47,733.599 
  1090.51,734.238 1092.55,733.29 1094.59,730.972 1096.62,729.123 1098.66,731.315 1100.7,730.123 1102.74,729.678 1104.78,731.016 1106.82,728.711 1108.86,728.83 
  1110.9,731.247 1112.94,729.408 1114.98,729.454 1117.02,731.007 1119.06,732.022 1121.1,735.382 1123.14,736.811 1125.17,734.601 1127.21,733.214 1129.25,732.846 
  1131.29,733.542 1133.33,733.401 1135.37,733.069 1137.41,731.754 1139.45,731.904 1141.49,733.516 1143.53,731.386 1145.57,730.878 1147.61,731.521 1149.65,733.461 
  1151.69,730.536 1153.72,728.389 1155.76,728.397 1157.8,727.328 1159.84,724.536 1161.88,724.927 1163.92,722.487 1165.96,721.788 1168,722.111 1170.04,726.067 
  1172.08,725.858 1174.12,727.315 1176.16,727.221 1178.2,726.351 1180.23,727.751 1182.27,726.39 1184.31,728.172 1186.35,727.678 1188.39,728.088 1190.43,729.029 
  1192.47,727.63 1194.51,728.537 1196.55,727.719 1198.59,728.274 1200.63,730.606 1202.67,729.089 1204.71,728.117 1206.75,726.417 1208.78,729.933 1210.82,728.801 
  1212.86,732.004 1214.9,728.006 1216.94,730.968 1218.98,731.017 1221.02,731.48 1223.06,731.839 1225.1,734.528 1227.14,733.752 1229.18,733.63 1231.22,732.139 
  1233.26,732.749 1235.3,730.436 1237.33,730.005 1239.37,730.139 1241.41,727.5 1243.45,727.501 1245.49,726.586 1247.53,722.155 1249.57,718.669 1251.61,719.112 
  1253.65,716.036 1255.69,714.191 1257.73,713.061 1259.77,712.176 1261.81,712.159 1263.85,712.011 1265.88,714.039 1267.92,715.43 1269.96,717.591 1272,721.283 
  1274.04,721.758 1276.08,721.054 1278.12,719.778 1280.16,718.347 1282.2,720.442 1284.24,719.086 1286.28,719.197 1288.32,720.812 1290.36,719.294 1292.39,721.398 
  1294.43,722.06 1296.47,721.428 1298.51,723.094 1300.55,725.154 1302.59,723.62 1304.63,724.255 1306.67,724.521 1308.71,724.786 1310.75,726.335 1312.79,726.01 
  1314.83,726.291 1316.87,727.194 1318.91,727.276 1320.94,727.849 1322.98,727.96 1325.02,728.06 1327.06,724.8 1329.1,728.608 1331.14,728.023 1333.18,728.759 
  1335.22,727.555 1337.26,725.067 1339.3,725.083 1341.34,727.744 1343.38,727.384 1345.42,726.793 1347.46,725.13 1349.49,726.955 1351.53,725.075 1353.57,723.792 
  1355.61,726.414 1357.65,725.426 1359.69,723.702 1361.73,724.797 1363.77,725.308 1365.81,723.864 1367.85,725.173 1369.89,725.035 1371.93,725.06 1373.97,724.786 
  1376.01,723.974 1378.04,724.434 1380.08,722.281 1382.12,721.929 1384.16,719.065 1386.2,719.496 1388.24,718.135 1390.28,717.069 1392.32,716.784 1394.36,716.926 
  1396.4,718.95 1398.44,718.937 1400.48,717.322 1402.52,715.547 1404.56,717.519 1406.59,717.444 1408.63,719.382 1410.67,720.094 1412.71,719.228 1414.75,721.237 
  1416.79,720.661 1418.83,723.999 1420.87,723.37 1422.91,720.587 1424.95,722.807 1426.99,723.245 1429.03,720.407 1431.07,720.455 1433.1,720.475 1435.14,717.834 
  1437.18,718.28 1439.22,719.666 1441.26,718.305 1443.3,716.934 1445.34,718.708 1447.38,719.57 1449.42,718.775 1451.46,719.631 1453.5,722.592 1455.54,722.775 
  1457.58,722.075 1459.62,722.703 1461.65,725.769 1463.69,728.098 1465.73,729.717 1467.77,726.322 1469.81,724.13 1471.85,725.416 1473.89,727.011 1475.93,726.77 
  1477.97,728.638 1480.01,728.932 1482.05,730.516 1484.09,732.19 1486.13,731.401 1488.17,734.389 1490.2,732.684 1492.24,730.903 1494.28,732.15 1496.32,729.665 
  1498.36,730.188 1500.4,734.413 1502.44,736.98 1504.48,738.19 1506.52,736.934 1508.56,735.89 1510.6,735.786 1512.64,734.668 1514.68,734.541 1516.72,732.837 
  1518.75,732.657 1520.79,733.788 1522.83,733.756 1524.87,731.56 1526.91,728.551 1528.95,726.976 1530.99,729.22 1533.03,728.713 1535.07,731.384 1537.11,730.288 
  1539.15,728.982 1541.19,726.696 1543.23,726.373 1545.26,727.509 1547.3,727.176 1549.34,726.792 1551.38,726.072 1553.42,725.711 1555.46,727.873 1557.5,729.206 
  1559.54,728.809 1561.58,730.892 1563.62,730.445 1565.66,731.553 1567.7,732.613 1569.74,732.282 1571.78,732.595 1573.81,735.8 1575.85,735.645 1577.89,736.541 
  1579.93,734.122 1581.97,733.676 1584.01,736.267 1586.05,734.384 1588.09,734.861 1590.13,735.562 1592.17,737.309 1594.21,738.994 1596.25,737.893 1598.29,736.562 
  1600.33,736.902 1602.36,734.168 1604.4,736.71 1606.44,740.221 1608.48,740.189 1610.52,739.853 1612.56,739.854 1614.6,740.345 1616.64,741.584 1618.68,740.981 
  1620.72,742.486 1622.76,741.582 1624.8,742.839 1626.84,745.807 1628.88,745.796 1630.91,745.749 1632.95,749.12 1634.99,749.522 1637.03,750.871 1639.07,754.911 
  1641.11,754.761 1643.15,754.516 1645.19,752.143 1647.23,752.019 1649.27,749.938 1651.31,748.563 1653.35,750.693 1655.39,751.262 1657.42,751.208 1659.46,749.031 
  1661.5,750.518 1663.54,751.354 1665.58,750.775 1667.62,749.837 1669.66,748.034 1671.7,749.223 1673.74,751.347 1675.78,751.996 1677.82,751.89 1679.86,751.288 
  1681.9,747.947 1683.94,743.654 1685.97,740.832 1688.01,739.511 1690.05,739.055 1692.09,739.387 1694.13,740.996 1696.17,741.062 1698.21,739.977 1700.25,741.669 
  1702.29,741.289 1704.33,740.597 1706.37,742.392 1708.41,742.235 1710.45,743.041 1712.49,744.147 1714.52,743.193 1716.56,744.776 1718.6,742.908 1720.64,745.812 
  1722.68,746.56 1724.72,745.704 1726.76,744.681 1728.8,746.419 1730.84,749.933 1732.88,751.077 1734.92,748.742 1736.96,749.195 1739,750.086 1741.04,750.166 
  1743.07,750.03 1745.11,750.602 1747.15,750.163 1749.19,748.03 1751.23,749.351 1753.27,750.058 1755.31,751.654 1757.35,751.767 1759.39,750.765 1761.43,749.612 
  1763.47,748.683 1765.51,748.658 1767.55,750.378 1769.58,747.189 1771.62,745.37 1773.66,745.323 1775.7,746.225 1777.74,744.925 1779.78,744.894 1781.82,744.212 
  1783.86,748.206 1785.9,749.361 1787.94,749.22 1789.98,749.189 1792.02,752.099 1794.06,749.288 1796.1,748.339 1798.13,748.157 1800.17,751.027 1802.21,748.831 
  1804.25,749.253 1806.29,748.168 1808.33,749.186 1810.37,747.408 1812.41,743.53 1814.45,744.769 1816.49,741.401 1818.53,741.152 1820.57,740.439 1822.61,740.051 
  1824.65,736.969 1826.68,733.418 1828.72,733.361 1830.76,731.42 1832.8,731.211 1834.84,730.105 1836.88,726.973 1838.92,727.689 1840.96,727.024 1843,725.279 
  1845.04,725.448 1847.08,724.249 1849.12,725.608 1851.16,724.8 1853.2,723.72 1855.23,725.21 1857.27,725.867 1859.31,726.216 1861.35,726.496 1863.39,727.911 
  1865.43,729.06 1867.47,728.429 1869.51,728.048 1871.55,728.429 1873.59,730.137 1875.63,730.687 1877.67,731.158 1879.71,731.852 1881.74,732.394 1883.78,732.326 
  1885.82,735.03 1887.86,736.06 1889.9,736.687 1891.94,735.041 1893.98,736.285 1896.02,735.493 1898.06,735.529 1900.1,737.11 1902.14,738.202 1904.18,735.603 
  1906.22,733.625 1908.26,733.903 1910.29,733.969 1912.33,734.172 1914.37,735.198 1916.41,732.449 1918.45,730.768 1920.49,730.653 1922.53,734.095 1924.57,733.683 
  1926.61,733.628 1928.65,732.516 1930.69,733.343 1932.73,730.469 1934.77,730.172 1936.81,730.69 1938.84,733.068 1940.88,729.685 1942.92,730.44 1944.96,730.86 
  1947,732.468 1949.04,734.595 1951.08,734.549 1953.12,735.499 1955.16,731.854 1957.2,729.931 1959.24,731.592 1961.28,730.804 1963.32,729.504 1965.36,728.163 
  1967.39,730.362 1969.43,729.738 1971.47,726.237 1973.51,728.965 1975.55,731.663 1977.59,732.82 1979.63,732.663 1981.67,730.727 1983.71,729.316 1985.75,729.357 
  1987.79,727.169 1989.83,727.224 1991.87,726.747 1993.9,728.45 1995.94,726.298 1997.98,728.499 2000.02,729.369 2002.06,729.425 2004.1,729.617 2006.14,733.55 
  2008.18,733.792 2010.22,735.948 2012.26,735.68 2014.3,736.745 2016.34,739.067 2018.38,735.824 2020.42,738.797 2022.45,736.543 2024.49,735.542 2026.53,736.027 
  2028.57,736.223 2030.61,738.601 2032.65,734.597 2034.69,736.434 2036.73,734.097 2038.77,733.868 2040.81,735.748 2042.85,736.71 2044.89,736.328 2046.93,734.833 
  2048.97,733.917 2051,732.453 2053.04,734.395 2055.08,736.683 2057.12,739.127 2059.16,740.115 2061.2,738.139 2063.24,738.843 2065.28,738.902 2067.32,736.432 
  2069.36,735.968 2071.4,737.35 2073.44,736.556 2075.48,733.546 2077.52,733.073 2079.55,734.644 2081.59,732.101 2083.63,728.673 2085.67,727.294 2087.71,724.217 
  2089.75,723.873 2091.79,726.11 2093.83,728.052 2095.87,731.056 2097.91,730.986 2099.95,731.619 2101.99,731.162 2104.03,729.924 2106.07,727.345 2108.1,727.088 
  2110.14,729.695 2112.18,729.541 2114.22,727.519 2116.26,727.197 2118.3,726.611 2120.34,728.972 2122.38,727.998 2124.42,727.061 2126.46,727.034 2128.5,726.073 
  2130.54,723.528 2132.58,725.295 2134.61,725.019 2136.65,728.353 2138.69,728.523 2140.73,726.149 2142.77,724.362 2144.81,728.07 2146.85,728.1 2148.89,727.118 
  2150.93,726.769 2152.97,724.705 2155.01,723.798 2157.05,721.27 2159.09,722.45 2161.13,722.649 2163.16,721.637 2165.2,720.795 2167.24,722.481 2169.28,725.146 
  2171.32,725.367 2173.36,726.063 2175.4,726.236 2177.44,722.537 2179.48,721.272 2181.52,720.63 2183.56,720.757 2185.6,723.489 2187.64,724.916 2189.68,724.363 
  2191.71,724.733 2193.75,724.507 2195.79,724.239 2197.83,725.916 2199.87,725.447 2201.91,722.145 2203.95,722.552 2205.99,720.684 2208.03,718.112 2210.07,716.709 
  2212.11,714.192 2214.15,714.415 2216.19,711.243 2218.23,709.032 2220.26,709.396 2222.3,710.953 2224.34,710.707 2226.38,712.219 2228.42,712.453 2230.46,712.666 
  2232.5,714.142 2234.54,716.203 2236.58,718.778 2238.62,719.183 2240.66,721.964 2242.7,721.848 2244.74,720.884 2246.77,719.409 2248.81,720.199 2250.85,719.441 
  2252.89,719.5 2254.93,720.978 2256.97,719.227 2259.01,718.97 2261.05,716.36 2263.09,715.869 2265.13,717.719 2267.17,718.954 2269.21,719.047 2271.25,720.063 
  2273.29,720.509 2275.32,720.474 2277.36,721.24 2279.4,722.079 2281.44,719.461 2283.48,719.129 2285.52,718.689 2287.56,720.58 2289.6,721.192 2291.64,724.762 
  
  "/>
<path clip-path="url(#clip350)" d="
M1611.97 250.738 L2280.77 250.738 L2280.77 95.2176 L1611.97 95.2176  Z
  " fill="#ffffff" fill-rule="evenodd" fill-opacity="1"/>
<polyline clip-path="url(#clip350)" style="stroke:#000000; stroke-linecap:butt; stroke-linejoin:round; stroke-width:4; stroke-opacity:1; fill:none" points="
  1611.97,250.738 2280.77,250.738 2280.77,95.2176 1611.97,95.2176 1611.97,250.738 
  "/>
<polyline clip-path="url(#clip350)" style="stroke:#009af9; stroke-linecap:butt; stroke-linejoin:round; stroke-width:4; stroke-opacity:0.4; fill:none" points="
  1635.96,147.058 1779.93,147.058 
  "/>
<path clip-path="url(#clip350)" d="M1803.92 129.778 L1808.6 129.778 L1808.6 164.338 L1803.92 164.338 L1803.92 129.778 Z" fill="#000000" fill-rule="evenodd" fill-opacity="1" /><path clip-path="url(#clip350)" d="M1839.27 148.689 L1839.27 164.338 L1835.01 164.338 L1835.01 148.828 Q1835.01 145.148 1833.57 143.319 Q1832.14 141.49 1829.27 141.49 Q1825.82 141.49 1823.83 143.69 Q1821.84 145.889 1821.84 149.685 L1821.84 164.338 L1817.56 164.338 L1817.56 138.412 L1821.84 138.412 L1821.84 142.44 Q1823.37 140.102 1825.43 138.944 Q1827.51 137.787 1830.22 137.787 Q1834.69 137.787 1836.98 140.565 Q1839.27 143.319 1839.27 148.689 Z" fill="#000000" fill-rule="evenodd" fill-opacity="1" /><path clip-path="url(#clip350)" d="M1851.88 160.449 L1851.88 174.199 L1847.6 174.199 L1847.6 138.412 L1851.88 138.412 L1851.88 142.347 Q1853.23 140.032 1855.26 138.921 Q1857.32 137.787 1860.17 137.787 Q1864.89 137.787 1867.83 141.537 Q1870.8 145.287 1870.8 151.398 Q1870.8 157.509 1867.83 161.259 Q1864.89 165.009 1860.17 165.009 Q1857.32 165.009 1855.26 163.898 Q1853.23 162.763 1851.88 160.449 M1866.38 151.398 Q1866.38 146.699 1864.43 144.037 Q1862.51 141.352 1859.13 141.352 Q1855.75 141.352 1853.81 144.037 Q1851.88 146.699 1851.88 151.398 Q1851.88 156.097 1853.81 158.782 Q1855.75 161.444 1859.13 161.444 Q1862.51 161.444 1864.43 158.782 Q1866.38 156.097 1866.38 151.398 Z" fill="#000000" fill-rule="evenodd" fill-opacity="1" /><path clip-path="url(#clip350)" d="M1877.42 154.106 L1877.42 138.412 L1881.68 138.412 L1881.68 153.944 Q1881.68 157.625 1883.11 159.476 Q1884.55 161.305 1887.42 161.305 Q1890.87 161.305 1892.86 159.106 Q1894.87 156.907 1894.87 153.111 L1894.87 138.412 L1899.13 138.412 L1899.13 164.338 L1894.87 164.338 L1894.87 160.356 Q1893.32 162.717 1891.26 163.875 Q1889.22 165.009 1886.51 165.009 Q1882.05 165.009 1879.73 162.231 Q1877.42 159.453 1877.42 154.106 M1888.13 137.787 L1888.13 137.787 Z" fill="#000000" fill-rule="evenodd" fill-opacity="1" /><path clip-path="url(#clip350)" d="M1912.12 131.051 L1912.12 138.412 L1920.89 138.412 L1920.89 141.722 L1912.12 141.722 L1912.12 155.796 Q1912.12 158.967 1912.97 159.87 Q1913.85 160.773 1916.51 160.773 L1920.89 160.773 L1920.89 164.338 L1916.51 164.338 Q1911.58 164.338 1909.71 162.509 Q1907.83 160.657 1907.83 155.796 L1907.83 141.722 L1904.71 141.722 L1904.71 138.412 L1907.83 138.412 L1907.83 131.051 L1912.12 131.051 Z" fill="#000000" fill-rule="evenodd" fill-opacity="1" /><polyline clip-path="url(#clip350)" style="stroke:#e26f46; stroke-linecap:butt; stroke-linejoin:round; stroke-width:4; stroke-opacity:1; fill:none" points="
  1635.96,198.898 1779.93,198.898 
  "/>
<path clip-path="url(#clip350)" d="M1822.35 191.016 L1822.35 195.043 Q1820.54 194.117 1818.6 193.655 Q1816.65 193.192 1814.57 193.192 Q1811.4 193.192 1809.8 194.164 Q1808.23 195.136 1808.23 197.08 Q1808.23 198.562 1809.36 199.418 Q1810.5 200.252 1813.92 201.016 L1815.38 201.34 Q1819.92 202.312 1821.82 204.094 Q1823.74 205.854 1823.74 209.025 Q1823.74 212.636 1820.87 214.742 Q1818.02 216.849 1813.02 216.849 Q1810.94 216.849 1808.67 216.432 Q1806.42 216.039 1803.92 215.228 L1803.92 210.83 Q1806.28 212.057 1808.57 212.682 Q1810.87 213.284 1813.11 213.284 Q1816.12 213.284 1817.74 212.266 Q1819.36 211.224 1819.36 209.349 Q1819.36 207.613 1818.18 206.687 Q1817.02 205.761 1813.07 204.904 L1811.58 204.557 Q1807.63 203.724 1805.87 202.011 Q1804.11 200.275 1804.11 197.266 Q1804.11 193.608 1806.7 191.618 Q1809.29 189.627 1814.06 189.627 Q1816.42 189.627 1818.51 189.974 Q1820.59 190.321 1822.35 191.016 Z" fill="#000000" fill-rule="evenodd" fill-opacity="1" /><path clip-path="url(#clip350)" d="M1834.73 182.891 L1834.73 190.252 L1843.51 190.252 L1843.51 193.562 L1834.73 193.562 L1834.73 207.636 Q1834.73 210.807 1835.59 211.71 Q1836.47 212.613 1839.13 212.613 L1843.51 212.613 L1843.51 216.178 L1839.13 216.178 Q1834.2 216.178 1832.32 214.349 Q1830.45 212.497 1830.45 207.636 L1830.45 193.562 L1827.32 193.562 L1827.32 190.252 L1830.45 190.252 L1830.45 182.891 L1834.73 182.891 Z" fill="#000000" fill-rule="evenodd" fill-opacity="1" /><path clip-path="url(#clip350)" d="M1866.17 194.187 L1866.17 180.159 L1870.43 180.159 L1870.43 216.178 L1866.17 216.178 L1866.17 212.289 Q1864.82 214.603 1862.76 215.738 Q1860.73 216.849 1857.86 216.849 Q1853.16 216.849 1850.19 213.099 Q1847.26 209.349 1847.26 203.238 Q1847.26 197.127 1850.19 193.377 Q1853.16 189.627 1857.86 189.627 Q1860.73 189.627 1862.76 190.761 Q1864.82 191.872 1866.17 194.187 M1851.65 203.238 Q1851.65 207.937 1853.57 210.622 Q1855.52 213.284 1858.9 213.284 Q1862.28 213.284 1864.22 210.622 Q1866.17 207.937 1866.17 203.238 Q1866.17 198.539 1864.22 195.877 Q1862.28 193.192 1858.9 193.192 Q1855.52 193.192 1853.57 195.877 Q1851.65 198.539 1851.65 203.238 Z" fill="#000000" fill-rule="evenodd" fill-opacity="1" /><path clip-path="url(#clip350)" d="M1904.5 180.206 Q1901.4 185.53 1899.89 190.738 Q1898.39 195.946 1898.39 201.293 Q1898.39 206.641 1899.89 211.895 Q1901.42 217.127 1904.5 222.428 L1900.8 222.428 Q1897.32 216.988 1895.59 211.733 Q1893.88 206.479 1893.88 201.293 Q1893.88 196.131 1895.59 190.9 Q1897.3 185.668 1900.8 180.206 L1904.5 180.206 Z" fill="#000000" fill-rule="evenodd" fill-opacity="1" /><path clip-path="url(#clip350)" d="M1910.29 190.252 L1914.55 190.252 L1919.87 210.483 L1925.17 190.252 L1930.19 190.252 L1935.52 210.483 L1940.82 190.252 L1945.08 190.252 L1938.3 216.178 L1933.27 216.178 L1927.69 194.928 L1922.09 216.178 L1917.07 216.178 L1910.29 190.252 Z" fill="#000000" fill-rule="evenodd" fill-opacity="1" /><path clip-path="url(#clip350)" d="M1951.54 190.252 L1955.8 190.252 L1955.8 216.178 L1951.54 216.178 L1951.54 190.252 M1951.54 180.159 L1955.8 180.159 L1955.8 185.553 L1951.54 185.553 L1951.54 180.159 Z" fill="#000000" fill-rule="evenodd" fill-opacity="1" /><path clip-path="url(#clip350)" d="M1986.26 200.529 L1986.26 216.178 L1982 216.178 L1982 200.668 Q1982 196.988 1980.56 195.159 Q1979.13 193.33 1976.26 193.33 Q1972.81 193.33 1970.82 195.53 Q1968.83 197.729 1968.83 201.525 L1968.83 216.178 L1964.55 216.178 L1964.55 190.252 L1968.83 190.252 L1968.83 194.28 Q1970.36 191.942 1972.42 190.784 Q1974.5 189.627 1977.21 189.627 Q1981.68 189.627 1983.97 192.405 Q1986.26 195.159 1986.26 200.529 Z" fill="#000000" fill-rule="evenodd" fill-opacity="1" /><path clip-path="url(#clip350)" d="M2011.81 194.187 L2011.81 180.159 L2016.07 180.159 L2016.07 216.178 L2011.81 216.178 L2011.81 212.289 Q2010.47 214.603 2008.41 215.738 Q2006.37 216.849 2003.5 216.849 Q1998.81 216.849 1995.84 213.099 Q1992.9 209.349 1992.9 203.238 Q1992.9 197.127 1995.84 193.377 Q1998.81 189.627 2003.5 189.627 Q2006.37 189.627 2008.41 190.761 Q2010.47 191.872 2011.81 194.187 M1997.3 203.238 Q1997.3 207.937 1999.22 210.622 Q2001.17 213.284 2004.55 213.284 Q2007.93 213.284 2009.87 210.622 Q2011.81 207.937 2011.81 203.238 Q2011.81 198.539 2009.87 195.877 Q2007.93 193.192 2004.55 193.192 Q2001.17 193.192 1999.22 195.877 Q1997.3 198.539 1997.3 203.238 Z" fill="#000000" fill-rule="evenodd" fill-opacity="1" /><path clip-path="url(#clip350)" d="M2034.89 193.238 Q2031.47 193.238 2029.48 195.923 Q2027.49 198.585 2027.49 203.238 Q2027.49 207.891 2029.45 210.576 Q2031.44 213.238 2034.89 213.238 Q2038.3 213.238 2040.29 210.553 Q2042.28 207.867 2042.28 203.238 Q2042.28 198.631 2040.29 195.946 Q2038.3 193.238 2034.89 193.238 M2034.89 189.627 Q2040.45 189.627 2043.62 193.238 Q2046.79 196.849 2046.79 203.238 Q2046.79 209.604 2043.62 213.238 Q2040.45 216.849 2034.89 216.849 Q2029.31 216.849 2026.14 213.238 Q2022.99 209.604 2022.99 203.238 Q2022.99 196.849 2026.14 193.238 Q2029.31 189.627 2034.89 189.627 Z" fill="#000000" fill-rule="evenodd" fill-opacity="1" /><path clip-path="url(#clip350)" d="M2051.37 190.252 L2055.63 190.252 L2060.96 210.483 L2066.26 190.252 L2071.28 190.252 L2076.61 210.483 L2081.91 190.252 L2086.17 190.252 L2079.38 216.178 L2074.36 216.178 L2068.78 194.928 L2063.18 216.178 L2058.16 216.178 L2051.37 190.252 Z" fill="#000000" fill-rule="evenodd" fill-opacity="1" /><path clip-path="url(#clip350)" d="M2093.18 194.65 L2122.86 194.65 L2122.86 198.539 L2093.18 198.539 L2093.18 194.65 M2093.18 204.094 L2122.86 204.094 L2122.86 208.029 L2093.18 208.029 L2093.18 204.094 Z" fill="#000000" fill-rule="evenodd" fill-opacity="1" /><path clip-path="url(#clip350)" d="M2133.76 212.242 L2141.4 212.242 L2141.4 185.877 L2133.09 187.543 L2133.09 183.284 L2141.35 181.618 L2146.03 181.618 L2146.03 212.242 L2153.67 212.242 L2153.67 216.178 L2133.76 216.178 L2133.76 212.242 Z" fill="#000000" fill-rule="evenodd" fill-opacity="1" /><path clip-path="url(#clip350)" d="M2173.11 184.696 Q2169.5 184.696 2167.67 188.261 Q2165.86 191.803 2165.86 198.932 Q2165.86 206.039 2167.67 209.604 Q2169.5 213.145 2173.11 213.145 Q2176.74 213.145 2178.55 209.604 Q2180.38 206.039 2180.38 198.932 Q2180.38 191.803 2178.55 188.261 Q2176.74 184.696 2173.11 184.696 M2173.11 180.993 Q2178.92 180.993 2181.98 185.599 Q2185.05 190.182 2185.05 198.932 Q2185.05 207.659 2181.98 212.266 Q2178.92 216.849 2173.11 216.849 Q2167.3 216.849 2164.22 212.266 Q2161.17 207.659 2161.17 198.932 Q2161.17 190.182 2164.22 185.599 Q2167.3 180.993 2173.11 180.993 Z" fill="#000000" fill-rule="evenodd" fill-opacity="1" /><path clip-path="url(#clip350)" d="M2203.27 184.696 Q2199.66 184.696 2197.83 188.261 Q2196.03 191.803 2196.03 198.932 Q2196.03 206.039 2197.83 209.604 Q2199.66 213.145 2203.27 213.145 Q2206.91 213.145 2208.71 209.604 Q2210.54 206.039 2210.54 198.932 Q2210.54 191.803 2208.71 188.261 Q2206.91 184.696 2203.27 184.696 M2203.27 180.993 Q2209.08 180.993 2212.14 185.599 Q2215.22 190.182 2215.22 198.932 Q2215.22 207.659 2212.14 212.266 Q2209.08 216.849 2203.27 216.849 Q2197.46 216.849 2194.38 212.266 Q2191.33 207.659 2191.33 198.932 Q2191.33 190.182 2194.38 185.599 Q2197.46 180.993 2203.27 180.993 Z" fill="#000000" fill-rule="evenodd" fill-opacity="1" /><path clip-path="url(#clip350)" d="M2222.16 180.206 L2225.86 180.206 Q2229.34 185.668 2231.05 190.9 Q2232.79 196.131 2232.79 201.293 Q2232.79 206.479 2231.05 211.733 Q2229.34 216.988 2225.86 222.428 L2222.16 222.428 Q2225.24 217.127 2226.74 211.895 Q2228.27 206.641 2228.27 201.293 Q2228.27 195.946 2226.74 190.738 Q2225.24 185.53 2222.16 180.206 Z" fill="#000000" fill-rule="evenodd" fill-opacity="1" /></svg>
