<?xml version="1.0" encoding="utf-8"?>
<svg xmlns="http://www.w3.org/2000/svg" xmlns:xlink="http://www.w3.org/1999/xlink" width="600" height="400" viewBox="0 0 2400 1600">
<defs>
  <clipPath id="clip620">
    <rect x="0" y="0" width="2400" height="1600"/>
  </clipPath>
</defs>
<path clip-path="url(#clip620)" d="M0 1600 L2400 1600 L2400 0 L0 0  Z" fill="#ffffff" fill-rule="evenodd" fill-opacity="1"/>
<defs>
  <clipPath id="clip621">
    <rect x="480" y="0" width="1681" height="1600"/>
  </clipPath>
</defs>
<path clip-path="url(#clip620)" d="M193.936 1486.45 L2352.76 1486.45 L2352.76 123.472 L193.936 123.472  Z" fill="#ffffff" fill-rule="evenodd" fill-opacity="1"/>
<defs>
  <clipPath id="clip622">
    <rect x="193" y="123" width="2160" height="1364"/>
  </clipPath>
</defs>
<polyline clip-path="url(#clip622)" style="stroke:#000000; stroke-linecap:round; stroke-linejoin:round; stroke-width:2; stroke-opacity:0.1; fill:none" points="481.326,1486.45 481.326,123.472 "/>
<polyline clip-path="url(#clip622)" style="stroke:#000000; stroke-linecap:round; stroke-linejoin:round; stroke-width:2; stroke-opacity:0.1; fill:none" points="933.909,1486.45 933.909,123.472 "/>
<polyline clip-path="url(#clip622)" style="stroke:#000000; stroke-linecap:round; stroke-linejoin:round; stroke-width:2; stroke-opacity:0.1; fill:none" points="1386.49,1486.45 1386.49,123.472 "/>
<polyline clip-path="url(#clip622)" style="stroke:#000000; stroke-linecap:round; stroke-linejoin:round; stroke-width:2; stroke-opacity:0.1; fill:none" points="1839.07,1486.45 1839.07,123.472 "/>
<polyline clip-path="url(#clip622)" style="stroke:#000000; stroke-linecap:round; stroke-linejoin:round; stroke-width:2; stroke-opacity:0.1; fill:none" points="2291.66,1486.45 2291.66,123.472 "/>
<polyline clip-path="url(#clip622)" style="stroke:#000000; stroke-linecap:round; stroke-linejoin:round; stroke-width:2; stroke-opacity:0.1; fill:none" points="193.936,1473.97 2352.76,1473.97 "/>
<polyline clip-path="url(#clip622)" style="stroke:#000000; stroke-linecap:round; stroke-linejoin:round; stroke-width:2; stroke-opacity:0.1; fill:none" points="193.936,1210.99 2352.76,1210.99 "/>
<polyline clip-path="url(#clip622)" style="stroke:#000000; stroke-linecap:round; stroke-linejoin:round; stroke-width:2; stroke-opacity:0.1; fill:none" points="193.936,948.006 2352.76,948.006 "/>
<polyline clip-path="url(#clip622)" style="stroke:#000000; stroke-linecap:round; stroke-linejoin:round; stroke-width:2; stroke-opacity:0.1; fill:none" points="193.936,685.024 2352.76,685.024 "/>
<polyline clip-path="url(#clip622)" style="stroke:#000000; stroke-linecap:round; stroke-linejoin:round; stroke-width:2; stroke-opacity:0.1; fill:none" points="193.936,422.041 2352.76,422.041 "/>
<polyline clip-path="url(#clip622)" style="stroke:#000000; stroke-linecap:round; stroke-linejoin:round; stroke-width:2; stroke-opacity:0.1; fill:none" points="193.936,159.059 2352.76,159.059 "/>
<polyline clip-path="url(#clip620)" style="stroke:#000000; stroke-linecap:round; stroke-linejoin:round; stroke-width:4; stroke-opacity:1; fill:none" points="193.936,1486.45 2352.76,1486.45 "/>
<polyline clip-path="url(#clip620)" style="stroke:#000000; stroke-linecap:round; stroke-linejoin:round; stroke-width:4; stroke-opacity:1; fill:none" points="481.326,1486.45 481.326,1467.55 "/>
<polyline clip-path="url(#clip620)" style="stroke:#000000; stroke-linecap:round; stroke-linejoin:round; stroke-width:4; stroke-opacity:1; fill:none" points="933.909,1486.45 933.909,1467.55 "/>
<polyline clip-path="url(#clip620)" style="stroke:#000000; stroke-linecap:round; stroke-linejoin:round; stroke-width:4; stroke-opacity:1; fill:none" points="1386.49,1486.45 1386.49,1467.55 "/>
<polyline clip-path="url(#clip620)" style="stroke:#000000; stroke-linecap:round; stroke-linejoin:round; stroke-width:4; stroke-opacity:1; fill:none" points="1839.07,1486.45 1839.07,1467.55 "/>
<polyline clip-path="url(#clip620)" style="stroke:#000000; stroke-linecap:round; stroke-linejoin:round; stroke-width:4; stroke-opacity:1; fill:none" points="2291.66,1486.45 2291.66,1467.55 "/>
<path clip-path="url(#clip620)" d="M475.979 1544.91 L492.298 1544.91 L492.298 1548.85 L470.354 1548.85 L470.354 1544.91 Q473.016 1542.16 477.599 1537.53 Q482.206 1532.88 483.386 1531.53 Q485.632 1529.01 486.511 1527.27 Q487.414 1525.51 487.414 1523.82 Q487.414 1521.07 485.47 1519.33 Q483.548 1517.6 480.446 1517.6 Q478.247 1517.6 475.794 1518.36 Q473.363 1519.13 470.585 1520.68 L470.585 1515.95 Q473.409 1514.82 475.863 1514.24 Q478.317 1513.66 480.354 1513.66 Q485.724 1513.66 488.919 1516.35 Q492.113 1519.03 492.113 1523.52 Q492.113 1525.65 491.303 1527.57 Q490.516 1529.47 488.409 1532.07 Q487.831 1532.74 484.729 1535.95 Q481.627 1539.15 475.979 1544.91 Z" fill="#000000" fill-rule="nonzero" fill-opacity="1" /><path clip-path="url(#clip620)" d="M936.918 1518.36 L925.113 1536.81 L936.918 1536.81 L936.918 1518.36 M935.691 1514.29 L941.571 1514.29 L941.571 1536.81 L946.501 1536.81 L946.501 1540.7 L941.571 1540.7 L941.571 1548.85 L936.918 1548.85 L936.918 1540.7 L921.316 1540.7 L921.316 1536.19 L935.691 1514.29 Z" fill="#000000" fill-rule="nonzero" fill-opacity="1" /><path clip-path="url(#clip620)" d="M1386.9 1529.7 Q1383.75 1529.7 1381.9 1531.86 Q1380.07 1534.01 1380.07 1537.76 Q1380.07 1541.49 1381.9 1543.66 Q1383.75 1545.82 1386.9 1545.82 Q1390.04 1545.82 1391.87 1543.66 Q1393.73 1541.49 1393.73 1537.76 Q1393.73 1534.01 1391.87 1531.86 Q1390.04 1529.7 1386.9 1529.7 M1396.18 1515.05 L1396.18 1519.31 Q1394.42 1518.48 1392.61 1518.04 Q1390.83 1517.6 1389.07 1517.6 Q1384.44 1517.6 1381.99 1520.72 Q1379.56 1523.85 1379.21 1530.17 Q1380.58 1528.15 1382.64 1527.09 Q1384.7 1526 1387.17 1526 Q1392.38 1526 1395.39 1529.17 Q1398.42 1532.32 1398.42 1537.76 Q1398.42 1543.08 1395.28 1546.3 Q1392.13 1549.52 1386.9 1549.52 Q1380.9 1549.52 1377.73 1544.94 Q1374.56 1540.33 1374.56 1531.6 Q1374.56 1523.41 1378.45 1518.55 Q1382.34 1513.66 1388.89 1513.66 Q1390.65 1513.66 1392.43 1514.01 Q1394.23 1514.36 1396.18 1515.05 Z" fill="#000000" fill-rule="nonzero" fill-opacity="1" /><path clip-path="url(#clip620)" d="M1839.07 1532.44 Q1835.74 1532.44 1833.82 1534.22 Q1831.92 1536 1831.92 1539.13 Q1831.92 1542.25 1833.82 1544.03 Q1835.74 1545.82 1839.07 1545.82 Q1842.41 1545.82 1844.33 1544.03 Q1846.25 1542.23 1846.25 1539.13 Q1846.25 1536 1844.33 1534.22 Q1842.43 1532.44 1839.07 1532.44 M1834.4 1530.45 Q1831.39 1529.7 1829.7 1527.64 Q1828.03 1525.58 1828.03 1522.62 Q1828.03 1518.48 1830.97 1516.07 Q1833.94 1513.66 1839.07 1513.66 Q1844.24 1513.66 1847.18 1516.07 Q1850.12 1518.48 1850.12 1522.62 Q1850.12 1525.58 1848.43 1527.64 Q1846.76 1529.7 1843.77 1530.45 Q1847.15 1531.23 1849.03 1533.52 Q1850.93 1535.82 1850.93 1539.13 Q1850.93 1544.15 1847.85 1546.83 Q1844.79 1549.52 1839.07 1549.52 Q1833.36 1549.52 1830.28 1546.83 Q1827.22 1544.15 1827.22 1539.13 Q1827.22 1535.82 1829.12 1533.52 Q1831.02 1531.23 1834.4 1530.45 M1832.69 1523.06 Q1832.69 1525.75 1834.35 1527.25 Q1836.04 1528.76 1839.07 1528.76 Q1842.08 1528.76 1843.77 1527.25 Q1845.49 1525.75 1845.49 1523.06 Q1845.49 1520.38 1843.77 1518.87 Q1842.08 1517.37 1839.07 1517.37 Q1836.04 1517.37 1834.35 1518.87 Q1832.69 1520.38 1832.69 1523.06 Z" fill="#000000" fill-rule="nonzero" fill-opacity="1" /><path clip-path="url(#clip620)" d="M2266.34 1544.91 L2273.98 1544.91 L2273.98 1518.55 L2265.67 1520.21 L2265.67 1515.95 L2273.94 1514.29 L2278.61 1514.29 L2278.61 1544.91 L2286.25 1544.91 L2286.25 1548.85 L2266.34 1548.85 L2266.34 1544.91 Z" fill="#000000" fill-rule="nonzero" fill-opacity="1" /><path clip-path="url(#clip620)" d="M2305.7 1517.37 Q2302.09 1517.37 2300.26 1520.93 Q2298.45 1524.47 2298.45 1531.6 Q2298.45 1538.71 2300.26 1542.27 Q2302.09 1545.82 2305.7 1545.82 Q2309.33 1545.82 2311.14 1542.27 Q2312.96 1538.71 2312.96 1531.6 Q2312.96 1524.47 2311.14 1520.93 Q2309.33 1517.37 2305.7 1517.37 M2305.7 1513.66 Q2311.51 1513.66 2314.56 1518.27 Q2317.64 1522.85 2317.64 1531.6 Q2317.64 1540.33 2314.56 1544.94 Q2311.51 1549.52 2305.7 1549.52 Q2299.89 1549.52 2296.81 1544.94 Q2293.75 1540.33 2293.75 1531.6 Q2293.75 1522.85 2296.81 1518.27 Q2299.89 1513.66 2305.7 1513.66 Z" fill="#000000" fill-rule="nonzero" fill-opacity="1" /><polyline clip-path="url(#clip620)" style="stroke:#000000; stroke-linecap:round; stroke-linejoin:round; stroke-width:4; stroke-opacity:1; fill:none" points="193.936,1486.45 193.936,123.472 "/>
<polyline clip-path="url(#clip620)" style="stroke:#000000; stroke-linecap:round; stroke-linejoin:round; stroke-width:4; stroke-opacity:1; fill:none" points="193.936,1473.97 212.834,1473.97 "/>
<polyline clip-path="url(#clip620)" style="stroke:#000000; stroke-linecap:round; stroke-linejoin:round; stroke-width:4; stroke-opacity:1; fill:none" points="193.936,1210.99 212.834,1210.99 "/>
<polyline clip-path="url(#clip620)" style="stroke:#000000; stroke-linecap:round; stroke-linejoin:round; stroke-width:4; stroke-opacity:1; fill:none" points="193.936,948.006 212.834,948.006 "/>
<polyline clip-path="url(#clip620)" style="stroke:#000000; stroke-linecap:round; stroke-linejoin:round; stroke-width:4; stroke-opacity:1; fill:none" points="193.936,685.024 212.834,685.024 "/>
<polyline clip-path="url(#clip620)" style="stroke:#000000; stroke-linecap:round; stroke-linejoin:round; stroke-width:4; stroke-opacity:1; fill:none" points="193.936,422.041 212.834,422.041 "/>
<polyline clip-path="url(#clip620)" style="stroke:#000000; stroke-linecap:round; stroke-linejoin:round; stroke-width:4; stroke-opacity:1; fill:none" points="193.936,159.059 212.834,159.059 "/>
<path clip-path="url(#clip620)" d="M50.9921 1474.42 L80.6679 1474.42 L80.6679 1478.36 L50.9921 1478.36 L50.9921 1474.42 Z" fill="#000000" fill-rule="nonzero" fill-opacity="1" /><path clip-path="url(#clip620)" d="M91.5706 1487.32 L99.2095 1487.32 L99.2095 1460.95 L90.8993 1462.62 L90.8993 1458.36 L99.1632 1456.69 L103.839 1456.69 L103.839 1487.32 L111.478 1487.32 L111.478 1491.25 L91.5706 1491.25 L91.5706 1487.32 Z" fill="#000000" fill-rule="nonzero" fill-opacity="1" /><path clip-path="url(#clip620)" d="M120.922 1485.37 L125.807 1485.37 L125.807 1491.25 L120.922 1491.25 L120.922 1485.37 Z" fill="#000000" fill-rule="nonzero" fill-opacity="1" /><path clip-path="url(#clip620)" d="M145.992 1459.77 Q142.381 1459.77 140.552 1463.33 Q138.746 1466.88 138.746 1474.01 Q138.746 1481.11 140.552 1484.68 Q142.381 1488.22 145.992 1488.22 Q149.626 1488.22 151.431 1484.68 Q153.26 1481.11 153.26 1474.01 Q153.26 1466.88 151.431 1463.33 Q149.626 1459.77 145.992 1459.77 M145.992 1456.07 Q151.802 1456.07 154.857 1460.67 Q157.936 1465.26 157.936 1474.01 Q157.936 1482.73 154.857 1487.34 Q151.802 1491.92 145.992 1491.92 Q140.181 1491.92 137.103 1487.34 Q134.047 1482.73 134.047 1474.01 Q134.047 1465.26 137.103 1460.67 Q140.181 1456.07 145.992 1456.07 Z" fill="#000000" fill-rule="nonzero" fill-opacity="1" /><path clip-path="url(#clip620)" d="M51.9875 1211.44 L81.6633 1211.44 L81.6633 1215.38 L51.9875 1215.38 L51.9875 1211.44 Z" fill="#000000" fill-rule="nonzero" fill-opacity="1" /><path clip-path="url(#clip620)" d="M101.756 1196.79 Q98.1447 1196.79 96.316 1200.35 Q94.5104 1203.89 94.5104 1211.02 Q94.5104 1218.13 96.316 1221.69 Q98.1447 1225.24 101.756 1225.24 Q105.39 1225.24 107.196 1221.69 Q109.024 1218.13 109.024 1211.02 Q109.024 1203.89 107.196 1200.35 Q105.39 1196.79 101.756 1196.79 M101.756 1193.08 Q107.566 1193.08 110.621 1197.69 Q113.7 1202.27 113.7 1211.02 Q113.7 1219.75 110.621 1224.36 Q107.566 1228.94 101.756 1228.94 Q95.9456 1228.94 92.8669 1224.36 Q89.8114 1219.75 89.8114 1211.02 Q89.8114 1202.27 92.8669 1197.69 Q95.9456 1193.08 101.756 1193.08 Z" fill="#000000" fill-rule="nonzero" fill-opacity="1" /><path clip-path="url(#clip620)" d="M121.918 1222.39 L126.802 1222.39 L126.802 1228.27 L121.918 1228.27 L121.918 1222.39 Z" fill="#000000" fill-rule="nonzero" fill-opacity="1" /><path clip-path="url(#clip620)" d="M137.033 1193.71 L155.39 1193.71 L155.39 1197.64 L141.316 1197.64 L141.316 1206.12 Q142.334 1205.77 143.353 1205.61 Q144.371 1205.42 145.39 1205.42 Q151.177 1205.42 154.556 1208.59 Q157.936 1211.76 157.936 1217.18 Q157.936 1222.76 154.464 1225.86 Q150.992 1228.94 144.672 1228.94 Q142.496 1228.94 140.228 1228.57 Q137.982 1228.2 135.575 1227.46 L135.575 1222.76 Q137.658 1223.89 139.881 1224.45 Q142.103 1225 144.58 1225 Q148.584 1225 150.922 1222.9 Q153.26 1220.79 153.26 1217.18 Q153.26 1213.57 150.922 1211.46 Q148.584 1209.36 144.58 1209.36 Q142.705 1209.36 140.83 1209.77 Q138.978 1210.19 137.033 1211.07 L137.033 1193.71 Z" fill="#000000" fill-rule="nonzero" fill-opacity="1" /><path clip-path="url(#clip620)" d="M100.76 933.805 Q97.1493 933.805 95.3206 937.37 Q93.515 940.911 93.515 948.041 Q93.515 955.147 95.3206 958.712 Q97.1493 962.254 100.76 962.254 Q104.395 962.254 106.2 958.712 Q108.029 955.147 108.029 948.041 Q108.029 940.911 106.2 937.37 Q104.395 933.805 100.76 933.805 M100.76 930.101 Q106.571 930.101 109.626 934.708 Q112.705 939.291 112.705 948.041 Q112.705 956.768 109.626 961.374 Q106.571 965.957 100.76 965.957 Q94.9502 965.957 91.8715 961.374 Q88.816 956.768 88.816 948.041 Q88.816 939.291 91.8715 934.708 Q94.9502 930.101 100.76 930.101 Z" fill="#000000" fill-rule="nonzero" fill-opacity="1" /><path clip-path="url(#clip620)" d="M120.922 959.407 L125.807 959.407 L125.807 965.286 L120.922 965.286 L120.922 959.407 Z" fill="#000000" fill-rule="nonzero" fill-opacity="1" /><path clip-path="url(#clip620)" d="M145.992 933.805 Q142.381 933.805 140.552 937.37 Q138.746 940.911 138.746 948.041 Q138.746 955.147 140.552 958.712 Q142.381 962.254 145.992 962.254 Q149.626 962.254 151.431 958.712 Q153.26 955.147 153.26 948.041 Q153.26 940.911 151.431 937.37 Q149.626 933.805 145.992 933.805 M145.992 930.101 Q151.802 930.101 154.857 934.708 Q157.936 939.291 157.936 948.041 Q157.936 956.768 154.857 961.374 Q151.802 965.957 145.992 965.957 Q140.181 965.957 137.103 961.374 Q134.047 956.768 134.047 948.041 Q134.047 939.291 137.103 934.708 Q140.181 930.101 145.992 930.101 Z" fill="#000000" fill-rule="nonzero" fill-opacity="1" /><path clip-path="url(#clip620)" d="M101.756 670.822 Q98.1447 670.822 96.316 674.387 Q94.5104 677.929 94.5104 685.058 Q94.5104 692.165 96.316 695.73 Q98.1447 699.271 101.756 699.271 Q105.39 699.271 107.196 695.73 Q109.024 692.165 109.024 685.058 Q109.024 677.929 107.196 674.387 Q105.39 670.822 101.756 670.822 M101.756 667.119 Q107.566 667.119 110.621 671.725 Q113.7 676.308 113.7 685.058 Q113.7 693.785 110.621 698.392 Q107.566 702.975 101.756 702.975 Q95.9456 702.975 92.8669 698.392 Q89.8114 693.785 89.8114 685.058 Q89.8114 676.308 92.8669 671.725 Q95.9456 667.119 101.756 667.119 Z" fill="#000000" fill-rule="nonzero" fill-opacity="1" /><path clip-path="url(#clip620)" d="M121.918 696.424 L126.802 696.424 L126.802 702.304 L121.918 702.304 L121.918 696.424 Z" fill="#000000" fill-rule="nonzero" fill-opacity="1" /><path clip-path="url(#clip620)" d="M137.033 667.744 L155.39 667.744 L155.39 671.679 L141.316 671.679 L141.316 680.151 Q142.334 679.804 143.353 679.642 Q144.371 679.457 145.39 679.457 Q151.177 679.457 154.556 682.628 Q157.936 685.799 157.936 691.216 Q157.936 696.794 154.464 699.896 Q150.992 702.975 144.672 702.975 Q142.496 702.975 140.228 702.605 Q137.982 702.234 135.575 701.494 L135.575 696.794 Q137.658 697.929 139.881 698.484 Q142.103 699.04 144.58 699.04 Q148.584 699.04 150.922 696.933 Q153.26 694.827 153.26 691.216 Q153.26 687.605 150.922 685.498 Q148.584 683.392 144.58 683.392 Q142.705 683.392 140.83 683.808 Q138.978 684.225 137.033 685.105 L137.033 667.744 Z" fill="#000000" fill-rule="nonzero" fill-opacity="1" /><path clip-path="url(#clip620)" d="M91.5706 435.386 L99.2095 435.386 L99.2095 409.021 L90.8993 410.687 L90.8993 406.428 L99.1632 404.761 L103.839 404.761 L103.839 435.386 L111.478 435.386 L111.478 439.321 L91.5706 439.321 L91.5706 435.386 Z" fill="#000000" fill-rule="nonzero" fill-opacity="1" /><path clip-path="url(#clip620)" d="M120.922 433.442 L125.807 433.442 L125.807 439.321 L120.922 439.321 L120.922 433.442 Z" fill="#000000" fill-rule="nonzero" fill-opacity="1" /><path clip-path="url(#clip620)" d="M145.992 407.84 Q142.381 407.84 140.552 411.405 Q138.746 414.946 138.746 422.076 Q138.746 429.182 140.552 432.747 Q142.381 436.289 145.992 436.289 Q149.626 436.289 151.431 432.747 Q153.26 429.182 153.26 422.076 Q153.26 414.946 151.431 411.405 Q149.626 407.84 145.992 407.84 M145.992 404.136 Q151.802 404.136 154.857 408.743 Q157.936 413.326 157.936 422.076 Q157.936 430.803 154.857 435.409 Q151.802 439.993 145.992 439.993 Q140.181 439.993 137.103 435.409 Q134.047 430.803 134.047 422.076 Q134.047 413.326 137.103 408.743 Q140.181 404.136 145.992 404.136 Z" fill="#000000" fill-rule="nonzero" fill-opacity="1" /><path clip-path="url(#clip620)" d="M92.566 172.404 L100.205 172.404 L100.205 146.038 L91.8947 147.705 L91.8947 143.446 L100.159 141.779 L104.834 141.779 L104.834 172.404 L112.473 172.404 L112.473 176.339 L92.566 176.339 L92.566 172.404 Z" fill="#000000" fill-rule="nonzero" fill-opacity="1" /><path clip-path="url(#clip620)" d="M121.918 170.459 L126.802 170.459 L126.802 176.339 L121.918 176.339 L121.918 170.459 Z" fill="#000000" fill-rule="nonzero" fill-opacity="1" /><path clip-path="url(#clip620)" d="M137.033 141.779 L155.39 141.779 L155.39 145.714 L141.316 145.714 L141.316 154.186 Q142.334 153.839 143.353 153.677 Q144.371 153.492 145.39 153.492 Q151.177 153.492 154.556 156.663 Q157.936 159.834 157.936 165.251 Q157.936 170.83 154.464 173.932 Q150.992 177.01 144.672 177.01 Q142.496 177.01 140.228 176.64 Q137.982 176.269 135.575 175.529 L135.575 170.83 Q137.658 171.964 139.881 172.52 Q142.103 173.075 144.58 173.075 Q148.584 173.075 150.922 170.969 Q153.26 168.862 153.26 165.251 Q153.26 161.64 150.922 159.533 Q148.584 157.427 144.58 157.427 Q142.705 157.427 140.83 157.844 Q138.978 158.26 137.033 159.14 L137.033 141.779 Z" fill="#000000" fill-rule="nonzero" fill-opacity="1" /><path clip-path="url(#clip620)" d="M1016.15 44.2197 Q1018.79 45.1109 1021.26 48.0275 Q1023.77 50.9442 1026.28 56.0483 L1034.59 72.576 L1025.8 72.576 L1018.06 57.061 Q1015.06 50.9847 1012.22 48.9997 Q1009.43 47.0148 1004.57 47.0148 L995.656 47.0148 L995.656 72.576 L987.474 72.576 L987.474 12.096 L1005.95 12.096 Q1016.32 12.096 1021.42 16.4305 Q1026.52 20.7649 1026.52 29.5149 Q1026.52 35.2267 1023.85 38.994 Q1021.22 42.7613 1016.15 44.2197 M995.656 18.8205 L995.656 40.2903 L1005.95 40.2903 Q1011.86 40.2903 1014.86 37.5762 Q1017.9 34.8216 1017.9 29.5149 Q1017.9 24.2082 1014.86 21.5346 Q1011.86 18.8205 1005.95 18.8205 L995.656 18.8205 Z" fill="#000000" fill-rule="nonzero" fill-opacity="1" /><path clip-path="url(#clip620)" d="M1058.65 32.4315 Q1052.65 32.4315 1049.17 37.1306 Q1045.69 41.7891 1045.69 49.9314 Q1045.69 58.0738 1049.13 62.7728 Q1052.61 67.4314 1058.65 67.4314 Q1064.6 67.4314 1068.09 62.7323 Q1071.57 58.0333 1071.57 49.9314 Q1071.57 41.8701 1068.09 37.1711 Q1064.6 32.4315 1058.65 32.4315 M1058.65 26.1121 Q1068.37 26.1121 1073.92 32.4315 Q1079.47 38.7509 1079.47 49.9314 Q1079.47 61.0714 1073.92 67.4314 Q1068.37 73.7508 1058.65 73.7508 Q1048.89 73.7508 1043.34 67.4314 Q1037.83 61.0714 1037.83 49.9314 Q1037.83 38.7509 1043.34 32.4315 Q1048.89 26.1121 1058.65 26.1121 Z" fill="#000000" fill-rule="nonzero" fill-opacity="1" /><path clip-path="url(#clip620)" d="M1091.82 9.54393 L1099.28 9.54393 L1099.28 72.576 L1091.82 72.576 L1091.82 9.54393 Z" fill="#000000" fill-rule="nonzero" fill-opacity="1" /><path clip-path="url(#clip620)" d="M1114.87 9.54393 L1122.33 9.54393 L1122.33 72.576 L1114.87 72.576 L1114.87 9.54393 Z" fill="#000000" fill-rule="nonzero" fill-opacity="1" /><path clip-path="url(#clip620)" d="M1137.92 27.2059 L1145.38 27.2059 L1145.38 72.576 L1137.92 72.576 L1137.92 27.2059 M1137.92 9.54393 L1145.38 9.54393 L1145.38 18.9825 L1137.92 18.9825 L1137.92 9.54393 Z" fill="#000000" fill-rule="nonzero" fill-opacity="1" /><path clip-path="url(#clip620)" d="M1198.69 45.1919 L1198.69 72.576 L1191.23 72.576 L1191.23 45.4349 Q1191.23 38.994 1188.72 35.7938 Q1186.21 32.5936 1181.19 32.5936 Q1175.15 32.5936 1171.67 36.4419 Q1168.18 40.2903 1168.18 46.9338 L1168.18 72.576 L1160.69 72.576 L1160.69 27.2059 L1168.18 27.2059 L1168.18 34.2544 Q1170.86 30.163 1174.46 28.1376 Q1178.11 26.1121 1182.85 26.1121 Q1190.67 26.1121 1194.68 30.9732 Q1198.69 35.7938 1198.69 45.1919 Z" fill="#000000" fill-rule="nonzero" fill-opacity="1" /><path clip-path="url(#clip620)" d="M1243.41 49.3643 Q1243.41 41.2625 1240.05 36.8065 Q1236.73 32.3505 1230.69 32.3505 Q1224.69 32.3505 1221.33 36.8065 Q1218.01 41.2625 1218.01 49.3643 Q1218.01 57.4256 1221.33 61.8816 Q1224.69 66.3376 1230.69 66.3376 Q1236.73 66.3376 1240.05 61.8816 Q1243.41 57.4256 1243.41 49.3643 M1250.86 66.9452 Q1250.86 78.5308 1245.72 84.1616 Q1240.57 89.8329 1229.96 89.8329 Q1226.03 89.8329 1222.55 89.2252 Q1219.06 88.6581 1215.78 87.4428 L1215.78 80.1917 Q1219.06 81.9741 1222.26 82.8248 Q1225.46 83.6755 1228.79 83.6755 Q1236.12 83.6755 1239.76 79.8271 Q1243.41 76.0193 1243.41 68.282 L1243.41 64.5957 Q1241.1 68.6061 1237.5 70.5911 Q1233.89 72.576 1228.87 72.576 Q1220.52 72.576 1215.42 66.2161 Q1210.31 59.8562 1210.31 49.3643 Q1210.31 38.832 1215.42 32.472 Q1220.52 26.1121 1228.87 26.1121 Q1233.89 26.1121 1237.5 28.0971 Q1241.1 30.082 1243.41 34.0924 L1243.41 27.2059 L1250.86 27.2059 L1250.86 66.9452 Z" fill="#000000" fill-rule="nonzero" fill-opacity="1" /><path clip-path="url(#clip620)" d="M1327.91 35.9153 Q1330.71 30.8922 1334.6 28.5022 Q1338.48 26.1121 1343.75 26.1121 Q1350.84 26.1121 1354.69 31.0947 Q1358.54 36.0368 1358.54 45.1919 L1358.54 72.576 L1351.04 72.576 L1351.04 45.4349 Q1351.04 38.913 1348.73 35.7533 Q1346.42 32.5936 1341.68 32.5936 Q1335.89 32.5936 1332.53 36.4419 Q1329.17 40.2903 1329.17 46.9338 L1329.17 72.576 L1321.67 72.576 L1321.67 45.4349 Q1321.67 38.8725 1319.36 35.7533 Q1317.06 32.5936 1312.23 32.5936 Q1306.52 32.5936 1303.16 36.4824 Q1299.8 40.3308 1299.8 46.9338 L1299.8 72.576 L1292.3 72.576 L1292.3 27.2059 L1299.8 27.2059 L1299.8 34.2544 Q1302.35 30.082 1305.92 28.0971 Q1309.48 26.1121 1314.38 26.1121 Q1319.32 26.1121 1322.77 28.6237 Q1326.25 31.1352 1327.91 35.9153 Z" fill="#000000" fill-rule="nonzero" fill-opacity="1" /><path clip-path="url(#clip620)" d="M1412.21 48.0275 L1412.21 51.6733 L1377.94 51.6733 Q1378.43 59.3701 1382.56 63.421 Q1386.73 67.4314 1394.14 67.4314 Q1398.44 67.4314 1402.45 66.3781 Q1406.5 65.3249 1410.47 63.2184 L1410.47 70.267 Q1406.46 71.9684 1402.25 72.8596 Q1398.03 73.7508 1393.7 73.7508 Q1382.84 73.7508 1376.48 67.4314 Q1370.16 61.1119 1370.16 50.3365 Q1370.16 39.1965 1376.16 32.6746 Q1382.19 26.1121 1392.4 26.1121 Q1401.56 26.1121 1406.86 32.0264 Q1412.21 37.9003 1412.21 48.0275 M1404.76 45.84 Q1404.68 39.7232 1401.31 36.0774 Q1397.99 32.4315 1392.48 32.4315 Q1386.24 32.4315 1382.48 35.9558 Q1378.75 39.4801 1378.18 45.8805 L1404.76 45.84 Z" fill="#000000" fill-rule="nonzero" fill-opacity="1" /><path clip-path="url(#clip620)" d="M1445.06 49.7694 Q1436.03 49.7694 1432.55 51.8354 Q1429.06 53.9013 1429.06 58.8839 Q1429.06 62.8538 1431.66 65.2034 Q1434.29 67.5124 1438.78 67.5124 Q1444.98 67.5124 1448.71 63.1374 Q1452.48 58.7219 1452.48 51.4303 L1452.48 49.7694 L1445.06 49.7694 M1459.93 46.6907 L1459.93 72.576 L1452.48 72.576 L1452.48 65.6895 Q1449.92 69.8214 1446.12 71.8063 Q1442.31 73.7508 1436.8 73.7508 Q1429.83 73.7508 1425.7 69.8619 Q1421.61 65.9325 1421.61 59.3701 Q1421.61 51.7138 1426.71 47.825 Q1431.86 43.9361 1442.03 43.9361 L1452.48 43.9361 L1452.48 43.2069 Q1452.48 38.0623 1449.07 35.2672 Q1445.71 32.4315 1439.6 32.4315 Q1435.71 32.4315 1432.02 33.3632 Q1428.33 34.295 1424.93 36.1584 L1424.93 29.2718 Q1429.02 27.692 1432.87 26.9223 Q1436.72 26.1121 1440.36 26.1121 Q1450.21 26.1121 1455.07 31.2163 Q1459.93 36.3204 1459.93 46.6907 Z" fill="#000000" fill-rule="nonzero" fill-opacity="1" /><path clip-path="url(#clip620)" d="M1513 45.1919 L1513 72.576 L1505.54 72.576 L1505.54 45.4349 Q1505.54 38.994 1503.03 35.7938 Q1500.52 32.5936 1495.5 32.5936 Q1489.46 32.5936 1485.98 36.4419 Q1482.49 40.2903 1482.49 46.9338 L1482.49 72.576 L1475 72.576 L1475 27.2059 L1482.49 27.2059 L1482.49 34.2544 Q1485.17 30.163 1488.77 28.1376 Q1492.42 26.1121 1497.16 26.1121 Q1504.98 26.1121 1508.99 30.9732 Q1513 35.7938 1513 45.1919 Z" fill="#000000" fill-rule="nonzero" fill-opacity="1" /><path clip-path="url(#clip620)" d="M1556.79 28.5427 L1556.79 35.5912 Q1553.63 33.9709 1550.23 33.1607 Q1546.82 32.3505 1543.18 32.3505 Q1537.63 32.3505 1534.83 34.0519 Q1532.08 35.7533 1532.08 39.156 Q1532.08 41.7486 1534.06 43.2475 Q1536.05 44.7058 1542.04 46.0426 L1544.59 46.6097 Q1552.53 48.3111 1555.86 51.4303 Q1559.22 54.509 1559.22 60.0587 Q1559.22 66.3781 1554.2 70.0644 Q1549.21 73.7508 1540.46 73.7508 Q1536.82 73.7508 1532.85 73.0216 Q1528.92 72.3329 1524.54 70.9151 L1524.54 63.2184 Q1528.67 65.3654 1532.68 66.4591 Q1536.7 67.5124 1540.62 67.5124 Q1545.89 67.5124 1548.73 65.73 Q1551.56 63.9071 1551.56 60.6258 Q1551.56 57.5877 1549.5 55.9673 Q1547.47 54.3469 1540.54 52.8481 L1537.95 52.2405 Q1531.02 50.7821 1527.95 47.7845 Q1524.87 44.7463 1524.87 39.4801 Q1524.87 33.0797 1529.4 29.5959 Q1533.94 26.1121 1542.29 26.1121 Q1546.42 26.1121 1550.06 26.7198 Q1553.71 27.3274 1556.79 28.5427 Z" fill="#000000" fill-rule="nonzero" fill-opacity="1" /><polyline clip-path="url(#clip622)" style="stroke:#009af9; stroke-linecap:round; stroke-linejoin:round; stroke-width:4; stroke-opacity:1; fill:none" points="255.035,406.763 275.607,382.919 296.179,403.433 316.751,191.162 337.322,323.974 357.894,390.215 378.466,163.567 399.038,174.272 419.61,212.754 440.182,275.374 460.754,409.854 481.326,405.812 501.898,469.254 522.47,309.253 543.042,344.043 563.614,454.291 584.186,387.269 604.758,416.19 625.33,616.072 645.902,590.791 666.474,658.507 687.046,654.906 707.617,725.378 728.189,823.43 748.761,896.67 769.333,909.38 789.905,1054.51 810.477,1001.16 831.049,1059.4 851.621,1136.46 872.193,1036.38 892.765,1212.74 913.337,1124.81 933.909,1195.52 954.481,1204.24 975.053,1185.74 995.625,1337.84 1016.2,1420.78 1036.77,1412.81 1057.34,1324.43 1077.91,1447.87 1098.48,1244.8 1119.06,1395.11 1139.63,1270.19 1160.2,1396.6 1180.77,1326.53 1201.34,1168.88 1221.92,1372.75 1242.49,1156.37 1263.06,1167.93 1283.63,1082.64 1304.2,1084.48 1324.78,1197.84 1345.35,999.05 1365.92,1030.2 1386.49,938.631 1407.06,1025.19 1427.64,904.107 1448.21,828.433 1468.78,879.693 1489.35,639.694 1509.92,736.313 1530.5,761.548 1551.07,720.245 1571.64,555.749 1592.21,602.002 1612.78,392.654 1633.35,502.758 1653.93,365.945 1674.5,347.376 1695.07,287.496 1715.64,364.801 1736.21,431.457 1756.79,330.627 1777.36,404.713 1797.93,162.047 1818.5,176.861 1839.07,247.711 1859.65,222.994 1880.22,348.774 1900.79,340.372 1921.36,382.663 1941.93,330.102 1962.51,432.831 1983.08,469.879 2003.65,584.772 2024.22,566.522 2044.79,525.384 2065.37,603.412 2085.94,616.243 2106.51,578.335 2127.08,618.376 2147.65,821.509 2168.23,958.07 2188.8,814.647 2209.37,901.714 2229.94,1062.08 2250.51,1068.54 2271.09,1020.03 2291.66,1121.63 "/>
<polyline clip-path="url(#clip622)" style="stroke:#e26f46; stroke-linecap:round; stroke-linejoin:round; stroke-width:8; stroke-opacity:1; fill:none" points="337.322,341.65 357.894,338.341 378.466,294.47 399.038,248.638 419.61,252.956 440.182,243.236 460.754,247.164 481.326,295.613 501.898,354.61 522.47,373.91 543.042,387.643 563.614,396.531 584.186,392.822 604.758,382.209 625.33,443.573 645.902,492.923 666.474,533.766 687.046,587.293 707.617,649.131 728.189,690.602 748.761,751.778 769.333,801.953 789.905,881.875 810.477,937.032 831.049,984.226 851.621,1032.18 872.193,1057.58 892.765,1089.23 913.337,1113.96 933.909,1141.18 954.481,1154.74 975.053,1184.61 995.625,1209.63 1016.2,1268.82 1036.77,1312.28 1057.34,1336.32 1077.91,1388.75 1098.48,1370.14 1119.06,1365 1139.63,1336.48 1160.2,1350.91 1180.77,1326.65 1201.34,1311.46 1221.92,1306.99 1242.49,1284.23 1263.06,1238.49 1283.63,1189.71 1304.2,1172.83 1324.78,1137.85 1345.35,1106.39 1365.92,1078.84 1386.49,1050.04 1407.06,1038.18 1427.64,979.434 1448.21,945.311 1468.78,915.21 1489.35,855.423 1509.92,797.648 1530.5,769.136 1551.07,747.498 1571.64,682.71 1592.21,675.171 1612.78,606.44 1633.35,554.682 1653.93,483.821 1674.5,442.147 1695.07,379.246 1715.64,373.675 1736.21,359.415 1756.79,352.351 1777.36,363.819 1797.93,338.729 1818.5,301.141 1839.07,264.392 1859.65,242.865 1880.22,231.677 1900.79,267.342 1921.36,308.503 1941.93,324.981 1962.51,366.948 1983.08,391.169 2003.65,440.049 2024.22,476.821 2044.79,515.878 2065.37,549.994 2085.94,579.267 2106.51,577.979 2127.08,588.35 2147.65,647.575 2168.23,718.507 2188.8,758.187 2209.37,822.863 2229.94,911.604 2250.51,961.011 2271.09,973.403 2291.66,1034.8 "/>
<polyline clip-path="url(#clip622)" style="stroke:#3da44d; stroke-linecap:round; stroke-linejoin:round; stroke-width:8; stroke-opacity:1; fill:none" points="440.182,292.443 460.754,292.752 481.326,295.042 501.898,301.624 522.47,313.433 543.042,315.44 563.614,321.847 584.186,344.218 604.758,368.409 625.33,408.741 645.902,440.283 666.474,465.148 687.046,490.058 707.617,515.67 728.189,567.088 748.761,622.35 769.333,667.859 789.905,734.584 810.477,793.081 831.049,837.414 851.621,891.982 872.193,929.769 892.765,985.553 913.337,1025.5 933.909,1062.71 954.481,1093.46 975.053,1121.1 995.625,1149.43 1016.2,1191.39 1036.77,1226.73 1057.34,1245.53 1077.91,1286.68 1098.48,1289.88 1119.06,1316.91 1139.63,1324.38 1160.2,1343.62 1180.77,1357.7 1201.34,1340.8 1221.92,1336 1242.49,1310.35 1263.06,1294.7 1283.63,1258.18 1304.2,1242.15 1324.78,1222.42 1345.35,1195.31 1365.92,1158.67 1386.49,1119.88 1407.06,1105.51 1427.64,1058.64 1448.21,1025.85 1468.78,997.025 1489.35,952.731 1509.92,917.914 1530.5,874.285 1551.07,846.405 1571.64,798.96 1592.21,765.297 1612.78,702.044 1633.35,661.909 1653.93,615.66 1674.5,562.428 1695.07,527.208 1715.64,490.057 1736.21,457.048 1756.79,418.086 1777.36,402.983 1797.93,358.987 1818.5,337.408 1839.07,311.903 1859.65,297.608 1880.22,297.748 1900.79,303.036 1921.36,304.822 1941.93,294.686 1962.51,304.907 1983.08,311.423 2003.65,353.696 2024.22,392.662 2044.79,420.429 2065.37,458.471 2085.94,485.218 2106.51,509.014 2127.08,532.586 2147.65,581.726 2168.23,634.25 2188.8,668.727 2209.37,700.421 2229.94,749.977 2250.51,804.293 2271.09,845.955 2291.66,896.494 "/>
<polyline clip-path="url(#clip622)" style="stroke:#c271d2; stroke-linecap:round; stroke-linejoin:round; stroke-width:8; stroke-opacity:1; fill:none" points="645.902,366.363 666.474,378.95 687.046,392.55 707.617,408.647 728.189,440.26 748.761,468.895 769.333,494.853 789.905,539.401 810.477,580.745 831.049,623.078 851.621,666.132 872.193,697.459 892.765,737.805 913.337,770.583 933.909,814.896 954.481,857.906 975.053,894.479 995.625,942.007 1016.2,992.237 1036.77,1032.07 1057.34,1068.76 1077.91,1108.22 1098.48,1137.72 1119.06,1171.2 1139.63,1193.54 1160.2,1218.54 1180.77,1239.4 1201.34,1245.12 1221.92,1263.69 1242.49,1268.54 1263.06,1270.12 1283.63,1272.43 1304.2,1266.02 1324.78,1269.67 1345.35,1259.84 1365.92,1251.14 1386.49,1238.79 1407.06,1223.15 1427.64,1197.32 1448.21,1168.1 1468.78,1145.86 1489.35,1105.46 1509.92,1080.03 1530.5,1048.35 1551.07,1020.86 1571.64,978.813 1592.21,942.587 1612.78,903.776 1633.35,860.276 1653.93,820.755 1674.5,779.727 1695.07,739.97 1715.64,703.986 1736.21,665.667 1756.79,632.245 1777.36,600.971 1797.93,562.142 1818.5,519.726 1839.07,486.906 1859.65,456.634 1880.22,430.088 1900.79,415.122 1921.36,397.44 1941.93,375.867 1962.51,361.497 1983.08,357.203 2003.65,356.342 2024.22,365.035 2044.79,366.166 2065.37,378.04 2085.94,391.483 2106.51,406.025 2127.08,418.704 2147.65,438.206 2168.23,469.579 2188.8,490.075 2209.37,527.059 2229.94,571.32 2250.51,612.361 2271.09,652.213 2291.66,690.856 "/>
<path clip-path="url(#clip620)" d="M1862.53 1441.02 L2280.8 1441.02 L2280.8 1181.82 L1862.53 1181.82  Z" fill="#ffffff" fill-rule="evenodd" fill-opacity="1"/>
<polyline clip-path="url(#clip620)" style="stroke:#000000; stroke-linecap:round; stroke-linejoin:round; stroke-width:4; stroke-opacity:1; fill:none" points="1862.53,1441.02 2280.8,1441.02 2280.8,1181.82 1862.53,1181.82 1862.53,1441.02 "/>
<polyline clip-path="url(#clip620)" style="stroke:#009af9; stroke-linecap:round; stroke-linejoin:round; stroke-width:4; stroke-opacity:1; fill:none" points="1886.52,1233.66 2030.44,1233.66 "/>
<path clip-path="url(#clip620)" d="M2069.61 1228.99 Q2068.89 1228.57 2068.04 1228.39 Q2067.2 1228.18 2066.18 1228.18 Q2062.57 1228.18 2060.63 1230.54 Q2058.71 1232.88 2058.71 1237.28 L2058.71 1250.94 L2054.43 1250.94 L2054.43 1225.01 L2058.71 1225.01 L2058.71 1229.04 Q2060.05 1226.68 2062.2 1225.54 Q2064.36 1224.38 2067.43 1224.38 Q2067.87 1224.38 2068.41 1224.45 Q2068.94 1224.5 2069.59 1224.62 L2069.61 1228.99 Z" fill="#000000" fill-rule="nonzero" fill-opacity="1" /><path clip-path="url(#clip620)" d="M2085.86 1237.9 Q2080.7 1237.9 2078.71 1239.08 Q2076.72 1240.26 2076.72 1243.11 Q2076.72 1245.38 2078.2 1246.72 Q2079.7 1248.04 2082.27 1248.04 Q2085.81 1248.04 2087.94 1245.54 Q2090.1 1243.02 2090.1 1238.85 L2090.1 1237.9 L2085.86 1237.9 M2094.36 1236.14 L2094.36 1250.94 L2090.1 1250.94 L2090.1 1247 Q2088.64 1249.36 2086.46 1250.5 Q2084.29 1251.61 2081.14 1251.61 Q2077.16 1251.61 2074.8 1249.38 Q2072.46 1247.14 2072.46 1243.39 Q2072.46 1239.01 2075.37 1236.79 Q2078.31 1234.57 2084.12 1234.57 L2090.1 1234.57 L2090.1 1234.15 Q2090.1 1231.21 2088.15 1229.62 Q2086.23 1228 2082.74 1228 Q2080.51 1228 2078.41 1228.53 Q2076.3 1229.06 2074.36 1230.13 L2074.36 1226.19 Q2076.69 1225.29 2078.89 1224.85 Q2081.09 1224.38 2083.18 1224.38 Q2088.8 1224.38 2091.58 1227.3 Q2094.36 1230.22 2094.36 1236.14 Z" fill="#000000" fill-rule="nonzero" fill-opacity="1" /><path clip-path="url(#clip620)" d="M2100.65 1225.01 L2104.91 1225.01 L2110.24 1245.24 L2115.54 1225.01 L2120.56 1225.01 L2125.88 1245.24 L2131.18 1225.01 L2135.44 1225.01 L2128.66 1250.94 L2123.64 1250.94 L2118.06 1229.69 L2112.46 1250.94 L2107.43 1250.94 L2100.65 1225.01 Z" fill="#000000" fill-rule="nonzero" fill-opacity="1" /><polyline clip-path="url(#clip620)" style="stroke:#e26f46; stroke-linecap:round; stroke-linejoin:round; stroke-width:8; stroke-opacity:1; fill:none" points="1886.52,1285.5 2030.44,1285.5 "/>
<path clip-path="url(#clip620)" d="M2074.77 1281.83 Q2076.37 1278.96 2078.59 1277.59 Q2080.81 1276.22 2083.82 1276.22 Q2087.87 1276.22 2090.07 1279.07 Q2092.27 1281.9 2092.27 1287.13 L2092.27 1302.78 L2087.99 1302.78 L2087.99 1287.27 Q2087.99 1283.54 2086.67 1281.73 Q2085.35 1279.93 2082.64 1279.93 Q2079.33 1279.93 2077.41 1282.13 Q2075.49 1284.33 2075.49 1288.12 L2075.49 1302.78 L2071.21 1302.78 L2071.21 1287.27 Q2071.21 1283.52 2069.89 1281.73 Q2068.57 1279.93 2065.81 1279.93 Q2062.55 1279.93 2060.63 1282.15 Q2058.71 1284.35 2058.71 1288.12 L2058.71 1302.78 L2054.43 1302.78 L2054.43 1276.85 L2058.71 1276.85 L2058.71 1280.88 Q2060.17 1278.49 2062.2 1277.36 Q2064.24 1276.22 2067.04 1276.22 Q2069.86 1276.22 2071.83 1277.66 Q2073.82 1279.09 2074.77 1281.83 Z" fill="#000000" fill-rule="nonzero" fill-opacity="1" /><path clip-path="url(#clip620)" d="M2122.94 1288.75 L2122.94 1290.83 L2103.36 1290.83 Q2103.64 1295.23 2106 1297.54 Q2108.38 1299.84 2112.62 1299.84 Q2115.07 1299.84 2117.36 1299.23 Q2119.68 1298.63 2121.95 1297.43 L2121.95 1301.46 Q2119.66 1302.43 2117.25 1302.94 Q2114.84 1303.45 2112.36 1303.45 Q2106.16 1303.45 2102.53 1299.84 Q2098.92 1296.22 2098.92 1290.07 Q2098.92 1283.7 2102.34 1279.97 Q2105.79 1276.22 2111.62 1276.22 Q2116.86 1276.22 2119.89 1279.6 Q2122.94 1282.96 2122.94 1288.75 M2118.68 1287.5 Q2118.64 1284 2116.72 1281.92 Q2114.82 1279.84 2111.67 1279.84 Q2108.11 1279.84 2105.95 1281.85 Q2103.82 1283.86 2103.5 1287.52 L2118.68 1287.5 Z" fill="#000000" fill-rule="nonzero" fill-opacity="1" /><path clip-path="url(#clip620)" d="M2141.72 1289.74 Q2136.55 1289.74 2134.56 1290.92 Q2132.57 1292.1 2132.57 1294.95 Q2132.57 1297.22 2134.05 1298.56 Q2135.56 1299.88 2138.13 1299.88 Q2141.67 1299.88 2143.8 1297.38 Q2145.95 1294.86 2145.95 1290.69 L2145.95 1289.74 L2141.72 1289.74 M2150.21 1287.98 L2150.21 1302.78 L2145.95 1302.78 L2145.95 1298.84 Q2144.49 1301.2 2142.32 1302.34 Q2140.14 1303.45 2136.99 1303.45 Q2133.01 1303.45 2130.65 1301.22 Q2128.31 1298.98 2128.31 1295.23 Q2128.31 1290.85 2131.23 1288.63 Q2134.17 1286.41 2139.98 1286.41 L2145.95 1286.41 L2145.95 1285.99 Q2145.95 1283.05 2144.01 1281.46 Q2142.09 1279.84 2138.59 1279.84 Q2136.37 1279.84 2134.26 1280.37 Q2132.16 1280.9 2130.21 1281.97 L2130.21 1278.03 Q2132.55 1277.13 2134.75 1276.69 Q2136.95 1276.22 2139.03 1276.22 Q2144.66 1276.22 2147.43 1279.14 Q2150.21 1282.06 2150.21 1287.98 Z" fill="#000000" fill-rule="nonzero" fill-opacity="1" /><path clip-path="url(#clip620)" d="M2180.54 1287.13 L2180.54 1302.78 L2176.28 1302.78 L2176.28 1287.27 Q2176.28 1283.59 2174.84 1281.76 Q2173.41 1279.93 2170.54 1279.93 Q2167.09 1279.93 2165.1 1282.13 Q2163.11 1284.33 2163.11 1288.12 L2163.11 1302.78 L2158.82 1302.78 L2158.82 1276.85 L2163.11 1276.85 L2163.11 1280.88 Q2164.63 1278.54 2166.69 1277.38 Q2168.78 1276.22 2171.48 1276.22 Q2175.95 1276.22 2178.24 1279 Q2180.54 1281.76 2180.54 1287.13 Z" fill="#000000" fill-rule="nonzero" fill-opacity="1" /><path clip-path="url(#clip620)" d="M2204.75 1268.22 L2223.1 1268.22 L2223.1 1272.15 L2209.03 1272.15 L2209.03 1280.62 Q2210.05 1280.28 2211.07 1280.11 Q2212.09 1279.93 2213.1 1279.93 Q2218.89 1279.93 2222.27 1283.1 Q2225.65 1286.27 2225.65 1291.69 Q2225.65 1297.27 2222.18 1300.37 Q2218.71 1303.45 2212.39 1303.45 Q2210.21 1303.45 2207.94 1303.08 Q2205.7 1302.71 2203.29 1301.97 L2203.29 1297.27 Q2205.37 1298.4 2207.6 1298.96 Q2209.82 1299.51 2212.29 1299.51 Q2216.3 1299.51 2218.64 1297.41 Q2220.98 1295.3 2220.98 1291.69 Q2220.98 1288.08 2218.64 1285.97 Q2216.3 1283.86 2212.29 1283.86 Q2210.42 1283.86 2208.54 1284.28 Q2206.69 1284.7 2204.75 1285.58 L2204.75 1268.22 Z" fill="#000000" fill-rule="nonzero" fill-opacity="1" /><polyline clip-path="url(#clip620)" style="stroke:#3da44d; stroke-linecap:round; stroke-linejoin:round; stroke-width:8; stroke-opacity:1; fill:none" points="1886.52,1337.34 2030.44,1337.34 "/>
<path clip-path="url(#clip620)" d="M2074.77 1333.67 Q2076.37 1330.8 2078.59 1329.43 Q2080.81 1328.06 2083.82 1328.06 Q2087.87 1328.06 2090.07 1330.91 Q2092.27 1333.74 2092.27 1338.97 L2092.27 1354.62 L2087.99 1354.62 L2087.99 1339.11 Q2087.99 1335.38 2086.67 1333.57 Q2085.35 1331.77 2082.64 1331.77 Q2079.33 1331.77 2077.41 1333.97 Q2075.49 1336.17 2075.49 1339.96 L2075.49 1354.62 L2071.21 1354.62 L2071.21 1339.11 Q2071.21 1335.36 2069.89 1333.57 Q2068.57 1331.77 2065.81 1331.77 Q2062.55 1331.77 2060.63 1333.99 Q2058.71 1336.19 2058.71 1339.96 L2058.71 1354.62 L2054.43 1354.62 L2054.43 1328.69 L2058.71 1328.69 L2058.71 1332.72 Q2060.17 1330.33 2062.2 1329.2 Q2064.24 1328.06 2067.04 1328.06 Q2069.86 1328.06 2071.83 1329.5 Q2073.82 1330.93 2074.77 1333.67 Z" fill="#000000" fill-rule="nonzero" fill-opacity="1" /><path clip-path="url(#clip620)" d="M2122.94 1340.59 L2122.94 1342.67 L2103.36 1342.67 Q2103.64 1347.07 2106 1349.38 Q2108.38 1351.68 2112.62 1351.68 Q2115.07 1351.68 2117.36 1351.07 Q2119.68 1350.47 2121.95 1349.27 L2121.95 1353.3 Q2119.66 1354.27 2117.25 1354.78 Q2114.84 1355.29 2112.36 1355.29 Q2106.16 1355.29 2102.53 1351.68 Q2098.92 1348.06 2098.92 1341.91 Q2098.92 1335.54 2102.34 1331.81 Q2105.79 1328.06 2111.62 1328.06 Q2116.86 1328.06 2119.89 1331.44 Q2122.94 1334.8 2122.94 1340.59 M2118.68 1339.34 Q2118.64 1335.84 2116.72 1333.76 Q2114.82 1331.68 2111.67 1331.68 Q2108.11 1331.68 2105.95 1333.69 Q2103.82 1335.7 2103.5 1339.36 L2118.68 1339.34 Z" fill="#000000" fill-rule="nonzero" fill-opacity="1" /><path clip-path="url(#clip620)" d="M2141.72 1341.58 Q2136.55 1341.58 2134.56 1342.76 Q2132.57 1343.94 2132.57 1346.79 Q2132.57 1349.06 2134.05 1350.4 Q2135.56 1351.72 2138.13 1351.72 Q2141.67 1351.72 2143.8 1349.22 Q2145.95 1346.7 2145.95 1342.53 L2145.95 1341.58 L2141.72 1341.58 M2150.21 1339.82 L2150.21 1354.62 L2145.95 1354.62 L2145.95 1350.68 Q2144.49 1353.04 2142.32 1354.18 Q2140.14 1355.29 2136.99 1355.29 Q2133.01 1355.29 2130.65 1353.06 Q2128.31 1350.82 2128.31 1347.07 Q2128.31 1342.69 2131.23 1340.47 Q2134.17 1338.25 2139.98 1338.25 L2145.95 1338.25 L2145.95 1337.83 Q2145.95 1334.89 2144.01 1333.3 Q2142.09 1331.68 2138.59 1331.68 Q2136.37 1331.68 2134.26 1332.21 Q2132.16 1332.74 2130.21 1333.81 L2130.21 1329.87 Q2132.55 1328.97 2134.75 1328.53 Q2136.95 1328.06 2139.03 1328.06 Q2144.66 1328.06 2147.43 1330.98 Q2150.21 1333.9 2150.21 1339.82 Z" fill="#000000" fill-rule="nonzero" fill-opacity="1" /><path clip-path="url(#clip620)" d="M2180.54 1338.97 L2180.54 1354.62 L2176.28 1354.62 L2176.28 1339.11 Q2176.28 1335.43 2174.84 1333.6 Q2173.41 1331.77 2170.54 1331.77 Q2167.09 1331.77 2165.1 1333.97 Q2163.11 1336.17 2163.11 1339.96 L2163.11 1354.62 L2158.82 1354.62 L2158.82 1328.69 L2163.11 1328.69 L2163.11 1332.72 Q2164.63 1330.38 2166.69 1329.22 Q2168.78 1328.06 2171.48 1328.06 Q2175.95 1328.06 2178.24 1330.84 Q2180.54 1333.6 2180.54 1338.97 Z" fill="#000000" fill-rule="nonzero" fill-opacity="1" /><path clip-path="url(#clip620)" d="M2205.51 1350.68 L2213.15 1350.68 L2213.15 1324.31 L2204.84 1325.98 L2204.84 1321.72 L2213.1 1320.06 L2217.78 1320.06 L2217.78 1350.68 L2225.42 1350.68 L2225.42 1354.62 L2205.51 1354.62 L2205.51 1350.68 Z" fill="#000000" fill-rule="nonzero" fill-opacity="1" /><path clip-path="url(#clip620)" d="M2244.86 1323.13 Q2241.25 1323.13 2239.42 1326.7 Q2237.62 1330.24 2237.62 1337.37 Q2237.62 1344.48 2239.42 1348.04 Q2241.25 1351.58 2244.86 1351.58 Q2248.5 1351.58 2250.3 1348.04 Q2252.13 1344.48 2252.13 1337.37 Q2252.13 1330.24 2250.3 1326.7 Q2248.5 1323.13 2244.86 1323.13 M2244.86 1319.43 Q2250.67 1319.43 2253.73 1324.04 Q2256.81 1328.62 2256.81 1337.37 Q2256.81 1346.1 2253.73 1350.7 Q2250.67 1355.29 2244.86 1355.29 Q2239.05 1355.29 2235.98 1350.7 Q2232.92 1346.1 2232.92 1337.37 Q2232.92 1328.62 2235.98 1324.04 Q2239.05 1319.43 2244.86 1319.43 Z" fill="#000000" fill-rule="nonzero" fill-opacity="1" /><polyline clip-path="url(#clip620)" style="stroke:#c271d2; stroke-linecap:round; stroke-linejoin:round; stroke-width:8; stroke-opacity:1; fill:none" points="1886.52,1389.18 2030.44,1389.18 "/>
<path clip-path="url(#clip620)" d="M2074.77 1385.51 Q2076.37 1382.64 2078.59 1381.27 Q2080.81 1379.9 2083.82 1379.9 Q2087.87 1379.9 2090.07 1382.75 Q2092.27 1385.58 2092.27 1390.81 L2092.27 1406.46 L2087.99 1406.46 L2087.99 1390.95 Q2087.99 1387.22 2086.67 1385.41 Q2085.35 1383.61 2082.64 1383.61 Q2079.33 1383.61 2077.41 1385.81 Q2075.49 1388.01 2075.49 1391.8 L2075.49 1406.46 L2071.21 1406.46 L2071.21 1390.95 Q2071.21 1387.2 2069.89 1385.41 Q2068.57 1383.61 2065.81 1383.61 Q2062.55 1383.61 2060.63 1385.83 Q2058.71 1388.03 2058.71 1391.8 L2058.71 1406.46 L2054.43 1406.46 L2054.43 1380.53 L2058.71 1380.53 L2058.71 1384.56 Q2060.17 1382.17 2062.2 1381.04 Q2064.24 1379.9 2067.04 1379.9 Q2069.86 1379.9 2071.83 1381.34 Q2073.82 1382.77 2074.77 1385.51 Z" fill="#000000" fill-rule="nonzero" fill-opacity="1" /><path clip-path="url(#clip620)" d="M2122.94 1392.43 L2122.94 1394.51 L2103.36 1394.51 Q2103.64 1398.91 2106 1401.22 Q2108.38 1403.52 2112.62 1403.52 Q2115.07 1403.52 2117.36 1402.91 Q2119.68 1402.31 2121.95 1401.11 L2121.95 1405.14 Q2119.66 1406.11 2117.25 1406.62 Q2114.84 1407.13 2112.36 1407.13 Q2106.16 1407.13 2102.53 1403.52 Q2098.92 1399.9 2098.92 1393.75 Q2098.92 1387.38 2102.34 1383.65 Q2105.79 1379.9 2111.62 1379.9 Q2116.86 1379.9 2119.89 1383.28 Q2122.94 1386.64 2122.94 1392.43 M2118.68 1391.18 Q2118.64 1387.68 2116.72 1385.6 Q2114.82 1383.52 2111.67 1383.52 Q2108.11 1383.52 2105.95 1385.53 Q2103.82 1387.54 2103.5 1391.2 L2118.68 1391.18 Z" fill="#000000" fill-rule="nonzero" fill-opacity="1" /><path clip-path="url(#clip620)" d="M2141.72 1393.42 Q2136.55 1393.42 2134.56 1394.6 Q2132.57 1395.78 2132.57 1398.63 Q2132.57 1400.9 2134.05 1402.24 Q2135.56 1403.56 2138.13 1403.56 Q2141.67 1403.56 2143.8 1401.06 Q2145.95 1398.54 2145.95 1394.37 L2145.95 1393.42 L2141.72 1393.42 M2150.21 1391.66 L2150.21 1406.46 L2145.95 1406.46 L2145.95 1402.52 Q2144.49 1404.88 2142.32 1406.02 Q2140.14 1407.13 2136.99 1407.13 Q2133.01 1407.13 2130.65 1404.9 Q2128.31 1402.66 2128.31 1398.91 Q2128.31 1394.53 2131.23 1392.31 Q2134.17 1390.09 2139.98 1390.09 L2145.95 1390.09 L2145.95 1389.67 Q2145.95 1386.73 2144.01 1385.14 Q2142.09 1383.52 2138.59 1383.52 Q2136.37 1383.52 2134.26 1384.05 Q2132.16 1384.58 2130.21 1385.65 L2130.21 1381.71 Q2132.55 1380.81 2134.75 1380.37 Q2136.95 1379.9 2139.03 1379.9 Q2144.66 1379.9 2147.43 1382.82 Q2150.21 1385.74 2150.21 1391.66 Z" fill="#000000" fill-rule="nonzero" fill-opacity="1" /><path clip-path="url(#clip620)" d="M2180.54 1390.81 L2180.54 1406.46 L2176.28 1406.46 L2176.28 1390.95 Q2176.28 1387.27 2174.84 1385.44 Q2173.41 1383.61 2170.54 1383.61 Q2167.09 1383.61 2165.1 1385.81 Q2163.11 1388.01 2163.11 1391.8 L2163.11 1406.46 L2158.82 1406.46 L2158.82 1380.53 L2163.11 1380.53 L2163.11 1384.56 Q2164.63 1382.22 2166.69 1381.06 Q2168.78 1379.9 2171.48 1379.9 Q2175.95 1379.9 2178.24 1382.68 Q2180.54 1385.44 2180.54 1390.81 Z" fill="#000000" fill-rule="nonzero" fill-opacity="1" /><path clip-path="url(#clip620)" d="M2208.73 1402.52 L2225.05 1402.52 L2225.05 1406.46 L2203.1 1406.46 L2203.1 1402.52 Q2205.77 1399.77 2210.35 1395.14 Q2214.96 1390.48 2216.14 1389.14 Q2218.38 1386.62 2219.26 1384.88 Q2220.17 1383.12 2220.17 1381.43 Q2220.17 1378.68 2218.22 1376.94 Q2216.3 1375.21 2213.2 1375.21 Q2211 1375.21 2208.54 1375.97 Q2206.11 1376.73 2203.34 1378.28 L2203.34 1373.56 Q2206.16 1372.43 2208.61 1371.85 Q2211.07 1371.27 2213.1 1371.27 Q2218.48 1371.27 2221.67 1373.96 Q2224.86 1376.64 2224.86 1381.13 Q2224.86 1383.26 2224.05 1385.18 Q2223.27 1387.08 2221.16 1389.67 Q2220.58 1390.34 2217.48 1393.56 Q2214.38 1396.76 2208.73 1402.52 Z" fill="#000000" fill-rule="nonzero" fill-opacity="1" /><path clip-path="url(#clip620)" d="M2244.86 1374.97 Q2241.25 1374.97 2239.42 1378.54 Q2237.62 1382.08 2237.62 1389.21 Q2237.62 1396.32 2239.42 1399.88 Q2241.25 1403.42 2244.86 1403.42 Q2248.5 1403.42 2250.3 1399.88 Q2252.13 1396.32 2252.13 1389.21 Q2252.13 1382.08 2250.3 1378.54 Q2248.5 1374.97 2244.86 1374.97 M2244.86 1371.27 Q2250.67 1371.27 2253.73 1375.88 Q2256.81 1380.46 2256.81 1389.21 Q2256.81 1397.94 2253.73 1402.54 Q2250.67 1407.13 2244.86 1407.13 Q2239.05 1407.13 2235.98 1402.54 Q2232.92 1397.94 2232.92 1389.21 Q2232.92 1380.46 2235.98 1375.88 Q2239.05 1371.27 2244.86 1371.27 Z" fill="#000000" fill-rule="nonzero" fill-opacity="1" /></svg>
