<?xml version="1.0" encoding="utf-8"?>
<svg xmlns="http://www.w3.org/2000/svg" xmlns:xlink="http://www.w3.org/1999/xlink" width="600" height="400" viewBox="0 0 2400 1600">
<defs>
  <clipPath id="clip110">
    <rect x="0" y="0" width="2400" height="1600"/>
  </clipPath>
</defs>
<path clip-path="url(#clip110)" d="M0 1600 L2400 1600 L2400 0 L0 0  Z" fill="#ffffff" fill-rule="evenodd" fill-opacity="1"/>
<defs>
  <clipPath id="clip111">
    <rect x="480" y="0" width="1681" height="1600"/>
  </clipPath>
</defs>
<path clip-path="url(#clip110)" d="M193.288 1486.45 L2352.76 1486.45 L2352.76 47.2441 L193.288 47.2441  Z" fill="#ffffff" fill-rule="evenodd" fill-opacity="1"/>
<defs>
  <clipPath id="clip112">
    <rect x="193" y="47" width="2160" height="1440"/>
  </clipPath>
</defs>
<polyline clip-path="url(#clip112)" style="stroke:#000000; stroke-linecap:round; stroke-linejoin:round; stroke-width:2; stroke-opacity:0.1; fill:none" points="252.366,1486.45 252.366,47.2441 "/>
<polyline clip-path="url(#clip112)" style="stroke:#000000; stroke-linecap:round; stroke-linejoin:round; stroke-width:2; stroke-opacity:0.1; fill:none" points="762.184,1486.45 762.184,47.2441 "/>
<polyline clip-path="url(#clip112)" style="stroke:#000000; stroke-linecap:round; stroke-linejoin:round; stroke-width:2; stroke-opacity:0.1; fill:none" points="1272,1486.45 1272,47.2441 "/>
<polyline clip-path="url(#clip112)" style="stroke:#000000; stroke-linecap:round; stroke-linejoin:round; stroke-width:2; stroke-opacity:0.1; fill:none" points="1781.82,1486.45 1781.82,47.2441 "/>
<polyline clip-path="url(#clip112)" style="stroke:#000000; stroke-linecap:round; stroke-linejoin:round; stroke-width:2; stroke-opacity:0.1; fill:none" points="2291.64,1486.45 2291.64,47.2441 "/>
<polyline clip-path="url(#clip112)" style="stroke:#000000; stroke-linecap:round; stroke-linejoin:round; stroke-width:2; stroke-opacity:0.1; fill:none" points="193.288,1266.4 2352.76,1266.4 "/>
<polyline clip-path="url(#clip112)" style="stroke:#000000; stroke-linecap:round; stroke-linejoin:round; stroke-width:2; stroke-opacity:0.1; fill:none" points="193.288,994.456 2352.76,994.456 "/>
<polyline clip-path="url(#clip112)" style="stroke:#000000; stroke-linecap:round; stroke-linejoin:round; stroke-width:2; stroke-opacity:0.1; fill:none" points="193.288,722.512 2352.76,722.512 "/>
<polyline clip-path="url(#clip112)" style="stroke:#000000; stroke-linecap:round; stroke-linejoin:round; stroke-width:2; stroke-opacity:0.1; fill:none" points="193.288,450.568 2352.76,450.568 "/>
<polyline clip-path="url(#clip112)" style="stroke:#000000; stroke-linecap:round; stroke-linejoin:round; stroke-width:2; stroke-opacity:0.1; fill:none" points="193.288,178.624 2352.76,178.624 "/>
<polyline clip-path="url(#clip110)" style="stroke:#000000; stroke-linecap:round; stroke-linejoin:round; stroke-width:4; stroke-opacity:1; fill:none" points="193.288,1486.45 2352.76,1486.45 "/>
<polyline clip-path="url(#clip110)" style="stroke:#000000; stroke-linecap:round; stroke-linejoin:round; stroke-width:4; stroke-opacity:1; fill:none" points="252.366,1486.45 252.366,1467.55 "/>
<polyline clip-path="url(#clip110)" style="stroke:#000000; stroke-linecap:round; stroke-linejoin:round; stroke-width:4; stroke-opacity:1; fill:none" points="762.184,1486.45 762.184,1467.55 "/>
<polyline clip-path="url(#clip110)" style="stroke:#000000; stroke-linecap:round; stroke-linejoin:round; stroke-width:4; stroke-opacity:1; fill:none" points="1272,1486.45 1272,1467.55 "/>
<polyline clip-path="url(#clip110)" style="stroke:#000000; stroke-linecap:round; stroke-linejoin:round; stroke-width:4; stroke-opacity:1; fill:none" points="1781.82,1486.45 1781.82,1467.55 "/>
<polyline clip-path="url(#clip110)" style="stroke:#000000; stroke-linecap:round; stroke-linejoin:round; stroke-width:4; stroke-opacity:1; fill:none" points="2291.64,1486.45 2291.64,1467.55 "/>
<path clip-path="url(#clip110)" d="M252.366 1517.37 Q248.755 1517.37 246.926 1520.93 Q245.12 1524.47 245.12 1531.6 Q245.12 1538.71 246.926 1542.27 Q248.755 1545.82 252.366 1545.82 Q256 1545.82 257.805 1542.27 Q259.634 1538.71 259.634 1531.6 Q259.634 1524.47 257.805 1520.93 Q256 1517.37 252.366 1517.37 M252.366 1513.66 Q258.176 1513.66 261.231 1518.27 Q264.31 1522.85 264.31 1531.6 Q264.31 1540.33 261.231 1544.94 Q258.176 1549.52 252.366 1549.52 Q246.555 1549.52 243.477 1544.94 Q240.421 1540.33 240.421 1531.6 Q240.421 1522.85 243.477 1518.27 Q246.555 1513.66 252.366 1513.66 Z" fill="#000000" fill-rule="nonzero" fill-opacity="1" /><path clip-path="url(#clip110)" d="M725.876 1544.91 L742.196 1544.91 L742.196 1548.85 L720.251 1548.85 L720.251 1544.91 Q722.913 1542.16 727.497 1537.53 Q732.103 1532.88 733.284 1531.53 Q735.529 1529.01 736.409 1527.27 Q737.311 1525.51 737.311 1523.82 Q737.311 1521.07 735.367 1519.33 Q733.446 1517.6 730.344 1517.6 Q728.145 1517.6 725.691 1518.36 Q723.261 1519.13 720.483 1520.68 L720.483 1515.95 Q723.307 1514.82 725.761 1514.24 Q728.214 1513.66 730.251 1513.66 Q735.622 1513.66 738.816 1516.35 Q742.01 1519.03 742.01 1523.52 Q742.01 1525.65 741.2 1527.57 Q740.413 1529.47 738.307 1532.07 Q737.728 1532.74 734.626 1535.95 Q731.524 1539.15 725.876 1544.91 Z" fill="#000000" fill-rule="nonzero" fill-opacity="1" /><path clip-path="url(#clip110)" d="M752.057 1514.29 L770.413 1514.29 L770.413 1518.22 L756.339 1518.22 L756.339 1526.7 Q757.358 1526.35 758.376 1526.19 Q759.395 1526 760.413 1526 Q766.2 1526 769.58 1529.17 Q772.959 1532.34 772.959 1537.76 Q772.959 1543.34 769.487 1546.44 Q766.015 1549.52 759.696 1549.52 Q757.52 1549.52 755.251 1549.15 Q753.006 1548.78 750.598 1548.04 L750.598 1543.34 Q752.682 1544.47 754.904 1545.03 Q757.126 1545.58 759.603 1545.58 Q763.608 1545.58 765.945 1543.48 Q768.283 1541.37 768.283 1537.76 Q768.283 1534.15 765.945 1532.04 Q763.608 1529.94 759.603 1529.94 Q757.728 1529.94 755.853 1530.35 Q754.001 1530.77 752.057 1531.65 L752.057 1514.29 Z" fill="#000000" fill-rule="nonzero" fill-opacity="1" /><path clip-path="url(#clip110)" d="M792.172 1517.37 Q788.561 1517.37 786.732 1520.93 Q784.927 1524.47 784.927 1531.6 Q784.927 1538.71 786.732 1542.27 Q788.561 1545.82 792.172 1545.82 Q795.806 1545.82 797.612 1542.27 Q799.441 1538.71 799.441 1531.6 Q799.441 1524.47 797.612 1520.93 Q795.806 1517.37 792.172 1517.37 M792.172 1513.66 Q797.982 1513.66 801.038 1518.27 Q804.117 1522.85 804.117 1531.6 Q804.117 1540.33 801.038 1544.94 Q797.982 1549.52 792.172 1549.52 Q786.362 1549.52 783.283 1544.94 Q780.228 1540.33 780.228 1531.6 Q780.228 1522.85 783.283 1518.27 Q786.362 1513.66 792.172 1513.66 Z" fill="#000000" fill-rule="nonzero" fill-opacity="1" /><path clip-path="url(#clip110)" d="M1231.62 1514.29 L1249.98 1514.29 L1249.98 1518.22 L1235.9 1518.22 L1235.9 1526.7 Q1236.92 1526.35 1237.94 1526.19 Q1238.96 1526 1239.98 1526 Q1245.76 1526 1249.14 1529.17 Q1252.52 1532.34 1252.52 1537.76 Q1252.52 1543.34 1249.05 1546.44 Q1245.58 1549.52 1239.26 1549.52 Q1237.08 1549.52 1234.81 1549.15 Q1232.57 1548.78 1230.16 1548.04 L1230.16 1543.34 Q1232.25 1544.47 1234.47 1545.03 Q1236.69 1545.58 1239.17 1545.58 Q1243.17 1545.58 1245.51 1543.48 Q1247.85 1541.37 1247.85 1537.76 Q1247.85 1534.15 1245.51 1532.04 Q1243.17 1529.94 1239.17 1529.94 Q1237.29 1529.94 1235.42 1530.35 Q1233.56 1530.77 1231.62 1531.65 L1231.62 1514.29 Z" fill="#000000" fill-rule="nonzero" fill-opacity="1" /><path clip-path="url(#clip110)" d="M1271.74 1517.37 Q1268.12 1517.37 1266.3 1520.93 Q1264.49 1524.47 1264.49 1531.6 Q1264.49 1538.71 1266.3 1542.27 Q1268.12 1545.82 1271.74 1545.82 Q1275.37 1545.82 1277.18 1542.27 Q1279 1538.71 1279 1531.6 Q1279 1524.47 1277.18 1520.93 Q1275.37 1517.37 1271.74 1517.37 M1271.74 1513.66 Q1277.55 1513.66 1280.6 1518.27 Q1283.68 1522.85 1283.68 1531.6 Q1283.68 1540.33 1280.6 1544.94 Q1277.55 1549.52 1271.74 1549.52 Q1265.93 1549.52 1262.85 1544.94 Q1259.79 1540.33 1259.79 1531.6 Q1259.79 1522.85 1262.85 1518.27 Q1265.93 1513.66 1271.74 1513.66 Z" fill="#000000" fill-rule="nonzero" fill-opacity="1" /><path clip-path="url(#clip110)" d="M1301.9 1517.37 Q1298.29 1517.37 1296.46 1520.93 Q1294.65 1524.47 1294.65 1531.6 Q1294.65 1538.71 1296.46 1542.27 Q1298.29 1545.82 1301.9 1545.82 Q1305.53 1545.82 1307.34 1542.27 Q1309.17 1538.71 1309.17 1531.6 Q1309.17 1524.47 1307.34 1520.93 Q1305.53 1517.37 1301.9 1517.37 M1301.9 1513.66 Q1307.71 1513.66 1310.76 1518.27 Q1313.84 1522.85 1313.84 1531.6 Q1313.84 1540.33 1310.76 1544.94 Q1307.71 1549.52 1301.9 1549.52 Q1296.09 1549.52 1293.01 1544.94 Q1289.95 1540.33 1289.95 1531.6 Q1289.95 1522.85 1293.01 1518.27 Q1296.09 1513.66 1301.9 1513.66 Z" fill="#000000" fill-rule="nonzero" fill-opacity="1" /><path clip-path="url(#clip110)" d="M1740.1 1514.29 L1762.32 1514.29 L1762.32 1516.28 L1749.77 1548.85 L1744.89 1548.85 L1756.69 1518.22 L1740.1 1518.22 L1740.1 1514.29 Z" fill="#000000" fill-rule="nonzero" fill-opacity="1" /><path clip-path="url(#clip110)" d="M1771.48 1514.29 L1789.84 1514.29 L1789.84 1518.22 L1775.77 1518.22 L1775.77 1526.7 Q1776.79 1526.35 1777.8 1526.19 Q1778.82 1526 1779.84 1526 Q1785.63 1526 1789.01 1529.17 Q1792.39 1532.34 1792.39 1537.76 Q1792.39 1543.34 1788.92 1546.44 Q1785.44 1549.52 1779.12 1549.52 Q1776.95 1549.52 1774.68 1549.15 Q1772.43 1548.78 1770.03 1548.04 L1770.03 1543.34 Q1772.11 1544.47 1774.33 1545.03 Q1776.55 1545.58 1779.03 1545.58 Q1783.04 1545.58 1785.37 1543.48 Q1787.71 1541.37 1787.71 1537.76 Q1787.71 1534.15 1785.37 1532.04 Q1783.04 1529.94 1779.03 1529.94 Q1777.16 1529.94 1775.28 1530.35 Q1773.43 1530.77 1771.48 1531.65 L1771.48 1514.29 Z" fill="#000000" fill-rule="nonzero" fill-opacity="1" /><path clip-path="url(#clip110)" d="M1811.6 1517.37 Q1807.99 1517.37 1806.16 1520.93 Q1804.36 1524.47 1804.36 1531.6 Q1804.36 1538.71 1806.16 1542.27 Q1807.99 1545.82 1811.6 1545.82 Q1815.23 1545.82 1817.04 1542.27 Q1818.87 1538.71 1818.87 1531.6 Q1818.87 1524.47 1817.04 1520.93 Q1815.23 1517.37 1811.6 1517.37 M1811.6 1513.66 Q1817.41 1513.66 1820.47 1518.27 Q1823.54 1522.85 1823.54 1531.6 Q1823.54 1540.33 1820.47 1544.94 Q1817.41 1549.52 1811.6 1549.52 Q1805.79 1549.52 1802.71 1544.94 Q1799.66 1540.33 1799.66 1531.6 Q1799.66 1522.85 1802.71 1518.27 Q1805.79 1513.66 1811.6 1513.66 Z" fill="#000000" fill-rule="nonzero" fill-opacity="1" /><path clip-path="url(#clip110)" d="M2236.16 1544.91 L2243.8 1544.91 L2243.8 1518.55 L2235.49 1520.21 L2235.49 1515.95 L2243.76 1514.29 L2248.43 1514.29 L2248.43 1544.91 L2256.07 1544.91 L2256.07 1548.85 L2236.16 1548.85 L2236.16 1544.91 Z" fill="#000000" fill-rule="nonzero" fill-opacity="1" /><path clip-path="url(#clip110)" d="M2275.52 1517.37 Q2271.91 1517.37 2270.08 1520.93 Q2268.27 1524.47 2268.27 1531.6 Q2268.27 1538.71 2270.08 1542.27 Q2271.91 1545.82 2275.52 1545.82 Q2279.15 1545.82 2280.96 1542.27 Q2282.78 1538.71 2282.78 1531.6 Q2282.78 1524.47 2280.96 1520.93 Q2279.15 1517.37 2275.52 1517.37 M2275.52 1513.66 Q2281.33 1513.66 2284.38 1518.27 Q2287.46 1522.85 2287.46 1531.6 Q2287.46 1540.33 2284.38 1544.94 Q2281.33 1549.52 2275.52 1549.52 Q2269.71 1549.52 2266.63 1544.94 Q2263.57 1540.33 2263.57 1531.6 Q2263.57 1522.85 2266.63 1518.27 Q2269.71 1513.66 2275.52 1513.66 Z" fill="#000000" fill-rule="nonzero" fill-opacity="1" /><path clip-path="url(#clip110)" d="M2305.68 1517.37 Q2302.07 1517.37 2300.24 1520.93 Q2298.43 1524.47 2298.43 1531.6 Q2298.43 1538.71 2300.24 1542.27 Q2302.07 1545.82 2305.68 1545.82 Q2309.31 1545.82 2311.12 1542.27 Q2312.95 1538.71 2312.95 1531.6 Q2312.95 1524.47 2311.12 1520.93 Q2309.31 1517.37 2305.68 1517.37 M2305.68 1513.66 Q2311.49 1513.66 2314.54 1518.27 Q2317.62 1522.85 2317.62 1531.6 Q2317.62 1540.33 2314.54 1544.94 Q2311.49 1549.52 2305.68 1549.52 Q2299.87 1549.52 2296.79 1544.94 Q2293.73 1540.33 2293.73 1531.6 Q2293.73 1522.85 2296.79 1518.27 Q2299.87 1513.66 2305.68 1513.66 Z" fill="#000000" fill-rule="nonzero" fill-opacity="1" /><path clip-path="url(#clip110)" d="M2335.84 1517.37 Q2332.23 1517.37 2330.4 1520.93 Q2328.59 1524.47 2328.59 1531.6 Q2328.59 1538.71 2330.4 1542.27 Q2332.23 1545.82 2335.84 1545.82 Q2339.47 1545.82 2341.28 1542.27 Q2343.11 1538.71 2343.11 1531.6 Q2343.11 1524.47 2341.28 1520.93 Q2339.47 1517.37 2335.84 1517.37 M2335.84 1513.66 Q2341.65 1513.66 2344.71 1518.27 Q2347.78 1522.85 2347.78 1531.6 Q2347.78 1540.33 2344.71 1544.94 Q2341.65 1549.52 2335.84 1549.52 Q2330.03 1549.52 2326.95 1544.94 Q2323.9 1540.33 2323.9 1531.6 Q2323.9 1522.85 2326.95 1518.27 Q2330.03 1513.66 2335.84 1513.66 Z" fill="#000000" fill-rule="nonzero" fill-opacity="1" /><polyline clip-path="url(#clip110)" style="stroke:#000000; stroke-linecap:round; stroke-linejoin:round; stroke-width:4; stroke-opacity:1; fill:none" points="193.288,1486.45 193.288,47.2441 "/>
<polyline clip-path="url(#clip110)" style="stroke:#000000; stroke-linecap:round; stroke-linejoin:round; stroke-width:4; stroke-opacity:1; fill:none" points="193.288,1266.4 212.185,1266.4 "/>
<polyline clip-path="url(#clip110)" style="stroke:#000000; stroke-linecap:round; stroke-linejoin:round; stroke-width:4; stroke-opacity:1; fill:none" points="193.288,994.456 212.185,994.456 "/>
<polyline clip-path="url(#clip110)" style="stroke:#000000; stroke-linecap:round; stroke-linejoin:round; stroke-width:4; stroke-opacity:1; fill:none" points="193.288,722.512 212.185,722.512 "/>
<polyline clip-path="url(#clip110)" style="stroke:#000000; stroke-linecap:round; stroke-linejoin:round; stroke-width:4; stroke-opacity:1; fill:none" points="193.288,450.568 212.185,450.568 "/>
<polyline clip-path="url(#clip110)" style="stroke:#000000; stroke-linecap:round; stroke-linejoin:round; stroke-width:4; stroke-opacity:1; fill:none" points="193.288,178.624 212.185,178.624 "/>
<path clip-path="url(#clip110)" d="M50.9921 1266.85 L80.6679 1266.85 L80.6679 1270.79 L50.9921 1270.79 L50.9921 1266.85 Z" fill="#000000" fill-rule="nonzero" fill-opacity="1" /><path clip-path="url(#clip110)" d="M100.76 1252.2 Q97.1493 1252.2 95.3206 1255.76 Q93.515 1259.3 93.515 1266.43 Q93.515 1273.54 95.3206 1277.11 Q97.1493 1280.65 100.76 1280.65 Q104.395 1280.65 106.2 1277.11 Q108.029 1273.54 108.029 1266.43 Q108.029 1259.3 106.2 1255.76 Q104.395 1252.2 100.76 1252.2 M100.76 1248.49 Q106.571 1248.49 109.626 1253.1 Q112.705 1257.68 112.705 1266.43 Q112.705 1275.16 109.626 1279.77 Q106.571 1284.35 100.76 1284.35 Q94.9502 1284.35 91.8715 1279.77 Q88.816 1275.16 88.816 1266.43 Q88.816 1257.68 91.8715 1253.1 Q94.9502 1248.49 100.76 1248.49 Z" fill="#000000" fill-rule="nonzero" fill-opacity="1" /><path clip-path="url(#clip110)" d="M120.922 1277.8 L125.807 1277.8 L125.807 1283.68 L120.922 1283.68 L120.922 1277.8 Z" fill="#000000" fill-rule="nonzero" fill-opacity="1" /><path clip-path="url(#clip110)" d="M150.158 1265.05 Q153.515 1265.76 155.39 1268.03 Q157.288 1270.3 157.288 1273.63 Q157.288 1278.75 153.769 1281.55 Q150.251 1284.35 143.769 1284.35 Q141.593 1284.35 139.279 1283.91 Q136.987 1283.49 134.533 1282.64 L134.533 1278.12 Q136.478 1279.26 138.793 1279.84 Q141.107 1280.42 143.631 1280.42 Q148.029 1280.42 150.32 1278.68 Q152.635 1276.94 152.635 1273.63 Q152.635 1270.58 150.482 1268.86 Q148.353 1267.13 144.533 1267.13 L140.506 1267.13 L140.506 1263.29 L144.718 1263.29 Q148.168 1263.29 149.996 1261.92 Q151.825 1260.53 151.825 1257.94 Q151.825 1255.28 149.927 1253.86 Q148.052 1252.43 144.533 1252.43 Q142.612 1252.43 140.413 1252.85 Q138.214 1253.26 135.575 1254.14 L135.575 1249.98 Q138.237 1249.24 140.552 1248.86 Q142.89 1248.49 144.95 1248.49 Q150.274 1248.49 153.376 1250.92 Q156.478 1253.33 156.478 1257.45 Q156.478 1260.32 154.834 1262.31 Q153.191 1264.28 150.158 1265.05 Z" fill="#000000" fill-rule="nonzero" fill-opacity="1" /><path clip-path="url(#clip110)" d="M100.112 980.254 Q96.5011 980.254 94.6724 983.819 Q92.8669 987.361 92.8669 994.49 Q92.8669 1001.6 94.6724 1005.16 Q96.5011 1008.7 100.112 1008.7 Q103.746 1008.7 105.552 1005.16 Q107.381 1001.6 107.381 994.49 Q107.381 987.361 105.552 983.819 Q103.746 980.254 100.112 980.254 M100.112 976.551 Q105.922 976.551 108.978 981.157 Q112.057 985.74 112.057 994.49 Q112.057 1003.22 108.978 1007.82 Q105.922 1012.41 100.112 1012.41 Q94.3021 1012.41 91.2234 1007.82 Q88.1679 1003.22 88.1679 994.49 Q88.1679 985.74 91.2234 981.157 Q94.3021 976.551 100.112 976.551 Z" fill="#000000" fill-rule="nonzero" fill-opacity="1" /><path clip-path="url(#clip110)" d="M120.274 1005.86 L125.158 1005.86 L125.158 1011.74 L120.274 1011.74 L120.274 1005.86 Z" fill="#000000" fill-rule="nonzero" fill-opacity="1" /><path clip-path="url(#clip110)" d="M145.343 980.254 Q141.732 980.254 139.904 983.819 Q138.098 987.361 138.098 994.49 Q138.098 1001.6 139.904 1005.16 Q141.732 1008.7 145.343 1008.7 Q148.978 1008.7 150.783 1005.16 Q152.612 1001.6 152.612 994.49 Q152.612 987.361 150.783 983.819 Q148.978 980.254 145.343 980.254 M145.343 976.551 Q151.154 976.551 154.209 981.157 Q157.288 985.74 157.288 994.49 Q157.288 1003.22 154.209 1007.82 Q151.154 1012.41 145.343 1012.41 Q139.533 1012.41 136.455 1007.82 Q133.399 1003.22 133.399 994.49 Q133.399 985.74 136.455 981.157 Q139.533 976.551 145.343 976.551 Z" fill="#000000" fill-rule="nonzero" fill-opacity="1" /><path clip-path="url(#clip110)" d="M100.76 708.31 Q97.1493 708.31 95.3206 711.875 Q93.515 715.417 93.515 722.546 Q93.515 729.653 95.3206 733.218 Q97.1493 736.759 100.76 736.759 Q104.395 736.759 106.2 733.218 Q108.029 729.653 108.029 722.546 Q108.029 715.417 106.2 711.875 Q104.395 708.31 100.76 708.31 M100.76 704.607 Q106.571 704.607 109.626 709.213 Q112.705 713.797 112.705 722.546 Q112.705 731.273 109.626 735.88 Q106.571 740.463 100.76 740.463 Q94.9502 740.463 91.8715 735.88 Q88.816 731.273 88.816 722.546 Q88.816 713.797 91.8715 709.213 Q94.9502 704.607 100.76 704.607 Z" fill="#000000" fill-rule="nonzero" fill-opacity="1" /><path clip-path="url(#clip110)" d="M120.922 733.912 L125.807 733.912 L125.807 739.792 L120.922 739.792 L120.922 733.912 Z" fill="#000000" fill-rule="nonzero" fill-opacity="1" /><path clip-path="url(#clip110)" d="M150.158 721.158 Q153.515 721.875 155.39 724.144 Q157.288 726.412 157.288 729.746 Q157.288 734.861 153.769 737.662 Q150.251 740.463 143.769 740.463 Q141.593 740.463 139.279 740.023 Q136.987 739.607 134.533 738.75 L134.533 734.236 Q136.478 735.371 138.793 735.949 Q141.107 736.528 143.631 736.528 Q148.029 736.528 150.32 734.792 Q152.635 733.056 152.635 729.746 Q152.635 726.69 150.482 724.977 Q148.353 723.241 144.533 723.241 L140.506 723.241 L140.506 719.398 L144.718 719.398 Q148.168 719.398 149.996 718.033 Q151.825 716.644 151.825 714.051 Q151.825 711.389 149.927 709.977 Q148.052 708.542 144.533 708.542 Q142.612 708.542 140.413 708.959 Q138.214 709.375 135.575 710.255 L135.575 706.088 Q138.237 705.348 140.552 704.977 Q142.89 704.607 144.95 704.607 Q150.274 704.607 153.376 707.037 Q156.478 709.445 156.478 713.565 Q156.478 716.435 154.834 718.426 Q153.191 720.394 150.158 721.158 Z" fill="#000000" fill-rule="nonzero" fill-opacity="1" /><path clip-path="url(#clip110)" d="M99.9502 436.367 Q96.3391 436.367 94.5104 439.931 Q92.7049 443.473 92.7049 450.603 Q92.7049 457.709 94.5104 461.274 Q96.3391 464.816 99.9502 464.816 Q103.584 464.816 105.39 461.274 Q107.219 457.709 107.219 450.603 Q107.219 443.473 105.39 439.931 Q103.584 436.367 99.9502 436.367 M99.9502 432.663 Q105.76 432.663 108.816 437.269 Q111.895 441.853 111.895 450.603 Q111.895 459.33 108.816 463.936 Q105.76 468.519 99.9502 468.519 Q94.14 468.519 91.0614 463.936 Q88.0058 459.33 88.0058 450.603 Q88.0058 441.853 91.0614 437.269 Q94.14 432.663 99.9502 432.663 Z" fill="#000000" fill-rule="nonzero" fill-opacity="1" /><path clip-path="url(#clip110)" d="M120.112 461.968 L124.996 461.968 L124.996 467.848 L120.112 467.848 L120.112 461.968 Z" fill="#000000" fill-rule="nonzero" fill-opacity="1" /><path clip-path="url(#clip110)" d="M145.76 448.705 Q142.612 448.705 140.76 450.857 Q138.931 453.01 138.931 456.76 Q138.931 460.487 140.76 462.663 Q142.612 464.816 145.76 464.816 Q148.908 464.816 150.737 462.663 Q152.589 460.487 152.589 456.76 Q152.589 453.01 150.737 450.857 Q148.908 448.705 145.76 448.705 M155.042 434.052 L155.042 438.311 Q153.283 437.478 151.478 437.038 Q149.695 436.598 147.936 436.598 Q143.306 436.598 140.853 439.723 Q138.422 442.848 138.075 449.168 Q139.441 447.154 141.501 446.089 Q143.561 445.001 146.038 445.001 Q151.246 445.001 154.255 448.172 Q157.288 451.32 157.288 456.76 Q157.288 462.084 154.14 465.302 Q150.992 468.519 145.76 468.519 Q139.765 468.519 136.594 463.936 Q133.422 459.33 133.422 450.603 Q133.422 442.408 137.311 437.547 Q141.2 432.663 147.751 432.663 Q149.51 432.663 151.293 433.01 Q153.098 433.357 155.042 434.052 Z" fill="#000000" fill-rule="nonzero" fill-opacity="1" /><path clip-path="url(#clip110)" d="M100.297 164.423 Q96.6863 164.423 94.8576 167.988 Q93.0521 171.529 93.0521 178.659 Q93.0521 185.765 94.8576 189.33 Q96.6863 192.872 100.297 192.872 Q103.932 192.872 105.737 189.33 Q107.566 185.765 107.566 178.659 Q107.566 171.529 105.737 167.988 Q103.932 164.423 100.297 164.423 M100.297 160.719 Q106.108 160.719 109.163 165.326 Q112.242 169.909 112.242 178.659 Q112.242 187.386 109.163 191.992 Q106.108 196.575 100.297 196.575 Q94.4873 196.575 91.4086 191.992 Q88.353 187.386 88.353 178.659 Q88.353 169.909 91.4086 165.326 Q94.4873 160.719 100.297 160.719 Z" fill="#000000" fill-rule="nonzero" fill-opacity="1" /><path clip-path="url(#clip110)" d="M120.459 190.025 L125.344 190.025 L125.344 195.904 L120.459 195.904 L120.459 190.025 Z" fill="#000000" fill-rule="nonzero" fill-opacity="1" /><path clip-path="url(#clip110)" d="M135.668 195.187 L135.668 190.927 Q137.427 191.761 139.232 192.201 Q141.038 192.64 142.774 192.64 Q147.404 192.64 149.834 189.538 Q152.288 186.414 152.635 180.071 Q151.293 182.062 149.232 183.126 Q147.172 184.191 144.672 184.191 Q139.487 184.191 136.455 181.066 Q133.445 177.918 133.445 172.478 Q133.445 167.154 136.594 163.937 Q139.742 160.719 144.973 160.719 Q150.968 160.719 154.117 165.326 Q157.288 169.909 157.288 178.659 Q157.288 186.83 153.399 191.714 Q149.533 196.575 142.982 196.575 Q141.223 196.575 139.418 196.228 Q137.612 195.881 135.668 195.187 M144.973 180.534 Q148.121 180.534 149.95 178.381 Q151.802 176.228 151.802 172.478 Q151.802 168.752 149.95 166.599 Q148.121 164.423 144.973 164.423 Q141.825 164.423 139.973 166.599 Q138.144 168.752 138.144 172.478 Q138.144 176.228 139.973 178.381 Q141.825 180.534 144.973 180.534 Z" fill="#000000" fill-rule="nonzero" fill-opacity="1" /><polyline clip-path="url(#clip112)" style="stroke:#009af9; stroke-linecap:round; stroke-linejoin:round; stroke-width:4; stroke-opacity:0.4; fill:none" points="254.405,729.897 256.444,615.736 258.483,1077.21 260.523,809.486 262.562,1184.85 264.601,1437.31 266.641,1225.18 268.68,1329.13 270.719,763.087 272.758,676.354 274.798,1298.11 276.837,633.941 278.876,794.934 280.915,1147.01 282.955,971.201 284.994,929.357 287.033,1432.72 289.073,993.72 291.112,1232.55 293.151,1287.03 295.19,1322.67 297.23,1211.84 299.269,704.319 301.308,653.437 303.347,671.42 305.387,984.471 307.426,813.999 309.465,656.662 311.505,742.817 313.544,722.753 315.583,1003.63 317.622,1124.76 319.662,719.646 321.701,1034.54 323.74,804.346 325.779,757.703 327.819,1268.18 329.858,602.544 331.897,1365.8 333.937,1181.59 335.976,1270.97 338.015,1256.61 340.054,637.645 342.094,1268.94 344.133,972.25 346.172,1313.63 348.211,982.917 350.251,813.148 352.29,738.475 354.329,687.794 356.369,1395.91 358.408,1256.69 360.447,972.038 362.486,1053.97 364.526,742.206 366.565,1252.12 368.604,752.035 370.643,953.23 372.683,1049.12 374.722,585.791 376.761,1374.3 378.801,1433.16 380.84,1224.53 382.879,1242.24 384.918,964.451 386.958,719.281 388.997,1388.77 391.036,1293.51 393.075,1111.97 395.115,1338.81 397.154,636.948 399.193,1073.94 401.233,1180.26 403.272,1237.61 405.311,1427.55 407.35,861.825 409.39,1259.51 411.429,1044.64 413.468,927.164 415.507,1218 417.547,747.827 419.586,983.079 421.625,1440.06 423.665,1016.61 425.704,1185.95 427.743,816.56 429.782,1377.36 431.822,913.873 433.861,690.294 435.9,609.762 437.939,1194.28 439.979,1198.11 442.018,1323.34 444.057,562.563 446.097,643.378 448.136,551.968 450.175,845.766 452.214,964.122 454.254,894.768 456.293,1154 458.332,1168.55 460.371,893.561 462.411,881.181 464.45,1399.86 466.489,762.154 468.529,811.494 470.568,1308.78 472.607,839.854 474.646,543.814 476.686,1198.11 478.725,1389.54 480.764,549.031 482.803,862.888 484.843,818.009 486.882,551.369 488.921,1049.09 490.961,707.996 493,548.414 495.039,661.587 497.078,952.407 499.118,776.628 501.157,1044.89 503.196,552.094 505.235,1051.61 507.275,862.291 509.314,679.144 511.353,781.696 513.393,1352.21 515.432,1214.9 517.471,927.227 519.51,942.966 521.55,611.56 523.589,1257.35 525.628,1236.41 527.667,1360.41 529.707,596.969 531.746,792.851 533.785,1217.09 535.825,1381.41 537.864,573.82 539.903,1299.85 541.942,1404.05 543.982,580.358 546.021,1000.51 548.06,823.66 550.099,643.013 552.139,673.631 554.178,1007.83 556.217,972.873 558.257,618.628 560.296,945.408 562.335,1273.58 564.374,824.718 566.414,1093.73 568.453,728.386 570.492,1264.04 572.532,1311.06 574.571,1094.45 576.61,826.232 578.649,1109.86 580.689,1213.89 582.728,1114.57 584.767,555.114 586.806,770.71 588.846,894.075 590.885,1279.91 592.924,941.058 594.964,1071.12 597.003,1349.42 599.042,637.083 601.081,1372.64 603.121,902.835 605.16,1423.78 607.199,1242.32 609.238,830.717 611.278,1066.38 613.317,1294.42 615.356,987.858 617.396,712.469 619.435,944.165 621.474,756.377 623.513,1227.7 625.553,570.698 627.592,1115.67 629.631,782.149 631.67,1030.82 633.71,813.635 635.749,810.596 637.788,850.012 639.828,1405.13 641.867,1229.15 643.906,730.369 645.945,902.793 647.985,1432.55 650.024,682.47 652.063,1430.5 654.102,943.595 656.142,862.207 658.181,1106.34 660.22,802.097 662.26,719.015 664.299,1308.15 666.338,849.716 668.377,903.545 670.417,770.452 672.456,906.255 674.495,898.8 676.534,801.513 678.574,789.041 680.613,1318.29 682.652,1167.29 684.692,969.092 686.731,1425.9 688.77,631.597 690.809,879.921 692.849,1197.8 694.888,1414.25 696.927,935.682 698.966,841.916 701.006,585.984 703.045,883.879 705.084,1250.56 707.124,818.106 709.163,1445.72 711.202,606.666 713.241,903.669 715.281,556.544 717.32,627.69 719.359,1148.71 721.398,1025.48 723.438,757.691 725.477,762.507 727.516,1433.7 729.556,1284.34 731.595,1329.67 733.634,603.856 735.673,1068.47 737.713,1249.33 739.752,637.264 741.791,1331.28 743.83,1338.98 745.87,1268.49 747.909,1352.57 749.948,1169.93 751.988,1436.78 754.027,793.073 756.066,647.166 758.105,1154.03 760.145,1091.81 762.184,1322.84 764.223,599.881 766.262,961.921 768.302,832.345 770.341,1081.07 772.38,621.858 774.42,1401.98 776.459,942.31 778.498,1236.69 780.537,1217.2 782.577,1044.99 784.616,1006.38 786.655,1419.89 788.694,1296.55 790.734,601.742 792.773,646.908 794.812,793.536 796.852,684.744 798.891,1160.58 800.93,999.226 802.969,814.836 805.009,913.374 807.048,1215.5 809.087,680.818 811.126,1093.71 813.166,1054.17 815.205,1045.48 817.244,682.895 819.284,1438.8 821.323,1177.85 823.362,1138.19 825.401,1381.84 827.441,943.428 829.48,1257.97 831.519,1162.39 833.558,681.078 835.598,576.967 837.637,861.821 839.676,1131.12 841.716,1199.15 843.755,828.436 845.794,687.207 847.833,1073.3 849.873,1042.06 851.912,1410.92 853.951,590.217 855.99,1315.35 858.03,693.578 860.069,994.742 862.108,894.904 864.148,965.985 866.187,708.705 868.226,1345.49 870.265,977.11 872.305,1360.22 874.344,1211.59 876.383,712.332 878.422,1146.58 880.462,550.562 882.501,715.84 884.54,1101.63 886.58,1383.95 888.619,637.516 890.658,1379.01 892.697,562.112 894.737,704.805 896.776,1416.89 898.815,551.837 900.855,1076.39 902.894,1082.92 904.933,892.428 906.972,595.075 909.012,1020.63 911.051,853.941 913.09,1111.35 915.129,708.193 917.169,998.761 919.208,1041.26 921.247,1272.7 923.287,1289.7 925.326,1199.89 927.365,921.285 929.404,732.64 931.444,752.328 933.483,1252.66 935.522,1122.13 937.561,704.084 939.601,1134.26 941.64,1186.27 943.679,1153.75 945.719,1370.97 947.758,1241.31 949.797,1215.54 951.836,1287.7 953.876,1374.91 955.915,741.751 957.954,797.663 959.993,720.583 962.033,1235.14 964.072,1116.99 966.111,1048.84 968.151,1414.48 970.19,1210.95 972.229,744.306 974.268,1003.41 976.308,1395.51 978.347,673.121 980.386,854.01 982.425,1252.68 984.465,624.357 986.504,943.201 988.543,1323.81 990.583,574.326 992.622,1353.1 994.661,959.236 996.7,1030.44 998.74,628.52 1000.78,1068.24 1002.82,571.291 1004.86,795.542 1006.9,955.368 1008.94,776.455 1010.98,1161.97 1013.01,817.494 1015.05,1032.27 1017.09,1032.67 1019.13,654.878 1021.17,1059.79 1023.21,899.733 1025.25,688.143 1027.29,603.941 1029.33,708.836 1031.37,971.098 1033.41,890.295 1035.45,612.606 1037.49,595.549 1039.53,1028.11 1041.56,599.702 1043.6,1356.92 1045.64,1347.21 1047.68,1055.5 1049.72,1183.52 1051.76,1205.36 1053.8,1140.57 1055.84,796.909 1057.88,773.109 1059.92,716.765 1061.96,638 1064,1395.26 1066.04,1395.96 1068.07,882.381 1070.11,1096.79 1072.15,593.087 1074.19,780.954 1076.23,1340.58 1078.27,1331.83 1080.31,954.499 1082.35,1224.32 1084.39,1020.35 1086.43,772.664 1088.47,854.007 1090.51,907.981 1092.55,857.559 1094.59,677.408 1096.62,777.312 1098.66,1063.44 1100.7,722.332 1102.74,1317.82 1104.78,1437.84 1106.82,806.856 1108.86,1230.95 1110.9,1118.92 1112.94,989.954 1114.98,984.876 1117.02,1107.11 1119.06,1361.05 1121.1,1369.02 1123.14,903.939 1125.17,896.609 1127.21,760.306 1129.25,565.985 1131.29,907.375 1133.33,1263.13 1135.37,567.411 1137.41,574.799 1139.45,861.453 1141.49,773.395 1143.53,1353.56 1145.57,1308.37 1147.61,1422.06 1149.65,1416.95 1151.69,1130.3 1153.72,949.168 1155.76,1405.27 1157.8,992.524 1159.84,1342.22 1161.88,893.59 1163.92,1202.01 1165.96,951.059 1168,1075.77 1170.04,1229.44 1172.08,1039.82 1174.12,906.501 1176.16,1195 1178.2,691.02 1180.23,1248.79 1182.27,1206.64 1184.31,824.959 1186.35,975.708 1188.39,1362.39 1190.43,551.082 1192.47,819.982 1194.51,550.894 1196.55,1033.7 1198.59,1222.26 1200.63,743.644 1202.67,1324.84 1204.71,639.088 1206.75,1345.97 1208.78,1242.22 1210.82,959.83 1212.86,552.717 1214.9,1423.66 1216.94,1141.57 1218.98,1272.1 1221.02,790.46 1223.06,1193.24 1225.1,669.75 1227.14,961.417 1229.18,974.535 1231.22,774.624 1233.26,1389.21 1235.3,1405.06 1237.33,1066.65 1239.37,655.562 1241.41,906.469 1243.45,1002.91 1245.49,1162.91 1247.53,871.422 1249.57,1060.88 1251.61,921.226 1253.65,629.754 1255.69,915.558 1257.73,646.972 1259.77,1002.96 1261.81,711.808 1263.85,1148.87 1265.88,1050.84 1267.92,1201.03 1269.96,659.882 1272,567.767 1274.04,985.635 1276.08,1108.7 1278.12,815.782 1280.16,777.601 1282.2,951.888 1284.24,639.694 1286.28,991.866 1288.32,622.719 1290.36,687.45 1292.39,618.607 1294.43,657.741 1296.47,1302.43 1298.51,1301.3 1300.55,1046.83 1302.59,1264.08 1304.63,1338.24 1306.67,589.203 1308.71,879.308 1310.75,932.042 1312.79,586.519 1314.83,1306.54 1316.87,564.494 1318.91,569.438 1320.94,599.509 1322.98,789.739 1325.02,731.484 1327.06,1223.93 1329.1,1140.11 1331.14,766.147 1333.18,1171.78 1335.22,1182.51 1337.26,582.538 1339.3,1006.39 1341.34,1349.08 1343.38,1429.07 1345.42,1193.16 1347.46,1189.63 1349.49,1367.19 1351.53,1352.98 1353.57,961.414 1355.61,1151.95 1357.65,1236.52 1359.69,812.542 1361.73,1315.62 1363.77,692.218 1365.81,939.65 1367.85,1137.31 1369.89,1402.79 1371.93,1207.24 1373.97,1052.64 1376.01,828.987 1378.04,720.508 1380.08,573.099 1382.12,1400.93 1384.16,1385.77 1386.2,1432.94 1388.24,1009.59 1390.28,1436.65 1392.32,1233.55 1394.36,1000.87 1396.4,745.752 1398.44,1082.13 1400.48,545.522 1402.52,1143.06 1404.56,800.601 1406.59,1056.14 1408.63,1272.63 1410.67,796.402 1412.71,714.708 1414.75,985.891 1416.79,568.681 1418.83,642.776 1420.87,779.477 1422.91,859.444 1424.95,1153.19 1426.99,1366.8 1429.03,616.688 1431.07,1392.7 1433.1,729.11 1435.14,1136.81 1437.18,985.34 1439.22,1046.7 1441.26,1200.23 1443.3,1015.87 1445.34,895.018 1447.38,1319.23 1449.42,840.171 1451.46,729.764 1453.5,1138.47 1455.54,1440.14 1457.58,1247.09 1459.62,1162.44 1461.65,1056.53 1463.69,1188.88 1465.73,697.049 1467.77,1288.82 1469.81,1425.91 1471.85,1257.64 1473.89,1401.2 1475.93,1148.76 1477.97,1071.95 1480.01,699.982 1482.05,897.909 1484.09,908.899 1486.13,1312.08 1488.17,824.482 1490.2,1058.93 1492.24,899.284 1494.28,892.179 1496.32,1393.43 1498.36,1188.67 1500.4,1058.54 1502.44,1345.4 1504.48,1210.98 1506.52,819.224 1508.56,1196.95 1510.6,967.562 1512.64,798.818 1514.68,943.863 1516.72,918.895 1518.75,1116.84 1520.79,1266.13 1522.83,1041.21 1524.87,1082.05 1526.91,734.328 1528.95,1035.35 1530.99,1016.77 1533.03,651.911 1535.07,1059.75 1537.11,993.224 1539.15,823.056 1541.19,981.482 1543.23,828.441 1545.26,981.716 1547.3,1246.03 1549.34,668.621 1551.38,1123.91 1553.42,1224.38 1555.46,580.185 1557.5,642.694 1559.54,677.125 1561.58,651.382 1563.62,643.178 1565.66,954.64 1567.7,567.327 1569.74,1301.69 1571.78,1047.91 1573.81,776.197 1575.85,1185.7 1577.89,811.002 1579.93,1206.85 1581.97,1280.55 1584.01,1386.49 1586.05,1353.74 1588.09,843.032 1590.13,1007.69 1592.17,1231.33 1594.21,1239.02 1596.25,1442.74 1598.29,1247.29 1600.33,1292.51 1602.36,1110.7 1604.4,1053.16 1606.44,1012.08 1608.48,1363.93 1610.52,1060.93 1612.56,1133.66 1614.6,1116.13 1616.64,626.312 1618.68,1015.21 1620.72,1370.83 1622.76,1398 1624.8,662.033 1626.84,776.466 1628.88,1387.44 1630.91,1393.53 1632.95,982.249 1634.99,616.999 1637.03,572.619 1639.07,1022.22 1641.11,1009.82 1643.15,789.238 1645.19,680.411 1647.23,924.097 1649.27,1283.47 1651.31,1274.07 1653.35,943.807 1655.39,556.091 1657.42,1286.76 1659.46,811.163 1661.5,975.081 1663.54,573.174 1665.58,765.867 1667.62,558.385 1669.66,1088.58 1671.7,896.398 1673.74,1362.09 1675.78,1231.49 1677.82,1431.25 1679.86,1071.9 1681.9,1081.33 1683.94,589.877 1685.97,1345.99 1688.01,1283.58 1690.05,637.597 1692.09,797.161 1694.13,1279.94 1696.17,691.797 1698.21,764.289 1700.25,992.791 1702.29,1048.51 1704.33,921.916 1706.37,882.304 1708.41,1214.08 1710.45,1139.04 1712.49,1184.42 1714.52,595.886 1716.56,1175.96 1718.6,891.809 1720.64,823.885 1722.68,579.11 1724.72,1047.04 1726.76,1238.28 1728.8,805.73 1730.84,1127.5 1732.88,1235.8 1734.92,1022.95 1736.96,690.266 1739,1221.03 1741.04,899.667 1743.07,787.946 1745.11,686.755 1747.15,1016.51 1749.19,772.014 1751.23,1053.02 1753.27,1433.37 1755.31,1403.3 1757.35,914.32 1759.39,978.995 1761.43,1191.28 1763.47,967.846 1765.51,1062.34 1767.55,756.928 1769.58,771.262 1771.62,781.828 1773.66,887.485 1775.7,1272.59 1777.74,1138.54 1779.78,1048.18 1781.82,1068.43 1783.86,884.866 1785.9,1286.63 1787.94,1279.02 1789.98,1335.26 1792.02,974.212 1794.06,1023.35 1796.1,717.817 1798.13,1111.25 1800.17,1328.34 1802.21,1373.41 1804.25,1146.24 1806.29,736.451 1808.33,745.555 1810.37,757.821 1812.41,723.889 1814.45,911.178 1816.49,1312.6 1818.53,1050.75 1820.57,1256.54 1822.61,1070.9 1824.65,1333.72 1826.68,1187.63 1828.72,1390.17 1830.76,1243.12 1832.8,868.823 1834.84,1231.78 1836.88,1031.56 1838.92,778.913 1840.96,754.417 1843,619.892 1845.04,780.974 1847.08,1053.88 1849.12,547.268 1851.16,604.964 1853.2,577.943 1855.23,1060.52 1857.27,1030.29 1859.31,1288.54 1861.35,587.307 1863.39,678.674 1865.43,761.64 1867.47,1327.57 1869.51,745.611 1871.55,1325.57 1873.59,1051.83 1875.63,1432.2 1877.67,603.666 1879.71,1357.73 1881.74,827.418 1883.78,591.155 1885.82,619.73 1887.86,1243.01 1889.9,610.178 1891.94,1432.05 1893.98,1170.27 1896.02,1436.02 1898.06,778.23 1900.1,852.867 1902.14,1357.26 1904.18,1005.58 1906.22,1221.78 1908.26,992.099 1910.29,1112.38 1912.33,1004.97 1914.37,956.516 1916.41,1357.3 1918.45,1311.06 1920.49,621.773 1922.53,1068.23 1924.57,874.586 1926.61,1327.38 1928.65,888.371 1930.69,1281.17 1932.73,609.754 1934.77,649.195 1936.81,542.331 1938.84,1160.38 1940.88,580.444 1942.92,591.896 1944.96,853.907 1947,766.47 1949.04,1165.82 1951.08,1317.02 1953.12,1131.54 1955.16,782.768 1957.2,1209.74 1959.24,1260.64 1961.28,668.313 1963.32,547.028 1965.36,868.654 1967.39,1177.89 1969.43,674.894 1971.47,1018.04 1973.51,714.806 1975.55,724.901 1977.59,903.49 1979.63,757.888 1981.67,933.076 1983.71,1133.02 1985.75,1031.71 1987.79,1320.83 1989.83,1410.92 1991.87,961.482 1993.9,1023.36 1995.94,1214.88 1997.98,740.967 2000.02,546.21 2002.06,778.13 2004.1,1127.54 2006.14,673.374 2008.18,1358.75 2010.22,743.084 2012.26,588.487 2014.3,586.06 2016.34,635.863 2018.38,1081.41 2020.42,841.038 2022.45,823.407 2024.49,1088.44 2026.53,553.376 2028.57,973.341 2030.61,1027.95 2032.65,1429.69 2034.69,1116.53 2036.73,764.204 2038.77,968.382 2040.81,1440.97 2042.85,706.588 2044.89,722.112 2046.93,744.535 2048.97,1379.24 2051,647.075 2053.04,1135.01 2055.08,1360.43 2057.12,1252.01 2059.16,877.903 2061.2,1398.88 2063.24,1394.97 2065.28,858.73 2067.32,1409.15 2069.36,1049.77 2071.4,925.474 2073.44,876.286 2075.48,807.786 2077.52,631.372 2079.55,709.83 2081.59,1336.5 2083.63,810.116 2085.67,1379.09 2087.71,558.446 2089.75,695.107 2091.79,1322.42 2093.83,1433.78 2095.87,721.989 2097.91,954.695 2099.95,1171.96 2101.99,1020.56 2104.03,1180.54 2106.07,1009.93 2108.1,876.026 2110.14,748.154 2112.18,813.788 2114.22,1205.11 2116.26,948.698 2118.3,1025.95 2120.34,770.839 2122.38,1216.25 2124.42,656.919 2126.46,782.137 2128.5,907.696 2130.54,930.31 2132.58,1371.09 2134.61,1054.88 2136.65,773.408 2138.69,1421.07 2140.73,898.132 2142.77,1195.33 2144.81,923.292 2146.85,674.518 2148.89,1128.16 2150.93,679.41 2152.97,857.319 2155.01,1278.13 2157.05,748.906 2159.09,1062.6 2161.13,628.618 2163.16,1396.89 2165.2,1106.78 2167.24,812.153 2169.28,1349.27 2171.32,717.238 2173.36,1028.58 2175.4,1018.35 2177.44,1178.55 2179.48,634.006 2181.52,654.583 2183.56,544.706 2185.6,1066.83 2187.64,1401.82 2189.68,822.181 2191.71,1249.02 2193.75,662.145 2195.79,1370.66 2197.83,1227.64 2199.87,612.633 2201.91,659.333 2203.95,1221.51 2205.99,926.31 2208.03,924.18 2210.07,1282.2 2212.11,1260.72 2214.15,680.76 2216.19,678.122 2218.23,554.02 2220.26,796.246 2222.3,682.796 2224.34,548.454 2226.38,1303.89 2228.42,623.322 2230.46,655.681 2232.5,616.851 2234.54,1319.48 2236.58,1231.11 2238.62,559.359 2240.66,1217.12 2242.7,946.194 2244.74,1354.63 2246.77,957.498 2248.81,1245.7 2250.85,998.916 2252.89,1268.74 2254.93,556.675 2256.97,1376.2 2259.01,907.175 2261.05,1096.09 2263.09,785.715 2265.13,1327.92 2267.17,547.955 2269.21,713.564 2271.25,1379.94 2273.29,615.614 2275.32,550.533 2277.36,622.812 2279.4,1010.79 2281.44,955.57 2283.48,1428.04 2285.52,1206.73 2287.56,880.561 2289.6,1368.06 2291.64,857.037 "/>
<polyline clip-path="url(#clip112)" style="stroke:#e26f46; stroke-linecap:round; stroke-linejoin:round; stroke-width:4; stroke-opacity:1; fill:none" points="254.405,87.9763 256.444,913.732 258.483,754.101 260.523,798.205 262.562,755.129 264.601,683.086 266.641,694.988 268.68,695.307 270.719,698.617 272.758,695.218 274.798,695.271 276.837,688.895 278.876,697.354 280.915,704.998 282.955,715.518 284.994,724.684 287.033,710.773 289.073,719.234 291.112,721.842 293.151,722.221 295.19,721.457 297.23,725.6 299.269,722.063 301.308,716.891 303.347,713.974 305.387,719.61 307.426,722.465 309.465,719.89 311.505,721.104 313.544,721.88 315.583,726.387 317.622,729.323 319.662,729.756 321.701,733.538 323.74,735.907 325.779,737.318 327.819,735.846 329.858,732.616 331.897,727.923 333.937,729.195 335.976,728.427 338.015,728.251 340.054,726.106 342.094,725.657 344.133,728.723 346.172,727.26 348.211,730.177 350.251,731.734 352.29,732.049 354.329,731.405 356.369,727.529 358.408,727.494 360.447,730.061 362.486,732.424 364.526,732.695 366.565,732.676 368.604,733.09 370.643,735.354 372.683,737.469 374.722,734.422 376.761,731.732 378.801,727.821 380.84,728.402 382.879,728.768 384.918,730.81 386.958,730.547 388.997,728.225 391.036,727.886 393.075,729.554 395.115,728.543 397.154,726.689 399.193,728.469 401.233,729.567 403.272,730.08 405.311,727.581 407.35,728.744 409.39,729.068 411.429,730.784 413.468,732.264 415.507,732.994 417.547,732.842 419.586,734.431 421.625,731.922 423.665,733.507 425.704,734.471 427.743,735.021 429.782,733.758 431.822,734.978 433.861,734.01 435.9,731.848 437.939,732.658 439.979,733.438 442.018,732.983 444.057,730.055 446.097,728.64 448.136,725.832 450.175,726.707 452.214,728.051 454.254,729.165 456.293,730.104 458.332,731.152 460.371,733.944 462.411,733.668 464.45,731.684 466.489,730.955 468.529,733.637 470.568,732.808 472.607,734.248 474.646,731.273 476.686,732.662 478.725,731.486 480.764,730.126 482.803,730.595 484.843,730.272 486.882,726.399 488.921,726.46 490.961,728.393 493,724.65 495.039,723.757 497.078,725.452 499.118,726.884 501.157,727.843 503.196,725.852 505.235,727.708 507.275,729.246 509.314,727.546 511.353,727.327 513.393,726.687 515.432,726.813 517.471,728.084 519.51,728.045 521.55,725.74 523.589,725.715 525.628,724.621 527.667,722.803 529.707,720.9 531.746,721.55 533.785,723.477 535.825,723.258 537.864,720.629 539.903,720.316 541.942,718.486 543.982,717.683 546.021,719.092 548.06,718.595 550.099,718.43 552.139,716.716 554.178,717.206 556.217,718.284 558.257,717.453 560.296,720.603 562.335,720.424 564.374,719.997 566.414,719.855 568.453,719.732 570.492,719.609 572.532,718.543 574.571,718.332 576.61,717.966 578.649,720.589 580.689,722.418 582.728,725.873 584.767,723.646 586.806,724.236 588.846,724.129 590.885,723.566 592.924,726.784 594.964,728.573 597.003,726.231 599.042,726.768 601.081,725.744 603.121,725.858 605.16,722.843 607.199,722.797 609.238,726.367 611.278,726.392 613.317,725.987 615.356,726.089 617.396,724.902 619.435,726.099 621.474,726.167 623.513,724.873 625.553,726.309 627.592,725.904 629.631,726.329 631.67,726.583 633.71,729.621 635.749,729.276 637.788,730.374 639.828,728.786 641.867,728.452 643.906,728.579 645.945,731.155 647.985,729.734 650.024,730.177 652.063,729.265 654.102,729.541 656.142,729.325 658.181,729.074 660.22,729.199 662.26,728.841 664.299,726.7 666.338,726.58 668.377,730.12 670.417,730.182 672.456,730.555 674.495,732.816 676.534,732.613 678.574,735.397 680.613,734.007 682.652,736.763 684.692,740.116 686.731,736.166 688.77,734.397 690.809,737.65 692.849,736.761 694.888,734.404 696.927,738.025 698.966,739.679 701.006,736.592 703.045,737.229 705.084,735.904 707.124,739.046 709.163,735.029 711.202,732.502 713.241,734.222 715.281,731.438 717.32,731.584 719.359,732.096 721.398,732.114 723.438,731.187 725.477,732.891 727.516,730.426 729.556,729.918 731.595,730.343 733.634,730.444 735.673,731.011 737.713,730.706 739.752,731.475 741.791,732.346 743.83,731.845 745.87,733.678 747.909,734.357 749.948,733.757 751.988,730.629 754.027,732.263 756.066,731.915 758.105,731.475 760.145,731.347 762.184,732.363 764.223,729.22 766.262,730.541 768.302,730.593 770.341,730.632 772.38,729.292 774.42,727.573 776.459,729.296 778.498,728.414 780.537,728.168 782.577,728.342 784.616,729.168 786.655,726.147 788.694,728.539 790.734,726.443 792.773,724.204 794.812,724.722 796.852,722.889 798.891,722.516 800.93,724.761 802.969,726.602 805.009,729.089 807.048,728.378 809.087,729.936 811.126,730.932 813.166,731.367 815.205,731.416 817.244,731.361 819.284,727.526 821.323,728.401 823.362,728.084 825.401,726.501 827.441,727.378 829.48,729.769 831.519,729.538 833.558,728.47 835.598,725 837.637,725.302 839.676,725.729 841.716,725.534 843.755,727.888 845.794,726.97 847.833,728.27 849.873,728.439 851.912,728.782 853.951,727.494 855.99,729.109 858.03,727.373 860.069,727.737 862.108,727.738 864.148,728.46 866.187,728.348 868.226,727.887 870.265,728.315 872.305,726.124 874.344,726.43 876.383,724.962 878.422,724.853 880.462,721.723 882.501,721.027 884.54,722.649 886.58,720.502 888.619,718.019 890.658,718.701 892.697,717.664 894.737,716.318 896.776,713.913 898.815,713.368 900.855,713.323 902.894,713.639 904.933,716.546 906.972,713.807 909.012,714.939 911.051,715.149 913.09,718.578 915.129,719.838 917.169,719.996 919.208,723.596 921.247,724.919 923.287,723.81 925.326,723.146 927.365,724.2 929.404,723.904 931.444,726.041 933.483,726.355 935.522,728.091 937.561,729.425 939.601,729.183 941.64,729.694 943.679,731.904 945.719,731.383 947.758,732.437 949.797,732.914 951.836,733.696 953.876,731.613 955.915,733.831 957.954,733.868 959.993,734.779 962.033,734.18 964.072,734.082 966.111,736.027 968.151,735.998 970.19,735.27 972.229,734.503 974.268,734.595 976.308,734.786 978.347,735.419 980.386,735.03 982.425,734.885 984.465,732.882 986.504,732.841 988.543,730.893 990.583,730.706 992.622,730.001 994.661,733.029 996.7,735.502 998.74,733.611 1000.78,735.555 1002.82,732.357 1004.86,731.538 1006.9,732.168 1008.94,731.343 1010.98,731.73 1013.01,733.057 1015.05,733.203 1017.09,733.238 1019.13,731 1021.17,732.85 1023.21,736.438 1025.25,735.291 1027.29,732.871 1029.33,734.527 1031.37,734.55 1033.41,735.944 1035.45,734.129 1037.49,733.033 1039.53,735.986 1041.56,733.527 1043.6,731.158 1045.64,729.461 1047.68,729.751 1049.72,730.58 1051.76,729.787 1053.8,729.381 1055.84,732.278 1057.88,734.379 1059.92,735.299 1061.96,734.634 1064,731.231 1066.04,728.059 1068.07,727.877 1070.11,729.062 1072.15,728.718 1074.19,727.992 1076.23,728.272 1078.27,726.926 1080.31,728.249 1082.35,727.642 1084.39,731.163 1086.43,731.687 1088.47,731.631 1090.51,734.681 1092.55,736.668 1094.59,738.094 1096.62,740.687 1098.66,742.016 1100.7,744.652 1102.74,745.918 1104.78,741.898 1106.82,741.492 1108.86,740.417 1110.9,743.125 1112.94,743.145 1114.98,743.513 1117.02,743.533 1119.06,742.446 1121.1,739.706 1123.14,739.56 1125.17,740.872 1127.21,741.561 1129.25,738.953 1131.29,738.915 1133.33,738.663 1135.37,736.281 1137.41,734.443 1139.45,734.577 1141.49,735.221 1143.53,732.968 1145.57,731.714 1147.61,728.584 1149.65,727.87 1151.69,728.72 1153.72,729.737 1155.76,728.104 1157.8,731.075 1159.84,729.676 1161.88,730.185 1163.92,730.667 1165.96,731.808 1168,731.982 1170.04,730.93 1172.08,734.408 1174.12,735.303 1176.16,735.554 1178.2,733.885 1180.23,735.825 1182.27,736.751 1184.31,736.583 1186.35,737.986 1188.39,737.816 1190.43,734.106 1192.47,735.815 1194.51,735.431 1196.55,738.098 1198.59,736.954 1200.63,735.91 1202.67,736.057 1204.71,733.889 1206.75,734.686 1208.78,734.207 1210.82,734.213 1212.86,731.382 1214.9,728.382 1216.94,728.579 1218.98,727.181 1221.02,726.388 1223.06,727.929 1225.1,725.929 1227.14,726.088 1229.18,727.919 1231.22,729.955 1233.26,728.871 1235.3,725.992 1237.33,726.24 1239.37,726.86 1241.41,730.02 1243.45,730.016 1245.49,733.078 1247.53,734.79 1249.57,736.856 1251.61,736.704 1253.65,734.389 1255.69,734.963 1257.73,732.822 1259.77,733.653 1261.81,733.031 1263.85,734.269 1265.88,736.952 1267.92,739.141 1269.96,739.738 1272,736.304 1274.04,736.483 1276.08,739.553 1278.12,739.839 1280.16,741.112 1282.2,743.309 1284.24,740.828 1286.28,741.912 1288.32,739.276 1290.36,738.415 1292.39,736.124 1294.43,734.186 1296.47,732.511 1298.51,732.478 1300.55,733.315 1302.59,732.007 1304.63,731.264 1306.67,730.014 1308.71,733.594 1310.75,734.178 1312.79,732.224 1314.83,730.582 1316.87,727.241 1318.91,724.083 1320.94,721.788 1322.98,724.04 1325.02,726.116 1327.06,724.888 1329.1,724.399 1331.14,724.443 1333.18,726.72 1335.22,725.978 1337.26,724.739 1339.3,727.768 1341.34,728.186 1343.38,724.712 1345.42,724.784 1347.46,726.524 1349.49,725.751 1351.53,726.789 1353.57,730.306 1355.61,730.176 1357.65,728.997 1359.69,731.835 1361.73,729.711 1363.77,730.616 1365.81,730.724 1367.85,731.2 1369.89,727.802 1371.93,727.011 1373.97,728.073 1376.01,727.706 1378.04,726.548 1380.08,724.439 1382.12,722.555 1384.16,720.839 1386.2,718.021 1388.24,718.464 1390.28,714.776 1392.32,716.223 1394.36,719.729 1396.4,719.161 1398.44,722.633 1400.48,718.955 1402.52,719.513 1404.56,719.971 1406.59,721.963 1408.63,722.803 1410.67,724.426 1412.71,724.266 1414.75,724.277 1416.79,724.53 1418.83,726.076 1420.87,725.882 1422.91,727.359 1424.95,727.343 1426.99,725.337 1429.03,724.679 1431.07,721.449 1433.1,720.317 1435.14,720.605 1437.18,723.754 1439.22,727.153 1441.26,726.34 1443.3,728.233 1445.34,728.2 1447.38,726.011 1449.42,726.298 1451.46,725.366 1453.5,725.004 1455.54,721.094 1457.58,722.133 1459.62,721.669 1461.65,723.796 1463.69,723.093 1465.73,722.934 1467.77,721.776 1469.81,718.463 1471.85,717.99 1473.89,717.291 1475.93,720.55 1477.97,720.505 1480.01,718.872 1482.05,719.338 1484.09,720.154 1486.13,718.606 1488.17,720.545 1490.2,720.529 1492.24,723.189 1494.28,724.973 1496.32,725.61 1498.36,727.838 1500.4,729.178 1502.44,728.694 1504.48,728.114 1506.52,728.235 1508.56,729.503 1510.6,733.198 1512.64,732.591 1514.68,732.635 1516.72,736.289 1518.75,737.593 1520.79,741.027 1522.83,745.57 1524.87,749.693 1526.91,749.031 1528.95,751.16 1530.99,751.737 1533.03,748.629 1535.07,750.276 1537.11,750.519 1539.15,749.864 1541.19,754.271 1543.23,753.294 1545.26,755.147 1547.3,757.437 1549.34,755.029 1551.38,755.364 1553.42,756.941 1555.46,754.848 1557.5,751.869 1559.54,749.771 1561.58,748.041 1563.62,746.075 1565.66,747.928 1567.7,746.005 1569.74,744.354 1571.78,744.655 1573.81,746.78 1575.85,746.951 1577.89,746.265 1579.93,746.022 1581.97,746.164 1584.01,747.286 1586.05,747.981 1588.09,750.213 1590.13,753.946 1592.17,752.907 1594.21,755.642 1596.25,752.746 1598.29,751.586 1600.33,751.493 1602.36,751.4 1604.4,756.115 1606.44,756.42 1608.48,755.048 1610.52,755.042 1612.56,756.077 1614.6,757.048 1616.64,755.704 1618.68,755.739 1620.72,757.887 1622.76,758.539 1624.8,756.92 1626.84,756.128 1628.88,753.887 1630.91,753.511 1632.95,757.331 1634.99,756.018 1637.03,753.451 1639.07,753.647 1641.11,753.689 1643.15,752.406 1645.19,750.399 1647.23,750.171 1649.27,749.247 1651.31,749.738 1653.35,750.344 1655.39,747.555 1657.42,746.469 1659.46,748.912 1661.5,749.863 1663.54,746.14 1665.58,744.886 1667.62,741.356 1669.66,743.221 1671.7,744.5 1673.74,745.494 1675.78,745.744 1677.82,745.248 1679.86,745.564 1681.9,745.538 1683.94,743.922 1685.97,741.901 1688.01,740.668 1690.05,739.665 1692.09,739.451 1694.13,738.057 1696.17,736.311 1698.21,735.413 1700.25,738.361 1702.29,739.002 1704.33,738.942 1706.37,741.064 1708.41,741.038 1710.45,741.275 1712.49,741.37 1714.52,738.192 1716.56,738.34 1718.6,738.174 1720.64,737.699 1722.68,734.606 1724.72,736.018 1726.76,734.876 1728.8,734.372 1730.84,735.297 1732.88,734.196 1734.92,734.19 1736.96,734.673 1739,733.773 1741.04,733.59 1743.07,733.331 1745.11,731.507 1747.15,732.025 1749.19,731.082 1751.23,732.25 1753.27,730.601 1755.31,727.797 1757.35,728.614 1759.39,731.98 1761.43,733.847 1763.47,735.96 1765.51,738.476 1767.55,739.895 1769.58,738.791 1771.62,741.694 1773.66,743.028 1775.7,741.705 1777.74,742.558 1779.78,743.108 1781.82,743.919 1783.86,744.286 1785.9,744.22 1787.94,745.6 1789.98,745.848 1792.02,746.418 1794.06,746.418 1796.1,745.601 1798.13,746.457 1800.17,748.216 1802.21,746.663 1804.25,747.92 1806.29,746.649 1808.33,745.35 1810.37,744.163 1812.41,745.405 1814.45,745.369 1816.49,743.698 1818.53,743.937 1820.57,745.316 1822.61,745.217 1824.65,745.748 1826.68,748.282 1828.72,747.515 1830.76,747.45 1832.8,750.051 1834.84,752.132 1836.88,752.122 1838.92,754.191 1840.96,756.815 1843,753.71 1845.04,752.701 1847.08,753.579 1849.12,751.424 1851.16,748.331 1853.2,746.501 1855.23,748.052 1857.27,748.059 1859.31,750.19 1861.35,748.572 1863.39,747.248 1865.43,746.213 1867.47,747.431 1869.51,747.234 1871.55,748.977 1873.59,749.082 1875.63,745.561 1877.67,744.96 1879.71,743.455 1881.74,746.695 1883.78,743.581 1885.82,741.062 1887.86,742.924 1889.9,742.652 1891.94,740.438 1893.98,742.219 1896.02,739.092 1898.06,739.783 1900.1,741.194 1902.14,739.675 1904.18,739.675 1906.22,738.751 1908.26,738.874 1910.29,738.926 1912.33,739.807 1914.37,740.145 1916.41,738.299 1918.45,739.772 1920.49,737.42 1922.53,737.59 1924.57,737.902 1926.61,739.568 1928.65,739.286 1930.69,738.866 1932.73,736.526 1934.77,734.297 1936.81,731.275 1938.84,730.787 1940.88,729.26 1942.92,727.132 1944.96,726.932 1947,726.758 1949.04,727.989 1951.08,726.075 1953.12,726.748 1955.16,725.893 1957.2,728.616 1959.24,730.435 1961.28,728.519 1963.32,724.784 1965.36,725.286 1967.39,724.617 1969.43,722.906 1971.47,723.868 1973.51,723.353 1975.55,722.859 1977.59,722.913 1979.63,723.509 1981.67,723.933 1983.71,723.582 1985.75,723.678 1987.79,721.723 1989.83,720.053 1991.87,721.65 1993.9,723.952 1995.94,722.929 1997.98,721.9 2000.02,719.708 2002.06,719.331 2004.1,721.218 2006.14,722.647 2008.18,720.393 2010.22,720.448 2012.26,718.721 2014.3,716.886 2016.34,715.98 2018.38,715.779 2020.42,717.745 2022.45,717.565 2024.49,718.892 2026.53,716.227 2028.57,718.917 2030.61,719.864 2032.65,719.19 2034.69,720.282 2036.73,719.79 2038.77,721.323 2040.81,716.918 2042.85,716.387 2044.89,716.146 2046.93,717.336 2048.97,714.475 2051,713.03 2053.04,715.338 2055.08,714.631 2057.12,715.826 2059.16,715.844 2061.2,712.56 2063.24,711.145 2065.28,713.561 2067.32,711.799 2069.36,712.583 2071.4,714.685 2073.44,715.483 2075.48,717.153 2077.52,715.145 2079.55,717.864 2081.59,717.795 2083.63,720.114 2085.67,717.389 2087.71,716.917 2089.75,717.779 2091.79,716.88 2093.83,715.522 2095.87,718.103 2097.91,718.813 2099.95,722.063 2101.99,722.698 2104.03,722.164 2106.07,724.895 2108.1,724.751 2110.14,725.064 2112.18,724.656 2114.22,723.979 2116.26,724.007 2118.3,723.936 2120.34,726.195 2122.38,727.289 2124.42,727.712 2126.46,727.375 2128.5,727.455 2130.54,730.106 2132.58,726.878 2134.61,728.705 2136.65,730.346 2138.69,728.118 2140.73,731.442 2142.77,731.159 2144.81,734.028 2146.85,735.112 2148.89,734.917 2150.93,734.069 2152.97,734.546 2155.01,735.042 2157.05,734.631 2159.09,735.117 2161.13,734.063 2163.16,732.14 2165.2,733.476 2167.24,736.473 2169.28,733.941 2171.32,733.472 2173.36,735.142 2175.4,735.141 2177.44,735.696 2179.48,734.635 2181.52,732.721 2183.56,730.069 2185.6,729.941 2187.64,726.975 2189.68,726.578 2191.71,727.416 2193.75,729.261 2195.79,726.222 2197.83,725.051 2199.87,723.761 2201.91,722.948 2203.95,725.135 2205.99,725.816 2208.03,726.21 2210.07,726.179 2212.11,727.403 2214.15,726.776 2216.19,727.945 2218.23,727.449 2220.26,729.051 2222.3,727.599 2224.34,724.518 2226.38,722.938 2228.42,720.874 2230.46,722.273 2232.5,719.935 2234.54,717.782 2236.58,720.388 2238.62,717.712 2240.66,717.344 2242.7,717.333 2244.74,718.683 2246.77,719.961 2248.81,719.783 2250.85,720.785 2252.89,722.194 2254.93,720.935 2256.97,718.482 2259.01,721.08 2261.05,722.229 2263.09,721.744 2265.13,722.773 2267.17,722.873 2269.21,721.918 2271.25,722.386 2273.29,720.339 2275.32,717.342 2277.36,715.469 2279.4,715.789 2281.44,717.697 2283.48,714.871 2285.52,716.319 2287.56,716.621 2289.6,716.785 2291.64,719.593 "/>
<path clip-path="url(#clip110)" d="M1635.96 250.738 L2280.77 250.738 L2280.77 95.2176 L1635.96 95.2176  Z" fill="#ffffff" fill-rule="evenodd" fill-opacity="1"/>
<polyline clip-path="url(#clip110)" style="stroke:#000000; stroke-linecap:round; stroke-linejoin:round; stroke-width:4; stroke-opacity:1; fill:none" points="1635.96,250.738 2280.77,250.738 2280.77,95.2176 1635.96,95.2176 1635.96,250.738 "/>
<polyline clip-path="url(#clip110)" style="stroke:#009af9; stroke-linecap:round; stroke-linejoin:round; stroke-width:4; stroke-opacity:0.4; fill:none" points="1659.96,147.058 1803.92,147.058 "/>
<path clip-path="url(#clip110)" d="M1827.92 129.778 L1832.59 129.778 L1832.59 164.338 L1827.92 164.338 L1827.92 129.778 Z" fill="#000000" fill-rule="nonzero" fill-opacity="1" /><path clip-path="url(#clip110)" d="M1863.26 148.689 L1863.26 164.338 L1859 164.338 L1859 148.828 Q1859 145.148 1857.57 143.319 Q1856.13 141.49 1853.26 141.49 Q1849.81 141.49 1847.82 143.69 Q1845.83 145.889 1845.83 149.685 L1845.83 164.338 L1841.55 164.338 L1841.55 138.412 L1845.83 138.412 L1845.83 142.44 Q1847.36 140.102 1849.42 138.944 Q1851.5 137.787 1854.21 137.787 Q1858.68 137.787 1860.97 140.565 Q1863.26 143.319 1863.26 148.689 Z" fill="#000000" fill-rule="nonzero" fill-opacity="1" /><path clip-path="url(#clip110)" d="M1875.88 160.449 L1875.88 174.199 L1871.6 174.199 L1871.6 138.412 L1875.88 138.412 L1875.88 142.347 Q1877.22 140.032 1879.26 138.921 Q1881.32 137.787 1884.17 137.787 Q1888.89 137.787 1891.83 141.537 Q1894.79 145.287 1894.79 151.398 Q1894.79 157.509 1891.83 161.259 Q1888.89 165.009 1884.17 165.009 Q1881.32 165.009 1879.26 163.898 Q1877.22 162.763 1875.88 160.449 M1890.37 151.398 Q1890.37 146.699 1888.43 144.037 Q1886.5 141.352 1883.12 141.352 Q1879.74 141.352 1877.8 144.037 Q1875.88 146.699 1875.88 151.398 Q1875.88 156.097 1877.8 158.782 Q1879.74 161.444 1883.12 161.444 Q1886.5 161.444 1888.43 158.782 Q1890.37 156.097 1890.37 151.398 Z" fill="#000000" fill-rule="nonzero" fill-opacity="1" /><path clip-path="url(#clip110)" d="M1901.41 154.106 L1901.41 138.412 L1905.67 138.412 L1905.67 153.944 Q1905.67 157.625 1907.11 159.476 Q1908.54 161.305 1911.41 161.305 Q1914.86 161.305 1916.85 159.106 Q1918.86 156.907 1918.86 153.111 L1918.86 138.412 L1923.12 138.412 L1923.12 164.338 L1918.86 164.338 L1918.86 160.356 Q1917.31 162.717 1915.25 163.875 Q1913.22 165.009 1910.51 165.009 Q1906.04 165.009 1903.73 162.231 Q1901.41 159.453 1901.41 154.106 M1912.13 137.787 L1912.13 137.787 Z" fill="#000000" fill-rule="nonzero" fill-opacity="1" /><path clip-path="url(#clip110)" d="M1936.11 131.051 L1936.11 138.412 L1944.88 138.412 L1944.88 141.722 L1936.11 141.722 L1936.11 155.796 Q1936.11 158.967 1936.97 159.87 Q1937.85 160.773 1940.51 160.773 L1944.88 160.773 L1944.88 164.338 L1940.51 164.338 Q1935.58 164.338 1933.7 162.509 Q1931.83 160.657 1931.83 155.796 L1931.83 141.722 L1928.7 141.722 L1928.7 138.412 L1931.83 138.412 L1931.83 131.051 L1936.11 131.051 Z" fill="#000000" fill-rule="nonzero" fill-opacity="1" /><polyline clip-path="url(#clip110)" style="stroke:#e26f46; stroke-linecap:round; stroke-linejoin:round; stroke-width:4; stroke-opacity:1; fill:none" points="1659.96,198.898 1803.92,198.898 "/>
<path clip-path="url(#clip110)" d="M1846.34 191.016 L1846.34 195.043 Q1844.54 194.117 1842.59 193.655 Q1840.65 193.192 1838.56 193.192 Q1835.39 193.192 1833.8 194.164 Q1832.22 195.136 1832.22 197.08 Q1832.22 198.562 1833.36 199.418 Q1834.49 200.252 1837.92 201.016 L1839.37 201.34 Q1843.91 202.312 1845.81 204.094 Q1847.73 205.854 1847.73 209.025 Q1847.73 212.636 1844.86 214.742 Q1842.01 216.849 1837.01 216.849 Q1834.93 216.849 1832.66 216.432 Q1830.42 216.039 1827.92 215.228 L1827.92 210.83 Q1830.28 212.057 1832.57 212.682 Q1834.86 213.284 1837.11 213.284 Q1840.12 213.284 1841.74 212.266 Q1843.36 211.224 1843.36 209.349 Q1843.36 207.613 1842.18 206.687 Q1841.02 205.761 1837.06 204.904 L1835.58 204.557 Q1831.62 203.724 1829.86 202.011 Q1828.1 200.275 1828.1 197.266 Q1828.1 193.608 1830.69 191.618 Q1833.29 189.627 1838.05 189.627 Q1840.42 189.627 1842.5 189.974 Q1844.58 190.321 1846.34 191.016 Z" fill="#000000" fill-rule="nonzero" fill-opacity="1" /><path clip-path="url(#clip110)" d="M1858.73 182.891 L1858.73 190.252 L1867.5 190.252 L1867.5 193.562 L1858.73 193.562 L1858.73 207.636 Q1858.73 210.807 1859.58 211.71 Q1860.46 212.613 1863.12 212.613 L1867.5 212.613 L1867.5 216.178 L1863.12 216.178 Q1858.19 216.178 1856.32 214.349 Q1854.44 212.497 1854.44 207.636 L1854.44 193.562 L1851.32 193.562 L1851.32 190.252 L1854.44 190.252 L1854.44 182.891 L1858.73 182.891 Z" fill="#000000" fill-rule="nonzero" fill-opacity="1" /><path clip-path="url(#clip110)" d="M1890.16 194.187 L1890.16 180.159 L1894.42 180.159 L1894.42 216.178 L1890.16 216.178 L1890.16 212.289 Q1888.82 214.603 1886.76 215.738 Q1884.72 216.849 1881.85 216.849 Q1877.15 216.849 1874.19 213.099 Q1871.25 209.349 1871.25 203.238 Q1871.25 197.127 1874.19 193.377 Q1877.15 189.627 1881.85 189.627 Q1884.72 189.627 1886.76 190.761 Q1888.82 191.872 1890.16 194.187 M1875.65 203.238 Q1875.65 207.937 1877.57 210.622 Q1879.51 213.284 1882.89 213.284 Q1886.27 213.284 1888.22 210.622 Q1890.16 207.937 1890.16 203.238 Q1890.16 198.539 1888.22 195.877 Q1886.27 193.192 1882.89 193.192 Q1879.51 193.192 1877.57 195.877 Q1875.65 198.539 1875.65 203.238 Z" fill="#000000" fill-rule="nonzero" fill-opacity="1" /><path clip-path="url(#clip110)" d="M1928.49 180.206 Q1925.39 185.53 1923.89 190.738 Q1922.38 195.946 1922.38 201.293 Q1922.38 206.641 1923.89 211.895 Q1925.42 217.127 1928.49 222.428 L1924.79 222.428 Q1921.32 216.988 1919.58 211.733 Q1917.87 206.479 1917.87 201.293 Q1917.87 196.131 1919.58 190.9 Q1921.3 185.668 1924.79 180.206 L1928.49 180.206 Z" fill="#000000" fill-rule="nonzero" fill-opacity="1" /><path clip-path="url(#clip110)" d="M1934.28 190.252 L1938.54 190.252 L1943.86 210.483 L1949.17 190.252 L1954.19 190.252 L1959.51 210.483 L1964.81 190.252 L1969.07 190.252 L1962.29 216.178 L1957.27 216.178 L1951.69 194.928 L1946.09 216.178 L1941.06 216.178 L1934.28 190.252 Z" fill="#000000" fill-rule="nonzero" fill-opacity="1" /><path clip-path="url(#clip110)" d="M1975.53 190.252 L1979.79 190.252 L1979.79 216.178 L1975.53 216.178 L1975.53 190.252 M1975.53 180.159 L1979.79 180.159 L1979.79 185.553 L1975.53 185.553 L1975.53 180.159 Z" fill="#000000" fill-rule="nonzero" fill-opacity="1" /><path clip-path="url(#clip110)" d="M2010.25 200.529 L2010.25 216.178 L2005.99 216.178 L2005.99 200.668 Q2005.99 196.988 2004.56 195.159 Q2003.12 193.33 2000.25 193.33 Q1996.8 193.33 1994.81 195.53 Q1992.82 197.729 1992.82 201.525 L1992.82 216.178 L1988.54 216.178 L1988.54 190.252 L1992.82 190.252 L1992.82 194.28 Q1994.35 191.942 1996.41 190.784 Q1998.49 189.627 2001.2 189.627 Q2005.67 189.627 2007.96 192.405 Q2010.25 195.159 2010.25 200.529 Z" fill="#000000" fill-rule="nonzero" fill-opacity="1" /><path clip-path="url(#clip110)" d="M2035.81 194.187 L2035.81 180.159 L2040.07 180.159 L2040.07 216.178 L2035.81 216.178 L2035.81 212.289 Q2034.47 214.603 2032.41 215.738 Q2030.37 216.849 2027.5 216.849 Q2022.8 216.849 2019.84 213.099 Q2016.9 209.349 2016.9 203.238 Q2016.9 197.127 2019.84 193.377 Q2022.8 189.627 2027.5 189.627 Q2030.37 189.627 2032.41 190.761 Q2034.47 191.872 2035.81 194.187 M2021.29 203.238 Q2021.29 207.937 2023.22 210.622 Q2025.16 213.284 2028.54 213.284 Q2031.92 213.284 2033.86 210.622 Q2035.81 207.937 2035.81 203.238 Q2035.81 198.539 2033.86 195.877 Q2031.92 193.192 2028.54 193.192 Q2025.16 193.192 2023.22 195.877 Q2021.29 198.539 2021.29 203.238 Z" fill="#000000" fill-rule="nonzero" fill-opacity="1" /><path clip-path="url(#clip110)" d="M2058.89 193.238 Q2055.46 193.238 2053.47 195.923 Q2051.48 198.585 2051.48 203.238 Q2051.48 207.891 2053.45 210.576 Q2055.44 213.238 2058.89 213.238 Q2062.29 213.238 2064.28 210.553 Q2066.27 207.867 2066.27 203.238 Q2066.27 198.631 2064.28 195.946 Q2062.29 193.238 2058.89 193.238 M2058.89 189.627 Q2064.44 189.627 2067.61 193.238 Q2070.79 196.849 2070.79 203.238 Q2070.79 209.604 2067.61 213.238 Q2064.44 216.849 2058.89 216.849 Q2053.31 216.849 2050.14 213.238 Q2046.99 209.604 2046.99 203.238 Q2046.99 196.849 2050.14 193.238 Q2053.31 189.627 2058.89 189.627 Z" fill="#000000" fill-rule="nonzero" fill-opacity="1" /><path clip-path="url(#clip110)" d="M2075.37 190.252 L2079.63 190.252 L2084.95 210.483 L2090.25 190.252 L2095.28 190.252 L2100.6 210.483 L2105.9 190.252 L2110.16 190.252 L2103.38 216.178 L2098.35 216.178 L2092.78 194.928 L2087.17 216.178 L2082.15 216.178 L2075.37 190.252 Z" fill="#000000" fill-rule="nonzero" fill-opacity="1" /><path clip-path="url(#clip110)" d="M2117.17 194.65 L2146.85 194.65 L2146.85 198.539 L2117.17 198.539 L2117.17 194.65 M2117.17 204.094 L2146.85 204.094 L2146.85 208.029 L2117.17 208.029 L2117.17 204.094 Z" fill="#000000" fill-rule="nonzero" fill-opacity="1" /><path clip-path="url(#clip110)" d="M2157.75 212.242 L2165.39 212.242 L2165.39 185.877 L2157.08 187.543 L2157.08 183.284 L2165.34 181.618 L2170.02 181.618 L2170.02 212.242 L2177.66 212.242 L2177.66 216.178 L2157.75 216.178 L2157.75 212.242 Z" fill="#000000" fill-rule="nonzero" fill-opacity="1" /><path clip-path="url(#clip110)" d="M2197.1 184.696 Q2193.49 184.696 2191.66 188.261 Q2189.86 191.803 2189.86 198.932 Q2189.86 206.039 2191.66 209.604 Q2193.49 213.145 2197.1 213.145 Q2200.74 213.145 2202.54 209.604 Q2204.37 206.039 2204.37 198.932 Q2204.37 191.803 2202.54 188.261 Q2200.74 184.696 2197.1 184.696 M2197.1 180.993 Q2202.91 180.993 2205.97 185.599 Q2209.05 190.182 2209.05 198.932 Q2209.05 207.659 2205.97 212.266 Q2202.91 216.849 2197.1 216.849 Q2191.29 216.849 2188.22 212.266 Q2185.16 207.659 2185.16 198.932 Q2185.16 190.182 2188.22 185.599 Q2191.29 180.993 2197.1 180.993 Z" fill="#000000" fill-rule="nonzero" fill-opacity="1" /><path clip-path="url(#clip110)" d="M2227.27 184.696 Q2223.65 184.696 2221.83 188.261 Q2220.02 191.803 2220.02 198.932 Q2220.02 206.039 2221.83 209.604 Q2223.65 213.145 2227.27 213.145 Q2230.9 213.145 2232.71 209.604 Q2234.53 206.039 2234.53 198.932 Q2234.53 191.803 2232.71 188.261 Q2230.9 184.696 2227.27 184.696 M2227.27 180.993 Q2233.08 180.993 2236.13 185.599 Q2239.21 190.182 2239.21 198.932 Q2239.21 207.659 2236.13 212.266 Q2233.08 216.849 2227.27 216.849 Q2221.46 216.849 2218.38 212.266 Q2215.32 207.659 2215.32 198.932 Q2215.32 190.182 2218.38 185.599 Q2221.46 180.993 2227.27 180.993 Z" fill="#000000" fill-rule="nonzero" fill-opacity="1" /><path clip-path="url(#clip110)" d="M2246.15 180.206 L2249.86 180.206 Q2253.33 185.668 2255.04 190.9 Q2256.78 196.131 2256.78 201.293 Q2256.78 206.479 2255.04 211.733 Q2253.33 216.988 2249.86 222.428 L2246.15 222.428 Q2249.23 217.127 2250.74 211.895 Q2252.27 206.641 2252.27 201.293 Q2252.27 195.946 2250.74 190.738 Q2249.23 185.53 2246.15 180.206 Z" fill="#000000" fill-rule="nonzero" fill-opacity="1" /></svg>
