<?xml version="1.0" encoding="utf-8"?>
<svg xmlns="http://www.w3.org/2000/svg" xmlns:xlink="http://www.w3.org/1999/xlink" width="600" height="400" viewBox="0 0 2400 1600">
<defs>
  <clipPath id="clip590">
    <rect x="0" y="0" width="2400" height="1600"/>
  </clipPath>
</defs>
<path clip-path="url(#clip590)" d="
M0 1600 L2400 1600 L2400 0 L0 0  Z
  " fill="#ffffff" fill-rule="evenodd" fill-opacity="1"/>
<defs>
  <clipPath id="clip591">
    <rect x="480" y="0" width="1681" height="1600"/>
  </clipPath>
</defs>
<path clip-path="url(#clip590)" d="
M193.936 1486.45 L2352.76 1486.45 L2352.76 123.472 L193.936 123.472  Z
  " fill="#ffffff" fill-rule="evenodd" fill-opacity="1"/>
<defs>
  <clipPath id="clip592">
    <rect x="193" y="123" width="2160" height="1364"/>
  </clipPath>
</defs>
<polyline clip-path="url(#clip592)" style="stroke:#000000; stroke-linecap:butt; stroke-linejoin:round; stroke-width:2; stroke-opacity:0.1; fill:none" points="
  481.326,1486.45 481.326,123.472 
  "/>
<polyline clip-path="url(#clip592)" style="stroke:#000000; stroke-linecap:butt; stroke-linejoin:round; stroke-width:2; stroke-opacity:0.1; fill:none" points="
  933.909,1486.45 933.909,123.472 
  "/>
<polyline clip-path="url(#clip592)" style="stroke:#000000; stroke-linecap:butt; stroke-linejoin:round; stroke-width:2; stroke-opacity:0.1; fill:none" points="
  1386.49,1486.45 1386.49,123.472 
  "/>
<polyline clip-path="url(#clip592)" style="stroke:#000000; stroke-linecap:butt; stroke-linejoin:round; stroke-width:2; stroke-opacity:0.1; fill:none" points="
  1839.07,1486.45 1839.07,123.472 
  "/>
<polyline clip-path="url(#clip592)" style="stroke:#000000; stroke-linecap:butt; stroke-linejoin:round; stroke-width:2; stroke-opacity:0.1; fill:none" points="
  2291.66,1486.45 2291.66,123.472 
  "/>
<polyline clip-path="url(#clip590)" style="stroke:#000000; stroke-linecap:butt; stroke-linejoin:round; stroke-width:4; stroke-opacity:1; fill:none" points="
  193.936,1486.45 2352.76,1486.45 
  "/>
<polyline clip-path="url(#clip590)" style="stroke:#000000; stroke-linecap:butt; stroke-linejoin:round; stroke-width:4; stroke-opacity:1; fill:none" points="
  481.326,1486.45 481.326,1467.55 
  "/>
<polyline clip-path="url(#clip590)" style="stroke:#000000; stroke-linecap:butt; stroke-linejoin:round; stroke-width:4; stroke-opacity:1; fill:none" points="
  933.909,1486.45 933.909,1467.55 
  "/>
<polyline clip-path="url(#clip590)" style="stroke:#000000; stroke-linecap:butt; stroke-linejoin:round; stroke-width:4; stroke-opacity:1; fill:none" points="
  1386.49,1486.45 1386.49,1467.55 
  "/>
<polyline clip-path="url(#clip590)" style="stroke:#000000; stroke-linecap:butt; stroke-linejoin:round; stroke-width:4; stroke-opacity:1; fill:none" points="
  1839.07,1486.45 1839.07,1467.55 
  "/>
<polyline clip-path="url(#clip590)" style="stroke:#000000; stroke-linecap:butt; stroke-linejoin:round; stroke-width:4; stroke-opacity:1; fill:none" points="
  2291.66,1486.45 2291.66,1467.55 
  "/>
<path clip-path="url(#clip590)" d="M475.979 1544.91 L492.298 1544.91 L492.298 1548.85 L470.354 1548.85 L470.354 1544.91 Q473.016 1542.16 477.599 1537.53 Q482.206 1532.88 483.386 1531.53 Q485.632 1529.01 486.511 1527.27 Q487.414 1525.51 487.414 1523.82 Q487.414 1521.07 485.47 1519.33 Q483.548 1517.6 480.446 1517.6 Q478.247 1517.6 475.794 1518.36 Q473.363 1519.13 470.585 1520.68 L470.585 1515.95 Q473.409 1514.82 475.863 1514.24 Q478.317 1513.66 480.354 1513.66 Q485.724 1513.66 488.919 1516.35 Q492.113 1519.03 492.113 1523.52 Q492.113 1525.65 491.303 1527.57 Q490.516 1529.47 488.409 1532.07 Q487.831 1532.74 484.729 1535.95 Q481.627 1539.15 475.979 1544.91 Z" fill="#000000" fill-rule="evenodd" fill-opacity="1" /><path clip-path="url(#clip590)" d="M936.918 1518.36 L925.113 1536.81 L936.918 1536.81 L936.918 1518.36 M935.691 1514.29 L941.571 1514.29 L941.571 1536.81 L946.501 1536.81 L946.501 1540.7 L941.571 1540.7 L941.571 1548.85 L936.918 1548.85 L936.918 1540.7 L921.316 1540.7 L921.316 1536.19 L935.691 1514.29 Z" fill="#000000" fill-rule="evenodd" fill-opacity="1" /><path clip-path="url(#clip590)" d="M1386.9 1529.7 Q1383.75 1529.7 1381.9 1531.86 Q1380.07 1534.01 1380.07 1537.76 Q1380.07 1541.49 1381.9 1543.66 Q1383.75 1545.82 1386.9 1545.82 Q1390.04 1545.82 1391.87 1543.66 Q1393.73 1541.49 1393.73 1537.76 Q1393.73 1534.01 1391.87 1531.86 Q1390.04 1529.7 1386.9 1529.7 M1396.18 1515.05 L1396.18 1519.31 Q1394.42 1518.48 1392.61 1518.04 Q1390.83 1517.6 1389.07 1517.6 Q1384.44 1517.6 1381.99 1520.72 Q1379.56 1523.85 1379.21 1530.17 Q1380.58 1528.15 1382.64 1527.09 Q1384.7 1526 1387.17 1526 Q1392.38 1526 1395.39 1529.17 Q1398.42 1532.32 1398.42 1537.76 Q1398.42 1543.08 1395.28 1546.3 Q1392.13 1549.52 1386.9 1549.52 Q1380.9 1549.52 1377.73 1544.94 Q1374.56 1540.33 1374.56 1531.6 Q1374.56 1523.41 1378.45 1518.55 Q1382.34 1513.66 1388.89 1513.66 Q1390.65 1513.66 1392.43 1514.01 Q1394.23 1514.36 1396.18 1515.05 Z" fill="#000000" fill-rule="evenodd" fill-opacity="1" /><path clip-path="url(#clip590)" d="M1839.07 1532.44 Q1835.74 1532.44 1833.82 1534.22 Q1831.92 1536 1831.92 1539.13 Q1831.92 1542.25 1833.82 1544.03 Q1835.74 1545.82 1839.07 1545.82 Q1842.41 1545.82 1844.33 1544.03 Q1846.25 1542.23 1846.25 1539.13 Q1846.25 1536 1844.33 1534.22 Q1842.43 1532.44 1839.07 1532.44 M1834.4 1530.45 Q1831.39 1529.7 1829.7 1527.64 Q1828.03 1525.58 1828.03 1522.62 Q1828.03 1518.48 1830.97 1516.07 Q1833.94 1513.66 1839.07 1513.66 Q1844.24 1513.66 1847.18 1516.07 Q1850.12 1518.48 1850.12 1522.62 Q1850.12 1525.58 1848.43 1527.64 Q1846.76 1529.7 1843.77 1530.45 Q1847.15 1531.23 1849.03 1533.52 Q1850.93 1535.82 1850.93 1539.13 Q1850.93 1544.15 1847.85 1546.83 Q1844.79 1549.52 1839.07 1549.52 Q1833.36 1549.52 1830.28 1546.83 Q1827.22 1544.15 1827.22 1539.13 Q1827.22 1535.82 1829.12 1533.52 Q1831.02 1531.23 1834.4 1530.45 M1832.69 1523.06 Q1832.69 1525.75 1834.35 1527.25 Q1836.04 1528.76 1839.07 1528.76 Q1842.08 1528.76 1843.77 1527.25 Q1845.49 1525.75 1845.49 1523.06 Q1845.49 1520.38 1843.77 1518.87 Q1842.08 1517.37 1839.07 1517.37 Q1836.04 1517.37 1834.35 1518.87 Q1832.69 1520.38 1832.69 1523.06 Z" fill="#000000" fill-rule="evenodd" fill-opacity="1" /><path clip-path="url(#clip590)" d="M2266.34 1544.91 L2273.98 1544.91 L2273.98 1518.55 L2265.67 1520.21 L2265.67 1515.95 L2273.94 1514.29 L2278.61 1514.29 L2278.61 1544.91 L2286.25 1544.91 L2286.25 1548.85 L2266.34 1548.85 L2266.34 1544.91 Z" fill="#000000" fill-rule="evenodd" fill-opacity="1" /><path clip-path="url(#clip590)" d="M2305.7 1517.37 Q2302.09 1517.37 2300.26 1520.93 Q2298.45 1524.47 2298.45 1531.6 Q2298.45 1538.71 2300.26 1542.27 Q2302.09 1545.82 2305.7 1545.82 Q2309.33 1545.82 2311.14 1542.27 Q2312.96 1538.71 2312.96 1531.6 Q2312.96 1524.47 2311.14 1520.93 Q2309.33 1517.37 2305.7 1517.37 M2305.7 1513.66 Q2311.51 1513.66 2314.56 1518.27 Q2317.64 1522.85 2317.64 1531.6 Q2317.64 1540.33 2314.56 1544.94 Q2311.51 1549.52 2305.7 1549.52 Q2299.89 1549.52 2296.81 1544.94 Q2293.75 1540.33 2293.75 1531.6 Q2293.75 1522.85 2296.81 1518.27 Q2299.89 1513.66 2305.7 1513.66 Z" fill="#000000" fill-rule="evenodd" fill-opacity="1" /><polyline clip-path="url(#clip592)" style="stroke:#000000; stroke-linecap:butt; stroke-linejoin:round; stroke-width:2; stroke-opacity:0.1; fill:none" points="
  193.936,1472.36 2352.76,1472.36 
  "/>
<polyline clip-path="url(#clip592)" style="stroke:#000000; stroke-linecap:butt; stroke-linejoin:round; stroke-width:2; stroke-opacity:0.1; fill:none" points="
  193.936,1206.34 2352.76,1206.34 
  "/>
<polyline clip-path="url(#clip592)" style="stroke:#000000; stroke-linecap:butt; stroke-linejoin:round; stroke-width:2; stroke-opacity:0.1; fill:none" points="
  193.936,940.316 2352.76,940.316 
  "/>
<polyline clip-path="url(#clip592)" style="stroke:#000000; stroke-linecap:butt; stroke-linejoin:round; stroke-width:2; stroke-opacity:0.1; fill:none" points="
  193.936,674.293 2352.76,674.293 
  "/>
<polyline clip-path="url(#clip592)" style="stroke:#000000; stroke-linecap:butt; stroke-linejoin:round; stroke-width:2; stroke-opacity:0.1; fill:none" points="
  193.936,408.271 2352.76,408.271 
  "/>
<polyline clip-path="url(#clip592)" style="stroke:#000000; stroke-linecap:butt; stroke-linejoin:round; stroke-width:2; stroke-opacity:0.1; fill:none" points="
  193.936,142.248 2352.76,142.248 
  "/>
<polyline clip-path="url(#clip590)" style="stroke:#000000; stroke-linecap:butt; stroke-linejoin:round; stroke-width:4; stroke-opacity:1; fill:none" points="
  193.936,1486.45 193.936,123.472 
  "/>
<polyline clip-path="url(#clip590)" style="stroke:#000000; stroke-linecap:butt; stroke-linejoin:round; stroke-width:4; stroke-opacity:1; fill:none" points="
  193.936,1472.36 212.834,1472.36 
  "/>
<polyline clip-path="url(#clip590)" style="stroke:#000000; stroke-linecap:butt; stroke-linejoin:round; stroke-width:4; stroke-opacity:1; fill:none" points="
  193.936,1206.34 212.834,1206.34 
  "/>
<polyline clip-path="url(#clip590)" style="stroke:#000000; stroke-linecap:butt; stroke-linejoin:round; stroke-width:4; stroke-opacity:1; fill:none" points="
  193.936,940.316 212.834,940.316 
  "/>
<polyline clip-path="url(#clip590)" style="stroke:#000000; stroke-linecap:butt; stroke-linejoin:round; stroke-width:4; stroke-opacity:1; fill:none" points="
  193.936,674.293 212.834,674.293 
  "/>
<polyline clip-path="url(#clip590)" style="stroke:#000000; stroke-linecap:butt; stroke-linejoin:round; stroke-width:4; stroke-opacity:1; fill:none" points="
  193.936,408.271 212.834,408.271 
  "/>
<polyline clip-path="url(#clip590)" style="stroke:#000000; stroke-linecap:butt; stroke-linejoin:round; stroke-width:4; stroke-opacity:1; fill:none" points="
  193.936,142.248 212.834,142.248 
  "/>
<path clip-path="url(#clip590)" d="M50.9921 1472.81 L80.6679 1472.81 L80.6679 1476.75 L50.9921 1476.75 L50.9921 1472.81 Z" fill="#000000" fill-rule="evenodd" fill-opacity="1" /><path clip-path="url(#clip590)" d="M91.5706 1485.71 L99.2095 1485.71 L99.2095 1459.34 L90.8993 1461.01 L90.8993 1456.75 L99.1632 1455.08 L103.839 1455.08 L103.839 1485.71 L111.478 1485.71 L111.478 1489.64 L91.5706 1489.64 L91.5706 1485.71 Z" fill="#000000" fill-rule="evenodd" fill-opacity="1" /><path clip-path="url(#clip590)" d="M120.922 1483.76 L125.807 1483.76 L125.807 1489.64 L120.922 1489.64 L120.922 1483.76 Z" fill="#000000" fill-rule="evenodd" fill-opacity="1" /><path clip-path="url(#clip590)" d="M145.992 1458.16 Q142.381 1458.16 140.552 1461.72 Q138.746 1465.27 138.746 1472.4 Q138.746 1479.5 140.552 1483.07 Q142.381 1486.61 145.992 1486.61 Q149.626 1486.61 151.431 1483.07 Q153.26 1479.5 153.26 1472.4 Q153.26 1465.27 151.431 1461.72 Q149.626 1458.16 145.992 1458.16 M145.992 1454.46 Q151.802 1454.46 154.857 1459.06 Q157.936 1463.65 157.936 1472.4 Q157.936 1481.12 154.857 1485.73 Q151.802 1490.31 145.992 1490.31 Q140.181 1490.31 137.103 1485.73 Q134.047 1481.12 134.047 1472.4 Q134.047 1463.65 137.103 1459.06 Q140.181 1454.46 145.992 1454.46 Z" fill="#000000" fill-rule="evenodd" fill-opacity="1" /><path clip-path="url(#clip590)" d="M51.9875 1206.79 L81.6633 1206.79 L81.6633 1210.72 L51.9875 1210.72 L51.9875 1206.79 Z" fill="#000000" fill-rule="evenodd" fill-opacity="1" /><path clip-path="url(#clip590)" d="M101.756 1192.14 Q98.1447 1192.14 96.316 1195.7 Q94.5104 1199.24 94.5104 1206.37 Q94.5104 1213.48 96.316 1217.04 Q98.1447 1220.59 101.756 1220.59 Q105.39 1220.59 107.196 1217.04 Q109.024 1213.48 109.024 1206.37 Q109.024 1199.24 107.196 1195.7 Q105.39 1192.14 101.756 1192.14 M101.756 1188.43 Q107.566 1188.43 110.621 1193.04 Q113.7 1197.62 113.7 1206.37 Q113.7 1215.1 110.621 1219.71 Q107.566 1224.29 101.756 1224.29 Q95.9456 1224.29 92.8669 1219.71 Q89.8114 1215.1 89.8114 1206.37 Q89.8114 1197.62 92.8669 1193.04 Q95.9456 1188.43 101.756 1188.43 Z" fill="#000000" fill-rule="evenodd" fill-opacity="1" /><path clip-path="url(#clip590)" d="M121.918 1217.74 L126.802 1217.74 L126.802 1223.62 L121.918 1223.62 L121.918 1217.74 Z" fill="#000000" fill-rule="evenodd" fill-opacity="1" /><path clip-path="url(#clip590)" d="M137.033 1189.06 L155.39 1189.06 L155.39 1192.99 L141.316 1192.99 L141.316 1201.47 Q142.334 1201.12 143.353 1200.96 Q144.371 1200.77 145.39 1200.77 Q151.177 1200.77 154.556 1203.94 Q157.936 1207.11 157.936 1212.53 Q157.936 1218.11 154.464 1221.21 Q150.992 1224.29 144.672 1224.29 Q142.496 1224.29 140.228 1223.92 Q137.982 1223.55 135.575 1222.81 L135.575 1218.11 Q137.658 1219.24 139.881 1219.8 Q142.103 1220.35 144.58 1220.35 Q148.584 1220.35 150.922 1218.25 Q153.26 1216.14 153.26 1212.53 Q153.26 1208.92 150.922 1206.81 Q148.584 1204.71 144.58 1204.71 Q142.705 1204.71 140.83 1205.12 Q138.978 1205.54 137.033 1206.42 L137.033 1189.06 Z" fill="#000000" fill-rule="evenodd" fill-opacity="1" /><path clip-path="url(#clip590)" d="M100.76 926.115 Q97.1493 926.115 95.3206 929.679 Q93.515 933.221 93.515 940.351 Q93.515 947.457 95.3206 951.022 Q97.1493 954.563 100.76 954.563 Q104.395 954.563 106.2 951.022 Q108.029 947.457 108.029 940.351 Q108.029 933.221 106.2 929.679 Q104.395 926.115 100.76 926.115 M100.76 922.411 Q106.571 922.411 109.626 927.017 Q112.705 931.601 112.705 940.351 Q112.705 949.077 109.626 953.684 Q106.571 958.267 100.76 958.267 Q94.9502 958.267 91.8715 953.684 Q88.816 949.077 88.816 940.351 Q88.816 931.601 91.8715 927.017 Q94.9502 922.411 100.76 922.411 Z" fill="#000000" fill-rule="evenodd" fill-opacity="1" /><path clip-path="url(#clip590)" d="M120.922 951.716 L125.807 951.716 L125.807 957.596 L120.922 957.596 L120.922 951.716 Z" fill="#000000" fill-rule="evenodd" fill-opacity="1" /><path clip-path="url(#clip590)" d="M145.992 926.115 Q142.381 926.115 140.552 929.679 Q138.746 933.221 138.746 940.351 Q138.746 947.457 140.552 951.022 Q142.381 954.563 145.992 954.563 Q149.626 954.563 151.431 951.022 Q153.26 947.457 153.26 940.351 Q153.26 933.221 151.431 929.679 Q149.626 926.115 145.992 926.115 M145.992 922.411 Q151.802 922.411 154.857 927.017 Q157.936 931.601 157.936 940.351 Q157.936 949.077 154.857 953.684 Q151.802 958.267 145.992 958.267 Q140.181 958.267 137.103 953.684 Q134.047 949.077 134.047 940.351 Q134.047 931.601 137.103 927.017 Q140.181 922.411 145.992 922.411 Z" fill="#000000" fill-rule="evenodd" fill-opacity="1" /><path clip-path="url(#clip590)" d="M101.756 660.092 Q98.1447 660.092 96.316 663.657 Q94.5104 667.198 94.5104 674.328 Q94.5104 681.434 96.316 684.999 Q98.1447 688.541 101.756 688.541 Q105.39 688.541 107.196 684.999 Q109.024 681.434 109.024 674.328 Q109.024 667.198 107.196 663.657 Q105.39 660.092 101.756 660.092 M101.756 656.388 Q107.566 656.388 110.621 660.995 Q113.7 665.578 113.7 674.328 Q113.7 683.055 110.621 687.661 Q107.566 692.245 101.756 692.245 Q95.9456 692.245 92.8669 687.661 Q89.8114 683.055 89.8114 674.328 Q89.8114 665.578 92.8669 660.995 Q95.9456 656.388 101.756 656.388 Z" fill="#000000" fill-rule="evenodd" fill-opacity="1" /><path clip-path="url(#clip590)" d="M121.918 685.694 L126.802 685.694 L126.802 691.573 L121.918 691.573 L121.918 685.694 Z" fill="#000000" fill-rule="evenodd" fill-opacity="1" /><path clip-path="url(#clip590)" d="M137.033 657.013 L155.39 657.013 L155.39 660.948 L141.316 660.948 L141.316 669.421 Q142.334 669.073 143.353 668.911 Q144.371 668.726 145.39 668.726 Q151.177 668.726 154.556 671.898 Q157.936 675.069 157.936 680.485 Q157.936 686.064 154.464 689.166 Q150.992 692.245 144.672 692.245 Q142.496 692.245 140.228 691.874 Q137.982 691.504 135.575 690.763 L135.575 686.064 Q137.658 687.198 139.881 687.754 Q142.103 688.309 144.58 688.309 Q148.584 688.309 150.922 686.203 Q153.26 684.097 153.26 680.485 Q153.26 676.874 150.922 674.768 Q148.584 672.661 144.58 672.661 Q142.705 672.661 140.83 673.078 Q138.978 673.495 137.033 674.374 L137.033 657.013 Z" fill="#000000" fill-rule="evenodd" fill-opacity="1" /><path clip-path="url(#clip590)" d="M91.5706 421.616 L99.2095 421.616 L99.2095 395.25 L90.8993 396.917 L90.8993 392.657 L99.1632 390.991 L103.839 390.991 L103.839 421.616 L111.478 421.616 L111.478 425.551 L91.5706 425.551 L91.5706 421.616 Z" fill="#000000" fill-rule="evenodd" fill-opacity="1" /><path clip-path="url(#clip590)" d="M120.922 419.671 L125.807 419.671 L125.807 425.551 L120.922 425.551 L120.922 419.671 Z" fill="#000000" fill-rule="evenodd" fill-opacity="1" /><path clip-path="url(#clip590)" d="M145.992 394.069 Q142.381 394.069 140.552 397.634 Q138.746 401.176 138.746 408.306 Q138.746 415.412 140.552 418.977 Q142.381 422.518 145.992 422.518 Q149.626 422.518 151.431 418.977 Q153.26 415.412 153.26 408.306 Q153.26 401.176 151.431 397.634 Q149.626 394.069 145.992 394.069 M145.992 390.366 Q151.802 390.366 154.857 394.972 Q157.936 399.556 157.936 408.306 Q157.936 417.032 154.857 421.639 Q151.802 426.222 145.992 426.222 Q140.181 426.222 137.103 421.639 Q134.047 417.032 134.047 408.306 Q134.047 399.556 137.103 394.972 Q140.181 390.366 145.992 390.366 Z" fill="#000000" fill-rule="evenodd" fill-opacity="1" /><path clip-path="url(#clip590)" d="M92.566 155.593 L100.205 155.593 L100.205 129.228 L91.8947 130.894 L91.8947 126.635 L100.159 124.968 L104.834 124.968 L104.834 155.593 L112.473 155.593 L112.473 159.528 L92.566 159.528 L92.566 155.593 Z" fill="#000000" fill-rule="evenodd" fill-opacity="1" /><path clip-path="url(#clip590)" d="M121.918 153.649 L126.802 153.649 L126.802 159.528 L121.918 159.528 L121.918 153.649 Z" fill="#000000" fill-rule="evenodd" fill-opacity="1" /><path clip-path="url(#clip590)" d="M137.033 124.968 L155.39 124.968 L155.39 128.903 L141.316 128.903 L141.316 137.376 Q142.334 137.028 143.353 136.866 Q144.371 136.681 145.39 136.681 Q151.177 136.681 154.556 139.852 Q157.936 143.024 157.936 148.44 Q157.936 154.019 154.464 157.121 Q150.992 160.2 144.672 160.2 Q142.496 160.2 140.228 159.829 Q137.982 159.459 135.575 158.718 L135.575 154.019 Q137.658 155.153 139.881 155.709 Q142.103 156.264 144.58 156.264 Q148.584 156.264 150.922 154.158 Q153.26 152.051 153.26 148.44 Q153.26 144.829 150.922 142.723 Q148.584 140.616 144.58 140.616 Q142.705 140.616 140.83 141.033 Q138.978 141.45 137.033 142.329 L137.033 124.968 Z" fill="#000000" fill-rule="evenodd" fill-opacity="1" /><path clip-path="url(#clip590)" d="M1016.15 44.2197 Q1018.79 45.1109 1021.26 48.0275 Q1023.77 50.9442 1026.28 56.0483 L1034.59 72.576 L1025.8 72.576 L1018.06 57.061 Q1015.06 50.9847 1012.22 48.9997 Q1009.43 47.0148 1004.57 47.0148 L995.656 47.0148 L995.656 72.576 L987.474 72.576 L987.474 12.096 L1005.95 12.096 Q1016.32 12.096 1021.42 16.4305 Q1026.52 20.7649 1026.52 29.5149 Q1026.52 35.2267 1023.85 38.994 Q1021.22 42.7613 1016.15 44.2197 M995.656 18.8205 L995.656 40.2903 L1005.95 40.2903 Q1011.86 40.2903 1014.86 37.5762 Q1017.9 34.8216 1017.9 29.5149 Q1017.9 24.2082 1014.86 21.5346 Q1011.86 18.8205 1005.95 18.8205 L995.656 18.8205 Z" fill="#000000" fill-rule="evenodd" fill-opacity="1" /><path clip-path="url(#clip590)" d="M1058.65 32.4315 Q1052.65 32.4315 1049.17 37.1306 Q1045.69 41.7891 1045.69 49.9314 Q1045.69 58.0738 1049.13 62.7728 Q1052.61 67.4314 1058.65 67.4314 Q1064.6 67.4314 1068.09 62.7323 Q1071.57 58.0333 1071.57 49.9314 Q1071.57 41.8701 1068.09 37.1711 Q1064.6 32.4315 1058.65 32.4315 M1058.65 26.1121 Q1068.37 26.1121 1073.92 32.4315 Q1079.47 38.7509 1079.47 49.9314 Q1079.47 61.0714 1073.92 67.4314 Q1068.37 73.7508 1058.65 73.7508 Q1048.89 73.7508 1043.34 67.4314 Q1037.83 61.0714 1037.83 49.9314 Q1037.83 38.7509 1043.34 32.4315 Q1048.89 26.1121 1058.65 26.1121 Z" fill="#000000" fill-rule="evenodd" fill-opacity="1" /><path clip-path="url(#clip590)" d="M1091.82 9.54393 L1099.28 9.54393 L1099.28 72.576 L1091.82 72.576 L1091.82 9.54393 Z" fill="#000000" fill-rule="evenodd" fill-opacity="1" /><path clip-path="url(#clip590)" d="M1114.87 9.54393 L1122.33 9.54393 L1122.33 72.576 L1114.87 72.576 L1114.87 9.54393 Z" fill="#000000" fill-rule="evenodd" fill-opacity="1" /><path clip-path="url(#clip590)" d="M1137.92 27.2059 L1145.38 27.2059 L1145.38 72.576 L1137.92 72.576 L1137.92 27.2059 M1137.92 9.54393 L1145.38 9.54393 L1145.38 18.9825 L1137.92 18.9825 L1137.92 9.54393 Z" fill="#000000" fill-rule="evenodd" fill-opacity="1" /><path clip-path="url(#clip590)" d="M1198.69 45.1919 L1198.69 72.576 L1191.23 72.576 L1191.23 45.4349 Q1191.23 38.994 1188.72 35.7938 Q1186.21 32.5936 1181.19 32.5936 Q1175.15 32.5936 1171.67 36.4419 Q1168.18 40.2903 1168.18 46.9338 L1168.18 72.576 L1160.69 72.576 L1160.69 27.2059 L1168.18 27.2059 L1168.18 34.2544 Q1170.86 30.163 1174.46 28.1376 Q1178.11 26.1121 1182.85 26.1121 Q1190.67 26.1121 1194.68 30.9732 Q1198.69 35.7938 1198.69 45.1919 Z" fill="#000000" fill-rule="evenodd" fill-opacity="1" /><path clip-path="url(#clip590)" d="M1243.41 49.3643 Q1243.41 41.2625 1240.05 36.8065 Q1236.73 32.3505 1230.69 32.3505 Q1224.69 32.3505 1221.33 36.8065 Q1218.01 41.2625 1218.01 49.3643 Q1218.01 57.4256 1221.33 61.8816 Q1224.69 66.3376 1230.69 66.3376 Q1236.73 66.3376 1240.05 61.8816 Q1243.41 57.4256 1243.41 49.3643 M1250.86 66.9452 Q1250.86 78.5308 1245.72 84.1616 Q1240.57 89.8329 1229.96 89.8329 Q1226.03 89.8329 1222.55 89.2252 Q1219.06 88.6581 1215.78 87.4428 L1215.78 80.1917 Q1219.06 81.9741 1222.26 82.8248 Q1225.46 83.6755 1228.79 83.6755 Q1236.12 83.6755 1239.76 79.8271 Q1243.41 76.0193 1243.41 68.282 L1243.41 64.5957 Q1241.1 68.6061 1237.5 70.5911 Q1233.89 72.576 1228.87 72.576 Q1220.52 72.576 1215.42 66.2161 Q1210.31 59.8562 1210.31 49.3643 Q1210.31 38.832 1215.42 32.472 Q1220.52 26.1121 1228.87 26.1121 Q1233.89 26.1121 1237.5 28.0971 Q1241.1 30.082 1243.41 34.0924 L1243.41 27.2059 L1250.86 27.2059 L1250.86 66.9452 Z" fill="#000000" fill-rule="evenodd" fill-opacity="1" /><path clip-path="url(#clip590)" d="M1327.91 35.9153 Q1330.71 30.8922 1334.6 28.5022 Q1338.48 26.1121 1343.75 26.1121 Q1350.84 26.1121 1354.69 31.0947 Q1358.54 36.0368 1358.54 45.1919 L1358.54 72.576 L1351.04 72.576 L1351.04 45.4349 Q1351.04 38.913 1348.73 35.7533 Q1346.42 32.5936 1341.68 32.5936 Q1335.89 32.5936 1332.53 36.4419 Q1329.17 40.2903 1329.17 46.9338 L1329.17 72.576 L1321.67 72.576 L1321.67 45.4349 Q1321.67 38.8725 1319.36 35.7533 Q1317.06 32.5936 1312.23 32.5936 Q1306.52 32.5936 1303.16 36.4824 Q1299.8 40.3308 1299.8 46.9338 L1299.8 72.576 L1292.3 72.576 L1292.3 27.2059 L1299.8 27.2059 L1299.8 34.2544 Q1302.35 30.082 1305.92 28.0971 Q1309.48 26.1121 1314.38 26.1121 Q1319.32 26.1121 1322.77 28.6237 Q1326.25 31.1352 1327.91 35.9153 Z" fill="#000000" fill-rule="evenodd" fill-opacity="1" /><path clip-path="url(#clip590)" d="M1412.21 48.0275 L1412.21 51.6733 L1377.94 51.6733 Q1378.43 59.3701 1382.56 63.421 Q1386.73 67.4314 1394.14 67.4314 Q1398.44 67.4314 1402.45 66.3781 Q1406.5 65.3249 1410.47 63.2184 L1410.47 70.267 Q1406.46 71.9684 1402.25 72.8596 Q1398.03 73.7508 1393.7 73.7508 Q1382.84 73.7508 1376.48 67.4314 Q1370.16 61.1119 1370.16 50.3365 Q1370.16 39.1965 1376.16 32.6746 Q1382.19 26.1121 1392.4 26.1121 Q1401.56 26.1121 1406.86 32.0264 Q1412.21 37.9003 1412.21 48.0275 M1404.76 45.84 Q1404.68 39.7232 1401.31 36.0774 Q1397.99 32.4315 1392.48 32.4315 Q1386.24 32.4315 1382.48 35.9558 Q1378.75 39.4801 1378.18 45.8805 L1404.76 45.84 Z" fill="#000000" fill-rule="evenodd" fill-opacity="1" /><path clip-path="url(#clip590)" d="M1445.06 49.7694 Q1436.03 49.7694 1432.55 51.8354 Q1429.06 53.9013 1429.06 58.8839 Q1429.06 62.8538 1431.66 65.2034 Q1434.29 67.5124 1438.78 67.5124 Q1444.98 67.5124 1448.71 63.1374 Q1452.48 58.7219 1452.48 51.4303 L1452.48 49.7694 L1445.06 49.7694 M1459.93 46.6907 L1459.93 72.576 L1452.48 72.576 L1452.48 65.6895 Q1449.92 69.8214 1446.12 71.8063 Q1442.31 73.7508 1436.8 73.7508 Q1429.83 73.7508 1425.7 69.8619 Q1421.61 65.9325 1421.61 59.3701 Q1421.61 51.7138 1426.71 47.825 Q1431.86 43.9361 1442.03 43.9361 L1452.48 43.9361 L1452.48 43.2069 Q1452.48 38.0623 1449.07 35.2672 Q1445.71 32.4315 1439.6 32.4315 Q1435.71 32.4315 1432.02 33.3632 Q1428.33 34.295 1424.93 36.1584 L1424.93 29.2718 Q1429.02 27.692 1432.87 26.9223 Q1436.72 26.1121 1440.36 26.1121 Q1450.21 26.1121 1455.07 31.2163 Q1459.93 36.3204 1459.93 46.6907 Z" fill="#000000" fill-rule="evenodd" fill-opacity="1" /><path clip-path="url(#clip590)" d="M1513 45.1919 L1513 72.576 L1505.54 72.576 L1505.54 45.4349 Q1505.54 38.994 1503.03 35.7938 Q1500.52 32.5936 1495.5 32.5936 Q1489.46 32.5936 1485.98 36.4419 Q1482.49 40.2903 1482.49 46.9338 L1482.49 72.576 L1475 72.576 L1475 27.2059 L1482.49 27.2059 L1482.49 34.2544 Q1485.17 30.163 1488.77 28.1376 Q1492.42 26.1121 1497.16 26.1121 Q1504.98 26.1121 1508.99 30.9732 Q1513 35.7938 1513 45.1919 Z" fill="#000000" fill-rule="evenodd" fill-opacity="1" /><path clip-path="url(#clip590)" d="M1556.79 28.5427 L1556.79 35.5912 Q1553.63 33.9709 1550.23 33.1607 Q1546.82 32.3505 1543.18 32.3505 Q1537.63 32.3505 1534.83 34.0519 Q1532.08 35.7533 1532.08 39.156 Q1532.08 41.7486 1534.06 43.2475 Q1536.05 44.7058 1542.04 46.0426 L1544.59 46.6097 Q1552.53 48.3111 1555.86 51.4303 Q1559.22 54.509 1559.22 60.0587 Q1559.22 66.3781 1554.2 70.0644 Q1549.21 73.7508 1540.46 73.7508 Q1536.82 73.7508 1532.85 73.0216 Q1528.92 72.3329 1524.54 70.9151 L1524.54 63.2184 Q1528.67 65.3654 1532.68 66.4591 Q1536.7 67.5124 1540.62 67.5124 Q1545.89 67.5124 1548.73 65.73 Q1551.56 63.9071 1551.56 60.6258 Q1551.56 57.5877 1549.5 55.9673 Q1547.47 54.3469 1540.54 52.8481 L1537.95 52.2405 Q1531.02 50.7821 1527.95 47.7845 Q1524.87 44.7463 1524.87 39.4801 Q1524.87 33.0797 1529.4 29.5959 Q1533.94 26.1121 1542.29 26.1121 Q1546.42 26.1121 1550.06 26.7198 Q1553.71 27.3274 1556.79 28.5427 Z" fill="#000000" fill-rule="evenodd" fill-opacity="1" /><polyline clip-path="url(#clip592)" style="stroke:#009af9; stroke-linecap:butt; stroke-linejoin:round; stroke-width:4; stroke-opacity:1; fill:none" points="
  255.035,297.927 275.607,326.775 296.179,363.114 316.751,227.573 337.322,331.37 357.894,298.036 378.466,295.511 399.038,318.073 419.61,198.831 440.182,205.921 
  460.754,438.14 481.326,393.197 501.898,295.53 522.47,338.944 543.042,512.507 563.614,330.805 584.186,498.438 604.758,440.909 625.33,479.387 645.902,696.58 
  666.474,531.722 687.046,769.603 707.617,627.969 728.189,740.284 748.761,891.788 769.333,789.125 789.905,888.952 810.477,1093.8 831.049,1094.89 851.621,1019.16 
  872.193,1069.83 892.765,1263.01 913.337,1140.76 933.909,1171.05 954.481,1275.64 975.053,1338.14 995.625,1378.43 1016.2,1299.14 1036.77,1376.36 1057.34,1283.49 
  1077.91,1447.87 1098.48,1444.79 1119.06,1444.11 1139.63,1302.26 1160.2,1311.36 1180.77,1315.67 1201.34,1350.6 1221.92,1349.53 1242.49,1161.65 1263.06,1287.77 
  1283.63,1110.55 1304.2,1189.12 1324.78,1071 1345.35,941.165 1365.92,938.785 1386.49,881.23 1407.06,880.986 1427.64,874.054 1448.21,716.99 1468.78,694.936 
  1489.35,648.767 1509.92,734.593 1530.5,749.227 1551.07,681.712 1571.64,431.372 1592.21,487.034 1612.78,429.077 1633.35,397.427 1653.93,270.84 1674.5,349.789 
  1695.07,435.969 1715.64,274.597 1736.21,411.827 1756.79,162.047 1777.36,363.001 1797.93,396.56 1818.5,340.071 1839.07,219.208 1859.65,314.525 1880.22,185.692 
  1900.79,312.403 1921.36,212.311 1941.93,267.722 1962.51,425.751 1983.08,525.014 2003.65,447.648 2024.22,567.08 2044.79,586.179 2065.37,676.574 2085.94,663.168 
  2106.51,584.555 2127.08,609.183 2147.65,890.791 2168.23,743.987 2188.8,856.834 2209.37,885.097 2229.94,857.75 2250.51,1082.57 2271.09,983.208 2291.66,995.822 
  
  "/>
<polyline clip-path="url(#clip592)" style="stroke:#e26f46; stroke-linecap:butt; stroke-linejoin:round; stroke-width:8; stroke-opacity:1; fill:none" points="
  337.322,309.352 357.894,309.374 378.466,303.121 399.038,294.113 419.61,288.364 440.182,263.274 460.754,291.295 481.326,310.832 501.898,306.324 522.47,334.346 
  543.042,395.663 563.614,374.196 584.186,395.245 604.758,424.321 625.33,452.409 645.902,489.224 666.474,529.407 687.046,583.64 707.617,621.052 728.189,673.232 
  748.761,712.273 769.333,763.754 789.905,787.624 810.477,880.79 831.049,951.711 851.621,977.185 872.193,1033.32 892.765,1108.14 913.337,1117.53 933.909,1132.76 
  954.481,1184.06 975.053,1237.72 995.625,1260.8 1016.2,1292.48 1036.77,1333.54 1057.34,1335.11 1077.91,1357.06 1098.48,1370.33 1119.06,1399.33 1139.63,1384.51 
  1160.2,1390.08 1180.77,1363.64 1201.34,1344.8 1221.92,1325.88 1242.49,1297.76 1263.06,1293.04 1283.63,1252.02 1304.2,1219.72 1324.78,1164.02 1345.35,1119.92 
  1365.92,1050.12 1386.49,1004.26 1407.06,942.634 1427.64,903.244 1448.21,858.409 1468.78,809.639 1489.35,763.147 1509.92,733.868 1530.5,708.903 1551.07,701.847 
  1571.64,649.134 1592.21,616.788 1612.78,555.684 1633.35,485.324 1653.93,403.15 1674.5,386.833 1695.07,376.62 1715.64,345.724 1736.21,348.604 1756.79,326.846 
  1777.36,329.488 1797.93,321.606 1818.5,334.701 1839.07,296.177 1859.65,326.673 1880.22,291.211 1900.79,274.38 1921.36,248.828 1941.93,258.531 1962.51,280.776 
  1983.08,348.64 2003.65,375.689 2024.22,446.643 2044.79,510.334 2065.37,560.499 2085.94,588.13 2106.51,615.511 2127.08,623.932 2147.65,684.854 2168.23,698.337 
  2188.8,737.07 2209.37,797.178 2229.94,846.892 2250.51,885.247 2271.09,933.091 2291.66,960.889 
  "/>
<polyline clip-path="url(#clip592)" style="stroke:#3da44d; stroke-linecap:butt; stroke-linejoin:round; stroke-width:8; stroke-opacity:1; fill:none" points="
  440.182,286.313 460.754,300.334 481.326,306.977 501.898,300.218 522.47,311.355 543.042,329.469 563.614,332.746 584.186,353.039 604.758,365.322 625.33,393.378 
  645.902,442.444 666.474,451.802 687.046,489.442 707.617,522.686 728.189,562.82 748.761,600.749 769.333,646.581 789.905,685.632 810.477,750.921 831.049,812.471 
  851.621,844.729 872.193,898.539 892.765,947.88 913.337,999.16 933.909,1042.24 954.481,1080.62 975.053,1135.52 995.625,1184.47 1016.2,1205 1036.77,1233.15 
  1057.34,1259.58 1077.91,1297.39 1098.48,1315.57 1119.06,1345.9 1139.63,1359.02 1160.2,1362.6 1180.77,1360.35 1201.34,1357.57 1221.92,1362.61 1242.49,1341.13 
  1263.06,1341.56 1283.63,1307.83 1304.2,1282.26 1324.78,1244.95 1345.35,1208.84 1365.92,1171.58 1386.49,1128.14 1407.06,1081.18 1427.64,1033.63 1448.21,989.165 
  1468.78,929.881 1489.35,883.703 1509.92,838.251 1530.5,806.073 1551.07,780.128 1571.64,729.387 1592.21,689.967 1612.78,644.776 1633.35,597.114 1653.93,552.499 
  1674.5,517.984 1695.07,496.704 1715.64,450.704 1736.21,416.964 1756.79,364.998 1777.36,358.161 1797.93,349.113 1818.5,340.213 1839.07,322.391 1859.65,326.759 
  1880.22,310.35 1900.79,297.993 1921.36,291.765 1941.93,277.354 1962.51,303.724 1983.08,319.926 2003.65,325.035 2024.22,347.736 2044.79,384.433 2065.37,420.637 
  2085.94,468.385 2106.51,495.6 2127.08,535.287 2147.65,597.594 2168.23,629.418 2188.8,662.6 2209.37,706.345 2229.94,735.412 2250.51,785.051 2271.09,815.714 
  2291.66,848.979 
  "/>
<polyline clip-path="url(#clip592)" style="stroke:#c271d2; stroke-linecap:butt; stroke-linejoin:round; stroke-width:8; stroke-opacity:1; fill:none" points="
  645.902,364.378 666.474,376.068 687.046,398.21 707.617,411.452 728.189,437.088 748.761,465.109 769.333,489.663 789.905,519.335 810.477,558.122 831.049,602.924 
  851.621,643.586 872.193,675.171 892.765,718.661 913.337,760.923 933.909,802.528 954.481,840.685 975.053,891.052 995.625,935.051 1016.2,977.963 1036.77,1022.81 
  1057.34,1052.16 1077.91,1097.96 1098.48,1131.72 1119.06,1172.53 1139.63,1200.63 1160.2,1221.61 1180.77,1247.94 1201.34,1271.02 1221.92,1283.8 1242.49,1287.14 
  1263.06,1300.57 1283.63,1302.61 1304.2,1298.91 1324.78,1295.43 1345.35,1283.93 1365.92,1267.09 1386.49,1244.24 1407.06,1219.37 1427.64,1198.12 1448.21,1165.15 
  1468.78,1135.72 1489.35,1095.77 1509.92,1060.26 1530.5,1025.51 1551.07,994.485 1571.64,950.485 1592.21,909.053 1612.78,862.977 1633.35,815.372 1653.93,770.832 
  1674.5,723.933 1695.07,690.204 1715.64,644.478 1736.21,611.519 1756.79,572.563 1777.36,543.774 1797.93,519.54 1818.5,492.495 1839.07,459.752 1859.65,439.629 
  1880.22,414.167 1900.79,397.349 1921.36,371.234 1941.93,347.159 1962.51,334.361 1983.08,339.043 2003.65,337.074 2024.22,343.974 2044.79,353.412 2065.37,373.698 
  2085.94,389.367 2106.51,396.797 2127.08,413.526 2147.65,437.474 2168.23,466.571 2188.8,491.263 2209.37,515.69 2229.94,541.574 2250.51,584.742 2271.09,618.176 
  2291.66,658.682 
  "/>
<path clip-path="url(#clip590)" d="
M1838.54 428.105 L2280.8 428.105 L2280.8 168.905 L1838.54 168.905  Z
  " fill="#ffffff" fill-rule="evenodd" fill-opacity="1"/>
<polyline clip-path="url(#clip590)" style="stroke:#000000; stroke-linecap:butt; stroke-linejoin:round; stroke-width:4; stroke-opacity:1; fill:none" points="
  1838.54,428.105 2280.8,428.105 2280.8,168.905 1838.54,168.905 1838.54,428.105 
  "/>
<polyline clip-path="url(#clip590)" style="stroke:#009af9; stroke-linecap:butt; stroke-linejoin:round; stroke-width:4; stroke-opacity:1; fill:none" points="
  1862.53,220.745 2006.45,220.745 
  "/>
<path clip-path="url(#clip590)" d="M2045.62 216.08 Q2044.91 215.664 2044.05 215.478 Q2043.22 215.27 2042.2 215.27 Q2038.59 215.27 2036.64 217.631 Q2034.72 219.969 2034.72 224.367 L2034.72 238.025 L2030.44 238.025 L2030.44 212.099 L2034.72 212.099 L2034.72 216.127 Q2036.06 213.766 2038.22 212.631 Q2040.37 211.474 2043.45 211.474 Q2043.89 211.474 2044.42 211.543 Q2044.95 211.59 2045.6 211.705 L2045.62 216.08 Z" fill="#000000" fill-rule="evenodd" fill-opacity="1" /><path clip-path="url(#clip590)" d="M2061.87 224.992 Q2056.71 224.992 2054.72 226.173 Q2052.73 227.353 2052.73 230.201 Q2052.73 232.469 2054.21 233.812 Q2055.72 235.131 2058.29 235.131 Q2061.83 235.131 2063.96 232.631 Q2066.11 230.108 2066.11 225.941 L2066.11 224.992 L2061.87 224.992 M2070.37 223.233 L2070.37 238.025 L2066.11 238.025 L2066.11 234.089 Q2064.65 236.451 2062.48 237.585 Q2060.3 238.696 2057.15 238.696 Q2053.17 238.696 2050.81 236.474 Q2048.47 234.228 2048.47 230.478 Q2048.47 226.103 2051.39 223.881 Q2054.33 221.659 2060.14 221.659 L2066.11 221.659 L2066.11 221.242 Q2066.11 218.303 2064.16 216.705 Q2062.24 215.085 2058.75 215.085 Q2056.53 215.085 2054.42 215.617 Q2052.31 216.15 2050.37 217.215 L2050.37 213.279 Q2052.71 212.377 2054.91 211.937 Q2057.1 211.474 2059.19 211.474 Q2064.81 211.474 2067.59 214.391 Q2070.37 217.307 2070.37 223.233 Z" fill="#000000" fill-rule="evenodd" fill-opacity="1" /><path clip-path="url(#clip590)" d="M2076.66 212.099 L2080.92 212.099 L2086.25 232.33 L2091.55 212.099 L2096.57 212.099 L2101.9 232.33 L2107.2 212.099 L2111.46 212.099 L2104.67 238.025 L2099.65 238.025 L2094.07 216.775 L2088.47 238.025 L2083.45 238.025 L2076.66 212.099 Z" fill="#000000" fill-rule="evenodd" fill-opacity="1" /><polyline clip-path="url(#clip590)" style="stroke:#e26f46; stroke-linecap:butt; stroke-linejoin:round; stroke-width:4; stroke-opacity:1; fill:none" points="
  1862.53,272.585 2006.45,272.585 
  "/>
<path clip-path="url(#clip590)" d="M2050.79 268.916 Q2052.38 266.045 2054.6 264.68 Q2056.83 263.314 2059.84 263.314 Q2063.89 263.314 2066.09 266.161 Q2068.29 268.985 2068.29 274.217 L2068.29 289.865 L2064 289.865 L2064 274.355 Q2064 270.629 2062.68 268.823 Q2061.36 267.018 2058.66 267.018 Q2055.35 267.018 2053.42 269.217 Q2051.5 271.416 2051.5 275.212 L2051.5 289.865 L2047.22 289.865 L2047.22 274.355 Q2047.22 270.605 2045.9 268.823 Q2044.58 267.018 2041.83 267.018 Q2038.56 267.018 2036.64 269.24 Q2034.72 271.439 2034.72 275.212 L2034.72 289.865 L2030.44 289.865 L2030.44 263.939 L2034.72 263.939 L2034.72 267.967 Q2036.18 265.582 2038.22 264.448 Q2040.25 263.314 2043.05 263.314 Q2045.88 263.314 2047.85 264.749 Q2049.84 266.184 2050.79 268.916 Z" fill="#000000" fill-rule="evenodd" fill-opacity="1" /><path clip-path="url(#clip590)" d="M2098.96 275.837 L2098.96 277.92 L2079.37 277.92 Q2079.65 282.318 2082.01 284.633 Q2084.4 286.925 2088.63 286.925 Q2091.09 286.925 2093.38 286.323 Q2095.69 285.721 2097.96 284.517 L2097.96 288.545 Q2095.67 289.517 2093.26 290.027 Q2090.85 290.536 2088.38 290.536 Q2082.17 290.536 2078.54 286.925 Q2074.93 283.314 2074.93 277.156 Q2074.93 270.791 2078.35 267.064 Q2081.8 263.314 2087.64 263.314 Q2092.87 263.314 2095.9 266.693 Q2098.96 270.05 2098.96 275.837 M2094.7 274.587 Q2094.65 271.092 2092.73 269.008 Q2090.83 266.925 2087.68 266.925 Q2084.12 266.925 2081.97 268.939 Q2079.84 270.953 2079.51 274.61 L2094.7 274.587 Z" fill="#000000" fill-rule="evenodd" fill-opacity="1" /><path clip-path="url(#clip590)" d="M2117.73 276.832 Q2112.57 276.832 2110.58 278.013 Q2108.59 279.193 2108.59 282.041 Q2108.59 284.309 2110.07 285.652 Q2111.57 286.971 2114.14 286.971 Q2117.68 286.971 2119.81 284.471 Q2121.97 281.948 2121.97 277.781 L2121.97 276.832 L2117.73 276.832 M2126.22 275.073 L2126.22 289.865 L2121.97 289.865 L2121.97 285.929 Q2120.51 288.291 2118.33 289.425 Q2116.16 290.536 2113.01 290.536 Q2109.03 290.536 2106.66 288.314 Q2104.33 286.068 2104.33 282.318 Q2104.33 277.943 2107.24 275.721 Q2110.18 273.499 2115.99 273.499 L2121.97 273.499 L2121.97 273.082 Q2121.97 270.143 2120.02 268.545 Q2118.1 266.925 2114.6 266.925 Q2112.38 266.925 2110.28 267.457 Q2108.17 267.99 2106.22 269.055 L2106.22 265.119 Q2108.56 264.217 2110.76 263.777 Q2112.96 263.314 2115.04 263.314 Q2120.67 263.314 2123.45 266.231 Q2126.22 269.147 2126.22 275.073 Z" fill="#000000" fill-rule="evenodd" fill-opacity="1" /><path clip-path="url(#clip590)" d="M2156.55 274.217 L2156.55 289.865 L2152.29 289.865 L2152.29 274.355 Q2152.29 270.675 2150.85 268.846 Q2149.42 267.018 2146.55 267.018 Q2143.1 267.018 2141.11 269.217 Q2139.12 271.416 2139.12 275.212 L2139.12 289.865 L2134.84 289.865 L2134.84 263.939 L2139.12 263.939 L2139.12 267.967 Q2140.65 265.629 2142.71 264.471 Q2144.79 263.314 2147.5 263.314 Q2151.97 263.314 2154.26 266.092 Q2156.55 268.846 2156.55 274.217 Z" fill="#000000" fill-rule="evenodd" fill-opacity="1" /><path clip-path="url(#clip590)" d="M2180.76 255.305 L2199.12 255.305 L2199.12 259.24 L2185.04 259.24 L2185.04 267.712 Q2186.06 267.365 2187.08 267.203 Q2188.1 267.018 2189.12 267.018 Q2194.91 267.018 2198.28 270.189 Q2201.66 273.36 2201.66 278.777 Q2201.66 284.355 2198.19 287.457 Q2194.72 290.536 2188.4 290.536 Q2186.22 290.536 2183.96 290.166 Q2181.71 289.795 2179.3 289.054 L2179.3 284.355 Q2181.39 285.49 2183.61 286.045 Q2185.83 286.601 2188.31 286.601 Q2192.31 286.601 2194.65 284.494 Q2196.99 282.388 2196.99 278.777 Q2196.99 275.166 2194.65 273.059 Q2192.31 270.953 2188.31 270.953 Q2186.43 270.953 2184.56 271.369 Q2182.71 271.786 2180.76 272.666 L2180.76 255.305 Z" fill="#000000" fill-rule="evenodd" fill-opacity="1" /><polyline clip-path="url(#clip590)" style="stroke:#3da44d; stroke-linecap:butt; stroke-linejoin:round; stroke-width:4; stroke-opacity:1; fill:none" points="
  1862.53,324.425 2006.45,324.425 
  "/>
<path clip-path="url(#clip590)" d="M2050.79 320.756 Q2052.38 317.885 2054.6 316.52 Q2056.83 315.154 2059.84 315.154 Q2063.89 315.154 2066.09 318.001 Q2068.29 320.825 2068.29 326.057 L2068.29 341.705 L2064 341.705 L2064 326.195 Q2064 322.469 2062.68 320.663 Q2061.36 318.858 2058.66 318.858 Q2055.35 318.858 2053.42 321.057 Q2051.5 323.256 2051.5 327.052 L2051.5 341.705 L2047.22 341.705 L2047.22 326.195 Q2047.22 322.445 2045.9 320.663 Q2044.58 318.858 2041.83 318.858 Q2038.56 318.858 2036.64 321.08 Q2034.72 323.279 2034.72 327.052 L2034.72 341.705 L2030.44 341.705 L2030.44 315.779 L2034.72 315.779 L2034.72 319.807 Q2036.18 317.422 2038.22 316.288 Q2040.25 315.154 2043.05 315.154 Q2045.88 315.154 2047.85 316.589 Q2049.84 318.024 2050.79 320.756 Z" fill="#000000" fill-rule="evenodd" fill-opacity="1" /><path clip-path="url(#clip590)" d="M2098.96 327.677 L2098.96 329.76 L2079.37 329.76 Q2079.65 334.158 2082.01 336.473 Q2084.4 338.765 2088.63 338.765 Q2091.09 338.765 2093.38 338.163 Q2095.69 337.561 2097.96 336.357 L2097.96 340.385 Q2095.67 341.357 2093.26 341.867 Q2090.85 342.376 2088.38 342.376 Q2082.17 342.376 2078.54 338.765 Q2074.93 335.154 2074.93 328.996 Q2074.93 322.631 2078.35 318.904 Q2081.8 315.154 2087.64 315.154 Q2092.87 315.154 2095.9 318.533 Q2098.96 321.89 2098.96 327.677 M2094.7 326.427 Q2094.65 322.932 2092.73 320.848 Q2090.83 318.765 2087.68 318.765 Q2084.12 318.765 2081.97 320.779 Q2079.84 322.793 2079.51 326.45 L2094.7 326.427 Z" fill="#000000" fill-rule="evenodd" fill-opacity="1" /><path clip-path="url(#clip590)" d="M2117.73 328.672 Q2112.57 328.672 2110.58 329.853 Q2108.59 331.033 2108.59 333.881 Q2108.59 336.149 2110.07 337.492 Q2111.57 338.811 2114.14 338.811 Q2117.68 338.811 2119.81 336.311 Q2121.97 333.788 2121.97 329.621 L2121.97 328.672 L2117.73 328.672 M2126.22 326.913 L2126.22 341.705 L2121.97 341.705 L2121.97 337.769 Q2120.51 340.131 2118.33 341.265 Q2116.16 342.376 2113.01 342.376 Q2109.03 342.376 2106.66 340.154 Q2104.33 337.908 2104.33 334.158 Q2104.33 329.783 2107.24 327.561 Q2110.18 325.339 2115.99 325.339 L2121.97 325.339 L2121.97 324.922 Q2121.97 321.983 2120.02 320.385 Q2118.1 318.765 2114.6 318.765 Q2112.38 318.765 2110.28 319.297 Q2108.17 319.83 2106.22 320.895 L2106.22 316.959 Q2108.56 316.057 2110.76 315.617 Q2112.96 315.154 2115.04 315.154 Q2120.67 315.154 2123.45 318.071 Q2126.22 320.987 2126.22 326.913 Z" fill="#000000" fill-rule="evenodd" fill-opacity="1" /><path clip-path="url(#clip590)" d="M2156.55 326.057 L2156.55 341.705 L2152.29 341.705 L2152.29 326.195 Q2152.29 322.515 2150.85 320.686 Q2149.42 318.858 2146.55 318.858 Q2143.1 318.858 2141.11 321.057 Q2139.12 323.256 2139.12 327.052 L2139.12 341.705 L2134.84 341.705 L2134.84 315.779 L2139.12 315.779 L2139.12 319.807 Q2140.65 317.469 2142.71 316.311 Q2144.79 315.154 2147.5 315.154 Q2151.97 315.154 2154.26 317.932 Q2156.55 320.686 2156.55 326.057 Z" fill="#000000" fill-rule="evenodd" fill-opacity="1" /><path clip-path="url(#clip590)" d="M2181.53 337.769 L2189.16 337.769 L2189.16 311.404 L2180.85 313.071 L2180.85 308.811 L2189.12 307.145 L2193.79 307.145 L2193.79 337.769 L2201.43 337.769 L2201.43 341.705 L2181.53 341.705 L2181.53 337.769 Z" fill="#000000" fill-rule="evenodd" fill-opacity="1" /><path clip-path="url(#clip590)" d="M2220.88 310.223 Q2217.27 310.223 2215.44 313.788 Q2213.63 317.33 2213.63 324.459 Q2213.63 331.566 2215.44 335.131 Q2217.27 338.672 2220.88 338.672 Q2224.51 338.672 2226.32 335.131 Q2228.15 331.566 2228.15 324.459 Q2228.15 317.33 2226.32 313.788 Q2224.51 310.223 2220.88 310.223 M2220.88 306.52 Q2226.69 306.52 2229.74 311.126 Q2232.82 315.709 2232.82 324.459 Q2232.82 333.186 2229.74 337.793 Q2226.69 342.376 2220.88 342.376 Q2215.07 342.376 2211.99 337.793 Q2208.93 333.186 2208.93 324.459 Q2208.93 315.709 2211.99 311.126 Q2215.07 306.52 2220.88 306.52 Z" fill="#000000" fill-rule="evenodd" fill-opacity="1" /><polyline clip-path="url(#clip590)" style="stroke:#c271d2; stroke-linecap:butt; stroke-linejoin:round; stroke-width:4; stroke-opacity:1; fill:none" points="
  1862.53,376.265 2006.45,376.265 
  "/>
<path clip-path="url(#clip590)" d="M2050.79 372.596 Q2052.38 369.725 2054.6 368.36 Q2056.83 366.994 2059.84 366.994 Q2063.89 366.994 2066.09 369.841 Q2068.29 372.665 2068.29 377.897 L2068.29 393.545 L2064 393.545 L2064 378.035 Q2064 374.309 2062.68 372.503 Q2061.36 370.698 2058.66 370.698 Q2055.35 370.698 2053.42 372.897 Q2051.5 375.096 2051.5 378.892 L2051.5 393.545 L2047.22 393.545 L2047.22 378.035 Q2047.22 374.285 2045.9 372.503 Q2044.58 370.698 2041.83 370.698 Q2038.56 370.698 2036.64 372.92 Q2034.72 375.119 2034.72 378.892 L2034.72 393.545 L2030.44 393.545 L2030.44 367.619 L2034.72 367.619 L2034.72 371.647 Q2036.18 369.262 2038.22 368.128 Q2040.25 366.994 2043.05 366.994 Q2045.88 366.994 2047.85 368.429 Q2049.84 369.864 2050.79 372.596 Z" fill="#000000" fill-rule="evenodd" fill-opacity="1" /><path clip-path="url(#clip590)" d="M2098.96 379.517 L2098.96 381.6 L2079.37 381.6 Q2079.65 385.998 2082.01 388.313 Q2084.4 390.605 2088.63 390.605 Q2091.09 390.605 2093.38 390.003 Q2095.69 389.401 2097.96 388.197 L2097.96 392.225 Q2095.67 393.197 2093.26 393.707 Q2090.85 394.216 2088.38 394.216 Q2082.17 394.216 2078.54 390.605 Q2074.93 386.994 2074.93 380.836 Q2074.93 374.471 2078.35 370.744 Q2081.8 366.994 2087.64 366.994 Q2092.87 366.994 2095.9 370.373 Q2098.96 373.73 2098.96 379.517 M2094.7 378.267 Q2094.65 374.772 2092.73 372.688 Q2090.83 370.605 2087.68 370.605 Q2084.12 370.605 2081.97 372.619 Q2079.84 374.633 2079.51 378.29 L2094.7 378.267 Z" fill="#000000" fill-rule="evenodd" fill-opacity="1" /><path clip-path="url(#clip590)" d="M2117.73 380.512 Q2112.57 380.512 2110.58 381.693 Q2108.59 382.873 2108.59 385.721 Q2108.59 387.989 2110.07 389.332 Q2111.57 390.651 2114.14 390.651 Q2117.68 390.651 2119.81 388.151 Q2121.97 385.628 2121.97 381.461 L2121.97 380.512 L2117.73 380.512 M2126.22 378.753 L2126.22 393.545 L2121.97 393.545 L2121.97 389.609 Q2120.51 391.971 2118.33 393.105 Q2116.16 394.216 2113.01 394.216 Q2109.03 394.216 2106.66 391.994 Q2104.33 389.748 2104.33 385.998 Q2104.33 381.623 2107.24 379.401 Q2110.18 377.179 2115.99 377.179 L2121.97 377.179 L2121.97 376.762 Q2121.97 373.823 2120.02 372.225 Q2118.1 370.605 2114.6 370.605 Q2112.38 370.605 2110.28 371.137 Q2108.17 371.67 2106.22 372.735 L2106.22 368.799 Q2108.56 367.897 2110.76 367.457 Q2112.96 366.994 2115.04 366.994 Q2120.67 366.994 2123.45 369.911 Q2126.22 372.827 2126.22 378.753 Z" fill="#000000" fill-rule="evenodd" fill-opacity="1" /><path clip-path="url(#clip590)" d="M2156.55 377.897 L2156.55 393.545 L2152.29 393.545 L2152.29 378.035 Q2152.29 374.355 2150.85 372.526 Q2149.42 370.698 2146.55 370.698 Q2143.1 370.698 2141.11 372.897 Q2139.12 375.096 2139.12 378.892 L2139.12 393.545 L2134.84 393.545 L2134.84 367.619 L2139.12 367.619 L2139.12 371.647 Q2140.65 369.309 2142.71 368.151 Q2144.79 366.994 2147.5 366.994 Q2151.97 366.994 2154.26 369.772 Q2156.55 372.526 2156.55 377.897 Z" fill="#000000" fill-rule="evenodd" fill-opacity="1" /><path clip-path="url(#clip590)" d="M2184.74 389.609 L2201.06 389.609 L2201.06 393.545 L2179.12 393.545 L2179.12 389.609 Q2181.78 386.855 2186.36 382.225 Q2190.97 377.573 2192.15 376.23 Q2194.4 373.707 2195.28 371.971 Q2196.18 370.211 2196.18 368.522 Q2196.18 365.767 2194.23 364.031 Q2192.31 362.295 2189.21 362.295 Q2187.01 362.295 2184.56 363.059 Q2182.13 363.823 2179.35 365.374 L2179.35 360.651 Q2182.17 359.517 2184.63 358.938 Q2187.08 358.36 2189.12 358.36 Q2194.49 358.36 2197.68 361.045 Q2200.88 363.73 2200.88 368.221 Q2200.88 370.35 2200.07 372.272 Q2199.28 374.17 2197.17 376.762 Q2196.59 377.434 2193.49 380.651 Q2190.39 383.846 2184.74 389.609 Z" fill="#000000" fill-rule="evenodd" fill-opacity="1" /><path clip-path="url(#clip590)" d="M2220.88 362.063 Q2217.27 362.063 2215.44 365.628 Q2213.63 369.17 2213.63 376.299 Q2213.63 383.406 2215.44 386.971 Q2217.27 390.512 2220.88 390.512 Q2224.51 390.512 2226.32 386.971 Q2228.15 383.406 2228.15 376.299 Q2228.15 369.17 2226.32 365.628 Q2224.51 362.063 2220.88 362.063 M2220.88 358.36 Q2226.69 358.36 2229.74 362.966 Q2232.82 367.549 2232.82 376.299 Q2232.82 385.026 2229.74 389.633 Q2226.69 394.216 2220.88 394.216 Q2215.07 394.216 2211.99 389.633 Q2208.93 385.026 2208.93 376.299 Q2208.93 367.549 2211.99 362.966 Q2215.07 358.36 2220.88 358.36 Z" fill="#000000" fill-rule="evenodd" fill-opacity="1" /></svg>
