<?xml version="1.0" encoding="utf-8"?>
<svg xmlns="http://www.w3.org/2000/svg" xmlns:xlink="http://www.w3.org/1999/xlink" width="600" height="400" viewBox="0 0 2400 1600">
<defs>
  <clipPath id="clip620">
    <rect x="0" y="0" width="2400" height="1600"/>
  </clipPath>
</defs>
<path clip-path="url(#clip620)" d="
M0 1600 L2400 1600 L2400 0 L0 0  Z
  " fill="#ffffff" fill-rule="evenodd" fill-opacity="1"/>
<defs>
  <clipPath id="clip621">
    <rect x="480" y="0" width="1681" height="1600"/>
  </clipPath>
</defs>
<path clip-path="url(#clip620)" d="
M193.288 1486.45 L2352.76 1486.45 L2352.76 47.2441 L193.288 47.2441  Z
  " fill="#ffffff" fill-rule="evenodd" fill-opacity="1"/>
<defs>
  <clipPath id="clip622">
    <rect x="193" y="47" width="2160" height="1440"/>
  </clipPath>
</defs>
<polyline clip-path="url(#clip622)" style="stroke:#000000; stroke-linecap:butt; stroke-linejoin:round; stroke-width:2; stroke-opacity:0.1; fill:none" points="
  252.366,1486.45 252.366,47.2441 
  "/>
<polyline clip-path="url(#clip622)" style="stroke:#000000; stroke-linecap:butt; stroke-linejoin:round; stroke-width:2; stroke-opacity:0.1; fill:none" points="
  762.184,1486.45 762.184,47.2441 
  "/>
<polyline clip-path="url(#clip622)" style="stroke:#000000; stroke-linecap:butt; stroke-linejoin:round; stroke-width:2; stroke-opacity:0.1; fill:none" points="
  1272,1486.45 1272,47.2441 
  "/>
<polyline clip-path="url(#clip622)" style="stroke:#000000; stroke-linecap:butt; stroke-linejoin:round; stroke-width:2; stroke-opacity:0.1; fill:none" points="
  1781.82,1486.45 1781.82,47.2441 
  "/>
<polyline clip-path="url(#clip622)" style="stroke:#000000; stroke-linecap:butt; stroke-linejoin:round; stroke-width:2; stroke-opacity:0.1; fill:none" points="
  2291.64,1486.45 2291.64,47.2441 
  "/>
<polyline clip-path="url(#clip620)" style="stroke:#000000; stroke-linecap:butt; stroke-linejoin:round; stroke-width:4; stroke-opacity:1; fill:none" points="
  193.288,1486.45 2352.76,1486.45 
  "/>
<polyline clip-path="url(#clip620)" style="stroke:#000000; stroke-linecap:butt; stroke-linejoin:round; stroke-width:4; stroke-opacity:1; fill:none" points="
  252.366,1486.45 252.366,1467.55 
  "/>
<polyline clip-path="url(#clip620)" style="stroke:#000000; stroke-linecap:butt; stroke-linejoin:round; stroke-width:4; stroke-opacity:1; fill:none" points="
  762.184,1486.45 762.184,1467.55 
  "/>
<polyline clip-path="url(#clip620)" style="stroke:#000000; stroke-linecap:butt; stroke-linejoin:round; stroke-width:4; stroke-opacity:1; fill:none" points="
  1272,1486.45 1272,1467.55 
  "/>
<polyline clip-path="url(#clip620)" style="stroke:#000000; stroke-linecap:butt; stroke-linejoin:round; stroke-width:4; stroke-opacity:1; fill:none" points="
  1781.82,1486.45 1781.82,1467.55 
  "/>
<polyline clip-path="url(#clip620)" style="stroke:#000000; stroke-linecap:butt; stroke-linejoin:round; stroke-width:4; stroke-opacity:1; fill:none" points="
  2291.64,1486.45 2291.64,1467.55 
  "/>
<path clip-path="url(#clip620)" d="M252.366 1517.37 Q248.755 1517.37 246.926 1520.93 Q245.12 1524.47 245.12 1531.6 Q245.12 1538.71 246.926 1542.27 Q248.755 1545.82 252.366 1545.82 Q256 1545.82 257.805 1542.27 Q259.634 1538.71 259.634 1531.6 Q259.634 1524.47 257.805 1520.93 Q256 1517.37 252.366 1517.37 M252.366 1513.66 Q258.176 1513.66 261.231 1518.27 Q264.31 1522.85 264.31 1531.6 Q264.31 1540.33 261.231 1544.94 Q258.176 1549.52 252.366 1549.52 Q246.555 1549.52 243.477 1544.94 Q240.421 1540.33 240.421 1531.6 Q240.421 1522.85 243.477 1518.27 Q246.555 1513.66 252.366 1513.66 Z" fill="#000000" fill-rule="evenodd" fill-opacity="1" /><path clip-path="url(#clip620)" d="M725.876 1544.91 L742.196 1544.91 L742.196 1548.85 L720.251 1548.85 L720.251 1544.91 Q722.913 1542.16 727.497 1537.53 Q732.103 1532.88 733.284 1531.53 Q735.529 1529.01 736.409 1527.27 Q737.311 1525.51 737.311 1523.82 Q737.311 1521.07 735.367 1519.33 Q733.446 1517.6 730.344 1517.6 Q728.145 1517.6 725.691 1518.36 Q723.261 1519.13 720.483 1520.68 L720.483 1515.95 Q723.307 1514.82 725.761 1514.24 Q728.214 1513.66 730.251 1513.66 Q735.622 1513.66 738.816 1516.35 Q742.01 1519.03 742.01 1523.52 Q742.01 1525.65 741.2 1527.57 Q740.413 1529.47 738.307 1532.07 Q737.728 1532.74 734.626 1535.95 Q731.524 1539.15 725.876 1544.91 Z" fill="#000000" fill-rule="evenodd" fill-opacity="1" /><path clip-path="url(#clip620)" d="M752.057 1514.29 L770.413 1514.29 L770.413 1518.22 L756.339 1518.22 L756.339 1526.7 Q757.358 1526.35 758.376 1526.19 Q759.395 1526 760.413 1526 Q766.2 1526 769.58 1529.17 Q772.959 1532.34 772.959 1537.76 Q772.959 1543.34 769.487 1546.44 Q766.015 1549.52 759.696 1549.52 Q757.52 1549.52 755.251 1549.15 Q753.006 1548.78 750.598 1548.04 L750.598 1543.34 Q752.682 1544.47 754.904 1545.03 Q757.126 1545.58 759.603 1545.58 Q763.608 1545.58 765.945 1543.48 Q768.283 1541.37 768.283 1537.76 Q768.283 1534.15 765.945 1532.04 Q763.608 1529.94 759.603 1529.94 Q757.728 1529.94 755.853 1530.35 Q754.001 1530.77 752.057 1531.65 L752.057 1514.29 Z" fill="#000000" fill-rule="evenodd" fill-opacity="1" /><path clip-path="url(#clip620)" d="M792.172 1517.37 Q788.561 1517.37 786.732 1520.93 Q784.927 1524.47 784.927 1531.6 Q784.927 1538.71 786.732 1542.27 Q788.561 1545.82 792.172 1545.82 Q795.806 1545.82 797.612 1542.27 Q799.441 1538.71 799.441 1531.6 Q799.441 1524.47 797.612 1520.93 Q795.806 1517.37 792.172 1517.37 M792.172 1513.66 Q797.982 1513.66 801.038 1518.27 Q804.117 1522.85 804.117 1531.6 Q804.117 1540.33 801.038 1544.94 Q797.982 1549.52 792.172 1549.52 Q786.362 1549.52 783.283 1544.94 Q780.228 1540.33 780.228 1531.6 Q780.228 1522.85 783.283 1518.27 Q786.362 1513.66 792.172 1513.66 Z" fill="#000000" fill-rule="evenodd" fill-opacity="1" /><path clip-path="url(#clip620)" d="M1231.62 1514.29 L1249.98 1514.29 L1249.98 1518.22 L1235.9 1518.22 L1235.9 1526.7 Q1236.92 1526.35 1237.94 1526.19 Q1238.96 1526 1239.98 1526 Q1245.76 1526 1249.14 1529.17 Q1252.52 1532.34 1252.52 1537.76 Q1252.52 1543.34 1249.05 1546.44 Q1245.58 1549.52 1239.26 1549.52 Q1237.08 1549.52 1234.81 1549.15 Q1232.57 1548.78 1230.16 1548.04 L1230.16 1543.34 Q1232.25 1544.47 1234.47 1545.03 Q1236.69 1545.58 1239.17 1545.58 Q1243.17 1545.58 1245.51 1543.48 Q1247.85 1541.37 1247.85 1537.76 Q1247.85 1534.15 1245.51 1532.04 Q1243.17 1529.94 1239.17 1529.94 Q1237.29 1529.94 1235.42 1530.35 Q1233.56 1530.77 1231.62 1531.65 L1231.62 1514.29 Z" fill="#000000" fill-rule="evenodd" fill-opacity="1" /><path clip-path="url(#clip620)" d="M1271.74 1517.37 Q1268.12 1517.37 1266.3 1520.93 Q1264.49 1524.47 1264.49 1531.6 Q1264.49 1538.71 1266.3 1542.27 Q1268.12 1545.82 1271.74 1545.82 Q1275.37 1545.82 1277.18 1542.27 Q1279 1538.71 1279 1531.6 Q1279 1524.47 1277.18 1520.93 Q1275.37 1517.37 1271.74 1517.37 M1271.74 1513.66 Q1277.55 1513.66 1280.6 1518.27 Q1283.68 1522.85 1283.68 1531.6 Q1283.68 1540.33 1280.6 1544.94 Q1277.55 1549.52 1271.74 1549.52 Q1265.93 1549.52 1262.85 1544.94 Q1259.79 1540.33 1259.79 1531.6 Q1259.79 1522.85 1262.85 1518.27 Q1265.93 1513.66 1271.74 1513.66 Z" fill="#000000" fill-rule="evenodd" fill-opacity="1" /><path clip-path="url(#clip620)" d="M1301.9 1517.37 Q1298.29 1517.37 1296.46 1520.93 Q1294.65 1524.47 1294.65 1531.6 Q1294.65 1538.71 1296.46 1542.27 Q1298.29 1545.82 1301.9 1545.82 Q1305.53 1545.82 1307.34 1542.27 Q1309.17 1538.71 1309.17 1531.6 Q1309.17 1524.47 1307.34 1520.93 Q1305.53 1517.37 1301.9 1517.37 M1301.9 1513.66 Q1307.71 1513.66 1310.76 1518.27 Q1313.84 1522.85 1313.84 1531.6 Q1313.84 1540.33 1310.76 1544.94 Q1307.71 1549.52 1301.9 1549.52 Q1296.09 1549.52 1293.01 1544.94 Q1289.95 1540.33 1289.95 1531.6 Q1289.95 1522.85 1293.01 1518.27 Q1296.09 1513.66 1301.9 1513.66 Z" fill="#000000" fill-rule="evenodd" fill-opacity="1" /><path clip-path="url(#clip620)" d="M1740.1 1514.29 L1762.32 1514.29 L1762.32 1516.28 L1749.77 1548.85 L1744.89 1548.85 L1756.69 1518.22 L1740.1 1518.22 L1740.1 1514.29 Z" fill="#000000" fill-rule="evenodd" fill-opacity="1" /><path clip-path="url(#clip620)" d="M1771.48 1514.29 L1789.84 1514.29 L1789.84 1518.22 L1775.77 1518.22 L1775.77 1526.7 Q1776.79 1526.35 1777.8 1526.19 Q1778.82 1526 1779.84 1526 Q1785.63 1526 1789.01 1529.17 Q1792.39 1532.34 1792.39 1537.76 Q1792.39 1543.34 1788.92 1546.44 Q1785.44 1549.52 1779.12 1549.52 Q1776.95 1549.52 1774.68 1549.15 Q1772.43 1548.78 1770.03 1548.04 L1770.03 1543.34 Q1772.11 1544.47 1774.33 1545.03 Q1776.55 1545.58 1779.03 1545.58 Q1783.04 1545.58 1785.37 1543.48 Q1787.71 1541.37 1787.71 1537.76 Q1787.71 1534.15 1785.37 1532.04 Q1783.04 1529.94 1779.03 1529.94 Q1777.16 1529.94 1775.28 1530.35 Q1773.43 1530.77 1771.48 1531.65 L1771.48 1514.29 Z" fill="#000000" fill-rule="evenodd" fill-opacity="1" /><path clip-path="url(#clip620)" d="M1811.6 1517.37 Q1807.99 1517.37 1806.16 1520.93 Q1804.36 1524.47 1804.36 1531.6 Q1804.36 1538.71 1806.16 1542.27 Q1807.99 1545.82 1811.6 1545.82 Q1815.23 1545.82 1817.04 1542.27 Q1818.87 1538.71 1818.87 1531.6 Q1818.87 1524.47 1817.04 1520.93 Q1815.23 1517.37 1811.6 1517.37 M1811.6 1513.66 Q1817.41 1513.66 1820.47 1518.27 Q1823.54 1522.85 1823.54 1531.6 Q1823.54 1540.33 1820.47 1544.94 Q1817.41 1549.52 1811.6 1549.52 Q1805.79 1549.52 1802.71 1544.94 Q1799.66 1540.33 1799.66 1531.6 Q1799.66 1522.85 1802.71 1518.27 Q1805.79 1513.66 1811.6 1513.66 Z" fill="#000000" fill-rule="evenodd" fill-opacity="1" /><path clip-path="url(#clip620)" d="M2236.16 1544.91 L2243.8 1544.91 L2243.8 1518.55 L2235.49 1520.21 L2235.49 1515.95 L2243.76 1514.29 L2248.43 1514.29 L2248.43 1544.91 L2256.07 1544.91 L2256.07 1548.85 L2236.16 1548.85 L2236.16 1544.91 Z" fill="#000000" fill-rule="evenodd" fill-opacity="1" /><path clip-path="url(#clip620)" d="M2275.52 1517.37 Q2271.91 1517.37 2270.08 1520.93 Q2268.27 1524.47 2268.27 1531.6 Q2268.27 1538.71 2270.08 1542.27 Q2271.91 1545.82 2275.52 1545.82 Q2279.15 1545.82 2280.96 1542.27 Q2282.78 1538.71 2282.78 1531.6 Q2282.78 1524.47 2280.96 1520.93 Q2279.15 1517.37 2275.52 1517.37 M2275.52 1513.66 Q2281.33 1513.66 2284.38 1518.27 Q2287.46 1522.85 2287.46 1531.6 Q2287.46 1540.33 2284.38 1544.94 Q2281.33 1549.52 2275.52 1549.52 Q2269.71 1549.52 2266.63 1544.94 Q2263.57 1540.33 2263.57 1531.6 Q2263.57 1522.85 2266.63 1518.27 Q2269.71 1513.66 2275.52 1513.66 Z" fill="#000000" fill-rule="evenodd" fill-opacity="1" /><path clip-path="url(#clip620)" d="M2305.68 1517.37 Q2302.07 1517.37 2300.24 1520.93 Q2298.43 1524.47 2298.43 1531.6 Q2298.43 1538.71 2300.24 1542.27 Q2302.07 1545.82 2305.68 1545.82 Q2309.31 1545.82 2311.12 1542.27 Q2312.95 1538.71 2312.95 1531.6 Q2312.95 1524.47 2311.12 1520.93 Q2309.31 1517.37 2305.68 1517.37 M2305.68 1513.66 Q2311.49 1513.66 2314.54 1518.27 Q2317.62 1522.85 2317.62 1531.6 Q2317.62 1540.33 2314.54 1544.94 Q2311.49 1549.52 2305.68 1549.52 Q2299.87 1549.52 2296.79 1544.94 Q2293.73 1540.33 2293.73 1531.6 Q2293.73 1522.85 2296.79 1518.27 Q2299.87 1513.66 2305.68 1513.66 Z" fill="#000000" fill-rule="evenodd" fill-opacity="1" /><path clip-path="url(#clip620)" d="M2335.84 1517.37 Q2332.23 1517.37 2330.4 1520.93 Q2328.59 1524.47 2328.59 1531.6 Q2328.59 1538.71 2330.4 1542.27 Q2332.23 1545.82 2335.84 1545.82 Q2339.47 1545.82 2341.28 1542.27 Q2343.11 1538.71 2343.11 1531.6 Q2343.11 1524.47 2341.28 1520.93 Q2339.47 1517.37 2335.84 1517.37 M2335.84 1513.66 Q2341.65 1513.66 2344.71 1518.27 Q2347.78 1522.85 2347.78 1531.6 Q2347.78 1540.33 2344.71 1544.94 Q2341.65 1549.52 2335.84 1549.52 Q2330.03 1549.52 2326.95 1544.94 Q2323.9 1540.33 2323.9 1531.6 Q2323.9 1522.85 2326.95 1518.27 Q2330.03 1513.66 2335.84 1513.66 Z" fill="#000000" fill-rule="evenodd" fill-opacity="1" /><polyline clip-path="url(#clip622)" style="stroke:#000000; stroke-linecap:butt; stroke-linejoin:round; stroke-width:2; stroke-opacity:0.1; fill:none" points="
  193.288,1265.68 2352.76,1265.68 
  "/>
<polyline clip-path="url(#clip622)" style="stroke:#000000; stroke-linecap:butt; stroke-linejoin:round; stroke-width:2; stroke-opacity:0.1; fill:none" points="
  193.288,993.902 2352.76,993.902 
  "/>
<polyline clip-path="url(#clip622)" style="stroke:#000000; stroke-linecap:butt; stroke-linejoin:round; stroke-width:2; stroke-opacity:0.1; fill:none" points="
  193.288,722.124 2352.76,722.124 
  "/>
<polyline clip-path="url(#clip622)" style="stroke:#000000; stroke-linecap:butt; stroke-linejoin:round; stroke-width:2; stroke-opacity:0.1; fill:none" points="
  193.288,450.347 2352.76,450.347 
  "/>
<polyline clip-path="url(#clip622)" style="stroke:#000000; stroke-linecap:butt; stroke-linejoin:round; stroke-width:2; stroke-opacity:0.1; fill:none" points="
  193.288,178.569 2352.76,178.569 
  "/>
<polyline clip-path="url(#clip620)" style="stroke:#000000; stroke-linecap:butt; stroke-linejoin:round; stroke-width:4; stroke-opacity:1; fill:none" points="
  193.288,1486.45 193.288,47.2441 
  "/>
<polyline clip-path="url(#clip620)" style="stroke:#000000; stroke-linecap:butt; stroke-linejoin:round; stroke-width:4; stroke-opacity:1; fill:none" points="
  193.288,1265.68 212.185,1265.68 
  "/>
<polyline clip-path="url(#clip620)" style="stroke:#000000; stroke-linecap:butt; stroke-linejoin:round; stroke-width:4; stroke-opacity:1; fill:none" points="
  193.288,993.902 212.185,993.902 
  "/>
<polyline clip-path="url(#clip620)" style="stroke:#000000; stroke-linecap:butt; stroke-linejoin:round; stroke-width:4; stroke-opacity:1; fill:none" points="
  193.288,722.124 212.185,722.124 
  "/>
<polyline clip-path="url(#clip620)" style="stroke:#000000; stroke-linecap:butt; stroke-linejoin:round; stroke-width:4; stroke-opacity:1; fill:none" points="
  193.288,450.347 212.185,450.347 
  "/>
<polyline clip-path="url(#clip620)" style="stroke:#000000; stroke-linecap:butt; stroke-linejoin:round; stroke-width:4; stroke-opacity:1; fill:none" points="
  193.288,178.569 212.185,178.569 
  "/>
<path clip-path="url(#clip620)" d="M50.9921 1266.13 L80.6679 1266.13 L80.6679 1270.07 L50.9921 1270.07 L50.9921 1266.13 Z" fill="#000000" fill-rule="evenodd" fill-opacity="1" /><path clip-path="url(#clip620)" d="M100.76 1251.48 Q97.1493 1251.48 95.3206 1255.04 Q93.515 1258.58 93.515 1265.71 Q93.515 1272.82 95.3206 1276.39 Q97.1493 1279.93 100.76 1279.93 Q104.395 1279.93 106.2 1276.39 Q108.029 1272.82 108.029 1265.71 Q108.029 1258.58 106.2 1255.04 Q104.395 1251.48 100.76 1251.48 M100.76 1247.77 Q106.571 1247.77 109.626 1252.38 Q112.705 1256.96 112.705 1265.71 Q112.705 1274.44 109.626 1279.05 Q106.571 1283.63 100.76 1283.63 Q94.9502 1283.63 91.8715 1279.05 Q88.816 1274.44 88.816 1265.71 Q88.816 1256.96 91.8715 1252.38 Q94.9502 1247.77 100.76 1247.77 Z" fill="#000000" fill-rule="evenodd" fill-opacity="1" /><path clip-path="url(#clip620)" d="M120.922 1277.08 L125.807 1277.08 L125.807 1282.96 L120.922 1282.96 L120.922 1277.08 Z" fill="#000000" fill-rule="evenodd" fill-opacity="1" /><path clip-path="url(#clip620)" d="M150.158 1264.33 Q153.515 1265.04 155.39 1267.31 Q157.288 1269.58 157.288 1272.91 Q157.288 1278.03 153.769 1280.83 Q150.251 1283.63 143.769 1283.63 Q141.593 1283.63 139.279 1283.19 Q136.987 1282.77 134.533 1281.92 L134.533 1277.4 Q136.478 1278.54 138.793 1279.12 Q141.107 1279.7 143.631 1279.7 Q148.029 1279.7 150.32 1277.96 Q152.635 1276.22 152.635 1272.91 Q152.635 1269.86 150.482 1268.14 Q148.353 1266.41 144.533 1266.41 L140.506 1266.41 L140.506 1262.57 L144.718 1262.57 Q148.168 1262.57 149.996 1261.2 Q151.825 1259.81 151.825 1257.22 Q151.825 1254.56 149.927 1253.14 Q148.052 1251.71 144.533 1251.71 Q142.612 1251.71 140.413 1252.13 Q138.214 1252.54 135.575 1253.42 L135.575 1249.26 Q138.237 1248.52 140.552 1248.15 Q142.89 1247.77 144.95 1247.77 Q150.274 1247.77 153.376 1250.21 Q156.478 1252.61 156.478 1256.73 Q156.478 1259.6 154.834 1261.59 Q153.191 1263.56 150.158 1264.33 Z" fill="#000000" fill-rule="evenodd" fill-opacity="1" /><path clip-path="url(#clip620)" d="M100.112 979.701 Q96.5011 979.701 94.6724 983.265 Q92.8669 986.807 92.8669 993.937 Q92.8669 1001.04 94.6724 1004.61 Q96.5011 1008.15 100.112 1008.15 Q103.746 1008.15 105.552 1004.61 Q107.381 1001.04 107.381 993.937 Q107.381 986.807 105.552 983.265 Q103.746 979.701 100.112 979.701 M100.112 975.997 Q105.922 975.997 108.978 980.603 Q112.057 985.187 112.057 993.937 Q112.057 1002.66 108.978 1007.27 Q105.922 1011.85 100.112 1011.85 Q94.3021 1011.85 91.2234 1007.27 Q88.1679 1002.66 88.1679 993.937 Q88.1679 985.187 91.2234 980.603 Q94.3021 975.997 100.112 975.997 Z" fill="#000000" fill-rule="evenodd" fill-opacity="1" /><path clip-path="url(#clip620)" d="M120.274 1005.3 L125.158 1005.3 L125.158 1011.18 L120.274 1011.18 L120.274 1005.3 Z" fill="#000000" fill-rule="evenodd" fill-opacity="1" /><path clip-path="url(#clip620)" d="M145.343 979.701 Q141.732 979.701 139.904 983.265 Q138.098 986.807 138.098 993.937 Q138.098 1001.04 139.904 1004.61 Q141.732 1008.15 145.343 1008.15 Q148.978 1008.15 150.783 1004.61 Q152.612 1001.04 152.612 993.937 Q152.612 986.807 150.783 983.265 Q148.978 979.701 145.343 979.701 M145.343 975.997 Q151.154 975.997 154.209 980.603 Q157.288 985.187 157.288 993.937 Q157.288 1002.66 154.209 1007.27 Q151.154 1011.85 145.343 1011.85 Q139.533 1011.85 136.455 1007.27 Q133.399 1002.66 133.399 993.937 Q133.399 985.187 136.455 980.603 Q139.533 975.997 145.343 975.997 Z" fill="#000000" fill-rule="evenodd" fill-opacity="1" /><path clip-path="url(#clip620)" d="M100.76 707.923 Q97.1493 707.923 95.3206 711.488 Q93.515 715.029 93.515 722.159 Q93.515 729.265 95.3206 732.83 Q97.1493 736.372 100.76 736.372 Q104.395 736.372 106.2 732.83 Q108.029 729.265 108.029 722.159 Q108.029 715.029 106.2 711.488 Q104.395 707.923 100.76 707.923 M100.76 704.219 Q106.571 704.219 109.626 708.826 Q112.705 713.409 112.705 722.159 Q112.705 730.886 109.626 735.492 Q106.571 740.076 100.76 740.076 Q94.9502 740.076 91.8715 735.492 Q88.816 730.886 88.816 722.159 Q88.816 713.409 91.8715 708.826 Q94.9502 704.219 100.76 704.219 Z" fill="#000000" fill-rule="evenodd" fill-opacity="1" /><path clip-path="url(#clip620)" d="M120.922 733.525 L125.807 733.525 L125.807 739.404 L120.922 739.404 L120.922 733.525 Z" fill="#000000" fill-rule="evenodd" fill-opacity="1" /><path clip-path="url(#clip620)" d="M150.158 720.77 Q153.515 721.488 155.39 723.756 Q157.288 726.025 157.288 729.358 Q157.288 734.474 153.769 737.275 Q150.251 740.076 143.769 740.076 Q141.593 740.076 139.279 739.636 Q136.987 739.219 134.533 738.363 L134.533 733.849 Q136.478 734.983 138.793 735.562 Q141.107 736.14 143.631 736.14 Q148.029 736.14 150.32 734.404 Q152.635 732.668 152.635 729.358 Q152.635 726.302 150.482 724.59 Q148.353 722.853 144.533 722.853 L140.506 722.853 L140.506 719.011 L144.718 719.011 Q148.168 719.011 149.996 717.645 Q151.825 716.256 151.825 713.664 Q151.825 711.002 149.927 709.59 Q148.052 708.154 144.533 708.154 Q142.612 708.154 140.413 708.571 Q138.214 708.988 135.575 709.867 L135.575 705.701 Q138.237 704.96 140.552 704.59 Q142.89 704.219 144.95 704.219 Q150.274 704.219 153.376 706.65 Q156.478 709.057 156.478 713.178 Q156.478 716.048 154.834 718.039 Q153.191 720.006 150.158 720.77 Z" fill="#000000" fill-rule="evenodd" fill-opacity="1" /><path clip-path="url(#clip620)" d="M99.9502 436.145 Q96.3391 436.145 94.5104 439.71 Q92.7049 443.252 92.7049 450.381 Q92.7049 457.488 94.5104 461.053 Q96.3391 464.594 99.9502 464.594 Q103.584 464.594 105.39 461.053 Q107.219 457.488 107.219 450.381 Q107.219 443.252 105.39 439.71 Q103.584 436.145 99.9502 436.145 M99.9502 432.442 Q105.76 432.442 108.816 437.048 Q111.895 441.631 111.895 450.381 Q111.895 459.108 108.816 463.715 Q105.76 468.298 99.9502 468.298 Q94.14 468.298 91.0614 463.715 Q88.0058 459.108 88.0058 450.381 Q88.0058 441.631 91.0614 437.048 Q94.14 432.442 99.9502 432.442 Z" fill="#000000" fill-rule="evenodd" fill-opacity="1" /><path clip-path="url(#clip620)" d="M120.112 461.747 L124.996 461.747 L124.996 467.627 L120.112 467.627 L120.112 461.747 Z" fill="#000000" fill-rule="evenodd" fill-opacity="1" /><path clip-path="url(#clip620)" d="M145.76 448.483 Q142.612 448.483 140.76 450.636 Q138.931 452.789 138.931 456.539 Q138.931 460.265 140.76 462.441 Q142.612 464.594 145.76 464.594 Q148.908 464.594 150.737 462.441 Q152.589 460.265 152.589 456.539 Q152.589 452.789 150.737 450.636 Q148.908 448.483 145.76 448.483 M155.042 433.83 L155.042 438.09 Q153.283 437.256 151.478 436.817 Q149.695 436.377 147.936 436.377 Q143.306 436.377 140.853 439.502 Q138.422 442.627 138.075 448.946 Q139.441 446.932 141.501 445.867 Q143.561 444.779 146.038 444.779 Q151.246 444.779 154.255 447.951 Q157.288 451.099 157.288 456.539 Q157.288 461.863 154.14 465.08 Q150.992 468.298 145.76 468.298 Q139.765 468.298 136.594 463.715 Q133.422 459.108 133.422 450.381 Q133.422 442.187 137.311 437.326 Q141.2 432.442 147.751 432.442 Q149.51 432.442 151.293 432.789 Q153.098 433.136 155.042 433.83 Z" fill="#000000" fill-rule="evenodd" fill-opacity="1" /><path clip-path="url(#clip620)" d="M100.297 164.368 Q96.6863 164.368 94.8576 167.932 Q93.0521 171.474 93.0521 178.604 Q93.0521 185.71 94.8576 189.275 Q96.6863 192.816 100.297 192.816 Q103.932 192.816 105.737 189.275 Q107.566 185.71 107.566 178.604 Q107.566 171.474 105.737 167.932 Q103.932 164.368 100.297 164.368 M100.297 160.664 Q106.108 160.664 109.163 165.27 Q112.242 169.854 112.242 178.604 Q112.242 187.33 109.163 191.937 Q106.108 196.52 100.297 196.52 Q94.4873 196.52 91.4086 191.937 Q88.353 187.33 88.353 178.604 Q88.353 169.854 91.4086 165.27 Q94.4873 160.664 100.297 160.664 Z" fill="#000000" fill-rule="evenodd" fill-opacity="1" /><path clip-path="url(#clip620)" d="M120.459 189.969 L125.344 189.969 L125.344 195.849 L120.459 195.849 L120.459 189.969 Z" fill="#000000" fill-rule="evenodd" fill-opacity="1" /><path clip-path="url(#clip620)" d="M135.668 195.131 L135.668 190.872 Q137.427 191.705 139.232 192.145 Q141.038 192.585 142.774 192.585 Q147.404 192.585 149.834 189.483 Q152.288 186.358 152.635 180.016 Q151.293 182.006 149.232 183.071 Q147.172 184.136 144.672 184.136 Q139.487 184.136 136.455 181.011 Q133.445 177.863 133.445 172.423 Q133.445 167.099 136.594 163.881 Q139.742 160.664 144.973 160.664 Q150.968 160.664 154.117 165.27 Q157.288 169.854 157.288 178.604 Q157.288 186.775 153.399 191.659 Q149.533 196.52 142.982 196.52 Q141.223 196.52 139.418 196.173 Q137.612 195.826 135.668 195.131 M144.973 180.479 Q148.121 180.479 149.95 178.326 Q151.802 176.173 151.802 172.423 Q151.802 168.696 149.95 166.543 Q148.121 164.368 144.973 164.368 Q141.825 164.368 139.973 166.543 Q138.144 168.696 138.144 172.423 Q138.144 176.173 139.973 178.326 Q141.825 180.479 144.973 180.479 Z" fill="#000000" fill-rule="evenodd" fill-opacity="1" /><polyline clip-path="url(#clip622)" style="stroke:#009af9; stroke-linecap:butt; stroke-linejoin:round; stroke-width:4; stroke-opacity:0.4; fill:none" points="
  254.405,1245.91 256.444,1314.34 258.483,992.868 260.523,1396.8 262.562,906.798 264.601,816.27 266.641,568.677 268.68,750.069 270.719,1163.92 272.758,1006.14 
  274.798,747.418 276.837,1118.21 278.876,690.784 280.915,548.862 282.955,704.863 284.994,998.795 287.033,925.635 289.073,1196.45 291.112,812.836 293.151,571.097 
  295.19,584.704 297.23,1410.36 299.269,739.167 301.308,649.127 303.347,1103.68 305.387,796.141 307.426,655.738 309.465,630.854 311.505,787.377 313.544,931.275 
  315.583,628.225 317.622,1062.19 319.662,865.862 321.701,1302.13 323.74,670.928 325.779,1259.87 327.819,1042.73 329.858,1359.31 331.897,1146.74 333.937,954.051 
  335.976,1314.54 338.015,900.052 340.054,1428.92 342.094,673.482 344.133,764.244 346.172,790.599 348.211,871.87 350.251,1134.11 352.29,1370.76 354.329,1254.93 
  356.369,1010.44 358.408,915.671 360.447,1157.94 362.486,708.995 364.526,895.317 366.565,1201.05 368.604,882.55 370.643,683.794 372.683,1084.98 374.722,1237.77 
  376.761,1192.27 378.801,1409.75 380.84,1173.26 382.879,1355.83 384.918,839.705 386.958,1277.55 388.997,983.734 391.036,806.175 393.075,1093.99 395.115,1379.48 
  397.154,940.631 399.193,874.843 401.233,771.011 403.272,1147.5 405.311,649.429 407.35,864.216 409.39,1415.31 411.429,758.325 413.468,849.659 415.507,611.545 
  417.547,671.551 419.586,900.852 421.625,1088.93 423.665,1436.63 425.704,1253.95 427.743,877.302 429.782,560.111 431.822,863.473 433.861,1135.24 435.9,1342.01 
  437.939,941.402 439.979,606.943 442.018,1282.13 444.057,1338.38 446.097,685.337 448.136,853.767 450.175,777.802 452.214,586.539 454.254,794.644 456.293,571.691 
  458.332,1111.92 460.371,1081.34 462.411,1281.74 464.45,1198.93 466.489,1245.09 468.529,1138.49 470.568,887.755 472.607,1343.68 474.646,894.948 476.686,927.706 
  478.725,1232.78 480.764,1363.87 482.803,689.787 484.843,1138.16 486.882,765.842 488.921,1345.82 490.961,1413.34 493,893.888 495.039,1237.64 497.078,1384.63 
  499.118,1232.87 501.157,728.762 503.196,1103.56 505.235,1110.75 507.275,1419.98 509.314,785.161 511.353,1120.93 513.393,655.647 515.432,1150.31 517.471,1418.71 
  519.51,867.338 521.55,1225.74 523.589,1441.69 525.628,748.895 527.667,1030.02 529.707,711.637 531.746,757.328 533.785,729.675 535.825,841.666 537.864,862.331 
  539.903,1416.14 541.942,610.624 543.982,863.47 546.021,748.707 548.06,737.226 550.099,1077.64 552.139,719.418 554.178,1328.87 556.217,1368.93 558.257,1026.34 
  560.296,957.226 562.335,1186.08 564.374,1386.98 566.414,1294.33 568.453,824.041 570.492,1109.06 572.532,784.92 574.571,1094.48 576.61,541.199 578.649,664.528 
  580.689,1202.04 582.728,612.972 584.767,834.888 586.806,1289.63 588.846,841.37 590.885,1196.03 592.924,1058.92 594.964,1091.19 597.003,1387.22 599.042,957.287 
  601.081,1225.09 603.121,1098.69 605.16,727.449 607.199,850.571 609.238,1027.72 611.278,685.699 613.317,1297.26 615.356,1350.02 617.396,882.68 619.435,962.403 
  621.474,1244.3 623.513,1399.62 625.553,688.175 627.592,1174.49 629.631,887.854 631.67,1231.43 633.71,719.747 635.749,1134.84 637.788,635.507 639.828,654.533 
  641.867,876.329 643.906,980.163 645.945,1369.07 647.985,1060.37 650.024,1138.59 652.063,779.654 654.102,1244.18 656.142,1380.84 658.181,757.219 660.22,704.788 
  662.26,1082.25 664.299,863.883 666.338,1173.63 668.377,1293.22 670.417,1252.4 672.456,569.551 674.495,773.314 676.534,1444.93 678.574,1383.95 680.613,718.037 
  682.652,830.175 684.692,972.983 686.731,1405.77 688.77,726.944 690.809,801.042 692.849,870.97 694.888,1184.08 696.927,1079.25 698.966,1400.6 701.006,873.64 
  703.045,1409.12 705.084,1015.81 707.124,815.866 709.163,578.823 711.202,1338.04 713.241,1149.72 715.281,738.396 717.32,1295.38 719.359,665.29 721.398,1232.66 
  723.438,1115.08 725.477,1371.76 727.516,981.045 729.556,672.498 731.595,566.562 733.634,1348.93 735.673,942.386 737.713,986.035 739.752,1431.8 741.791,1253.84 
  743.83,1183.57 745.87,1100.9 747.909,558.045 749.948,1092.1 751.988,1151.67 754.027,695.862 756.066,729.287 758.105,774.375 760.145,557.137 762.184,1235.49 
  764.223,1389.71 766.262,1279.63 768.302,997.206 770.341,1288.06 772.38,635.327 774.42,1435.82 776.459,1354.22 778.498,784.444 780.537,694.265 782.577,996.928 
  784.616,985.815 786.655,719.006 788.694,816.427 790.734,1032.6 792.773,1233.24 794.812,1340.12 796.852,744.946 798.891,1164.95 800.93,1281.14 802.969,1095.41 
  805.009,1257.54 807.048,1440.24 809.087,606.769 811.126,850.004 813.166,1232.94 815.205,775.573 817.244,1072.56 819.284,634.516 821.323,1417.7 823.362,545.877 
  825.401,1166.74 827.441,1149.42 829.48,686.629 831.519,942.16 833.558,1079.21 835.598,686.183 837.637,745.992 839.676,913.638 841.716,1023.33 843.755,1294.97 
  845.794,1293.89 847.833,551.754 849.873,1000.49 851.912,785.829 853.951,1162.19 855.99,1368.24 858.03,1108.86 860.069,911.028 862.108,790.916 864.148,1119.08 
  866.187,877.807 868.226,1394.37 870.265,1318.52 872.305,781.566 874.344,591.766 876.383,754.974 878.422,786.155 880.462,899.15 882.501,732.436 884.54,1304.33 
  886.58,775.671 888.619,1278.72 890.658,944.691 892.697,780.846 894.737,654.008 896.776,1014.04 898.815,670.124 900.855,1175.54 902.894,642.28 904.933,736.976 
  906.972,845.482 909.012,1416.86 911.051,1267.27 913.09,1383.92 915.129,1362.18 917.169,800.295 919.208,1364.46 921.247,1335.11 923.287,1066.38 925.326,594.578 
  927.365,674.626 929.404,734.275 931.444,1424.72 933.483,612.093 935.522,1317.45 937.561,571.054 939.601,1325.97 941.64,1278.55 943.679,682.197 945.719,906.312 
  947.758,894.223 949.797,657.369 951.836,1025.72 953.876,1063.33 955.915,963.038 957.954,673.514 959.993,1059.07 962.033,1381.67 964.072,858.239 966.111,718.734 
  968.151,1150.6 970.19,981.357 972.229,1150.35 974.268,1268.28 976.308,911.834 978.347,835.07 980.386,1359.49 982.425,1151.89 984.465,1036.25 986.504,797.199 
  988.543,1154.76 990.583,1259.52 992.622,1077.1 994.661,1018.38 996.7,1233.21 998.74,995.677 1000.78,833.828 1002.82,954.004 1004.86,550.001 1006.9,1328.7 
  1008.94,624.533 1010.98,920.948 1013.01,981.07 1015.05,1229.25 1017.09,1255.1 1019.13,1200.36 1021.17,915.67 1023.21,1232.73 1025.25,798.584 1027.29,820.204 
  1029.33,771.893 1031.37,711.983 1033.41,582.852 1035.45,1107.91 1037.49,602.533 1039.53,743.953 1041.56,937.411 1043.6,1106.46 1045.64,552.209 1047.68,1220.3 
  1049.72,1046.93 1051.76,811.994 1053.8,1090.15 1055.84,1105.09 1057.88,728.519 1059.92,967.85 1061.96,1388.41 1064,835.23 1066.04,1244.84 1068.07,1240.4 
  1070.11,864.579 1072.15,1107.62 1074.19,636.457 1076.23,1032.01 1078.27,1286.61 1080.31,929.895 1082.35,1264.77 1084.39,1054.99 1086.43,550.61 1088.47,606.94 
  1090.51,627.309 1092.55,1361.64 1094.59,1161.1 1096.62,1150.66 1098.66,985.95 1100.7,756.084 1102.74,866.363 1104.78,903.844 1106.82,1278.3 1108.86,570.894 
  1110.9,1232.59 1112.94,654.185 1114.98,1048.84 1117.02,1031.61 1119.06,1333.02 1121.1,981.993 1123.14,1064.89 1125.17,1350.65 1127.21,1121.15 1129.25,1402.16 
  1131.29,821.929 1133.33,1175.56 1135.37,627.168 1137.41,951.998 1139.45,769.73 1141.49,718.7 1143.53,688.202 1145.57,896.407 1147.61,1290.16 1149.65,842.54 
  1151.69,940.434 1153.72,1218.41 1155.76,1417.7 1157.8,602.564 1159.84,1328.24 1161.88,1101.68 1163.92,914.85 1165.96,1127.58 1168,1185.6 1170.04,719.918 
  1172.08,573.228 1174.12,892.167 1176.16,816.162 1178.2,1131.04 1180.23,1088.59 1182.27,1402.66 1184.31,645.695 1186.35,1006.06 1188.39,966.144 1190.43,793.293 
  1192.47,1437.47 1194.51,804.801 1196.55,1440.43 1198.59,952.924 1200.63,619.256 1202.67,1129.25 1204.71,1179.84 1206.75,1027.93 1208.78,784.302 1210.82,929.598 
  1212.86,1029.08 1214.9,1051.39 1216.94,562.37 1218.98,765.675 1221.02,1243.87 1223.06,619.001 1225.1,606.187 1227.14,1340.57 1229.18,1168.55 1231.22,660.53 
  1233.26,1352.08 1235.3,1222.71 1237.33,571.3 1239.37,1293.58 1241.41,607.592 1243.45,992.175 1245.49,892.89 1247.53,1062.17 1249.57,1037.15 1251.61,1164.08 
  1253.65,888.02 1255.69,914.445 1257.73,753.08 1259.77,554.359 1261.81,1412.55 1263.85,708.694 1265.88,1107.02 1267.92,1186.85 1269.96,1081.07 1272,880.731 
  1274.04,583.051 1276.08,1307.71 1278.12,1409.36 1280.16,780.05 1282.2,969.118 1284.24,1152.02 1286.28,601.625 1288.32,1192.11 1290.36,718.16 1292.39,872.491 
  1294.43,646.094 1296.47,1116.22 1298.51,711.691 1300.55,1050.93 1302.59,750.467 1304.63,1234.29 1306.67,974.273 1308.71,867.47 1310.75,1369.57 1312.79,865.795 
  1314.83,1377.66 1316.87,609.753 1318.91,860.317 1320.94,786.216 1322.98,1090.02 1325.02,1196.46 1327.06,887.495 1329.1,579.955 1331.14,1423.24 1333.18,1080.6 
  1335.22,812.655 1337.26,1288.13 1339.3,1236.03 1341.34,693.3 1343.38,842.535 1345.42,1384.56 1347.46,1257.88 1349.49,1432.53 1351.53,764.572 1353.57,1160.92 
  1355.61,659.905 1357.65,892.761 1359.69,745.61 1361.73,1179.8 1363.77,907.796 1365.81,1068.63 1367.85,1051.59 1369.89,903.163 1371.93,1095.58 1373.97,592.304 
  1376.01,673.947 1378.04,971.3 1380.08,1255.16 1382.12,1029.75 1384.16,818.714 1386.2,768.595 1388.24,1015.22 1390.28,778.397 1392.32,799.893 1394.36,1175.44 
  1396.4,1023.26 1398.44,1269.43 1400.48,868.265 1402.52,753.217 1404.56,1009.3 1406.59,670.361 1408.63,676.77 1410.67,1387.83 1412.71,636.589 1414.75,1273.61 
  1416.79,619.676 1418.83,1157.79 1420.87,929.556 1422.91,944.046 1424.95,567.942 1426.99,636.606 1429.03,715.704 1431.07,717.557 1433.1,1081.18 1435.14,750.841 
  1437.18,1177.2 1439.22,1140.65 1441.26,1283.53 1443.3,1425.81 1445.34,1053.06 1447.38,930.931 1449.42,858.933 1451.46,859.912 1453.5,1395.76 1455.54,587.847 
  1457.58,995.381 1459.62,589.2 1461.65,595.251 1463.69,678.584 1465.73,603.503 1467.77,1290.34 1469.81,1387.01 1471.85,875.212 1473.89,1035.54 1475.93,1009.36 
  1477.97,1312.11 1480.01,1338.26 1482.05,779.134 1484.09,773.423 1486.13,726.836 1488.17,1311.22 1490.2,1281.52 1492.24,840.763 1494.28,1179.24 1496.32,1242.6 
  1498.36,1439.79 1500.4,863.035 1502.44,1307.55 1504.48,1137 1506.52,720.238 1508.56,1143.61 1510.6,1166.37 1512.64,1113.36 1514.68,1210.14 1516.72,782.205 
  1518.75,853.513 1520.79,799.22 1522.83,1260.49 1524.87,1179.66 1526.91,1412.56 1528.95,566.967 1530.99,1333.25 1533.03,834.217 1535.07,932.497 1537.11,815.036 
  1539.15,1105.47 1541.19,705.71 1543.23,1328.51 1545.26,560.31 1547.3,1392.54 1549.34,1294.36 1551.38,1132.95 1553.42,803.401 1555.46,601.175 1557.5,1068.23 
  1559.54,867.033 1561.58,1008.9 1563.62,1218.71 1565.66,605.273 1567.7,700.798 1569.74,680.239 1571.78,1106.57 1573.81,1331.77 1575.85,1069.55 1577.89,846.257 
  1579.93,1230.14 1581.97,605.991 1584.01,1247.64 1586.05,805.812 1588.09,928.54 1590.13,1328.26 1592.17,623.446 1594.21,1216.81 1596.25,993.529 1598.29,1366.73 
  1600.33,643.442 1602.36,1127.55 1604.4,577.602 1606.44,614.931 1608.48,1187.39 1610.52,744.146 1612.56,998.322 1614.6,791.627 1616.64,558.773 1618.68,546.386 
  1620.72,1224.38 1622.76,1332.43 1624.8,1250.78 1626.84,1445.72 1628.88,737.349 1630.91,959.474 1632.95,1403.11 1634.99,1119.16 1637.03,1393.81 1639.07,918.844 
  1641.11,943.514 1643.15,643.183 1645.19,565.438 1647.23,1189.59 1649.27,541.256 1651.31,793.862 1653.35,643.665 1655.39,1414.87 1657.42,1375.24 1659.46,660.849 
  1661.5,744.932 1663.54,554.551 1665.58,1424.31 1667.62,688.793 1669.66,551.863 1671.7,1011.12 1673.74,1227.26 1675.78,1092.13 1677.82,1134.29 1679.86,569.007 
  1681.9,1254.24 1683.94,772.871 1685.97,1226.69 1688.01,1001.08 1690.05,1185.39 1692.09,834.602 1694.13,573.419 1696.17,1216.52 1698.21,726.88 1700.25,558.954 
  1702.29,1145.88 1704.33,1391.87 1706.37,1159.24 1708.41,655.808 1710.45,1089.8 1712.49,1198.14 1714.52,1229.25 1716.56,813.212 1718.6,1397.49 1720.64,1274.45 
  1722.68,933.354 1724.72,928.943 1726.76,1333.98 1728.8,1185.44 1730.84,665.919 1732.88,958.366 1734.92,899.549 1736.96,583.518 1739,1257.61 1741.04,1065.94 
  1743.07,1179.8 1745.11,820.728 1747.15,730.557 1749.19,1089.63 1751.23,890.808 1753.27,1137.75 1755.31,853.497 1757.35,1317.04 1759.39,685.722 1761.43,1320.11 
  1763.47,960.921 1765.51,1381.82 1767.55,1047.14 1769.58,1034.5 1771.62,793.442 1773.66,1297.2 1775.7,851.675 1777.74,1079.6 1779.78,665.182 1781.82,1341.07 
  1783.86,1378.21 1785.9,1081.73 1787.94,1113.63 1789.98,921.715 1792.02,1349.23 1794.06,624.771 1796.1,960.652 1798.13,1303.93 1800.17,853.34 1802.21,1075.62 
  1804.25,1113.36 1806.29,650.942 1808.33,1209.51 1810.37,1079.17 1812.41,883.72 1814.45,1053.89 1816.49,542.521 1818.53,599.584 1820.57,1369.2 1822.61,654.267 
  1824.65,799.484 1826.68,1134.96 1828.72,1238.64 1830.76,680.745 1832.8,751.774 1834.84,942.294 1836.88,1213.67 1838.92,659.552 1840.96,1159.88 1843,928.053 
  1845.04,947.377 1847.08,1072.49 1849.12,771.487 1851.16,1143.24 1853.2,868.927 1855.23,1001.88 1857.27,942.922 1859.31,1295.84 1861.35,807.029 1863.39,731.452 
  1865.43,823.513 1867.47,919.611 1869.51,1227.96 1871.55,1337.97 1873.59,1228.21 1875.63,774.126 1877.67,1057.04 1879.71,833.156 1881.74,761.126 1883.78,742.36 
  1885.82,1225.39 1887.86,1283.77 1889.9,1372.31 1891.94,723.689 1893.98,1242.38 1896.02,988.662 1898.06,949.193 1900.1,1444.12 1902.14,771.508 1904.18,750.315 
  1906.22,726.472 1908.26,1232.58 1910.29,1031.88 1912.33,1172.66 1914.37,735.955 1916.41,1052.91 1918.45,1440.73 1920.49,671.257 1922.53,801.223 1924.57,587.824 
  1926.61,875.024 1928.65,1418.87 1930.69,1101.34 1932.73,568.755 1934.77,1254.26 1936.81,782.194 1938.84,1265.27 1940.88,1166.04 1942.92,668.185 1944.96,721 
  1947,883.58 1949.04,1138.84 1951.08,712.729 1953.12,1272.19 1955.16,626.352 1957.2,1035.03 1959.24,1198.88 1961.28,769.716 1963.32,673.14 1965.36,834.261 
  1967.39,739.822 1969.43,1096.55 1971.47,987.62 1973.51,821.143 1975.55,817.968 1977.59,1064.63 1979.63,1317.45 1981.67,999.903 1983.71,660.251 1985.75,1434.27 
  1987.79,934.432 1989.83,855.587 1991.87,956.669 1993.9,835.495 1995.94,1177.76 1997.98,1280.62 2000.02,1359.28 2002.06,1270.68 2004.1,1398.64 2006.14,1128.18 
  2008.18,1048.57 2010.22,974.207 2012.26,1204.22 2014.3,553.981 2016.34,1025.91 2018.38,1430.81 2020.42,1260.71 2022.45,1335.99 2024.49,596.927 2026.53,1167.98 
  2028.57,1117.38 2030.61,996.736 2032.65,762.93 2034.69,710.374 2036.73,795.721 2038.77,661.005 2040.81,1433.43 2042.85,1096.5 2044.89,695.997 2046.93,1325.36 
  2048.97,1273.98 2051,1279.02 2053.04,591.489 2055.08,794.544 2057.12,691.379 2059.16,585.366 2061.2,554.648 2063.24,757.236 2065.28,988.637 2067.32,1280.49 
  2069.36,917.58 2071.4,1431.01 2073.44,780.831 2075.48,972.715 2077.52,1172.55 2079.55,1331.68 2081.59,1314.37 2083.63,760.678 2085.67,1072.75 2087.71,781.892 
  2089.75,1139.53 2091.79,689.406 2093.83,1053.78 2095.87,865.257 2097.91,700.587 2099.95,1359.83 2101.99,1058.45 2104.03,558.462 2106.07,1056.79 2108.1,1168.97 
  2110.14,792.961 2112.18,1334.89 2114.22,919.517 2116.26,1037.45 2118.3,584.595 2120.34,652.961 2122.38,1311.46 2124.42,1033.58 2126.46,1087.55 2128.5,766.716 
  2130.54,1015.76 2132.58,615.772 2134.61,1063.99 2136.65,1352.72 2138.69,1203.56 2140.73,1030.99 2142.77,1307.34 2144.81,1326.6 2146.85,948.958 2148.89,1175.1 
  2150.93,1423.42 2152.97,1435.01 2155.01,650.349 2157.05,1186.77 2159.09,726.711 2161.13,1224.09 2163.16,907.678 2165.2,1375.49 2167.24,987.908 2169.28,1140.14 
  2171.32,822.236 2173.36,1126.66 2175.4,1129.95 2177.44,865.463 2179.48,1370.01 2181.52,1209.84 2183.56,845.648 2185.6,571.937 2187.64,695.877 2189.68,955.641 
  2191.71,1152.45 2193.75,1250.6 2195.79,1205.11 2197.83,723.165 2199.87,1117.91 2201.91,671.699 2203.95,725.872 2205.99,1201.78 2208.03,592.456 2210.07,1371.58 
  2212.11,659.262 2214.15,846.848 2216.19,1193.69 2218.23,1047.2 2220.26,1367.53 2222.3,639.409 2224.34,1305.89 2226.38,1143.05 2228.42,1005.62 2230.46,622.585 
  2232.5,874.698 2234.54,1337.07 2236.58,1220.65 2238.62,1295.53 2240.66,1437.32 2242.7,613.158 2244.74,1127.25 2246.77,1049.55 2248.81,1306.33 2250.85,1156.76 
  2252.89,1437.37 2254.93,846.242 2256.97,1443.4 2259.01,1063.01 2261.05,960.181 2263.09,1362.91 2265.13,929.833 2267.17,1366.17 2269.21,777.826 2271.25,665.347 
  2273.29,605.382 2275.32,1212.27 2277.36,682.153 2279.4,1403.37 2281.44,1352.22 2283.48,1096.68 2285.52,789.095 2287.56,542.01 2289.6,735.981 2291.64,1334.13 
  
  "/>
<polyline clip-path="url(#clip622)" style="stroke:#e26f46; stroke-linecap:butt; stroke-linejoin:round; stroke-width:4; stroke-opacity:1; fill:none" points="
  254.405,87.9763 256.444,945.51 258.483,824.562 260.523,819.548 262.562,782.551 264.601,755.683 266.641,694.758 268.68,699.254 270.719,712.852 272.758,728.902 
  274.798,729.764 276.837,739.424 278.876,735.394 280.915,720.296 282.955,722.899 284.994,731.548 287.033,739.867 289.073,739.869 291.112,745.04 293.151,737.843 
  295.19,733.586 297.23,718.179 299.269,721.579 301.308,721.794 303.347,724.745 305.387,729.093 307.426,729.527 309.465,729.373 311.505,733.379 313.544,737.804 
  315.583,737.684 317.622,739.883 319.662,743.85 321.701,737.655 323.74,738.481 325.779,734.882 327.819,737.492 329.858,730.599 331.897,731.56 333.937,734.907 
  335.976,731.08 338.015,734.246 340.054,726.529 342.094,726.469 344.133,728.226 346.172,730.316 348.211,733.043 350.251,734.189 352.29,729.515 354.329,728.581 
  356.369,731.117 358.408,733.656 360.447,734.618 362.486,734.893 364.526,737.193 366.565,737.334 368.604,739.457 370.643,739.23 372.683,740.811 374.722,740.246 
  376.761,740.551 378.801,736.213 380.84,736.979 382.879,734.505 384.918,735.984 386.958,735.263 388.997,737.229 391.036,738.294 393.075,739.784 395.115,737.106 
  397.154,738.895 399.193,740.377 401.233,740.942 403.272,741.914 405.311,740.713 407.35,742.077 409.39,738.756 411.429,739.171 413.468,740.399 415.507,738.73 
  417.547,738.146 419.586,739.622 421.625,740.824 423.665,737.222 425.704,736.957 427.743,738.244 429.782,735.848 431.822,737.077 433.861,737.942 435.9,736.416 
  437.939,737.824 439.979,736.347 442.018,735.738 444.057,734.412 446.097,734.042 448.136,735.113 450.175,735.689 452.214,734.079 454.254,734.817 456.293,733.115 
  458.332,734.242 460.371,736.402 462.411,734.409 464.45,737.015 466.489,735.503 468.529,735.351 470.568,738.363 472.607,736.636 474.646,737.215 476.686,737.197 
  478.725,736.907 480.764,734.386 482.803,734.375 484.843,737.588 486.882,738.192 488.921,735.678 490.961,732.318 493,732.927 495.039,732.41 497.078,733.105 
  499.118,735.589 501.157,737.26 503.196,738.469 505.235,740.848 507.275,737.732 509.314,737.635 511.353,740.012 513.393,740.383 515.432,741.149 517.471,738.263 
  519.51,740.939 521.55,740.207 523.589,737.505 525.628,737.289 527.667,739.903 529.707,738.864 531.746,737.406 533.785,737.896 535.825,737.584 537.864,737.187 
  539.903,735.803 541.942,732.854 543.982,735.785 546.021,736.668 548.06,736.393 550.099,737.271 552.139,735.972 554.178,734.311 556.217,734.336 558.257,735.476 
  560.296,735.419 562.335,735.013 564.374,732.721 566.414,733.114 568.453,732.667 570.492,733.145 572.532,732.443 574.571,734.549 576.61,730.189 578.649,728.789 
  580.689,728.72 582.728,728.811 584.767,728.829 586.806,729.643 588.846,729.653 590.885,730.392 592.924,730.331 594.964,730.91 597.003,728.265 599.042,730.919 
  601.081,730.05 603.121,730.213 605.16,729.784 607.199,729.716 609.238,732.141 611.278,730.551 613.317,732.147 615.356,731.078 617.396,731.262 619.435,734.32 
  621.474,735.639 623.513,733.155 625.553,731.08 627.592,733.978 629.631,734.755 631.67,734.23 633.71,736.594 635.749,736.827 637.788,734.199 639.828,733.781 
  641.867,733.525 643.906,736.703 645.945,735.641 647.985,737.675 650.024,739.504 652.063,738.919 654.102,739.044 656.142,740.319 658.181,739.944 660.22,742.017 
  662.26,742.099 664.299,741.619 666.338,742.494 668.377,741.661 670.417,741.596 672.456,737.762 674.495,736.907 676.534,735.422 678.574,733.209 680.613,731.576 
  682.652,731.731 684.692,734.015 686.731,733.218 688.77,731.818 690.809,732.138 692.849,733.826 694.888,736.383 696.927,736.573 698.966,734.632 701.006,736.959 
  703.045,734.821 705.084,736.405 707.124,735.8 709.163,732.397 711.202,733.579 713.241,734.149 715.281,732.992 717.32,733.82 719.359,731.908 721.398,734.209 
  723.438,734.358 725.477,732.714 727.516,736.38 729.556,735.502 731.595,731.844 733.634,731.162 735.673,732.28 737.713,733.778 739.752,730.959 741.791,730.356 
  743.83,732.874 745.87,736.009 747.909,732.325 749.948,733.664 751.988,734.962 754.027,732.91 756.066,733.024 758.105,733.693 760.145,732.101 762.184,731.133 
  764.223,728.493 766.262,727.724 768.302,730.356 770.341,730.423 772.38,728.388 774.42,725.179 776.459,724.062 778.498,723.145 780.537,725.439 782.577,727.819 
  784.616,728.421 786.655,729.853 788.694,729.716 790.734,731.113 792.773,730.852 794.812,729.498 796.852,728.064 798.891,727.763 800.93,729.029 802.969,728.999 
  805.009,728.727 807.048,725.543 809.087,723.925 811.126,723.922 813.166,723.113 815.205,724.106 817.244,725.449 819.284,724.679 821.323,722.078 823.362,717.985 
  825.401,718.517 827.441,720.895 829.48,720.877 831.519,721.257 833.558,721.472 835.598,720.397 837.637,720.665 839.676,720.794 841.716,723.387 843.755,724.339 
  845.794,723.319 847.833,719.291 849.873,721.592 851.912,720.683 853.951,720.561 855.99,719.268 858.03,720.065 860.069,722.368 862.108,722.666 864.148,724.24 
  866.187,723.974 868.226,721.744 870.265,720.53 872.305,720.899 874.344,718.71 876.383,721.084 878.422,721.194 880.462,724.531 882.501,725.908 884.54,725.698 
  886.58,725.285 888.619,723.905 890.658,726.862 892.697,727.37 894.737,725.843 896.776,726.165 898.815,724.748 900.855,724.282 902.894,725.034 904.933,724.084 
  906.972,727.06 909.012,723.59 911.051,722.729 913.09,723.191 915.129,722.877 917.169,722.561 919.208,721.38 921.247,720.922 923.287,723.014 925.326,720.848 
  927.365,719.146 929.404,720.527 931.444,717.112 933.483,716.335 935.522,717.887 937.561,716.793 939.601,714.875 941.64,713.477 943.679,715.084 945.719,716.194 
  947.758,716.72 949.797,715.01 951.836,718.307 953.876,718.402 955.915,718.892 957.954,718.646 959.993,719.771 962.033,717.846 964.072,721.043 966.111,720.699 
  968.151,723.174 970.19,724.757 972.229,724.265 974.268,724.479 976.308,726.731 978.347,730.095 980.386,730.02 982.425,730.287 984.465,731.936 986.504,731.211 
  988.543,730.698 990.583,730.813 992.622,731.335 994.661,731.349 996.7,731.349 998.74,733.606 1000.78,734.323 1002.82,734.842 1004.86,732.682 1006.9,730.679 
  1008.94,729.56 1010.98,733.542 1013.01,736.269 1015.05,735.45 1017.09,735.227 1019.13,735.239 1021.17,735.264 1023.21,736.638 1025.25,739.473 1027.29,742.843 
  1029.33,742.517 1031.37,741.553 1033.41,740.111 1035.45,739.836 1037.49,737.18 1039.53,737.782 1041.56,738.835 1043.6,738.627 1045.64,735.043 1047.68,735.857 
  1049.72,737.733 1051.76,740.781 1053.8,740.543 1055.84,740.995 1057.88,740.389 1059.92,743.469 1061.96,740.409 1064,740.097 1066.04,739.386 1068.07,738.432 
  1070.11,738.374 1072.15,741.461 1074.19,741.514 1076.23,742.182 1078.27,743.27 1080.31,744.259 1082.35,743.491 1084.39,743.565 1086.43,741.03 1088.47,740.231 
  1090.51,738.59 1092.55,737.476 1094.59,736.866 1096.62,737.135 1098.66,739.335 1100.7,738.283 1102.74,739.991 1104.78,740.556 1106.82,741.292 1108.86,739.06 
  1110.9,738.35 1112.94,739.7 1114.98,741.199 1117.02,744.383 1119.06,744.816 1121.1,745.486 1123.14,748.344 1125.17,748.113 1127.21,747.857 1129.25,747.401 
  1131.29,748.86 1133.33,749.541 1135.37,750.712 1137.41,753.641 1139.45,754.943 1141.49,757.076 1143.53,757.739 1145.57,759.541 1147.61,759.347 1149.65,759.054 
  1151.69,759.181 1153.72,760.308 1155.76,756.399 1157.8,753.363 1159.84,750.964 1161.88,752.836 1163.92,752.795 1165.96,755.609 1168,755.196 1170.04,755.21 
  1172.08,752.079 1174.12,751.89 1176.16,751.859 1178.2,753.102 1180.23,752.977 1182.27,749.86 1184.31,750.342 1186.35,750.929 1188.39,750.988 1190.43,750.958 
  1192.47,747.293 1194.51,748.246 1196.55,744.125 1198.59,744.135 1200.63,742.835 1202.67,742.372 1204.71,741.982 1206.75,741.952 1208.78,744.93 1210.82,747.332 
  1212.86,749.91 1214.9,749.9 1216.94,746.268 1218.98,746.629 1221.02,746.755 1223.06,745.254 1225.1,742.657 1227.14,741.277 1229.18,741.076 1231.22,739.609 
  1233.26,737.569 1235.3,737.795 1237.33,737.611 1239.37,736.015 1241.41,736.09 1243.45,737.221 1245.49,737.099 1247.53,737.272 1249.57,740.969 1251.61,741.425 
  1253.65,741.295 1255.69,741.805 1257.73,740.93 1259.77,737.6 1261.81,735.246 1263.85,733.766 1265.88,736.683 1267.92,736.29 1269.96,737.445 1272,738.577 
  1274.04,735.765 1276.08,733.967 1278.12,732.745 1280.16,731.979 1282.2,733.773 1284.24,733.26 1286.28,732.08 1288.32,731.304 1290.36,733.528 1292.39,736.018 
  1294.43,736.272 1296.47,738.771 1298.51,738.048 1300.55,738.546 1302.59,737.575 1304.63,737.174 1306.67,737.414 1308.71,737.283 1310.75,736.041 1312.79,739.074 
  1314.83,737.22 1316.87,736.609 1318.91,736.414 1320.94,735.743 1322.98,737.989 1325.02,737.033 1327.06,737.032 1329.1,736.842 1331.14,733.271 1333.18,736.686 
  1335.22,736.631 1337.26,735.468 1339.3,736.422 1341.34,734.897 1343.38,735.369 1345.42,733.413 1347.46,733.618 1349.49,729.968 1351.53,730.763 1353.57,730.582 
  1355.61,728.578 1357.65,729.467 1359.69,732.115 1361.73,734.068 1363.77,736.345 1365.81,736.485 1367.85,736.455 1369.89,736.792 1371.93,737.376 1373.97,735.781 
  1376.01,737.167 1378.04,737.303 1380.08,736.306 1382.12,736.707 1384.16,736.452 1386.2,739.265 1388.24,741.346 1390.28,740.616 1392.32,740.036 1394.36,739.843 
  1396.4,744.143 1398.44,742.917 1400.48,747.17 1402.52,746.238 1404.56,748.7 1406.59,747.415 1408.63,746.698 1410.67,743.115 1412.71,741.614 1414.75,739.732 
  1416.79,737.468 1418.83,736.874 1420.87,740.054 1422.91,740.856 1424.95,739.26 1426.99,739.494 1429.03,740.809 1431.07,742.532 1433.1,743.124 1435.14,744.037 
  1437.18,746.229 1439.22,746.989 1441.26,747.88 1443.3,745.731 1445.34,748.185 1447.38,748.172 1449.42,748.045 1451.46,748.01 1453.5,744.349 1455.54,742.281 
  1457.58,742.371 1459.62,739.647 1461.65,737.866 1463.69,739.55 1465.73,741.242 1467.77,740.195 1469.81,737.001 1471.85,737.891 1473.89,738.073 1475.93,738.135 
  1477.97,738.536 1480.01,738.104 1482.05,741.409 1484.09,741.361 1486.13,740.298 1488.17,738.566 1490.2,739.106 1492.24,739.847 1494.28,740.125 1496.32,738.809 
  1498.36,736.645 1500.4,736.775 1502.44,736.041 1504.48,735.662 1506.52,735.371 1508.56,736.108 1510.6,735.442 1512.64,735.381 1514.68,737.29 1516.72,736.767 
  1518.75,739.571 1520.79,741.641 1522.83,740.379 1524.87,740.418 1526.91,737.069 1528.95,734.464 1530.99,732.324 1533.03,735.117 1535.07,738.763 1537.11,738.371 
  1539.15,738.674 1541.19,738.978 1543.23,737.877 1545.26,736.025 1547.3,733.147 1549.34,734.386 1551.38,735.414 1553.42,738.812 1555.46,736.918 1557.5,737.426 
  1559.54,739.165 1561.58,739.289 1563.62,739.259 1565.66,737.272 1567.7,735.876 1569.74,734.379 1571.78,734.149 1573.81,731.767 1575.85,731.874 1577.89,734.41 
  1579.93,735.04 1581.97,732.298 1584.01,732.376 1586.05,731.847 1588.09,732.291 1590.13,730.856 1592.17,728.41 1594.21,728.165 1596.25,728.823 1598.29,726.767 
  1600.33,724.569 1602.36,725.711 1604.4,722.887 1606.44,721.365 1608.48,720.587 1610.52,721.336 1612.56,723.082 1614.6,725.484 1616.64,724.37 1618.68,722.61 
  1620.72,723.787 1622.76,722.049 1624.8,720.743 1626.84,716.871 1628.88,718.95 1630.91,721.242 1632.95,719.62 1634.99,720.845 1637.03,718.164 1639.07,719.225 
  1641.11,719.688 1643.15,717.66 1645.19,715.766 1647.23,718.486 1649.27,714.92 1651.31,714.312 1653.35,712.513 1655.39,709.494 1657.42,709.784 1659.46,710.73 
  1661.5,709.687 1663.54,709.178 1665.58,708.586 1667.62,708.699 1669.66,707.939 1671.7,709.509 1673.74,711.315 1675.78,711.365 1677.82,711.036 1679.86,707.896 
  1681.9,708.501 1683.94,709.93 1685.97,709.625 1688.01,710.434 1690.05,710.998 1692.09,712.404 1694.13,710.957 1696.17,710.344 1698.21,709.87 1700.25,708.027 
  1702.29,711.379 1704.33,708.476 1706.37,709.836 1708.41,708.547 1710.45,709.416 1712.49,709.034 1714.52,708.535 1716.56,708.434 1718.6,706.244 1720.64,705.335 
  1722.68,705.573 1724.72,706.099 1726.76,705.283 1728.8,705.242 1730.84,706.866 1732.88,709.812 1734.92,711.997 1736.96,709.644 1739,708.229 1741.04,708.536 
  1743.07,708.1 1745.11,708.973 1747.15,710.126 1749.19,712.966 1751.23,715.987 1753.27,717.381 1755.31,717.622 1757.35,715.948 1759.39,716.964 1761.43,714.962 
  1763.47,715.177 1765.51,712.275 1767.55,713.215 1769.58,715.727 1771.62,716.526 1773.66,716.509 1775.7,716.411 1777.74,718.423 1779.78,716.7 1781.82,714.737 
  1783.86,713.046 1785.9,715.57 1787.94,716.487 1789.98,717.03 1792.02,714.832 1794.06,714.396 1796.1,716.841 1798.13,715.996 1800.17,715.638 1802.21,718.076 
  1804.25,720.045 1806.29,718.238 1808.33,720.554 1810.37,723.166 1812.41,723.576 1814.45,724.741 1816.49,720.864 1818.53,718.741 1820.57,719.772 1822.61,721.378 
  1824.65,721.541 1826.68,723.27 1828.72,723.382 1830.76,725.38 1832.8,725.513 1834.84,725.488 1836.88,727.776 1838.92,726.105 1840.96,728.719 1843,728.739 
  1845.04,728.744 1847.08,730.801 1849.12,733.328 1851.16,733.65 1853.2,737.28 1855.23,738.045 1857.27,740.424 1859.31,742.141 1861.35,744.43 1863.39,745.268 
  1865.43,745.924 1867.47,749.739 1869.51,752.464 1871.55,751.959 1873.59,755.125 1875.63,754.015 1877.67,755.024 1879.71,754.622 1881.74,753.858 1883.78,756.348 
  1885.82,756.648 1887.86,755.998 1889.9,754.163 1891.94,752.548 1893.98,752.039 1896.02,752.614 1898.06,756.456 1900.1,753.343 1902.14,753.828 1904.18,756.7 
  1906.22,755.42 1908.26,757.501 1910.29,758.001 1912.33,760.033 1914.37,758.607 1916.41,759.366 1918.45,756.374 1920.49,754.795 1922.53,757.286 1924.57,755.435 
  1926.61,755.221 1928.65,751.498 1930.69,753.674 1932.73,750.763 1934.77,751.492 1936.81,750.601 1938.84,749.245 1940.88,752.218 1942.92,751.365 1944.96,749.94 
  1947,750.456 1949.04,750.588 1951.08,750.389 1953.12,748.963 1955.16,746.434 1957.2,746.839 1959.24,746.344 1961.28,747.536 1963.32,747.378 1965.36,749.223 
  1967.39,748.031 1969.43,751.103 1971.47,751.203 1973.51,750.778 1975.55,750.951 1977.59,752.963 1979.63,750.83 1981.67,751.038 1983.71,750.974 1985.75,749.387 
  1987.79,752.733 1989.83,752.704 1991.87,753.135 1993.9,752.809 1995.94,754.947 1997.98,755.419 2000.02,752.315 2002.06,752.747 2004.1,749.421 2006.14,749.161 
  2008.18,749.425 2010.22,751.72 2012.26,751.769 2014.3,748.16 2016.34,748.311 2018.38,744.326 2020.42,746.869 2022.45,747.718 2024.49,747.316 2026.53,749.076 
  2028.57,749.604 2030.61,749.983 2032.65,750.069 2034.69,750.436 2036.73,750.839 2038.77,748.607 2040.81,745.635 2042.85,747.748 2044.89,746.451 2046.93,744.339 
  2048.97,742.874 2051,741.436 2053.04,739.136 2055.08,738.71 2057.12,737.19 2059.16,733.926 2061.2,730.311 2063.24,731.161 2065.28,731.761 2067.32,731.366 
  2069.36,731.8 2071.4,728.242 2073.44,728.421 2075.48,730.732 2077.52,731.187 2079.55,729.846 2081.59,727.968 2083.63,727.423 2085.67,728.363 2087.71,728.718 
  2089.75,729.323 2091.79,729.143 2093.83,731.868 2095.87,732.932 2097.91,732.605 2099.95,729.921 2101.99,729.858 2104.03,730.419 2106.07,731.159 2108.1,731.572 
  2110.14,732.156 2112.18,730.993 2114.22,730.938 2116.26,731.551 2118.3,729.661 2120.34,727.679 2122.38,729.627 2124.42,731.421 2126.46,731.867 2128.5,734.013 
  2130.54,734.25 2132.58,735.248 2134.61,735.396 2136.65,736.139 2138.69,736.617 2140.73,737.429 2142.77,736.941 2144.81,735.341 2146.85,737.386 2148.89,738.28 
  2150.93,735.088 2152.97,731.874 2155.01,731.089 2157.05,731.819 2159.09,733.102 2161.13,732.222 2163.16,732.725 2165.2,731.265 2167.24,733.504 2169.28,733.868 
  2171.32,734.634 2173.36,734.527 2175.4,734.318 2177.44,734.627 2179.48,733.15 2181.52,732.539 2183.56,733.536 2185.6,729.638 2187.64,730.105 2189.68,733.363 
  2191.71,733.139 2193.75,732.634 2195.79,732.081 2197.83,731.023 2199.87,731.31 2201.91,730.292 2203.95,730.997 2205.99,731.597 2208.03,731.284 2210.07,728.981 
  2212.11,726.791 2214.15,726.362 2216.19,726.442 2218.23,730.206 2220.26,727.714 2222.3,728.675 2224.34,728.187 2226.38,729.96 2228.42,733.083 2230.46,730.899 
  2232.5,730.908 2234.54,728.678 2236.58,728.815 2238.62,728.857 2240.66,726.289 2242.7,725.609 2244.74,728.718 2246.77,728.83 2248.81,729.111 2250.85,730.566 
  2252.89,728.442 2254.93,729.243 2256.97,729.202 2259.01,730.156 2261.05,732.209 2263.09,733.881 2265.13,738.19 2267.17,737.677 2269.21,736.358 2271.25,734.788 
  2273.29,731.497 2275.32,733.956 2277.36,732.817 2279.4,730.213 2281.44,728.646 2283.48,730.266 2285.52,730.704 2287.56,727.576 2289.6,726.059 2291.64,725.363 
  
  "/>
<path clip-path="url(#clip620)" d="
M1611.97 250.738 L2280.77 250.738 L2280.77 95.2176 L1611.97 95.2176  Z
  " fill="#ffffff" fill-rule="evenodd" fill-opacity="1"/>
<polyline clip-path="url(#clip620)" style="stroke:#000000; stroke-linecap:butt; stroke-linejoin:round; stroke-width:4; stroke-opacity:1; fill:none" points="
  1611.97,250.738 2280.77,250.738 2280.77,95.2176 1611.97,95.2176 1611.97,250.738 
  "/>
<polyline clip-path="url(#clip620)" style="stroke:#009af9; stroke-linecap:butt; stroke-linejoin:round; stroke-width:4; stroke-opacity:0.4; fill:none" points="
  1635.96,147.058 1779.93,147.058 
  "/>
<path clip-path="url(#clip620)" d="M1803.92 129.778 L1808.6 129.778 L1808.6 164.338 L1803.92 164.338 L1803.92 129.778 Z" fill="#000000" fill-rule="evenodd" fill-opacity="1" /><path clip-path="url(#clip620)" d="M1839.27 148.689 L1839.27 164.338 L1835.01 164.338 L1835.01 148.828 Q1835.01 145.148 1833.57 143.319 Q1832.14 141.49 1829.27 141.49 Q1825.82 141.49 1823.83 143.69 Q1821.84 145.889 1821.84 149.685 L1821.84 164.338 L1817.56 164.338 L1817.56 138.412 L1821.84 138.412 L1821.84 142.44 Q1823.37 140.102 1825.43 138.944 Q1827.51 137.787 1830.22 137.787 Q1834.69 137.787 1836.98 140.565 Q1839.27 143.319 1839.27 148.689 Z" fill="#000000" fill-rule="evenodd" fill-opacity="1" /><path clip-path="url(#clip620)" d="M1851.88 160.449 L1851.88 174.199 L1847.6 174.199 L1847.6 138.412 L1851.88 138.412 L1851.88 142.347 Q1853.23 140.032 1855.26 138.921 Q1857.32 137.787 1860.17 137.787 Q1864.89 137.787 1867.83 141.537 Q1870.8 145.287 1870.8 151.398 Q1870.8 157.509 1867.83 161.259 Q1864.89 165.009 1860.17 165.009 Q1857.32 165.009 1855.26 163.898 Q1853.23 162.763 1851.88 160.449 M1866.38 151.398 Q1866.38 146.699 1864.43 144.037 Q1862.51 141.352 1859.13 141.352 Q1855.75 141.352 1853.81 144.037 Q1851.88 146.699 1851.88 151.398 Q1851.88 156.097 1853.81 158.782 Q1855.75 161.444 1859.13 161.444 Q1862.51 161.444 1864.43 158.782 Q1866.38 156.097 1866.38 151.398 Z" fill="#000000" fill-rule="evenodd" fill-opacity="1" /><path clip-path="url(#clip620)" d="M1877.42 154.106 L1877.42 138.412 L1881.68 138.412 L1881.68 153.944 Q1881.68 157.625 1883.11 159.476 Q1884.55 161.305 1887.42 161.305 Q1890.87 161.305 1892.86 159.106 Q1894.87 156.907 1894.87 153.111 L1894.87 138.412 L1899.13 138.412 L1899.13 164.338 L1894.87 164.338 L1894.87 160.356 Q1893.32 162.717 1891.26 163.875 Q1889.22 165.009 1886.51 165.009 Q1882.05 165.009 1879.73 162.231 Q1877.42 159.453 1877.42 154.106 M1888.13 137.787 L1888.13 137.787 Z" fill="#000000" fill-rule="evenodd" fill-opacity="1" /><path clip-path="url(#clip620)" d="M1912.12 131.051 L1912.12 138.412 L1920.89 138.412 L1920.89 141.722 L1912.12 141.722 L1912.12 155.796 Q1912.12 158.967 1912.97 159.87 Q1913.85 160.773 1916.51 160.773 L1920.89 160.773 L1920.89 164.338 L1916.51 164.338 Q1911.58 164.338 1909.71 162.509 Q1907.83 160.657 1907.83 155.796 L1907.83 141.722 L1904.71 141.722 L1904.71 138.412 L1907.83 138.412 L1907.83 131.051 L1912.12 131.051 Z" fill="#000000" fill-rule="evenodd" fill-opacity="1" /><polyline clip-path="url(#clip620)" style="stroke:#e26f46; stroke-linecap:butt; stroke-linejoin:round; stroke-width:4; stroke-opacity:1; fill:none" points="
  1635.96,198.898 1779.93,198.898 
  "/>
<path clip-path="url(#clip620)" d="M1822.35 191.016 L1822.35 195.043 Q1820.54 194.117 1818.6 193.655 Q1816.65 193.192 1814.57 193.192 Q1811.4 193.192 1809.8 194.164 Q1808.23 195.136 1808.23 197.08 Q1808.23 198.562 1809.36 199.418 Q1810.5 200.252 1813.92 201.016 L1815.38 201.34 Q1819.92 202.312 1821.82 204.094 Q1823.74 205.854 1823.74 209.025 Q1823.74 212.636 1820.87 214.742 Q1818.02 216.849 1813.02 216.849 Q1810.94 216.849 1808.67 216.432 Q1806.42 216.039 1803.92 215.228 L1803.92 210.83 Q1806.28 212.057 1808.57 212.682 Q1810.87 213.284 1813.11 213.284 Q1816.12 213.284 1817.74 212.266 Q1819.36 211.224 1819.36 209.349 Q1819.36 207.613 1818.18 206.687 Q1817.02 205.761 1813.07 204.904 L1811.58 204.557 Q1807.63 203.724 1805.87 202.011 Q1804.11 200.275 1804.11 197.266 Q1804.11 193.608 1806.7 191.618 Q1809.29 189.627 1814.06 189.627 Q1816.42 189.627 1818.51 189.974 Q1820.59 190.321 1822.35 191.016 Z" fill="#000000" fill-rule="evenodd" fill-opacity="1" /><path clip-path="url(#clip620)" d="M1834.73 182.891 L1834.73 190.252 L1843.51 190.252 L1843.51 193.562 L1834.73 193.562 L1834.73 207.636 Q1834.73 210.807 1835.59 211.71 Q1836.47 212.613 1839.13 212.613 L1843.51 212.613 L1843.51 216.178 L1839.13 216.178 Q1834.2 216.178 1832.32 214.349 Q1830.45 212.497 1830.45 207.636 L1830.45 193.562 L1827.32 193.562 L1827.32 190.252 L1830.45 190.252 L1830.45 182.891 L1834.73 182.891 Z" fill="#000000" fill-rule="evenodd" fill-opacity="1" /><path clip-path="url(#clip620)" d="M1866.17 194.187 L1866.17 180.159 L1870.43 180.159 L1870.43 216.178 L1866.17 216.178 L1866.17 212.289 Q1864.82 214.603 1862.76 215.738 Q1860.73 216.849 1857.86 216.849 Q1853.16 216.849 1850.19 213.099 Q1847.26 209.349 1847.26 203.238 Q1847.26 197.127 1850.19 193.377 Q1853.16 189.627 1857.86 189.627 Q1860.73 189.627 1862.76 190.761 Q1864.82 191.872 1866.17 194.187 M1851.65 203.238 Q1851.65 207.937 1853.57 210.622 Q1855.52 213.284 1858.9 213.284 Q1862.28 213.284 1864.22 210.622 Q1866.17 207.937 1866.17 203.238 Q1866.17 198.539 1864.22 195.877 Q1862.28 193.192 1858.9 193.192 Q1855.52 193.192 1853.57 195.877 Q1851.65 198.539 1851.65 203.238 Z" fill="#000000" fill-rule="evenodd" fill-opacity="1" /><path clip-path="url(#clip620)" d="M1904.5 180.206 Q1901.4 185.53 1899.89 190.738 Q1898.39 195.946 1898.39 201.293 Q1898.39 206.641 1899.89 211.895 Q1901.42 217.127 1904.5 222.428 L1900.8 222.428 Q1897.32 216.988 1895.59 211.733 Q1893.88 206.479 1893.88 201.293 Q1893.88 196.131 1895.59 190.9 Q1897.3 185.668 1900.8 180.206 L1904.5 180.206 Z" fill="#000000" fill-rule="evenodd" fill-opacity="1" /><path clip-path="url(#clip620)" d="M1910.29 190.252 L1914.55 190.252 L1919.87 210.483 L1925.17 190.252 L1930.19 190.252 L1935.52 210.483 L1940.82 190.252 L1945.08 190.252 L1938.3 216.178 L1933.27 216.178 L1927.69 194.928 L1922.09 216.178 L1917.07 216.178 L1910.29 190.252 Z" fill="#000000" fill-rule="evenodd" fill-opacity="1" /><path clip-path="url(#clip620)" d="M1951.54 190.252 L1955.8 190.252 L1955.8 216.178 L1951.54 216.178 L1951.54 190.252 M1951.54 180.159 L1955.8 180.159 L1955.8 185.553 L1951.54 185.553 L1951.54 180.159 Z" fill="#000000" fill-rule="evenodd" fill-opacity="1" /><path clip-path="url(#clip620)" d="M1986.26 200.529 L1986.26 216.178 L1982 216.178 L1982 200.668 Q1982 196.988 1980.56 195.159 Q1979.13 193.33 1976.26 193.33 Q1972.81 193.33 1970.82 195.53 Q1968.83 197.729 1968.83 201.525 L1968.83 216.178 L1964.55 216.178 L1964.55 190.252 L1968.83 190.252 L1968.83 194.28 Q1970.36 191.942 1972.42 190.784 Q1974.5 189.627 1977.21 189.627 Q1981.68 189.627 1983.97 192.405 Q1986.26 195.159 1986.26 200.529 Z" fill="#000000" fill-rule="evenodd" fill-opacity="1" /><path clip-path="url(#clip620)" d="M2011.81 194.187 L2011.81 180.159 L2016.07 180.159 L2016.07 216.178 L2011.81 216.178 L2011.81 212.289 Q2010.47 214.603 2008.41 215.738 Q2006.37 216.849 2003.5 216.849 Q1998.81 216.849 1995.84 213.099 Q1992.9 209.349 1992.9 203.238 Q1992.9 197.127 1995.84 193.377 Q1998.81 189.627 2003.5 189.627 Q2006.37 189.627 2008.41 190.761 Q2010.47 191.872 2011.81 194.187 M1997.3 203.238 Q1997.3 207.937 1999.22 210.622 Q2001.17 213.284 2004.55 213.284 Q2007.93 213.284 2009.87 210.622 Q2011.81 207.937 2011.81 203.238 Q2011.81 198.539 2009.87 195.877 Q2007.93 193.192 2004.55 193.192 Q2001.17 193.192 1999.22 195.877 Q1997.3 198.539 1997.3 203.238 Z" fill="#000000" fill-rule="evenodd" fill-opacity="1" /><path clip-path="url(#clip620)" d="M2034.89 193.238 Q2031.47 193.238 2029.48 195.923 Q2027.49 198.585 2027.49 203.238 Q2027.49 207.891 2029.45 210.576 Q2031.44 213.238 2034.89 213.238 Q2038.3 213.238 2040.29 210.553 Q2042.28 207.867 2042.28 203.238 Q2042.28 198.631 2040.29 195.946 Q2038.3 193.238 2034.89 193.238 M2034.89 189.627 Q2040.45 189.627 2043.62 193.238 Q2046.79 196.849 2046.79 203.238 Q2046.79 209.604 2043.62 213.238 Q2040.45 216.849 2034.89 216.849 Q2029.31 216.849 2026.14 213.238 Q2022.99 209.604 2022.99 203.238 Q2022.99 196.849 2026.14 193.238 Q2029.31 189.627 2034.89 189.627 Z" fill="#000000" fill-rule="evenodd" fill-opacity="1" /><path clip-path="url(#clip620)" d="M2051.37 190.252 L2055.63 190.252 L2060.96 210.483 L2066.26 190.252 L2071.28 190.252 L2076.61 210.483 L2081.91 190.252 L2086.17 190.252 L2079.38 216.178 L2074.36 216.178 L2068.78 194.928 L2063.18 216.178 L2058.16 216.178 L2051.37 190.252 Z" fill="#000000" fill-rule="evenodd" fill-opacity="1" /><path clip-path="url(#clip620)" d="M2093.18 194.65 L2122.86 194.65 L2122.86 198.539 L2093.18 198.539 L2093.18 194.65 M2093.18 204.094 L2122.86 204.094 L2122.86 208.029 L2093.18 208.029 L2093.18 204.094 Z" fill="#000000" fill-rule="evenodd" fill-opacity="1" /><path clip-path="url(#clip620)" d="M2133.76 212.242 L2141.4 212.242 L2141.4 185.877 L2133.09 187.543 L2133.09 183.284 L2141.35 181.618 L2146.03 181.618 L2146.03 212.242 L2153.67 212.242 L2153.67 216.178 L2133.76 216.178 L2133.76 212.242 Z" fill="#000000" fill-rule="evenodd" fill-opacity="1" /><path clip-path="url(#clip620)" d="M2173.11 184.696 Q2169.5 184.696 2167.67 188.261 Q2165.86 191.803 2165.86 198.932 Q2165.86 206.039 2167.67 209.604 Q2169.5 213.145 2173.11 213.145 Q2176.74 213.145 2178.55 209.604 Q2180.38 206.039 2180.38 198.932 Q2180.38 191.803 2178.55 188.261 Q2176.74 184.696 2173.11 184.696 M2173.11 180.993 Q2178.92 180.993 2181.98 185.599 Q2185.05 190.182 2185.05 198.932 Q2185.05 207.659 2181.98 212.266 Q2178.92 216.849 2173.11 216.849 Q2167.3 216.849 2164.22 212.266 Q2161.17 207.659 2161.17 198.932 Q2161.17 190.182 2164.22 185.599 Q2167.3 180.993 2173.11 180.993 Z" fill="#000000" fill-rule="evenodd" fill-opacity="1" /><path clip-path="url(#clip620)" d="M2203.27 184.696 Q2199.66 184.696 2197.83 188.261 Q2196.03 191.803 2196.03 198.932 Q2196.03 206.039 2197.83 209.604 Q2199.66 213.145 2203.27 213.145 Q2206.91 213.145 2208.71 209.604 Q2210.54 206.039 2210.54 198.932 Q2210.54 191.803 2208.71 188.261 Q2206.91 184.696 2203.27 184.696 M2203.27 180.993 Q2209.08 180.993 2212.14 185.599 Q2215.22 190.182 2215.22 198.932 Q2215.22 207.659 2212.14 212.266 Q2209.08 216.849 2203.27 216.849 Q2197.46 216.849 2194.38 212.266 Q2191.33 207.659 2191.33 198.932 Q2191.33 190.182 2194.38 185.599 Q2197.46 180.993 2203.27 180.993 Z" fill="#000000" fill-rule="evenodd" fill-opacity="1" /><path clip-path="url(#clip620)" d="M2222.16 180.206 L2225.86 180.206 Q2229.34 185.668 2231.05 190.9 Q2232.79 196.131 2232.79 201.293 Q2232.79 206.479 2231.05 211.733 Q2229.34 216.988 2225.86 222.428 L2222.16 222.428 Q2225.24 217.127 2226.74 211.895 Q2228.27 206.641 2228.27 201.293 Q2228.27 195.946 2226.74 190.738 Q2225.24 185.53 2222.16 180.206 Z" fill="#000000" fill-rule="evenodd" fill-opacity="1" /></svg>
