<?xml version="1.0" encoding="utf-8"?>
<svg xmlns="http://www.w3.org/2000/svg" xmlns:xlink="http://www.w3.org/1999/xlink" width="600" height="400" viewBox="0 0 2400 1600">
<defs>
  <clipPath id="clip330">
    <rect x="0" y="0" width="2400" height="1600"/>
  </clipPath>
</defs>
<path clip-path="url(#clip330)" d="
M0 1600 L2400 1600 L2400 0 L0 0  Z
  " fill="#ffffff" fill-rule="evenodd" fill-opacity="1"/>
<defs>
  <clipPath id="clip331">
    <rect x="480" y="0" width="1681" height="1600"/>
  </clipPath>
</defs>
<path clip-path="url(#clip330)" d="
M193.936 1486.45 L2352.76 1486.45 L2352.76 123.472 L193.936 123.472  Z
  " fill="#ffffff" fill-rule="evenodd" fill-opacity="1"/>
<defs>
  <clipPath id="clip332">
    <rect x="193" y="123" width="2160" height="1364"/>
  </clipPath>
</defs>
<polyline clip-path="url(#clip332)" style="stroke:#000000; stroke-linecap:butt; stroke-linejoin:round; stroke-width:2; stroke-opacity:0.1; fill:none" points="
  481.326,1486.45 481.326,123.472 
  "/>
<polyline clip-path="url(#clip332)" style="stroke:#000000; stroke-linecap:butt; stroke-linejoin:round; stroke-width:2; stroke-opacity:0.1; fill:none" points="
  933.909,1486.45 933.909,123.472 
  "/>
<polyline clip-path="url(#clip332)" style="stroke:#000000; stroke-linecap:butt; stroke-linejoin:round; stroke-width:2; stroke-opacity:0.1; fill:none" points="
  1386.49,1486.45 1386.49,123.472 
  "/>
<polyline clip-path="url(#clip332)" style="stroke:#000000; stroke-linecap:butt; stroke-linejoin:round; stroke-width:2; stroke-opacity:0.1; fill:none" points="
  1839.07,1486.45 1839.07,123.472 
  "/>
<polyline clip-path="url(#clip332)" style="stroke:#000000; stroke-linecap:butt; stroke-linejoin:round; stroke-width:2; stroke-opacity:0.1; fill:none" points="
  2291.66,1486.45 2291.66,123.472 
  "/>
<polyline clip-path="url(#clip330)" style="stroke:#000000; stroke-linecap:butt; stroke-linejoin:round; stroke-width:4; stroke-opacity:1; fill:none" points="
  193.936,1486.45 2352.76,1486.45 
  "/>
<polyline clip-path="url(#clip330)" style="stroke:#000000; stroke-linecap:butt; stroke-linejoin:round; stroke-width:4; stroke-opacity:1; fill:none" points="
  481.326,1486.45 481.326,1467.55 
  "/>
<polyline clip-path="url(#clip330)" style="stroke:#000000; stroke-linecap:butt; stroke-linejoin:round; stroke-width:4; stroke-opacity:1; fill:none" points="
  933.909,1486.45 933.909,1467.55 
  "/>
<polyline clip-path="url(#clip330)" style="stroke:#000000; stroke-linecap:butt; stroke-linejoin:round; stroke-width:4; stroke-opacity:1; fill:none" points="
  1386.49,1486.45 1386.49,1467.55 
  "/>
<polyline clip-path="url(#clip330)" style="stroke:#000000; stroke-linecap:butt; stroke-linejoin:round; stroke-width:4; stroke-opacity:1; fill:none" points="
  1839.07,1486.45 1839.07,1467.55 
  "/>
<polyline clip-path="url(#clip330)" style="stroke:#000000; stroke-linecap:butt; stroke-linejoin:round; stroke-width:4; stroke-opacity:1; fill:none" points="
  2291.66,1486.45 2291.66,1467.55 
  "/>
<path clip-path="url(#clip330)" d="M475.979 1544.91 L492.298 1544.91 L492.298 1548.85 L470.354 1548.85 L470.354 1544.91 Q473.016 1542.16 477.599 1537.53 Q482.206 1532.88 483.386 1531.53 Q485.632 1529.01 486.511 1527.27 Q487.414 1525.51 487.414 1523.82 Q487.414 1521.07 485.47 1519.33 Q483.548 1517.6 480.446 1517.6 Q478.247 1517.6 475.794 1518.36 Q473.363 1519.13 470.585 1520.68 L470.585 1515.95 Q473.409 1514.82 475.863 1514.24 Q478.317 1513.66 480.354 1513.66 Q485.724 1513.66 488.919 1516.35 Q492.113 1519.03 492.113 1523.52 Q492.113 1525.65 491.303 1527.57 Q490.516 1529.47 488.409 1532.07 Q487.831 1532.74 484.729 1535.95 Q481.627 1539.15 475.979 1544.91 Z" fill="#000000" fill-rule="evenodd" fill-opacity="1" /><path clip-path="url(#clip330)" d="M936.918 1518.36 L925.113 1536.81 L936.918 1536.81 L936.918 1518.36 M935.691 1514.29 L941.571 1514.29 L941.571 1536.81 L946.501 1536.81 L946.501 1540.7 L941.571 1540.7 L941.571 1548.85 L936.918 1548.85 L936.918 1540.7 L921.316 1540.7 L921.316 1536.19 L935.691 1514.29 Z" fill="#000000" fill-rule="evenodd" fill-opacity="1" /><path clip-path="url(#clip330)" d="M1386.9 1529.7 Q1383.75 1529.7 1381.9 1531.86 Q1380.07 1534.01 1380.07 1537.76 Q1380.07 1541.49 1381.9 1543.66 Q1383.75 1545.82 1386.9 1545.82 Q1390.04 1545.82 1391.87 1543.66 Q1393.73 1541.49 1393.73 1537.76 Q1393.73 1534.01 1391.87 1531.86 Q1390.04 1529.7 1386.9 1529.7 M1396.18 1515.05 L1396.18 1519.31 Q1394.42 1518.48 1392.61 1518.04 Q1390.83 1517.6 1389.07 1517.6 Q1384.44 1517.6 1381.99 1520.72 Q1379.56 1523.85 1379.21 1530.17 Q1380.58 1528.15 1382.64 1527.09 Q1384.7 1526 1387.17 1526 Q1392.38 1526 1395.39 1529.17 Q1398.42 1532.32 1398.42 1537.76 Q1398.42 1543.08 1395.28 1546.3 Q1392.13 1549.52 1386.9 1549.52 Q1380.9 1549.52 1377.73 1544.94 Q1374.56 1540.33 1374.56 1531.6 Q1374.56 1523.41 1378.45 1518.55 Q1382.34 1513.66 1388.89 1513.66 Q1390.65 1513.66 1392.43 1514.01 Q1394.23 1514.36 1396.18 1515.05 Z" fill="#000000" fill-rule="evenodd" fill-opacity="1" /><path clip-path="url(#clip330)" d="M1839.07 1532.44 Q1835.74 1532.44 1833.82 1534.22 Q1831.92 1536 1831.92 1539.13 Q1831.92 1542.25 1833.82 1544.03 Q1835.74 1545.82 1839.07 1545.82 Q1842.41 1545.82 1844.33 1544.03 Q1846.25 1542.23 1846.25 1539.13 Q1846.25 1536 1844.33 1534.22 Q1842.43 1532.44 1839.07 1532.44 M1834.4 1530.45 Q1831.39 1529.7 1829.7 1527.64 Q1828.03 1525.58 1828.03 1522.62 Q1828.03 1518.48 1830.97 1516.07 Q1833.94 1513.66 1839.07 1513.66 Q1844.24 1513.66 1847.18 1516.07 Q1850.12 1518.48 1850.12 1522.62 Q1850.12 1525.58 1848.43 1527.64 Q1846.76 1529.7 1843.77 1530.45 Q1847.15 1531.23 1849.03 1533.52 Q1850.93 1535.82 1850.93 1539.13 Q1850.93 1544.15 1847.85 1546.83 Q1844.79 1549.52 1839.07 1549.52 Q1833.36 1549.52 1830.28 1546.83 Q1827.22 1544.15 1827.22 1539.13 Q1827.22 1535.82 1829.12 1533.52 Q1831.02 1531.23 1834.4 1530.45 M1832.69 1523.06 Q1832.69 1525.75 1834.35 1527.25 Q1836.04 1528.76 1839.07 1528.76 Q1842.08 1528.76 1843.77 1527.25 Q1845.49 1525.75 1845.49 1523.06 Q1845.49 1520.38 1843.77 1518.87 Q1842.08 1517.37 1839.07 1517.37 Q1836.04 1517.37 1834.35 1518.87 Q1832.69 1520.38 1832.69 1523.06 Z" fill="#000000" fill-rule="evenodd" fill-opacity="1" /><path clip-path="url(#clip330)" d="M2266.34 1544.91 L2273.98 1544.91 L2273.98 1518.55 L2265.67 1520.21 L2265.67 1515.95 L2273.94 1514.29 L2278.61 1514.29 L2278.61 1544.91 L2286.25 1544.91 L2286.25 1548.85 L2266.34 1548.85 L2266.34 1544.91 Z" fill="#000000" fill-rule="evenodd" fill-opacity="1" /><path clip-path="url(#clip330)" d="M2305.7 1517.37 Q2302.09 1517.37 2300.26 1520.93 Q2298.45 1524.47 2298.45 1531.6 Q2298.45 1538.71 2300.26 1542.27 Q2302.09 1545.82 2305.7 1545.82 Q2309.33 1545.82 2311.14 1542.27 Q2312.96 1538.71 2312.96 1531.6 Q2312.96 1524.47 2311.14 1520.93 Q2309.33 1517.37 2305.7 1517.37 M2305.7 1513.66 Q2311.51 1513.66 2314.56 1518.27 Q2317.64 1522.85 2317.64 1531.6 Q2317.64 1540.33 2314.56 1544.94 Q2311.51 1549.52 2305.7 1549.52 Q2299.89 1549.52 2296.81 1544.94 Q2293.75 1540.33 2293.75 1531.6 Q2293.75 1522.85 2296.81 1518.27 Q2299.89 1513.66 2305.7 1513.66 Z" fill="#000000" fill-rule="evenodd" fill-opacity="1" /><polyline clip-path="url(#clip332)" style="stroke:#000000; stroke-linecap:butt; stroke-linejoin:round; stroke-width:2; stroke-opacity:0.1; fill:none" points="
  193.936,1483.58 2352.76,1483.58 
  "/>
<polyline clip-path="url(#clip332)" style="stroke:#000000; stroke-linecap:butt; stroke-linejoin:round; stroke-width:2; stroke-opacity:0.1; fill:none" points="
  193.936,1215.28 2352.76,1215.28 
  "/>
<polyline clip-path="url(#clip332)" style="stroke:#000000; stroke-linecap:butt; stroke-linejoin:round; stroke-width:2; stroke-opacity:0.1; fill:none" points="
  193.936,946.98 2352.76,946.98 
  "/>
<polyline clip-path="url(#clip332)" style="stroke:#000000; stroke-linecap:butt; stroke-linejoin:round; stroke-width:2; stroke-opacity:0.1; fill:none" points="
  193.936,678.678 2352.76,678.678 
  "/>
<polyline clip-path="url(#clip332)" style="stroke:#000000; stroke-linecap:butt; stroke-linejoin:round; stroke-width:2; stroke-opacity:0.1; fill:none" points="
  193.936,410.376 2352.76,410.376 
  "/>
<polyline clip-path="url(#clip332)" style="stroke:#000000; stroke-linecap:butt; stroke-linejoin:round; stroke-width:2; stroke-opacity:0.1; fill:none" points="
  193.936,142.075 2352.76,142.075 
  "/>
<polyline clip-path="url(#clip330)" style="stroke:#000000; stroke-linecap:butt; stroke-linejoin:round; stroke-width:4; stroke-opacity:1; fill:none" points="
  193.936,1486.45 193.936,123.472 
  "/>
<polyline clip-path="url(#clip330)" style="stroke:#000000; stroke-linecap:butt; stroke-linejoin:round; stroke-width:4; stroke-opacity:1; fill:none" points="
  193.936,1483.58 212.834,1483.58 
  "/>
<polyline clip-path="url(#clip330)" style="stroke:#000000; stroke-linecap:butt; stroke-linejoin:round; stroke-width:4; stroke-opacity:1; fill:none" points="
  193.936,1215.28 212.834,1215.28 
  "/>
<polyline clip-path="url(#clip330)" style="stroke:#000000; stroke-linecap:butt; stroke-linejoin:round; stroke-width:4; stroke-opacity:1; fill:none" points="
  193.936,946.98 212.834,946.98 
  "/>
<polyline clip-path="url(#clip330)" style="stroke:#000000; stroke-linecap:butt; stroke-linejoin:round; stroke-width:4; stroke-opacity:1; fill:none" points="
  193.936,678.678 212.834,678.678 
  "/>
<polyline clip-path="url(#clip330)" style="stroke:#000000; stroke-linecap:butt; stroke-linejoin:round; stroke-width:4; stroke-opacity:1; fill:none" points="
  193.936,410.376 212.834,410.376 
  "/>
<polyline clip-path="url(#clip330)" style="stroke:#000000; stroke-linecap:butt; stroke-linejoin:round; stroke-width:4; stroke-opacity:1; fill:none" points="
  193.936,142.075 212.834,142.075 
  "/>
<path clip-path="url(#clip330)" d="M50.9921 1484.03 L80.6679 1484.03 L80.6679 1487.97 L50.9921 1487.97 L50.9921 1484.03 Z" fill="#000000" fill-rule="evenodd" fill-opacity="1" /><path clip-path="url(#clip330)" d="M91.5706 1496.93 L99.2095 1496.93 L99.2095 1470.56 L90.8993 1472.23 L90.8993 1467.97 L99.1632 1466.3 L103.839 1466.3 L103.839 1496.93 L111.478 1496.93 L111.478 1500.86 L91.5706 1500.86 L91.5706 1496.93 Z" fill="#000000" fill-rule="evenodd" fill-opacity="1" /><path clip-path="url(#clip330)" d="M120.922 1494.98 L125.807 1494.98 L125.807 1500.86 L120.922 1500.86 L120.922 1494.98 Z" fill="#000000" fill-rule="evenodd" fill-opacity="1" /><path clip-path="url(#clip330)" d="M145.992 1469.38 Q142.381 1469.38 140.552 1472.95 Q138.746 1476.49 138.746 1483.62 Q138.746 1490.72 140.552 1494.29 Q142.381 1497.83 145.992 1497.83 Q149.626 1497.83 151.431 1494.29 Q153.26 1490.72 153.26 1483.62 Q153.26 1476.49 151.431 1472.95 Q149.626 1469.38 145.992 1469.38 M145.992 1465.68 Q151.802 1465.68 154.857 1470.28 Q157.936 1474.87 157.936 1483.62 Q157.936 1492.34 154.857 1496.95 Q151.802 1501.53 145.992 1501.53 Q140.181 1501.53 137.103 1496.95 Q134.047 1492.34 134.047 1483.62 Q134.047 1474.87 137.103 1470.28 Q140.181 1465.68 145.992 1465.68 Z" fill="#000000" fill-rule="evenodd" fill-opacity="1" /><path clip-path="url(#clip330)" d="M51.9875 1215.73 L81.6633 1215.73 L81.6633 1219.67 L51.9875 1219.67 L51.9875 1215.73 Z" fill="#000000" fill-rule="evenodd" fill-opacity="1" /><path clip-path="url(#clip330)" d="M101.756 1201.08 Q98.1447 1201.08 96.316 1204.64 Q94.5104 1208.19 94.5104 1215.32 Q94.5104 1222.42 96.316 1225.99 Q98.1447 1229.53 101.756 1229.53 Q105.39 1229.53 107.196 1225.99 Q109.024 1222.42 109.024 1215.32 Q109.024 1208.19 107.196 1204.64 Q105.39 1201.08 101.756 1201.08 M101.756 1197.38 Q107.566 1197.38 110.621 1201.98 Q113.7 1206.57 113.7 1215.32 Q113.7 1224.04 110.621 1228.65 Q107.566 1233.23 101.756 1233.23 Q95.9456 1233.23 92.8669 1228.65 Q89.8114 1224.04 89.8114 1215.32 Q89.8114 1206.57 92.8669 1201.98 Q95.9456 1197.38 101.756 1197.38 Z" fill="#000000" fill-rule="evenodd" fill-opacity="1" /><path clip-path="url(#clip330)" d="M121.918 1226.68 L126.802 1226.68 L126.802 1232.56 L121.918 1232.56 L121.918 1226.68 Z" fill="#000000" fill-rule="evenodd" fill-opacity="1" /><path clip-path="url(#clip330)" d="M137.033 1198 L155.39 1198 L155.39 1201.94 L141.316 1201.94 L141.316 1210.41 Q142.334 1210.06 143.353 1209.9 Q144.371 1209.71 145.39 1209.71 Q151.177 1209.71 154.556 1212.89 Q157.936 1216.06 157.936 1221.47 Q157.936 1227.05 154.464 1230.15 Q150.992 1233.23 144.672 1233.23 Q142.496 1233.23 140.228 1232.86 Q137.982 1232.49 135.575 1231.75 L135.575 1227.05 Q137.658 1228.19 139.881 1228.74 Q142.103 1229.3 144.58 1229.3 Q148.584 1229.3 150.922 1227.19 Q153.26 1225.08 153.26 1221.47 Q153.26 1217.86 150.922 1215.76 Q148.584 1213.65 144.58 1213.65 Q142.705 1213.65 140.83 1214.07 Q138.978 1214.48 137.033 1215.36 L137.033 1198 Z" fill="#000000" fill-rule="evenodd" fill-opacity="1" /><path clip-path="url(#clip330)" d="M100.76 932.778 Q97.1493 932.778 95.3206 936.343 Q93.515 939.885 93.515 947.014 Q93.515 954.121 95.3206 957.686 Q97.1493 961.227 100.76 961.227 Q104.395 961.227 106.2 957.686 Q108.029 954.121 108.029 947.014 Q108.029 939.885 106.2 936.343 Q104.395 932.778 100.76 932.778 M100.76 929.075 Q106.571 929.075 109.626 933.681 Q112.705 938.264 112.705 947.014 Q112.705 955.741 109.626 960.348 Q106.571 964.931 100.76 964.931 Q94.9502 964.931 91.8715 960.348 Q88.816 955.741 88.816 947.014 Q88.816 938.264 91.8715 933.681 Q94.9502 929.075 100.76 929.075 Z" fill="#000000" fill-rule="evenodd" fill-opacity="1" /><path clip-path="url(#clip330)" d="M120.922 958.38 L125.807 958.38 L125.807 964.26 L120.922 964.26 L120.922 958.38 Z" fill="#000000" fill-rule="evenodd" fill-opacity="1" /><path clip-path="url(#clip330)" d="M145.992 932.778 Q142.381 932.778 140.552 936.343 Q138.746 939.885 138.746 947.014 Q138.746 954.121 140.552 957.686 Q142.381 961.227 145.992 961.227 Q149.626 961.227 151.431 957.686 Q153.26 954.121 153.26 947.014 Q153.26 939.885 151.431 936.343 Q149.626 932.778 145.992 932.778 M145.992 929.075 Q151.802 929.075 154.857 933.681 Q157.936 938.264 157.936 947.014 Q157.936 955.741 154.857 960.348 Q151.802 964.931 145.992 964.931 Q140.181 964.931 137.103 960.348 Q134.047 955.741 134.047 947.014 Q134.047 938.264 137.103 933.681 Q140.181 929.075 145.992 929.075 Z" fill="#000000" fill-rule="evenodd" fill-opacity="1" /><path clip-path="url(#clip330)" d="M101.756 664.477 Q98.1447 664.477 96.316 668.042 Q94.5104 671.583 94.5104 678.713 Q94.5104 685.819 96.316 689.384 Q98.1447 692.926 101.756 692.926 Q105.39 692.926 107.196 689.384 Q109.024 685.819 109.024 678.713 Q109.024 671.583 107.196 668.042 Q105.39 664.477 101.756 664.477 M101.756 660.773 Q107.566 660.773 110.621 665.379 Q113.7 669.963 113.7 678.713 Q113.7 687.44 110.621 692.046 Q107.566 696.629 101.756 696.629 Q95.9456 696.629 92.8669 692.046 Q89.8114 687.44 89.8114 678.713 Q89.8114 669.963 92.8669 665.379 Q95.9456 660.773 101.756 660.773 Z" fill="#000000" fill-rule="evenodd" fill-opacity="1" /><path clip-path="url(#clip330)" d="M121.918 690.078 L126.802 690.078 L126.802 695.958 L121.918 695.958 L121.918 690.078 Z" fill="#000000" fill-rule="evenodd" fill-opacity="1" /><path clip-path="url(#clip330)" d="M137.033 661.398 L155.39 661.398 L155.39 665.333 L141.316 665.333 L141.316 673.805 Q142.334 673.458 143.353 673.296 Q144.371 673.111 145.39 673.111 Q151.177 673.111 154.556 676.282 Q157.936 679.453 157.936 684.87 Q157.936 690.449 154.464 693.551 Q150.992 696.629 144.672 696.629 Q142.496 696.629 140.228 696.259 Q137.982 695.889 135.575 695.148 L135.575 690.449 Q137.658 691.583 139.881 692.139 Q142.103 692.694 144.58 692.694 Q148.584 692.694 150.922 690.588 Q153.26 688.481 153.26 684.87 Q153.26 681.259 150.922 679.153 Q148.584 677.046 144.58 677.046 Q142.705 677.046 140.83 677.463 Q138.978 677.879 137.033 678.759 L137.033 661.398 Z" fill="#000000" fill-rule="evenodd" fill-opacity="1" /><path clip-path="url(#clip330)" d="M91.5706 423.721 L99.2095 423.721 L99.2095 397.356 L90.8993 399.022 L90.8993 394.763 L99.1632 393.096 L103.839 393.096 L103.839 423.721 L111.478 423.721 L111.478 427.656 L91.5706 427.656 L91.5706 423.721 Z" fill="#000000" fill-rule="evenodd" fill-opacity="1" /><path clip-path="url(#clip330)" d="M120.922 421.777 L125.807 421.777 L125.807 427.656 L120.922 427.656 L120.922 421.777 Z" fill="#000000" fill-rule="evenodd" fill-opacity="1" /><path clip-path="url(#clip330)" d="M145.992 396.175 Q142.381 396.175 140.552 399.74 Q138.746 403.282 138.746 410.411 Q138.746 417.518 140.552 421.082 Q142.381 424.624 145.992 424.624 Q149.626 424.624 151.431 421.082 Q153.26 417.518 153.26 410.411 Q153.26 403.282 151.431 399.74 Q149.626 396.175 145.992 396.175 M145.992 392.471 Q151.802 392.471 154.857 397.078 Q157.936 401.661 157.936 410.411 Q157.936 419.138 154.857 423.744 Q151.802 428.328 145.992 428.328 Q140.181 428.328 137.103 423.744 Q134.047 419.138 134.047 410.411 Q134.047 401.661 137.103 397.078 Q140.181 392.471 145.992 392.471 Z" fill="#000000" fill-rule="evenodd" fill-opacity="1" /><path clip-path="url(#clip330)" d="M92.566 155.42 L100.205 155.42 L100.205 129.054 L91.8947 130.721 L91.8947 126.461 L100.159 124.795 L104.834 124.795 L104.834 155.42 L112.473 155.42 L112.473 159.355 L92.566 159.355 L92.566 155.42 Z" fill="#000000" fill-rule="evenodd" fill-opacity="1" /><path clip-path="url(#clip330)" d="M121.918 153.475 L126.802 153.475 L126.802 159.355 L121.918 159.355 L121.918 153.475 Z" fill="#000000" fill-rule="evenodd" fill-opacity="1" /><path clip-path="url(#clip330)" d="M137.033 124.795 L155.39 124.795 L155.39 128.73 L141.316 128.73 L141.316 137.202 Q142.334 136.855 143.353 136.693 Q144.371 136.508 145.39 136.508 Q151.177 136.508 154.556 139.679 Q157.936 142.85 157.936 148.267 Q157.936 153.846 154.464 156.947 Q150.992 160.026 144.672 160.026 Q142.496 160.026 140.228 159.656 Q137.982 159.285 135.575 158.545 L135.575 153.846 Q137.658 154.98 139.881 155.535 Q142.103 156.091 144.58 156.091 Q148.584 156.091 150.922 153.984 Q153.26 151.878 153.26 148.267 Q153.26 144.656 150.922 142.549 Q148.584 140.443 144.58 140.443 Q142.705 140.443 140.83 140.859 Q138.978 141.276 137.033 142.156 L137.033 124.795 Z" fill="#000000" fill-rule="evenodd" fill-opacity="1" /><path clip-path="url(#clip330)" d="M1016.15 44.2197 Q1018.79 45.1109 1021.26 48.0275 Q1023.77 50.9442 1026.28 56.0483 L1034.59 72.576 L1025.8 72.576 L1018.06 57.061 Q1015.06 50.9847 1012.22 48.9997 Q1009.43 47.0148 1004.57 47.0148 L995.656 47.0148 L995.656 72.576 L987.474 72.576 L987.474 12.096 L1005.95 12.096 Q1016.32 12.096 1021.42 16.4305 Q1026.52 20.7649 1026.52 29.5149 Q1026.52 35.2267 1023.85 38.994 Q1021.22 42.7613 1016.15 44.2197 M995.656 18.8205 L995.656 40.2903 L1005.95 40.2903 Q1011.86 40.2903 1014.86 37.5762 Q1017.9 34.8216 1017.9 29.5149 Q1017.9 24.2082 1014.86 21.5346 Q1011.86 18.8205 1005.95 18.8205 L995.656 18.8205 Z" fill="#000000" fill-rule="evenodd" fill-opacity="1" /><path clip-path="url(#clip330)" d="M1058.65 32.4315 Q1052.65 32.4315 1049.17 37.1306 Q1045.69 41.7891 1045.69 49.9314 Q1045.69 58.0738 1049.13 62.7728 Q1052.61 67.4314 1058.65 67.4314 Q1064.6 67.4314 1068.09 62.7323 Q1071.57 58.0333 1071.57 49.9314 Q1071.57 41.8701 1068.09 37.1711 Q1064.6 32.4315 1058.65 32.4315 M1058.65 26.1121 Q1068.37 26.1121 1073.92 32.4315 Q1079.47 38.7509 1079.47 49.9314 Q1079.47 61.0714 1073.92 67.4314 Q1068.37 73.7508 1058.65 73.7508 Q1048.89 73.7508 1043.34 67.4314 Q1037.83 61.0714 1037.83 49.9314 Q1037.83 38.7509 1043.34 32.4315 Q1048.89 26.1121 1058.65 26.1121 Z" fill="#000000" fill-rule="evenodd" fill-opacity="1" /><path clip-path="url(#clip330)" d="M1091.82 9.54393 L1099.28 9.54393 L1099.28 72.576 L1091.82 72.576 L1091.82 9.54393 Z" fill="#000000" fill-rule="evenodd" fill-opacity="1" /><path clip-path="url(#clip330)" d="M1114.87 9.54393 L1122.33 9.54393 L1122.33 72.576 L1114.87 72.576 L1114.87 9.54393 Z" fill="#000000" fill-rule="evenodd" fill-opacity="1" /><path clip-path="url(#clip330)" d="M1137.92 27.2059 L1145.38 27.2059 L1145.38 72.576 L1137.92 72.576 L1137.92 27.2059 M1137.92 9.54393 L1145.38 9.54393 L1145.38 18.9825 L1137.92 18.9825 L1137.92 9.54393 Z" fill="#000000" fill-rule="evenodd" fill-opacity="1" /><path clip-path="url(#clip330)" d="M1198.69 45.1919 L1198.69 72.576 L1191.23 72.576 L1191.23 45.4349 Q1191.23 38.994 1188.72 35.7938 Q1186.21 32.5936 1181.19 32.5936 Q1175.15 32.5936 1171.67 36.4419 Q1168.18 40.2903 1168.18 46.9338 L1168.18 72.576 L1160.69 72.576 L1160.69 27.2059 L1168.18 27.2059 L1168.18 34.2544 Q1170.86 30.163 1174.46 28.1376 Q1178.11 26.1121 1182.85 26.1121 Q1190.67 26.1121 1194.68 30.9732 Q1198.69 35.7938 1198.69 45.1919 Z" fill="#000000" fill-rule="evenodd" fill-opacity="1" /><path clip-path="url(#clip330)" d="M1243.41 49.3643 Q1243.41 41.2625 1240.05 36.8065 Q1236.73 32.3505 1230.69 32.3505 Q1224.69 32.3505 1221.33 36.8065 Q1218.01 41.2625 1218.01 49.3643 Q1218.01 57.4256 1221.33 61.8816 Q1224.69 66.3376 1230.69 66.3376 Q1236.73 66.3376 1240.05 61.8816 Q1243.41 57.4256 1243.41 49.3643 M1250.86 66.9452 Q1250.86 78.5308 1245.72 84.1616 Q1240.57 89.8329 1229.96 89.8329 Q1226.03 89.8329 1222.55 89.2252 Q1219.06 88.6581 1215.78 87.4428 L1215.78 80.1917 Q1219.06 81.9741 1222.26 82.8248 Q1225.46 83.6755 1228.79 83.6755 Q1236.12 83.6755 1239.76 79.8271 Q1243.41 76.0193 1243.41 68.282 L1243.41 64.5957 Q1241.1 68.6061 1237.5 70.5911 Q1233.89 72.576 1228.87 72.576 Q1220.52 72.576 1215.42 66.2161 Q1210.31 59.8562 1210.31 49.3643 Q1210.31 38.832 1215.42 32.472 Q1220.52 26.1121 1228.87 26.1121 Q1233.89 26.1121 1237.5 28.0971 Q1241.1 30.082 1243.41 34.0924 L1243.41 27.2059 L1250.86 27.2059 L1250.86 66.9452 Z" fill="#000000" fill-rule="evenodd" fill-opacity="1" /><path clip-path="url(#clip330)" d="M1327.91 35.9153 Q1330.71 30.8922 1334.6 28.5022 Q1338.48 26.1121 1343.75 26.1121 Q1350.84 26.1121 1354.69 31.0947 Q1358.54 36.0368 1358.54 45.1919 L1358.54 72.576 L1351.04 72.576 L1351.04 45.4349 Q1351.04 38.913 1348.73 35.7533 Q1346.42 32.5936 1341.68 32.5936 Q1335.89 32.5936 1332.53 36.4419 Q1329.17 40.2903 1329.17 46.9338 L1329.17 72.576 L1321.67 72.576 L1321.67 45.4349 Q1321.67 38.8725 1319.36 35.7533 Q1317.06 32.5936 1312.23 32.5936 Q1306.52 32.5936 1303.16 36.4824 Q1299.8 40.3308 1299.8 46.9338 L1299.8 72.576 L1292.3 72.576 L1292.3 27.2059 L1299.8 27.2059 L1299.8 34.2544 Q1302.35 30.082 1305.92 28.0971 Q1309.48 26.1121 1314.38 26.1121 Q1319.32 26.1121 1322.77 28.6237 Q1326.25 31.1352 1327.91 35.9153 Z" fill="#000000" fill-rule="evenodd" fill-opacity="1" /><path clip-path="url(#clip330)" d="M1412.21 48.0275 L1412.21 51.6733 L1377.94 51.6733 Q1378.43 59.3701 1382.56 63.421 Q1386.73 67.4314 1394.14 67.4314 Q1398.44 67.4314 1402.45 66.3781 Q1406.5 65.3249 1410.47 63.2184 L1410.47 70.267 Q1406.46 71.9684 1402.25 72.8596 Q1398.03 73.7508 1393.7 73.7508 Q1382.84 73.7508 1376.48 67.4314 Q1370.16 61.1119 1370.16 50.3365 Q1370.16 39.1965 1376.16 32.6746 Q1382.19 26.1121 1392.4 26.1121 Q1401.56 26.1121 1406.86 32.0264 Q1412.21 37.9003 1412.21 48.0275 M1404.76 45.84 Q1404.68 39.7232 1401.31 36.0774 Q1397.99 32.4315 1392.48 32.4315 Q1386.24 32.4315 1382.48 35.9558 Q1378.75 39.4801 1378.18 45.8805 L1404.76 45.84 Z" fill="#000000" fill-rule="evenodd" fill-opacity="1" /><path clip-path="url(#clip330)" d="M1445.06 49.7694 Q1436.03 49.7694 1432.55 51.8354 Q1429.06 53.9013 1429.06 58.8839 Q1429.06 62.8538 1431.66 65.2034 Q1434.29 67.5124 1438.78 67.5124 Q1444.98 67.5124 1448.71 63.1374 Q1452.48 58.7219 1452.48 51.4303 L1452.48 49.7694 L1445.06 49.7694 M1459.93 46.6907 L1459.93 72.576 L1452.48 72.576 L1452.48 65.6895 Q1449.92 69.8214 1446.12 71.8063 Q1442.31 73.7508 1436.8 73.7508 Q1429.83 73.7508 1425.7 69.8619 Q1421.61 65.9325 1421.61 59.3701 Q1421.61 51.7138 1426.71 47.825 Q1431.86 43.9361 1442.03 43.9361 L1452.48 43.9361 L1452.48 43.2069 Q1452.48 38.0623 1449.07 35.2672 Q1445.71 32.4315 1439.6 32.4315 Q1435.71 32.4315 1432.02 33.3632 Q1428.33 34.295 1424.93 36.1584 L1424.93 29.2718 Q1429.02 27.692 1432.87 26.9223 Q1436.72 26.1121 1440.36 26.1121 Q1450.21 26.1121 1455.07 31.2163 Q1459.93 36.3204 1459.93 46.6907 Z" fill="#000000" fill-rule="evenodd" fill-opacity="1" /><path clip-path="url(#clip330)" d="M1513 45.1919 L1513 72.576 L1505.54 72.576 L1505.54 45.4349 Q1505.54 38.994 1503.03 35.7938 Q1500.52 32.5936 1495.5 32.5936 Q1489.46 32.5936 1485.98 36.4419 Q1482.49 40.2903 1482.49 46.9338 L1482.49 72.576 L1475 72.576 L1475 27.2059 L1482.49 27.2059 L1482.49 34.2544 Q1485.17 30.163 1488.77 28.1376 Q1492.42 26.1121 1497.16 26.1121 Q1504.98 26.1121 1508.99 30.9732 Q1513 35.7938 1513 45.1919 Z" fill="#000000" fill-rule="evenodd" fill-opacity="1" /><path clip-path="url(#clip330)" d="M1556.79 28.5427 L1556.79 35.5912 Q1553.63 33.9709 1550.23 33.1607 Q1546.82 32.3505 1543.18 32.3505 Q1537.63 32.3505 1534.83 34.0519 Q1532.08 35.7533 1532.08 39.156 Q1532.08 41.7486 1534.06 43.2475 Q1536.05 44.7058 1542.04 46.0426 L1544.59 46.6097 Q1552.53 48.3111 1555.86 51.4303 Q1559.22 54.509 1559.22 60.0587 Q1559.22 66.3781 1554.2 70.0644 Q1549.21 73.7508 1540.46 73.7508 Q1536.82 73.7508 1532.85 73.0216 Q1528.92 72.3329 1524.54 70.9151 L1524.54 63.2184 Q1528.67 65.3654 1532.68 66.4591 Q1536.7 67.5124 1540.62 67.5124 Q1545.89 67.5124 1548.73 65.73 Q1551.56 63.9071 1551.56 60.6258 Q1551.56 57.5877 1549.5 55.9673 Q1547.47 54.3469 1540.54 52.8481 L1537.95 52.2405 Q1531.02 50.7821 1527.95 47.7845 Q1524.87 44.7463 1524.87 39.4801 Q1524.87 33.0797 1529.4 29.5959 Q1533.94 26.1121 1542.29 26.1121 Q1546.42 26.1121 1550.06 26.7198 Q1553.71 27.3274 1556.79 28.5427 Z" fill="#000000" fill-rule="evenodd" fill-opacity="1" /><polyline clip-path="url(#clip332)" style="stroke:#009af9; stroke-linecap:butt; stroke-linejoin:round; stroke-width:4; stroke-opacity:1; fill:none" points="
  255.035,263.549 275.607,356.536 296.179,250.379 316.751,252.133 337.322,230.033 357.894,220.259 378.466,339.193 399.038,239.07 419.61,210.401 440.182,204.868 
  460.754,243.828 481.326,197.041 501.898,288.38 522.47,240.997 543.042,493.663 563.614,309.634 584.186,386.979 604.758,420.352 625.33,430.174 645.902,507.007 
  666.474,630.517 687.046,693.899 707.617,615.66 728.189,715.85 748.761,783.605 769.333,847.698 789.905,803.621 810.477,1001.47 831.049,983.539 851.621,968.936 
  872.193,1217.95 892.765,1258.14 913.337,1272.37 933.909,1138.13 954.481,1320.2 975.053,1238.96 995.625,1381.58 1016.2,1413.95 1036.77,1447.87 1057.34,1423.27 
  1077.91,1325.14 1098.48,1352.05 1119.06,1253.72 1139.63,1315.49 1160.2,1444.07 1180.77,1309.26 1201.34,1216.9 1221.92,1298.7 1242.49,1127.13 1263.06,1286.88 
  1283.63,1092.15 1304.2,1020.32 1324.78,1192.37 1345.35,1157.28 1365.92,1131.12 1386.49,990.468 1407.06,883.721 1427.64,877.863 1448.21,709.452 1468.78,689.119 
  1489.35,731.562 1509.92,592.077 1530.5,622.042 1551.07,628.119 1571.64,414.44 1592.21,567.035 1612.78,382.464 1633.35,478.791 1653.93,398.937 1674.5,494.163 
  1695.07,389.523 1715.64,263.234 1736.21,358.381 1756.79,367.814 1777.36,275.533 1797.93,280.28 1818.5,310.69 1839.07,162.047 1859.65,229.809 1880.22,261.481 
  1900.79,450.611 1921.36,408.129 1941.93,406.014 1962.51,507.957 1983.08,330.521 2003.65,487.746 2024.22,510.703 2044.79,479.931 2065.37,525.352 2085.94,578.617 
  2106.51,642.457 2127.08,693.675 2147.65,686.515 2168.23,835.844 2188.8,855.184 2209.37,890.84 2229.94,1041.09 2250.51,1044.68 2271.09,1154.77 2291.66,1153.88 
  
  "/>
<polyline clip-path="url(#clip332)" style="stroke:#e26f46; stroke-linecap:butt; stroke-linejoin:round; stroke-width:8; stroke-opacity:1; fill:none" points="
  337.322,270.526 357.894,261.868 378.466,258.399 399.038,256.138 419.61,247.791 440.182,242.758 460.754,247.472 481.326,219.042 501.898,228.904 522.47,235.023 
  543.042,292.782 563.614,305.943 584.186,343.931 604.758,370.325 625.33,408.161 645.902,410.829 666.474,475.006 687.046,536.39 707.617,575.452 728.189,632.587 
  748.761,687.906 769.333,731.343 789.905,753.287 810.477,830.45 831.049,883.987 851.621,921.053 872.193,995.104 892.765,1086.01 913.337,1140.19 933.909,1171.1 
  954.481,1241.36 975.053,1245.56 995.625,1270.25 1016.2,1298.56 1036.77,1360.51 1057.34,1381.13 1077.91,1398.36 1098.48,1392.46 1119.06,1360.41 1139.63,1333.93 
  1160.2,1338.09 1180.77,1334.92 1201.34,1307.89 1221.92,1316.89 1242.49,1279.21 1263.06,1247.78 1283.63,1204.36 1304.2,1165.04 1324.78,1143.77 1345.35,1149.8 
  1365.92,1118.65 1386.49,1098.31 1407.06,1070.99 1427.64,1008.09 1448.21,918.524 1468.78,830.125 1489.35,778.344 1509.92,720.015 1530.5,668.85 1551.07,652.584 
  1571.64,597.648 1592.21,564.743 1612.78,522.82 1633.35,494.17 1653.93,448.333 1674.5,464.278 1695.07,428.776 1715.64,404.93 1736.21,380.848 1756.79,374.623 
  1777.36,330.897 1797.93,309.049 1818.5,318.54 1839.07,279.273 1859.65,251.672 1880.22,248.861 1900.79,282.928 1921.36,302.415 1941.93,351.209 1962.51,406.838 
  1983.08,420.646 2003.65,428.073 2024.22,448.588 2044.79,463.371 2065.37,466.85 2085.94,516.469 2106.51,547.412 2127.08,584.006 2147.65,625.323 2168.23,687.421 
  2188.8,742.735 2209.37,792.411 2229.94,861.894 2250.51,933.526 2271.09,997.312 2291.66,1057.05 
  "/>
<polyline clip-path="url(#clip332)" style="stroke:#3da44d; stroke-linecap:butt; stroke-linejoin:round; stroke-width:8; stroke-opacity:1; fill:none" points="
  440.182,256.642 460.754,254.67 481.326,238.721 501.898,242.521 522.47,241.407 543.042,267.77 563.614,276.708 584.186,281.486 604.758,299.614 625.33,321.592 
  645.902,351.806 666.474,390.475 687.046,440.16 707.617,472.888 728.189,520.374 748.761,549.368 769.333,603.174 789.905,644.838 810.477,702.951 831.049,758.287 
  851.621,804.48 872.193,863.223 892.765,919.647 913.337,985.318 933.909,1027.55 954.481,1081.21 975.053,1120.33 995.625,1178.13 1016.2,1219.37 1036.77,1265.81 
  1057.34,1311.24 1077.91,1321.96 1098.48,1331.35 1119.06,1329.49 1139.63,1347.22 1160.2,1359.61 1180.77,1366.64 1201.34,1350.17 1221.92,1338.65 1242.49,1306.57 
  1263.06,1292.94 1283.63,1269.64 1304.2,1236.46 1324.78,1230.33 1345.35,1214.51 1365.92,1183.21 1386.49,1151.33 1407.06,1118.02 1427.64,1075.93 1448.21,1034.16 
  1468.78,974.387 1489.35,938.328 1509.92,895.503 1530.5,838.47 1551.07,785.554 1571.64,713.886 1592.21,671.543 1612.78,621.417 1633.35,581.51 1653.93,550.459 
  1674.5,530.963 1695.07,496.759 1715.64,463.875 1736.21,437.509 1756.79,411.478 1777.36,397.588 1797.93,368.912 1818.5,361.735 1839.07,330.06 1859.65,313.148 
  1880.22,289.879 1900.79,295.988 1921.36,310.478 1941.93,315.241 1962.51,329.255 1983.08,334.754 2003.65,355.5 2024.22,375.502 2044.79,407.29 2065.37,436.844 
  2085.94,468.558 2106.51,487.742 2127.08,516.297 2147.65,544.347 2168.23,577.136 2188.8,629.602 2209.37,669.912 2229.94,722.95 2250.51,779.425 2271.09,842.367 
  2291.66,899.893 
  "/>
<polyline clip-path="url(#clip332)" style="stroke:#c271d2; stroke-linecap:butt; stroke-linejoin:round; stroke-width:8; stroke-opacity:1; fill:none" points="
  645.902,304.224 666.474,322.572 687.046,339.44 707.617,357.705 728.189,380.89 748.761,408.569 769.333,439.941 789.905,463.162 810.477,501.282 831.049,539.939 
  851.621,578.143 872.193,626.849 892.765,679.904 913.337,729.103 933.909,773.96 954.481,815.287 975.053,861.753 995.625,911.483 1016.2,961.163 1036.77,1012.05 
  1057.34,1057.86 1077.91,1092.59 1098.48,1125.5 1119.06,1157.4 1139.63,1187.38 1160.2,1220.41 1180.77,1243.49 1201.34,1264.15 1221.92,1279.01 1242.49,1286.19 
  1263.06,1302.09 1283.63,1295.8 1304.2,1283.91 1324.78,1279.91 1345.35,1280.87 1365.92,1271.41 1386.49,1258.99 1407.06,1234.09 1427.64,1207.29 1448.21,1170.37 
  1468.78,1133.66 1489.35,1103.98 1509.92,1065.98 1530.5,1034.4 1551.07,1000.03 1571.64,948.549 1592.21,911.438 1612.78,869.716 1633.35,828.721 1653.93,792.311 
  1674.5,752.675 1695.07,717.543 1715.64,679.689 1736.21,637.99 1756.79,598.516 1777.36,555.737 1797.93,520.228 1818.5,491.576 1839.07,455.785 1859.65,431.803 
  1880.22,410.421 1900.79,396.374 1921.36,387.176 1941.93,376.375 1962.51,370.367 1983.08,366.171 2003.65,362.206 2024.22,368.618 2044.79,368.675 2065.37,374.996 
  2085.94,379.219 2106.51,391.865 2127.08,413.387 2147.65,429.794 2168.23,453.196 2188.8,482.178 2209.37,512.706 2229.94,549.226 2250.51,593.357 2271.09,639.606 
  2291.66,684.225 
  "/>
<path clip-path="url(#clip330)" d="
M1838.54 428.105 L2280.8 428.105 L2280.8 168.905 L1838.54 168.905  Z
  " fill="#ffffff" fill-rule="evenodd" fill-opacity="1"/>
<polyline clip-path="url(#clip330)" style="stroke:#000000; stroke-linecap:butt; stroke-linejoin:round; stroke-width:4; stroke-opacity:1; fill:none" points="
  1838.54,428.105 2280.8,428.105 2280.8,168.905 1838.54,168.905 1838.54,428.105 
  "/>
<polyline clip-path="url(#clip330)" style="stroke:#009af9; stroke-linecap:butt; stroke-linejoin:round; stroke-width:4; stroke-opacity:1; fill:none" points="
  1862.53,220.745 2006.45,220.745 
  "/>
<path clip-path="url(#clip330)" d="M2045.62 216.08 Q2044.91 215.664 2044.05 215.478 Q2043.22 215.27 2042.2 215.27 Q2038.59 215.27 2036.64 217.631 Q2034.72 219.969 2034.72 224.367 L2034.72 238.025 L2030.44 238.025 L2030.44 212.099 L2034.72 212.099 L2034.72 216.127 Q2036.06 213.766 2038.22 212.631 Q2040.37 211.474 2043.45 211.474 Q2043.89 211.474 2044.42 211.543 Q2044.95 211.59 2045.6 211.705 L2045.62 216.08 Z" fill="#000000" fill-rule="evenodd" fill-opacity="1" /><path clip-path="url(#clip330)" d="M2061.87 224.992 Q2056.71 224.992 2054.72 226.173 Q2052.73 227.353 2052.73 230.201 Q2052.73 232.469 2054.21 233.812 Q2055.72 235.131 2058.29 235.131 Q2061.83 235.131 2063.96 232.631 Q2066.11 230.108 2066.11 225.941 L2066.11 224.992 L2061.87 224.992 M2070.37 223.233 L2070.37 238.025 L2066.11 238.025 L2066.11 234.089 Q2064.65 236.451 2062.48 237.585 Q2060.3 238.696 2057.15 238.696 Q2053.17 238.696 2050.81 236.474 Q2048.47 234.228 2048.47 230.478 Q2048.47 226.103 2051.39 223.881 Q2054.33 221.659 2060.14 221.659 L2066.11 221.659 L2066.11 221.242 Q2066.11 218.303 2064.16 216.705 Q2062.24 215.085 2058.75 215.085 Q2056.53 215.085 2054.42 215.617 Q2052.31 216.15 2050.37 217.215 L2050.37 213.279 Q2052.71 212.377 2054.91 211.937 Q2057.1 211.474 2059.19 211.474 Q2064.81 211.474 2067.59 214.391 Q2070.37 217.307 2070.37 223.233 Z" fill="#000000" fill-rule="evenodd" fill-opacity="1" /><path clip-path="url(#clip330)" d="M2076.66 212.099 L2080.92 212.099 L2086.25 232.33 L2091.55 212.099 L2096.57 212.099 L2101.9 232.33 L2107.2 212.099 L2111.46 212.099 L2104.67 238.025 L2099.65 238.025 L2094.07 216.775 L2088.47 238.025 L2083.45 238.025 L2076.66 212.099 Z" fill="#000000" fill-rule="evenodd" fill-opacity="1" /><polyline clip-path="url(#clip330)" style="stroke:#e26f46; stroke-linecap:butt; stroke-linejoin:round; stroke-width:4; stroke-opacity:1; fill:none" points="
  1862.53,272.585 2006.45,272.585 
  "/>
<path clip-path="url(#clip330)" d="M2050.79 268.916 Q2052.38 266.045 2054.6 264.68 Q2056.83 263.314 2059.84 263.314 Q2063.89 263.314 2066.09 266.161 Q2068.29 268.985 2068.29 274.217 L2068.29 289.865 L2064 289.865 L2064 274.355 Q2064 270.629 2062.68 268.823 Q2061.36 267.018 2058.66 267.018 Q2055.35 267.018 2053.42 269.217 Q2051.5 271.416 2051.5 275.212 L2051.5 289.865 L2047.22 289.865 L2047.22 274.355 Q2047.22 270.605 2045.9 268.823 Q2044.58 267.018 2041.83 267.018 Q2038.56 267.018 2036.64 269.24 Q2034.72 271.439 2034.72 275.212 L2034.72 289.865 L2030.44 289.865 L2030.44 263.939 L2034.72 263.939 L2034.72 267.967 Q2036.18 265.582 2038.22 264.448 Q2040.25 263.314 2043.05 263.314 Q2045.88 263.314 2047.85 264.749 Q2049.84 266.184 2050.79 268.916 Z" fill="#000000" fill-rule="evenodd" fill-opacity="1" /><path clip-path="url(#clip330)" d="M2098.96 275.837 L2098.96 277.92 L2079.37 277.92 Q2079.65 282.318 2082.01 284.633 Q2084.4 286.925 2088.63 286.925 Q2091.09 286.925 2093.38 286.323 Q2095.69 285.721 2097.96 284.517 L2097.96 288.545 Q2095.67 289.517 2093.26 290.027 Q2090.85 290.536 2088.38 290.536 Q2082.17 290.536 2078.54 286.925 Q2074.93 283.314 2074.93 277.156 Q2074.93 270.791 2078.35 267.064 Q2081.8 263.314 2087.64 263.314 Q2092.87 263.314 2095.9 266.693 Q2098.96 270.05 2098.96 275.837 M2094.7 274.587 Q2094.65 271.092 2092.73 269.008 Q2090.83 266.925 2087.68 266.925 Q2084.12 266.925 2081.97 268.939 Q2079.84 270.953 2079.51 274.61 L2094.7 274.587 Z" fill="#000000" fill-rule="evenodd" fill-opacity="1" /><path clip-path="url(#clip330)" d="M2117.73 276.832 Q2112.57 276.832 2110.58 278.013 Q2108.59 279.193 2108.59 282.041 Q2108.59 284.309 2110.07 285.652 Q2111.57 286.971 2114.14 286.971 Q2117.68 286.971 2119.81 284.471 Q2121.97 281.948 2121.97 277.781 L2121.97 276.832 L2117.73 276.832 M2126.22 275.073 L2126.22 289.865 L2121.97 289.865 L2121.97 285.929 Q2120.51 288.291 2118.33 289.425 Q2116.16 290.536 2113.01 290.536 Q2109.03 290.536 2106.66 288.314 Q2104.33 286.068 2104.33 282.318 Q2104.33 277.943 2107.24 275.721 Q2110.18 273.499 2115.99 273.499 L2121.97 273.499 L2121.97 273.082 Q2121.97 270.143 2120.02 268.545 Q2118.1 266.925 2114.6 266.925 Q2112.38 266.925 2110.28 267.457 Q2108.17 267.99 2106.22 269.055 L2106.22 265.119 Q2108.56 264.217 2110.76 263.777 Q2112.96 263.314 2115.04 263.314 Q2120.67 263.314 2123.45 266.231 Q2126.22 269.147 2126.22 275.073 Z" fill="#000000" fill-rule="evenodd" fill-opacity="1" /><path clip-path="url(#clip330)" d="M2156.55 274.217 L2156.55 289.865 L2152.29 289.865 L2152.29 274.355 Q2152.29 270.675 2150.85 268.846 Q2149.42 267.018 2146.55 267.018 Q2143.1 267.018 2141.11 269.217 Q2139.12 271.416 2139.12 275.212 L2139.12 289.865 L2134.84 289.865 L2134.84 263.939 L2139.12 263.939 L2139.12 267.967 Q2140.65 265.629 2142.71 264.471 Q2144.79 263.314 2147.5 263.314 Q2151.97 263.314 2154.26 266.092 Q2156.55 268.846 2156.55 274.217 Z" fill="#000000" fill-rule="evenodd" fill-opacity="1" /><path clip-path="url(#clip330)" d="M2180.76 255.305 L2199.12 255.305 L2199.12 259.24 L2185.04 259.24 L2185.04 267.712 Q2186.06 267.365 2187.08 267.203 Q2188.1 267.018 2189.12 267.018 Q2194.91 267.018 2198.28 270.189 Q2201.66 273.36 2201.66 278.777 Q2201.66 284.355 2198.19 287.457 Q2194.72 290.536 2188.4 290.536 Q2186.22 290.536 2183.96 290.166 Q2181.71 289.795 2179.3 289.054 L2179.3 284.355 Q2181.39 285.49 2183.61 286.045 Q2185.83 286.601 2188.31 286.601 Q2192.31 286.601 2194.65 284.494 Q2196.99 282.388 2196.99 278.777 Q2196.99 275.166 2194.65 273.059 Q2192.31 270.953 2188.31 270.953 Q2186.43 270.953 2184.56 271.369 Q2182.71 271.786 2180.76 272.666 L2180.76 255.305 Z" fill="#000000" fill-rule="evenodd" fill-opacity="1" /><polyline clip-path="url(#clip330)" style="stroke:#3da44d; stroke-linecap:butt; stroke-linejoin:round; stroke-width:4; stroke-opacity:1; fill:none" points="
  1862.53,324.425 2006.45,324.425 
  "/>
<path clip-path="url(#clip330)" d="M2050.79 320.756 Q2052.38 317.885 2054.6 316.52 Q2056.83 315.154 2059.84 315.154 Q2063.89 315.154 2066.09 318.001 Q2068.29 320.825 2068.29 326.057 L2068.29 341.705 L2064 341.705 L2064 326.195 Q2064 322.469 2062.68 320.663 Q2061.36 318.858 2058.66 318.858 Q2055.35 318.858 2053.42 321.057 Q2051.5 323.256 2051.5 327.052 L2051.5 341.705 L2047.22 341.705 L2047.22 326.195 Q2047.22 322.445 2045.9 320.663 Q2044.58 318.858 2041.83 318.858 Q2038.56 318.858 2036.64 321.08 Q2034.72 323.279 2034.72 327.052 L2034.72 341.705 L2030.44 341.705 L2030.44 315.779 L2034.72 315.779 L2034.72 319.807 Q2036.18 317.422 2038.22 316.288 Q2040.25 315.154 2043.05 315.154 Q2045.88 315.154 2047.85 316.589 Q2049.84 318.024 2050.79 320.756 Z" fill="#000000" fill-rule="evenodd" fill-opacity="1" /><path clip-path="url(#clip330)" d="M2098.96 327.677 L2098.96 329.76 L2079.37 329.76 Q2079.65 334.158 2082.01 336.473 Q2084.4 338.765 2088.63 338.765 Q2091.09 338.765 2093.38 338.163 Q2095.69 337.561 2097.96 336.357 L2097.96 340.385 Q2095.67 341.357 2093.26 341.867 Q2090.85 342.376 2088.38 342.376 Q2082.17 342.376 2078.54 338.765 Q2074.93 335.154 2074.93 328.996 Q2074.93 322.631 2078.35 318.904 Q2081.8 315.154 2087.64 315.154 Q2092.87 315.154 2095.9 318.533 Q2098.96 321.89 2098.96 327.677 M2094.7 326.427 Q2094.65 322.932 2092.73 320.848 Q2090.83 318.765 2087.68 318.765 Q2084.12 318.765 2081.97 320.779 Q2079.84 322.793 2079.51 326.45 L2094.7 326.427 Z" fill="#000000" fill-rule="evenodd" fill-opacity="1" /><path clip-path="url(#clip330)" d="M2117.73 328.672 Q2112.57 328.672 2110.58 329.853 Q2108.59 331.033 2108.59 333.881 Q2108.59 336.149 2110.07 337.492 Q2111.57 338.811 2114.14 338.811 Q2117.68 338.811 2119.81 336.311 Q2121.97 333.788 2121.97 329.621 L2121.97 328.672 L2117.73 328.672 M2126.22 326.913 L2126.22 341.705 L2121.97 341.705 L2121.97 337.769 Q2120.51 340.131 2118.33 341.265 Q2116.16 342.376 2113.01 342.376 Q2109.03 342.376 2106.66 340.154 Q2104.33 337.908 2104.33 334.158 Q2104.33 329.783 2107.24 327.561 Q2110.18 325.339 2115.99 325.339 L2121.97 325.339 L2121.97 324.922 Q2121.97 321.983 2120.02 320.385 Q2118.1 318.765 2114.6 318.765 Q2112.38 318.765 2110.28 319.297 Q2108.17 319.83 2106.22 320.895 L2106.22 316.959 Q2108.56 316.057 2110.76 315.617 Q2112.96 315.154 2115.04 315.154 Q2120.67 315.154 2123.45 318.071 Q2126.22 320.987 2126.22 326.913 Z" fill="#000000" fill-rule="evenodd" fill-opacity="1" /><path clip-path="url(#clip330)" d="M2156.55 326.057 L2156.55 341.705 L2152.29 341.705 L2152.29 326.195 Q2152.29 322.515 2150.85 320.686 Q2149.42 318.858 2146.55 318.858 Q2143.1 318.858 2141.11 321.057 Q2139.12 323.256 2139.12 327.052 L2139.12 341.705 L2134.84 341.705 L2134.84 315.779 L2139.12 315.779 L2139.12 319.807 Q2140.65 317.469 2142.71 316.311 Q2144.79 315.154 2147.5 315.154 Q2151.97 315.154 2154.26 317.932 Q2156.55 320.686 2156.55 326.057 Z" fill="#000000" fill-rule="evenodd" fill-opacity="1" /><path clip-path="url(#clip330)" d="M2181.53 337.769 L2189.16 337.769 L2189.16 311.404 L2180.85 313.071 L2180.85 308.811 L2189.12 307.145 L2193.79 307.145 L2193.79 337.769 L2201.43 337.769 L2201.43 341.705 L2181.53 341.705 L2181.53 337.769 Z" fill="#000000" fill-rule="evenodd" fill-opacity="1" /><path clip-path="url(#clip330)" d="M2220.88 310.223 Q2217.27 310.223 2215.44 313.788 Q2213.63 317.33 2213.63 324.459 Q2213.63 331.566 2215.44 335.131 Q2217.27 338.672 2220.88 338.672 Q2224.51 338.672 2226.32 335.131 Q2228.15 331.566 2228.15 324.459 Q2228.15 317.33 2226.32 313.788 Q2224.51 310.223 2220.88 310.223 M2220.88 306.52 Q2226.69 306.52 2229.74 311.126 Q2232.82 315.709 2232.82 324.459 Q2232.82 333.186 2229.74 337.793 Q2226.69 342.376 2220.88 342.376 Q2215.07 342.376 2211.99 337.793 Q2208.93 333.186 2208.93 324.459 Q2208.93 315.709 2211.99 311.126 Q2215.07 306.52 2220.88 306.52 Z" fill="#000000" fill-rule="evenodd" fill-opacity="1" /><polyline clip-path="url(#clip330)" style="stroke:#c271d2; stroke-linecap:butt; stroke-linejoin:round; stroke-width:4; stroke-opacity:1; fill:none" points="
  1862.53,376.265 2006.45,376.265 
  "/>
<path clip-path="url(#clip330)" d="M2050.79 372.596 Q2052.38 369.725 2054.6 368.36 Q2056.83 366.994 2059.84 366.994 Q2063.89 366.994 2066.09 369.841 Q2068.29 372.665 2068.29 377.897 L2068.29 393.545 L2064 393.545 L2064 378.035 Q2064 374.309 2062.68 372.503 Q2061.36 370.698 2058.66 370.698 Q2055.35 370.698 2053.42 372.897 Q2051.5 375.096 2051.5 378.892 L2051.5 393.545 L2047.22 393.545 L2047.22 378.035 Q2047.22 374.285 2045.9 372.503 Q2044.58 370.698 2041.83 370.698 Q2038.56 370.698 2036.64 372.92 Q2034.72 375.119 2034.72 378.892 L2034.72 393.545 L2030.44 393.545 L2030.44 367.619 L2034.72 367.619 L2034.72 371.647 Q2036.18 369.262 2038.22 368.128 Q2040.25 366.994 2043.05 366.994 Q2045.88 366.994 2047.85 368.429 Q2049.84 369.864 2050.79 372.596 Z" fill="#000000" fill-rule="evenodd" fill-opacity="1" /><path clip-path="url(#clip330)" d="M2098.96 379.517 L2098.96 381.6 L2079.37 381.6 Q2079.65 385.998 2082.01 388.313 Q2084.4 390.605 2088.63 390.605 Q2091.09 390.605 2093.38 390.003 Q2095.69 389.401 2097.96 388.197 L2097.96 392.225 Q2095.67 393.197 2093.26 393.707 Q2090.85 394.216 2088.38 394.216 Q2082.17 394.216 2078.54 390.605 Q2074.93 386.994 2074.93 380.836 Q2074.93 374.471 2078.35 370.744 Q2081.8 366.994 2087.64 366.994 Q2092.87 366.994 2095.9 370.373 Q2098.96 373.73 2098.96 379.517 M2094.7 378.267 Q2094.65 374.772 2092.73 372.688 Q2090.83 370.605 2087.68 370.605 Q2084.12 370.605 2081.97 372.619 Q2079.84 374.633 2079.51 378.29 L2094.7 378.267 Z" fill="#000000" fill-rule="evenodd" fill-opacity="1" /><path clip-path="url(#clip330)" d="M2117.73 380.512 Q2112.57 380.512 2110.58 381.693 Q2108.59 382.873 2108.59 385.721 Q2108.59 387.989 2110.07 389.332 Q2111.57 390.651 2114.14 390.651 Q2117.68 390.651 2119.81 388.151 Q2121.97 385.628 2121.97 381.461 L2121.97 380.512 L2117.73 380.512 M2126.22 378.753 L2126.22 393.545 L2121.97 393.545 L2121.97 389.609 Q2120.51 391.971 2118.33 393.105 Q2116.16 394.216 2113.01 394.216 Q2109.03 394.216 2106.66 391.994 Q2104.33 389.748 2104.33 385.998 Q2104.33 381.623 2107.24 379.401 Q2110.18 377.179 2115.99 377.179 L2121.97 377.179 L2121.97 376.762 Q2121.97 373.823 2120.02 372.225 Q2118.1 370.605 2114.6 370.605 Q2112.38 370.605 2110.28 371.137 Q2108.17 371.67 2106.22 372.735 L2106.22 368.799 Q2108.56 367.897 2110.76 367.457 Q2112.96 366.994 2115.04 366.994 Q2120.67 366.994 2123.45 369.911 Q2126.22 372.827 2126.22 378.753 Z" fill="#000000" fill-rule="evenodd" fill-opacity="1" /><path clip-path="url(#clip330)" d="M2156.55 377.897 L2156.55 393.545 L2152.29 393.545 L2152.29 378.035 Q2152.29 374.355 2150.85 372.526 Q2149.42 370.698 2146.55 370.698 Q2143.1 370.698 2141.11 372.897 Q2139.12 375.096 2139.12 378.892 L2139.12 393.545 L2134.84 393.545 L2134.84 367.619 L2139.12 367.619 L2139.12 371.647 Q2140.65 369.309 2142.71 368.151 Q2144.79 366.994 2147.5 366.994 Q2151.97 366.994 2154.26 369.772 Q2156.55 372.526 2156.55 377.897 Z" fill="#000000" fill-rule="evenodd" fill-opacity="1" /><path clip-path="url(#clip330)" d="M2184.74 389.609 L2201.06 389.609 L2201.06 393.545 L2179.12 393.545 L2179.12 389.609 Q2181.78 386.855 2186.36 382.225 Q2190.97 377.573 2192.15 376.23 Q2194.4 373.707 2195.28 371.971 Q2196.18 370.211 2196.18 368.522 Q2196.18 365.767 2194.23 364.031 Q2192.31 362.295 2189.21 362.295 Q2187.01 362.295 2184.56 363.059 Q2182.13 363.823 2179.35 365.374 L2179.35 360.651 Q2182.17 359.517 2184.63 358.938 Q2187.08 358.36 2189.12 358.36 Q2194.49 358.36 2197.68 361.045 Q2200.88 363.73 2200.88 368.221 Q2200.88 370.35 2200.07 372.272 Q2199.28 374.17 2197.17 376.762 Q2196.59 377.434 2193.49 380.651 Q2190.39 383.846 2184.74 389.609 Z" fill="#000000" fill-rule="evenodd" fill-opacity="1" /><path clip-path="url(#clip330)" d="M2220.88 362.063 Q2217.27 362.063 2215.44 365.628 Q2213.63 369.17 2213.63 376.299 Q2213.63 383.406 2215.44 386.971 Q2217.27 390.512 2220.88 390.512 Q2224.51 390.512 2226.32 386.971 Q2228.15 383.406 2228.15 376.299 Q2228.15 369.17 2226.32 365.628 Q2224.51 362.063 2220.88 362.063 M2220.88 358.36 Q2226.69 358.36 2229.74 362.966 Q2232.82 367.549 2232.82 376.299 Q2232.82 385.026 2229.74 389.633 Q2226.69 394.216 2220.88 394.216 Q2215.07 394.216 2211.99 389.633 Q2208.93 385.026 2208.93 376.299 Q2208.93 367.549 2211.99 362.966 Q2215.07 358.36 2220.88 358.36 Z" fill="#000000" fill-rule="evenodd" fill-opacity="1" /></svg>
