<?xml version="1.0" encoding="utf-8"?>
<svg xmlns="http://www.w3.org/2000/svg" xmlns:xlink="http://www.w3.org/1999/xlink" width="600" height="400" viewBox="0 0 2400 1600">
<defs>
  <clipPath id="clip360">
    <rect x="0" y="0" width="2400" height="1600"/>
  </clipPath>
</defs>
<path clip-path="url(#clip360)" d="
M0 1600 L2400 1600 L2400 0 L0 0  Z
  " fill="#ffffff" fill-rule="evenodd" fill-opacity="1"/>
<defs>
  <clipPath id="clip361">
    <rect x="480" y="0" width="1681" height="1600"/>
  </clipPath>
</defs>
<path clip-path="url(#clip360)" d="
M193.288 1486.45 L2352.76 1486.45 L2352.76 47.2441 L193.288 47.2441  Z
  " fill="#ffffff" fill-rule="evenodd" fill-opacity="1"/>
<defs>
  <clipPath id="clip362">
    <rect x="193" y="47" width="2160" height="1440"/>
  </clipPath>
</defs>
<polyline clip-path="url(#clip362)" style="stroke:#000000; stroke-linecap:butt; stroke-linejoin:round; stroke-width:2; stroke-opacity:0.1; fill:none" points="
  252.366,1486.45 252.366,47.2441 
  "/>
<polyline clip-path="url(#clip362)" style="stroke:#000000; stroke-linecap:butt; stroke-linejoin:round; stroke-width:2; stroke-opacity:0.1; fill:none" points="
  762.184,1486.45 762.184,47.2441 
  "/>
<polyline clip-path="url(#clip362)" style="stroke:#000000; stroke-linecap:butt; stroke-linejoin:round; stroke-width:2; stroke-opacity:0.1; fill:none" points="
  1272,1486.45 1272,47.2441 
  "/>
<polyline clip-path="url(#clip362)" style="stroke:#000000; stroke-linecap:butt; stroke-linejoin:round; stroke-width:2; stroke-opacity:0.1; fill:none" points="
  1781.82,1486.45 1781.82,47.2441 
  "/>
<polyline clip-path="url(#clip362)" style="stroke:#000000; stroke-linecap:butt; stroke-linejoin:round; stroke-width:2; stroke-opacity:0.1; fill:none" points="
  2291.64,1486.45 2291.64,47.2441 
  "/>
<polyline clip-path="url(#clip360)" style="stroke:#000000; stroke-linecap:butt; stroke-linejoin:round; stroke-width:4; stroke-opacity:1; fill:none" points="
  193.288,1486.45 2352.76,1486.45 
  "/>
<polyline clip-path="url(#clip360)" style="stroke:#000000; stroke-linecap:butt; stroke-linejoin:round; stroke-width:4; stroke-opacity:1; fill:none" points="
  252.366,1486.45 252.366,1467.55 
  "/>
<polyline clip-path="url(#clip360)" style="stroke:#000000; stroke-linecap:butt; stroke-linejoin:round; stroke-width:4; stroke-opacity:1; fill:none" points="
  762.184,1486.45 762.184,1467.55 
  "/>
<polyline clip-path="url(#clip360)" style="stroke:#000000; stroke-linecap:butt; stroke-linejoin:round; stroke-width:4; stroke-opacity:1; fill:none" points="
  1272,1486.45 1272,1467.55 
  "/>
<polyline clip-path="url(#clip360)" style="stroke:#000000; stroke-linecap:butt; stroke-linejoin:round; stroke-width:4; stroke-opacity:1; fill:none" points="
  1781.82,1486.45 1781.82,1467.55 
  "/>
<polyline clip-path="url(#clip360)" style="stroke:#000000; stroke-linecap:butt; stroke-linejoin:round; stroke-width:4; stroke-opacity:1; fill:none" points="
  2291.64,1486.45 2291.64,1467.55 
  "/>
<path clip-path="url(#clip360)" d="M252.366 1517.37 Q248.755 1517.37 246.926 1520.93 Q245.12 1524.47 245.12 1531.6 Q245.12 1538.71 246.926 1542.27 Q248.755 1545.82 252.366 1545.82 Q256 1545.82 257.805 1542.27 Q259.634 1538.71 259.634 1531.6 Q259.634 1524.47 257.805 1520.93 Q256 1517.37 252.366 1517.37 M252.366 1513.66 Q258.176 1513.66 261.231 1518.27 Q264.31 1522.85 264.31 1531.6 Q264.31 1540.33 261.231 1544.94 Q258.176 1549.52 252.366 1549.52 Q246.555 1549.52 243.477 1544.94 Q240.421 1540.33 240.421 1531.6 Q240.421 1522.85 243.477 1518.27 Q246.555 1513.66 252.366 1513.66 Z" fill="#000000" fill-rule="evenodd" fill-opacity="1" /><path clip-path="url(#clip360)" d="M725.876 1544.91 L742.196 1544.91 L742.196 1548.85 L720.251 1548.85 L720.251 1544.91 Q722.913 1542.16 727.497 1537.53 Q732.103 1532.88 733.284 1531.53 Q735.529 1529.01 736.409 1527.27 Q737.311 1525.51 737.311 1523.82 Q737.311 1521.07 735.367 1519.33 Q733.446 1517.6 730.344 1517.6 Q728.145 1517.6 725.691 1518.36 Q723.261 1519.13 720.483 1520.68 L720.483 1515.95 Q723.307 1514.82 725.761 1514.24 Q728.214 1513.66 730.251 1513.66 Q735.622 1513.66 738.816 1516.35 Q742.01 1519.03 742.01 1523.52 Q742.01 1525.65 741.2 1527.57 Q740.413 1529.47 738.307 1532.07 Q737.728 1532.74 734.626 1535.95 Q731.524 1539.15 725.876 1544.91 Z" fill="#000000" fill-rule="evenodd" fill-opacity="1" /><path clip-path="url(#clip360)" d="M752.057 1514.29 L770.413 1514.29 L770.413 1518.22 L756.339 1518.22 L756.339 1526.7 Q757.358 1526.35 758.376 1526.19 Q759.395 1526 760.413 1526 Q766.2 1526 769.58 1529.17 Q772.959 1532.34 772.959 1537.76 Q772.959 1543.34 769.487 1546.44 Q766.015 1549.52 759.696 1549.52 Q757.52 1549.52 755.251 1549.15 Q753.006 1548.78 750.598 1548.04 L750.598 1543.34 Q752.682 1544.47 754.904 1545.03 Q757.126 1545.58 759.603 1545.58 Q763.608 1545.58 765.945 1543.48 Q768.283 1541.37 768.283 1537.76 Q768.283 1534.15 765.945 1532.04 Q763.608 1529.94 759.603 1529.94 Q757.728 1529.94 755.853 1530.35 Q754.001 1530.77 752.057 1531.65 L752.057 1514.29 Z" fill="#000000" fill-rule="evenodd" fill-opacity="1" /><path clip-path="url(#clip360)" d="M792.172 1517.37 Q788.561 1517.37 786.732 1520.93 Q784.927 1524.47 784.927 1531.6 Q784.927 1538.71 786.732 1542.27 Q788.561 1545.82 792.172 1545.82 Q795.806 1545.82 797.612 1542.27 Q799.441 1538.71 799.441 1531.6 Q799.441 1524.47 797.612 1520.93 Q795.806 1517.37 792.172 1517.37 M792.172 1513.66 Q797.982 1513.66 801.038 1518.27 Q804.117 1522.85 804.117 1531.6 Q804.117 1540.33 801.038 1544.94 Q797.982 1549.52 792.172 1549.52 Q786.362 1549.52 783.283 1544.94 Q780.228 1540.33 780.228 1531.6 Q780.228 1522.85 783.283 1518.27 Q786.362 1513.66 792.172 1513.66 Z" fill="#000000" fill-rule="evenodd" fill-opacity="1" /><path clip-path="url(#clip360)" d="M1231.62 1514.29 L1249.98 1514.29 L1249.98 1518.22 L1235.9 1518.22 L1235.9 1526.7 Q1236.92 1526.35 1237.94 1526.19 Q1238.96 1526 1239.98 1526 Q1245.76 1526 1249.14 1529.17 Q1252.52 1532.34 1252.52 1537.76 Q1252.52 1543.34 1249.05 1546.44 Q1245.58 1549.52 1239.26 1549.52 Q1237.08 1549.52 1234.81 1549.15 Q1232.57 1548.78 1230.16 1548.04 L1230.16 1543.34 Q1232.25 1544.47 1234.47 1545.03 Q1236.69 1545.58 1239.17 1545.58 Q1243.17 1545.58 1245.51 1543.48 Q1247.85 1541.37 1247.85 1537.76 Q1247.85 1534.15 1245.51 1532.04 Q1243.17 1529.94 1239.17 1529.94 Q1237.29 1529.94 1235.42 1530.35 Q1233.56 1530.77 1231.62 1531.65 L1231.62 1514.29 Z" fill="#000000" fill-rule="evenodd" fill-opacity="1" /><path clip-path="url(#clip360)" d="M1271.74 1517.37 Q1268.12 1517.37 1266.3 1520.93 Q1264.49 1524.47 1264.49 1531.6 Q1264.49 1538.71 1266.3 1542.27 Q1268.12 1545.82 1271.74 1545.82 Q1275.37 1545.82 1277.18 1542.27 Q1279 1538.71 1279 1531.6 Q1279 1524.47 1277.18 1520.93 Q1275.37 1517.37 1271.74 1517.37 M1271.74 1513.66 Q1277.55 1513.66 1280.6 1518.27 Q1283.68 1522.85 1283.68 1531.6 Q1283.68 1540.33 1280.6 1544.94 Q1277.55 1549.52 1271.74 1549.52 Q1265.93 1549.52 1262.85 1544.94 Q1259.79 1540.33 1259.79 1531.6 Q1259.79 1522.85 1262.85 1518.27 Q1265.93 1513.66 1271.74 1513.66 Z" fill="#000000" fill-rule="evenodd" fill-opacity="1" /><path clip-path="url(#clip360)" d="M1301.9 1517.37 Q1298.29 1517.37 1296.46 1520.93 Q1294.65 1524.47 1294.65 1531.6 Q1294.65 1538.71 1296.46 1542.27 Q1298.29 1545.82 1301.9 1545.82 Q1305.53 1545.82 1307.34 1542.27 Q1309.17 1538.71 1309.17 1531.6 Q1309.17 1524.47 1307.34 1520.93 Q1305.53 1517.37 1301.9 1517.37 M1301.9 1513.66 Q1307.71 1513.66 1310.76 1518.27 Q1313.84 1522.85 1313.84 1531.6 Q1313.84 1540.33 1310.76 1544.94 Q1307.71 1549.52 1301.9 1549.52 Q1296.09 1549.52 1293.01 1544.94 Q1289.95 1540.33 1289.95 1531.6 Q1289.95 1522.85 1293.01 1518.27 Q1296.09 1513.66 1301.9 1513.66 Z" fill="#000000" fill-rule="evenodd" fill-opacity="1" /><path clip-path="url(#clip360)" d="M1740.1 1514.29 L1762.32 1514.29 L1762.32 1516.28 L1749.77 1548.85 L1744.89 1548.85 L1756.69 1518.22 L1740.1 1518.22 L1740.1 1514.29 Z" fill="#000000" fill-rule="evenodd" fill-opacity="1" /><path clip-path="url(#clip360)" d="M1771.48 1514.29 L1789.84 1514.29 L1789.84 1518.22 L1775.77 1518.22 L1775.77 1526.7 Q1776.79 1526.35 1777.8 1526.19 Q1778.82 1526 1779.84 1526 Q1785.63 1526 1789.01 1529.17 Q1792.39 1532.34 1792.39 1537.76 Q1792.39 1543.34 1788.92 1546.44 Q1785.44 1549.52 1779.12 1549.52 Q1776.95 1549.52 1774.68 1549.15 Q1772.43 1548.78 1770.03 1548.04 L1770.03 1543.34 Q1772.11 1544.47 1774.33 1545.03 Q1776.55 1545.58 1779.03 1545.58 Q1783.04 1545.58 1785.37 1543.48 Q1787.71 1541.37 1787.71 1537.76 Q1787.71 1534.15 1785.37 1532.04 Q1783.04 1529.94 1779.03 1529.94 Q1777.16 1529.94 1775.28 1530.35 Q1773.43 1530.77 1771.48 1531.65 L1771.48 1514.29 Z" fill="#000000" fill-rule="evenodd" fill-opacity="1" /><path clip-path="url(#clip360)" d="M1811.6 1517.37 Q1807.99 1517.37 1806.16 1520.93 Q1804.36 1524.47 1804.36 1531.6 Q1804.36 1538.71 1806.16 1542.27 Q1807.99 1545.82 1811.6 1545.82 Q1815.23 1545.82 1817.04 1542.27 Q1818.87 1538.71 1818.87 1531.6 Q1818.87 1524.47 1817.04 1520.93 Q1815.23 1517.37 1811.6 1517.37 M1811.6 1513.66 Q1817.41 1513.66 1820.47 1518.27 Q1823.54 1522.85 1823.54 1531.6 Q1823.54 1540.33 1820.47 1544.94 Q1817.41 1549.52 1811.6 1549.52 Q1805.79 1549.52 1802.71 1544.94 Q1799.66 1540.33 1799.66 1531.6 Q1799.66 1522.85 1802.71 1518.27 Q1805.79 1513.66 1811.6 1513.66 Z" fill="#000000" fill-rule="evenodd" fill-opacity="1" /><path clip-path="url(#clip360)" d="M2236.16 1544.91 L2243.8 1544.91 L2243.8 1518.55 L2235.49 1520.21 L2235.49 1515.95 L2243.76 1514.29 L2248.43 1514.29 L2248.43 1544.91 L2256.07 1544.91 L2256.07 1548.85 L2236.16 1548.85 L2236.16 1544.91 Z" fill="#000000" fill-rule="evenodd" fill-opacity="1" /><path clip-path="url(#clip360)" d="M2275.52 1517.37 Q2271.91 1517.37 2270.08 1520.93 Q2268.27 1524.47 2268.27 1531.6 Q2268.27 1538.71 2270.08 1542.27 Q2271.91 1545.82 2275.52 1545.82 Q2279.15 1545.82 2280.96 1542.27 Q2282.78 1538.71 2282.78 1531.6 Q2282.78 1524.47 2280.96 1520.93 Q2279.15 1517.37 2275.52 1517.37 M2275.52 1513.66 Q2281.33 1513.66 2284.38 1518.27 Q2287.46 1522.85 2287.46 1531.6 Q2287.46 1540.33 2284.38 1544.94 Q2281.33 1549.52 2275.52 1549.52 Q2269.71 1549.52 2266.63 1544.94 Q2263.57 1540.33 2263.57 1531.6 Q2263.57 1522.85 2266.63 1518.27 Q2269.71 1513.66 2275.52 1513.66 Z" fill="#000000" fill-rule="evenodd" fill-opacity="1" /><path clip-path="url(#clip360)" d="M2305.68 1517.37 Q2302.07 1517.37 2300.24 1520.93 Q2298.43 1524.47 2298.43 1531.6 Q2298.43 1538.71 2300.24 1542.27 Q2302.07 1545.82 2305.68 1545.82 Q2309.31 1545.82 2311.12 1542.27 Q2312.95 1538.71 2312.95 1531.6 Q2312.95 1524.47 2311.12 1520.93 Q2309.31 1517.37 2305.68 1517.37 M2305.68 1513.66 Q2311.49 1513.66 2314.54 1518.27 Q2317.62 1522.85 2317.62 1531.6 Q2317.62 1540.33 2314.54 1544.94 Q2311.49 1549.52 2305.68 1549.52 Q2299.87 1549.52 2296.79 1544.94 Q2293.73 1540.33 2293.73 1531.6 Q2293.73 1522.85 2296.79 1518.27 Q2299.87 1513.66 2305.68 1513.66 Z" fill="#000000" fill-rule="evenodd" fill-opacity="1" /><path clip-path="url(#clip360)" d="M2335.84 1517.37 Q2332.23 1517.37 2330.4 1520.93 Q2328.59 1524.47 2328.59 1531.6 Q2328.59 1538.71 2330.4 1542.27 Q2332.23 1545.82 2335.84 1545.82 Q2339.47 1545.82 2341.28 1542.27 Q2343.11 1538.71 2343.11 1531.6 Q2343.11 1524.47 2341.28 1520.93 Q2339.47 1517.37 2335.84 1517.37 M2335.84 1513.66 Q2341.65 1513.66 2344.71 1518.27 Q2347.78 1522.85 2347.78 1531.6 Q2347.78 1540.33 2344.71 1544.94 Q2341.65 1549.52 2335.84 1549.52 Q2330.03 1549.52 2326.95 1544.94 Q2323.9 1540.33 2323.9 1531.6 Q2323.9 1522.85 2326.95 1518.27 Q2330.03 1513.66 2335.84 1513.66 Z" fill="#000000" fill-rule="evenodd" fill-opacity="1" /><polyline clip-path="url(#clip362)" style="stroke:#000000; stroke-linecap:butt; stroke-linejoin:round; stroke-width:2; stroke-opacity:0.1; fill:none" points="
  193.288,1265.07 2352.76,1265.07 
  "/>
<polyline clip-path="url(#clip362)" style="stroke:#000000; stroke-linecap:butt; stroke-linejoin:round; stroke-width:2; stroke-opacity:0.1; fill:none" points="
  193.288,993.433 2352.76,993.433 
  "/>
<polyline clip-path="url(#clip362)" style="stroke:#000000; stroke-linecap:butt; stroke-linejoin:round; stroke-width:2; stroke-opacity:0.1; fill:none" points="
  193.288,721.796 2352.76,721.796 
  "/>
<polyline clip-path="url(#clip362)" style="stroke:#000000; stroke-linecap:butt; stroke-linejoin:round; stroke-width:2; stroke-opacity:0.1; fill:none" points="
  193.288,450.159 2352.76,450.159 
  "/>
<polyline clip-path="url(#clip362)" style="stroke:#000000; stroke-linecap:butt; stroke-linejoin:round; stroke-width:2; stroke-opacity:0.1; fill:none" points="
  193.288,178.522 2352.76,178.522 
  "/>
<polyline clip-path="url(#clip360)" style="stroke:#000000; stroke-linecap:butt; stroke-linejoin:round; stroke-width:4; stroke-opacity:1; fill:none" points="
  193.288,1486.45 193.288,47.2441 
  "/>
<polyline clip-path="url(#clip360)" style="stroke:#000000; stroke-linecap:butt; stroke-linejoin:round; stroke-width:4; stroke-opacity:1; fill:none" points="
  193.288,1265.07 212.185,1265.07 
  "/>
<polyline clip-path="url(#clip360)" style="stroke:#000000; stroke-linecap:butt; stroke-linejoin:round; stroke-width:4; stroke-opacity:1; fill:none" points="
  193.288,993.433 212.185,993.433 
  "/>
<polyline clip-path="url(#clip360)" style="stroke:#000000; stroke-linecap:butt; stroke-linejoin:round; stroke-width:4; stroke-opacity:1; fill:none" points="
  193.288,721.796 212.185,721.796 
  "/>
<polyline clip-path="url(#clip360)" style="stroke:#000000; stroke-linecap:butt; stroke-linejoin:round; stroke-width:4; stroke-opacity:1; fill:none" points="
  193.288,450.159 212.185,450.159 
  "/>
<polyline clip-path="url(#clip360)" style="stroke:#000000; stroke-linecap:butt; stroke-linejoin:round; stroke-width:4; stroke-opacity:1; fill:none" points="
  193.288,178.522 212.185,178.522 
  "/>
<path clip-path="url(#clip360)" d="M50.9921 1265.52 L80.6679 1265.52 L80.6679 1269.46 L50.9921 1269.46 L50.9921 1265.52 Z" fill="#000000" fill-rule="evenodd" fill-opacity="1" /><path clip-path="url(#clip360)" d="M100.76 1250.87 Q97.1493 1250.87 95.3206 1254.43 Q93.515 1257.98 93.515 1265.1 Q93.515 1272.21 95.3206 1275.78 Q97.1493 1279.32 100.76 1279.32 Q104.395 1279.32 106.2 1275.78 Q108.029 1272.21 108.029 1265.1 Q108.029 1257.98 106.2 1254.43 Q104.395 1250.87 100.76 1250.87 M100.76 1247.16 Q106.571 1247.16 109.626 1251.77 Q112.705 1256.35 112.705 1265.1 Q112.705 1273.83 109.626 1278.44 Q106.571 1283.02 100.76 1283.02 Q94.9502 1283.02 91.8715 1278.44 Q88.816 1273.83 88.816 1265.1 Q88.816 1256.35 91.8715 1251.77 Q94.9502 1247.16 100.76 1247.16 Z" fill="#000000" fill-rule="evenodd" fill-opacity="1" /><path clip-path="url(#clip360)" d="M120.922 1276.47 L125.807 1276.47 L125.807 1282.35 L120.922 1282.35 L120.922 1276.47 Z" fill="#000000" fill-rule="evenodd" fill-opacity="1" /><path clip-path="url(#clip360)" d="M150.158 1263.72 Q153.515 1264.43 155.39 1266.7 Q157.288 1268.97 157.288 1272.3 Q157.288 1277.42 153.769 1280.22 Q150.251 1283.02 143.769 1283.02 Q141.593 1283.02 139.279 1282.58 Q136.987 1282.16 134.533 1281.31 L134.533 1276.79 Q136.478 1277.93 138.793 1278.51 Q141.107 1279.09 143.631 1279.09 Q148.029 1279.09 150.32 1277.35 Q152.635 1275.61 152.635 1272.3 Q152.635 1269.25 150.482 1267.54 Q148.353 1265.8 144.533 1265.8 L140.506 1265.8 L140.506 1261.96 L144.718 1261.96 Q148.168 1261.96 149.996 1260.59 Q151.825 1259.2 151.825 1256.61 Q151.825 1253.95 149.927 1252.54 Q148.052 1251.1 144.533 1251.1 Q142.612 1251.1 140.413 1251.52 Q138.214 1251.93 135.575 1252.81 L135.575 1248.65 Q138.237 1247.91 140.552 1247.54 Q142.89 1247.16 144.95 1247.16 Q150.274 1247.16 153.376 1249.6 Q156.478 1252 156.478 1256.12 Q156.478 1258.99 154.834 1260.98 Q153.191 1262.95 150.158 1263.72 Z" fill="#000000" fill-rule="evenodd" fill-opacity="1" /><path clip-path="url(#clip360)" d="M100.112 979.232 Q96.5011 979.232 94.6724 982.796 Q92.8669 986.338 92.8669 993.468 Q92.8669 1000.57 94.6724 1004.14 Q96.5011 1007.68 100.112 1007.68 Q103.746 1007.68 105.552 1004.14 Q107.381 1000.57 107.381 993.468 Q107.381 986.338 105.552 982.796 Q103.746 979.232 100.112 979.232 M100.112 975.528 Q105.922 975.528 108.978 980.134 Q112.057 984.718 112.057 993.468 Q112.057 1002.19 108.978 1006.8 Q105.922 1011.38 100.112 1011.38 Q94.3021 1011.38 91.2234 1006.8 Q88.1679 1002.19 88.1679 993.468 Q88.1679 984.718 91.2234 980.134 Q94.3021 975.528 100.112 975.528 Z" fill="#000000" fill-rule="evenodd" fill-opacity="1" /><path clip-path="url(#clip360)" d="M120.274 1004.83 L125.158 1004.83 L125.158 1010.71 L120.274 1010.71 L120.274 1004.83 Z" fill="#000000" fill-rule="evenodd" fill-opacity="1" /><path clip-path="url(#clip360)" d="M145.343 979.232 Q141.732 979.232 139.904 982.796 Q138.098 986.338 138.098 993.468 Q138.098 1000.57 139.904 1004.14 Q141.732 1007.68 145.343 1007.68 Q148.978 1007.68 150.783 1004.14 Q152.612 1000.57 152.612 993.468 Q152.612 986.338 150.783 982.796 Q148.978 979.232 145.343 979.232 M145.343 975.528 Q151.154 975.528 154.209 980.134 Q157.288 984.718 157.288 993.468 Q157.288 1002.19 154.209 1006.8 Q151.154 1011.38 145.343 1011.38 Q139.533 1011.38 136.455 1006.8 Q133.399 1002.19 133.399 993.468 Q133.399 984.718 136.455 980.134 Q139.533 975.528 145.343 975.528 Z" fill="#000000" fill-rule="evenodd" fill-opacity="1" /><path clip-path="url(#clip360)" d="M100.76 707.595 Q97.1493 707.595 95.3206 711.159 Q93.515 714.701 93.515 721.831 Q93.515 728.937 95.3206 732.502 Q97.1493 736.044 100.76 736.044 Q104.395 736.044 106.2 732.502 Q108.029 728.937 108.029 721.831 Q108.029 714.701 106.2 711.159 Q104.395 707.595 100.76 707.595 M100.76 703.891 Q106.571 703.891 109.626 708.497 Q112.705 713.081 112.705 721.831 Q112.705 730.557 109.626 735.164 Q106.571 739.747 100.76 739.747 Q94.9502 739.747 91.8715 735.164 Q88.816 730.557 88.816 721.831 Q88.816 713.081 91.8715 708.497 Q94.9502 703.891 100.76 703.891 Z" fill="#000000" fill-rule="evenodd" fill-opacity="1" /><path clip-path="url(#clip360)" d="M120.922 733.196 L125.807 733.196 L125.807 739.076 L120.922 739.076 L120.922 733.196 Z" fill="#000000" fill-rule="evenodd" fill-opacity="1" /><path clip-path="url(#clip360)" d="M150.158 720.442 Q153.515 721.159 155.39 723.428 Q157.288 725.696 157.288 729.03 Q157.288 734.145 153.769 736.946 Q150.251 739.747 143.769 739.747 Q141.593 739.747 139.279 739.307 Q136.987 738.891 134.533 738.034 L134.533 733.52 Q136.478 734.655 138.793 735.233 Q141.107 735.812 143.631 735.812 Q148.029 735.812 150.32 734.076 Q152.635 732.34 152.635 729.03 Q152.635 725.974 150.482 724.261 Q148.353 722.525 144.533 722.525 L140.506 722.525 L140.506 718.683 L144.718 718.683 Q148.168 718.683 149.996 717.317 Q151.825 715.928 151.825 713.335 Q151.825 710.673 149.927 709.261 Q148.052 707.826 144.533 707.826 Q142.612 707.826 140.413 708.243 Q138.214 708.659 135.575 709.539 L135.575 705.372 Q138.237 704.632 140.552 704.261 Q142.89 703.891 144.95 703.891 Q150.274 703.891 153.376 706.321 Q156.478 708.729 156.478 712.849 Q156.478 715.72 154.834 717.71 Q153.191 719.678 150.158 720.442 Z" fill="#000000" fill-rule="evenodd" fill-opacity="1" /><path clip-path="url(#clip360)" d="M99.9502 435.958 Q96.3391 435.958 94.5104 439.522 Q92.7049 443.064 92.7049 450.194 Q92.7049 457.3 94.5104 460.865 Q96.3391 464.407 99.9502 464.407 Q103.584 464.407 105.39 460.865 Q107.219 457.3 107.219 450.194 Q107.219 443.064 105.39 439.522 Q103.584 435.958 99.9502 435.958 M99.9502 432.254 Q105.76 432.254 108.816 436.86 Q111.895 441.444 111.895 450.194 Q111.895 458.92 108.816 463.527 Q105.76 468.11 99.9502 468.11 Q94.14 468.11 91.0614 463.527 Q88.0058 458.92 88.0058 450.194 Q88.0058 441.444 91.0614 436.86 Q94.14 432.254 99.9502 432.254 Z" fill="#000000" fill-rule="evenodd" fill-opacity="1" /><path clip-path="url(#clip360)" d="M120.112 461.559 L124.996 461.559 L124.996 467.439 L120.112 467.439 L120.112 461.559 Z" fill="#000000" fill-rule="evenodd" fill-opacity="1" /><path clip-path="url(#clip360)" d="M145.76 448.296 Q142.612 448.296 140.76 450.448 Q138.931 452.601 138.931 456.351 Q138.931 460.078 140.76 462.254 Q142.612 464.407 145.76 464.407 Q148.908 464.407 150.737 462.254 Q152.589 460.078 152.589 456.351 Q152.589 452.601 150.737 450.448 Q148.908 448.296 145.76 448.296 M155.042 433.643 L155.042 437.902 Q153.283 437.069 151.478 436.629 Q149.695 436.189 147.936 436.189 Q143.306 436.189 140.853 439.314 Q138.422 442.439 138.075 448.758 Q139.441 446.745 141.501 445.68 Q143.561 444.592 146.038 444.592 Q151.246 444.592 154.255 447.763 Q157.288 450.911 157.288 456.351 Q157.288 461.675 154.14 464.893 Q150.992 468.11 145.76 468.11 Q139.765 468.11 136.594 463.527 Q133.422 458.92 133.422 450.194 Q133.422 441.999 137.311 437.138 Q141.2 432.254 147.751 432.254 Q149.51 432.254 151.293 432.601 Q153.098 432.948 155.042 433.643 Z" fill="#000000" fill-rule="evenodd" fill-opacity="1" /><path clip-path="url(#clip360)" d="M100.297 164.321 Q96.6863 164.321 94.8576 167.885 Q93.0521 171.427 93.0521 178.557 Q93.0521 185.663 94.8576 189.228 Q96.6863 192.77 100.297 192.77 Q103.932 192.77 105.737 189.228 Q107.566 185.663 107.566 178.557 Q107.566 171.427 105.737 167.885 Q103.932 164.321 100.297 164.321 M100.297 160.617 Q106.108 160.617 109.163 165.223 Q112.242 169.807 112.242 178.557 Q112.242 187.283 109.163 191.89 Q106.108 196.473 100.297 196.473 Q94.4873 196.473 91.4086 191.89 Q88.353 187.283 88.353 178.557 Q88.353 169.807 91.4086 165.223 Q94.4873 160.617 100.297 160.617 Z" fill="#000000" fill-rule="evenodd" fill-opacity="1" /><path clip-path="url(#clip360)" d="M120.459 189.922 L125.344 189.922 L125.344 195.802 L120.459 195.802 L120.459 189.922 Z" fill="#000000" fill-rule="evenodd" fill-opacity="1" /><path clip-path="url(#clip360)" d="M135.668 195.084 L135.668 190.825 Q137.427 191.658 139.232 192.098 Q141.038 192.538 142.774 192.538 Q147.404 192.538 149.834 189.436 Q152.288 186.311 152.635 179.969 Q151.293 181.959 149.232 183.024 Q147.172 184.089 144.672 184.089 Q139.487 184.089 136.455 180.964 Q133.445 177.816 133.445 172.376 Q133.445 167.052 136.594 163.835 Q139.742 160.617 144.973 160.617 Q150.968 160.617 154.117 165.223 Q157.288 169.807 157.288 178.557 Q157.288 186.728 153.399 191.612 Q149.533 196.473 142.982 196.473 Q141.223 196.473 139.418 196.126 Q137.612 195.779 135.668 195.084 M144.973 180.432 Q148.121 180.432 149.95 178.279 Q151.802 176.126 151.802 172.376 Q151.802 168.649 149.95 166.497 Q148.121 164.321 144.973 164.321 Q141.825 164.321 139.973 166.497 Q138.144 168.649 138.144 172.376 Q138.144 176.126 139.973 178.279 Q141.825 180.432 144.973 180.432 Z" fill="#000000" fill-rule="evenodd" fill-opacity="1" /><polyline clip-path="url(#clip362)" style="stroke:#009af9; stroke-linecap:butt; stroke-linejoin:round; stroke-width:4; stroke-opacity:0.4; fill:none" points="
  254.405,1109.77 256.444,1061.88 258.483,750.26 260.523,1242.49 262.562,1066.6 264.601,1125.48 266.641,918.511 268.68,1369.62 270.719,685.138 272.758,1062.22 
  274.798,1017.56 276.837,1435.13 278.876,545.403 280.915,1402.19 282.955,714.334 284.994,846.314 287.033,1007.72 289.073,1043.27 291.112,658.861 293.151,1327.44 
  295.19,1181.04 297.23,1071.52 299.269,548.096 301.308,1331.65 303.347,1020.98 305.387,1411 307.426,781.59 309.465,730.004 311.505,1226.26 313.544,1134.07 
  315.583,1207.03 317.622,1321.12 319.662,1191.5 321.701,993.188 323.74,759.437 325.779,1281.22 327.819,1303.82 329.858,1314.04 331.897,1380.88 333.937,982.692 
  335.976,1232.49 338.015,913.753 340.054,567.007 342.094,1025.2 344.133,585.071 346.172,1171.32 348.211,709.341 350.251,655.856 352.29,1137.6 354.329,885.307 
  356.369,693.114 358.408,1436.22 360.447,987.697 362.486,1328.11 364.526,1404.14 366.565,1299.96 368.604,575.2 370.643,597.934 372.683,1411.08 374.722,775.989 
  376.761,676.683 378.801,934.157 380.84,707.518 382.879,634.981 384.918,1285.9 386.958,712.784 388.997,1222.59 391.036,1302.85 393.075,1181.51 395.115,1434.23 
  397.154,1257.36 399.193,1439.05 401.233,1372.13 403.272,1240.64 405.311,659.072 407.35,1133 409.39,1307.36 411.429,706.576 413.468,977.859 415.507,1242.25 
  417.547,1021.9 419.586,1396.68 421.625,804.734 423.665,926.229 425.704,851.084 427.743,823.943 429.782,573.752 431.822,1426.07 433.861,775.139 435.9,1017.77 
  437.939,1222.61 439.979,1155.59 442.018,1205.65 444.057,1126.43 446.097,916.256 448.136,1176.08 450.175,820.251 452.214,1140.17 454.254,595.427 456.293,1246.71 
  458.332,719.177 460.371,950.16 462.411,1340.44 464.45,1003.75 466.489,1153.46 468.529,1137.48 470.568,904.318 472.607,1111.77 474.646,1374.61 476.686,1130.61 
  478.725,639.776 480.764,809.023 482.803,1101.8 484.843,607.384 486.882,1240.03 488.921,792.273 490.961,1427.72 493,944.312 495.039,583.396 497.078,1322.6 
  499.118,749.292 501.157,1391.43 503.196,654.505 505.235,1287.71 507.275,827.585 509.314,1351.55 511.353,1078.43 513.393,870.983 515.432,1160.71 517.471,1281.87 
  519.51,1439.08 521.55,1209.48 523.589,868.364 525.628,841.081 527.667,998.089 529.707,783.113 531.746,1041.7 533.785,941.2 535.825,1367.35 537.864,805.527 
  539.903,606.39 541.942,1090.82 543.982,686.572 546.021,827.569 548.06,1186.82 550.099,697.679 552.139,730.049 554.178,1071.41 556.217,756.445 558.257,1238.26 
  560.296,681.782 562.335,1354.82 564.374,1170.2 566.414,1291.45 568.453,667.707 570.492,1221.49 572.532,653.683 574.571,735.185 576.61,644.745 578.649,672.494 
  580.689,674.163 582.728,1396.21 584.767,1163.57 586.806,1080.99 588.846,1348.39 590.885,1282.56 592.924,907.657 594.964,683.912 597.003,1253.86 599.042,770.97 
  601.081,901.868 603.121,701.772 605.16,744.099 607.199,668.5 609.238,893.109 611.278,925.084 613.317,892.238 615.356,1442.41 617.396,857.186 619.435,637.864 
  621.474,959.409 623.513,1321.33 625.553,721.511 627.592,656.805 629.631,1070.04 631.67,1067.33 633.71,1049.84 635.749,1349.33 637.788,991.112 639.828,717.856 
  641.867,1024.7 643.906,919.199 645.945,1421.61 647.985,1112.23 650.024,1276.16 652.063,594.451 654.102,1390.5 656.142,611.817 658.181,1083.13 660.22,648.309 
  662.26,835.198 664.299,1303 666.338,1090.76 668.377,1181.56 670.417,749.116 672.456,1439.68 674.495,1057.49 676.534,872.096 678.574,1330.41 680.613,764.201 
  682.652,602.392 684.692,768.716 686.731,1258.69 688.77,654.658 690.809,905.907 692.849,809.238 694.888,1435.61 696.927,601.894 698.966,1308.86 701.006,952.405 
  703.045,838.124 705.084,581.253 707.124,962.506 709.163,756.166 711.202,1392.35 713.241,749.02 715.281,624.625 717.32,1293.47 719.359,1234.95 721.398,635.225 
  723.438,1238.53 725.477,700.153 727.516,861.28 729.556,1127.43 731.595,1296.61 733.634,1273.42 735.673,572.42 737.713,1283.24 739.752,984.456 741.791,1021.24 
  743.83,1034.98 745.87,996.739 747.909,1084.02 749.948,1311.04 751.988,574.892 754.027,1023.51 756.066,813.075 758.105,657.221 760.145,1132.84 762.184,645.156 
  764.223,730.371 766.262,1433.61 768.302,1153.78 770.341,974.106 772.38,632.161 774.42,1242.96 776.459,1014.73 778.498,734.081 780.537,1136.86 782.577,955.588 
  784.616,1376.52 786.655,1323.89 788.694,944.049 790.734,659.512 792.773,820.622 794.812,997.799 796.852,1186.48 798.891,1047.83 800.93,1383.77 802.969,928.927 
  805.009,1381.18 807.048,947.755 809.087,900.512 811.126,715.465 813.166,1299.17 815.205,541.899 817.244,1049.05 819.284,1185.81 821.323,806.091 823.362,1229.72 
  825.401,1358.73 827.441,799.969 829.48,1349.14 831.519,1055.46 833.558,875.625 835.598,694.92 837.637,1020.56 839.676,954.198 841.716,944.779 843.755,995.296 
  845.794,1032.23 847.833,897.544 849.873,718.935 851.912,1397.45 853.951,995.234 855.99,790.505 858.03,549.299 860.069,841.201 862.108,595.376 864.148,1185.16 
  866.187,886.91 868.226,931.374 870.265,751.802 872.305,567.283 874.344,807.814 876.383,818.201 878.422,1302.98 880.462,788.932 882.501,774.524 884.54,997.227 
  886.58,733.047 888.619,1252.55 890.658,914.849 892.697,1049.89 894.737,1442.77 896.776,774.083 898.815,1158.92 900.855,999.846 902.894,735.317 904.933,1048.06 
  906.972,1030.76 909.012,568.498 911.051,554.064 913.09,595.606 915.129,1392.64 917.169,892.571 919.208,749.608 921.247,1204.15 923.287,782.728 925.326,546.284 
  927.365,904.177 929.404,841.679 931.444,1176.43 933.483,1326.81 935.522,1187.02 937.561,679.48 939.601,829.548 941.64,905.3 943.679,838.657 945.719,1213.01 
  947.758,1327.75 949.797,940.71 951.836,729.855 953.876,1189.56 955.915,1276.61 957.954,1211.94 959.993,1135.07 962.033,929.294 964.072,599.65 966.111,670.335 
  968.151,1409.23 970.19,931.248 972.229,910.751 974.268,703.909 976.308,784.496 978.347,1399.65 980.386,1104.88 982.425,686.783 984.465,585.95 986.504,566.91 
  988.543,1045.46 990.583,1400.31 992.622,1227.4 994.661,1227.38 996.7,1423.77 998.74,647.817 1000.78,1075.51 1002.82,587.425 1004.86,1222.21 1006.9,1098.63 
  1008.94,657.726 1010.98,1082.68 1013.01,1040.8 1015.05,1283.21 1017.09,1084.55 1019.13,547.067 1021.17,1324.22 1023.21,655.03 1025.25,941.613 1027.29,598.756 
  1029.33,1287.83 1031.37,1337.94 1033.41,719.693 1035.45,1075.32 1037.49,1127.51 1039.53,1396.19 1041.56,1402.82 1043.6,584.34 1045.64,1425.87 1047.68,728.169 
  1049.72,858.457 1051.76,1342.61 1053.8,1039.46 1055.84,958.261 1057.88,881.139 1059.92,1196.26 1061.96,631.722 1064,911.892 1066.04,1399.82 1068.07,784.623 
  1070.11,1425.47 1072.15,1000.47 1074.19,778.236 1076.23,795.652 1078.27,1234.33 1080.31,1006.83 1082.35,885.532 1084.39,588.904 1086.43,938.544 1088.47,623.358 
  1090.51,1341.83 1092.55,586.787 1094.59,1018.52 1096.62,1396.17 1098.66,1278.64 1100.7,1132.07 1102.74,1182.68 1104.78,908.076 1106.82,1198.03 1108.86,805.585 
  1110.9,1189.42 1112.94,1325.24 1114.98,781.284 1117.02,599.602 1119.06,1024.68 1121.1,665.842 1123.14,595.869 1125.17,794.584 1127.21,594.436 1129.25,1095.46 
  1131.29,831.808 1133.33,789.415 1135.37,1141.99 1137.41,1124.35 1139.45,1010.55 1141.49,818.263 1143.53,1384.39 1145.57,1119.98 1147.61,794.764 1149.65,1317.9 
  1151.69,1394.97 1153.72,715.18 1155.76,823.092 1157.8,1369.07 1159.84,550.767 1161.88,736.193 1163.92,723.001 1165.96,1221.03 1168,1312.1 1170.04,885.845 
  1172.08,778.592 1174.12,1239.77 1176.16,1314.69 1178.2,925.476 1180.23,919.157 1182.27,695.037 1184.31,741.173 1186.35,1366.51 1188.39,601.291 1190.43,1308.55 
  1192.47,1222.04 1194.51,742.94 1196.55,898.663 1198.59,600.335 1200.63,965.23 1202.67,1073.25 1204.71,989.692 1206.75,1203.12 1208.78,1291.32 1210.82,988.07 
  1212.86,965.851 1214.9,1099.55 1216.94,548.946 1218.98,1200.36 1221.02,1376.56 1223.06,1115.53 1225.1,743.853 1227.14,1400.12 1229.18,1185.2 1231.22,643.28 
  1233.26,1036.92 1235.3,541.793 1237.33,1158.15 1239.37,1150.26 1241.41,1253.81 1243.45,775.475 1245.49,1154.67 1247.53,1346.22 1249.57,659.628 1251.61,1328.38 
  1253.65,978.974 1255.69,811.138 1257.73,562.839 1259.77,1438.55 1261.81,545.732 1263.85,1307.71 1265.88,892.199 1267.92,708.709 1269.96,997.71 1272,759.758 
  1274.04,1432.62 1276.08,745.046 1278.12,1358.07 1280.16,637.611 1282.2,544.903 1284.24,1243.06 1286.28,1442.04 1288.32,1036.86 1290.36,1270.31 1292.39,1075.8 
  1294.43,681.044 1296.47,1141.6 1298.51,1125.12 1300.55,1206.53 1302.59,1162.87 1304.63,1258.95 1306.67,1422.57 1308.71,691.99 1310.75,1047.89 1312.79,956.053 
  1314.83,981.828 1316.87,1241.45 1318.91,1053.55 1320.94,566.929 1322.98,739.138 1325.02,921.934 1327.06,1344.75 1329.1,656.903 1331.14,979.682 1333.18,561.225 
  1335.22,820.12 1337.26,803.086 1339.3,1012.52 1341.34,994.029 1343.38,1225.23 1345.42,1424.19 1347.46,1159.49 1349.49,673.699 1351.53,1275.82 1353.57,1400.55 
  1355.61,1279.58 1357.65,1262.69 1359.69,665.648 1361.73,1445.72 1363.77,1209.94 1365.81,1395.87 1367.85,822.715 1369.89,1300.16 1371.93,1252.94 1373.97,826.497 
  1376.01,1222.18 1378.04,1031.4 1380.08,930.041 1382.12,995.326 1384.16,1102.12 1386.2,726.392 1388.24,623.773 1390.28,900.994 1392.32,839.743 1394.36,1167.38 
  1396.4,1176.31 1398.44,563.471 1400.48,1310.8 1402.52,1079.43 1404.56,964.979 1406.59,1436.4 1408.63,668.961 1410.67,864.739 1412.71,1193.94 1414.75,1435.1 
  1416.79,1097.57 1418.83,1006.32 1420.87,817.365 1422.91,700.478 1424.95,1356.78 1426.99,788.994 1429.03,612.377 1431.07,952.128 1433.1,1438.48 1435.14,803.8 
  1437.18,844.012 1439.22,648.965 1441.26,627.711 1443.3,548.396 1445.34,1414.48 1447.38,616.18 1449.42,1120.36 1451.46,837.922 1453.5,881.144 1455.54,1028.18 
  1457.58,1043.95 1459.62,1072.25 1461.65,1128.62 1463.69,989.194 1465.73,781.28 1467.77,1340.6 1469.81,825.423 1471.85,1008.16 1473.89,1389.58 1475.93,905.953 
  1477.97,595.972 1480.01,1429.43 1482.05,709.629 1484.09,633.462 1486.13,1419.54 1488.17,1435.38 1490.2,1269.74 1492.24,1118.13 1494.28,857 1496.32,847.305 
  1498.36,824.481 1500.4,1128.17 1502.44,986.934 1504.48,592.088 1506.52,619.672 1508.56,1439.33 1510.6,709.069 1512.64,854.256 1514.68,793.807 1516.72,1363.53 
  1518.75,592.765 1520.79,619.928 1522.83,896.29 1524.87,1368.58 1526.91,1086.46 1528.95,1248.68 1530.99,884.492 1533.03,1253.45 1535.07,1345.3 1537.11,1354.91 
  1539.15,879.938 1541.19,878.961 1543.23,748.425 1545.26,1239.01 1547.3,1102.88 1549.34,1157.78 1551.38,730.218 1553.42,1056.92 1555.46,1421.61 1557.5,1168.13 
  1559.54,858.518 1561.58,1099.29 1563.62,1229.16 1565.66,795.429 1567.7,595.762 1569.74,864.76 1571.78,1336.19 1573.81,1436.81 1575.85,664.005 1577.89,1409.16 
  1579.93,669.56 1581.97,1108.34 1584.01,676.114 1586.05,1358.84 1588.09,1013.63 1590.13,1420.23 1592.17,1089.18 1594.21,1356.55 1596.25,1233.14 1598.29,1036.53 
  1600.33,631.97 1602.36,981.271 1604.4,617.605 1606.44,945.75 1608.48,918.585 1610.52,801.495 1612.56,1441.5 1614.6,795.246 1616.64,847.9 1618.68,650.114 
  1620.72,1257.16 1622.76,1438.09 1624.8,1283.74 1626.84,572.419 1628.88,953.08 1630.91,1022.24 1632.95,688.418 1634.99,671.479 1637.03,1141.41 1639.07,1295.9 
  1641.11,953.725 1643.15,1420.5 1645.19,785.903 1647.23,1220.42 1649.27,1201.39 1651.31,946.648 1653.35,601.738 1655.39,646.095 1657.42,959.466 1659.46,1170.64 
  1661.5,567.72 1663.54,1436.05 1665.58,575.931 1667.62,1089.91 1669.66,586.523 1671.7,1295.95 1673.74,1233.6 1675.78,1229.79 1677.82,1076.71 1679.86,670.323 
  1681.9,921.742 1683.94,590.035 1685.97,754.511 1688.01,1273.18 1690.05,751.968 1692.09,670.228 1694.13,1429.6 1696.17,1186.34 1698.21,1441.7 1700.25,766.39 
  1702.29,930.178 1704.33,1312.94 1706.37,1421.3 1708.41,958.234 1710.45,732.962 1712.49,876.824 1714.52,696.381 1716.56,1110 1718.6,959.758 1720.64,973.528 
  1722.68,1349.88 1724.72,789.216 1726.76,1427.38 1728.8,1313.62 1730.84,1296.64 1732.88,1364.08 1734.92,1016.96 1736.96,1136.28 1739,596.635 1741.04,1212.33 
  1743.07,839.979 1745.11,928.698 1747.15,646.634 1749.19,973.952 1751.23,665.25 1753.27,1257.68 1755.31,1103.09 1757.35,950.109 1759.39,604.967 1761.43,970.961 
  1763.47,1294.54 1765.51,843.229 1767.55,934.779 1769.58,907.478 1771.62,884.108 1773.66,775.822 1775.7,543.858 1777.74,1265.76 1779.78,1075.73 1781.82,1198.8 
  1783.86,1062.13 1785.9,616.75 1787.94,1297.87 1789.98,907.012 1792.02,1107.48 1794.06,1434.36 1796.1,1351.32 1798.13,1120.4 1800.17,654.857 1802.21,708.952 
  1804.25,792.229 1806.29,1176.75 1808.33,697.922 1810.37,885.011 1812.41,1327.97 1814.45,1293.29 1816.49,635.029 1818.53,1184.39 1820.57,1013.75 1822.61,1369.24 
  1824.65,1154.32 1826.68,1047.95 1828.72,1025.87 1830.76,717.786 1832.8,786.185 1834.84,937.314 1836.88,1022.9 1838.92,758.722 1840.96,907.705 1843,664.878 
  1845.04,1009.39 1847.08,1178.07 1849.12,1178.93 1851.16,715.726 1853.2,650.257 1855.23,779.125 1857.27,1376.3 1859.31,1426.19 1861.35,784.407 1863.39,1086.9 
  1865.43,742.982 1867.47,1282.12 1869.51,990.898 1871.55,1001.92 1873.59,953.558 1875.63,865.705 1877.67,1272.44 1879.71,1422.41 1881.74,560.765 1883.78,821.153 
  1885.82,792.217 1887.86,631.882 1889.9,1029.36 1891.94,940.538 1893.98,1098.38 1896.02,708.092 1898.06,1392.37 1900.1,1364.38 1902.14,805.591 1904.18,1076.18 
  1906.22,1021 1908.26,602.324 1910.29,988.108 1912.33,1179.43 1914.37,868.579 1916.41,1164.77 1918.45,1228.09 1920.49,1156.47 1922.53,1126.22 1924.57,607.172 
  1926.61,1058.43 1928.65,739.498 1930.69,575.376 1932.73,996.837 1934.77,755.95 1936.81,1299.83 1938.84,549.686 1940.88,1392.11 1942.92,1220.4 1944.96,1037.56 
  1947,1354.99 1949.04,1381.12 1951.08,1360.43 1953.12,967.074 1955.16,668.847 1957.2,683.493 1959.24,880.001 1961.28,978.839 1963.32,1151.13 1965.36,663.099 
  1967.39,848.526 1969.43,581.09 1971.47,1253.63 1973.51,862.518 1975.55,1038.18 1977.59,1205.9 1979.63,668.433 1981.67,628.418 1983.71,1331.33 1985.75,594.344 
  1987.79,714.803 1989.83,894.006 1991.87,939.545 1993.9,1254.59 1995.94,618.032 1997.98,1315.5 2000.02,1286.55 2002.06,1392.85 2004.1,1228.93 2006.14,571.509 
  2008.18,1357.12 2010.22,1442.27 2012.26,1116.34 2014.3,1194.97 2016.34,892.193 2018.38,1121.79 2020.42,1221.99 2022.45,1171.79 2024.49,643.282 2026.53,811.467 
  2028.57,1355.97 2030.61,1366.52 2032.65,1042.66 2034.69,1103.57 2036.73,1400.02 2038.77,886.987 2040.81,1126.81 2042.85,680.687 2044.89,597.193 2046.93,1345.8 
  2048.97,779.471 2051,687.893 2053.04,885.471 2055.08,628.034 2057.12,1000.07 2059.16,1082.29 2061.2,970.218 2063.24,1152.66 2065.28,786.639 2067.32,834.602 
  2069.36,1318.16 2071.4,1083.1 2073.44,1389.64 2075.48,592.539 2077.52,849.164 2079.55,1111.54 2081.59,703.831 2083.63,630.378 2085.67,1276 2087.71,592.166 
  2089.75,739.529 2091.79,1438.65 2093.83,729.132 2095.87,672.2 2097.91,921.758 2099.95,1112.49 2101.99,840.33 2104.03,1283.62 2106.07,1062.67 2108.1,866.981 
  2110.14,877.317 2112.18,1081.91 2114.22,1329.37 2116.26,893.576 2118.3,1435.86 2120.34,619.442 2122.38,571.487 2124.42,1283.71 2126.46,905.41 2128.5,1095.89 
  2130.54,730.912 2132.58,933.278 2134.61,590.84 2136.65,1132.91 2138.69,666.938 2140.73,564.413 2142.77,1205.7 2144.81,607.689 2146.85,1059.25 2148.89,542.699 
  2150.93,1114.66 2152.97,600.626 2155.01,1223.14 2157.05,755.745 2159.09,1128.42 2161.13,651.037 2163.16,587.421 2165.2,845.191 2167.24,725.44 2169.28,917.265 
  2171.32,867.607 2173.36,581.935 2175.4,804.339 2177.44,867.765 2179.48,987.207 2181.52,711.69 2183.56,1032 2185.6,1223.96 2187.64,701.881 2189.68,583.831 
  2191.71,1220.69 2193.75,1054.58 2195.79,861.056 2197.83,1410.79 2199.87,790.853 2201.91,565.458 2203.95,583.484 2205.99,649.231 2208.03,951.711 2210.07,1287.72 
  2212.11,796.597 2214.15,1442.73 2216.19,649.544 2218.23,1437.77 2220.26,773.907 2222.3,1250.29 2224.34,1326.13 2226.38,1029.32 2228.42,872.275 2230.46,709.114 
  2232.5,1178.53 2234.54,897.083 2236.58,804.442 2238.62,807.356 2240.66,673.896 2242.7,1191.12 2244.74,1251.81 2246.77,1414.6 2248.81,1233.74 2250.85,595.39 
  2252.89,643.835 2254.93,891.56 2256.97,909.023 2259.01,941.486 2261.05,836.422 2263.09,658.039 2265.13,886.014 2267.17,558.47 2269.21,850.904 2271.25,811.445 
  2273.29,1147.8 2275.32,1411.61 2277.36,1376.49 2279.4,1236.1 2281.44,1066.03 2283.48,1122.05 2285.52,619.073 2287.56,752.038 2289.6,1293.15 2291.64,1153.84 
  
  "/>
<polyline clip-path="url(#clip362)" style="stroke:#e26f46; stroke-linecap:butt; stroke-linejoin:round; stroke-width:4; stroke-opacity:1; fill:none" points="
  254.405,87.9763 256.444,959.571 258.483,798.222 260.523,785.032 262.562,812.593 264.601,828.478 266.641,833.71 268.68,804.999 270.719,773.334 272.758,785.764 
  274.798,796.313 276.837,773.166 278.876,737.161 280.915,727.882 282.955,722.712 284.994,727.727 287.033,736.14 289.073,743.768 291.112,736.866 293.151,733.403 
  295.19,737.547 297.23,743.536 299.269,729.474 301.308,726.972 303.347,732.582 305.387,726.695 307.426,727.306 309.465,726.307 311.505,728.249 313.544,732.085 
  315.583,734.464 317.622,733.645 319.662,736.421 321.701,740.178 323.74,739.295 325.779,739.67 327.819,739.596 329.858,739.437 331.897,737.519 333.937,740.477 
  335.976,742.277 338.015,744.218 340.054,735.781 342.094,738.761 344.133,732.216 346.172,734.43 348.211,732.632 350.251,729.605 352.29,731.912 354.329,733.767 
  356.369,732.112 358.408,728.396 360.447,730.892 362.486,730.224 364.526,727.964 366.565,728.134 368.604,723.21 370.643,719.428 372.683,717.317 374.722,717.602 
  376.761,716.141 378.801,718.172 380.84,717.483 382.879,715.479 384.918,715.607 386.958,715.198 388.997,716.138 391.036,716.038 393.075,717.409 395.115,715.051 
  397.154,715.723 399.193,713.554 401.233,712.768 403.272,713.748 405.311,712.086 407.35,713.766 409.39,713.964 411.429,713.154 413.468,714.868 415.507,715.712 
  417.547,717.444 419.586,716.371 421.625,716.791 423.665,718.165 425.704,719.026 427.743,719.654 429.782,716.75 431.822,715.155 433.861,715.358 435.9,716.92 
  437.939,717.745 439.979,718.978 442.018,719.912 444.057,721.236 446.097,722.392 448.136,723.456 450.175,723.944 452.214,725.135 454.254,722.82 456.293,723.351 
  458.332,721.609 460.371,721.503 462.411,721.254 464.45,722.029 466.489,721.787 468.529,721.744 470.568,721.678 472.607,723.666 474.646,723.83 476.686,723.686 
  478.725,720.734 480.764,722.796 482.803,727.183 484.843,726.366 486.882,727.43 488.921,726.992 490.961,724.094 493,723.936 495.039,722.767 497.078,722.819 
  499.118,721.729 501.157,719.372 503.196,721.076 505.235,721.524 507.275,720.74 509.314,721.509 511.353,722.653 513.393,723.893 515.432,724.28 517.471,723.331 
  519.51,720.872 521.55,721.81 523.589,721.727 525.628,721.064 527.667,722.449 529.707,722.422 531.746,723.823 533.785,725.237 535.825,725.415 537.864,724.551 
  539.903,722.202 541.942,722.302 543.982,724.055 546.021,723.373 548.06,726.421 550.099,724.871 552.139,725.104 554.178,727.58 556.217,726.506 558.257,725.964 
  560.296,725.821 562.335,726.969 564.374,726.582 566.414,726.979 568.453,727.43 570.492,728.161 572.532,729.363 574.571,731.208 576.61,731.629 578.649,730.493 
  580.689,730.461 582.728,727.74 584.767,729.133 586.806,731.912 588.846,731.203 590.885,731.823 592.924,732.285 594.964,731.589 597.003,731.037 599.042,733.237 
  601.081,734.175 603.121,736.025 605.16,737.476 607.199,736.6 609.238,738.593 611.278,738.899 613.317,740.735 615.356,738.272 617.396,737.91 619.435,736.725 
  621.474,736.735 623.513,737.844 625.553,737.115 627.592,735.088 629.631,735.28 631.67,735.657 633.71,738.982 635.749,740.194 637.788,741.13 639.828,739.654 
  641.867,740.719 643.906,741.201 645.945,738.386 647.985,738.46 650.024,736.938 652.063,734.595 654.102,731.995 656.142,729.715 658.181,732.508 660.22,731.585 
  662.26,732.517 664.299,730.622 666.338,732.816 668.377,732.093 670.417,731.545 672.456,728.04 674.495,728.082 676.534,728.121 678.574,728.738 680.613,728.223 
  682.652,727.71 684.692,727.414 686.731,726.238 688.77,726.869 690.809,728.023 692.849,728.139 694.888,728.004 696.927,725.336 698.966,726.285 701.006,728.462 
  703.045,729.098 705.084,729.371 707.124,731.34 709.163,732.326 711.202,729.373 713.241,731.14 715.281,729.102 717.32,727.272 719.359,726.633 721.398,726.4 
  723.438,729.26 725.477,729.154 727.516,729.129 729.556,728.853 731.595,726.749 733.634,725.595 735.673,722.795 737.713,720.928 739.752,723.935 741.791,724.347 
  743.83,726.722 745.87,726.987 747.909,728.279 749.948,726.551 751.988,724.39 754.027,725.77 756.066,726.409 758.105,724.703 760.145,725.109 762.184,724.428 
  764.223,724.909 766.262,723.656 768.302,723.773 770.341,725.73 772.38,725.305 774.42,725.09 776.459,726.927 778.498,726.917 780.537,728.457 782.577,730.222 
  784.616,729.055 786.655,730.093 788.694,730.684 790.734,728.905 792.773,731.107 794.812,732.962 796.852,732.147 798.891,733.684 800.93,731.964 802.969,732.751 
  805.009,729.803 807.048,731.323 809.087,732.321 811.126,732.86 813.166,731.208 815.205,727.435 817.244,727.549 819.284,730.734 821.323,730.428 823.362,731.719 
  825.401,729.209 827.441,730.525 829.48,729.562 831.519,731.774 833.558,731.559 835.598,729.876 837.637,729.919 839.676,732.312 841.716,732.268 843.755,733.741 
  845.794,733.731 847.833,733.659 849.873,735.828 851.912,732.873 853.951,734.474 855.99,736.749 858.03,736.233 860.069,738.549 862.108,735.821 864.148,737.186 
  866.187,737.437 868.226,739.417 870.265,738.637 872.305,736.214 874.344,736.659 876.383,740.604 878.422,738.521 880.462,738.069 882.501,740.009 884.54,740.774 
  886.58,742.331 888.619,741.499 890.658,743.134 892.697,745 894.737,740.653 896.776,740.394 898.815,743.986 900.855,746.808 902.894,747.937 904.933,747.825 
  906.972,748.132 909.012,747.922 911.051,744.357 913.09,742.455 915.129,742.45 917.169,743.308 919.208,744.742 921.247,745.753 923.287,746.51 925.326,745.152 
  927.365,746.629 929.404,747.739 931.444,747.034 933.483,744.917 935.522,746.142 937.561,746.447 939.601,749.21 941.64,751.293 943.679,751.005 945.719,749.746 
  947.758,747.093 949.797,747.107 951.836,746.327 953.876,747.781 955.915,748.808 957.954,747.628 959.993,747.551 962.033,749.548 964.072,747.269 966.111,747.589 
  968.151,744.847 970.19,749.184 972.229,749.83 974.268,748.417 976.308,750.034 978.347,747.737 980.386,747.396 982.425,746.897 984.465,744.571 986.504,741.452 
  988.543,744.85 990.583,743.591 992.622,742.122 994.661,742.532 996.7,738.798 998.74,736.783 1000.78,737.503 1002.82,734.869 1004.86,737.041 1006.9,736.684 
  1008.94,738.452 1010.98,738.128 1013.01,738.047 1015.05,737.154 1017.09,739.112 1019.13,739.197 1021.17,736.749 1023.21,735.916 1025.25,736.366 1027.29,735.336 
  1029.33,736.367 1031.37,733.963 1033.41,735.935 1035.45,735.846 1037.49,735.363 1039.53,732.952 1041.56,729.288 1043.6,726.565 1045.64,722.553 1047.68,721.532 
  1049.72,721.423 1051.76,718.849 1053.8,719.891 1055.84,723.335 1057.88,723.225 1059.92,722.802 1061.96,723.966 1064,724.21 1066.04,723.472 1068.07,723.619 
  1070.11,720.006 1072.15,720.039 1074.19,720.248 1076.23,722.786 1078.27,722.194 1080.31,722.718 1082.35,724.412 1084.39,722.215 1086.43,722.985 1088.47,720.605 
  1090.51,719.374 1092.55,717.839 1094.59,717.888 1096.62,714.843 1098.66,717.101 1100.7,717.502 1102.74,717.341 1104.78,717.236 1106.82,717.582 1108.86,717.038 
  1110.9,716.33 1112.94,717.588 1114.98,720.344 1117.02,720.404 1119.06,723.305 1121.1,721.493 1123.14,719.678 1125.17,719.835 1127.21,717.776 1129.25,721.155 
  1131.29,720.827 1133.33,720.49 1135.37,720.707 1137.41,722.495 1139.45,723.238 1141.49,724.47 1143.53,722.029 1145.57,721.874 1147.61,721.584 1149.65,720.529 
  1151.69,719.62 1153.72,718.239 1155.76,718.983 1157.8,717.112 1159.84,715.033 1161.88,714.821 1163.92,714.033 1165.96,713.044 1168,713.827 1170.04,715.489 
  1172.08,717.907 1174.12,716.798 1176.16,715.005 1178.2,716.45 1180.23,717.158 1182.27,718.564 1184.31,717.703 1186.35,716.771 1188.39,716.994 1190.43,718.588 
  1192.47,717.728 1194.51,719.493 1196.55,720.335 1198.59,718.601 1200.63,722.182 1202.67,724.133 1204.71,724.287 1206.75,726.429 1208.78,725.735 1210.82,725.954 
  1212.86,728.057 1214.9,727.994 1216.94,724.347 1218.98,725.137 1221.02,722.497 1223.06,725.958 1225.1,726.848 1227.14,725.91 1229.18,725.321 1231.22,725.959 
  1233.26,727.505 1235.3,725.86 1237.33,726.751 1239.37,726.417 1241.41,725.49 1243.45,727.653 1245.49,730.397 1247.53,731.178 1249.57,732.682 1251.61,731.819 
  1253.65,732.173 1255.69,733.91 1257.73,730.473 1259.77,726.613 1261.81,723.145 1263.85,722.044 1265.88,724.255 1267.92,722.893 1269.96,726.101 1272,725.902 
  1274.04,725.782 1276.08,724.723 1278.12,722.906 1280.16,721.317 1282.2,718.953 1284.24,717.697 1286.28,714.058 1288.32,716.926 1290.36,715.579 1292.39,718.013 
  1294.43,718.391 1296.47,721.076 1298.51,720.787 1300.55,722.925 1302.59,723.895 1304.63,722.952 1306.67,720.242 1308.71,718.659 1310.75,719.356 1312.79,720 
  1314.83,720.684 1316.87,721.58 1318.91,722.377 1320.94,721.873 1322.98,720.667 1325.02,722.586 1327.06,723.433 1329.1,722.006 1331.14,725.146 1333.18,721.634 
  1335.22,721.557 1337.26,721.662 1339.3,722.03 1341.34,722.319 1343.38,721.378 1345.42,718.754 1347.46,720.963 1349.49,719.218 1351.53,718.643 1353.57,717.571 
  1355.61,718.976 1357.65,719.353 1359.69,717.818 1361.73,716.702 1363.77,719.908 1365.81,718.774 1367.85,719.694 1369.89,719.004 1371.93,719.567 1373.97,719.201 
  1376.01,719.612 1378.04,720.45 1380.08,721.858 1382.12,722.018 1384.16,722.105 1386.2,722.472 1388.24,720.981 1390.28,722.931 1392.32,725.611 1394.36,726.772 
  1396.4,727.083 1398.44,724.608 1400.48,723.294 1402.52,726.614 1404.56,726.613 1406.59,723.517 1408.63,721.136 1410.67,721.246 1412.71,722.041 1414.75,718.95 
  1416.79,718.931 1418.83,719.017 1420.87,722.452 1422.91,721.019 1424.95,721.269 1426.99,720.411 1429.03,718.748 1431.07,721.365 1433.1,718.607 1435.14,720.356 
  1437.18,719.797 1439.22,721.476 1441.26,719.053 1443.3,715.499 1445.34,713.604 1447.38,711.812 1449.42,711.972 1451.46,713.566 1453.5,715.436 1455.54,717.354 
  1457.58,717.331 1459.62,717.922 1461.65,721.302 1463.69,724.754 1465.73,727.815 1467.77,727.42 1469.81,727.041 1471.85,728.762 1473.89,726.074 1475.93,727.085 
  1477.97,727.152 1480.01,725.191 1482.05,725.734 1484.09,725.676 1486.13,726.684 1488.17,724.355 1490.2,726.549 1492.24,726.365 1494.28,727.11 1496.32,726.666 
  1498.36,728.08 1500.4,728.143 1502.44,728.373 1504.48,725.828 1506.52,723.552 1508.56,721.211 1510.6,723.006 1512.64,724.357 1514.68,723.65 1516.72,721.16 
  1518.75,718.165 1520.79,716.797 1522.83,716.728 1524.87,717.385 1526.91,718.443 1528.95,717.413 1530.99,719.373 1533.03,720.345 1535.07,718.212 1537.11,719.726 
  1539.15,720.089 1541.19,720.577 1543.23,719.275 1545.26,718.35 1547.3,719.023 1549.34,721.768 1551.38,720.746 1553.42,722.79 1555.46,720.961 1557.5,723.326 
  1559.54,724.294 1561.58,725.376 1563.62,726.641 1565.66,729.467 1567.7,727.193 1569.74,729.947 1571.78,728.275 1573.81,726.35 1575.85,725.533 1577.89,722.852 
  1579.93,721.834 1581.97,721.614 1584.01,719.836 1586.05,717.372 1588.09,717.578 1590.13,715.647 1592.17,718.135 1594.21,716.115 1596.25,715.76 1598.29,716.184 
  1600.33,714.1 1602.36,717.698 1604.4,716.598 1606.44,716.642 1608.48,716.539 1610.52,719.328 1612.56,717.756 1614.6,717.315 1616.64,717.563 1618.68,718.917 
  1620.72,717.833 1622.76,714.268 1624.8,713.416 1626.84,711.734 1628.88,714 1630.91,714.782 1632.95,715.746 1634.99,713.845 1637.03,717.02 1639.07,716.067 
  1641.11,716.47 1643.15,715.611 1645.19,717.354 1647.23,720.533 1649.27,722.851 1651.31,725.759 1653.35,722.765 1655.39,720.843 1657.42,721.106 1659.46,720.644 
  1661.5,717.063 1663.54,713.831 1665.58,710.725 1667.62,710.606 1669.66,708.374 1671.7,708.871 1673.74,708.539 1675.78,707.682 1677.82,710.169 1679.86,708.339 
  1681.9,711.218 1683.94,711.377 1685.97,711.809 1688.01,712.971 1690.05,714.95 1692.09,716.515 1694.13,714.446 1696.17,714.057 1698.21,710.875 1700.25,710.316 
  1702.29,710.781 1704.33,709.342 1706.37,706.285 1708.41,709.315 1710.45,710.668 1712.49,713.674 1714.52,713.535 1716.56,713.77 1718.6,714.568 1720.64,716.837 
  1722.68,717.921 1724.72,719.855 1726.76,717.061 1728.8,717.704 1730.84,716.4 1732.88,715.212 1734.92,715.567 1736.96,716.293 1739,714.948 1741.04,716.336 
  1743.07,716.111 1745.11,716.312 1747.15,715.138 1749.19,716.039 1751.23,714.048 1753.27,713.327 1755.31,714.586 1757.35,714.555 1759.39,714.746 1761.43,715.231 
  1763.47,714.069 1765.51,713.767 1767.55,714.628 1769.58,715.233 1771.62,717.992 1773.66,717.396 1775.7,715.698 1777.74,717.93 1779.78,719.828 1781.82,722.229 
  1783.86,724.154 1785.9,721.694 1787.94,721.931 1789.98,724.207 1792.02,723.981 1794.06,723.753 1796.1,721.582 1798.13,723.697 1800.17,722.61 1802.21,721.184 
  1804.25,722.835 1806.29,722.191 1808.33,723.193 1810.37,723.019 1812.41,721.048 1814.45,720.156 1816.49,721.394 1818.53,721.465 1820.57,721.876 1822.61,721.67 
  1824.65,722.438 1826.68,725.958 1828.72,727.476 1830.76,729.436 1832.8,728.613 1834.84,728.556 1836.88,730.386 1838.92,731.345 1840.96,731.566 1843,731.193 
  1845.04,731.218 1847.08,734.104 1849.12,734.261 1851.16,733.789 1853.2,732.484 1855.23,731.705 1857.27,731.622 1859.31,730.358 1861.35,729.519 1863.39,729.945 
  1865.43,732.245 1867.47,734.414 1869.51,737.904 1871.55,738.066 1873.59,741.437 1875.63,742.829 1877.67,742.43 1879.71,739.912 1881.74,736.254 1883.78,737.742 
  1885.82,737.03 1887.86,737.666 1889.9,738.813 1891.94,740.266 1893.98,741.262 1896.02,741.733 1898.06,742.349 1900.1,740.382 1902.14,743.607 1904.18,744.542 
  1906.22,744.624 1908.26,743.556 1910.29,747.362 1912.33,746.628 1914.37,747.68 1916.41,747.338 1918.45,748.075 1920.49,747.818 1922.53,747.523 1924.57,744.404 
  1926.61,746.882 1928.65,746.414 1930.69,746.831 1932.73,749.069 1934.77,750.122 1936.81,751.072 1938.84,747.395 1940.88,744.35 1942.92,746.087 1944.96,747.13 
  1947,744.679 1949.04,741.591 1951.08,741.248 1953.12,741.241 1955.16,741.289 1957.2,740.791 1959.24,740.821 1961.28,740.847 1963.32,743.307 1965.36,741.149 
  1967.39,742.653 1969.43,739.799 1971.47,738.408 1973.51,738.228 1975.55,738.381 1977.59,738.352 1979.63,740.262 1981.67,739.19 1983.71,737.005 1985.75,734.891 
  1987.79,733.64 1989.83,736.079 1991.87,738.034 1993.9,736.654 1995.94,734.418 1997.98,736.272 2000.02,737.147 2002.06,734.157 2004.1,735.027 2006.14,733.192 
  2008.18,731.234 2010.22,727.978 2012.26,729.343 2014.3,728.825 2016.34,730.736 2018.38,732.157 2020.42,733.663 2022.45,733.751 2024.49,731.354 2026.53,733.499 
  2028.57,731.423 2030.61,728.791 2032.65,728.765 2034.69,730.017 2036.73,727.846 2038.77,727.672 2040.81,727.39 2042.85,726.55 2044.89,723.636 2046.93,723.592 
  2048.97,722.635 2051,721.371 2053.04,721.739 2055.08,720.683 2057.12,722.929 2059.16,723.726 2061.2,726.366 2063.24,729.407 2065.28,729.425 2067.32,729.099 
  2069.36,728.344 2071.4,729.747 2073.44,726.842 2075.48,723.731 2077.52,723.36 2079.55,723.438 2081.59,723.281 2083.63,724.401 2085.67,726.285 2087.71,723.836 
  2089.75,723.396 2091.79,722.126 2093.83,720.828 2095.87,718.981 2097.91,719.108 2099.95,720.323 2101.99,722.895 2104.03,723.911 2106.07,724.437 2108.1,724.301 
  2110.14,724.096 2112.18,726.748 2114.22,724.613 2116.26,725.078 2118.3,721.734 2120.34,719.661 2122.38,717.516 2124.42,716.428 2126.46,716.671 2128.5,719.097 
  2130.54,717.977 2132.58,719.05 2134.61,719.28 2136.65,718.9 2138.69,717.992 2140.73,716.569 2142.77,719.14 2144.81,719.601 2146.85,720.557 2148.89,717.175 
  2150.93,719.491 2152.97,720.175 2155.01,721.85 2157.05,721.07 2159.09,722.154 2161.13,721.795 2163.16,719.316 2165.2,719.078 2167.24,718.774 2169.28,720.336 
  2171.32,720.407 2173.36,720.419 2175.4,721.634 2177.44,721.651 2179.48,721.764 2181.52,721.91 2183.56,723.265 2185.6,723.907 2187.64,725.369 2189.68,725.225 
  2191.71,724.965 2193.75,724.863 2195.79,724.694 2197.83,722.504 2199.87,724.155 2201.91,723.691 2203.95,723.304 2205.99,725.497 2208.03,727.1 2210.07,727.371 
  2212.11,730.292 2214.15,730.283 2216.19,729.348 2218.23,725.821 2220.26,725.368 2222.3,724.154 2224.34,722.836 2226.38,723.714 2228.42,725.248 2230.46,724.569 
  2232.5,726.79 2234.54,730.364 2236.58,730.317 2238.62,730.653 2240.66,733.913 2242.7,732.493 2244.74,731.197 2246.77,727.758 2248.81,728.16 2250.85,729.28 
  2252.89,728.165 2254.93,729.235 2256.97,729.263 2259.01,731.012 2261.05,730.932 2263.09,729.989 2265.13,729.998 2267.17,728.487 2269.21,728.734 2271.25,728.648 
  2273.29,730.699 2275.32,726.59 2277.36,726.82 2279.4,727.06 2281.44,726.821 2283.48,726.747 2285.52,725.888 2287.56,726.985 2289.6,726.754 2291.64,728.034 
  
  "/>
<path clip-path="url(#clip360)" d="
M1611.97 250.738 L2280.77 250.738 L2280.77 95.2176 L1611.97 95.2176  Z
  " fill="#ffffff" fill-rule="evenodd" fill-opacity="1"/>
<polyline clip-path="url(#clip360)" style="stroke:#000000; stroke-linecap:butt; stroke-linejoin:round; stroke-width:4; stroke-opacity:1; fill:none" points="
  1611.97,250.738 2280.77,250.738 2280.77,95.2176 1611.97,95.2176 1611.97,250.738 
  "/>
<polyline clip-path="url(#clip360)" style="stroke:#009af9; stroke-linecap:butt; stroke-linejoin:round; stroke-width:4; stroke-opacity:0.4; fill:none" points="
  1635.96,147.058 1779.93,147.058 
  "/>
<path clip-path="url(#clip360)" d="M1803.92 129.778 L1808.6 129.778 L1808.6 164.338 L1803.92 164.338 L1803.92 129.778 Z" fill="#000000" fill-rule="evenodd" fill-opacity="1" /><path clip-path="url(#clip360)" d="M1839.27 148.689 L1839.27 164.338 L1835.01 164.338 L1835.01 148.828 Q1835.01 145.148 1833.57 143.319 Q1832.14 141.49 1829.27 141.49 Q1825.82 141.49 1823.83 143.69 Q1821.84 145.889 1821.84 149.685 L1821.84 164.338 L1817.56 164.338 L1817.56 138.412 L1821.84 138.412 L1821.84 142.44 Q1823.37 140.102 1825.43 138.944 Q1827.51 137.787 1830.22 137.787 Q1834.69 137.787 1836.98 140.565 Q1839.27 143.319 1839.27 148.689 Z" fill="#000000" fill-rule="evenodd" fill-opacity="1" /><path clip-path="url(#clip360)" d="M1851.88 160.449 L1851.88 174.199 L1847.6 174.199 L1847.6 138.412 L1851.88 138.412 L1851.88 142.347 Q1853.23 140.032 1855.26 138.921 Q1857.32 137.787 1860.17 137.787 Q1864.89 137.787 1867.83 141.537 Q1870.8 145.287 1870.8 151.398 Q1870.8 157.509 1867.83 161.259 Q1864.89 165.009 1860.17 165.009 Q1857.32 165.009 1855.26 163.898 Q1853.23 162.763 1851.88 160.449 M1866.38 151.398 Q1866.38 146.699 1864.43 144.037 Q1862.51 141.352 1859.13 141.352 Q1855.75 141.352 1853.81 144.037 Q1851.88 146.699 1851.88 151.398 Q1851.88 156.097 1853.81 158.782 Q1855.75 161.444 1859.13 161.444 Q1862.51 161.444 1864.43 158.782 Q1866.38 156.097 1866.38 151.398 Z" fill="#000000" fill-rule="evenodd" fill-opacity="1" /><path clip-path="url(#clip360)" d="M1877.42 154.106 L1877.42 138.412 L1881.68 138.412 L1881.68 153.944 Q1881.68 157.625 1883.11 159.476 Q1884.55 161.305 1887.42 161.305 Q1890.87 161.305 1892.86 159.106 Q1894.87 156.907 1894.87 153.111 L1894.87 138.412 L1899.13 138.412 L1899.13 164.338 L1894.87 164.338 L1894.87 160.356 Q1893.32 162.717 1891.26 163.875 Q1889.22 165.009 1886.51 165.009 Q1882.05 165.009 1879.73 162.231 Q1877.42 159.453 1877.42 154.106 M1888.13 137.787 L1888.13 137.787 Z" fill="#000000" fill-rule="evenodd" fill-opacity="1" /><path clip-path="url(#clip360)" d="M1912.12 131.051 L1912.12 138.412 L1920.89 138.412 L1920.89 141.722 L1912.12 141.722 L1912.12 155.796 Q1912.12 158.967 1912.97 159.87 Q1913.85 160.773 1916.51 160.773 L1920.89 160.773 L1920.89 164.338 L1916.51 164.338 Q1911.58 164.338 1909.71 162.509 Q1907.83 160.657 1907.83 155.796 L1907.83 141.722 L1904.71 141.722 L1904.71 138.412 L1907.83 138.412 L1907.83 131.051 L1912.12 131.051 Z" fill="#000000" fill-rule="evenodd" fill-opacity="1" /><polyline clip-path="url(#clip360)" style="stroke:#e26f46; stroke-linecap:butt; stroke-linejoin:round; stroke-width:4; stroke-opacity:1; fill:none" points="
  1635.96,198.898 1779.93,198.898 
  "/>
<path clip-path="url(#clip360)" d="M1822.35 191.016 L1822.35 195.043 Q1820.54 194.117 1818.6 193.655 Q1816.65 193.192 1814.57 193.192 Q1811.4 193.192 1809.8 194.164 Q1808.23 195.136 1808.23 197.08 Q1808.23 198.562 1809.36 199.418 Q1810.5 200.252 1813.92 201.016 L1815.38 201.34 Q1819.92 202.312 1821.82 204.094 Q1823.74 205.854 1823.74 209.025 Q1823.74 212.636 1820.87 214.742 Q1818.02 216.849 1813.02 216.849 Q1810.94 216.849 1808.67 216.432 Q1806.42 216.039 1803.92 215.228 L1803.92 210.83 Q1806.28 212.057 1808.57 212.682 Q1810.87 213.284 1813.11 213.284 Q1816.12 213.284 1817.74 212.266 Q1819.36 211.224 1819.36 209.349 Q1819.36 207.613 1818.18 206.687 Q1817.02 205.761 1813.07 204.904 L1811.58 204.557 Q1807.63 203.724 1805.87 202.011 Q1804.11 200.275 1804.11 197.266 Q1804.11 193.608 1806.7 191.618 Q1809.29 189.627 1814.06 189.627 Q1816.42 189.627 1818.51 189.974 Q1820.59 190.321 1822.35 191.016 Z" fill="#000000" fill-rule="evenodd" fill-opacity="1" /><path clip-path="url(#clip360)" d="M1834.73 182.891 L1834.73 190.252 L1843.51 190.252 L1843.51 193.562 L1834.73 193.562 L1834.73 207.636 Q1834.73 210.807 1835.59 211.71 Q1836.47 212.613 1839.13 212.613 L1843.51 212.613 L1843.51 216.178 L1839.13 216.178 Q1834.2 216.178 1832.32 214.349 Q1830.45 212.497 1830.45 207.636 L1830.45 193.562 L1827.32 193.562 L1827.32 190.252 L1830.45 190.252 L1830.45 182.891 L1834.73 182.891 Z" fill="#000000" fill-rule="evenodd" fill-opacity="1" /><path clip-path="url(#clip360)" d="M1866.17 194.187 L1866.17 180.159 L1870.43 180.159 L1870.43 216.178 L1866.17 216.178 L1866.17 212.289 Q1864.82 214.603 1862.76 215.738 Q1860.73 216.849 1857.86 216.849 Q1853.16 216.849 1850.19 213.099 Q1847.26 209.349 1847.26 203.238 Q1847.26 197.127 1850.19 193.377 Q1853.16 189.627 1857.86 189.627 Q1860.73 189.627 1862.76 190.761 Q1864.82 191.872 1866.17 194.187 M1851.65 203.238 Q1851.65 207.937 1853.57 210.622 Q1855.52 213.284 1858.9 213.284 Q1862.28 213.284 1864.22 210.622 Q1866.17 207.937 1866.17 203.238 Q1866.17 198.539 1864.22 195.877 Q1862.28 193.192 1858.9 193.192 Q1855.52 193.192 1853.57 195.877 Q1851.65 198.539 1851.65 203.238 Z" fill="#000000" fill-rule="evenodd" fill-opacity="1" /><path clip-path="url(#clip360)" d="M1904.5 180.206 Q1901.4 185.53 1899.89 190.738 Q1898.39 195.946 1898.39 201.293 Q1898.39 206.641 1899.89 211.895 Q1901.42 217.127 1904.5 222.428 L1900.8 222.428 Q1897.32 216.988 1895.59 211.733 Q1893.88 206.479 1893.88 201.293 Q1893.88 196.131 1895.59 190.9 Q1897.3 185.668 1900.8 180.206 L1904.5 180.206 Z" fill="#000000" fill-rule="evenodd" fill-opacity="1" /><path clip-path="url(#clip360)" d="M1910.29 190.252 L1914.55 190.252 L1919.87 210.483 L1925.17 190.252 L1930.19 190.252 L1935.52 210.483 L1940.82 190.252 L1945.08 190.252 L1938.3 216.178 L1933.27 216.178 L1927.69 194.928 L1922.09 216.178 L1917.07 216.178 L1910.29 190.252 Z" fill="#000000" fill-rule="evenodd" fill-opacity="1" /><path clip-path="url(#clip360)" d="M1951.54 190.252 L1955.8 190.252 L1955.8 216.178 L1951.54 216.178 L1951.54 190.252 M1951.54 180.159 L1955.8 180.159 L1955.8 185.553 L1951.54 185.553 L1951.54 180.159 Z" fill="#000000" fill-rule="evenodd" fill-opacity="1" /><path clip-path="url(#clip360)" d="M1986.26 200.529 L1986.26 216.178 L1982 216.178 L1982 200.668 Q1982 196.988 1980.56 195.159 Q1979.13 193.33 1976.26 193.33 Q1972.81 193.33 1970.82 195.53 Q1968.83 197.729 1968.83 201.525 L1968.83 216.178 L1964.55 216.178 L1964.55 190.252 L1968.83 190.252 L1968.83 194.28 Q1970.36 191.942 1972.42 190.784 Q1974.5 189.627 1977.21 189.627 Q1981.68 189.627 1983.97 192.405 Q1986.26 195.159 1986.26 200.529 Z" fill="#000000" fill-rule="evenodd" fill-opacity="1" /><path clip-path="url(#clip360)" d="M2011.81 194.187 L2011.81 180.159 L2016.07 180.159 L2016.07 216.178 L2011.81 216.178 L2011.81 212.289 Q2010.47 214.603 2008.41 215.738 Q2006.37 216.849 2003.5 216.849 Q1998.81 216.849 1995.84 213.099 Q1992.9 209.349 1992.9 203.238 Q1992.9 197.127 1995.84 193.377 Q1998.81 189.627 2003.5 189.627 Q2006.37 189.627 2008.41 190.761 Q2010.47 191.872 2011.81 194.187 M1997.3 203.238 Q1997.3 207.937 1999.22 210.622 Q2001.17 213.284 2004.55 213.284 Q2007.93 213.284 2009.87 210.622 Q2011.81 207.937 2011.81 203.238 Q2011.81 198.539 2009.87 195.877 Q2007.93 193.192 2004.55 193.192 Q2001.17 193.192 1999.22 195.877 Q1997.3 198.539 1997.3 203.238 Z" fill="#000000" fill-rule="evenodd" fill-opacity="1" /><path clip-path="url(#clip360)" d="M2034.89 193.238 Q2031.47 193.238 2029.48 195.923 Q2027.49 198.585 2027.49 203.238 Q2027.49 207.891 2029.45 210.576 Q2031.44 213.238 2034.89 213.238 Q2038.3 213.238 2040.29 210.553 Q2042.28 207.867 2042.28 203.238 Q2042.28 198.631 2040.29 195.946 Q2038.3 193.238 2034.89 193.238 M2034.89 189.627 Q2040.45 189.627 2043.62 193.238 Q2046.79 196.849 2046.79 203.238 Q2046.79 209.604 2043.62 213.238 Q2040.45 216.849 2034.89 216.849 Q2029.31 216.849 2026.14 213.238 Q2022.99 209.604 2022.99 203.238 Q2022.99 196.849 2026.14 193.238 Q2029.31 189.627 2034.89 189.627 Z" fill="#000000" fill-rule="evenodd" fill-opacity="1" /><path clip-path="url(#clip360)" d="M2051.37 190.252 L2055.63 190.252 L2060.96 210.483 L2066.26 190.252 L2071.28 190.252 L2076.61 210.483 L2081.91 190.252 L2086.17 190.252 L2079.38 216.178 L2074.36 216.178 L2068.78 194.928 L2063.18 216.178 L2058.16 216.178 L2051.37 190.252 Z" fill="#000000" fill-rule="evenodd" fill-opacity="1" /><path clip-path="url(#clip360)" d="M2093.18 194.65 L2122.86 194.65 L2122.86 198.539 L2093.18 198.539 L2093.18 194.65 M2093.18 204.094 L2122.86 204.094 L2122.86 208.029 L2093.18 208.029 L2093.18 204.094 Z" fill="#000000" fill-rule="evenodd" fill-opacity="1" /><path clip-path="url(#clip360)" d="M2133.76 212.242 L2141.4 212.242 L2141.4 185.877 L2133.09 187.543 L2133.09 183.284 L2141.35 181.618 L2146.03 181.618 L2146.03 212.242 L2153.67 212.242 L2153.67 216.178 L2133.76 216.178 L2133.76 212.242 Z" fill="#000000" fill-rule="evenodd" fill-opacity="1" /><path clip-path="url(#clip360)" d="M2173.11 184.696 Q2169.5 184.696 2167.67 188.261 Q2165.86 191.803 2165.86 198.932 Q2165.86 206.039 2167.67 209.604 Q2169.5 213.145 2173.11 213.145 Q2176.74 213.145 2178.55 209.604 Q2180.38 206.039 2180.38 198.932 Q2180.38 191.803 2178.55 188.261 Q2176.74 184.696 2173.11 184.696 M2173.11 180.993 Q2178.92 180.993 2181.98 185.599 Q2185.05 190.182 2185.05 198.932 Q2185.05 207.659 2181.98 212.266 Q2178.92 216.849 2173.11 216.849 Q2167.3 216.849 2164.22 212.266 Q2161.17 207.659 2161.17 198.932 Q2161.17 190.182 2164.22 185.599 Q2167.3 180.993 2173.11 180.993 Z" fill="#000000" fill-rule="evenodd" fill-opacity="1" /><path clip-path="url(#clip360)" d="M2203.27 184.696 Q2199.66 184.696 2197.83 188.261 Q2196.03 191.803 2196.03 198.932 Q2196.03 206.039 2197.83 209.604 Q2199.66 213.145 2203.27 213.145 Q2206.91 213.145 2208.71 209.604 Q2210.54 206.039 2210.54 198.932 Q2210.54 191.803 2208.71 188.261 Q2206.91 184.696 2203.27 184.696 M2203.27 180.993 Q2209.08 180.993 2212.14 185.599 Q2215.22 190.182 2215.22 198.932 Q2215.22 207.659 2212.14 212.266 Q2209.08 216.849 2203.27 216.849 Q2197.46 216.849 2194.38 212.266 Q2191.33 207.659 2191.33 198.932 Q2191.33 190.182 2194.38 185.599 Q2197.46 180.993 2203.27 180.993 Z" fill="#000000" fill-rule="evenodd" fill-opacity="1" /><path clip-path="url(#clip360)" d="M2222.16 180.206 L2225.86 180.206 Q2229.34 185.668 2231.05 190.9 Q2232.79 196.131 2232.79 201.293 Q2232.79 206.479 2231.05 211.733 Q2229.34 216.988 2225.86 222.428 L2222.16 222.428 Q2225.24 217.127 2226.74 211.895 Q2228.27 206.641 2228.27 201.293 Q2228.27 195.946 2226.74 190.738 Q2225.24 185.53 2222.16 180.206 Z" fill="#000000" fill-rule="evenodd" fill-opacity="1" /></svg>
