<?xml version="1.0" encoding="utf-8"?>
<svg xmlns="http://www.w3.org/2000/svg" xmlns:xlink="http://www.w3.org/1999/xlink" width="600" height="400" viewBox="0 0 2400 1600">
<defs>
  <clipPath id="clip380">
    <rect x="0" y="0" width="2400" height="1600"/>
  </clipPath>
</defs>
<path clip-path="url(#clip380)" d="
M0 1600 L2400 1600 L2400 0 L0 0  Z
  " fill="#ffffff" fill-rule="evenodd" fill-opacity="1"/>
<defs>
  <clipPath id="clip381">
    <rect x="480" y="0" width="1681" height="1600"/>
  </clipPath>
</defs>
<path clip-path="url(#clip380)" d="
M192.941 1486.45 L2352.76 1486.45 L2352.76 123.472 L192.941 123.472  Z
  " fill="#ffffff" fill-rule="evenodd" fill-opacity="1"/>
<defs>
  <clipPath id="clip382">
    <rect x="192" y="123" width="2161" height="1364"/>
  </clipPath>
</defs>
<polyline clip-path="url(#clip382)" style="stroke:#000000; stroke-linecap:butt; stroke-linejoin:round; stroke-width:2; stroke-opacity:0.1; fill:none" points="
  480.463,1486.45 480.463,123.472 
  "/>
<polyline clip-path="url(#clip382)" style="stroke:#000000; stroke-linecap:butt; stroke-linejoin:round; stroke-width:2; stroke-opacity:0.1; fill:none" points="
  933.255,1486.45 933.255,123.472 
  "/>
<polyline clip-path="url(#clip382)" style="stroke:#000000; stroke-linecap:butt; stroke-linejoin:round; stroke-width:2; stroke-opacity:0.1; fill:none" points="
  1386.05,1486.45 1386.05,123.472 
  "/>
<polyline clip-path="url(#clip382)" style="stroke:#000000; stroke-linecap:butt; stroke-linejoin:round; stroke-width:2; stroke-opacity:0.1; fill:none" points="
  1838.84,1486.45 1838.84,123.472 
  "/>
<polyline clip-path="url(#clip382)" style="stroke:#000000; stroke-linecap:butt; stroke-linejoin:round; stroke-width:2; stroke-opacity:0.1; fill:none" points="
  2291.63,1486.45 2291.63,123.472 
  "/>
<polyline clip-path="url(#clip380)" style="stroke:#000000; stroke-linecap:butt; stroke-linejoin:round; stroke-width:4; stroke-opacity:1; fill:none" points="
  192.941,1486.45 2352.76,1486.45 
  "/>
<polyline clip-path="url(#clip380)" style="stroke:#000000; stroke-linecap:butt; stroke-linejoin:round; stroke-width:4; stroke-opacity:1; fill:none" points="
  480.463,1486.45 480.463,1467.55 
  "/>
<polyline clip-path="url(#clip380)" style="stroke:#000000; stroke-linecap:butt; stroke-linejoin:round; stroke-width:4; stroke-opacity:1; fill:none" points="
  933.255,1486.45 933.255,1467.55 
  "/>
<polyline clip-path="url(#clip380)" style="stroke:#000000; stroke-linecap:butt; stroke-linejoin:round; stroke-width:4; stroke-opacity:1; fill:none" points="
  1386.05,1486.45 1386.05,1467.55 
  "/>
<polyline clip-path="url(#clip380)" style="stroke:#000000; stroke-linecap:butt; stroke-linejoin:round; stroke-width:4; stroke-opacity:1; fill:none" points="
  1838.84,1486.45 1838.84,1467.55 
  "/>
<polyline clip-path="url(#clip380)" style="stroke:#000000; stroke-linecap:butt; stroke-linejoin:round; stroke-width:4; stroke-opacity:1; fill:none" points="
  2291.63,1486.45 2291.63,1467.55 
  "/>
<path clip-path="url(#clip380)" d="M475.116 1543.18 L491.435 1543.18 L491.435 1547.12 L469.491 1547.12 L469.491 1543.18 Q472.153 1540.43 476.736 1535.8 Q481.343 1531.15 482.523 1529.81 Q484.769 1527.28 485.648 1525.55 Q486.551 1523.79 486.551 1522.1 Q486.551 1519.34 484.607 1517.61 Q482.685 1515.87 479.584 1515.87 Q477.385 1515.87 474.931 1516.63 Q472.5 1517.4 469.723 1518.95 L469.723 1514.23 Q472.547 1513.09 475 1512.51 Q477.454 1511.93 479.491 1511.93 Q484.861 1511.93 488.056 1514.62 Q491.25 1517.31 491.25 1521.8 Q491.25 1523.93 490.44 1525.85 Q489.653 1527.74 487.547 1530.34 Q486.968 1531.01 483.866 1534.23 Q480.764 1537.42 475.116 1543.18 Z" fill="#000000" fill-rule="evenodd" fill-opacity="1" /><path clip-path="url(#clip380)" d="M936.264 1516.63 L924.458 1535.08 L936.264 1535.08 L936.264 1516.63 M935.037 1512.56 L940.917 1512.56 L940.917 1535.08 L945.847 1535.08 L945.847 1538.97 L940.917 1538.97 L940.917 1547.12 L936.264 1547.12 L936.264 1538.97 L920.662 1538.97 L920.662 1534.46 L935.037 1512.56 Z" fill="#000000" fill-rule="evenodd" fill-opacity="1" /><path clip-path="url(#clip380)" d="M1386.45 1527.98 Q1383.3 1527.98 1381.45 1530.13 Q1379.62 1532.28 1379.62 1536.03 Q1379.62 1539.76 1381.45 1541.93 Q1383.3 1544.09 1386.45 1544.09 Q1389.6 1544.09 1391.43 1541.93 Q1393.28 1539.76 1393.28 1536.03 Q1393.28 1532.28 1391.43 1530.13 Q1389.6 1527.98 1386.45 1527.98 M1395.73 1513.32 L1395.73 1517.58 Q1393.97 1516.75 1392.17 1516.31 Q1390.39 1515.87 1388.63 1515.87 Q1384 1515.87 1381.54 1519 Q1379.11 1522.12 1378.77 1528.44 Q1380.13 1526.43 1382.19 1525.36 Q1384.25 1524.27 1386.73 1524.27 Q1391.94 1524.27 1394.95 1527.44 Q1397.98 1530.59 1397.98 1536.03 Q1397.98 1541.36 1394.83 1544.57 Q1391.68 1547.79 1386.45 1547.79 Q1380.46 1547.79 1377.28 1543.21 Q1374.11 1538.6 1374.11 1529.87 Q1374.11 1521.68 1378 1516.82 Q1381.89 1511.93 1388.44 1511.93 Q1390.2 1511.93 1391.98 1512.28 Q1393.79 1512.63 1395.73 1513.32 Z" fill="#000000" fill-rule="evenodd" fill-opacity="1" /><path clip-path="url(#clip380)" d="M1838.84 1530.71 Q1835.5 1530.71 1833.58 1532.49 Q1831.68 1534.27 1831.68 1537.4 Q1831.68 1540.52 1833.58 1542.31 Q1835.5 1544.09 1838.84 1544.09 Q1842.17 1544.09 1844.09 1542.31 Q1846.01 1540.5 1846.01 1537.4 Q1846.01 1534.27 1844.09 1532.49 Q1842.19 1530.71 1838.84 1530.71 M1834.16 1528.72 Q1831.15 1527.98 1829.46 1525.92 Q1827.8 1523.86 1827.8 1520.89 Q1827.8 1516.75 1830.74 1514.34 Q1833.7 1511.93 1838.84 1511.93 Q1844 1511.93 1846.94 1514.34 Q1849.88 1516.75 1849.88 1520.89 Q1849.88 1523.86 1848.19 1525.92 Q1846.52 1527.98 1843.54 1528.72 Q1846.92 1529.5 1848.79 1531.8 Q1850.69 1534.09 1850.69 1537.4 Q1850.69 1542.42 1847.61 1545.11 Q1844.56 1547.79 1838.84 1547.79 Q1833.12 1547.79 1830.04 1545.11 Q1826.99 1542.42 1826.99 1537.4 Q1826.99 1534.09 1828.88 1531.8 Q1830.78 1529.5 1834.16 1528.72 M1832.45 1521.33 Q1832.45 1524.02 1834.12 1525.52 Q1835.81 1527.03 1838.84 1527.03 Q1841.85 1527.03 1843.54 1525.52 Q1845.25 1524.02 1845.25 1521.33 Q1845.25 1518.65 1843.54 1517.14 Q1841.85 1515.64 1838.84 1515.64 Q1835.81 1515.64 1834.12 1517.14 Q1832.45 1518.65 1832.45 1521.33 Z" fill="#000000" fill-rule="evenodd" fill-opacity="1" /><path clip-path="url(#clip380)" d="M2266.32 1543.18 L2273.96 1543.18 L2273.96 1516.82 L2265.65 1518.49 L2265.65 1514.23 L2273.91 1512.56 L2278.59 1512.56 L2278.59 1543.18 L2286.22 1543.18 L2286.22 1547.12 L2266.32 1547.12 L2266.32 1543.18 Z" fill="#000000" fill-rule="evenodd" fill-opacity="1" /><path clip-path="url(#clip380)" d="M2305.67 1515.64 Q2302.06 1515.64 2300.23 1519.2 Q2298.42 1522.75 2298.42 1529.87 Q2298.42 1536.98 2300.23 1540.55 Q2302.06 1544.09 2305.67 1544.09 Q2309.3 1544.09 2311.11 1540.55 Q2312.94 1536.98 2312.94 1529.87 Q2312.94 1522.75 2311.11 1519.2 Q2309.3 1515.64 2305.67 1515.64 M2305.67 1511.93 Q2311.48 1511.93 2314.53 1516.54 Q2317.61 1521.12 2317.61 1529.87 Q2317.61 1538.6 2314.53 1543.21 Q2311.48 1547.79 2305.67 1547.79 Q2299.86 1547.79 2296.78 1543.21 Q2293.72 1538.6 2293.72 1529.87 Q2293.72 1521.12 2296.78 1516.54 Q2299.86 1511.93 2305.67 1511.93 Z" fill="#000000" fill-rule="evenodd" fill-opacity="1" /><polyline clip-path="url(#clip382)" style="stroke:#000000; stroke-linecap:butt; stroke-linejoin:round; stroke-width:2; stroke-opacity:0.1; fill:none" points="
  192.941,1253.53 2352.76,1253.53 
  "/>
<polyline clip-path="url(#clip382)" style="stroke:#000000; stroke-linecap:butt; stroke-linejoin:round; stroke-width:2; stroke-opacity:0.1; fill:none" points="
  192.941,973.165 2352.76,973.165 
  "/>
<polyline clip-path="url(#clip382)" style="stroke:#000000; stroke-linecap:butt; stroke-linejoin:round; stroke-width:2; stroke-opacity:0.1; fill:none" points="
  192.941,692.794 2352.76,692.794 
  "/>
<polyline clip-path="url(#clip382)" style="stroke:#000000; stroke-linecap:butt; stroke-linejoin:round; stroke-width:2; stroke-opacity:0.1; fill:none" points="
  192.941,412.424 2352.76,412.424 
  "/>
<polyline clip-path="url(#clip382)" style="stroke:#000000; stroke-linecap:butt; stroke-linejoin:round; stroke-width:2; stroke-opacity:0.1; fill:none" points="
  192.941,132.054 2352.76,132.054 
  "/>
<polyline clip-path="url(#clip380)" style="stroke:#000000; stroke-linecap:butt; stroke-linejoin:round; stroke-width:4; stroke-opacity:1; fill:none" points="
  192.941,1486.45 192.941,123.472 
  "/>
<polyline clip-path="url(#clip380)" style="stroke:#000000; stroke-linecap:butt; stroke-linejoin:round; stroke-width:4; stroke-opacity:1; fill:none" points="
  192.941,1253.53 211.838,1253.53 
  "/>
<polyline clip-path="url(#clip380)" style="stroke:#000000; stroke-linecap:butt; stroke-linejoin:round; stroke-width:4; stroke-opacity:1; fill:none" points="
  192.941,973.165 211.838,973.165 
  "/>
<polyline clip-path="url(#clip380)" style="stroke:#000000; stroke-linecap:butt; stroke-linejoin:round; stroke-width:4; stroke-opacity:1; fill:none" points="
  192.941,692.794 211.838,692.794 
  "/>
<polyline clip-path="url(#clip380)" style="stroke:#000000; stroke-linecap:butt; stroke-linejoin:round; stroke-width:4; stroke-opacity:1; fill:none" points="
  192.941,412.424 211.838,412.424 
  "/>
<polyline clip-path="url(#clip380)" style="stroke:#000000; stroke-linecap:butt; stroke-linejoin:round; stroke-width:4; stroke-opacity:1; fill:none" points="
  192.941,132.054 211.838,132.054 
  "/>
<path clip-path="url(#clip380)" d="M50.9921 1253.99 L80.6679 1253.99 L80.6679 1257.92 L50.9921 1257.92 L50.9921 1253.99 Z" fill="#000000" fill-rule="evenodd" fill-opacity="1" /><path clip-path="url(#clip380)" d="M100.76 1239.33 Q97.1493 1239.33 95.3206 1242.9 Q93.515 1246.44 93.515 1253.57 Q93.515 1260.68 95.3206 1264.24 Q97.1493 1267.78 100.76 1267.78 Q104.395 1267.78 106.2 1264.24 Q108.029 1260.68 108.029 1253.57 Q108.029 1246.44 106.2 1242.9 Q104.395 1239.33 100.76 1239.33 M100.76 1235.63 Q106.571 1235.63 109.626 1240.24 Q112.705 1244.82 112.705 1253.57 Q112.705 1262.3 109.626 1266.9 Q106.571 1271.49 100.76 1271.49 Q94.9502 1271.49 91.8715 1266.9 Q88.816 1262.3 88.816 1253.57 Q88.816 1244.82 91.8715 1240.24 Q94.9502 1235.63 100.76 1235.63 Z" fill="#000000" fill-rule="evenodd" fill-opacity="1" /><path clip-path="url(#clip380)" d="M120.922 1264.94 L125.807 1264.94 L125.807 1270.81 L120.922 1270.81 L120.922 1264.94 Z" fill="#000000" fill-rule="evenodd" fill-opacity="1" /><path clip-path="url(#clip380)" d="M136.038 1236.25 L154.394 1236.25 L154.394 1240.19 L140.32 1240.19 L140.32 1248.66 Q141.339 1248.32 142.357 1248.15 Q143.376 1247.97 144.394 1247.97 Q150.181 1247.97 153.561 1251.14 Q156.941 1254.31 156.941 1259.73 Q156.941 1265.31 153.468 1268.41 Q149.996 1271.49 143.677 1271.49 Q141.501 1271.49 139.232 1271.12 Q136.987 1270.75 134.58 1270 L134.58 1265.31 Q136.663 1266.44 138.885 1267 Q141.107 1267.55 143.584 1267.55 Q147.589 1267.55 149.927 1265.44 Q152.265 1263.34 152.265 1259.73 Q152.265 1256.12 149.927 1254.01 Q147.589 1251.9 143.584 1251.9 Q141.709 1251.9 139.834 1252.32 Q137.982 1252.74 136.038 1253.62 L136.038 1236.25 Z" fill="#000000" fill-rule="evenodd" fill-opacity="1" /><path clip-path="url(#clip380)" d="M99.765 958.963 Q96.1539 958.963 94.3252 962.528 Q92.5197 966.07 92.5197 973.199 Q92.5197 980.306 94.3252 983.871 Q96.1539 987.412 99.765 987.412 Q103.399 987.412 105.205 983.871 Q107.033 980.306 107.033 973.199 Q107.033 966.07 105.205 962.528 Q103.399 958.963 99.765 958.963 M99.765 955.26 Q105.575 955.26 108.631 959.866 Q111.709 964.45 111.709 973.199 Q111.709 981.926 108.631 986.533 Q105.575 991.116 99.765 991.116 Q93.9549 991.116 90.8762 986.533 Q87.8206 981.926 87.8206 973.199 Q87.8206 964.45 90.8762 959.866 Q93.9549 955.26 99.765 955.26 Z" fill="#000000" fill-rule="evenodd" fill-opacity="1" /><path clip-path="url(#clip380)" d="M119.927 984.565 L124.811 984.565 L124.811 990.445 L119.927 990.445 L119.927 984.565 Z" fill="#000000" fill-rule="evenodd" fill-opacity="1" /><path clip-path="url(#clip380)" d="M144.996 958.963 Q141.385 958.963 139.556 962.528 Q137.751 966.07 137.751 973.199 Q137.751 980.306 139.556 983.871 Q141.385 987.412 144.996 987.412 Q148.63 987.412 150.436 983.871 Q152.265 980.306 152.265 973.199 Q152.265 966.07 150.436 962.528 Q148.63 958.963 144.996 958.963 M144.996 955.26 Q150.806 955.26 153.862 959.866 Q156.941 964.45 156.941 973.199 Q156.941 981.926 153.862 986.533 Q150.806 991.116 144.996 991.116 Q139.186 991.116 136.107 986.533 Q133.052 981.926 133.052 973.199 Q133.052 964.45 136.107 959.866 Q139.186 955.26 144.996 955.26 Z" fill="#000000" fill-rule="evenodd" fill-opacity="1" /><path clip-path="url(#clip380)" d="M100.76 678.593 Q97.1493 678.593 95.3206 682.158 Q93.515 685.7 93.515 692.829 Q93.515 699.936 95.3206 703.5 Q97.1493 707.042 100.76 707.042 Q104.395 707.042 106.2 703.5 Q108.029 699.936 108.029 692.829 Q108.029 685.7 106.2 682.158 Q104.395 678.593 100.76 678.593 M100.76 674.89 Q106.571 674.89 109.626 679.496 Q112.705 684.079 112.705 692.829 Q112.705 701.556 109.626 706.162 Q106.571 710.746 100.76 710.746 Q94.9502 710.746 91.8715 706.162 Q88.816 701.556 88.816 692.829 Q88.816 684.079 91.8715 679.496 Q94.9502 674.89 100.76 674.89 Z" fill="#000000" fill-rule="evenodd" fill-opacity="1" /><path clip-path="url(#clip380)" d="M120.922 704.195 L125.807 704.195 L125.807 710.074 L120.922 710.074 L120.922 704.195 Z" fill="#000000" fill-rule="evenodd" fill-opacity="1" /><path clip-path="url(#clip380)" d="M136.038 675.514 L154.394 675.514 L154.394 679.45 L140.32 679.45 L140.32 687.922 Q141.339 687.575 142.357 687.413 Q143.376 687.227 144.394 687.227 Q150.181 687.227 153.561 690.399 Q156.941 693.57 156.941 698.987 Q156.941 704.565 153.468 707.667 Q149.996 710.746 143.677 710.746 Q141.501 710.746 139.232 710.375 Q136.987 710.005 134.58 709.264 L134.58 704.565 Q136.663 705.7 138.885 706.255 Q141.107 706.811 143.584 706.811 Q147.589 706.811 149.927 704.704 Q152.265 702.598 152.265 698.987 Q152.265 695.376 149.927 693.269 Q147.589 691.163 143.584 691.163 Q141.709 691.163 139.834 691.579 Q137.982 691.996 136.038 692.876 L136.038 675.514 Z" fill="#000000" fill-rule="evenodd" fill-opacity="1" /><path clip-path="url(#clip380)" d="M90.5752 425.769 L98.2141 425.769 L98.2141 399.403 L89.904 401.07 L89.904 396.811 L98.1678 395.144 L102.844 395.144 L102.844 425.769 L110.483 425.769 L110.483 429.704 L90.5752 429.704 L90.5752 425.769 Z" fill="#000000" fill-rule="evenodd" fill-opacity="1" /><path clip-path="url(#clip380)" d="M119.927 423.825 L124.811 423.825 L124.811 429.704 L119.927 429.704 L119.927 423.825 Z" fill="#000000" fill-rule="evenodd" fill-opacity="1" /><path clip-path="url(#clip380)" d="M144.996 398.223 Q141.385 398.223 139.556 401.788 Q137.751 405.329 137.751 412.459 Q137.751 419.565 139.556 423.13 Q141.385 426.672 144.996 426.672 Q148.63 426.672 150.436 423.13 Q152.265 419.565 152.265 412.459 Q152.265 405.329 150.436 401.788 Q148.63 398.223 144.996 398.223 M144.996 394.519 Q150.806 394.519 153.862 399.126 Q156.941 403.709 156.941 412.459 Q156.941 421.186 153.862 425.792 Q150.806 430.376 144.996 430.376 Q139.186 430.376 136.107 425.792 Q133.052 421.186 133.052 412.459 Q133.052 403.709 136.107 399.126 Q139.186 394.519 144.996 394.519 Z" fill="#000000" fill-rule="evenodd" fill-opacity="1" /><path clip-path="url(#clip380)" d="M91.5706 145.399 L99.2095 145.399 L99.2095 119.033 L90.8993 120.7 L90.8993 116.441 L99.1632 114.774 L103.839 114.774 L103.839 145.399 L111.478 145.399 L111.478 149.334 L91.5706 149.334 L91.5706 145.399 Z" fill="#000000" fill-rule="evenodd" fill-opacity="1" /><path clip-path="url(#clip380)" d="M120.922 143.454 L125.807 143.454 L125.807 149.334 L120.922 149.334 L120.922 143.454 Z" fill="#000000" fill-rule="evenodd" fill-opacity="1" /><path clip-path="url(#clip380)" d="M136.038 114.774 L154.394 114.774 L154.394 118.709 L140.32 118.709 L140.32 127.181 Q141.339 126.834 142.357 126.672 Q143.376 126.487 144.394 126.487 Q150.181 126.487 153.561 129.658 Q156.941 132.829 156.941 138.246 Q156.941 143.825 153.468 146.927 Q149.996 150.005 143.677 150.005 Q141.501 150.005 139.232 149.635 Q136.987 149.265 134.58 148.524 L134.58 143.825 Q136.663 144.959 138.885 145.515 Q141.107 146.07 143.584 146.07 Q147.589 146.07 149.927 143.964 Q152.265 141.857 152.265 138.246 Q152.265 134.635 149.927 132.529 Q147.589 130.422 143.584 130.422 Q141.709 130.422 139.834 130.839 Q137.982 131.255 136.038 132.135 L136.038 114.774 Z" fill="#000000" fill-rule="evenodd" fill-opacity="1" /><path clip-path="url(#clip380)" d="M1015.66 44.2197 Q1018.29 45.1109 1020.76 48.0275 Q1023.27 50.9442 1025.78 56.0483 L1034.09 72.576 L1025.3 72.576 L1017.56 57.061 Q1014.56 50.9847 1011.73 48.9997 Q1008.93 47.0148 1004.07 47.0148 L995.159 47.0148 L995.159 72.576 L986.976 72.576 L986.976 12.096 L1005.45 12.096 Q1015.82 12.096 1020.92 16.4305 Q1026.03 20.7649 1026.03 29.5149 Q1026.03 35.2267 1023.35 38.994 Q1020.72 42.7613 1015.66 44.2197 M995.159 18.8205 L995.159 40.2903 L1005.45 40.2903 Q1011.36 40.2903 1014.36 37.5762 Q1017.4 34.8216 1017.4 29.5149 Q1017.4 24.2082 1014.36 21.5346 Q1011.36 18.8205 1005.45 18.8205 L995.159 18.8205 Z" fill="#000000" fill-rule="evenodd" fill-opacity="1" /><path clip-path="url(#clip380)" d="M1058.15 32.4315 Q1052.16 32.4315 1048.67 37.1306 Q1045.19 41.7891 1045.19 49.9314 Q1045.19 58.0738 1048.63 62.7728 Q1052.11 67.4314 1058.15 67.4314 Q1064.11 67.4314 1067.59 62.7323 Q1071.07 58.0333 1071.07 49.9314 Q1071.07 41.8701 1067.59 37.1711 Q1064.11 32.4315 1058.15 32.4315 M1058.15 26.1121 Q1067.87 26.1121 1073.42 32.4315 Q1078.97 38.7509 1078.97 49.9314 Q1078.97 61.0714 1073.42 67.4314 Q1067.87 73.7508 1058.15 73.7508 Q1048.39 73.7508 1042.84 67.4314 Q1037.33 61.0714 1037.33 49.9314 Q1037.33 38.7509 1042.84 32.4315 Q1048.39 26.1121 1058.15 26.1121 Z" fill="#000000" fill-rule="evenodd" fill-opacity="1" /><path clip-path="url(#clip380)" d="M1091.33 9.54393 L1098.78 9.54393 L1098.78 72.576 L1091.33 72.576 L1091.33 9.54393 Z" fill="#000000" fill-rule="evenodd" fill-opacity="1" /><path clip-path="url(#clip380)" d="M1114.38 9.54393 L1121.83 9.54393 L1121.83 72.576 L1114.38 72.576 L1114.38 9.54393 Z" fill="#000000" fill-rule="evenodd" fill-opacity="1" /><path clip-path="url(#clip380)" d="M1137.43 27.2059 L1144.88 27.2059 L1144.88 72.576 L1137.43 72.576 L1137.43 27.2059 M1137.43 9.54393 L1144.88 9.54393 L1144.88 18.9825 L1137.43 18.9825 L1137.43 9.54393 Z" fill="#000000" fill-rule="evenodd" fill-opacity="1" /><path clip-path="url(#clip380)" d="M1198.19 45.1919 L1198.19 72.576 L1190.74 72.576 L1190.74 45.4349 Q1190.74 38.994 1188.22 35.7938 Q1185.71 32.5936 1180.69 32.5936 Q1174.65 32.5936 1171.17 36.4419 Q1167.69 40.2903 1167.69 46.9338 L1167.69 72.576 L1160.19 72.576 L1160.19 27.2059 L1167.69 27.2059 L1167.69 34.2544 Q1170.36 30.163 1173.97 28.1376 Q1177.61 26.1121 1182.35 26.1121 Q1190.17 26.1121 1194.18 30.9732 Q1198.19 35.7938 1198.19 45.1919 Z" fill="#000000" fill-rule="evenodd" fill-opacity="1" /><path clip-path="url(#clip380)" d="M1242.91 49.3643 Q1242.91 41.2625 1239.55 36.8065 Q1236.23 32.3505 1230.19 32.3505 Q1224.2 32.3505 1220.83 36.8065 Q1217.51 41.2625 1217.51 49.3643 Q1217.51 57.4256 1220.83 61.8816 Q1224.2 66.3376 1230.19 66.3376 Q1236.23 66.3376 1239.55 61.8816 Q1242.91 57.4256 1242.91 49.3643 M1250.37 66.9452 Q1250.37 78.5308 1245.22 84.1616 Q1240.08 89.8329 1229.46 89.8329 Q1225.53 89.8329 1222.05 89.2252 Q1218.57 88.6581 1215.28 87.4428 L1215.28 80.1917 Q1218.57 81.9741 1221.77 82.8248 Q1224.97 83.6755 1228.29 83.6755 Q1235.62 83.6755 1239.27 79.8271 Q1242.91 76.0193 1242.91 68.282 L1242.91 64.5957 Q1240.6 68.6061 1237 70.5911 Q1233.39 72.576 1228.37 72.576 Q1220.02 72.576 1214.92 66.2161 Q1209.82 59.8562 1209.82 49.3643 Q1209.82 38.832 1214.92 32.472 Q1220.02 26.1121 1228.37 26.1121 Q1233.39 26.1121 1237 28.0971 Q1240.6 30.082 1242.91 34.0924 L1242.91 27.2059 L1250.37 27.2059 L1250.37 66.9452 Z" fill="#000000" fill-rule="evenodd" fill-opacity="1" /><path clip-path="url(#clip380)" d="M1327.41 35.9153 Q1330.21 30.8922 1334.1 28.5022 Q1337.99 26.1121 1343.25 26.1121 Q1350.34 26.1121 1354.19 31.0947 Q1358.04 36.0368 1358.04 45.1919 L1358.04 72.576 L1350.54 72.576 L1350.54 45.4349 Q1350.54 38.913 1348.24 35.7533 Q1345.93 32.5936 1341.19 32.5936 Q1335.39 32.5936 1332.03 36.4419 Q1328.67 40.2903 1328.67 46.9338 L1328.67 72.576 L1321.18 72.576 L1321.18 45.4349 Q1321.18 38.8725 1318.87 35.7533 Q1316.56 32.5936 1311.74 32.5936 Q1306.03 32.5936 1302.66 36.4824 Q1299.3 40.3308 1299.3 46.9338 L1299.3 72.576 L1291.81 72.576 L1291.81 27.2059 L1299.3 27.2059 L1299.3 34.2544 Q1301.85 30.082 1305.42 28.0971 Q1308.98 26.1121 1313.88 26.1121 Q1318.83 26.1121 1322.27 28.6237 Q1325.75 31.1352 1327.41 35.9153 Z" fill="#000000" fill-rule="evenodd" fill-opacity="1" /><path clip-path="url(#clip380)" d="M1411.71 48.0275 L1411.71 51.6733 L1377.44 51.6733 Q1377.93 59.3701 1382.06 63.421 Q1386.23 67.4314 1393.65 67.4314 Q1397.94 67.4314 1401.95 66.3781 Q1406 65.3249 1409.97 63.2184 L1409.97 70.267 Q1405.96 71.9684 1401.75 72.8596 Q1397.54 73.7508 1393.2 73.7508 Q1382.34 73.7508 1375.98 67.4314 Q1369.66 61.1119 1369.66 50.3365 Q1369.66 39.1965 1375.66 32.6746 Q1381.7 26.1121 1391.9 26.1121 Q1401.06 26.1121 1406.37 32.0264 Q1411.71 37.9003 1411.71 48.0275 M1404.26 45.84 Q1404.18 39.7232 1400.82 36.0774 Q1397.49 32.4315 1391.99 32.4315 Q1385.75 32.4315 1381.98 35.9558 Q1378.25 39.4801 1377.69 45.8805 L1404.26 45.84 Z" fill="#000000" fill-rule="evenodd" fill-opacity="1" /><path clip-path="url(#clip380)" d="M1444.57 49.7694 Q1435.53 49.7694 1432.05 51.8354 Q1428.57 53.9013 1428.57 58.8839 Q1428.57 62.8538 1431.16 65.2034 Q1433.79 67.5124 1438.29 67.5124 Q1444.49 67.5124 1448.21 63.1374 Q1451.98 58.7219 1451.98 51.4303 L1451.98 49.7694 L1444.57 49.7694 M1459.43 46.6907 L1459.43 72.576 L1451.98 72.576 L1451.98 65.6895 Q1449.43 69.8214 1445.62 71.8063 Q1441.81 73.7508 1436.3 73.7508 Q1429.33 73.7508 1425.2 69.8619 Q1421.11 65.9325 1421.11 59.3701 Q1421.11 51.7138 1426.22 47.825 Q1431.36 43.9361 1441.53 43.9361 L1451.98 43.9361 L1451.98 43.2069 Q1451.98 38.0623 1448.58 35.2672 Q1445.21 32.4315 1439.1 32.4315 Q1435.21 32.4315 1431.52 33.3632 Q1427.84 34.295 1424.43 36.1584 L1424.43 29.2718 Q1428.52 27.692 1432.37 26.9223 Q1436.22 26.1121 1439.87 26.1121 Q1449.71 26.1121 1454.57 31.2163 Q1459.43 36.3204 1459.43 46.6907 Z" fill="#000000" fill-rule="evenodd" fill-opacity="1" /><path clip-path="url(#clip380)" d="M1512.5 45.1919 L1512.5 72.576 L1505.05 72.576 L1505.05 45.4349 Q1505.05 38.994 1502.53 35.7938 Q1500.02 32.5936 1495 32.5936 Q1488.96 32.5936 1485.48 36.4419 Q1482 40.2903 1482 46.9338 L1482 72.576 L1474.5 72.576 L1474.5 27.2059 L1482 27.2059 L1482 34.2544 Q1484.67 30.163 1488.28 28.1376 Q1491.92 26.1121 1496.66 26.1121 Q1504.48 26.1121 1508.49 30.9732 Q1512.5 35.7938 1512.5 45.1919 Z" fill="#000000" fill-rule="evenodd" fill-opacity="1" /><path clip-path="url(#clip380)" d="M1556.29 28.5427 L1556.29 35.5912 Q1553.13 33.9709 1549.73 33.1607 Q1546.32 32.3505 1542.68 32.3505 Q1537.13 32.3505 1534.33 34.0519 Q1531.58 35.7533 1531.58 39.156 Q1531.58 41.7486 1533.56 43.2475 Q1535.55 44.7058 1541.54 46.0426 L1544.1 46.6097 Q1552.04 48.3111 1555.36 51.4303 Q1558.72 54.509 1558.72 60.0587 Q1558.72 66.3781 1553.7 70.0644 Q1548.71 73.7508 1539.96 73.7508 Q1536.32 73.7508 1532.35 73.0216 Q1528.42 72.3329 1524.04 70.9151 L1524.04 63.2184 Q1528.18 65.3654 1532.19 66.4591 Q1536.2 67.5124 1540.13 67.5124 Q1545.39 67.5124 1548.23 65.73 Q1551.06 63.9071 1551.06 60.6258 Q1551.06 57.5877 1549 55.9673 Q1546.97 54.3469 1540.05 52.8481 L1537.45 52.2405 Q1530.53 50.7821 1527.45 47.7845 Q1524.37 44.7463 1524.37 39.4801 Q1524.37 33.0797 1528.91 29.5959 Q1533.44 26.1121 1541.79 26.1121 Q1545.92 26.1121 1549.57 26.7198 Q1553.21 27.3274 1556.29 28.5427 Z" fill="#000000" fill-rule="evenodd" fill-opacity="1" /><polyline clip-path="url(#clip382)" style="stroke:#009af9; stroke-linecap:butt; stroke-linejoin:round; stroke-width:4; stroke-opacity:1; fill:none" points="
  254.067,243.898 274.649,361.488 295.23,274.974 315.812,391.043 336.393,339.115 356.975,162.047 377.556,312.935 398.137,252.916 418.719,162.69 439.3,260.86 
  459.882,237.206 480.463,237.182 501.045,232.665 521.626,421.983 542.208,296.131 562.789,562.931 583.37,579.789 603.952,394.811 624.533,530.566 645.115,733.941 
  665.696,659.982 686.278,698.255 706.859,763.21 727.44,696.418 748.022,817.369 768.603,1033.78 789.185,921.617 809.766,1013.64 830.348,942.976 850.929,1087.77 
  871.51,1070.65 892.092,1246.28 912.673,1124.99 933.255,1369.66 953.836,1267.91 974.418,1316.98 994.999,1342 1015.58,1237.72 1036.16,1378.28 1056.74,1396.79 
  1077.32,1317.77 1097.91,1388.79 1118.49,1447.87 1139.07,1250.12 1159.65,1268.41 1180.23,1227.67 1200.81,1194.01 1221.39,1249.35 1241.98,1168.65 1262.56,1184.39 
  1283.14,1258.25 1303.72,1247.7 1324.3,1151.79 1344.88,1032.1 1365.46,1039.1 1386.05,960.421 1406.63,841.54 1427.21,762.162 1447.79,714.94 1468.37,880.071 
  1488.95,741.632 1509.53,559.998 1530.12,752.929 1550.7,459.36 1571.28,643.092 1591.86,589.5 1612.44,529.228 1633.02,496.032 1653.6,500.747 1674.19,276.055 
  1694.77,435.168 1715.35,264.258 1735.93,206.535 1756.51,383.861 1777.09,348.892 1797.67,343.793 1818.26,195.429 1838.84,320.594 1859.42,233.676 1880,195.713 
  1900.58,275.269 1921.16,405.47 1941.74,419.708 1962.33,457.514 1982.91,459.222 2003.49,496.761 2024.07,531.501 2044.65,671.212 2065.23,500.978 2085.81,601.903 
  2106.4,730.682 2126.98,673.046 2147.56,869.722 2168.14,924.956 2188.72,1040.51 2209.3,1058.91 2229.88,1123.95 2250.47,1032.45 2271.05,958.891 2291.63,1268.95 
  
  "/>
<polyline clip-path="url(#clip382)" style="stroke:#e26f46; stroke-linecap:butt; stroke-linejoin:round; stroke-width:8; stroke-opacity:1; fill:none" points="
  336.393,322.103 356.975,305.733 377.556,296.023 398.137,291.611 418.719,245.941 439.3,230.289 459.882,245.321 480.463,230.171 501.045,226.12 521.626,277.979 
  542.208,285.033 562.789,350.178 583.37,418.7 603.952,451.129 624.533,472.846 645.115,560.408 665.696,579.818 686.278,603.511 706.859,677.191 727.44,710.361 
  748.022,727.047 768.603,801.807 789.185,846.479 809.766,896.565 830.348,945.876 850.929,999.956 871.51,1007.33 892.092,1072.26 912.673,1094.53 933.255,1179.87 
  953.836,1215.9 974.418,1265.16 994.999,1284.31 1015.58,1306.85 1036.16,1308.58 1056.74,1334.35 1077.32,1334.51 1097.91,1343.87 1118.49,1385.9 1139.07,1360.27 
  1159.65,1334.59 1180.23,1316.57 1200.81,1277.62 1221.39,1237.91 1241.98,1221.62 1262.56,1204.82 1283.14,1210.93 1303.72,1221.67 1324.3,1202.16 1344.88,1174.85 
  1365.46,1145.79 1386.05,1086.22 1406.63,1004.99 1427.21,927.066 1447.79,863.634 1468.37,831.827 1488.95,788.069 1509.53,731.761 1530.12,729.914 1550.7,678.798 
  1571.28,631.402 1591.86,600.976 1612.44,594.822 1633.02,543.442 1653.6,551.72 1674.19,478.312 1694.77,447.446 1715.35,394.452 1735.93,336.553 1756.51,313.175 
  1777.09,327.743 1797.67,309.468 1818.26,295.702 1838.84,318.514 1859.42,288.477 1880,257.841 1900.58,244.136 1921.16,286.145 1941.74,305.967 1962.33,350.735 
  1982.91,403.437 2003.49,447.735 2024.07,472.941 2044.65,523.242 2065.23,531.935 2085.81,560.471 2106.4,607.255 2126.98,635.564 2147.56,675.266 2168.14,760.062 
  2188.72,847.783 2209.3,913.428 2229.88,1003.61 2250.47,1036.15 2271.05,1042.94 2291.63,1088.63 
  "/>
<polyline clip-path="url(#clip382)" style="stroke:#3da44d; stroke-linecap:butt; stroke-linejoin:round; stroke-width:8; stroke-opacity:1; fill:none" points="
  439.3,276.196 459.882,275.527 480.463,263.097 501.045,258.866 521.626,261.96 542.208,257.661 562.789,297.75 583.37,324.435 603.952,338.625 624.533,375.412 
  645.115,422.72 665.696,464.998 686.278,511.105 706.859,564.16 727.44,591.603 748.022,643.727 768.603,690.812 789.185,724.995 809.766,786.878 830.348,828.119 
  850.929,863.501 871.51,904.568 892.092,959.371 912.673,995.549 933.255,1062.87 953.836,1107.93 974.418,1136.25 994.999,1178.28 1015.58,1200.69 1036.16,1244.22 
  1056.74,1275.13 1077.32,1299.84 1097.91,1314.09 1118.49,1346.38 1139.07,1334.42 1159.65,1334.47 1180.23,1325.54 1200.81,1310.74 1221.39,1311.91 1241.98,1290.94 
  1262.56,1269.7 1283.14,1263.75 1303.72,1249.64 1324.3,1220.03 1344.88,1198.23 1365.46,1175.3 1386.05,1148.58 1406.63,1113.33 1427.21,1064.61 1447.79,1019.24 
  1468.37,988.807 1488.95,937.146 1509.53,868.376 1530.12,828.49 1550.7,771.216 1571.28,731.615 1591.86,694.522 1612.44,663.291 1633.02,636.678 1653.6,615.259 
  1674.19,554.857 1694.77,524.211 1715.35,494.637 1735.93,439.997 1756.51,432.448 1777.09,403.028 1797.67,378.457 1818.26,345.077 1838.84,327.533 1859.42,300.826 
  1880,292.792 1900.58,276.802 1921.16,290.923 1941.74,312.241 1962.33,319.606 1982.91,330.639 2003.49,345.936 2024.07,379.543 2044.65,414.605 2065.23,441.335 
  2085.81,481.954 2106.4,527.495 2126.98,554.253 2147.56,599.254 2168.14,645.998 2188.72,704.127 2209.3,760.342 2229.88,819.587 2250.47,855.71 2271.05,901.501 
  2291.63,968.206 
  "/>
<polyline clip-path="url(#clip382)" style="stroke:#c271d2; stroke-linecap:butt; stroke-linejoin:round; stroke-width:8; stroke-opacity:1; fill:none" points="
  645.115,349.458 665.696,370.263 686.278,387.101 706.859,411.513 727.44,426.782 748.022,450.694 768.603,494.281 789.185,524.715 809.766,562.751 830.348,601.766 
  850.929,643.111 871.51,684.783 892.092,735.238 912.673,779.854 933.255,827.238 953.836,875.827 974.418,913.53 994.999,951.64 1015.58,993.785 1036.16,1036.17 
  1056.74,1069.31 1077.32,1102.2 1097.91,1136.73 1118.49,1170.96 1139.07,1198.65 1159.65,1221.2 1180.23,1230.89 1200.81,1244.51 1221.39,1256.3 1241.98,1267.58 
  1262.56,1272.42 1283.14,1281.8 1303.72,1281.87 1324.3,1283.21 1344.88,1266.33 1365.46,1254.89 1386.05,1237.06 1406.63,1212.04 1427.21,1188.26 1447.79,1155.09 
  1468.37,1129.26 1488.95,1100.45 1509.53,1059.01 1530.12,1024.26 1550.7,984.724 1571.28,953.458 1591.86,921.549 1612.44,888.31 1633.02,850.644 1653.6,817.249 
  1674.19,771.832 1694.77,730.678 1715.35,681.506 1735.93,634.244 1756.51,601.832 1777.09,567.321 1797.67,536.49 1818.26,504.184 1838.84,482.106 1859.42,458.042 
  1880,423.825 1900.58,400.506 1921.16,392.78 1941.74,376.119 1962.33,376.027 1982.91,366.833 2003.49,362.196 2024.07,362.31 2044.65,371.069 2065.23,371.081 
  2085.81,387.373 2106.4,402.149 2126.98,422.588 2147.56,455.747 2168.14,482.802 2188.72,517.383 2209.3,553.139 2229.88,599.565 2250.47,635.157 2271.05,671.418 
  2291.63,725.08 
  "/>
<path clip-path="url(#clip380)" d="
M1838.4 428.105 L2280.76 428.105 L2280.76 168.905 L1838.4 168.905  Z
  " fill="#ffffff" fill-rule="evenodd" fill-opacity="1"/>
<polyline clip-path="url(#clip380)" style="stroke:#000000; stroke-linecap:butt; stroke-linejoin:round; stroke-width:4; stroke-opacity:1; fill:none" points="
  1838.4,428.105 2280.76,428.105 2280.76,168.905 1838.4,168.905 1838.4,428.105 
  "/>
<polyline clip-path="url(#clip380)" style="stroke:#009af9; stroke-linecap:butt; stroke-linejoin:round; stroke-width:4; stroke-opacity:1; fill:none" points="
  1862.4,220.745 2006.39,220.745 
  "/>
<path clip-path="url(#clip380)" d="M2045.57 216.08 Q2044.85 215.664 2043.99 215.478 Q2043.16 215.27 2042.14 215.27 Q2038.53 215.27 2036.59 217.631 Q2034.67 219.969 2034.67 224.367 L2034.67 238.025 L2030.38 238.025 L2030.38 212.099 L2034.67 212.099 L2034.67 216.127 Q2036.01 213.766 2038.16 212.631 Q2040.31 211.474 2043.39 211.474 Q2043.83 211.474 2044.36 211.543 Q2044.9 211.59 2045.54 211.705 L2045.57 216.08 Z" fill="#000000" fill-rule="evenodd" fill-opacity="1" /><path clip-path="url(#clip380)" d="M2061.82 224.992 Q2056.66 224.992 2054.67 226.173 Q2052.67 227.353 2052.67 230.201 Q2052.67 232.469 2054.16 233.812 Q2055.66 235.131 2058.23 235.131 Q2061.77 235.131 2063.9 232.631 Q2066.05 230.108 2066.05 225.941 L2066.05 224.992 L2061.82 224.992 M2070.31 223.233 L2070.31 238.025 L2066.05 238.025 L2066.05 234.089 Q2064.6 236.451 2062.42 237.585 Q2060.24 238.696 2057.1 238.696 Q2053.11 238.696 2050.75 236.474 Q2048.42 234.228 2048.42 230.478 Q2048.42 226.103 2051.33 223.881 Q2054.27 221.659 2060.08 221.659 L2066.05 221.659 L2066.05 221.242 Q2066.05 218.303 2064.11 216.705 Q2062.19 215.085 2058.69 215.085 Q2056.47 215.085 2054.36 215.617 Q2052.26 216.15 2050.31 217.215 L2050.31 213.279 Q2052.65 212.377 2054.85 211.937 Q2057.05 211.474 2059.13 211.474 Q2064.76 211.474 2067.54 214.391 Q2070.31 217.307 2070.31 223.233 Z" fill="#000000" fill-rule="evenodd" fill-opacity="1" /><path clip-path="url(#clip380)" d="M2076.61 212.099 L2080.87 212.099 L2086.19 232.33 L2091.49 212.099 L2096.52 212.099 L2101.84 232.33 L2107.14 212.099 L2111.4 212.099 L2104.62 238.025 L2099.6 238.025 L2094.02 216.775 L2088.42 238.025 L2083.39 238.025 L2076.61 212.099 Z" fill="#000000" fill-rule="evenodd" fill-opacity="1" /><polyline clip-path="url(#clip380)" style="stroke:#e26f46; stroke-linecap:butt; stroke-linejoin:round; stroke-width:4; stroke-opacity:1; fill:none" points="
  1862.4,272.585 2006.39,272.585 
  "/>
<path clip-path="url(#clip380)" d="M2050.73 268.916 Q2052.33 266.045 2054.55 264.68 Q2056.77 263.314 2059.78 263.314 Q2063.83 263.314 2066.03 266.161 Q2068.23 268.985 2068.23 274.217 L2068.23 289.865 L2063.95 289.865 L2063.95 274.355 Q2063.95 270.629 2062.63 268.823 Q2061.31 267.018 2058.6 267.018 Q2055.29 267.018 2053.37 269.217 Q2051.45 271.416 2051.45 275.212 L2051.45 289.865 L2047.17 289.865 L2047.17 274.355 Q2047.17 270.605 2045.85 268.823 Q2044.53 267.018 2041.77 267.018 Q2038.51 267.018 2036.59 269.24 Q2034.67 271.439 2034.67 275.212 L2034.67 289.865 L2030.38 289.865 L2030.38 263.939 L2034.67 263.939 L2034.67 267.967 Q2036.12 265.582 2038.16 264.448 Q2040.2 263.314 2043 263.314 Q2045.82 263.314 2047.79 264.749 Q2049.78 266.184 2050.73 268.916 Z" fill="#000000" fill-rule="evenodd" fill-opacity="1" /><path clip-path="url(#clip380)" d="M2098.9 275.837 L2098.9 277.92 L2079.32 277.92 Q2079.6 282.318 2081.96 284.633 Q2084.34 286.925 2088.58 286.925 Q2091.03 286.925 2093.32 286.323 Q2095.64 285.721 2097.91 284.517 L2097.91 288.545 Q2095.61 289.517 2093.21 290.027 Q2090.8 290.536 2088.32 290.536 Q2082.12 290.536 2078.48 286.925 Q2074.87 283.314 2074.87 277.156 Q2074.87 270.791 2078.3 267.064 Q2081.75 263.314 2087.58 263.314 Q2092.81 263.314 2095.85 266.693 Q2098.9 270.05 2098.9 275.837 M2094.64 274.587 Q2094.6 271.092 2092.67 269.008 Q2090.78 266.925 2087.63 266.925 Q2084.06 266.925 2081.91 268.939 Q2079.78 270.953 2079.46 274.61 L2094.64 274.587 Z" fill="#000000" fill-rule="evenodd" fill-opacity="1" /><path clip-path="url(#clip380)" d="M2117.67 276.832 Q2112.51 276.832 2110.52 278.013 Q2108.53 279.193 2108.53 282.041 Q2108.53 284.309 2110.01 285.652 Q2111.52 286.971 2114.09 286.971 Q2117.63 286.971 2119.76 284.471 Q2121.91 281.948 2121.91 277.781 L2121.91 276.832 L2117.67 276.832 M2126.17 275.073 L2126.17 289.865 L2121.91 289.865 L2121.91 285.929 Q2120.45 288.291 2118.28 289.425 Q2116.1 290.536 2112.95 290.536 Q2108.97 290.536 2106.61 288.314 Q2104.27 286.068 2104.27 282.318 Q2104.27 277.943 2107.19 275.721 Q2110.13 273.499 2115.94 273.499 L2121.91 273.499 L2121.91 273.082 Q2121.91 270.143 2119.97 268.545 Q2118.04 266.925 2114.55 266.925 Q2112.33 266.925 2110.22 267.457 Q2108.11 267.99 2106.17 269.055 L2106.17 265.119 Q2108.51 264.217 2110.71 263.777 Q2112.91 263.314 2114.99 263.314 Q2120.61 263.314 2123.39 266.231 Q2126.17 269.147 2126.17 275.073 Z" fill="#000000" fill-rule="evenodd" fill-opacity="1" /><path clip-path="url(#clip380)" d="M2156.49 274.217 L2156.49 289.865 L2152.23 289.865 L2152.23 274.355 Q2152.23 270.675 2150.8 268.846 Q2149.36 267.018 2146.49 267.018 Q2143.04 267.018 2141.05 269.217 Q2139.06 271.416 2139.06 275.212 L2139.06 289.865 L2134.78 289.865 L2134.78 263.939 L2139.06 263.939 L2139.06 267.967 Q2140.59 265.629 2142.65 264.471 Q2144.73 263.314 2147.44 263.314 Q2151.91 263.314 2154.2 266.092 Q2156.49 268.846 2156.49 274.217 Z" fill="#000000" fill-rule="evenodd" fill-opacity="1" /><path clip-path="url(#clip380)" d="M2180.71 255.305 L2199.06 255.305 L2199.06 259.24 L2184.99 259.24 L2184.99 267.712 Q2186.01 267.365 2187.03 267.203 Q2188.04 267.018 2189.06 267.018 Q2194.85 267.018 2198.23 270.189 Q2201.61 273.36 2201.61 278.777 Q2201.61 284.355 2198.14 287.457 Q2194.66 290.536 2188.35 290.536 Q2186.17 290.536 2183.9 290.166 Q2181.66 289.795 2179.25 289.054 L2179.25 284.355 Q2181.33 285.49 2183.55 286.045 Q2185.78 286.601 2188.25 286.601 Q2192.26 286.601 2194.6 284.494 Q2196.93 282.388 2196.93 278.777 Q2196.93 275.166 2194.6 273.059 Q2192.26 270.953 2188.25 270.953 Q2186.38 270.953 2184.5 271.369 Q2182.65 271.786 2180.71 272.666 L2180.71 255.305 Z" fill="#000000" fill-rule="evenodd" fill-opacity="1" /><polyline clip-path="url(#clip380)" style="stroke:#3da44d; stroke-linecap:butt; stroke-linejoin:round; stroke-width:4; stroke-opacity:1; fill:none" points="
  1862.4,324.425 2006.39,324.425 
  "/>
<path clip-path="url(#clip380)" d="M2050.73 320.756 Q2052.33 317.885 2054.55 316.52 Q2056.77 315.154 2059.78 315.154 Q2063.83 315.154 2066.03 318.001 Q2068.23 320.825 2068.23 326.057 L2068.23 341.705 L2063.95 341.705 L2063.95 326.195 Q2063.95 322.469 2062.63 320.663 Q2061.31 318.858 2058.6 318.858 Q2055.29 318.858 2053.37 321.057 Q2051.45 323.256 2051.45 327.052 L2051.45 341.705 L2047.17 341.705 L2047.17 326.195 Q2047.17 322.445 2045.85 320.663 Q2044.53 318.858 2041.77 318.858 Q2038.51 318.858 2036.59 321.08 Q2034.67 323.279 2034.67 327.052 L2034.67 341.705 L2030.38 341.705 L2030.38 315.779 L2034.67 315.779 L2034.67 319.807 Q2036.12 317.422 2038.16 316.288 Q2040.2 315.154 2043 315.154 Q2045.82 315.154 2047.79 316.589 Q2049.78 318.024 2050.73 320.756 Z" fill="#000000" fill-rule="evenodd" fill-opacity="1" /><path clip-path="url(#clip380)" d="M2098.9 327.677 L2098.9 329.76 L2079.32 329.76 Q2079.6 334.158 2081.96 336.473 Q2084.34 338.765 2088.58 338.765 Q2091.03 338.765 2093.32 338.163 Q2095.64 337.561 2097.91 336.357 L2097.91 340.385 Q2095.61 341.357 2093.21 341.867 Q2090.8 342.376 2088.32 342.376 Q2082.12 342.376 2078.48 338.765 Q2074.87 335.154 2074.87 328.996 Q2074.87 322.631 2078.3 318.904 Q2081.75 315.154 2087.58 315.154 Q2092.81 315.154 2095.85 318.533 Q2098.9 321.89 2098.9 327.677 M2094.64 326.427 Q2094.6 322.932 2092.67 320.848 Q2090.78 318.765 2087.63 318.765 Q2084.06 318.765 2081.91 320.779 Q2079.78 322.793 2079.46 326.45 L2094.64 326.427 Z" fill="#000000" fill-rule="evenodd" fill-opacity="1" /><path clip-path="url(#clip380)" d="M2117.67 328.672 Q2112.51 328.672 2110.52 329.853 Q2108.53 331.033 2108.53 333.881 Q2108.53 336.149 2110.01 337.492 Q2111.52 338.811 2114.09 338.811 Q2117.63 338.811 2119.76 336.311 Q2121.91 333.788 2121.91 329.621 L2121.91 328.672 L2117.67 328.672 M2126.17 326.913 L2126.17 341.705 L2121.91 341.705 L2121.91 337.769 Q2120.45 340.131 2118.28 341.265 Q2116.1 342.376 2112.95 342.376 Q2108.97 342.376 2106.61 340.154 Q2104.27 337.908 2104.27 334.158 Q2104.27 329.783 2107.19 327.561 Q2110.13 325.339 2115.94 325.339 L2121.91 325.339 L2121.91 324.922 Q2121.91 321.983 2119.97 320.385 Q2118.04 318.765 2114.55 318.765 Q2112.33 318.765 2110.22 319.297 Q2108.11 319.83 2106.17 320.895 L2106.17 316.959 Q2108.51 316.057 2110.71 315.617 Q2112.91 315.154 2114.99 315.154 Q2120.61 315.154 2123.39 318.071 Q2126.17 320.987 2126.17 326.913 Z" fill="#000000" fill-rule="evenodd" fill-opacity="1" /><path clip-path="url(#clip380)" d="M2156.49 326.057 L2156.49 341.705 L2152.23 341.705 L2152.23 326.195 Q2152.23 322.515 2150.8 320.686 Q2149.36 318.858 2146.49 318.858 Q2143.04 318.858 2141.05 321.057 Q2139.06 323.256 2139.06 327.052 L2139.06 341.705 L2134.78 341.705 L2134.78 315.779 L2139.06 315.779 L2139.06 319.807 Q2140.59 317.469 2142.65 316.311 Q2144.73 315.154 2147.44 315.154 Q2151.91 315.154 2154.2 317.932 Q2156.49 320.686 2156.49 326.057 Z" fill="#000000" fill-rule="evenodd" fill-opacity="1" /><path clip-path="url(#clip380)" d="M2181.47 337.769 L2189.11 337.769 L2189.11 311.404 L2180.8 313.071 L2180.8 308.811 L2189.06 307.145 L2193.74 307.145 L2193.74 337.769 L2201.38 337.769 L2201.38 341.705 L2181.47 341.705 L2181.47 337.769 Z" fill="#000000" fill-rule="evenodd" fill-opacity="1" /><path clip-path="url(#clip380)" d="M2220.82 310.223 Q2217.21 310.223 2215.38 313.788 Q2213.58 317.33 2213.58 324.459 Q2213.58 331.566 2215.38 335.131 Q2217.21 338.672 2220.82 338.672 Q2224.46 338.672 2226.26 335.131 Q2228.09 331.566 2228.09 324.459 Q2228.09 317.33 2226.26 313.788 Q2224.46 310.223 2220.82 310.223 M2220.82 306.52 Q2226.63 306.52 2229.69 311.126 Q2232.77 315.709 2232.77 324.459 Q2232.77 333.186 2229.69 337.793 Q2226.63 342.376 2220.82 342.376 Q2215.01 342.376 2211.93 337.793 Q2208.88 333.186 2208.88 324.459 Q2208.88 315.709 2211.93 311.126 Q2215.01 306.52 2220.82 306.52 Z" fill="#000000" fill-rule="evenodd" fill-opacity="1" /><polyline clip-path="url(#clip380)" style="stroke:#c271d2; stroke-linecap:butt; stroke-linejoin:round; stroke-width:4; stroke-opacity:1; fill:none" points="
  1862.4,376.265 2006.39,376.265 
  "/>
<path clip-path="url(#clip380)" d="M2050.73 372.596 Q2052.33 369.725 2054.55 368.36 Q2056.77 366.994 2059.78 366.994 Q2063.83 366.994 2066.03 369.841 Q2068.23 372.665 2068.23 377.897 L2068.23 393.545 L2063.95 393.545 L2063.95 378.035 Q2063.95 374.309 2062.63 372.503 Q2061.31 370.698 2058.6 370.698 Q2055.29 370.698 2053.37 372.897 Q2051.45 375.096 2051.45 378.892 L2051.45 393.545 L2047.17 393.545 L2047.17 378.035 Q2047.17 374.285 2045.85 372.503 Q2044.53 370.698 2041.77 370.698 Q2038.51 370.698 2036.59 372.92 Q2034.67 375.119 2034.67 378.892 L2034.67 393.545 L2030.38 393.545 L2030.38 367.619 L2034.67 367.619 L2034.67 371.647 Q2036.12 369.262 2038.16 368.128 Q2040.2 366.994 2043 366.994 Q2045.82 366.994 2047.79 368.429 Q2049.78 369.864 2050.73 372.596 Z" fill="#000000" fill-rule="evenodd" fill-opacity="1" /><path clip-path="url(#clip380)" d="M2098.9 379.517 L2098.9 381.6 L2079.32 381.6 Q2079.6 385.998 2081.96 388.313 Q2084.34 390.605 2088.58 390.605 Q2091.03 390.605 2093.32 390.003 Q2095.64 389.401 2097.91 388.197 L2097.91 392.225 Q2095.61 393.197 2093.21 393.707 Q2090.8 394.216 2088.32 394.216 Q2082.12 394.216 2078.48 390.605 Q2074.87 386.994 2074.87 380.836 Q2074.87 374.471 2078.3 370.744 Q2081.75 366.994 2087.58 366.994 Q2092.81 366.994 2095.85 370.373 Q2098.9 373.73 2098.9 379.517 M2094.64 378.267 Q2094.6 374.772 2092.67 372.688 Q2090.78 370.605 2087.63 370.605 Q2084.06 370.605 2081.91 372.619 Q2079.78 374.633 2079.46 378.29 L2094.64 378.267 Z" fill="#000000" fill-rule="evenodd" fill-opacity="1" /><path clip-path="url(#clip380)" d="M2117.67 380.512 Q2112.51 380.512 2110.52 381.693 Q2108.53 382.873 2108.53 385.721 Q2108.53 387.989 2110.01 389.332 Q2111.52 390.651 2114.09 390.651 Q2117.63 390.651 2119.76 388.151 Q2121.91 385.628 2121.91 381.461 L2121.91 380.512 L2117.67 380.512 M2126.17 378.753 L2126.17 393.545 L2121.91 393.545 L2121.91 389.609 Q2120.45 391.971 2118.28 393.105 Q2116.1 394.216 2112.95 394.216 Q2108.97 394.216 2106.61 391.994 Q2104.27 389.748 2104.27 385.998 Q2104.27 381.623 2107.19 379.401 Q2110.13 377.179 2115.94 377.179 L2121.91 377.179 L2121.91 376.762 Q2121.91 373.823 2119.97 372.225 Q2118.04 370.605 2114.55 370.605 Q2112.33 370.605 2110.22 371.137 Q2108.11 371.67 2106.17 372.735 L2106.17 368.799 Q2108.51 367.897 2110.71 367.457 Q2112.91 366.994 2114.99 366.994 Q2120.61 366.994 2123.39 369.911 Q2126.17 372.827 2126.17 378.753 Z" fill="#000000" fill-rule="evenodd" fill-opacity="1" /><path clip-path="url(#clip380)" d="M2156.49 377.897 L2156.49 393.545 L2152.23 393.545 L2152.23 378.035 Q2152.23 374.355 2150.8 372.526 Q2149.36 370.698 2146.49 370.698 Q2143.04 370.698 2141.05 372.897 Q2139.06 375.096 2139.06 378.892 L2139.06 393.545 L2134.78 393.545 L2134.78 367.619 L2139.06 367.619 L2139.06 371.647 Q2140.59 369.309 2142.65 368.151 Q2144.73 366.994 2147.44 366.994 Q2151.91 366.994 2154.2 369.772 Q2156.49 372.526 2156.49 377.897 Z" fill="#000000" fill-rule="evenodd" fill-opacity="1" /><path clip-path="url(#clip380)" d="M2184.69 389.609 L2201.01 389.609 L2201.01 393.545 L2179.06 393.545 L2179.06 389.609 Q2181.72 386.855 2186.31 382.225 Q2190.91 377.573 2192.1 376.23 Q2194.34 373.707 2195.22 371.971 Q2196.12 370.211 2196.12 368.522 Q2196.12 365.767 2194.18 364.031 Q2192.26 362.295 2189.16 362.295 Q2186.96 362.295 2184.5 363.059 Q2182.07 363.823 2179.29 365.374 L2179.29 360.651 Q2182.12 359.517 2184.57 358.938 Q2187.03 358.36 2189.06 358.36 Q2194.43 358.36 2197.63 361.045 Q2200.82 363.73 2200.82 368.221 Q2200.82 370.35 2200.01 372.272 Q2199.22 374.17 2197.12 376.762 Q2196.54 377.434 2193.44 380.651 Q2190.34 383.846 2184.69 389.609 Z" fill="#000000" fill-rule="evenodd" fill-opacity="1" /><path clip-path="url(#clip380)" d="M2220.82 362.063 Q2217.21 362.063 2215.38 365.628 Q2213.58 369.17 2213.58 376.299 Q2213.58 383.406 2215.38 386.971 Q2217.21 390.512 2220.82 390.512 Q2224.46 390.512 2226.26 386.971 Q2228.09 383.406 2228.09 376.299 Q2228.09 369.17 2226.26 365.628 Q2224.46 362.063 2220.82 362.063 M2220.82 358.36 Q2226.63 358.36 2229.69 362.966 Q2232.77 367.549 2232.77 376.299 Q2232.77 385.026 2229.69 389.633 Q2226.63 394.216 2220.82 394.216 Q2215.01 394.216 2211.93 389.633 Q2208.88 385.026 2208.88 376.299 Q2208.88 367.549 2211.93 362.966 Q2215.01 358.36 2220.82 358.36 Z" fill="#000000" fill-rule="evenodd" fill-opacity="1" /></svg>
