<?xml version="1.0" encoding="utf-8"?>
<svg xmlns="http://www.w3.org/2000/svg" xmlns:xlink="http://www.w3.org/1999/xlink" width="600" height="400" viewBox="0 0 2400 1600">
<defs>
  <clipPath id="clip700">
    <rect x="0" y="0" width="2400" height="1600"/>
  </clipPath>
</defs>
<path clip-path="url(#clip700)" d="
M0 1600 L2400 1600 L2400 0 L0 0  Z
  " fill="#ffffff" fill-rule="evenodd" fill-opacity="1"/>
<defs>
  <clipPath id="clip701">
    <rect x="480" y="0" width="1681" height="1600"/>
  </clipPath>
</defs>
<path clip-path="url(#clip700)" d="
M193.288 1486.45 L2352.76 1486.45 L2352.76 47.2441 L193.288 47.2441  Z
  " fill="#ffffff" fill-rule="evenodd" fill-opacity="1"/>
<defs>
  <clipPath id="clip702">
    <rect x="193" y="47" width="2160" height="1440"/>
  </clipPath>
</defs>
<polyline clip-path="url(#clip702)" style="stroke:#000000; stroke-linecap:butt; stroke-linejoin:round; stroke-width:2; stroke-opacity:0.1; fill:none" points="
  252.366,1486.45 252.366,47.2441 
  "/>
<polyline clip-path="url(#clip702)" style="stroke:#000000; stroke-linecap:butt; stroke-linejoin:round; stroke-width:2; stroke-opacity:0.1; fill:none" points="
  762.184,1486.45 762.184,47.2441 
  "/>
<polyline clip-path="url(#clip702)" style="stroke:#000000; stroke-linecap:butt; stroke-linejoin:round; stroke-width:2; stroke-opacity:0.1; fill:none" points="
  1272,1486.45 1272,47.2441 
  "/>
<polyline clip-path="url(#clip702)" style="stroke:#000000; stroke-linecap:butt; stroke-linejoin:round; stroke-width:2; stroke-opacity:0.1; fill:none" points="
  1781.82,1486.45 1781.82,47.2441 
  "/>
<polyline clip-path="url(#clip702)" style="stroke:#000000; stroke-linecap:butt; stroke-linejoin:round; stroke-width:2; stroke-opacity:0.1; fill:none" points="
  2291.64,1486.45 2291.64,47.2441 
  "/>
<polyline clip-path="url(#clip700)" style="stroke:#000000; stroke-linecap:butt; stroke-linejoin:round; stroke-width:4; stroke-opacity:1; fill:none" points="
  193.288,1486.45 2352.76,1486.45 
  "/>
<polyline clip-path="url(#clip700)" style="stroke:#000000; stroke-linecap:butt; stroke-linejoin:round; stroke-width:4; stroke-opacity:1; fill:none" points="
  252.366,1486.45 252.366,1467.55 
  "/>
<polyline clip-path="url(#clip700)" style="stroke:#000000; stroke-linecap:butt; stroke-linejoin:round; stroke-width:4; stroke-opacity:1; fill:none" points="
  762.184,1486.45 762.184,1467.55 
  "/>
<polyline clip-path="url(#clip700)" style="stroke:#000000; stroke-linecap:butt; stroke-linejoin:round; stroke-width:4; stroke-opacity:1; fill:none" points="
  1272,1486.45 1272,1467.55 
  "/>
<polyline clip-path="url(#clip700)" style="stroke:#000000; stroke-linecap:butt; stroke-linejoin:round; stroke-width:4; stroke-opacity:1; fill:none" points="
  1781.82,1486.45 1781.82,1467.55 
  "/>
<polyline clip-path="url(#clip700)" style="stroke:#000000; stroke-linecap:butt; stroke-linejoin:round; stroke-width:4; stroke-opacity:1; fill:none" points="
  2291.64,1486.45 2291.64,1467.55 
  "/>
<path clip-path="url(#clip700)" d="M252.366 1517.37 Q248.755 1517.37 246.926 1520.93 Q245.12 1524.47 245.12 1531.6 Q245.12 1538.71 246.926 1542.27 Q248.755 1545.82 252.366 1545.82 Q256 1545.82 257.805 1542.27 Q259.634 1538.71 259.634 1531.6 Q259.634 1524.47 257.805 1520.93 Q256 1517.37 252.366 1517.37 M252.366 1513.66 Q258.176 1513.66 261.231 1518.27 Q264.31 1522.85 264.31 1531.6 Q264.31 1540.33 261.231 1544.94 Q258.176 1549.52 252.366 1549.52 Q246.555 1549.52 243.477 1544.94 Q240.421 1540.33 240.421 1531.6 Q240.421 1522.85 243.477 1518.27 Q246.555 1513.66 252.366 1513.66 Z" fill="#000000" fill-rule="evenodd" fill-opacity="1" /><path clip-path="url(#clip700)" d="M725.876 1544.91 L742.196 1544.91 L742.196 1548.85 L720.251 1548.85 L720.251 1544.91 Q722.913 1542.16 727.497 1537.53 Q732.103 1532.88 733.284 1531.53 Q735.529 1529.01 736.409 1527.27 Q737.311 1525.51 737.311 1523.82 Q737.311 1521.07 735.367 1519.33 Q733.446 1517.6 730.344 1517.6 Q728.145 1517.6 725.691 1518.36 Q723.261 1519.13 720.483 1520.68 L720.483 1515.95 Q723.307 1514.82 725.761 1514.24 Q728.214 1513.66 730.251 1513.66 Q735.622 1513.66 738.816 1516.35 Q742.01 1519.03 742.01 1523.52 Q742.01 1525.65 741.2 1527.57 Q740.413 1529.47 738.307 1532.07 Q737.728 1532.74 734.626 1535.95 Q731.524 1539.15 725.876 1544.91 Z" fill="#000000" fill-rule="evenodd" fill-opacity="1" /><path clip-path="url(#clip700)" d="M752.057 1514.29 L770.413 1514.29 L770.413 1518.22 L756.339 1518.22 L756.339 1526.7 Q757.358 1526.35 758.376 1526.19 Q759.395 1526 760.413 1526 Q766.2 1526 769.58 1529.17 Q772.959 1532.34 772.959 1537.76 Q772.959 1543.34 769.487 1546.44 Q766.015 1549.52 759.696 1549.52 Q757.52 1549.52 755.251 1549.15 Q753.006 1548.78 750.598 1548.04 L750.598 1543.34 Q752.682 1544.47 754.904 1545.03 Q757.126 1545.58 759.603 1545.58 Q763.608 1545.58 765.945 1543.48 Q768.283 1541.37 768.283 1537.76 Q768.283 1534.15 765.945 1532.04 Q763.608 1529.94 759.603 1529.94 Q757.728 1529.94 755.853 1530.35 Q754.001 1530.77 752.057 1531.65 L752.057 1514.29 Z" fill="#000000" fill-rule="evenodd" fill-opacity="1" /><path clip-path="url(#clip700)" d="M792.172 1517.37 Q788.561 1517.37 786.732 1520.93 Q784.927 1524.47 784.927 1531.6 Q784.927 1538.71 786.732 1542.27 Q788.561 1545.82 792.172 1545.82 Q795.806 1545.82 797.612 1542.27 Q799.441 1538.71 799.441 1531.6 Q799.441 1524.47 797.612 1520.93 Q795.806 1517.37 792.172 1517.37 M792.172 1513.66 Q797.982 1513.66 801.038 1518.27 Q804.117 1522.85 804.117 1531.6 Q804.117 1540.33 801.038 1544.94 Q797.982 1549.52 792.172 1549.52 Q786.362 1549.52 783.283 1544.94 Q780.228 1540.33 780.228 1531.6 Q780.228 1522.85 783.283 1518.27 Q786.362 1513.66 792.172 1513.66 Z" fill="#000000" fill-rule="evenodd" fill-opacity="1" /><path clip-path="url(#clip700)" d="M1231.62 1514.29 L1249.98 1514.29 L1249.98 1518.22 L1235.9 1518.22 L1235.9 1526.7 Q1236.92 1526.35 1237.94 1526.19 Q1238.96 1526 1239.98 1526 Q1245.76 1526 1249.14 1529.17 Q1252.52 1532.34 1252.52 1537.76 Q1252.52 1543.34 1249.05 1546.44 Q1245.58 1549.52 1239.26 1549.52 Q1237.08 1549.52 1234.81 1549.15 Q1232.57 1548.78 1230.16 1548.04 L1230.16 1543.34 Q1232.25 1544.47 1234.47 1545.03 Q1236.69 1545.58 1239.17 1545.58 Q1243.17 1545.58 1245.51 1543.48 Q1247.85 1541.37 1247.85 1537.76 Q1247.85 1534.15 1245.51 1532.04 Q1243.17 1529.94 1239.17 1529.94 Q1237.29 1529.94 1235.42 1530.35 Q1233.56 1530.77 1231.62 1531.65 L1231.62 1514.29 Z" fill="#000000" fill-rule="evenodd" fill-opacity="1" /><path clip-path="url(#clip700)" d="M1271.74 1517.37 Q1268.12 1517.37 1266.3 1520.93 Q1264.49 1524.47 1264.49 1531.6 Q1264.49 1538.71 1266.3 1542.27 Q1268.12 1545.82 1271.74 1545.82 Q1275.37 1545.82 1277.18 1542.27 Q1279 1538.71 1279 1531.6 Q1279 1524.47 1277.18 1520.93 Q1275.37 1517.37 1271.74 1517.37 M1271.74 1513.66 Q1277.55 1513.66 1280.6 1518.27 Q1283.68 1522.85 1283.68 1531.6 Q1283.68 1540.33 1280.6 1544.94 Q1277.55 1549.52 1271.74 1549.52 Q1265.93 1549.52 1262.85 1544.94 Q1259.79 1540.33 1259.79 1531.6 Q1259.79 1522.85 1262.85 1518.27 Q1265.93 1513.66 1271.74 1513.66 Z" fill="#000000" fill-rule="evenodd" fill-opacity="1" /><path clip-path="url(#clip700)" d="M1301.9 1517.37 Q1298.29 1517.37 1296.46 1520.93 Q1294.65 1524.47 1294.65 1531.6 Q1294.65 1538.71 1296.46 1542.27 Q1298.29 1545.82 1301.9 1545.82 Q1305.53 1545.82 1307.34 1542.27 Q1309.17 1538.71 1309.17 1531.6 Q1309.17 1524.47 1307.34 1520.93 Q1305.53 1517.37 1301.9 1517.37 M1301.9 1513.66 Q1307.71 1513.66 1310.76 1518.27 Q1313.84 1522.85 1313.84 1531.6 Q1313.84 1540.33 1310.76 1544.94 Q1307.71 1549.52 1301.9 1549.52 Q1296.09 1549.52 1293.01 1544.94 Q1289.95 1540.33 1289.95 1531.6 Q1289.95 1522.85 1293.01 1518.27 Q1296.09 1513.66 1301.9 1513.66 Z" fill="#000000" fill-rule="evenodd" fill-opacity="1" /><path clip-path="url(#clip700)" d="M1740.1 1514.29 L1762.32 1514.29 L1762.32 1516.28 L1749.77 1548.85 L1744.89 1548.85 L1756.69 1518.22 L1740.1 1518.22 L1740.1 1514.29 Z" fill="#000000" fill-rule="evenodd" fill-opacity="1" /><path clip-path="url(#clip700)" d="M1771.48 1514.29 L1789.84 1514.29 L1789.84 1518.22 L1775.77 1518.22 L1775.77 1526.7 Q1776.79 1526.35 1777.8 1526.19 Q1778.82 1526 1779.84 1526 Q1785.63 1526 1789.01 1529.17 Q1792.39 1532.34 1792.39 1537.76 Q1792.39 1543.34 1788.92 1546.44 Q1785.44 1549.52 1779.12 1549.52 Q1776.95 1549.52 1774.68 1549.15 Q1772.43 1548.78 1770.03 1548.04 L1770.03 1543.34 Q1772.11 1544.47 1774.33 1545.03 Q1776.55 1545.58 1779.03 1545.58 Q1783.04 1545.58 1785.37 1543.48 Q1787.71 1541.37 1787.71 1537.76 Q1787.71 1534.15 1785.37 1532.04 Q1783.04 1529.94 1779.03 1529.94 Q1777.16 1529.94 1775.28 1530.35 Q1773.43 1530.77 1771.48 1531.65 L1771.48 1514.29 Z" fill="#000000" fill-rule="evenodd" fill-opacity="1" /><path clip-path="url(#clip700)" d="M1811.6 1517.37 Q1807.99 1517.37 1806.16 1520.93 Q1804.36 1524.47 1804.36 1531.6 Q1804.36 1538.71 1806.16 1542.27 Q1807.99 1545.82 1811.6 1545.82 Q1815.23 1545.82 1817.04 1542.27 Q1818.87 1538.71 1818.87 1531.6 Q1818.87 1524.47 1817.04 1520.93 Q1815.23 1517.37 1811.6 1517.37 M1811.6 1513.66 Q1817.41 1513.66 1820.47 1518.27 Q1823.54 1522.85 1823.54 1531.6 Q1823.54 1540.33 1820.47 1544.94 Q1817.41 1549.52 1811.6 1549.52 Q1805.79 1549.52 1802.71 1544.94 Q1799.66 1540.33 1799.66 1531.6 Q1799.66 1522.85 1802.71 1518.27 Q1805.79 1513.66 1811.6 1513.66 Z" fill="#000000" fill-rule="evenodd" fill-opacity="1" /><path clip-path="url(#clip700)" d="M2236.16 1544.91 L2243.8 1544.91 L2243.8 1518.55 L2235.49 1520.21 L2235.49 1515.95 L2243.76 1514.29 L2248.43 1514.29 L2248.43 1544.91 L2256.07 1544.91 L2256.07 1548.85 L2236.16 1548.85 L2236.16 1544.91 Z" fill="#000000" fill-rule="evenodd" fill-opacity="1" /><path clip-path="url(#clip700)" d="M2275.52 1517.37 Q2271.91 1517.37 2270.08 1520.93 Q2268.27 1524.47 2268.27 1531.6 Q2268.27 1538.71 2270.08 1542.27 Q2271.91 1545.82 2275.52 1545.82 Q2279.15 1545.82 2280.96 1542.27 Q2282.78 1538.71 2282.78 1531.6 Q2282.78 1524.47 2280.96 1520.93 Q2279.15 1517.37 2275.52 1517.37 M2275.52 1513.66 Q2281.33 1513.66 2284.38 1518.27 Q2287.46 1522.85 2287.46 1531.6 Q2287.46 1540.33 2284.38 1544.94 Q2281.33 1549.52 2275.52 1549.52 Q2269.71 1549.52 2266.63 1544.94 Q2263.57 1540.33 2263.57 1531.6 Q2263.57 1522.85 2266.63 1518.27 Q2269.71 1513.66 2275.52 1513.66 Z" fill="#000000" fill-rule="evenodd" fill-opacity="1" /><path clip-path="url(#clip700)" d="M2305.68 1517.37 Q2302.07 1517.37 2300.24 1520.93 Q2298.43 1524.47 2298.43 1531.6 Q2298.43 1538.71 2300.24 1542.27 Q2302.07 1545.82 2305.68 1545.82 Q2309.31 1545.82 2311.12 1542.27 Q2312.95 1538.71 2312.95 1531.6 Q2312.95 1524.47 2311.12 1520.93 Q2309.31 1517.37 2305.68 1517.37 M2305.68 1513.66 Q2311.49 1513.66 2314.54 1518.27 Q2317.62 1522.85 2317.62 1531.6 Q2317.62 1540.33 2314.54 1544.94 Q2311.49 1549.52 2305.68 1549.52 Q2299.87 1549.52 2296.79 1544.94 Q2293.73 1540.33 2293.73 1531.6 Q2293.73 1522.85 2296.79 1518.27 Q2299.87 1513.66 2305.68 1513.66 Z" fill="#000000" fill-rule="evenodd" fill-opacity="1" /><path clip-path="url(#clip700)" d="M2335.84 1517.37 Q2332.23 1517.37 2330.4 1520.93 Q2328.59 1524.47 2328.59 1531.6 Q2328.59 1538.71 2330.4 1542.27 Q2332.23 1545.82 2335.84 1545.82 Q2339.47 1545.82 2341.28 1542.27 Q2343.11 1538.71 2343.11 1531.6 Q2343.11 1524.47 2341.28 1520.93 Q2339.47 1517.37 2335.84 1517.37 M2335.84 1513.66 Q2341.65 1513.66 2344.71 1518.27 Q2347.78 1522.85 2347.78 1531.6 Q2347.78 1540.33 2344.71 1544.94 Q2341.65 1549.52 2335.84 1549.52 Q2330.03 1549.52 2326.95 1544.94 Q2323.9 1540.33 2323.9 1531.6 Q2323.9 1522.85 2326.95 1518.27 Q2330.03 1513.66 2335.84 1513.66 Z" fill="#000000" fill-rule="evenodd" fill-opacity="1" /><polyline clip-path="url(#clip702)" style="stroke:#000000; stroke-linecap:butt; stroke-linejoin:round; stroke-width:2; stroke-opacity:0.1; fill:none" points="
  193.288,1265.42 2352.76,1265.42 
  "/>
<polyline clip-path="url(#clip702)" style="stroke:#000000; stroke-linecap:butt; stroke-linejoin:round; stroke-width:2; stroke-opacity:0.1; fill:none" points="
  193.288,993.7 2352.76,993.7 
  "/>
<polyline clip-path="url(#clip702)" style="stroke:#000000; stroke-linecap:butt; stroke-linejoin:round; stroke-width:2; stroke-opacity:0.1; fill:none" points="
  193.288,721.983 2352.76,721.983 
  "/>
<polyline clip-path="url(#clip702)" style="stroke:#000000; stroke-linecap:butt; stroke-linejoin:round; stroke-width:2; stroke-opacity:0.1; fill:none" points="
  193.288,450.266 2352.76,450.266 
  "/>
<polyline clip-path="url(#clip702)" style="stroke:#000000; stroke-linecap:butt; stroke-linejoin:round; stroke-width:2; stroke-opacity:0.1; fill:none" points="
  193.288,178.549 2352.76,178.549 
  "/>
<polyline clip-path="url(#clip700)" style="stroke:#000000; stroke-linecap:butt; stroke-linejoin:round; stroke-width:4; stroke-opacity:1; fill:none" points="
  193.288,1486.45 193.288,47.2441 
  "/>
<polyline clip-path="url(#clip700)" style="stroke:#000000; stroke-linecap:butt; stroke-linejoin:round; stroke-width:4; stroke-opacity:1; fill:none" points="
  193.288,1265.42 212.185,1265.42 
  "/>
<polyline clip-path="url(#clip700)" style="stroke:#000000; stroke-linecap:butt; stroke-linejoin:round; stroke-width:4; stroke-opacity:1; fill:none" points="
  193.288,993.7 212.185,993.7 
  "/>
<polyline clip-path="url(#clip700)" style="stroke:#000000; stroke-linecap:butt; stroke-linejoin:round; stroke-width:4; stroke-opacity:1; fill:none" points="
  193.288,721.983 212.185,721.983 
  "/>
<polyline clip-path="url(#clip700)" style="stroke:#000000; stroke-linecap:butt; stroke-linejoin:round; stroke-width:4; stroke-opacity:1; fill:none" points="
  193.288,450.266 212.185,450.266 
  "/>
<polyline clip-path="url(#clip700)" style="stroke:#000000; stroke-linecap:butt; stroke-linejoin:round; stroke-width:4; stroke-opacity:1; fill:none" points="
  193.288,178.549 212.185,178.549 
  "/>
<path clip-path="url(#clip700)" d="M50.9921 1265.87 L80.6679 1265.87 L80.6679 1269.8 L50.9921 1269.8 L50.9921 1265.87 Z" fill="#000000" fill-rule="evenodd" fill-opacity="1" /><path clip-path="url(#clip700)" d="M100.76 1251.22 Q97.1493 1251.22 95.3206 1254.78 Q93.515 1258.32 93.515 1265.45 Q93.515 1272.56 95.3206 1276.12 Q97.1493 1279.66 100.76 1279.66 Q104.395 1279.66 106.2 1276.12 Q108.029 1272.56 108.029 1265.45 Q108.029 1258.32 106.2 1254.78 Q104.395 1251.22 100.76 1251.22 M100.76 1247.51 Q106.571 1247.51 109.626 1252.12 Q112.705 1256.7 112.705 1265.45 Q112.705 1274.18 109.626 1278.79 Q106.571 1283.37 100.76 1283.37 Q94.9502 1283.37 91.8715 1278.79 Q88.816 1274.18 88.816 1265.45 Q88.816 1256.7 91.8715 1252.12 Q94.9502 1247.51 100.76 1247.51 Z" fill="#000000" fill-rule="evenodd" fill-opacity="1" /><path clip-path="url(#clip700)" d="M120.922 1276.82 L125.807 1276.82 L125.807 1282.7 L120.922 1282.7 L120.922 1276.82 Z" fill="#000000" fill-rule="evenodd" fill-opacity="1" /><path clip-path="url(#clip700)" d="M150.158 1264.06 Q153.515 1264.78 155.39 1267.05 Q157.288 1269.32 157.288 1272.65 Q157.288 1277.77 153.769 1280.57 Q150.251 1283.37 143.769 1283.37 Q141.593 1283.37 139.279 1282.93 Q136.987 1282.51 134.533 1281.66 L134.533 1277.14 Q136.478 1278.28 138.793 1278.85 Q141.107 1279.43 143.631 1279.43 Q148.029 1279.43 150.32 1277.7 Q152.635 1275.96 152.635 1272.65 Q152.635 1269.6 150.482 1267.88 Q148.353 1266.15 144.533 1266.15 L140.506 1266.15 L140.506 1262.3 L144.718 1262.3 Q148.168 1262.3 149.996 1260.94 Q151.825 1259.55 151.825 1256.96 Q151.825 1254.29 149.927 1252.88 Q148.052 1251.45 144.533 1251.45 Q142.612 1251.45 140.413 1251.86 Q138.214 1252.28 135.575 1253.16 L135.575 1248.99 Q138.237 1248.25 140.552 1247.88 Q142.89 1247.51 144.95 1247.51 Q150.274 1247.51 153.376 1249.94 Q156.478 1252.35 156.478 1256.47 Q156.478 1259.34 154.834 1261.33 Q153.191 1263.3 150.158 1264.06 Z" fill="#000000" fill-rule="evenodd" fill-opacity="1" /><path clip-path="url(#clip700)" d="M100.112 979.499 Q96.5011 979.499 94.6724 983.064 Q92.8669 986.605 92.8669 993.735 Q92.8669 1000.84 94.6724 1004.41 Q96.5011 1007.95 100.112 1007.95 Q103.746 1007.95 105.552 1004.41 Q107.381 1000.84 107.381 993.735 Q107.381 986.605 105.552 983.064 Q103.746 979.499 100.112 979.499 M100.112 975.795 Q105.922 975.795 108.978 980.402 Q112.057 984.985 112.057 993.735 Q112.057 1002.46 108.978 1007.07 Q105.922 1011.65 100.112 1011.65 Q94.3021 1011.65 91.2234 1007.07 Q88.1679 1002.46 88.1679 993.735 Q88.1679 984.985 91.2234 980.402 Q94.3021 975.795 100.112 975.795 Z" fill="#000000" fill-rule="evenodd" fill-opacity="1" /><path clip-path="url(#clip700)" d="M120.274 1005.1 L125.158 1005.1 L125.158 1010.98 L120.274 1010.98 L120.274 1005.1 Z" fill="#000000" fill-rule="evenodd" fill-opacity="1" /><path clip-path="url(#clip700)" d="M145.343 979.499 Q141.732 979.499 139.904 983.064 Q138.098 986.605 138.098 993.735 Q138.098 1000.84 139.904 1004.41 Q141.732 1007.95 145.343 1007.95 Q148.978 1007.95 150.783 1004.41 Q152.612 1000.84 152.612 993.735 Q152.612 986.605 150.783 983.064 Q148.978 979.499 145.343 979.499 M145.343 975.795 Q151.154 975.795 154.209 980.402 Q157.288 984.985 157.288 993.735 Q157.288 1002.46 154.209 1007.07 Q151.154 1011.65 145.343 1011.65 Q139.533 1011.65 136.455 1007.07 Q133.399 1002.46 133.399 993.735 Q133.399 984.985 136.455 980.402 Q139.533 975.795 145.343 975.795 Z" fill="#000000" fill-rule="evenodd" fill-opacity="1" /><path clip-path="url(#clip700)" d="M100.76 707.782 Q97.1493 707.782 95.3206 711.346 Q93.515 714.888 93.515 722.018 Q93.515 729.124 95.3206 732.689 Q97.1493 736.231 100.76 736.231 Q104.395 736.231 106.2 732.689 Q108.029 729.124 108.029 722.018 Q108.029 714.888 106.2 711.346 Q104.395 707.782 100.76 707.782 M100.76 704.078 Q106.571 704.078 109.626 708.684 Q112.705 713.268 112.705 722.018 Q112.705 730.745 109.626 735.351 Q106.571 739.934 100.76 739.934 Q94.9502 739.934 91.8715 735.351 Q88.816 730.745 88.816 722.018 Q88.816 713.268 91.8715 708.684 Q94.9502 704.078 100.76 704.078 Z" fill="#000000" fill-rule="evenodd" fill-opacity="1" /><path clip-path="url(#clip700)" d="M120.922 733.383 L125.807 733.383 L125.807 739.263 L120.922 739.263 L120.922 733.383 Z" fill="#000000" fill-rule="evenodd" fill-opacity="1" /><path clip-path="url(#clip700)" d="M150.158 720.629 Q153.515 721.346 155.39 723.615 Q157.288 725.883 157.288 729.217 Q157.288 734.332 153.769 737.133 Q150.251 739.934 143.769 739.934 Q141.593 739.934 139.279 739.494 Q136.987 739.078 134.533 738.221 L134.533 733.707 Q136.478 734.842 138.793 735.42 Q141.107 735.999 143.631 735.999 Q148.029 735.999 150.32 734.263 Q152.635 732.527 152.635 729.217 Q152.635 726.161 150.482 724.448 Q148.353 722.712 144.533 722.712 L140.506 722.712 L140.506 718.87 L144.718 718.87 Q148.168 718.87 149.996 717.504 Q151.825 716.115 151.825 713.522 Q151.825 710.86 149.927 709.448 Q148.052 708.013 144.533 708.013 Q142.612 708.013 140.413 708.43 Q138.214 708.846 135.575 709.726 L135.575 705.559 Q138.237 704.819 140.552 704.448 Q142.89 704.078 144.95 704.078 Q150.274 704.078 153.376 706.509 Q156.478 708.916 156.478 713.036 Q156.478 715.907 154.834 717.897 Q153.191 719.865 150.158 720.629 Z" fill="#000000" fill-rule="evenodd" fill-opacity="1" /><path clip-path="url(#clip700)" d="M99.9502 436.065 Q96.3391 436.065 94.5104 439.629 Q92.7049 443.171 92.7049 450.301 Q92.7049 457.407 94.5104 460.972 Q96.3391 464.513 99.9502 464.513 Q103.584 464.513 105.39 460.972 Q107.219 457.407 107.219 450.301 Q107.219 443.171 105.39 439.629 Q103.584 436.065 99.9502 436.065 M99.9502 432.361 Q105.76 432.361 108.816 436.967 Q111.895 441.551 111.895 450.301 Q111.895 459.027 108.816 463.634 Q105.76 468.217 99.9502 468.217 Q94.14 468.217 91.0614 463.634 Q88.0058 459.027 88.0058 450.301 Q88.0058 441.551 91.0614 436.967 Q94.14 432.361 99.9502 432.361 Z" fill="#000000" fill-rule="evenodd" fill-opacity="1" /><path clip-path="url(#clip700)" d="M120.112 461.666 L124.996 461.666 L124.996 467.546 L120.112 467.546 L120.112 461.666 Z" fill="#000000" fill-rule="evenodd" fill-opacity="1" /><path clip-path="url(#clip700)" d="M145.76 448.402 Q142.612 448.402 140.76 450.555 Q138.931 452.708 138.931 456.458 Q138.931 460.185 140.76 462.361 Q142.612 464.513 145.76 464.513 Q148.908 464.513 150.737 462.361 Q152.589 460.185 152.589 456.458 Q152.589 452.708 150.737 450.555 Q148.908 448.402 145.76 448.402 M155.042 433.75 L155.042 438.009 Q153.283 437.176 151.478 436.736 Q149.695 436.296 147.936 436.296 Q143.306 436.296 140.853 439.421 Q138.422 442.546 138.075 448.865 Q139.441 446.851 141.501 445.787 Q143.561 444.699 146.038 444.699 Q151.246 444.699 154.255 447.87 Q157.288 451.018 157.288 456.458 Q157.288 461.782 154.14 465 Q150.992 468.217 145.76 468.217 Q139.765 468.217 136.594 463.634 Q133.422 459.027 133.422 450.301 Q133.422 442.106 137.311 437.245 Q141.2 432.361 147.751 432.361 Q149.51 432.361 151.293 432.708 Q153.098 433.055 155.042 433.75 Z" fill="#000000" fill-rule="evenodd" fill-opacity="1" /><path clip-path="url(#clip700)" d="M100.297 164.347 Q96.6863 164.347 94.8576 167.912 Q93.0521 171.454 93.0521 178.583 Q93.0521 185.69 94.8576 189.255 Q96.6863 192.796 100.297 192.796 Q103.932 192.796 105.737 189.255 Q107.566 185.69 107.566 178.583 Q107.566 171.454 105.737 167.912 Q103.932 164.347 100.297 164.347 M100.297 160.644 Q106.108 160.644 109.163 165.25 Q112.242 169.833 112.242 178.583 Q112.242 187.31 109.163 191.917 Q106.108 196.5 100.297 196.5 Q94.4873 196.5 91.4086 191.917 Q88.353 187.31 88.353 178.583 Q88.353 169.833 91.4086 165.25 Q94.4873 160.644 100.297 160.644 Z" fill="#000000" fill-rule="evenodd" fill-opacity="1" /><path clip-path="url(#clip700)" d="M120.459 189.949 L125.344 189.949 L125.344 195.829 L120.459 195.829 L120.459 189.949 Z" fill="#000000" fill-rule="evenodd" fill-opacity="1" /><path clip-path="url(#clip700)" d="M135.668 195.111 L135.668 190.852 Q137.427 191.685 139.232 192.125 Q141.038 192.565 142.774 192.565 Q147.404 192.565 149.834 189.463 Q152.288 186.338 152.635 179.995 Q151.293 181.986 149.232 183.051 Q147.172 184.116 144.672 184.116 Q139.487 184.116 136.455 180.991 Q133.445 177.843 133.445 172.403 Q133.445 167.079 136.594 163.861 Q139.742 160.644 144.973 160.644 Q150.968 160.644 154.117 165.25 Q157.288 169.833 157.288 178.583 Q157.288 186.755 153.399 191.639 Q149.533 196.5 142.982 196.5 Q141.223 196.5 139.418 196.153 Q137.612 195.806 135.668 195.111 M144.973 180.458 Q148.121 180.458 149.95 178.306 Q151.802 176.153 151.802 172.403 Q151.802 168.676 149.95 166.523 Q148.121 164.347 144.973 164.347 Q141.825 164.347 139.973 166.523 Q138.144 168.676 138.144 172.403 Q138.144 176.153 139.973 178.306 Q141.825 180.458 144.973 180.458 Z" fill="#000000" fill-rule="evenodd" fill-opacity="1" /><polyline clip-path="url(#clip702)" style="stroke:#009af9; stroke-linecap:butt; stroke-linejoin:round; stroke-width:4; stroke-opacity:0.4; fill:none" points="
  254.405,976.343 256.444,652.98 258.483,1253.49 260.523,1298.46 262.562,1225.71 264.601,615.61 266.641,1016.77 268.68,640.538 270.719,893.648 272.758,947.836 
  274.798,1349.35 276.837,1233.98 278.876,1007.52 280.915,1183.92 282.955,891.182 284.994,953.469 287.033,1034.32 289.073,788.041 291.112,1030.4 293.151,1032.17 
  295.19,891.826 297.23,1359.48 299.269,1101.1 301.308,594.857 303.347,837.728 305.387,552.758 307.426,1281.06 309.465,684.944 311.505,1007.39 313.544,1372.28 
  315.583,1353.95 317.622,993.107 319.662,548.962 321.701,1223.83 323.74,710.439 325.779,1185.56 327.819,1261.3 329.858,655.405 331.897,927.264 333.937,1095.68 
  335.976,991.802 338.015,1371.91 340.054,679.123 342.094,654.336 344.133,1279.41 346.172,654.149 348.211,1161.3 350.251,1290.85 352.29,1437.88 354.329,1042.17 
  356.369,768.142 358.408,1331.23 360.447,719.43 362.486,720.733 364.526,1321.49 366.565,1289.34 368.604,836.073 370.643,1261.61 372.683,1310.94 374.722,1326.62 
  376.761,741.889 378.801,550.161 380.84,1145.73 382.879,741.704 384.918,926.697 386.958,1104.65 388.997,861.492 391.036,1245.68 393.075,1191.61 395.115,674.318 
  397.154,1381.35 399.193,881.991 401.233,1178.58 403.272,876.581 405.311,1115.25 407.35,1290.47 409.39,1045.46 411.429,779.4 413.468,1139.21 415.507,642.515 
  417.547,1320.12 419.586,585.827 421.625,1415.33 423.665,710.667 425.704,1350.39 427.743,712.903 429.782,1141.73 431.822,1041.17 433.861,1400.68 435.9,1179.11 
  437.939,1264.76 439.979,895.032 442.018,887.115 444.057,926.29 446.097,1340.92 448.136,1089.56 450.175,755.541 452.214,813.32 454.254,971.585 456.293,1298.11 
  458.332,1162.35 460.371,929.567 462.411,1127.02 464.45,1003.38 466.489,708.79 468.529,1111.43 470.568,1062.87 472.607,815.694 474.646,786.175 476.686,757.024 
  478.725,1402.15 480.764,774.253 482.803,990.585 484.843,551.404 486.882,1060.8 488.921,815.978 490.961,1142.08 493,809.618 495.039,1338.35 497.078,1227.58 
  499.118,879.409 501.157,949.208 503.196,1052.95 505.235,708.282 507.275,904.28 509.314,821.454 511.353,1275.58 513.393,1388.81 515.432,579.403 517.471,1416.66 
  519.51,764.339 521.55,1276.83 523.589,887.063 525.628,1035.4 527.667,1362.23 529.707,970.267 531.746,778.725 533.785,1293.53 535.825,1104.18 537.864,609.936 
  539.903,1430.88 541.942,1020.24 543.982,887.482 546.021,1310.66 548.06,869.977 550.099,560.541 552.139,1230.83 554.178,1155.13 556.217,1124.02 558.257,742.682 
  560.296,778.996 562.335,1301.66 564.374,638.699 566.414,760.045 568.453,764.994 570.492,1328.37 572.532,1385.5 574.571,1092.83 576.61,1304.46 578.649,1344.59 
  580.689,987.937 582.728,1398.75 584.767,716.799 586.806,1061.26 588.846,1422.4 590.885,1382.38 592.924,1339.36 594.964,738.988 597.003,598.665 599.042,815.191 
  601.081,566.508 603.121,563.923 605.16,933.764 607.199,1225.84 609.238,1290.92 611.278,969.249 613.317,1173 615.356,961.64 617.396,599.242 619.435,603.731 
  621.474,1017.07 623.513,1184.27 625.553,1190.62 627.592,729.036 629.631,912.092 631.67,918.304 633.71,578.975 635.749,631.126 637.788,1172.76 639.828,799.392 
  641.867,735.033 643.906,556.84 645.945,1244.07 647.985,940.032 650.024,903.373 652.063,913.892 654.102,672.449 656.142,656.202 658.181,1312.35 660.22,1130.91 
  662.26,636.978 664.299,1345.32 666.338,1082.18 668.377,656.152 670.417,800.659 672.456,765.995 674.495,1150.47 676.534,1071.32 678.574,1182.88 680.613,1179.54 
  682.652,1145.86 684.692,602.534 686.731,808.265 688.77,766.008 690.809,740.338 692.849,753.719 694.888,1225.52 696.927,684.964 698.966,996.692 701.006,976.79 
  703.045,548.825 705.084,863.536 707.124,1056.43 709.163,639.085 711.202,755.452 713.241,869.357 715.281,949.175 717.32,1097.65 719.359,835.471 721.398,812.624 
  723.438,1403.27 725.477,1029.7 727.516,1388.21 729.556,634.001 731.595,784.957 733.634,1076.03 735.673,566.803 737.713,763.976 739.752,1204.97 741.791,826.513 
  743.83,1311.97 745.87,969.136 747.909,1361.76 749.948,1368.39 751.988,1033.82 754.027,790.197 756.066,1372.29 758.105,1380.5 760.145,1262.15 762.184,1302.25 
  764.223,1341.66 766.262,547.508 768.302,1272.69 770.341,1086.86 772.38,1160.25 774.42,719.549 776.459,559.096 778.498,561.343 780.537,1362.26 782.577,755.954 
  784.616,1159.4 786.655,609.302 788.694,763.457 790.734,1290.78 792.773,629.036 794.812,984.983 796.852,1013.14 798.891,649.815 800.93,792.345 802.969,1387.91 
  805.009,677.275 807.048,1199.02 809.087,1349.23 811.126,1418.28 813.166,1061.79 815.205,1334.23 817.244,633.759 819.284,1043.03 821.323,775.879 823.362,1136.06 
  825.401,1207.29 827.441,1030.21 829.48,790.355 831.519,616.326 833.558,1106.86 835.598,1177.18 837.637,928.324 839.676,1223.1 841.716,1291.75 843.755,1328.84 
  845.794,1150.85 847.833,693.351 849.873,1116.42 851.912,797.135 853.951,642.862 855.99,1354.43 858.03,759.008 860.069,890.924 862.108,1375.86 864.148,776.827 
  866.187,647.111 868.226,1330.09 870.265,570.462 872.305,687.204 874.344,740.366 876.383,916.539 878.422,782.887 880.462,554.319 882.501,1373.8 884.54,716.989 
  886.58,1077.78 888.619,1326.25 890.658,781.904 892.697,1022.64 894.737,1079.18 896.776,878.395 898.815,574.317 900.855,1352.3 902.894,1203.87 904.933,1441.64 
  906.972,594.84 909.012,1395.21 911.051,1429.58 913.09,731.836 915.129,844.452 917.169,673.33 919.208,1286.41 921.247,599.52 923.287,1355.21 925.326,911.083 
  927.365,1373.01 929.404,583.905 931.444,593.416 933.483,869.593 935.522,1123.66 937.561,945.753 939.601,810.937 941.64,1393 943.679,604.276 945.719,982.127 
  947.758,844.733 949.797,820.971 951.836,1322.63 953.876,896.919 955.915,1073.23 957.954,1297.79 959.993,1343.47 962.033,814.838 964.072,1118.9 966.111,1127.14 
  968.151,640.031 970.19,591.121 972.229,739.2 974.268,1410.46 976.308,1082.78 978.347,890.723 980.386,685.861 982.425,906.771 984.465,693.445 986.504,1325.58 
  988.543,834.009 990.583,842.31 992.622,1182.01 994.661,1279.15 996.7,819.777 998.74,1049.88 1000.78,1250.25 1002.82,845.622 1004.86,951.465 1006.9,1366.82 
  1008.94,698.807 1010.98,957.502 1013.01,969.728 1015.05,1106.19 1017.09,616.848 1019.13,922.535 1021.17,749.945 1023.21,981.282 1025.25,728.56 1027.29,1181.74 
  1029.33,878.254 1031.37,1310.76 1033.41,556.002 1035.45,905.716 1037.49,1284.7 1039.53,1180.33 1041.56,736.986 1043.6,736.623 1045.64,686.893 1047.68,1423.67 
  1049.72,1139.27 1051.76,972.747 1053.8,942.197 1055.84,841.522 1057.88,543.038 1059.92,1275.35 1061.96,1159.61 1064,1259.69 1066.04,1294.38 1068.07,874.108 
  1070.11,1105.94 1072.15,678.813 1074.19,765.629 1076.23,1297.67 1078.27,687.831 1080.31,1280.79 1082.35,615.684 1084.39,546.407 1086.43,565.202 1088.47,1106.49 
  1090.51,651.849 1092.55,1029.43 1094.59,1342.96 1096.62,1330.44 1098.66,1011.93 1100.7,588.804 1102.74,863.494 1104.78,1383.4 1106.82,923.013 1108.86,1112.65 
  1110.9,1391.34 1112.94,972.366 1114.98,575.709 1117.02,894.528 1119.06,710.297 1121.1,968.637 1123.14,1068.43 1125.17,892.638 1127.21,1095.32 1129.25,667.105 
  1131.29,1063.76 1133.33,1279.65 1135.37,1218.93 1137.41,1209.86 1139.45,736.425 1141.49,1039.37 1143.53,1439.09 1145.57,714.409 1147.61,1166.63 1149.65,1247.11 
  1151.69,1297.11 1153.72,1209.22 1155.76,1245.57 1157.8,879.383 1159.84,993.453 1161.88,684.456 1163.92,1312.97 1165.96,772.456 1168,667.983 1170.04,988.981 
  1172.08,1406.36 1174.12,543.408 1176.16,1028.29 1178.2,991.493 1180.23,910.846 1182.27,785.518 1184.31,1048.51 1186.35,1063.63 1188.39,1095.84 1190.43,797.464 
  1192.47,1403.49 1194.51,1164.28 1196.55,687.151 1198.59,1324.44 1200.63,1373.8 1202.67,1085.86 1204.71,1253.46 1206.75,809.617 1208.78,795.593 1210.82,1348.98 
  1212.86,1302.64 1214.9,939.224 1216.94,1297.81 1218.98,1104.71 1221.02,711.12 1223.06,1018.82 1225.1,1374.07 1227.14,1034.49 1229.18,1193.34 1231.22,1247.29 
  1233.26,1325.59 1235.3,569.046 1237.33,1206.97 1239.37,651.511 1241.41,740.509 1243.45,675.884 1245.49,873.48 1247.53,609.909 1249.57,594.871 1251.61,876.512 
  1253.65,910.439 1255.69,838.384 1257.73,1130.3 1259.77,871.547 1261.81,1324.39 1263.85,1082.94 1265.88,1190.61 1267.92,1363.54 1269.96,663.61 1272,564.626 
  1274.04,1406.41 1276.08,1106.54 1278.12,1416.71 1280.16,913.356 1282.2,849.449 1284.24,1411.92 1286.28,1142.78 1288.32,1123.72 1290.36,1097.38 1292.39,558.811 
  1294.43,543.815 1296.47,1339.95 1298.51,988.582 1300.55,850.673 1302.59,1026.27 1304.63,1058.93 1306.67,1261.15 1308.71,941.754 1310.75,664.657 1312.79,1379.72 
  1314.83,1441.43 1316.87,1414.61 1318.91,542.813 1320.94,1297.8 1322.98,779.972 1325.02,563.468 1327.06,1229.94 1329.1,757.179 1331.14,820.325 1333.18,657.676 
  1335.22,935.646 1337.26,782.59 1339.3,1173.21 1341.34,1332.58 1343.38,949.311 1345.42,1221.23 1347.46,1366.48 1349.49,1376.06 1351.53,1372.6 1353.57,789.41 
  1355.61,571.739 1357.65,562.001 1359.69,1209.81 1361.73,1127.8 1363.77,1043.62 1365.81,1174.27 1367.85,909.168 1369.89,781.394 1371.93,610.589 1373.97,1248.71 
  1376.01,1038.93 1378.04,612.732 1380.08,736.172 1382.12,813.536 1384.16,1319.02 1386.2,864.436 1388.24,868.493 1390.28,652.247 1392.32,746.084 1394.36,1283.71 
  1396.4,903.919 1398.44,756.672 1400.48,741.646 1402.52,1054.5 1404.56,1073.97 1406.59,888.865 1408.63,1396.72 1410.67,1391.27 1412.71,1103.71 1414.75,554.012 
  1416.79,732.018 1418.83,978.092 1420.87,1241.43 1422.91,836.882 1424.95,1055.58 1426.99,1213.12 1429.03,747.562 1431.07,1217.93 1433.1,754.988 1435.14,1029.4 
  1437.18,1265.66 1439.22,1085.19 1441.26,788.725 1443.3,1251.64 1445.34,652.63 1447.38,887.643 1449.42,1385.78 1451.46,662.467 1453.5,582.295 1455.54,623.756 
  1457.58,1262.24 1459.62,897.806 1461.65,962.671 1463.69,767.728 1465.73,556.623 1467.77,1176.79 1469.81,1392.95 1471.85,1097.58 1473.89,1293.75 1475.93,883.502 
  1477.97,1092.72 1480.01,742.432 1482.05,603.771 1484.09,911.839 1486.13,852.322 1488.17,996.932 1490.2,972.459 1492.24,722.343 1494.28,544.512 1496.32,913.195 
  1498.36,680.915 1500.4,1158.2 1502.44,768.432 1504.48,657.265 1506.52,1067.96 1508.56,1366.96 1510.6,1112.72 1512.64,616.323 1514.68,1129.03 1516.72,1438.3 
  1518.75,1399.87 1520.79,1050.86 1522.83,1314.98 1524.87,596.647 1526.91,1365.37 1528.95,1111.05 1530.99,834.742 1533.03,684.067 1535.07,1296.76 1537.11,590.197 
  1539.15,1288.74 1541.19,901.32 1543.23,1315.4 1545.26,754.973 1547.3,589.359 1549.34,854.986 1551.38,694.883 1553.42,1141.42 1555.46,1371.38 1557.5,1156.43 
  1559.54,1342.02 1561.58,1153.17 1563.62,1223.97 1565.66,565.791 1567.7,733.8 1569.74,1189.75 1571.78,1187.61 1573.81,820.557 1575.85,684.189 1577.89,1406.1 
  1579.93,1134.84 1581.97,1410.77 1584.01,938.764 1586.05,1191.95 1588.09,600.015 1590.13,1420.4 1592.17,1306.32 1594.21,1162.45 1596.25,578.095 1598.29,1258.48 
  1600.33,578.958 1602.36,1276.53 1604.4,633.29 1606.44,738.473 1608.48,1392.58 1610.52,831.877 1612.56,702.138 1614.6,1241.49 1616.64,1130.93 1618.68,637.034 
  1620.72,644.468 1622.76,1070.56 1624.8,1442.14 1626.84,982.679 1628.88,584.312 1630.91,1117.63 1632.95,720.093 1634.99,1230.44 1637.03,950.404 1639.07,1403.26 
  1641.11,577.243 1643.15,754.4 1645.19,1189.91 1647.23,995.342 1649.27,663.546 1651.31,1201.89 1653.35,1130.03 1655.39,1365.51 1657.42,845.877 1659.46,1110.83 
  1661.5,569.916 1663.54,1223.79 1665.58,760.019 1667.62,1223.51 1669.66,988.443 1671.7,1433.76 1673.74,1440.64 1675.78,1220.21 1677.82,635.348 1679.86,1040.51 
  1681.9,980.532 1683.94,960.404 1685.97,564.574 1688.01,698.054 1690.05,1303.3 1692.09,1275.08 1694.13,1356.09 1696.17,988.432 1698.21,1022.98 1700.25,1391.72 
  1702.29,1218.55 1704.33,1195.02 1706.37,597.286 1708.41,1001.28 1710.45,1090.25 1712.49,853.315 1714.52,784.436 1716.56,885.531 1718.6,1002.98 1720.64,926.954 
  1722.68,1080.26 1724.72,1445.72 1726.76,1128.76 1728.8,638.218 1730.84,987.504 1732.88,938.077 1734.92,602.811 1736.96,908.33 1739,769.709 1741.04,1063.25 
  1743.07,1168.63 1745.11,1409.93 1747.15,938.445 1749.19,759.61 1751.23,1188.26 1753.27,862.414 1755.31,662.596 1757.35,1389.88 1759.39,865.583 1761.43,844.664 
  1763.47,871.576 1765.51,1306.2 1767.55,604.489 1769.58,701.297 1771.62,830.129 1773.66,774.708 1775.7,839.609 1777.74,969.178 1779.78,752.906 1781.82,844.072 
  1783.86,1332.45 1785.9,960.934 1787.94,999.974 1789.98,927.149 1792.02,901.048 1794.06,945.27 1796.1,600.969 1798.13,600.573 1800.17,553.658 1802.21,1309.47 
  1804.25,550.479 1806.29,1180.51 1808.33,745.348 1810.37,1083.91 1812.41,905.221 1814.45,1186.25 1816.49,951.942 1818.53,842.102 1820.57,636.354 1822.61,1400.24 
  1824.65,587.699 1826.68,1416.89 1828.72,628.681 1830.76,1000.94 1832.8,966.546 1834.84,933.155 1836.88,881.196 1838.92,1249.26 1840.96,738.325 1843,794.274 
  1845.04,1363.2 1847.08,949.026 1849.12,983.956 1851.16,588.877 1853.2,776.829 1855.23,865.38 1857.27,1294.52 1859.31,776.591 1861.35,781.435 1863.39,955.382 
  1865.43,819.695 1867.47,1373.27 1869.51,1084.69 1871.55,554.371 1873.59,737.115 1875.63,1114.46 1877.67,1146.98 1879.71,552.546 1881.74,1006.07 1883.78,606.73 
  1885.82,650.979 1887.86,859.518 1889.9,890.082 1891.94,698.2 1893.98,1156.69 1896.02,1036.07 1898.06,678.742 1900.1,644.948 1902.14,620.355 1904.18,1345.53 
  1906.22,1123.69 1908.26,1224.54 1910.29,1234.47 1912.33,1022.7 1914.37,651.869 1916.41,1388.84 1918.45,1040.92 1920.49,1290.76 1922.53,1185.92 1924.57,1297.53 
  1926.61,1183.75 1928.65,1018.24 1930.69,1180.28 1932.73,648.281 1934.77,1066.05 1936.81,1385.61 1938.84,948.577 1940.88,1381.35 1942.92,1245.24 1944.96,1187.84 
  1947,792.707 1949.04,704.173 1951.08,879.936 1953.12,1157.11 1955.16,1217.88 1957.2,640.452 1959.24,716.131 1961.28,710.979 1963.32,551.603 1965.36,1183.97 
  1967.39,787.137 1969.43,1059.65 1971.47,683.461 1973.51,569.598 1975.55,811.192 1977.59,646.547 1979.63,625.058 1981.67,1254.46 1983.71,988.624 1985.75,1345.23 
  1987.79,842.626 1989.83,689.338 1991.87,600.34 1993.9,1147.17 1995.94,1040.29 1997.98,780.451 2000.02,664.915 2002.06,1194.92 2004.1,805.57 2006.14,985.091 
  2008.18,1384.62 2010.22,1376.82 2012.26,614.608 2014.3,780.737 2016.34,761.459 2018.38,746.321 2020.42,1015.54 2022.45,795.812 2024.49,1161.88 2026.53,1356.4 
  2028.57,1265.46 2030.61,1162.89 2032.65,754.864 2034.69,1180.16 2036.73,1416.93 2038.77,1027.22 2040.81,1356.75 2042.85,601.198 2044.89,602.378 2046.93,974.858 
  2048.97,960.599 2051,744.554 2053.04,1402.39 2055.08,881.357 2057.12,665.089 2059.16,1044.54 2061.2,796.542 2063.24,894.275 2065.28,1155.41 2067.32,1119.78 
  2069.36,1094.48 2071.4,1146.11 2073.44,1163.71 2075.48,693.305 2077.52,1051.73 2079.55,1242.93 2081.59,843.908 2083.63,1107.97 2085.67,1147.04 2087.71,897.61 
  2089.75,791.994 2091.79,768.21 2093.83,1062.27 2095.87,885.666 2097.91,850.282 2099.95,1021.19 2101.99,1386.6 2104.03,1271.44 2106.07,565.411 2108.1,1275.2 
  2110.14,1433.48 2112.18,640.329 2114.22,1255.94 2116.26,1106.14 2118.3,574.209 2120.34,1106.52 2122.38,1361.6 2124.42,795.164 2126.46,803.703 2128.5,847.96 
  2130.54,1201.15 2132.58,1304.32 2134.61,677.528 2136.65,569.395 2138.69,1008.65 2140.73,588.076 2142.77,954.885 2144.81,1228.41 2146.85,607.768 2148.89,882.31 
  2150.93,972.758 2152.97,820.666 2155.01,927.893 2157.05,1442.47 2159.09,572.865 2161.13,835.342 2163.16,898.471 2165.2,708.266 2167.24,774.258 2169.28,834.275 
  2171.32,563.586 2173.36,882.955 2175.4,799.247 2177.44,991.18 2179.48,1354.94 2181.52,813.401 2183.56,1360.41 2185.6,876.151 2187.64,662.138 2189.68,1312.62 
  2191.71,1355.85 2193.75,1303.8 2195.79,1044.49 2197.83,1349.15 2199.87,1416.13 2201.91,1147.97 2203.95,686.47 2205.99,1245.66 2208.03,1058.36 2210.07,703.85 
  2212.11,1377.12 2214.15,563.78 2216.19,1157.42 2218.23,1063.51 2220.26,605.505 2222.3,1326.36 2224.34,706.383 2226.38,1324.63 2228.42,1382.92 2230.46,1217.54 
  2232.5,1238.01 2234.54,740.327 2236.58,883.714 2238.62,1080.99 2240.66,571.971 2242.7,726.037 2244.74,1159.92 2246.77,813.125 2248.81,1167.05 2250.85,1245.45 
  2252.89,1279.42 2254.93,1128.2 2256.97,1174.27 2259.01,1261.79 2261.05,1344.64 2263.09,879.47 2265.13,1306.67 2267.17,1330.72 2269.21,592.787 2271.25,545.538 
  2273.29,1168.6 2275.32,1181.72 2277.36,1101.22 2279.4,783.154 2281.44,988.355 2283.48,987.275 2285.52,1281.9 2287.56,1338.5 2289.6,604.048 2291.64,944.769 
  
  "/>
<polyline clip-path="url(#clip702)" style="stroke:#e26f46; stroke-linecap:butt; stroke-linejoin:round; stroke-width:4; stroke-opacity:1; fill:none" points="
  254.405,87.9763 256.444,765.048 258.483,693.147 260.523,695.873 262.562,723.452 264.601,686.15 266.641,712.904 268.68,703.452 270.719,721.299 272.758,736.873 
  274.798,722.209 276.837,725.3 278.876,736.727 280.915,742.403 282.955,749.23 284.994,757.059 287.033,764.49 289.073,765.246 291.112,771.558 293.151,777.36 
  295.19,781.489 297.23,772.585 299.269,776.882 301.308,764.852 303.347,767.364 305.387,755.763 307.426,753.088 309.465,750.791 311.505,755.097 313.544,748.398 
  315.583,743.834 317.622,747.892 319.662,739.247 321.701,739.89 323.74,739.067 325.779,740.556 327.819,740.211 329.858,737.5 331.897,740.691 333.937,743.386 
  335.976,746.535 338.015,742.614 340.054,740.821 342.094,738.611 344.133,737.749 346.172,735.753 348.211,737.274 350.251,736.289 352.29,731.235 354.329,733.871 
  356.369,734.361 358.408,732.838 360.447,732.371 362.486,732.056 364.526,730.793 366.565,730.372 368.604,731.756 370.643,731.866 372.683,731.157 374.722,730.268 
  376.761,730.082 378.801,725.697 380.84,727.29 382.879,727.313 384.918,729.226 386.958,730.972 388.997,732.382 391.036,732.672 393.075,733.64 395.115,732.45 
  397.154,730.49 399.193,731.919 401.233,732.975 403.272,734.302 405.311,735.765 407.35,735.475 409.39,737.153 411.429,737.446 413.468,738.685 415.507,736.95 
  417.547,736.211 419.586,733.52 421.625,731.247 423.665,730.776 425.704,729.719 427.743,729.303 429.782,730.456 431.822,731.952 433.861,730.175 435.9,731.087 
  437.939,731.256 439.979,732.381 442.018,733.452 444.057,734.688 446.097,733.915 448.136,735.185 450.175,735.141 452.214,735.656 454.254,736.939 456.293,736.669 
  458.332,736.295 460.371,738.795 462.411,739.644 464.45,741.194 466.489,740.206 468.529,743.217 470.568,743.176 472.607,745.238 474.646,744.456 476.686,743.181 
  478.725,742.418 480.764,742.218 482.803,742.209 484.843,738.636 486.882,738.844 488.921,738.178 490.961,737.833 493,738.01 495.039,735.889 497.078,734.987 
  499.118,734.925 501.157,737.237 503.196,737.368 505.235,738.969 507.275,739.335 509.314,742.817 511.353,742.876 513.393,742.286 515.432,738.463 517.471,737.798 
  519.51,738.879 521.55,737.492 523.589,741.473 525.628,742.338 527.667,741.843 529.707,742.347 531.746,742.423 533.785,743.513 535.825,743.551 537.864,740.304 
  539.903,736.963 541.942,739.416 543.982,741.374 546.021,742.446 548.06,743.274 550.099,741.714 552.139,741.228 554.178,742.325 556.217,745.647 558.257,744.143 
  560.296,744.249 562.335,744.61 564.374,743.516 566.414,743.95 568.453,744.67 570.492,744.196 572.532,742 574.571,743.111 576.61,743.188 578.649,742.955 
  580.689,744.437 582.728,745.993 584.767,744.417 586.806,745.97 588.846,742.969 590.885,740.581 592.924,739.295 594.964,738.484 597.003,735.405 599.042,736.953 
  601.081,735.431 603.121,731.813 605.16,732.22 607.199,731.713 609.238,730.45 611.278,731.864 613.317,731.398 615.356,732.421 617.396,729.411 619.435,728.836 
  621.474,730.679 623.513,733.593 625.553,736.136 627.592,736.347 629.631,738.443 631.67,740.018 633.71,736.754 635.749,734.093 637.788,736.659 639.828,736.561 
  641.867,736.74 643.906,733.293 645.945,732.208 647.985,732.237 650.024,734.536 652.063,734.659 654.102,733.791 656.142,732.29 658.181,730.194 660.22,731.682 
  662.26,730.069 664.299,727.557 666.338,727.768 668.377,725.808 670.417,726.581 672.456,726.09 674.495,725.656 676.534,725.976 678.574,725.909 680.613,726.162 
  682.652,728.973 684.692,727.051 686.731,726.488 688.77,729.117 690.809,728.139 692.849,727.68 694.888,727.032 696.927,725.941 698.966,728.417 701.006,729.65 
  703.045,726.428 705.084,726.227 707.124,726.216 709.163,725.449 711.202,724.684 713.241,724.901 715.281,726.719 717.32,729.84 719.359,732.341 721.398,735.985 
  723.438,732.898 725.477,734.738 727.516,731.347 729.556,729.363 731.595,731.911 733.634,731.638 735.673,729.337 737.713,730.893 739.752,730.101 741.791,732.045 
  743.83,733.977 745.87,734.064 747.909,730.921 749.948,730.071 751.988,730.103 754.027,732.611 756.066,730.753 758.105,728.124 760.145,726.926 762.184,725.775 
  764.223,723.941 766.262,722.587 768.302,722.974 770.341,723.626 772.38,723.89 774.42,724.907 776.459,724.91 778.498,722.161 780.537,721.366 782.577,723.335 
  784.616,722.597 786.655,724.036 788.694,724.406 790.734,722.492 792.773,724.736 794.812,728.335 796.852,731.279 798.891,730.443 800.93,732.258 802.969,728.768 
  805.009,730.142 807.048,731.813 809.087,728.844 811.126,726.187 813.166,728.083 815.205,725.417 817.244,724.314 819.284,724.171 821.323,725.96 823.362,727.783 
  825.401,726.715 827.441,727.55 829.48,727.992 831.519,726.769 833.558,726.399 835.598,725.557 837.637,728.347 839.676,729.299 841.716,728.122 843.755,726.355 
  845.794,726.95 847.833,728.81 849.873,729.769 851.912,729.148 853.951,727.096 855.99,724.554 858.03,725.426 860.069,727.304 862.108,726.445 864.148,726.024 
  866.187,726.154 868.226,726.358 870.265,723.383 872.305,723.74 874.344,723.271 876.383,724.046 878.422,723.892 880.462,720.801 882.501,718.643 884.54,718.267 
  886.58,718.627 888.619,718.804 890.658,718.631 892.697,719.399 894.737,720.26 896.776,721.021 898.815,719.135 900.855,718.15 902.894,717.259 904.933,713.497 
  906.972,714.189 909.012,711.555 911.051,708.276 913.09,709.305 915.129,709.936 917.169,708.353 919.208,706.945 921.247,704.322 923.287,702.577 925.326,703.056 
  927.365,703.462 929.404,700.482 931.444,700.402 933.483,702.349 935.522,702.813 937.561,702.885 939.601,705.496 941.64,703.766 943.679,701.779 945.719,702.282 
  947.758,703.617 949.797,703.112 951.836,703.588 953.876,705.947 955.915,705.856 957.954,704.898 959.993,705.266 962.033,707.416 964.072,708.452 966.111,709.883 
  968.151,710.154 970.19,710.787 972.229,711.391 974.268,708.22 976.308,708.623 978.347,709.655 980.386,711.255 982.425,714.295 984.465,715.523 986.504,714.2 
  988.543,714.421 990.583,716.55 992.622,716.672 994.661,716.8 996.7,718.609 998.74,718.532 1000.78,717.27 1002.82,718.999 1004.86,719.693 1006.9,719.993 
  1008.94,720.234 1010.98,721.023 1013.01,723.461 1015.05,726.734 1017.09,724.383 1019.13,726.757 1021.17,727.999 1023.21,728.089 1025.25,727.691 1027.29,727.369 
  1029.33,728.252 1031.37,726.141 1033.41,723.509 1035.45,725.805 1037.49,724.327 1039.53,724.303 1041.56,723.286 1043.6,723.441 1045.64,723.972 1047.68,722.51 
  1049.72,722.588 1051.76,723.966 1053.8,724.382 1055.84,724.624 1057.88,723.235 1059.92,724.274 1061.96,724.365 1064,722.902 1066.04,724.012 1068.07,724.542 
  1070.11,726.217 1072.15,727.003 1074.19,729.246 1076.23,728.824 1078.27,728.297 1080.31,726.639 1082.35,724.872 1084.39,724.744 1086.43,724.587 1088.47,725.478 
  1090.51,723.758 1092.55,726.09 1094.59,724.142 1096.62,721.821 1098.66,721.996 1100.7,719.421 1102.74,722.15 1104.78,721.697 1106.82,722.629 1108.86,726.406 
  1110.9,725.817 1112.94,729.161 1114.98,730.261 1117.02,731.213 1119.06,730.242 1121.1,731.895 1123.14,733.672 1125.17,736.202 1127.21,738.845 1129.25,737.15 
  1131.29,740.29 1133.33,741.187 1135.37,742.805 1137.41,741.927 1139.45,741.225 1141.49,741.155 1143.53,737.473 1145.57,739.53 1147.61,741.574 1149.65,740.156 
  1151.69,738.6 1153.72,738.191 1155.76,739.089 1157.8,739.018 1159.84,739.158 1161.88,739.292 1163.92,739.711 1165.96,739.394 1168,737.856 1170.04,738.3 
  1172.08,736.987 1174.12,736.207 1176.16,737.353 1178.2,740.962 1180.23,741.071 1182.27,740.477 1184.31,742.127 1186.35,742.116 1188.39,743.6 1190.43,745.224 
  1192.47,742.166 1194.51,741.998 1196.55,740.911 1198.59,740.342 1200.63,737.998 1202.67,737.892 1204.71,737.86 1206.75,737.624 1208.78,736.896 1210.82,737.153 
  1212.86,737 1214.9,736.964 1216.94,735.227 1218.98,735.233 1221.02,736.477 1223.06,736.595 1225.1,735.211 1227.14,735.213 1229.18,736.13 1231.22,735.615 
  1233.26,734.125 1235.3,731.963 1237.33,735.331 1239.37,732.976 1241.41,732.975 1243.45,731.43 1245.49,732.485 1247.53,730.862 1249.57,729.579 1251.61,732.71 
  1253.65,732.953 1255.69,732.485 1257.73,732.191 1259.77,732.354 1261.81,734.396 1263.85,735.712 1265.88,735.503 1267.92,734.256 1269.96,733.71 1272,730.399 
  1274.04,727.422 1276.08,729.171 1278.12,727.05 1280.16,728.491 1282.2,729.954 1284.24,728.256 1286.28,730.902 1288.32,734.949 1290.36,738.932 1292.39,734.864 
  1294.43,733.098 1296.47,731.114 1298.51,733.123 1300.55,734.535 1302.59,734.531 1304.63,738.056 1306.67,737.38 1308.71,739.89 1310.75,737.621 1312.79,735.203 
  1314.83,734.423 1316.87,731.445 1318.91,730.86 1320.94,729.736 1322.98,730.486 1325.02,726.502 1327.06,725.733 1329.1,724.722 1331.14,724.07 1333.18,723.944 
  1335.22,723.851 1337.26,724.136 1339.3,724.449 1341.34,723.266 1343.38,724.639 1345.42,723.868 1347.46,724.917 1349.49,724.306 1351.53,722.424 1353.57,722.33 
  1355.61,720.088 1357.65,717.109 1359.69,717.397 1361.73,717.443 1363.77,717.427 1365.81,718.925 1367.85,720.382 1369.89,720.459 1371.93,719.671 1373.97,718.651 
  1376.01,721.515 1378.04,722.628 1380.08,721.253 1382.12,720.568 1384.16,718.954 1386.2,719.491 1388.24,719.153 1390.28,716.911 1392.32,715.868 1394.36,715.213 
  1396.4,717.949 1398.44,717.376 1400.48,717.939 1402.52,719.858 1404.56,722.421 1406.59,722.396 1408.63,720.617 1410.67,718.339 1412.71,718.892 1414.75,717.592 
  1416.79,718.177 1418.83,718.217 1420.87,718.803 1422.91,718.664 1424.95,719.957 1426.99,719.041 1429.03,720.774 1431.07,719.808 1433.1,719.675 1435.14,720.957 
  1437.18,721.664 1439.22,724.609 1441.26,724.883 1443.3,725.555 1445.34,724.606 1447.38,726.222 1449.42,723.499 1451.46,724.197 1453.5,724.008 1455.54,721.748 
  1457.58,720.496 1459.62,720.77 1461.65,721.109 1463.69,720.452 1465.73,719.159 1467.77,718.652 1469.81,716.376 1471.85,718.776 1473.89,718.94 1475.93,722.081 
  1477.97,725.12 1480.01,724.263 1482.05,725.148 1484.09,725.144 1486.13,725.158 1488.17,728.761 1490.2,729.316 1492.24,728.607 1494.28,725.598 1496.32,728.654 
  1498.36,730.508 1500.4,732.492 1502.44,731.766 1504.48,730.221 1506.52,730.084 1508.56,727.147 1510.6,728.406 1512.64,726.159 1514.68,727.301 1516.72,726.316 
  1518.75,727.033 1520.79,730.782 1522.83,731.843 1524.87,731.364 1526.91,728.934 1528.95,731.722 1530.99,732.662 1533.03,731.962 1535.07,730.347 1537.11,729.447 
  1539.15,727.587 1541.19,728.193 1543.23,726.754 1545.26,728.252 1547.3,725.508 1549.34,726.489 1551.38,728.241 1553.42,730.945 1555.46,730.965 1557.5,730.755 
  1559.54,730.957 1561.58,733.536 1563.62,733.403 1565.66,730.712 1567.7,729.788 1569.74,729.66 1571.78,728.788 1573.81,729.038 1575.85,729.942 1577.89,727.795 
  1579.93,727.373 1581.97,726.278 1584.01,727.374 1586.05,727.097 1588.09,726.493 1590.13,723.12 1592.17,721.465 1594.21,723.045 1596.25,720.983 1598.29,721.244 
  1600.33,718.271 1602.36,717.775 1604.4,716.567 1606.44,715.487 1608.48,712.692 1610.52,712.423 1612.56,713.958 1614.6,715.763 1616.64,715.63 1618.68,716.803 
  1620.72,715.861 1622.76,715.725 1624.8,713.137 1626.84,713.542 1628.88,710.746 1630.91,711.37 1632.95,711.126 1634.99,711.018 1637.03,711.928 1639.07,708.854 
  1641.11,707.328 1643.15,706.637 1645.19,706.497 1647.23,707.792 1649.27,707.916 1651.31,707.203 1653.35,709.713 1655.39,708.94 1657.42,711.512 1659.46,713.688 
  1661.5,711.833 1663.54,710.993 1665.58,710.067 1667.62,709.987 1669.66,713.429 1671.7,710.603 1673.74,709.894 1675.78,709.206 1677.82,708.419 1679.86,708.607 
  1681.9,708.768 1683.94,709.892 1685.97,709.316 1688.01,707.868 1690.05,706.588 1692.09,705.269 1694.13,703.127 1696.17,704.537 1698.21,708.365 1700.25,706.062 
  1702.29,707.413 1704.33,707.214 1706.37,705.168 1708.41,707.524 1710.45,707.482 1712.49,709.057 1714.52,708.234 1716.56,710.799 1718.6,711.007 1720.64,714.058 
  1722.68,716.699 1724.72,713.329 1726.76,714.728 1728.8,715.324 1730.84,717.596 1732.88,717.697 1734.92,715.264 1736.96,716.981 1739,717.523 1741.04,720.622 
  1743.07,721.61 1745.11,718.847 1747.15,720.483 1749.19,720.526 1751.23,723.23 1753.27,723.273 1755.31,722.87 1757.35,720.551 1759.39,722.531 1761.43,722.433 
  1763.47,724.222 1765.51,722.927 1767.55,720.927 1769.58,722.765 1771.62,723.549 1773.66,723.3 1775.7,723.549 1777.74,724.098 1779.78,724.809 1781.82,727.633 
  1783.86,725.813 1785.9,729.173 1787.94,729.214 1789.98,729.959 1792.02,732.69 1794.06,736.347 1796.1,735.635 1798.13,733.628 1800.17,733.245 1802.21,732.625 
  1804.25,732.179 1806.29,733.14 1808.33,734.361 1810.37,735.183 1812.41,738.584 1814.45,738.048 1816.49,739.501 1818.53,740.594 1820.57,738.923 1822.61,737.453 
  1824.65,736.655 1826.68,733.022 1828.72,735.01 1830.76,734.994 1832.8,737.923 1834.84,738.315 1836.88,739.406 1838.92,739.206 1840.96,738.139 1843,741.323 
  1845.04,741.259 1847.08,742.206 1849.12,743.15 1851.16,740.253 1853.2,741.376 1855.23,742.27 1857.27,740.651 1859.31,743.171 1861.35,742.788 1863.39,743.246 
  1865.43,745.937 1867.47,743.898 1869.51,744.456 1871.55,742.452 1873.59,741.486 1875.63,745.591 1877.67,749.705 1879.71,748.012 1881.74,749.934 1883.78,747.744 
  1885.82,746.039 1887.86,745.915 1889.9,748.769 1891.94,748.77 1893.98,750.517 1896.02,752.666 1898.06,755 1900.1,753.352 1902.14,751.581 1904.18,752.439 
  1906.22,753.423 1908.26,753.068 1910.29,753.36 1912.33,753.286 1914.37,752.24 1916.41,747.963 1918.45,748.171 1920.49,745.644 1922.53,744.486 1924.57,741.934 
  1926.61,741.154 1928.65,746.158 1930.69,745.708 1932.73,745.83 1934.77,745.556 1936.81,741.613 1938.84,744.008 1940.88,740.34 1942.92,739.376 1944.96,738.555 
  1947,738.889 1949.04,741.821 1951.08,741.728 1953.12,741.606 1955.16,741.309 1957.2,739.535 1959.24,740.092 1961.28,742.879 1963.32,739.933 1965.36,738.973 
  1967.39,738.588 1969.43,740.944 1971.47,741.886 1973.51,740.274 1975.55,740.183 1977.59,739.014 1979.63,737.266 1981.67,735.329 1983.71,735.98 1985.75,733.058 
  1987.79,735.776 1989.83,734.544 1991.87,732.406 1993.9,731.556 1995.94,731.385 1997.98,730.904 2000.02,731.656 2002.06,732.66 2004.1,735.267 2006.14,737.84 
  2008.18,737.194 2010.22,734.69 2012.26,733.299 2014.3,733.077 2016.34,732.433 2018.38,732.777 2020.42,732.68 2022.45,732.456 2024.49,733.424 2026.53,734.155 
  2028.57,734.833 2030.61,738.18 2032.65,739.49 2034.69,738.529 2036.73,734.402 2038.77,734.332 2040.81,731.477 2042.85,730.533 2044.89,729.03 2046.93,729.547 
  2048.97,732.7 2051,731.843 2053.04,728.048 2055.08,730.559 2057.12,729.533 2059.16,729.575 2061.2,731.217 2063.24,731.772 2065.28,731.652 2067.32,731.178 
  2069.36,731.262 2071.4,733.849 2073.44,733.359 2075.48,735.208 2077.52,736.112 2079.55,735.063 2081.59,735.374 2083.63,738.437 2085.67,737.865 2087.71,740.45 
  2089.75,741.898 2091.79,741.296 2093.83,741.314 2095.87,742.735 2097.91,743.023 2099.95,743.053 2101.99,741.611 2104.03,742.376 2106.07,741.497 2108.1,742.399 
  2110.14,738.856 2112.18,737.511 2114.22,737.293 2116.26,737.043 2118.3,735.899 2120.34,738.802 2122.38,736.092 2124.42,737.202 2126.46,737.402 2128.5,739.097 
  2130.54,738.947 2132.58,736.862 2134.61,735.939 2136.65,734.817 2138.69,734.963 2140.73,735.556 2142.77,735.559 2144.81,737.613 2146.85,736.793 2148.89,737.763 
  2150.93,738.269 2152.97,739.159 2155.01,739.258 2157.05,735.413 2159.09,733.888 2161.13,735.529 2163.16,736.589 2165.2,736.563 2167.24,739.153 2169.28,739.878 
  2171.32,737.41 2173.36,737.543 2175.4,738.506 2177.44,741.428 2179.48,738.749 2181.52,740.293 2183.56,739.552 2185.6,741.001 2187.64,739.177 2189.68,739.65 
  2191.71,736.951 2193.75,736.356 2195.79,739.068 2197.83,736.932 2199.87,733.337 2201.91,733.663 2203.95,733.925 2205.99,733.47 2208.03,734.048 2210.07,732.453 
  2212.11,732.567 2214.15,732.099 2216.19,734.157 2218.23,734.883 2220.26,733.033 2222.3,732.009 2224.34,730.449 2226.38,729.092 2228.42,726.778 2230.46,728.304 
  2232.5,728.571 2234.54,727.885 2236.58,728.736 2238.62,729.257 2240.66,729.459 2242.7,728.243 2244.74,730.336 2246.77,732.564 2248.81,734.74 2250.85,733.455 
  2252.89,731.864 2254.93,732.727 2256.97,735.327 2259.01,734.207 2261.05,734.116 2263.09,733.846 2265.13,732.938 2267.17,731.218 2269.21,728.296 2271.25,724.574 
  2273.29,724.213 2275.32,723.997 2277.36,724.303 2279.4,725.194 2281.44,725.236 2283.48,726.338 2285.52,725.326 2287.56,723.439 2289.6,720.857 2291.64,720.996 
  
  "/>
<path clip-path="url(#clip700)" d="
M1611.97 250.738 L2280.77 250.738 L2280.77 95.2176 L1611.97 95.2176  Z
  " fill="#ffffff" fill-rule="evenodd" fill-opacity="1"/>
<polyline clip-path="url(#clip700)" style="stroke:#000000; stroke-linecap:butt; stroke-linejoin:round; stroke-width:4; stroke-opacity:1; fill:none" points="
  1611.97,250.738 2280.77,250.738 2280.77,95.2176 1611.97,95.2176 1611.97,250.738 
  "/>
<polyline clip-path="url(#clip700)" style="stroke:#009af9; stroke-linecap:butt; stroke-linejoin:round; stroke-width:4; stroke-opacity:0.4; fill:none" points="
  1635.96,147.058 1779.93,147.058 
  "/>
<path clip-path="url(#clip700)" d="M1803.92 129.778 L1808.6 129.778 L1808.6 164.338 L1803.92 164.338 L1803.92 129.778 Z" fill="#000000" fill-rule="evenodd" fill-opacity="1" /><path clip-path="url(#clip700)" d="M1839.27 148.689 L1839.27 164.338 L1835.01 164.338 L1835.01 148.828 Q1835.01 145.148 1833.57 143.319 Q1832.14 141.49 1829.27 141.49 Q1825.82 141.49 1823.83 143.69 Q1821.84 145.889 1821.84 149.685 L1821.84 164.338 L1817.56 164.338 L1817.56 138.412 L1821.84 138.412 L1821.84 142.44 Q1823.37 140.102 1825.43 138.944 Q1827.51 137.787 1830.22 137.787 Q1834.69 137.787 1836.98 140.565 Q1839.27 143.319 1839.27 148.689 Z" fill="#000000" fill-rule="evenodd" fill-opacity="1" /><path clip-path="url(#clip700)" d="M1851.88 160.449 L1851.88 174.199 L1847.6 174.199 L1847.6 138.412 L1851.88 138.412 L1851.88 142.347 Q1853.23 140.032 1855.26 138.921 Q1857.32 137.787 1860.17 137.787 Q1864.89 137.787 1867.83 141.537 Q1870.8 145.287 1870.8 151.398 Q1870.8 157.509 1867.83 161.259 Q1864.89 165.009 1860.17 165.009 Q1857.32 165.009 1855.26 163.898 Q1853.23 162.763 1851.88 160.449 M1866.38 151.398 Q1866.38 146.699 1864.43 144.037 Q1862.51 141.352 1859.13 141.352 Q1855.75 141.352 1853.81 144.037 Q1851.88 146.699 1851.88 151.398 Q1851.88 156.097 1853.81 158.782 Q1855.75 161.444 1859.13 161.444 Q1862.51 161.444 1864.43 158.782 Q1866.38 156.097 1866.38 151.398 Z" fill="#000000" fill-rule="evenodd" fill-opacity="1" /><path clip-path="url(#clip700)" d="M1877.42 154.106 L1877.42 138.412 L1881.68 138.412 L1881.68 153.944 Q1881.68 157.625 1883.11 159.476 Q1884.55 161.305 1887.42 161.305 Q1890.87 161.305 1892.86 159.106 Q1894.87 156.907 1894.87 153.111 L1894.87 138.412 L1899.13 138.412 L1899.13 164.338 L1894.87 164.338 L1894.87 160.356 Q1893.32 162.717 1891.26 163.875 Q1889.22 165.009 1886.51 165.009 Q1882.05 165.009 1879.73 162.231 Q1877.42 159.453 1877.42 154.106 M1888.13 137.787 L1888.13 137.787 Z" fill="#000000" fill-rule="evenodd" fill-opacity="1" /><path clip-path="url(#clip700)" d="M1912.12 131.051 L1912.12 138.412 L1920.89 138.412 L1920.89 141.722 L1912.12 141.722 L1912.12 155.796 Q1912.12 158.967 1912.97 159.87 Q1913.85 160.773 1916.51 160.773 L1920.89 160.773 L1920.89 164.338 L1916.51 164.338 Q1911.58 164.338 1909.71 162.509 Q1907.83 160.657 1907.83 155.796 L1907.83 141.722 L1904.71 141.722 L1904.71 138.412 L1907.83 138.412 L1907.83 131.051 L1912.12 131.051 Z" fill="#000000" fill-rule="evenodd" fill-opacity="1" /><polyline clip-path="url(#clip700)" style="stroke:#e26f46; stroke-linecap:butt; stroke-linejoin:round; stroke-width:4; stroke-opacity:1; fill:none" points="
  1635.96,198.898 1779.93,198.898 
  "/>
<path clip-path="url(#clip700)" d="M1822.35 191.016 L1822.35 195.043 Q1820.54 194.117 1818.6 193.655 Q1816.65 193.192 1814.57 193.192 Q1811.4 193.192 1809.8 194.164 Q1808.23 195.136 1808.23 197.08 Q1808.23 198.562 1809.36 199.418 Q1810.5 200.252 1813.92 201.016 L1815.38 201.34 Q1819.92 202.312 1821.82 204.094 Q1823.74 205.854 1823.74 209.025 Q1823.74 212.636 1820.87 214.742 Q1818.02 216.849 1813.02 216.849 Q1810.94 216.849 1808.67 216.432 Q1806.42 216.039 1803.92 215.228 L1803.92 210.83 Q1806.28 212.057 1808.57 212.682 Q1810.87 213.284 1813.11 213.284 Q1816.12 213.284 1817.74 212.266 Q1819.36 211.224 1819.36 209.349 Q1819.36 207.613 1818.18 206.687 Q1817.02 205.761 1813.07 204.904 L1811.58 204.557 Q1807.63 203.724 1805.87 202.011 Q1804.11 200.275 1804.11 197.266 Q1804.11 193.608 1806.7 191.618 Q1809.29 189.627 1814.06 189.627 Q1816.42 189.627 1818.51 189.974 Q1820.59 190.321 1822.35 191.016 Z" fill="#000000" fill-rule="evenodd" fill-opacity="1" /><path clip-path="url(#clip700)" d="M1834.73 182.891 L1834.73 190.252 L1843.51 190.252 L1843.51 193.562 L1834.73 193.562 L1834.73 207.636 Q1834.73 210.807 1835.59 211.71 Q1836.47 212.613 1839.13 212.613 L1843.51 212.613 L1843.51 216.178 L1839.13 216.178 Q1834.2 216.178 1832.32 214.349 Q1830.45 212.497 1830.45 207.636 L1830.45 193.562 L1827.32 193.562 L1827.32 190.252 L1830.45 190.252 L1830.45 182.891 L1834.73 182.891 Z" fill="#000000" fill-rule="evenodd" fill-opacity="1" /><path clip-path="url(#clip700)" d="M1866.17 194.187 L1866.17 180.159 L1870.43 180.159 L1870.43 216.178 L1866.17 216.178 L1866.17 212.289 Q1864.82 214.603 1862.76 215.738 Q1860.73 216.849 1857.86 216.849 Q1853.16 216.849 1850.19 213.099 Q1847.26 209.349 1847.26 203.238 Q1847.26 197.127 1850.19 193.377 Q1853.16 189.627 1857.86 189.627 Q1860.73 189.627 1862.76 190.761 Q1864.82 191.872 1866.17 194.187 M1851.65 203.238 Q1851.65 207.937 1853.57 210.622 Q1855.52 213.284 1858.9 213.284 Q1862.28 213.284 1864.22 210.622 Q1866.17 207.937 1866.17 203.238 Q1866.17 198.539 1864.22 195.877 Q1862.28 193.192 1858.9 193.192 Q1855.52 193.192 1853.57 195.877 Q1851.65 198.539 1851.65 203.238 Z" fill="#000000" fill-rule="evenodd" fill-opacity="1" /><path clip-path="url(#clip700)" d="M1904.5 180.206 Q1901.4 185.53 1899.89 190.738 Q1898.39 195.946 1898.39 201.293 Q1898.39 206.641 1899.89 211.895 Q1901.42 217.127 1904.5 222.428 L1900.8 222.428 Q1897.32 216.988 1895.59 211.733 Q1893.88 206.479 1893.88 201.293 Q1893.88 196.131 1895.59 190.9 Q1897.3 185.668 1900.8 180.206 L1904.5 180.206 Z" fill="#000000" fill-rule="evenodd" fill-opacity="1" /><path clip-path="url(#clip700)" d="M1910.29 190.252 L1914.55 190.252 L1919.87 210.483 L1925.17 190.252 L1930.19 190.252 L1935.52 210.483 L1940.82 190.252 L1945.08 190.252 L1938.3 216.178 L1933.27 216.178 L1927.69 194.928 L1922.09 216.178 L1917.07 216.178 L1910.29 190.252 Z" fill="#000000" fill-rule="evenodd" fill-opacity="1" /><path clip-path="url(#clip700)" d="M1951.54 190.252 L1955.8 190.252 L1955.8 216.178 L1951.54 216.178 L1951.54 190.252 M1951.54 180.159 L1955.8 180.159 L1955.8 185.553 L1951.54 185.553 L1951.54 180.159 Z" fill="#000000" fill-rule="evenodd" fill-opacity="1" /><path clip-path="url(#clip700)" d="M1986.26 200.529 L1986.26 216.178 L1982 216.178 L1982 200.668 Q1982 196.988 1980.56 195.159 Q1979.13 193.33 1976.26 193.33 Q1972.81 193.33 1970.82 195.53 Q1968.83 197.729 1968.83 201.525 L1968.83 216.178 L1964.55 216.178 L1964.55 190.252 L1968.83 190.252 L1968.83 194.28 Q1970.36 191.942 1972.42 190.784 Q1974.5 189.627 1977.21 189.627 Q1981.68 189.627 1983.97 192.405 Q1986.26 195.159 1986.26 200.529 Z" fill="#000000" fill-rule="evenodd" fill-opacity="1" /><path clip-path="url(#clip700)" d="M2011.81 194.187 L2011.81 180.159 L2016.07 180.159 L2016.07 216.178 L2011.81 216.178 L2011.81 212.289 Q2010.47 214.603 2008.41 215.738 Q2006.37 216.849 2003.5 216.849 Q1998.81 216.849 1995.84 213.099 Q1992.9 209.349 1992.9 203.238 Q1992.9 197.127 1995.84 193.377 Q1998.81 189.627 2003.5 189.627 Q2006.37 189.627 2008.41 190.761 Q2010.47 191.872 2011.81 194.187 M1997.3 203.238 Q1997.3 207.937 1999.22 210.622 Q2001.17 213.284 2004.55 213.284 Q2007.93 213.284 2009.87 210.622 Q2011.81 207.937 2011.81 203.238 Q2011.81 198.539 2009.87 195.877 Q2007.93 193.192 2004.55 193.192 Q2001.17 193.192 1999.22 195.877 Q1997.3 198.539 1997.3 203.238 Z" fill="#000000" fill-rule="evenodd" fill-opacity="1" /><path clip-path="url(#clip700)" d="M2034.89 193.238 Q2031.47 193.238 2029.48 195.923 Q2027.49 198.585 2027.49 203.238 Q2027.49 207.891 2029.45 210.576 Q2031.44 213.238 2034.89 213.238 Q2038.3 213.238 2040.29 210.553 Q2042.28 207.867 2042.28 203.238 Q2042.28 198.631 2040.29 195.946 Q2038.3 193.238 2034.89 193.238 M2034.89 189.627 Q2040.45 189.627 2043.62 193.238 Q2046.79 196.849 2046.79 203.238 Q2046.79 209.604 2043.62 213.238 Q2040.45 216.849 2034.89 216.849 Q2029.31 216.849 2026.14 213.238 Q2022.99 209.604 2022.99 203.238 Q2022.99 196.849 2026.14 193.238 Q2029.31 189.627 2034.89 189.627 Z" fill="#000000" fill-rule="evenodd" fill-opacity="1" /><path clip-path="url(#clip700)" d="M2051.37 190.252 L2055.63 190.252 L2060.96 210.483 L2066.26 190.252 L2071.28 190.252 L2076.61 210.483 L2081.91 190.252 L2086.17 190.252 L2079.38 216.178 L2074.36 216.178 L2068.78 194.928 L2063.18 216.178 L2058.16 216.178 L2051.37 190.252 Z" fill="#000000" fill-rule="evenodd" fill-opacity="1" /><path clip-path="url(#clip700)" d="M2093.18 194.65 L2122.86 194.65 L2122.86 198.539 L2093.18 198.539 L2093.18 194.65 M2093.18 204.094 L2122.86 204.094 L2122.86 208.029 L2093.18 208.029 L2093.18 204.094 Z" fill="#000000" fill-rule="evenodd" fill-opacity="1" /><path clip-path="url(#clip700)" d="M2133.76 212.242 L2141.4 212.242 L2141.4 185.877 L2133.09 187.543 L2133.09 183.284 L2141.35 181.618 L2146.03 181.618 L2146.03 212.242 L2153.67 212.242 L2153.67 216.178 L2133.76 216.178 L2133.76 212.242 Z" fill="#000000" fill-rule="evenodd" fill-opacity="1" /><path clip-path="url(#clip700)" d="M2173.11 184.696 Q2169.5 184.696 2167.67 188.261 Q2165.86 191.803 2165.86 198.932 Q2165.86 206.039 2167.67 209.604 Q2169.5 213.145 2173.11 213.145 Q2176.74 213.145 2178.55 209.604 Q2180.38 206.039 2180.38 198.932 Q2180.38 191.803 2178.55 188.261 Q2176.74 184.696 2173.11 184.696 M2173.11 180.993 Q2178.92 180.993 2181.98 185.599 Q2185.05 190.182 2185.05 198.932 Q2185.05 207.659 2181.98 212.266 Q2178.92 216.849 2173.11 216.849 Q2167.3 216.849 2164.22 212.266 Q2161.17 207.659 2161.17 198.932 Q2161.17 190.182 2164.22 185.599 Q2167.3 180.993 2173.11 180.993 Z" fill="#000000" fill-rule="evenodd" fill-opacity="1" /><path clip-path="url(#clip700)" d="M2203.27 184.696 Q2199.66 184.696 2197.83 188.261 Q2196.03 191.803 2196.03 198.932 Q2196.03 206.039 2197.83 209.604 Q2199.66 213.145 2203.27 213.145 Q2206.91 213.145 2208.71 209.604 Q2210.54 206.039 2210.54 198.932 Q2210.54 191.803 2208.71 188.261 Q2206.91 184.696 2203.27 184.696 M2203.27 180.993 Q2209.08 180.993 2212.14 185.599 Q2215.22 190.182 2215.22 198.932 Q2215.22 207.659 2212.14 212.266 Q2209.08 216.849 2203.27 216.849 Q2197.46 216.849 2194.38 212.266 Q2191.33 207.659 2191.33 198.932 Q2191.33 190.182 2194.38 185.599 Q2197.46 180.993 2203.27 180.993 Z" fill="#000000" fill-rule="evenodd" fill-opacity="1" /><path clip-path="url(#clip700)" d="M2222.16 180.206 L2225.86 180.206 Q2229.34 185.668 2231.05 190.9 Q2232.79 196.131 2232.79 201.293 Q2232.79 206.479 2231.05 211.733 Q2229.34 216.988 2225.86 222.428 L2222.16 222.428 Q2225.24 217.127 2226.74 211.895 Q2228.27 206.641 2228.27 201.293 Q2228.27 195.946 2226.74 190.738 Q2225.24 185.53 2222.16 180.206 Z" fill="#000000" fill-rule="evenodd" fill-opacity="1" /></svg>
