<?xml version="1.0" encoding="utf-8"?>
<svg xmlns="http://www.w3.org/2000/svg" xmlns:xlink="http://www.w3.org/1999/xlink" width="600" height="400" viewBox="0 0 2400 1600">
<defs>
  <clipPath id="clip400">
    <rect x="0" y="0" width="2400" height="1600"/>
  </clipPath>
</defs>
<path clip-path="url(#clip400)" d="
M0 1600 L2400 1600 L2400 0 L0 0  Z
  " fill="#ffffff" fill-rule="evenodd" fill-opacity="1"/>
<defs>
  <clipPath id="clip401">
    <rect x="480" y="0" width="1681" height="1600"/>
  </clipPath>
</defs>
<path clip-path="url(#clip400)" d="
M192.941 1486.45 L2352.76 1486.45 L2352.76 123.472 L192.941 123.472  Z
  " fill="#ffffff" fill-rule="evenodd" fill-opacity="1"/>
<defs>
  <clipPath id="clip402">
    <rect x="192" y="123" width="2161" height="1364"/>
  </clipPath>
</defs>
<polyline clip-path="url(#clip402)" style="stroke:#000000; stroke-linecap:butt; stroke-linejoin:round; stroke-width:2; stroke-opacity:0.1; fill:none" points="
  480.463,1486.45 480.463,123.472 
  "/>
<polyline clip-path="url(#clip402)" style="stroke:#000000; stroke-linecap:butt; stroke-linejoin:round; stroke-width:2; stroke-opacity:0.1; fill:none" points="
  933.255,1486.45 933.255,123.472 
  "/>
<polyline clip-path="url(#clip402)" style="stroke:#000000; stroke-linecap:butt; stroke-linejoin:round; stroke-width:2; stroke-opacity:0.1; fill:none" points="
  1386.05,1486.45 1386.05,123.472 
  "/>
<polyline clip-path="url(#clip402)" style="stroke:#000000; stroke-linecap:butt; stroke-linejoin:round; stroke-width:2; stroke-opacity:0.1; fill:none" points="
  1838.84,1486.45 1838.84,123.472 
  "/>
<polyline clip-path="url(#clip402)" style="stroke:#000000; stroke-linecap:butt; stroke-linejoin:round; stroke-width:2; stroke-opacity:0.1; fill:none" points="
  2291.63,1486.45 2291.63,123.472 
  "/>
<polyline clip-path="url(#clip400)" style="stroke:#000000; stroke-linecap:butt; stroke-linejoin:round; stroke-width:4; stroke-opacity:1; fill:none" points="
  192.941,1486.45 2352.76,1486.45 
  "/>
<polyline clip-path="url(#clip400)" style="stroke:#000000; stroke-linecap:butt; stroke-linejoin:round; stroke-width:4; stroke-opacity:1; fill:none" points="
  480.463,1486.45 480.463,1467.55 
  "/>
<polyline clip-path="url(#clip400)" style="stroke:#000000; stroke-linecap:butt; stroke-linejoin:round; stroke-width:4; stroke-opacity:1; fill:none" points="
  933.255,1486.45 933.255,1467.55 
  "/>
<polyline clip-path="url(#clip400)" style="stroke:#000000; stroke-linecap:butt; stroke-linejoin:round; stroke-width:4; stroke-opacity:1; fill:none" points="
  1386.05,1486.45 1386.05,1467.55 
  "/>
<polyline clip-path="url(#clip400)" style="stroke:#000000; stroke-linecap:butt; stroke-linejoin:round; stroke-width:4; stroke-opacity:1; fill:none" points="
  1838.84,1486.45 1838.84,1467.55 
  "/>
<polyline clip-path="url(#clip400)" style="stroke:#000000; stroke-linecap:butt; stroke-linejoin:round; stroke-width:4; stroke-opacity:1; fill:none" points="
  2291.63,1486.45 2291.63,1467.55 
  "/>
<path clip-path="url(#clip400)" d="M475.116 1543.18 L491.435 1543.18 L491.435 1547.12 L469.491 1547.12 L469.491 1543.18 Q472.153 1540.43 476.736 1535.8 Q481.343 1531.15 482.523 1529.81 Q484.769 1527.28 485.648 1525.55 Q486.551 1523.79 486.551 1522.1 Q486.551 1519.34 484.607 1517.61 Q482.685 1515.87 479.584 1515.87 Q477.385 1515.87 474.931 1516.63 Q472.5 1517.4 469.723 1518.95 L469.723 1514.23 Q472.547 1513.09 475 1512.51 Q477.454 1511.93 479.491 1511.93 Q484.861 1511.93 488.056 1514.62 Q491.25 1517.31 491.25 1521.8 Q491.25 1523.93 490.44 1525.85 Q489.653 1527.74 487.547 1530.34 Q486.968 1531.01 483.866 1534.23 Q480.764 1537.42 475.116 1543.18 Z" fill="#000000" fill-rule="evenodd" fill-opacity="1" /><path clip-path="url(#clip400)" d="M936.264 1516.63 L924.458 1535.08 L936.264 1535.08 L936.264 1516.63 M935.037 1512.56 L940.917 1512.56 L940.917 1535.08 L945.847 1535.08 L945.847 1538.97 L940.917 1538.97 L940.917 1547.12 L936.264 1547.12 L936.264 1538.97 L920.662 1538.97 L920.662 1534.46 L935.037 1512.56 Z" fill="#000000" fill-rule="evenodd" fill-opacity="1" /><path clip-path="url(#clip400)" d="M1386.45 1527.98 Q1383.3 1527.98 1381.45 1530.13 Q1379.62 1532.28 1379.62 1536.03 Q1379.62 1539.76 1381.45 1541.93 Q1383.3 1544.09 1386.45 1544.09 Q1389.6 1544.09 1391.43 1541.93 Q1393.28 1539.76 1393.28 1536.03 Q1393.28 1532.28 1391.43 1530.13 Q1389.6 1527.98 1386.45 1527.98 M1395.73 1513.32 L1395.73 1517.58 Q1393.97 1516.75 1392.17 1516.31 Q1390.39 1515.87 1388.63 1515.87 Q1384 1515.87 1381.54 1519 Q1379.11 1522.12 1378.77 1528.44 Q1380.13 1526.43 1382.19 1525.36 Q1384.25 1524.27 1386.73 1524.27 Q1391.94 1524.27 1394.95 1527.44 Q1397.98 1530.59 1397.98 1536.03 Q1397.98 1541.36 1394.83 1544.57 Q1391.68 1547.79 1386.45 1547.79 Q1380.46 1547.79 1377.28 1543.21 Q1374.11 1538.6 1374.11 1529.87 Q1374.11 1521.68 1378 1516.82 Q1381.89 1511.93 1388.44 1511.93 Q1390.2 1511.93 1391.98 1512.28 Q1393.79 1512.63 1395.73 1513.32 Z" fill="#000000" fill-rule="evenodd" fill-opacity="1" /><path clip-path="url(#clip400)" d="M1838.84 1530.71 Q1835.5 1530.71 1833.58 1532.49 Q1831.68 1534.27 1831.68 1537.4 Q1831.68 1540.52 1833.58 1542.31 Q1835.5 1544.09 1838.84 1544.09 Q1842.17 1544.09 1844.09 1542.31 Q1846.01 1540.5 1846.01 1537.4 Q1846.01 1534.27 1844.09 1532.49 Q1842.19 1530.71 1838.84 1530.71 M1834.16 1528.72 Q1831.15 1527.98 1829.46 1525.92 Q1827.8 1523.86 1827.8 1520.89 Q1827.8 1516.75 1830.74 1514.34 Q1833.7 1511.93 1838.84 1511.93 Q1844 1511.93 1846.94 1514.34 Q1849.88 1516.75 1849.88 1520.89 Q1849.88 1523.86 1848.19 1525.92 Q1846.52 1527.98 1843.54 1528.72 Q1846.92 1529.5 1848.79 1531.8 Q1850.69 1534.09 1850.69 1537.4 Q1850.69 1542.42 1847.61 1545.11 Q1844.56 1547.79 1838.84 1547.79 Q1833.12 1547.79 1830.04 1545.11 Q1826.99 1542.42 1826.99 1537.4 Q1826.99 1534.09 1828.88 1531.8 Q1830.78 1529.5 1834.16 1528.72 M1832.45 1521.33 Q1832.45 1524.02 1834.12 1525.52 Q1835.81 1527.03 1838.84 1527.03 Q1841.85 1527.03 1843.54 1525.52 Q1845.25 1524.02 1845.25 1521.33 Q1845.25 1518.65 1843.54 1517.14 Q1841.85 1515.64 1838.84 1515.64 Q1835.81 1515.64 1834.12 1517.14 Q1832.45 1518.65 1832.45 1521.33 Z" fill="#000000" fill-rule="evenodd" fill-opacity="1" /><path clip-path="url(#clip400)" d="M2266.32 1543.18 L2273.96 1543.18 L2273.96 1516.82 L2265.65 1518.49 L2265.65 1514.23 L2273.91 1512.56 L2278.59 1512.56 L2278.59 1543.18 L2286.22 1543.18 L2286.22 1547.12 L2266.32 1547.12 L2266.32 1543.18 Z" fill="#000000" fill-rule="evenodd" fill-opacity="1" /><path clip-path="url(#clip400)" d="M2305.67 1515.64 Q2302.06 1515.64 2300.23 1519.2 Q2298.42 1522.75 2298.42 1529.87 Q2298.42 1536.98 2300.23 1540.55 Q2302.06 1544.09 2305.67 1544.09 Q2309.3 1544.09 2311.11 1540.55 Q2312.94 1536.98 2312.94 1529.87 Q2312.94 1522.75 2311.11 1519.2 Q2309.3 1515.64 2305.67 1515.64 M2305.67 1511.93 Q2311.48 1511.93 2314.53 1516.54 Q2317.61 1521.12 2317.61 1529.87 Q2317.61 1538.6 2314.53 1543.21 Q2311.48 1547.79 2305.67 1547.79 Q2299.86 1547.79 2296.78 1543.21 Q2293.72 1538.6 2293.72 1529.87 Q2293.72 1521.12 2296.78 1516.54 Q2299.86 1511.93 2305.67 1511.93 Z" fill="#000000" fill-rule="evenodd" fill-opacity="1" /><polyline clip-path="url(#clip402)" style="stroke:#000000; stroke-linecap:butt; stroke-linejoin:round; stroke-width:2; stroke-opacity:0.1; fill:none" points="
  192.941,1251.95 2352.76,1251.95 
  "/>
<polyline clip-path="url(#clip402)" style="stroke:#000000; stroke-linecap:butt; stroke-linejoin:round; stroke-width:2; stroke-opacity:0.1; fill:none" points="
  192.941,978 2352.76,978 
  "/>
<polyline clip-path="url(#clip402)" style="stroke:#000000; stroke-linecap:butt; stroke-linejoin:round; stroke-width:2; stroke-opacity:0.1; fill:none" points="
  192.941,704.05 2352.76,704.05 
  "/>
<polyline clip-path="url(#clip402)" style="stroke:#000000; stroke-linecap:butt; stroke-linejoin:round; stroke-width:2; stroke-opacity:0.1; fill:none" points="
  192.941,430.1 2352.76,430.1 
  "/>
<polyline clip-path="url(#clip402)" style="stroke:#000000; stroke-linecap:butt; stroke-linejoin:round; stroke-width:2; stroke-opacity:0.1; fill:none" points="
  192.941,156.15 2352.76,156.15 
  "/>
<polyline clip-path="url(#clip400)" style="stroke:#000000; stroke-linecap:butt; stroke-linejoin:round; stroke-width:4; stroke-opacity:1; fill:none" points="
  192.941,1486.45 192.941,123.472 
  "/>
<polyline clip-path="url(#clip400)" style="stroke:#000000; stroke-linecap:butt; stroke-linejoin:round; stroke-width:4; stroke-opacity:1; fill:none" points="
  192.941,1251.95 211.838,1251.95 
  "/>
<polyline clip-path="url(#clip400)" style="stroke:#000000; stroke-linecap:butt; stroke-linejoin:round; stroke-width:4; stroke-opacity:1; fill:none" points="
  192.941,978 211.838,978 
  "/>
<polyline clip-path="url(#clip400)" style="stroke:#000000; stroke-linecap:butt; stroke-linejoin:round; stroke-width:4; stroke-opacity:1; fill:none" points="
  192.941,704.05 211.838,704.05 
  "/>
<polyline clip-path="url(#clip400)" style="stroke:#000000; stroke-linecap:butt; stroke-linejoin:round; stroke-width:4; stroke-opacity:1; fill:none" points="
  192.941,430.1 211.838,430.1 
  "/>
<polyline clip-path="url(#clip400)" style="stroke:#000000; stroke-linecap:butt; stroke-linejoin:round; stroke-width:4; stroke-opacity:1; fill:none" points="
  192.941,156.15 211.838,156.15 
  "/>
<path clip-path="url(#clip400)" d="M50.9921 1252.4 L80.6679 1252.4 L80.6679 1256.34 L50.9921 1256.34 L50.9921 1252.4 Z" fill="#000000" fill-rule="evenodd" fill-opacity="1" /><path clip-path="url(#clip400)" d="M100.76 1237.75 Q97.1493 1237.75 95.3206 1241.31 Q93.515 1244.86 93.515 1251.99 Q93.515 1259.09 95.3206 1262.66 Q97.1493 1266.2 100.76 1266.2 Q104.395 1266.2 106.2 1262.66 Q108.029 1259.09 108.029 1251.99 Q108.029 1244.86 106.2 1241.31 Q104.395 1237.75 100.76 1237.75 M100.76 1234.05 Q106.571 1234.05 109.626 1238.65 Q112.705 1243.24 112.705 1251.99 Q112.705 1260.71 109.626 1265.32 Q106.571 1269.9 100.76 1269.9 Q94.9502 1269.9 91.8715 1265.32 Q88.816 1260.71 88.816 1251.99 Q88.816 1243.24 91.8715 1238.65 Q94.9502 1234.05 100.76 1234.05 Z" fill="#000000" fill-rule="evenodd" fill-opacity="1" /><path clip-path="url(#clip400)" d="M120.922 1263.35 L125.807 1263.35 L125.807 1269.23 L120.922 1269.23 L120.922 1263.35 Z" fill="#000000" fill-rule="evenodd" fill-opacity="1" /><path clip-path="url(#clip400)" d="M136.038 1234.67 L154.394 1234.67 L154.394 1238.61 L140.32 1238.61 L140.32 1247.08 Q141.339 1246.73 142.357 1246.57 Q143.376 1246.38 144.394 1246.38 Q150.181 1246.38 153.561 1249.55 Q156.941 1252.73 156.941 1258.14 Q156.941 1263.72 153.468 1266.82 Q149.996 1269.9 143.677 1269.9 Q141.501 1269.9 139.232 1269.53 Q136.987 1269.16 134.58 1268.42 L134.58 1263.72 Q136.663 1264.86 138.885 1265.41 Q141.107 1265.97 143.584 1265.97 Q147.589 1265.97 149.927 1263.86 Q152.265 1261.75 152.265 1258.14 Q152.265 1254.53 149.927 1252.43 Q147.589 1250.32 143.584 1250.32 Q141.709 1250.32 139.834 1250.74 Q137.982 1251.15 136.038 1252.03 L136.038 1234.67 Z" fill="#000000" fill-rule="evenodd" fill-opacity="1" /><path clip-path="url(#clip400)" d="M99.765 963.799 Q96.1539 963.799 94.3252 967.364 Q92.5197 970.906 92.5197 978.035 Q92.5197 985.142 94.3252 988.706 Q96.1539 992.248 99.765 992.248 Q103.399 992.248 105.205 988.706 Q107.033 985.142 107.033 978.035 Q107.033 970.906 105.205 967.364 Q103.399 963.799 99.765 963.799 M99.765 960.095 Q105.575 960.095 108.631 964.702 Q111.709 969.285 111.709 978.035 Q111.709 986.762 108.631 991.368 Q105.575 995.952 99.765 995.952 Q93.9549 995.952 90.8762 991.368 Q87.8206 986.762 87.8206 978.035 Q87.8206 969.285 90.8762 964.702 Q93.9549 960.095 99.765 960.095 Z" fill="#000000" fill-rule="evenodd" fill-opacity="1" /><path clip-path="url(#clip400)" d="M119.927 989.401 L124.811 989.401 L124.811 995.28 L119.927 995.28 L119.927 989.401 Z" fill="#000000" fill-rule="evenodd" fill-opacity="1" /><path clip-path="url(#clip400)" d="M144.996 963.799 Q141.385 963.799 139.556 967.364 Q137.751 970.906 137.751 978.035 Q137.751 985.142 139.556 988.706 Q141.385 992.248 144.996 992.248 Q148.63 992.248 150.436 988.706 Q152.265 985.142 152.265 978.035 Q152.265 970.906 150.436 967.364 Q148.63 963.799 144.996 963.799 M144.996 960.095 Q150.806 960.095 153.862 964.702 Q156.941 969.285 156.941 978.035 Q156.941 986.762 153.862 991.368 Q150.806 995.952 144.996 995.952 Q139.186 995.952 136.107 991.368 Q133.052 986.762 133.052 978.035 Q133.052 969.285 136.107 964.702 Q139.186 960.095 144.996 960.095 Z" fill="#000000" fill-rule="evenodd" fill-opacity="1" /><path clip-path="url(#clip400)" d="M100.76 689.849 Q97.1493 689.849 95.3206 693.414 Q93.515 696.955 93.515 704.085 Q93.515 711.191 95.3206 714.756 Q97.1493 718.298 100.76 718.298 Q104.395 718.298 106.2 714.756 Q108.029 711.191 108.029 704.085 Q108.029 696.955 106.2 693.414 Q104.395 689.849 100.76 689.849 M100.76 686.145 Q106.571 686.145 109.626 690.752 Q112.705 695.335 112.705 704.085 Q112.705 712.812 109.626 717.418 Q106.571 722.002 100.76 722.002 Q94.9502 722.002 91.8715 717.418 Q88.816 712.812 88.816 704.085 Q88.816 695.335 91.8715 690.752 Q94.9502 686.145 100.76 686.145 Z" fill="#000000" fill-rule="evenodd" fill-opacity="1" /><path clip-path="url(#clip400)" d="M120.922 715.451 L125.807 715.451 L125.807 721.33 L120.922 721.33 L120.922 715.451 Z" fill="#000000" fill-rule="evenodd" fill-opacity="1" /><path clip-path="url(#clip400)" d="M136.038 686.77 L154.394 686.77 L154.394 690.705 L140.32 690.705 L140.32 699.178 Q141.339 698.83 142.357 698.668 Q143.376 698.483 144.394 698.483 Q150.181 698.483 153.561 701.654 Q156.941 704.826 156.941 710.242 Q156.941 715.821 153.468 718.923 Q149.996 722.002 143.677 722.002 Q141.501 722.002 139.232 721.631 Q136.987 721.261 134.58 720.52 L134.58 715.821 Q136.663 716.955 138.885 717.511 Q141.107 718.066 143.584 718.066 Q147.589 718.066 149.927 715.96 Q152.265 713.853 152.265 710.242 Q152.265 706.631 149.927 704.525 Q147.589 702.418 143.584 702.418 Q141.709 702.418 139.834 702.835 Q137.982 703.252 136.038 704.131 L136.038 686.77 Z" fill="#000000" fill-rule="evenodd" fill-opacity="1" /><path clip-path="url(#clip400)" d="M90.5752 443.445 L98.2141 443.445 L98.2141 417.079 L89.904 418.746 L89.904 414.487 L98.1678 412.82 L102.844 412.82 L102.844 443.445 L110.483 443.445 L110.483 447.38 L90.5752 447.38 L90.5752 443.445 Z" fill="#000000" fill-rule="evenodd" fill-opacity="1" /><path clip-path="url(#clip400)" d="M119.927 441.5 L124.811 441.5 L124.811 447.38 L119.927 447.38 L119.927 441.5 Z" fill="#000000" fill-rule="evenodd" fill-opacity="1" /><path clip-path="url(#clip400)" d="M144.996 415.899 Q141.385 415.899 139.556 419.464 Q137.751 423.005 137.751 430.135 Q137.751 437.241 139.556 440.806 Q141.385 444.348 144.996 444.348 Q148.63 444.348 150.436 440.806 Q152.265 437.241 152.265 430.135 Q152.265 423.005 150.436 419.464 Q148.63 415.899 144.996 415.899 M144.996 412.195 Q150.806 412.195 153.862 416.802 Q156.941 421.385 156.941 430.135 Q156.941 438.862 153.862 443.468 Q150.806 448.051 144.996 448.051 Q139.186 448.051 136.107 443.468 Q133.052 438.862 133.052 430.135 Q133.052 421.385 136.107 416.802 Q139.186 412.195 144.996 412.195 Z" fill="#000000" fill-rule="evenodd" fill-opacity="1" /><path clip-path="url(#clip400)" d="M91.5706 169.495 L99.2095 169.495 L99.2095 143.129 L90.8993 144.796 L90.8993 140.537 L99.1632 138.87 L103.839 138.87 L103.839 169.495 L111.478 169.495 L111.478 173.43 L91.5706 173.43 L91.5706 169.495 Z" fill="#000000" fill-rule="evenodd" fill-opacity="1" /><path clip-path="url(#clip400)" d="M120.922 167.55 L125.807 167.55 L125.807 173.43 L120.922 173.43 L120.922 167.55 Z" fill="#000000" fill-rule="evenodd" fill-opacity="1" /><path clip-path="url(#clip400)" d="M136.038 138.87 L154.394 138.87 L154.394 142.805 L140.32 142.805 L140.32 151.277 Q141.339 150.93 142.357 150.768 Q143.376 150.583 144.394 150.583 Q150.181 150.583 153.561 153.754 Q156.941 156.925 156.941 162.342 Q156.941 167.921 153.468 171.022 Q149.996 174.101 143.677 174.101 Q141.501 174.101 139.232 173.731 Q136.987 173.36 134.58 172.62 L134.58 167.921 Q136.663 169.055 138.885 169.61 Q141.107 170.166 143.584 170.166 Q147.589 170.166 149.927 168.06 Q152.265 165.953 152.265 162.342 Q152.265 158.731 149.927 156.624 Q147.589 154.518 143.584 154.518 Q141.709 154.518 139.834 154.935 Q137.982 155.351 136.038 156.231 L136.038 138.87 Z" fill="#000000" fill-rule="evenodd" fill-opacity="1" /><path clip-path="url(#clip400)" d="M1015.66 44.2197 Q1018.29 45.1109 1020.76 48.0275 Q1023.27 50.9442 1025.78 56.0483 L1034.09 72.576 L1025.3 72.576 L1017.56 57.061 Q1014.56 50.9847 1011.73 48.9997 Q1008.93 47.0148 1004.07 47.0148 L995.159 47.0148 L995.159 72.576 L986.976 72.576 L986.976 12.096 L1005.45 12.096 Q1015.82 12.096 1020.92 16.4305 Q1026.03 20.7649 1026.03 29.5149 Q1026.03 35.2267 1023.35 38.994 Q1020.72 42.7613 1015.66 44.2197 M995.159 18.8205 L995.159 40.2903 L1005.45 40.2903 Q1011.36 40.2903 1014.36 37.5762 Q1017.4 34.8216 1017.4 29.5149 Q1017.4 24.2082 1014.36 21.5346 Q1011.36 18.8205 1005.45 18.8205 L995.159 18.8205 Z" fill="#000000" fill-rule="evenodd" fill-opacity="1" /><path clip-path="url(#clip400)" d="M1058.15 32.4315 Q1052.16 32.4315 1048.67 37.1306 Q1045.19 41.7891 1045.19 49.9314 Q1045.19 58.0738 1048.63 62.7728 Q1052.11 67.4314 1058.15 67.4314 Q1064.11 67.4314 1067.59 62.7323 Q1071.07 58.0333 1071.07 49.9314 Q1071.07 41.8701 1067.59 37.1711 Q1064.11 32.4315 1058.15 32.4315 M1058.15 26.1121 Q1067.87 26.1121 1073.42 32.4315 Q1078.97 38.7509 1078.97 49.9314 Q1078.97 61.0714 1073.42 67.4314 Q1067.87 73.7508 1058.15 73.7508 Q1048.39 73.7508 1042.84 67.4314 Q1037.33 61.0714 1037.33 49.9314 Q1037.33 38.7509 1042.84 32.4315 Q1048.39 26.1121 1058.15 26.1121 Z" fill="#000000" fill-rule="evenodd" fill-opacity="1" /><path clip-path="url(#clip400)" d="M1091.33 9.54393 L1098.78 9.54393 L1098.78 72.576 L1091.33 72.576 L1091.33 9.54393 Z" fill="#000000" fill-rule="evenodd" fill-opacity="1" /><path clip-path="url(#clip400)" d="M1114.38 9.54393 L1121.83 9.54393 L1121.83 72.576 L1114.38 72.576 L1114.38 9.54393 Z" fill="#000000" fill-rule="evenodd" fill-opacity="1" /><path clip-path="url(#clip400)" d="M1137.43 27.2059 L1144.88 27.2059 L1144.88 72.576 L1137.43 72.576 L1137.43 27.2059 M1137.43 9.54393 L1144.88 9.54393 L1144.88 18.9825 L1137.43 18.9825 L1137.43 9.54393 Z" fill="#000000" fill-rule="evenodd" fill-opacity="1" /><path clip-path="url(#clip400)" d="M1198.19 45.1919 L1198.19 72.576 L1190.74 72.576 L1190.74 45.4349 Q1190.74 38.994 1188.22 35.7938 Q1185.71 32.5936 1180.69 32.5936 Q1174.65 32.5936 1171.17 36.4419 Q1167.69 40.2903 1167.69 46.9338 L1167.69 72.576 L1160.19 72.576 L1160.19 27.2059 L1167.69 27.2059 L1167.69 34.2544 Q1170.36 30.163 1173.97 28.1376 Q1177.61 26.1121 1182.35 26.1121 Q1190.17 26.1121 1194.18 30.9732 Q1198.19 35.7938 1198.19 45.1919 Z" fill="#000000" fill-rule="evenodd" fill-opacity="1" /><path clip-path="url(#clip400)" d="M1242.91 49.3643 Q1242.91 41.2625 1239.55 36.8065 Q1236.23 32.3505 1230.19 32.3505 Q1224.2 32.3505 1220.83 36.8065 Q1217.51 41.2625 1217.51 49.3643 Q1217.51 57.4256 1220.83 61.8816 Q1224.2 66.3376 1230.19 66.3376 Q1236.23 66.3376 1239.55 61.8816 Q1242.91 57.4256 1242.91 49.3643 M1250.37 66.9452 Q1250.37 78.5308 1245.22 84.1616 Q1240.08 89.8329 1229.46 89.8329 Q1225.53 89.8329 1222.05 89.2252 Q1218.57 88.6581 1215.28 87.4428 L1215.28 80.1917 Q1218.57 81.9741 1221.77 82.8248 Q1224.97 83.6755 1228.29 83.6755 Q1235.62 83.6755 1239.27 79.8271 Q1242.91 76.0193 1242.91 68.282 L1242.91 64.5957 Q1240.6 68.6061 1237 70.5911 Q1233.39 72.576 1228.37 72.576 Q1220.02 72.576 1214.92 66.2161 Q1209.82 59.8562 1209.82 49.3643 Q1209.82 38.832 1214.92 32.472 Q1220.02 26.1121 1228.37 26.1121 Q1233.39 26.1121 1237 28.0971 Q1240.6 30.082 1242.91 34.0924 L1242.91 27.2059 L1250.37 27.2059 L1250.37 66.9452 Z" fill="#000000" fill-rule="evenodd" fill-opacity="1" /><path clip-path="url(#clip400)" d="M1327.41 35.9153 Q1330.21 30.8922 1334.1 28.5022 Q1337.99 26.1121 1343.25 26.1121 Q1350.34 26.1121 1354.19 31.0947 Q1358.04 36.0368 1358.04 45.1919 L1358.04 72.576 L1350.54 72.576 L1350.54 45.4349 Q1350.54 38.913 1348.24 35.7533 Q1345.93 32.5936 1341.19 32.5936 Q1335.39 32.5936 1332.03 36.4419 Q1328.67 40.2903 1328.67 46.9338 L1328.67 72.576 L1321.18 72.576 L1321.18 45.4349 Q1321.18 38.8725 1318.87 35.7533 Q1316.56 32.5936 1311.74 32.5936 Q1306.03 32.5936 1302.66 36.4824 Q1299.3 40.3308 1299.3 46.9338 L1299.3 72.576 L1291.81 72.576 L1291.81 27.2059 L1299.3 27.2059 L1299.3 34.2544 Q1301.85 30.082 1305.42 28.0971 Q1308.98 26.1121 1313.88 26.1121 Q1318.83 26.1121 1322.27 28.6237 Q1325.75 31.1352 1327.41 35.9153 Z" fill="#000000" fill-rule="evenodd" fill-opacity="1" /><path clip-path="url(#clip400)" d="M1411.71 48.0275 L1411.71 51.6733 L1377.44 51.6733 Q1377.93 59.3701 1382.06 63.421 Q1386.23 67.4314 1393.65 67.4314 Q1397.94 67.4314 1401.95 66.3781 Q1406 65.3249 1409.97 63.2184 L1409.97 70.267 Q1405.96 71.9684 1401.75 72.8596 Q1397.54 73.7508 1393.2 73.7508 Q1382.34 73.7508 1375.98 67.4314 Q1369.66 61.1119 1369.66 50.3365 Q1369.66 39.1965 1375.66 32.6746 Q1381.7 26.1121 1391.9 26.1121 Q1401.06 26.1121 1406.37 32.0264 Q1411.71 37.9003 1411.71 48.0275 M1404.26 45.84 Q1404.18 39.7232 1400.82 36.0774 Q1397.49 32.4315 1391.99 32.4315 Q1385.75 32.4315 1381.98 35.9558 Q1378.25 39.4801 1377.69 45.8805 L1404.26 45.84 Z" fill="#000000" fill-rule="evenodd" fill-opacity="1" /><path clip-path="url(#clip400)" d="M1444.57 49.7694 Q1435.53 49.7694 1432.05 51.8354 Q1428.57 53.9013 1428.57 58.8839 Q1428.57 62.8538 1431.16 65.2034 Q1433.79 67.5124 1438.29 67.5124 Q1444.49 67.5124 1448.21 63.1374 Q1451.98 58.7219 1451.98 51.4303 L1451.98 49.7694 L1444.57 49.7694 M1459.43 46.6907 L1459.43 72.576 L1451.98 72.576 L1451.98 65.6895 Q1449.43 69.8214 1445.62 71.8063 Q1441.81 73.7508 1436.3 73.7508 Q1429.33 73.7508 1425.2 69.8619 Q1421.11 65.9325 1421.11 59.3701 Q1421.11 51.7138 1426.22 47.825 Q1431.36 43.9361 1441.53 43.9361 L1451.98 43.9361 L1451.98 43.2069 Q1451.98 38.0623 1448.58 35.2672 Q1445.21 32.4315 1439.1 32.4315 Q1435.21 32.4315 1431.52 33.3632 Q1427.84 34.295 1424.43 36.1584 L1424.43 29.2718 Q1428.52 27.692 1432.37 26.9223 Q1436.22 26.1121 1439.87 26.1121 Q1449.71 26.1121 1454.57 31.2163 Q1459.43 36.3204 1459.43 46.6907 Z" fill="#000000" fill-rule="evenodd" fill-opacity="1" /><path clip-path="url(#clip400)" d="M1512.5 45.1919 L1512.5 72.576 L1505.05 72.576 L1505.05 45.4349 Q1505.05 38.994 1502.53 35.7938 Q1500.02 32.5936 1495 32.5936 Q1488.96 32.5936 1485.48 36.4419 Q1482 40.2903 1482 46.9338 L1482 72.576 L1474.5 72.576 L1474.5 27.2059 L1482 27.2059 L1482 34.2544 Q1484.67 30.163 1488.28 28.1376 Q1491.92 26.1121 1496.66 26.1121 Q1504.48 26.1121 1508.49 30.9732 Q1512.5 35.7938 1512.5 45.1919 Z" fill="#000000" fill-rule="evenodd" fill-opacity="1" /><path clip-path="url(#clip400)" d="M1556.29 28.5427 L1556.29 35.5912 Q1553.13 33.9709 1549.73 33.1607 Q1546.32 32.3505 1542.68 32.3505 Q1537.13 32.3505 1534.33 34.0519 Q1531.58 35.7533 1531.58 39.156 Q1531.58 41.7486 1533.56 43.2475 Q1535.55 44.7058 1541.54 46.0426 L1544.1 46.6097 Q1552.04 48.3111 1555.36 51.4303 Q1558.72 54.509 1558.72 60.0587 Q1558.72 66.3781 1553.7 70.0644 Q1548.71 73.7508 1539.96 73.7508 Q1536.32 73.7508 1532.35 73.0216 Q1528.42 72.3329 1524.04 70.9151 L1524.04 63.2184 Q1528.18 65.3654 1532.19 66.4591 Q1536.2 67.5124 1540.13 67.5124 Q1545.39 67.5124 1548.23 65.73 Q1551.06 63.9071 1551.06 60.6258 Q1551.06 57.5877 1549 55.9673 Q1546.97 54.3469 1540.05 52.8481 L1537.45 52.2405 Q1530.53 50.7821 1527.45 47.7845 Q1524.37 44.7463 1524.37 39.4801 Q1524.37 33.0797 1528.91 29.5959 Q1533.44 26.1121 1541.79 26.1121 Q1545.92 26.1121 1549.57 26.7198 Q1553.21 27.3274 1556.29 28.5427 Z" fill="#000000" fill-rule="evenodd" fill-opacity="1" /><polyline clip-path="url(#clip402)" style="stroke:#009af9; stroke-linecap:butt; stroke-linejoin:round; stroke-width:4; stroke-opacity:1; fill:none" points="
  254.067,488.44 274.649,431.656 295.23,349.524 315.812,396.068 336.393,355.182 356.975,162.047 377.556,325.671 398.137,322.227 418.719,164.706 439.3,266.518 
  459.882,222.835 480.463,397.133 501.045,322.694 521.626,455.835 542.208,355.353 562.789,453.498 583.37,561.744 603.952,648.753 624.533,688.555 645.115,565.48 
  665.696,712.551 686.278,679.329 706.859,845.295 727.44,880.768 748.022,843.237 768.603,882.577 789.185,1091.16 809.766,999.791 830.348,1042 850.929,1185.47 
  871.51,1252.76 892.092,1056.54 912.673,1117.47 933.255,1254.82 953.836,1236.09 974.418,1201.08 994.999,1359.74 1015.58,1248.86 1036.16,1343.86 1056.74,1256.24 
  1077.32,1313.04 1097.91,1397.57 1118.49,1405.74 1139.07,1370.45 1159.65,1327.79 1180.23,1447.87 1200.81,1442.88 1221.39,1203.13 1241.98,1254.19 1262.56,1309.72 
  1283.14,1080.95 1303.72,1145.19 1324.3,1031 1344.88,985.059 1365.46,1022.65 1386.05,899.996 1406.63,841.154 1427.21,905.107 1447.79,861.565 1468.37,887.752 
  1488.95,759.745 1509.53,570.315 1530.12,697.558 1550.7,669.653 1571.28,527.294 1591.86,520.298 1612.44,563.157 1633.02,321.618 1653.6,396.772 1674.19,297.692 
  1694.77,239.079 1715.35,302.504 1735.93,293.415 1756.51,299.945 1777.09,282.271 1797.67,261.994 1818.26,369.034 1838.84,375.735 1859.42,203.809 1880,248.357 
  1900.58,204.043 1921.16,446.549 1941.74,477.542 1962.33,306.013 1982.91,383.327 2003.49,382.953 2024.07,500.022 2044.65,559.9 2065.23,481.869 2085.81,541.357 
  2106.4,597.754 2126.98,692.155 2147.56,877.411 2168.14,758.786 2188.72,982.398 2209.3,1091.54 2229.88,906.702 2250.47,1057.57 2271.05,1120.19 2291.63,1068.46 
  
  "/>
<polyline clip-path="url(#clip402)" style="stroke:#e26f46; stroke-linecap:butt; stroke-linejoin:round; stroke-width:8; stroke-opacity:1; fill:none" points="
  336.393,404.174 356.975,338.895 377.556,317.698 398.137,312.239 418.719,265.967 439.3,248.234 459.882,260.391 480.463,274.684 501.045,274.777 521.626,333.003 
  542.208,350.77 562.789,396.903 583.37,429.825 603.952,495.037 624.533,541.581 645.115,583.606 665.696,635.417 686.278,658.934 706.859,698.242 727.44,736.685 
  748.022,792.236 768.603,826.241 789.185,908.608 809.766,939.507 830.348,971.753 850.929,1040.2 871.51,1114.24 892.092,1107.31 912.673,1130.85 933.255,1173.41 
  953.836,1183.54 974.418,1173.2 994.999,1233.84 1015.58,1260.12 1036.16,1277.93 1056.74,1281.96 1077.32,1304.35 1097.91,1311.91 1118.49,1343.29 1139.07,1348.61 
  1159.65,1362.92 1180.23,1389.88 1200.81,1398.95 1221.39,1358.43 1241.98,1335.17 1262.56,1331.56 1283.14,1258.18 1303.72,1198.64 1324.3,1164.21 1344.88,1110.38 
  1365.46,1052.97 1386.05,1016.78 1406.63,955.971 1427.21,930.792 1447.79,906.093 1468.37,879.115 1488.95,851.065 1509.53,796.897 1530.12,755.387 1550.7,717.005 
  1571.28,644.913 1591.86,597.024 1612.44,595.592 1633.02,520.404 1653.6,465.828 1674.19,419.907 1694.77,363.664 1715.35,311.533 1735.93,305.892 1756.51,286.527 
  1777.09,283.443 1797.67,288.026 1818.26,301.332 1838.84,317.796 1859.42,298.569 1880,291.786 1900.58,280.196 1921.16,295.699 1941.74,316.06 1962.33,336.501 
  1982.91,363.495 2003.49,399.277 2024.07,409.971 2044.65,426.443 2065.23,461.614 2085.81,493.22 2106.4,536.18 2126.98,574.607 2147.56,638.109 2168.14,693.493 
  2188.72,781.701 2209.3,880.459 2229.88,923.368 2250.47,959.4 2271.05,1031.68 2291.63,1048.89 
  "/>
<polyline clip-path="url(#clip402)" style="stroke:#3da44d; stroke-linecap:butt; stroke-linejoin:round; stroke-width:8; stroke-opacity:1; fill:none" points="
  439.3,326.204 459.882,299.643 480.463,296.191 501.045,293.508 521.626,299.485 542.208,299.502 562.789,328.647 583.37,352.254 603.952,384.907 624.533,437.292 
  645.115,467.188 665.696,516.16 686.278,544.379 706.859,596.639 727.44,639.133 748.022,687.921 768.603,730.829 789.185,783.771 809.766,818.875 830.348,854.219 
  850.929,916.218 871.51,970.239 892.092,1007.96 912.673,1035.18 933.255,1072.58 953.836,1111.87 974.418,1143.72 994.999,1170.58 1015.58,1195.48 1036.16,1225.67 
  1056.74,1232.75 1077.32,1238.78 1097.91,1272.88 1118.49,1301.7 1139.07,1313.27 1159.65,1322.44 1180.23,1347.12 1200.81,1355.43 1221.39,1350.86 1241.98,1341.89 
  1262.56,1347.24 1283.14,1324.03 1303.72,1298.79 1324.3,1261.32 1344.88,1222.78 1365.46,1192.26 1386.05,1137.48 1406.63,1077.3 1427.21,1047.5 1447.79,1008.24 
  1468.37,966.042 1488.95,933.921 1509.53,876.434 1530.12,843.09 1550.7,811.549 1571.28,762.014 1591.86,724.044 1612.44,696.245 1633.02,637.896 1653.6,591.416 
  1674.19,532.41 1694.77,480.344 1715.35,453.563 1735.93,413.148 1756.51,376.177 1777.09,351.675 1797.67,325.845 1818.26,306.432 1838.84,311.844 1859.42,292.548 
  1880,287.614 1900.58,284.111 1921.16,298.515 1941.74,316.928 1962.33,317.535 1982.91,327.64 2003.49,339.736 2024.07,352.835 2044.65,371.252 2065.23,399.057 
  2085.81,428.357 2106.4,467.729 2126.98,492.289 2147.56,532.276 2168.14,577.553 2188.72,637.461 2209.3,708.32 2229.88,748.988 2250.47,798.755 2271.05,862.587 
  2291.63,915.297 
  "/>
<polyline clip-path="url(#clip402)" style="stroke:#c271d2; stroke-linecap:butt; stroke-linejoin:round; stroke-width:8; stroke-opacity:1; fill:none" points="
  645.115,396.696 665.696,407.902 686.278,420.285 706.859,445.074 727.44,469.309 748.022,493.712 768.603,529.738 789.185,568.013 809.766,601.891 830.348,645.756 
  850.929,691.703 871.51,743.199 892.092,776.17 912.673,815.909 933.255,855.858 953.836,899.895 974.418,937.274 994.999,977.174 1015.58,1007.18 1036.16,1039.94 
  1056.74,1074.48 1077.32,1104.51 1097.91,1140.42 1118.49,1168.44 1139.07,1192.93 1159.65,1217.15 1180.23,1245.42 1200.81,1263 1221.39,1273.17 1241.98,1283.78 
  1262.56,1289.99 1283.14,1281.4 1303.72,1285.83 1324.3,1281.51 1344.88,1268.02 1365.46,1257.35 1386.05,1242.3 1406.63,1216.37 1427.21,1199.18 1447.79,1175.06 
  1468.37,1156.64 1488.95,1128.98 1509.53,1087.61 1530.12,1052.2 1550.7,1017.16 1571.28,977.139 1591.86,930.76 1612.44,886.774 1633.02,842.698 1653.6,799.828 
  1674.19,749.226 1694.77,707.133 1715.35,664.998 1735.93,628.119 1756.51,593.863 1777.09,556.844 1797.67,524.944 1818.26,501.338 1838.84,474.87 1859.42,441.982 
  1880,410.012 1900.58,382.227 1921.16,376.039 1941.74,365.038 1962.33,346.856 1982.91,339.658 2003.49,332.79 2024.07,329.634 2044.65,341.548 2065.23,345.803 
  2085.81,357.986 2106.4,375.92 2126.98,395.402 2147.56,424.602 2168.14,447.544 2188.72,482.55 2209.3,524.028 2229.88,550.911 2250.47,585.003 2271.05,630.822 
  2291.63,671.827 
  "/>
<path clip-path="url(#clip400)" d="
M1838.4 428.105 L2280.76 428.105 L2280.76 168.905 L1838.4 168.905  Z
  " fill="#ffffff" fill-rule="evenodd" fill-opacity="1"/>
<polyline clip-path="url(#clip400)" style="stroke:#000000; stroke-linecap:butt; stroke-linejoin:round; stroke-width:4; stroke-opacity:1; fill:none" points="
  1838.4,428.105 2280.76,428.105 2280.76,168.905 1838.4,168.905 1838.4,428.105 
  "/>
<polyline clip-path="url(#clip400)" style="stroke:#009af9; stroke-linecap:butt; stroke-linejoin:round; stroke-width:4; stroke-opacity:1; fill:none" points="
  1862.4,220.745 2006.39,220.745 
  "/>
<path clip-path="url(#clip400)" d="M2045.57 216.08 Q2044.85 215.664 2043.99 215.478 Q2043.16 215.27 2042.14 215.27 Q2038.53 215.27 2036.59 217.631 Q2034.67 219.969 2034.67 224.367 L2034.67 238.025 L2030.38 238.025 L2030.38 212.099 L2034.67 212.099 L2034.67 216.127 Q2036.01 213.766 2038.16 212.631 Q2040.31 211.474 2043.39 211.474 Q2043.83 211.474 2044.36 211.543 Q2044.9 211.59 2045.54 211.705 L2045.57 216.08 Z" fill="#000000" fill-rule="evenodd" fill-opacity="1" /><path clip-path="url(#clip400)" d="M2061.82 224.992 Q2056.66 224.992 2054.67 226.173 Q2052.67 227.353 2052.67 230.201 Q2052.67 232.469 2054.16 233.812 Q2055.66 235.131 2058.23 235.131 Q2061.77 235.131 2063.9 232.631 Q2066.05 230.108 2066.05 225.941 L2066.05 224.992 L2061.82 224.992 M2070.31 223.233 L2070.31 238.025 L2066.05 238.025 L2066.05 234.089 Q2064.6 236.451 2062.42 237.585 Q2060.24 238.696 2057.1 238.696 Q2053.11 238.696 2050.75 236.474 Q2048.42 234.228 2048.42 230.478 Q2048.42 226.103 2051.33 223.881 Q2054.27 221.659 2060.08 221.659 L2066.05 221.659 L2066.05 221.242 Q2066.05 218.303 2064.11 216.705 Q2062.19 215.085 2058.69 215.085 Q2056.47 215.085 2054.36 215.617 Q2052.26 216.15 2050.31 217.215 L2050.31 213.279 Q2052.65 212.377 2054.85 211.937 Q2057.05 211.474 2059.13 211.474 Q2064.76 211.474 2067.54 214.391 Q2070.31 217.307 2070.31 223.233 Z" fill="#000000" fill-rule="evenodd" fill-opacity="1" /><path clip-path="url(#clip400)" d="M2076.61 212.099 L2080.87 212.099 L2086.19 232.33 L2091.49 212.099 L2096.52 212.099 L2101.84 232.33 L2107.14 212.099 L2111.4 212.099 L2104.62 238.025 L2099.6 238.025 L2094.02 216.775 L2088.42 238.025 L2083.39 238.025 L2076.61 212.099 Z" fill="#000000" fill-rule="evenodd" fill-opacity="1" /><polyline clip-path="url(#clip400)" style="stroke:#e26f46; stroke-linecap:butt; stroke-linejoin:round; stroke-width:4; stroke-opacity:1; fill:none" points="
  1862.4,272.585 2006.39,272.585 
  "/>
<path clip-path="url(#clip400)" d="M2050.73 268.916 Q2052.33 266.045 2054.55 264.68 Q2056.77 263.314 2059.78 263.314 Q2063.83 263.314 2066.03 266.161 Q2068.23 268.985 2068.23 274.217 L2068.23 289.865 L2063.95 289.865 L2063.95 274.355 Q2063.95 270.629 2062.63 268.823 Q2061.31 267.018 2058.6 267.018 Q2055.29 267.018 2053.37 269.217 Q2051.45 271.416 2051.45 275.212 L2051.45 289.865 L2047.17 289.865 L2047.17 274.355 Q2047.17 270.605 2045.85 268.823 Q2044.53 267.018 2041.77 267.018 Q2038.51 267.018 2036.59 269.24 Q2034.67 271.439 2034.67 275.212 L2034.67 289.865 L2030.38 289.865 L2030.38 263.939 L2034.67 263.939 L2034.67 267.967 Q2036.12 265.582 2038.16 264.448 Q2040.2 263.314 2043 263.314 Q2045.82 263.314 2047.79 264.749 Q2049.78 266.184 2050.73 268.916 Z" fill="#000000" fill-rule="evenodd" fill-opacity="1" /><path clip-path="url(#clip400)" d="M2098.9 275.837 L2098.9 277.92 L2079.32 277.92 Q2079.6 282.318 2081.96 284.633 Q2084.34 286.925 2088.58 286.925 Q2091.03 286.925 2093.32 286.323 Q2095.64 285.721 2097.91 284.517 L2097.91 288.545 Q2095.61 289.517 2093.21 290.027 Q2090.8 290.536 2088.32 290.536 Q2082.12 290.536 2078.48 286.925 Q2074.87 283.314 2074.87 277.156 Q2074.87 270.791 2078.3 267.064 Q2081.75 263.314 2087.58 263.314 Q2092.81 263.314 2095.85 266.693 Q2098.9 270.05 2098.9 275.837 M2094.64 274.587 Q2094.6 271.092 2092.67 269.008 Q2090.78 266.925 2087.63 266.925 Q2084.06 266.925 2081.91 268.939 Q2079.78 270.953 2079.46 274.61 L2094.64 274.587 Z" fill="#000000" fill-rule="evenodd" fill-opacity="1" /><path clip-path="url(#clip400)" d="M2117.67 276.832 Q2112.51 276.832 2110.52 278.013 Q2108.53 279.193 2108.53 282.041 Q2108.53 284.309 2110.01 285.652 Q2111.52 286.971 2114.09 286.971 Q2117.63 286.971 2119.76 284.471 Q2121.91 281.948 2121.91 277.781 L2121.91 276.832 L2117.67 276.832 M2126.17 275.073 L2126.17 289.865 L2121.91 289.865 L2121.91 285.929 Q2120.45 288.291 2118.28 289.425 Q2116.1 290.536 2112.95 290.536 Q2108.97 290.536 2106.61 288.314 Q2104.27 286.068 2104.27 282.318 Q2104.27 277.943 2107.19 275.721 Q2110.13 273.499 2115.94 273.499 L2121.91 273.499 L2121.91 273.082 Q2121.91 270.143 2119.97 268.545 Q2118.04 266.925 2114.55 266.925 Q2112.33 266.925 2110.22 267.457 Q2108.11 267.99 2106.17 269.055 L2106.17 265.119 Q2108.51 264.217 2110.71 263.777 Q2112.91 263.314 2114.99 263.314 Q2120.61 263.314 2123.39 266.231 Q2126.17 269.147 2126.17 275.073 Z" fill="#000000" fill-rule="evenodd" fill-opacity="1" /><path clip-path="url(#clip400)" d="M2156.49 274.217 L2156.49 289.865 L2152.23 289.865 L2152.23 274.355 Q2152.23 270.675 2150.8 268.846 Q2149.36 267.018 2146.49 267.018 Q2143.04 267.018 2141.05 269.217 Q2139.06 271.416 2139.06 275.212 L2139.06 289.865 L2134.78 289.865 L2134.78 263.939 L2139.06 263.939 L2139.06 267.967 Q2140.59 265.629 2142.65 264.471 Q2144.73 263.314 2147.44 263.314 Q2151.91 263.314 2154.2 266.092 Q2156.49 268.846 2156.49 274.217 Z" fill="#000000" fill-rule="evenodd" fill-opacity="1" /><path clip-path="url(#clip400)" d="M2180.71 255.305 L2199.06 255.305 L2199.06 259.24 L2184.99 259.24 L2184.99 267.712 Q2186.01 267.365 2187.03 267.203 Q2188.04 267.018 2189.06 267.018 Q2194.85 267.018 2198.23 270.189 Q2201.61 273.36 2201.61 278.777 Q2201.61 284.355 2198.14 287.457 Q2194.66 290.536 2188.35 290.536 Q2186.17 290.536 2183.9 290.166 Q2181.66 289.795 2179.25 289.054 L2179.25 284.355 Q2181.33 285.49 2183.55 286.045 Q2185.78 286.601 2188.25 286.601 Q2192.26 286.601 2194.6 284.494 Q2196.93 282.388 2196.93 278.777 Q2196.93 275.166 2194.6 273.059 Q2192.26 270.953 2188.25 270.953 Q2186.38 270.953 2184.5 271.369 Q2182.65 271.786 2180.71 272.666 L2180.71 255.305 Z" fill="#000000" fill-rule="evenodd" fill-opacity="1" /><polyline clip-path="url(#clip400)" style="stroke:#3da44d; stroke-linecap:butt; stroke-linejoin:round; stroke-width:4; stroke-opacity:1; fill:none" points="
  1862.4,324.425 2006.39,324.425 
  "/>
<path clip-path="url(#clip400)" d="M2050.73 320.756 Q2052.33 317.885 2054.55 316.52 Q2056.77 315.154 2059.78 315.154 Q2063.83 315.154 2066.03 318.001 Q2068.23 320.825 2068.23 326.057 L2068.23 341.705 L2063.95 341.705 L2063.95 326.195 Q2063.95 322.469 2062.63 320.663 Q2061.31 318.858 2058.6 318.858 Q2055.29 318.858 2053.37 321.057 Q2051.45 323.256 2051.45 327.052 L2051.45 341.705 L2047.17 341.705 L2047.17 326.195 Q2047.17 322.445 2045.85 320.663 Q2044.53 318.858 2041.77 318.858 Q2038.51 318.858 2036.59 321.08 Q2034.67 323.279 2034.67 327.052 L2034.67 341.705 L2030.38 341.705 L2030.38 315.779 L2034.67 315.779 L2034.67 319.807 Q2036.12 317.422 2038.16 316.288 Q2040.2 315.154 2043 315.154 Q2045.82 315.154 2047.79 316.589 Q2049.78 318.024 2050.73 320.756 Z" fill="#000000" fill-rule="evenodd" fill-opacity="1" /><path clip-path="url(#clip400)" d="M2098.9 327.677 L2098.9 329.76 L2079.32 329.76 Q2079.6 334.158 2081.96 336.473 Q2084.34 338.765 2088.58 338.765 Q2091.03 338.765 2093.32 338.163 Q2095.64 337.561 2097.91 336.357 L2097.91 340.385 Q2095.61 341.357 2093.21 341.867 Q2090.8 342.376 2088.32 342.376 Q2082.12 342.376 2078.48 338.765 Q2074.87 335.154 2074.87 328.996 Q2074.87 322.631 2078.3 318.904 Q2081.75 315.154 2087.58 315.154 Q2092.81 315.154 2095.85 318.533 Q2098.9 321.89 2098.9 327.677 M2094.64 326.427 Q2094.6 322.932 2092.67 320.848 Q2090.78 318.765 2087.63 318.765 Q2084.06 318.765 2081.91 320.779 Q2079.78 322.793 2079.46 326.45 L2094.64 326.427 Z" fill="#000000" fill-rule="evenodd" fill-opacity="1" /><path clip-path="url(#clip400)" d="M2117.67 328.672 Q2112.51 328.672 2110.52 329.853 Q2108.53 331.033 2108.53 333.881 Q2108.53 336.149 2110.01 337.492 Q2111.52 338.811 2114.09 338.811 Q2117.63 338.811 2119.76 336.311 Q2121.91 333.788 2121.91 329.621 L2121.91 328.672 L2117.67 328.672 M2126.17 326.913 L2126.17 341.705 L2121.91 341.705 L2121.91 337.769 Q2120.45 340.131 2118.28 341.265 Q2116.1 342.376 2112.95 342.376 Q2108.97 342.376 2106.61 340.154 Q2104.27 337.908 2104.27 334.158 Q2104.27 329.783 2107.19 327.561 Q2110.13 325.339 2115.94 325.339 L2121.91 325.339 L2121.91 324.922 Q2121.91 321.983 2119.97 320.385 Q2118.04 318.765 2114.55 318.765 Q2112.33 318.765 2110.22 319.297 Q2108.11 319.83 2106.17 320.895 L2106.17 316.959 Q2108.51 316.057 2110.71 315.617 Q2112.91 315.154 2114.99 315.154 Q2120.61 315.154 2123.39 318.071 Q2126.17 320.987 2126.17 326.913 Z" fill="#000000" fill-rule="evenodd" fill-opacity="1" /><path clip-path="url(#clip400)" d="M2156.49 326.057 L2156.49 341.705 L2152.23 341.705 L2152.23 326.195 Q2152.23 322.515 2150.8 320.686 Q2149.36 318.858 2146.49 318.858 Q2143.04 318.858 2141.05 321.057 Q2139.06 323.256 2139.06 327.052 L2139.06 341.705 L2134.78 341.705 L2134.78 315.779 L2139.06 315.779 L2139.06 319.807 Q2140.59 317.469 2142.65 316.311 Q2144.73 315.154 2147.44 315.154 Q2151.91 315.154 2154.2 317.932 Q2156.49 320.686 2156.49 326.057 Z" fill="#000000" fill-rule="evenodd" fill-opacity="1" /><path clip-path="url(#clip400)" d="M2181.47 337.769 L2189.11 337.769 L2189.11 311.404 L2180.8 313.071 L2180.8 308.811 L2189.06 307.145 L2193.74 307.145 L2193.74 337.769 L2201.38 337.769 L2201.38 341.705 L2181.47 341.705 L2181.47 337.769 Z" fill="#000000" fill-rule="evenodd" fill-opacity="1" /><path clip-path="url(#clip400)" d="M2220.82 310.223 Q2217.21 310.223 2215.38 313.788 Q2213.58 317.33 2213.58 324.459 Q2213.58 331.566 2215.38 335.131 Q2217.21 338.672 2220.82 338.672 Q2224.46 338.672 2226.26 335.131 Q2228.09 331.566 2228.09 324.459 Q2228.09 317.33 2226.26 313.788 Q2224.46 310.223 2220.82 310.223 M2220.82 306.52 Q2226.63 306.52 2229.69 311.126 Q2232.77 315.709 2232.77 324.459 Q2232.77 333.186 2229.69 337.793 Q2226.63 342.376 2220.82 342.376 Q2215.01 342.376 2211.93 337.793 Q2208.88 333.186 2208.88 324.459 Q2208.88 315.709 2211.93 311.126 Q2215.01 306.52 2220.82 306.52 Z" fill="#000000" fill-rule="evenodd" fill-opacity="1" /><polyline clip-path="url(#clip400)" style="stroke:#c271d2; stroke-linecap:butt; stroke-linejoin:round; stroke-width:4; stroke-opacity:1; fill:none" points="
  1862.4,376.265 2006.39,376.265 
  "/>
<path clip-path="url(#clip400)" d="M2050.73 372.596 Q2052.33 369.725 2054.55 368.36 Q2056.77 366.994 2059.78 366.994 Q2063.83 366.994 2066.03 369.841 Q2068.23 372.665 2068.23 377.897 L2068.23 393.545 L2063.95 393.545 L2063.95 378.035 Q2063.95 374.309 2062.63 372.503 Q2061.31 370.698 2058.6 370.698 Q2055.29 370.698 2053.37 372.897 Q2051.45 375.096 2051.45 378.892 L2051.45 393.545 L2047.17 393.545 L2047.17 378.035 Q2047.17 374.285 2045.85 372.503 Q2044.53 370.698 2041.77 370.698 Q2038.51 370.698 2036.59 372.92 Q2034.67 375.119 2034.67 378.892 L2034.67 393.545 L2030.38 393.545 L2030.38 367.619 L2034.67 367.619 L2034.67 371.647 Q2036.12 369.262 2038.16 368.128 Q2040.2 366.994 2043 366.994 Q2045.82 366.994 2047.79 368.429 Q2049.78 369.864 2050.73 372.596 Z" fill="#000000" fill-rule="evenodd" fill-opacity="1" /><path clip-path="url(#clip400)" d="M2098.9 379.517 L2098.9 381.6 L2079.32 381.6 Q2079.6 385.998 2081.96 388.313 Q2084.34 390.605 2088.58 390.605 Q2091.03 390.605 2093.32 390.003 Q2095.64 389.401 2097.91 388.197 L2097.91 392.225 Q2095.61 393.197 2093.21 393.707 Q2090.8 394.216 2088.32 394.216 Q2082.12 394.216 2078.48 390.605 Q2074.87 386.994 2074.87 380.836 Q2074.87 374.471 2078.3 370.744 Q2081.75 366.994 2087.58 366.994 Q2092.81 366.994 2095.85 370.373 Q2098.9 373.73 2098.9 379.517 M2094.64 378.267 Q2094.6 374.772 2092.67 372.688 Q2090.78 370.605 2087.63 370.605 Q2084.06 370.605 2081.91 372.619 Q2079.78 374.633 2079.46 378.29 L2094.64 378.267 Z" fill="#000000" fill-rule="evenodd" fill-opacity="1" /><path clip-path="url(#clip400)" d="M2117.67 380.512 Q2112.51 380.512 2110.52 381.693 Q2108.53 382.873 2108.53 385.721 Q2108.53 387.989 2110.01 389.332 Q2111.52 390.651 2114.09 390.651 Q2117.63 390.651 2119.76 388.151 Q2121.91 385.628 2121.91 381.461 L2121.91 380.512 L2117.67 380.512 M2126.17 378.753 L2126.17 393.545 L2121.91 393.545 L2121.91 389.609 Q2120.45 391.971 2118.28 393.105 Q2116.1 394.216 2112.95 394.216 Q2108.97 394.216 2106.61 391.994 Q2104.27 389.748 2104.27 385.998 Q2104.27 381.623 2107.19 379.401 Q2110.13 377.179 2115.94 377.179 L2121.91 377.179 L2121.91 376.762 Q2121.91 373.823 2119.97 372.225 Q2118.04 370.605 2114.55 370.605 Q2112.33 370.605 2110.22 371.137 Q2108.11 371.67 2106.17 372.735 L2106.17 368.799 Q2108.51 367.897 2110.71 367.457 Q2112.91 366.994 2114.99 366.994 Q2120.61 366.994 2123.39 369.911 Q2126.17 372.827 2126.17 378.753 Z" fill="#000000" fill-rule="evenodd" fill-opacity="1" /><path clip-path="url(#clip400)" d="M2156.49 377.897 L2156.49 393.545 L2152.23 393.545 L2152.23 378.035 Q2152.23 374.355 2150.8 372.526 Q2149.36 370.698 2146.49 370.698 Q2143.04 370.698 2141.05 372.897 Q2139.06 375.096 2139.06 378.892 L2139.06 393.545 L2134.78 393.545 L2134.78 367.619 L2139.06 367.619 L2139.06 371.647 Q2140.59 369.309 2142.65 368.151 Q2144.73 366.994 2147.44 366.994 Q2151.91 366.994 2154.2 369.772 Q2156.49 372.526 2156.49 377.897 Z" fill="#000000" fill-rule="evenodd" fill-opacity="1" /><path clip-path="url(#clip400)" d="M2184.69 389.609 L2201.01 389.609 L2201.01 393.545 L2179.06 393.545 L2179.06 389.609 Q2181.72 386.855 2186.31 382.225 Q2190.91 377.573 2192.1 376.23 Q2194.34 373.707 2195.22 371.971 Q2196.12 370.211 2196.12 368.522 Q2196.12 365.767 2194.18 364.031 Q2192.26 362.295 2189.16 362.295 Q2186.96 362.295 2184.5 363.059 Q2182.07 363.823 2179.29 365.374 L2179.29 360.651 Q2182.12 359.517 2184.57 358.938 Q2187.03 358.36 2189.06 358.36 Q2194.43 358.36 2197.63 361.045 Q2200.82 363.73 2200.82 368.221 Q2200.82 370.35 2200.01 372.272 Q2199.22 374.17 2197.12 376.762 Q2196.54 377.434 2193.44 380.651 Q2190.34 383.846 2184.69 389.609 Z" fill="#000000" fill-rule="evenodd" fill-opacity="1" /><path clip-path="url(#clip400)" d="M2220.82 362.063 Q2217.21 362.063 2215.38 365.628 Q2213.58 369.17 2213.58 376.299 Q2213.58 383.406 2215.38 386.971 Q2217.21 390.512 2220.82 390.512 Q2224.46 390.512 2226.26 386.971 Q2228.09 383.406 2228.09 376.299 Q2228.09 369.17 2226.26 365.628 Q2224.46 362.063 2220.82 362.063 M2220.82 358.36 Q2226.63 358.36 2229.69 362.966 Q2232.77 367.549 2232.77 376.299 Q2232.77 385.026 2229.69 389.633 Q2226.63 394.216 2220.82 394.216 Q2215.01 394.216 2211.93 389.633 Q2208.88 385.026 2208.88 376.299 Q2208.88 367.549 2211.93 362.966 Q2215.01 358.36 2220.82 358.36 Z" fill="#000000" fill-rule="evenodd" fill-opacity="1" /></svg>
