<?xml version="1.0" encoding="utf-8"?>
<svg xmlns="http://www.w3.org/2000/svg" xmlns:xlink="http://www.w3.org/1999/xlink" width="600" height="400" viewBox="0 0 2400 1600">
<defs>
  <clipPath id="clip710">
    <rect x="0" y="0" width="2400" height="1600"/>
  </clipPath>
</defs>
<path clip-path="url(#clip710)" d="
M0 1600 L2400 1600 L2400 0 L0 0  Z
  " fill="#ffffff" fill-rule="evenodd" fill-opacity="1"/>
<defs>
  <clipPath id="clip711">
    <rect x="480" y="0" width="1681" height="1600"/>
  </clipPath>
</defs>
<path clip-path="url(#clip710)" d="
M192.941 1486.45 L2352.76 1486.45 L2352.76 123.472 L192.941 123.472  Z
  " fill="#ffffff" fill-rule="evenodd" fill-opacity="1"/>
<defs>
  <clipPath id="clip712">
    <rect x="192" y="123" width="2161" height="1364"/>
  </clipPath>
</defs>
<polyline clip-path="url(#clip712)" style="stroke:#000000; stroke-linecap:butt; stroke-linejoin:round; stroke-width:2; stroke-opacity:0.1; fill:none" points="
  480.463,1486.45 480.463,123.472 
  "/>
<polyline clip-path="url(#clip712)" style="stroke:#000000; stroke-linecap:butt; stroke-linejoin:round; stroke-width:2; stroke-opacity:0.1; fill:none" points="
  933.255,1486.45 933.255,123.472 
  "/>
<polyline clip-path="url(#clip712)" style="stroke:#000000; stroke-linecap:butt; stroke-linejoin:round; stroke-width:2; stroke-opacity:0.1; fill:none" points="
  1386.05,1486.45 1386.05,123.472 
  "/>
<polyline clip-path="url(#clip712)" style="stroke:#000000; stroke-linecap:butt; stroke-linejoin:round; stroke-width:2; stroke-opacity:0.1; fill:none" points="
  1838.84,1486.45 1838.84,123.472 
  "/>
<polyline clip-path="url(#clip712)" style="stroke:#000000; stroke-linecap:butt; stroke-linejoin:round; stroke-width:2; stroke-opacity:0.1; fill:none" points="
  2291.63,1486.45 2291.63,123.472 
  "/>
<polyline clip-path="url(#clip710)" style="stroke:#000000; stroke-linecap:butt; stroke-linejoin:round; stroke-width:4; stroke-opacity:1; fill:none" points="
  192.941,1486.45 2352.76,1486.45 
  "/>
<polyline clip-path="url(#clip710)" style="stroke:#000000; stroke-linecap:butt; stroke-linejoin:round; stroke-width:4; stroke-opacity:1; fill:none" points="
  480.463,1486.45 480.463,1467.55 
  "/>
<polyline clip-path="url(#clip710)" style="stroke:#000000; stroke-linecap:butt; stroke-linejoin:round; stroke-width:4; stroke-opacity:1; fill:none" points="
  933.255,1486.45 933.255,1467.55 
  "/>
<polyline clip-path="url(#clip710)" style="stroke:#000000; stroke-linecap:butt; stroke-linejoin:round; stroke-width:4; stroke-opacity:1; fill:none" points="
  1386.05,1486.45 1386.05,1467.55 
  "/>
<polyline clip-path="url(#clip710)" style="stroke:#000000; stroke-linecap:butt; stroke-linejoin:round; stroke-width:4; stroke-opacity:1; fill:none" points="
  1838.84,1486.45 1838.84,1467.55 
  "/>
<polyline clip-path="url(#clip710)" style="stroke:#000000; stroke-linecap:butt; stroke-linejoin:round; stroke-width:4; stroke-opacity:1; fill:none" points="
  2291.63,1486.45 2291.63,1467.55 
  "/>
<path clip-path="url(#clip710)" d="M475.116 1543.18 L491.435 1543.18 L491.435 1547.12 L469.491 1547.12 L469.491 1543.18 Q472.153 1540.43 476.736 1535.8 Q481.343 1531.15 482.523 1529.81 Q484.769 1527.28 485.648 1525.55 Q486.551 1523.79 486.551 1522.1 Q486.551 1519.34 484.607 1517.61 Q482.685 1515.87 479.584 1515.87 Q477.385 1515.87 474.931 1516.63 Q472.5 1517.4 469.723 1518.95 L469.723 1514.23 Q472.547 1513.09 475 1512.51 Q477.454 1511.93 479.491 1511.93 Q484.861 1511.93 488.056 1514.62 Q491.25 1517.31 491.25 1521.8 Q491.25 1523.93 490.44 1525.85 Q489.653 1527.74 487.547 1530.34 Q486.968 1531.01 483.866 1534.23 Q480.764 1537.42 475.116 1543.18 Z" fill="#000000" fill-rule="evenodd" fill-opacity="1" /><path clip-path="url(#clip710)" d="M936.264 1516.63 L924.458 1535.08 L936.264 1535.08 L936.264 1516.63 M935.037 1512.56 L940.917 1512.56 L940.917 1535.08 L945.847 1535.08 L945.847 1538.97 L940.917 1538.97 L940.917 1547.12 L936.264 1547.12 L936.264 1538.97 L920.662 1538.97 L920.662 1534.46 L935.037 1512.56 Z" fill="#000000" fill-rule="evenodd" fill-opacity="1" /><path clip-path="url(#clip710)" d="M1386.45 1527.98 Q1383.3 1527.98 1381.45 1530.13 Q1379.62 1532.28 1379.62 1536.03 Q1379.62 1539.76 1381.45 1541.93 Q1383.3 1544.09 1386.45 1544.09 Q1389.6 1544.09 1391.43 1541.93 Q1393.28 1539.76 1393.28 1536.03 Q1393.28 1532.28 1391.43 1530.13 Q1389.6 1527.98 1386.45 1527.98 M1395.73 1513.32 L1395.73 1517.58 Q1393.97 1516.75 1392.17 1516.31 Q1390.39 1515.87 1388.63 1515.87 Q1384 1515.87 1381.54 1519 Q1379.11 1522.12 1378.77 1528.44 Q1380.13 1526.43 1382.19 1525.36 Q1384.25 1524.27 1386.73 1524.27 Q1391.94 1524.27 1394.95 1527.44 Q1397.98 1530.59 1397.98 1536.03 Q1397.98 1541.36 1394.83 1544.57 Q1391.68 1547.79 1386.45 1547.79 Q1380.46 1547.79 1377.28 1543.21 Q1374.11 1538.6 1374.11 1529.87 Q1374.11 1521.68 1378 1516.82 Q1381.89 1511.93 1388.44 1511.93 Q1390.2 1511.93 1391.98 1512.28 Q1393.79 1512.63 1395.73 1513.32 Z" fill="#000000" fill-rule="evenodd" fill-opacity="1" /><path clip-path="url(#clip710)" d="M1838.84 1530.71 Q1835.5 1530.71 1833.58 1532.49 Q1831.68 1534.27 1831.68 1537.4 Q1831.68 1540.52 1833.58 1542.31 Q1835.5 1544.09 1838.84 1544.09 Q1842.17 1544.09 1844.09 1542.31 Q1846.01 1540.5 1846.01 1537.4 Q1846.01 1534.27 1844.09 1532.49 Q1842.19 1530.71 1838.84 1530.71 M1834.16 1528.72 Q1831.15 1527.98 1829.46 1525.92 Q1827.8 1523.86 1827.8 1520.89 Q1827.8 1516.75 1830.74 1514.34 Q1833.7 1511.93 1838.84 1511.93 Q1844 1511.93 1846.94 1514.34 Q1849.88 1516.75 1849.88 1520.89 Q1849.88 1523.86 1848.19 1525.92 Q1846.52 1527.98 1843.54 1528.72 Q1846.92 1529.5 1848.79 1531.8 Q1850.69 1534.09 1850.69 1537.4 Q1850.69 1542.42 1847.61 1545.11 Q1844.56 1547.79 1838.84 1547.79 Q1833.12 1547.79 1830.04 1545.11 Q1826.99 1542.42 1826.99 1537.4 Q1826.99 1534.09 1828.88 1531.8 Q1830.78 1529.5 1834.16 1528.72 M1832.45 1521.33 Q1832.45 1524.02 1834.12 1525.52 Q1835.81 1527.03 1838.84 1527.03 Q1841.85 1527.03 1843.54 1525.52 Q1845.25 1524.02 1845.25 1521.33 Q1845.25 1518.65 1843.54 1517.14 Q1841.85 1515.64 1838.84 1515.64 Q1835.81 1515.64 1834.12 1517.14 Q1832.45 1518.65 1832.45 1521.33 Z" fill="#000000" fill-rule="evenodd" fill-opacity="1" /><path clip-path="url(#clip710)" d="M2266.32 1543.18 L2273.96 1543.18 L2273.96 1516.82 L2265.65 1518.49 L2265.65 1514.23 L2273.91 1512.56 L2278.59 1512.56 L2278.59 1543.18 L2286.22 1543.18 L2286.22 1547.12 L2266.32 1547.12 L2266.32 1543.18 Z" fill="#000000" fill-rule="evenodd" fill-opacity="1" /><path clip-path="url(#clip710)" d="M2305.67 1515.64 Q2302.06 1515.64 2300.23 1519.2 Q2298.42 1522.75 2298.42 1529.87 Q2298.42 1536.98 2300.23 1540.55 Q2302.06 1544.09 2305.67 1544.09 Q2309.3 1544.09 2311.11 1540.55 Q2312.94 1536.98 2312.94 1529.87 Q2312.94 1522.75 2311.11 1519.2 Q2309.3 1515.64 2305.67 1515.64 M2305.67 1511.93 Q2311.48 1511.93 2314.53 1516.54 Q2317.61 1521.12 2317.61 1529.87 Q2317.61 1538.6 2314.53 1543.21 Q2311.48 1547.79 2305.67 1547.79 Q2299.86 1547.79 2296.78 1543.21 Q2293.72 1538.6 2293.72 1529.87 Q2293.72 1521.12 2296.78 1516.54 Q2299.86 1511.93 2305.67 1511.93 Z" fill="#000000" fill-rule="evenodd" fill-opacity="1" /><polyline clip-path="url(#clip712)" style="stroke:#000000; stroke-linecap:butt; stroke-linejoin:round; stroke-width:2; stroke-opacity:0.1; fill:none" points="
  192.941,1225.46 2352.76,1225.46 
  "/>
<polyline clip-path="url(#clip712)" style="stroke:#000000; stroke-linecap:butt; stroke-linejoin:round; stroke-width:2; stroke-opacity:0.1; fill:none" points="
  192.941,956.184 2352.76,956.184 
  "/>
<polyline clip-path="url(#clip712)" style="stroke:#000000; stroke-linecap:butt; stroke-linejoin:round; stroke-width:2; stroke-opacity:0.1; fill:none" points="
  192.941,686.903 2352.76,686.903 
  "/>
<polyline clip-path="url(#clip712)" style="stroke:#000000; stroke-linecap:butt; stroke-linejoin:round; stroke-width:2; stroke-opacity:0.1; fill:none" points="
  192.941,417.623 2352.76,417.623 
  "/>
<polyline clip-path="url(#clip712)" style="stroke:#000000; stroke-linecap:butt; stroke-linejoin:round; stroke-width:2; stroke-opacity:0.1; fill:none" points="
  192.941,148.342 2352.76,148.342 
  "/>
<polyline clip-path="url(#clip710)" style="stroke:#000000; stroke-linecap:butt; stroke-linejoin:round; stroke-width:4; stroke-opacity:1; fill:none" points="
  192.941,1486.45 192.941,123.472 
  "/>
<polyline clip-path="url(#clip710)" style="stroke:#000000; stroke-linecap:butt; stroke-linejoin:round; stroke-width:4; stroke-opacity:1; fill:none" points="
  192.941,1225.46 211.838,1225.46 
  "/>
<polyline clip-path="url(#clip710)" style="stroke:#000000; stroke-linecap:butt; stroke-linejoin:round; stroke-width:4; stroke-opacity:1; fill:none" points="
  192.941,956.184 211.838,956.184 
  "/>
<polyline clip-path="url(#clip710)" style="stroke:#000000; stroke-linecap:butt; stroke-linejoin:round; stroke-width:4; stroke-opacity:1; fill:none" points="
  192.941,686.903 211.838,686.903 
  "/>
<polyline clip-path="url(#clip710)" style="stroke:#000000; stroke-linecap:butt; stroke-linejoin:round; stroke-width:4; stroke-opacity:1; fill:none" points="
  192.941,417.623 211.838,417.623 
  "/>
<polyline clip-path="url(#clip710)" style="stroke:#000000; stroke-linecap:butt; stroke-linejoin:round; stroke-width:4; stroke-opacity:1; fill:none" points="
  192.941,148.342 211.838,148.342 
  "/>
<path clip-path="url(#clip710)" d="M50.9921 1225.92 L80.6679 1225.92 L80.6679 1229.85 L50.9921 1229.85 L50.9921 1225.92 Z" fill="#000000" fill-rule="evenodd" fill-opacity="1" /><path clip-path="url(#clip710)" d="M100.76 1211.26 Q97.1493 1211.26 95.3206 1214.83 Q93.515 1218.37 93.515 1225.5 Q93.515 1232.61 95.3206 1236.17 Q97.1493 1239.71 100.76 1239.71 Q104.395 1239.71 106.2 1236.17 Q108.029 1232.61 108.029 1225.5 Q108.029 1218.37 106.2 1214.83 Q104.395 1211.26 100.76 1211.26 M100.76 1207.56 Q106.571 1207.56 109.626 1212.17 Q112.705 1216.75 112.705 1225.5 Q112.705 1234.23 109.626 1238.83 Q106.571 1243.42 100.76 1243.42 Q94.9502 1243.42 91.8715 1238.83 Q88.816 1234.23 88.816 1225.5 Q88.816 1216.75 91.8715 1212.17 Q94.9502 1207.56 100.76 1207.56 Z" fill="#000000" fill-rule="evenodd" fill-opacity="1" /><path clip-path="url(#clip710)" d="M120.922 1236.86 L125.807 1236.86 L125.807 1242.74 L120.922 1242.74 L120.922 1236.86 Z" fill="#000000" fill-rule="evenodd" fill-opacity="1" /><path clip-path="url(#clip710)" d="M136.038 1208.18 L154.394 1208.18 L154.394 1212.12 L140.32 1212.12 L140.32 1220.59 Q141.339 1220.24 142.357 1220.08 Q143.376 1219.9 144.394 1219.9 Q150.181 1219.9 153.561 1223.07 Q156.941 1226.24 156.941 1231.66 Q156.941 1237.24 153.468 1240.34 Q149.996 1243.42 143.677 1243.42 Q141.501 1243.42 139.232 1243.05 Q136.987 1242.68 134.58 1241.93 L134.58 1237.24 Q136.663 1238.37 138.885 1238.93 Q141.107 1239.48 143.584 1239.48 Q147.589 1239.48 149.927 1237.37 Q152.265 1235.27 152.265 1231.66 Q152.265 1228.05 149.927 1225.94 Q147.589 1223.83 143.584 1223.83 Q141.709 1223.83 139.834 1224.25 Q137.982 1224.67 136.038 1225.55 L136.038 1208.18 Z" fill="#000000" fill-rule="evenodd" fill-opacity="1" /><path clip-path="url(#clip710)" d="M99.765 941.983 Q96.1539 941.983 94.3252 945.547 Q92.5197 949.089 92.5197 956.219 Q92.5197 963.325 94.3252 966.89 Q96.1539 970.432 99.765 970.432 Q103.399 970.432 105.205 966.89 Q107.033 963.325 107.033 956.219 Q107.033 949.089 105.205 945.547 Q103.399 941.983 99.765 941.983 M99.765 938.279 Q105.575 938.279 108.631 942.885 Q111.709 947.469 111.709 956.219 Q111.709 964.946 108.631 969.552 Q105.575 974.135 99.765 974.135 Q93.9549 974.135 90.8762 969.552 Q87.8206 964.946 87.8206 956.219 Q87.8206 947.469 90.8762 942.885 Q93.9549 938.279 99.765 938.279 Z" fill="#000000" fill-rule="evenodd" fill-opacity="1" /><path clip-path="url(#clip710)" d="M119.927 967.584 L124.811 967.584 L124.811 973.464 L119.927 973.464 L119.927 967.584 Z" fill="#000000" fill-rule="evenodd" fill-opacity="1" /><path clip-path="url(#clip710)" d="M144.996 941.983 Q141.385 941.983 139.556 945.547 Q137.751 949.089 137.751 956.219 Q137.751 963.325 139.556 966.89 Q141.385 970.432 144.996 970.432 Q148.63 970.432 150.436 966.89 Q152.265 963.325 152.265 956.219 Q152.265 949.089 150.436 945.547 Q148.63 941.983 144.996 941.983 M144.996 938.279 Q150.806 938.279 153.862 942.885 Q156.941 947.469 156.941 956.219 Q156.941 964.946 153.862 969.552 Q150.806 974.135 144.996 974.135 Q139.186 974.135 136.107 969.552 Q133.052 964.946 133.052 956.219 Q133.052 947.469 136.107 942.885 Q139.186 938.279 144.996 938.279 Z" fill="#000000" fill-rule="evenodd" fill-opacity="1" /><path clip-path="url(#clip710)" d="M100.76 672.702 Q97.1493 672.702 95.3206 676.267 Q93.515 679.809 93.515 686.938 Q93.515 694.045 95.3206 697.609 Q97.1493 701.151 100.76 701.151 Q104.395 701.151 106.2 697.609 Q108.029 694.045 108.029 686.938 Q108.029 679.809 106.2 676.267 Q104.395 672.702 100.76 672.702 M100.76 668.998 Q106.571 668.998 109.626 673.605 Q112.705 678.188 112.705 686.938 Q112.705 695.665 109.626 700.271 Q106.571 704.855 100.76 704.855 Q94.9502 704.855 91.8715 700.271 Q88.816 695.665 88.816 686.938 Q88.816 678.188 91.8715 673.605 Q94.9502 668.998 100.76 668.998 Z" fill="#000000" fill-rule="evenodd" fill-opacity="1" /><path clip-path="url(#clip710)" d="M120.922 698.304 L125.807 698.304 L125.807 704.183 L120.922 704.183 L120.922 698.304 Z" fill="#000000" fill-rule="evenodd" fill-opacity="1" /><path clip-path="url(#clip710)" d="M136.038 669.623 L154.394 669.623 L154.394 673.559 L140.32 673.559 L140.32 682.031 Q141.339 681.684 142.357 681.522 Q143.376 681.336 144.394 681.336 Q150.181 681.336 153.561 684.508 Q156.941 687.679 156.941 693.096 Q156.941 698.674 153.468 701.776 Q149.996 704.855 143.677 704.855 Q141.501 704.855 139.232 704.484 Q136.987 704.114 134.58 703.373 L134.58 698.674 Q136.663 699.808 138.885 700.364 Q141.107 700.92 143.584 700.92 Q147.589 700.92 149.927 698.813 Q152.265 696.707 152.265 693.096 Q152.265 689.484 149.927 687.378 Q147.589 685.272 143.584 685.272 Q141.709 685.272 139.834 685.688 Q137.982 686.105 136.038 686.984 L136.038 669.623 Z" fill="#000000" fill-rule="evenodd" fill-opacity="1" /><path clip-path="url(#clip710)" d="M90.5752 430.968 L98.2141 430.968 L98.2141 404.602 L89.904 406.269 L89.904 402.01 L98.1678 400.343 L102.844 400.343 L102.844 430.968 L110.483 430.968 L110.483 434.903 L90.5752 434.903 L90.5752 430.968 Z" fill="#000000" fill-rule="evenodd" fill-opacity="1" /><path clip-path="url(#clip710)" d="M119.927 429.023 L124.811 429.023 L124.811 434.903 L119.927 434.903 L119.927 429.023 Z" fill="#000000" fill-rule="evenodd" fill-opacity="1" /><path clip-path="url(#clip710)" d="M144.996 403.422 Q141.385 403.422 139.556 406.986 Q137.751 410.528 137.751 417.658 Q137.751 424.764 139.556 428.329 Q141.385 431.871 144.996 431.871 Q148.63 431.871 150.436 428.329 Q152.265 424.764 152.265 417.658 Q152.265 410.528 150.436 406.986 Q148.63 403.422 144.996 403.422 M144.996 399.718 Q150.806 399.718 153.862 404.324 Q156.941 408.908 156.941 417.658 Q156.941 426.384 153.862 430.991 Q150.806 435.574 144.996 435.574 Q139.186 435.574 136.107 430.991 Q133.052 426.384 133.052 417.658 Q133.052 408.908 136.107 404.324 Q139.186 399.718 144.996 399.718 Z" fill="#000000" fill-rule="evenodd" fill-opacity="1" /><path clip-path="url(#clip710)" d="M91.5706 161.687 L99.2095 161.687 L99.2095 135.322 L90.8993 136.988 L90.8993 132.729 L99.1632 131.062 L103.839 131.062 L103.839 161.687 L111.478 161.687 L111.478 165.622 L91.5706 165.622 L91.5706 161.687 Z" fill="#000000" fill-rule="evenodd" fill-opacity="1" /><path clip-path="url(#clip710)" d="M120.922 159.743 L125.807 159.743 L125.807 165.622 L120.922 165.622 L120.922 159.743 Z" fill="#000000" fill-rule="evenodd" fill-opacity="1" /><path clip-path="url(#clip710)" d="M136.038 131.062 L154.394 131.062 L154.394 134.998 L140.32 134.998 L140.32 143.47 Q141.339 143.122 142.357 142.96 Q143.376 142.775 144.394 142.775 Q150.181 142.775 153.561 145.947 Q156.941 149.118 156.941 154.534 Q156.941 160.113 153.468 163.215 Q149.996 166.294 143.677 166.294 Q141.501 166.294 139.232 165.923 Q136.987 165.553 134.58 164.812 L134.58 160.113 Q136.663 161.247 138.885 161.803 Q141.107 162.358 143.584 162.358 Q147.589 162.358 149.927 160.252 Q152.265 158.146 152.265 154.534 Q152.265 150.923 149.927 148.817 Q147.589 146.71 143.584 146.71 Q141.709 146.71 139.834 147.127 Q137.982 147.544 136.038 148.423 L136.038 131.062 Z" fill="#000000" fill-rule="evenodd" fill-opacity="1" /><path clip-path="url(#clip710)" d="M1015.66 44.2197 Q1018.29 45.1109 1020.76 48.0275 Q1023.27 50.9442 1025.78 56.0483 L1034.09 72.576 L1025.3 72.576 L1017.56 57.061 Q1014.56 50.9847 1011.73 48.9997 Q1008.93 47.0148 1004.07 47.0148 L995.159 47.0148 L995.159 72.576 L986.976 72.576 L986.976 12.096 L1005.45 12.096 Q1015.82 12.096 1020.92 16.4305 Q1026.03 20.7649 1026.03 29.5149 Q1026.03 35.2267 1023.35 38.994 Q1020.72 42.7613 1015.66 44.2197 M995.159 18.8205 L995.159 40.2903 L1005.45 40.2903 Q1011.36 40.2903 1014.36 37.5762 Q1017.4 34.8216 1017.4 29.5149 Q1017.4 24.2082 1014.36 21.5346 Q1011.36 18.8205 1005.45 18.8205 L995.159 18.8205 Z" fill="#000000" fill-rule="evenodd" fill-opacity="1" /><path clip-path="url(#clip710)" d="M1058.15 32.4315 Q1052.16 32.4315 1048.67 37.1306 Q1045.19 41.7891 1045.19 49.9314 Q1045.19 58.0738 1048.63 62.7728 Q1052.11 67.4314 1058.15 67.4314 Q1064.11 67.4314 1067.59 62.7323 Q1071.07 58.0333 1071.07 49.9314 Q1071.07 41.8701 1067.59 37.1711 Q1064.11 32.4315 1058.15 32.4315 M1058.15 26.1121 Q1067.87 26.1121 1073.42 32.4315 Q1078.97 38.7509 1078.97 49.9314 Q1078.97 61.0714 1073.42 67.4314 Q1067.87 73.7508 1058.15 73.7508 Q1048.39 73.7508 1042.84 67.4314 Q1037.33 61.0714 1037.33 49.9314 Q1037.33 38.7509 1042.84 32.4315 Q1048.39 26.1121 1058.15 26.1121 Z" fill="#000000" fill-rule="evenodd" fill-opacity="1" /><path clip-path="url(#clip710)" d="M1091.33 9.54393 L1098.78 9.54393 L1098.78 72.576 L1091.33 72.576 L1091.33 9.54393 Z" fill="#000000" fill-rule="evenodd" fill-opacity="1" /><path clip-path="url(#clip710)" d="M1114.38 9.54393 L1121.83 9.54393 L1121.83 72.576 L1114.38 72.576 L1114.38 9.54393 Z" fill="#000000" fill-rule="evenodd" fill-opacity="1" /><path clip-path="url(#clip710)" d="M1137.43 27.2059 L1144.88 27.2059 L1144.88 72.576 L1137.43 72.576 L1137.43 27.2059 M1137.43 9.54393 L1144.88 9.54393 L1144.88 18.9825 L1137.43 18.9825 L1137.43 9.54393 Z" fill="#000000" fill-rule="evenodd" fill-opacity="1" /><path clip-path="url(#clip710)" d="M1198.19 45.1919 L1198.19 72.576 L1190.74 72.576 L1190.74 45.4349 Q1190.74 38.994 1188.22 35.7938 Q1185.71 32.5936 1180.69 32.5936 Q1174.65 32.5936 1171.17 36.4419 Q1167.69 40.2903 1167.69 46.9338 L1167.69 72.576 L1160.19 72.576 L1160.19 27.2059 L1167.69 27.2059 L1167.69 34.2544 Q1170.36 30.163 1173.97 28.1376 Q1177.61 26.1121 1182.35 26.1121 Q1190.17 26.1121 1194.18 30.9732 Q1198.19 35.7938 1198.19 45.1919 Z" fill="#000000" fill-rule="evenodd" fill-opacity="1" /><path clip-path="url(#clip710)" d="M1242.91 49.3643 Q1242.91 41.2625 1239.55 36.8065 Q1236.23 32.3505 1230.19 32.3505 Q1224.2 32.3505 1220.83 36.8065 Q1217.51 41.2625 1217.51 49.3643 Q1217.51 57.4256 1220.83 61.8816 Q1224.2 66.3376 1230.19 66.3376 Q1236.23 66.3376 1239.55 61.8816 Q1242.91 57.4256 1242.91 49.3643 M1250.37 66.9452 Q1250.37 78.5308 1245.22 84.1616 Q1240.08 89.8329 1229.46 89.8329 Q1225.53 89.8329 1222.05 89.2252 Q1218.57 88.6581 1215.28 87.4428 L1215.28 80.1917 Q1218.57 81.9741 1221.77 82.8248 Q1224.97 83.6755 1228.29 83.6755 Q1235.62 83.6755 1239.27 79.8271 Q1242.91 76.0193 1242.91 68.282 L1242.91 64.5957 Q1240.6 68.6061 1237 70.5911 Q1233.39 72.576 1228.37 72.576 Q1220.02 72.576 1214.92 66.2161 Q1209.82 59.8562 1209.82 49.3643 Q1209.82 38.832 1214.92 32.472 Q1220.02 26.1121 1228.37 26.1121 Q1233.39 26.1121 1237 28.0971 Q1240.6 30.082 1242.91 34.0924 L1242.91 27.2059 L1250.37 27.2059 L1250.37 66.9452 Z" fill="#000000" fill-rule="evenodd" fill-opacity="1" /><path clip-path="url(#clip710)" d="M1327.41 35.9153 Q1330.21 30.8922 1334.1 28.5022 Q1337.99 26.1121 1343.25 26.1121 Q1350.34 26.1121 1354.19 31.0947 Q1358.04 36.0368 1358.04 45.1919 L1358.04 72.576 L1350.54 72.576 L1350.54 45.4349 Q1350.54 38.913 1348.24 35.7533 Q1345.93 32.5936 1341.19 32.5936 Q1335.39 32.5936 1332.03 36.4419 Q1328.67 40.2903 1328.67 46.9338 L1328.67 72.576 L1321.18 72.576 L1321.18 45.4349 Q1321.18 38.8725 1318.87 35.7533 Q1316.56 32.5936 1311.74 32.5936 Q1306.03 32.5936 1302.66 36.4824 Q1299.3 40.3308 1299.3 46.9338 L1299.3 72.576 L1291.81 72.576 L1291.81 27.2059 L1299.3 27.2059 L1299.3 34.2544 Q1301.85 30.082 1305.42 28.0971 Q1308.98 26.1121 1313.88 26.1121 Q1318.83 26.1121 1322.27 28.6237 Q1325.75 31.1352 1327.41 35.9153 Z" fill="#000000" fill-rule="evenodd" fill-opacity="1" /><path clip-path="url(#clip710)" d="M1411.71 48.0275 L1411.71 51.6733 L1377.44 51.6733 Q1377.93 59.3701 1382.06 63.421 Q1386.23 67.4314 1393.65 67.4314 Q1397.94 67.4314 1401.95 66.3781 Q1406 65.3249 1409.97 63.2184 L1409.97 70.267 Q1405.96 71.9684 1401.75 72.8596 Q1397.54 73.7508 1393.2 73.7508 Q1382.34 73.7508 1375.98 67.4314 Q1369.66 61.1119 1369.66 50.3365 Q1369.66 39.1965 1375.66 32.6746 Q1381.7 26.1121 1391.9 26.1121 Q1401.06 26.1121 1406.37 32.0264 Q1411.71 37.9003 1411.71 48.0275 M1404.26 45.84 Q1404.18 39.7232 1400.82 36.0774 Q1397.49 32.4315 1391.99 32.4315 Q1385.75 32.4315 1381.98 35.9558 Q1378.25 39.4801 1377.69 45.8805 L1404.26 45.84 Z" fill="#000000" fill-rule="evenodd" fill-opacity="1" /><path clip-path="url(#clip710)" d="M1444.57 49.7694 Q1435.53 49.7694 1432.05 51.8354 Q1428.57 53.9013 1428.57 58.8839 Q1428.57 62.8538 1431.16 65.2034 Q1433.79 67.5124 1438.29 67.5124 Q1444.49 67.5124 1448.21 63.1374 Q1451.98 58.7219 1451.98 51.4303 L1451.98 49.7694 L1444.57 49.7694 M1459.43 46.6907 L1459.43 72.576 L1451.98 72.576 L1451.98 65.6895 Q1449.43 69.8214 1445.62 71.8063 Q1441.81 73.7508 1436.3 73.7508 Q1429.33 73.7508 1425.2 69.8619 Q1421.11 65.9325 1421.11 59.3701 Q1421.11 51.7138 1426.22 47.825 Q1431.36 43.9361 1441.53 43.9361 L1451.98 43.9361 L1451.98 43.2069 Q1451.98 38.0623 1448.58 35.2672 Q1445.21 32.4315 1439.1 32.4315 Q1435.21 32.4315 1431.52 33.3632 Q1427.84 34.295 1424.43 36.1584 L1424.43 29.2718 Q1428.52 27.692 1432.37 26.9223 Q1436.22 26.1121 1439.87 26.1121 Q1449.71 26.1121 1454.57 31.2163 Q1459.43 36.3204 1459.43 46.6907 Z" fill="#000000" fill-rule="evenodd" fill-opacity="1" /><path clip-path="url(#clip710)" d="M1512.5 45.1919 L1512.5 72.576 L1505.05 72.576 L1505.05 45.4349 Q1505.05 38.994 1502.53 35.7938 Q1500.02 32.5936 1495 32.5936 Q1488.96 32.5936 1485.48 36.4419 Q1482 40.2903 1482 46.9338 L1482 72.576 L1474.5 72.576 L1474.5 27.2059 L1482 27.2059 L1482 34.2544 Q1484.67 30.163 1488.28 28.1376 Q1491.92 26.1121 1496.66 26.1121 Q1504.48 26.1121 1508.49 30.9732 Q1512.5 35.7938 1512.5 45.1919 Z" fill="#000000" fill-rule="evenodd" fill-opacity="1" /><path clip-path="url(#clip710)" d="M1556.29 28.5427 L1556.29 35.5912 Q1553.13 33.9709 1549.73 33.1607 Q1546.32 32.3505 1542.68 32.3505 Q1537.13 32.3505 1534.33 34.0519 Q1531.58 35.7533 1531.58 39.156 Q1531.58 41.7486 1533.56 43.2475 Q1535.55 44.7058 1541.54 46.0426 L1544.1 46.6097 Q1552.04 48.3111 1555.36 51.4303 Q1558.72 54.509 1558.72 60.0587 Q1558.72 66.3781 1553.7 70.0644 Q1548.71 73.7508 1539.96 73.7508 Q1536.32 73.7508 1532.35 73.0216 Q1528.42 72.3329 1524.04 70.9151 L1524.04 63.2184 Q1528.18 65.3654 1532.19 66.4591 Q1536.2 67.5124 1540.13 67.5124 Q1545.39 67.5124 1548.23 65.73 Q1551.06 63.9071 1551.06 60.6258 Q1551.06 57.5877 1549 55.9673 Q1546.97 54.3469 1540.05 52.8481 L1537.45 52.2405 Q1530.53 50.7821 1527.45 47.7845 Q1524.37 44.7463 1524.37 39.4801 Q1524.37 33.0797 1528.91 29.5959 Q1533.44 26.1121 1541.79 26.1121 Q1545.92 26.1121 1549.57 26.7198 Q1553.21 27.3274 1556.29 28.5427 Z" fill="#000000" fill-rule="evenodd" fill-opacity="1" /><polyline clip-path="url(#clip712)" style="stroke:#009af9; stroke-linecap:butt; stroke-linejoin:round; stroke-width:4; stroke-opacity:1; fill:none" points="
  254.067,495.921 274.649,321.406 295.23,252.111 315.812,424.796 336.393,393.446 356.975,189.407 377.556,196.834 398.137,327.851 418.719,271.202 439.3,243.048 
  459.882,243.345 480.463,278.435 501.045,306.512 521.626,288.883 542.208,476.348 562.789,350.7 583.37,375.532 603.952,465.675 624.533,612.786 645.115,562.297 
  665.696,690.52 686.278,656.896 706.859,876.032 727.44,858.576 748.022,966.071 768.603,1003.8 789.185,1059.75 809.766,1114.6 830.348,1109.31 850.929,1115.55 
  871.51,1200.16 892.092,1182.83 912.673,1203.49 933.255,1171.71 953.836,1362.91 974.418,1209.05 994.999,1184.22 1015.58,1436.67 1036.16,1306.87 1056.74,1447.87 
  1077.32,1361.79 1097.91,1439.54 1118.49,1437.77 1139.07,1414.63 1159.65,1408.73 1180.23,1419.87 1200.81,1404.79 1221.39,1165.96 1241.98,1309.1 1262.56,1097.03 
  1283.14,1231.87 1303.72,1198.79 1324.3,1154.41 1344.88,1055.2 1365.46,1069.14 1386.05,998.259 1406.63,934.508 1427.21,926.638 1447.79,829.81 1468.37,745.199 
  1488.95,784.98 1509.53,612.153 1530.12,753.218 1550.7,456.52 1571.28,606.524 1591.86,469.862 1612.44,522.966 1633.02,335.983 1653.6,390.374 1674.19,404.227 
  1694.77,480.828 1715.35,264.922 1735.93,313.847 1756.51,210.399 1777.09,247.909 1797.67,162.047 1818.26,327.375 1838.84,409.458 1859.42,246.614 1880,321.907 
  1900.58,415.087 1921.16,316.404 1941.74,468.825 1962.33,306.739 1982.91,322.092 2003.49,382.78 2024.07,391.751 2044.65,503.854 2065.23,531.511 2085.81,548.221 
  2106.4,678.812 2126.98,765.039 2147.56,656.456 2168.14,829.732 2188.72,777.415 2209.3,1057.28 2229.88,1074.54 2250.47,1143.77 2271.05,1005.93 2291.63,1047.01 
  
  "/>
<polyline clip-path="url(#clip712)" style="stroke:#e26f46; stroke-linecap:butt; stroke-linejoin:round; stroke-width:8; stroke-opacity:1; fill:none" points="
  336.393,377.536 356.975,316.233 377.556,291.319 398.137,306.467 418.719,275.748 439.3,245.668 459.882,256.456 480.463,272.776 501.045,268.508 521.626,272.044 
  542.208,318.704 562.789,340.175 583.37,359.595 603.952,391.427 624.533,456.208 645.115,473.398 665.696,541.362 686.278,597.635 706.859,679.706 727.44,728.864 
  748.022,809.619 768.603,872.276 789.185,952.847 809.766,1000.56 830.348,1050.71 850.929,1080.6 871.51,1119.87 892.092,1144.49 912.673,1162.27 933.255,1174.75 
  953.836,1224.22 974.418,1226 994.999,1226.28 1015.58,1272.91 1036.16,1299.95 1056.74,1316.94 1077.32,1347.49 1097.91,1398.55 1118.49,1398.77 1139.07,1420.32 
  1159.65,1412.49 1180.23,1424.11 1200.81,1417.16 1221.39,1362.8 1241.98,1341.69 1262.56,1279.35 1283.14,1241.75 1303.72,1200.55 1324.3,1198.24 1344.88,1147.46 
  1365.46,1141.88 1386.05,1095.16 1406.63,1042.3 1427.21,996.749 1447.79,951.672 1468.37,886.883 1488.95,844.227 1509.53,779.756 1530.12,745.072 1550.7,670.414 
  1571.28,642.679 1591.86,579.655 1612.44,561.818 1633.02,478.371 1653.6,465.142 1674.19,424.682 1694.77,426.875 1715.35,375.267 1735.93,370.839 1756.51,334.844 
  1777.09,303.581 1797.67,239.825 1818.26,252.315 1838.84,271.438 1859.42,278.681 1880,293.48 1900.58,344.088 1921.16,341.894 1941.74,353.767 1962.33,365.792 
  1982.91,365.829 2003.49,359.368 2024.07,374.437 2044.65,381.443 2065.23,426.398 2085.81,471.623 2106.4,530.83 2126.98,605.487 2147.56,636.008 2168.14,695.652 
  2188.72,741.491 2209.3,817.185 2229.88,879.085 2250.47,976.548 2271.05,1011.79 2291.63,1065.71 
  "/>
<polyline clip-path="url(#clip712)" style="stroke:#3da44d; stroke-linecap:butt; stroke-linejoin:round; stroke-width:8; stroke-opacity:1; fill:none" points="
  439.3,311.602 459.882,286.344 480.463,282.047 501.045,287.488 521.626,273.896 542.208,282.186 562.789,298.316 583.37,316.185 603.952,329.968 624.533,364.126 
  645.115,396.051 665.696,440.769 686.278,478.615 706.859,535.567 727.44,592.536 748.022,641.508 768.603,706.819 789.185,775.241 809.766,840.133 830.348,889.786 
  850.929,945.111 871.51,996.074 892.092,1048.67 912.673,1081.41 933.255,1112.73 953.836,1152.41 974.418,1172.94 994.999,1185.38 1015.58,1217.59 1036.16,1237.35 
  1056.74,1270.58 1077.32,1286.74 1097.91,1312.41 1118.49,1335.84 1139.07,1360.13 1159.65,1364.72 1180.23,1385.8 1200.81,1407.85 1221.39,1380.78 1241.98,1381.01 
  1262.56,1345.92 1283.14,1332.93 1303.72,1308.85 1324.3,1280.52 1344.88,1244.58 1365.46,1210.62 1386.05,1168.46 1406.63,1121.43 1427.21,1097.49 1447.79,1049.57 
  1468.37,1014.38 1488.95,969.693 1509.53,911.03 1530.12,870.911 1550.7,811.043 1571.28,764.781 1591.86,711.941 1612.44,670.787 1633.02,611.721 1653.6,567.778 
  1674.19,533.681 1694.77,503.265 1715.35,468.542 1735.93,424.605 1756.51,399.993 1777.09,364.132 1797.67,333.35 1818.26,313.791 1838.84,321.138 1859.42,306.762 
  1880,298.53 1900.58,291.956 1921.16,297.105 1941.74,312.602 1962.33,322.236 1982.91,329.655 2003.49,351.728 2024.07,358.166 2044.65,367.605 2065.23,396.095 
  2085.81,418.726 2106.4,445.099 2126.98,489.962 2147.56,508.725 2168.14,561.025 2188.72,606.557 2209.3,674.007 2229.88,742.286 2250.47,806.278 2271.05,853.719 
  2291.63,903.598 
  "/>
<polyline clip-path="url(#clip712)" style="stroke:#c271d2; stroke-linecap:butt; stroke-linejoin:round; stroke-width:8; stroke-opacity:1; fill:none" points="
  645.115,353.827 665.696,363.557 686.278,380.331 706.859,411.527 727.44,433.216 748.022,461.847 768.603,502.567 789.185,545.713 809.766,585.05 830.348,626.956 
  850.929,670.581 871.51,718.421 892.092,763.641 912.673,808.49 933.255,852.631 953.836,896.96 974.418,939.877 994.999,980.312 1015.58,1028.86 1036.16,1063.57 
  1056.74,1107.84 1077.32,1141.41 1097.91,1180.54 1118.49,1208.63 1139.07,1236.43 1159.65,1258.56 1180.23,1279.37 1200.81,1296.62 1221.39,1299.19 1241.98,1309.18 
  1262.56,1308.25 1283.14,1309.84 1303.72,1310.63 1324.3,1308.18 1344.88,1302.35 1365.46,1287.67 1386.05,1277.13 1406.63,1264.64 1427.21,1239.14 1447.79,1215.29 
  1468.37,1180.15 1488.95,1151.31 1509.53,1109.94 1530.12,1075.71 1550.7,1027.81 1571.28,987.699 1591.86,940.198 1612.44,896.107 1633.02,854.608 1653.6,808.671 
  1674.19,774.032 1694.77,736.479 1715.35,689.786 1735.93,647.758 1756.51,605.518 1777.09,564.456 1797.67,522.646 1818.26,492.289 1838.84,466.43 1859.42,437.27 
  1880,416.106 1900.58,397.611 1921.16,382.823 1941.74,368.604 1962.33,361.115 1982.91,346.893 2003.49,342.539 2024.07,335.978 2044.65,344.372 2065.23,351.429 
  2085.81,358.628 2106.4,368.528 2126.98,393.533 2147.56,410.664 2168.14,441.631 2188.72,468.106 2209.3,512.868 2229.88,550.226 2250.47,586.942 2271.05,624.907 
  2291.63,661.162 
  "/>
<path clip-path="url(#clip710)" d="
M1838.4 428.105 L2280.76 428.105 L2280.76 168.905 L1838.4 168.905  Z
  " fill="#ffffff" fill-rule="evenodd" fill-opacity="1"/>
<polyline clip-path="url(#clip710)" style="stroke:#000000; stroke-linecap:butt; stroke-linejoin:round; stroke-width:4; stroke-opacity:1; fill:none" points="
  1838.4,428.105 2280.76,428.105 2280.76,168.905 1838.4,168.905 1838.4,428.105 
  "/>
<polyline clip-path="url(#clip710)" style="stroke:#009af9; stroke-linecap:butt; stroke-linejoin:round; stroke-width:4; stroke-opacity:1; fill:none" points="
  1862.4,220.745 2006.39,220.745 
  "/>
<path clip-path="url(#clip710)" d="M2045.57 216.08 Q2044.85 215.664 2043.99 215.478 Q2043.16 215.27 2042.14 215.27 Q2038.53 215.27 2036.59 217.631 Q2034.67 219.969 2034.67 224.367 L2034.67 238.025 L2030.38 238.025 L2030.38 212.099 L2034.67 212.099 L2034.67 216.127 Q2036.01 213.766 2038.16 212.631 Q2040.31 211.474 2043.39 211.474 Q2043.83 211.474 2044.36 211.543 Q2044.9 211.59 2045.54 211.705 L2045.57 216.08 Z" fill="#000000" fill-rule="evenodd" fill-opacity="1" /><path clip-path="url(#clip710)" d="M2061.82 224.992 Q2056.66 224.992 2054.67 226.173 Q2052.67 227.353 2052.67 230.201 Q2052.67 232.469 2054.16 233.812 Q2055.66 235.131 2058.23 235.131 Q2061.77 235.131 2063.9 232.631 Q2066.05 230.108 2066.05 225.941 L2066.05 224.992 L2061.82 224.992 M2070.31 223.233 L2070.31 238.025 L2066.05 238.025 L2066.05 234.089 Q2064.6 236.451 2062.42 237.585 Q2060.24 238.696 2057.1 238.696 Q2053.11 238.696 2050.75 236.474 Q2048.42 234.228 2048.42 230.478 Q2048.42 226.103 2051.33 223.881 Q2054.27 221.659 2060.08 221.659 L2066.05 221.659 L2066.05 221.242 Q2066.05 218.303 2064.11 216.705 Q2062.19 215.085 2058.69 215.085 Q2056.47 215.085 2054.36 215.617 Q2052.26 216.15 2050.31 217.215 L2050.31 213.279 Q2052.65 212.377 2054.85 211.937 Q2057.05 211.474 2059.13 211.474 Q2064.76 211.474 2067.54 214.391 Q2070.31 217.307 2070.31 223.233 Z" fill="#000000" fill-rule="evenodd" fill-opacity="1" /><path clip-path="url(#clip710)" d="M2076.61 212.099 L2080.87 212.099 L2086.19 232.33 L2091.49 212.099 L2096.52 212.099 L2101.84 232.33 L2107.14 212.099 L2111.4 212.099 L2104.62 238.025 L2099.6 238.025 L2094.02 216.775 L2088.42 238.025 L2083.39 238.025 L2076.61 212.099 Z" fill="#000000" fill-rule="evenodd" fill-opacity="1" /><polyline clip-path="url(#clip710)" style="stroke:#e26f46; stroke-linecap:butt; stroke-linejoin:round; stroke-width:4; stroke-opacity:1; fill:none" points="
  1862.4,272.585 2006.39,272.585 
  "/>
<path clip-path="url(#clip710)" d="M2050.73 268.916 Q2052.33 266.045 2054.55 264.68 Q2056.77 263.314 2059.78 263.314 Q2063.83 263.314 2066.03 266.161 Q2068.23 268.985 2068.23 274.217 L2068.23 289.865 L2063.95 289.865 L2063.95 274.355 Q2063.95 270.629 2062.63 268.823 Q2061.31 267.018 2058.6 267.018 Q2055.29 267.018 2053.37 269.217 Q2051.45 271.416 2051.45 275.212 L2051.45 289.865 L2047.17 289.865 L2047.17 274.355 Q2047.17 270.605 2045.85 268.823 Q2044.53 267.018 2041.77 267.018 Q2038.51 267.018 2036.59 269.24 Q2034.67 271.439 2034.67 275.212 L2034.67 289.865 L2030.38 289.865 L2030.38 263.939 L2034.67 263.939 L2034.67 267.967 Q2036.12 265.582 2038.16 264.448 Q2040.2 263.314 2043 263.314 Q2045.82 263.314 2047.79 264.749 Q2049.78 266.184 2050.73 268.916 Z" fill="#000000" fill-rule="evenodd" fill-opacity="1" /><path clip-path="url(#clip710)" d="M2098.9 275.837 L2098.9 277.92 L2079.32 277.92 Q2079.6 282.318 2081.96 284.633 Q2084.34 286.925 2088.58 286.925 Q2091.03 286.925 2093.32 286.323 Q2095.64 285.721 2097.91 284.517 L2097.91 288.545 Q2095.61 289.517 2093.21 290.027 Q2090.8 290.536 2088.32 290.536 Q2082.12 290.536 2078.48 286.925 Q2074.87 283.314 2074.87 277.156 Q2074.87 270.791 2078.3 267.064 Q2081.75 263.314 2087.58 263.314 Q2092.81 263.314 2095.85 266.693 Q2098.9 270.05 2098.9 275.837 M2094.64 274.587 Q2094.6 271.092 2092.67 269.008 Q2090.78 266.925 2087.63 266.925 Q2084.06 266.925 2081.91 268.939 Q2079.78 270.953 2079.46 274.61 L2094.64 274.587 Z" fill="#000000" fill-rule="evenodd" fill-opacity="1" /><path clip-path="url(#clip710)" d="M2117.67 276.832 Q2112.51 276.832 2110.52 278.013 Q2108.53 279.193 2108.53 282.041 Q2108.53 284.309 2110.01 285.652 Q2111.52 286.971 2114.09 286.971 Q2117.63 286.971 2119.76 284.471 Q2121.91 281.948 2121.91 277.781 L2121.91 276.832 L2117.67 276.832 M2126.17 275.073 L2126.17 289.865 L2121.91 289.865 L2121.91 285.929 Q2120.45 288.291 2118.28 289.425 Q2116.1 290.536 2112.95 290.536 Q2108.97 290.536 2106.61 288.314 Q2104.27 286.068 2104.27 282.318 Q2104.27 277.943 2107.19 275.721 Q2110.13 273.499 2115.94 273.499 L2121.91 273.499 L2121.91 273.082 Q2121.91 270.143 2119.97 268.545 Q2118.04 266.925 2114.55 266.925 Q2112.33 266.925 2110.22 267.457 Q2108.11 267.99 2106.17 269.055 L2106.17 265.119 Q2108.51 264.217 2110.71 263.777 Q2112.91 263.314 2114.99 263.314 Q2120.61 263.314 2123.39 266.231 Q2126.17 269.147 2126.17 275.073 Z" fill="#000000" fill-rule="evenodd" fill-opacity="1" /><path clip-path="url(#clip710)" d="M2156.49 274.217 L2156.49 289.865 L2152.23 289.865 L2152.23 274.355 Q2152.23 270.675 2150.8 268.846 Q2149.36 267.018 2146.49 267.018 Q2143.04 267.018 2141.05 269.217 Q2139.06 271.416 2139.06 275.212 L2139.06 289.865 L2134.78 289.865 L2134.78 263.939 L2139.06 263.939 L2139.06 267.967 Q2140.59 265.629 2142.65 264.471 Q2144.73 263.314 2147.44 263.314 Q2151.91 263.314 2154.2 266.092 Q2156.49 268.846 2156.49 274.217 Z" fill="#000000" fill-rule="evenodd" fill-opacity="1" /><path clip-path="url(#clip710)" d="M2180.71 255.305 L2199.06 255.305 L2199.06 259.24 L2184.99 259.24 L2184.99 267.712 Q2186.01 267.365 2187.03 267.203 Q2188.04 267.018 2189.06 267.018 Q2194.85 267.018 2198.23 270.189 Q2201.61 273.36 2201.61 278.777 Q2201.61 284.355 2198.14 287.457 Q2194.66 290.536 2188.35 290.536 Q2186.17 290.536 2183.9 290.166 Q2181.66 289.795 2179.25 289.054 L2179.25 284.355 Q2181.33 285.49 2183.55 286.045 Q2185.78 286.601 2188.25 286.601 Q2192.26 286.601 2194.6 284.494 Q2196.93 282.388 2196.93 278.777 Q2196.93 275.166 2194.6 273.059 Q2192.26 270.953 2188.25 270.953 Q2186.38 270.953 2184.5 271.369 Q2182.65 271.786 2180.71 272.666 L2180.71 255.305 Z" fill="#000000" fill-rule="evenodd" fill-opacity="1" /><polyline clip-path="url(#clip710)" style="stroke:#3da44d; stroke-linecap:butt; stroke-linejoin:round; stroke-width:4; stroke-opacity:1; fill:none" points="
  1862.4,324.425 2006.39,324.425 
  "/>
<path clip-path="url(#clip710)" d="M2050.73 320.756 Q2052.33 317.885 2054.55 316.52 Q2056.77 315.154 2059.78 315.154 Q2063.83 315.154 2066.03 318.001 Q2068.23 320.825 2068.23 326.057 L2068.23 341.705 L2063.95 341.705 L2063.95 326.195 Q2063.95 322.469 2062.63 320.663 Q2061.31 318.858 2058.6 318.858 Q2055.29 318.858 2053.37 321.057 Q2051.45 323.256 2051.45 327.052 L2051.45 341.705 L2047.17 341.705 L2047.17 326.195 Q2047.17 322.445 2045.85 320.663 Q2044.53 318.858 2041.77 318.858 Q2038.51 318.858 2036.59 321.08 Q2034.67 323.279 2034.67 327.052 L2034.67 341.705 L2030.38 341.705 L2030.38 315.779 L2034.67 315.779 L2034.67 319.807 Q2036.12 317.422 2038.16 316.288 Q2040.2 315.154 2043 315.154 Q2045.82 315.154 2047.79 316.589 Q2049.78 318.024 2050.73 320.756 Z" fill="#000000" fill-rule="evenodd" fill-opacity="1" /><path clip-path="url(#clip710)" d="M2098.9 327.677 L2098.9 329.76 L2079.32 329.76 Q2079.6 334.158 2081.96 336.473 Q2084.34 338.765 2088.58 338.765 Q2091.03 338.765 2093.32 338.163 Q2095.64 337.561 2097.91 336.357 L2097.91 340.385 Q2095.61 341.357 2093.21 341.867 Q2090.8 342.376 2088.32 342.376 Q2082.12 342.376 2078.48 338.765 Q2074.87 335.154 2074.87 328.996 Q2074.87 322.631 2078.3 318.904 Q2081.75 315.154 2087.58 315.154 Q2092.81 315.154 2095.85 318.533 Q2098.9 321.89 2098.9 327.677 M2094.64 326.427 Q2094.6 322.932 2092.67 320.848 Q2090.78 318.765 2087.63 318.765 Q2084.06 318.765 2081.91 320.779 Q2079.78 322.793 2079.46 326.45 L2094.64 326.427 Z" fill="#000000" fill-rule="evenodd" fill-opacity="1" /><path clip-path="url(#clip710)" d="M2117.67 328.672 Q2112.51 328.672 2110.52 329.853 Q2108.53 331.033 2108.53 333.881 Q2108.53 336.149 2110.01 337.492 Q2111.52 338.811 2114.09 338.811 Q2117.63 338.811 2119.76 336.311 Q2121.91 333.788 2121.91 329.621 L2121.91 328.672 L2117.67 328.672 M2126.17 326.913 L2126.17 341.705 L2121.91 341.705 L2121.91 337.769 Q2120.45 340.131 2118.28 341.265 Q2116.1 342.376 2112.95 342.376 Q2108.97 342.376 2106.61 340.154 Q2104.27 337.908 2104.27 334.158 Q2104.27 329.783 2107.19 327.561 Q2110.13 325.339 2115.94 325.339 L2121.91 325.339 L2121.91 324.922 Q2121.91 321.983 2119.97 320.385 Q2118.04 318.765 2114.55 318.765 Q2112.33 318.765 2110.22 319.297 Q2108.11 319.83 2106.17 320.895 L2106.17 316.959 Q2108.51 316.057 2110.71 315.617 Q2112.91 315.154 2114.99 315.154 Q2120.61 315.154 2123.39 318.071 Q2126.17 320.987 2126.17 326.913 Z" fill="#000000" fill-rule="evenodd" fill-opacity="1" /><path clip-path="url(#clip710)" d="M2156.49 326.057 L2156.49 341.705 L2152.23 341.705 L2152.23 326.195 Q2152.23 322.515 2150.8 320.686 Q2149.36 318.858 2146.49 318.858 Q2143.04 318.858 2141.05 321.057 Q2139.06 323.256 2139.06 327.052 L2139.06 341.705 L2134.78 341.705 L2134.78 315.779 L2139.06 315.779 L2139.06 319.807 Q2140.59 317.469 2142.65 316.311 Q2144.73 315.154 2147.44 315.154 Q2151.91 315.154 2154.2 317.932 Q2156.49 320.686 2156.49 326.057 Z" fill="#000000" fill-rule="evenodd" fill-opacity="1" /><path clip-path="url(#clip710)" d="M2181.47 337.769 L2189.11 337.769 L2189.11 311.404 L2180.8 313.071 L2180.8 308.811 L2189.06 307.145 L2193.74 307.145 L2193.74 337.769 L2201.38 337.769 L2201.38 341.705 L2181.47 341.705 L2181.47 337.769 Z" fill="#000000" fill-rule="evenodd" fill-opacity="1" /><path clip-path="url(#clip710)" d="M2220.82 310.223 Q2217.21 310.223 2215.38 313.788 Q2213.58 317.33 2213.58 324.459 Q2213.58 331.566 2215.38 335.131 Q2217.21 338.672 2220.82 338.672 Q2224.46 338.672 2226.26 335.131 Q2228.09 331.566 2228.09 324.459 Q2228.09 317.33 2226.26 313.788 Q2224.46 310.223 2220.82 310.223 M2220.82 306.52 Q2226.63 306.52 2229.69 311.126 Q2232.77 315.709 2232.77 324.459 Q2232.77 333.186 2229.69 337.793 Q2226.63 342.376 2220.82 342.376 Q2215.01 342.376 2211.93 337.793 Q2208.88 333.186 2208.88 324.459 Q2208.88 315.709 2211.93 311.126 Q2215.01 306.52 2220.82 306.52 Z" fill="#000000" fill-rule="evenodd" fill-opacity="1" /><polyline clip-path="url(#clip710)" style="stroke:#c271d2; stroke-linecap:butt; stroke-linejoin:round; stroke-width:4; stroke-opacity:1; fill:none" points="
  1862.4,376.265 2006.39,376.265 
  "/>
<path clip-path="url(#clip710)" d="M2050.73 372.596 Q2052.33 369.725 2054.55 368.36 Q2056.77 366.994 2059.78 366.994 Q2063.83 366.994 2066.03 369.841 Q2068.23 372.665 2068.23 377.897 L2068.23 393.545 L2063.95 393.545 L2063.95 378.035 Q2063.95 374.309 2062.63 372.503 Q2061.31 370.698 2058.6 370.698 Q2055.29 370.698 2053.37 372.897 Q2051.45 375.096 2051.45 378.892 L2051.45 393.545 L2047.17 393.545 L2047.17 378.035 Q2047.17 374.285 2045.85 372.503 Q2044.53 370.698 2041.77 370.698 Q2038.51 370.698 2036.59 372.92 Q2034.67 375.119 2034.67 378.892 L2034.67 393.545 L2030.38 393.545 L2030.38 367.619 L2034.67 367.619 L2034.67 371.647 Q2036.12 369.262 2038.16 368.128 Q2040.2 366.994 2043 366.994 Q2045.82 366.994 2047.79 368.429 Q2049.78 369.864 2050.73 372.596 Z" fill="#000000" fill-rule="evenodd" fill-opacity="1" /><path clip-path="url(#clip710)" d="M2098.9 379.517 L2098.9 381.6 L2079.32 381.6 Q2079.6 385.998 2081.96 388.313 Q2084.34 390.605 2088.58 390.605 Q2091.03 390.605 2093.32 390.003 Q2095.64 389.401 2097.91 388.197 L2097.91 392.225 Q2095.61 393.197 2093.21 393.707 Q2090.8 394.216 2088.32 394.216 Q2082.12 394.216 2078.48 390.605 Q2074.87 386.994 2074.87 380.836 Q2074.87 374.471 2078.3 370.744 Q2081.75 366.994 2087.58 366.994 Q2092.81 366.994 2095.85 370.373 Q2098.9 373.73 2098.9 379.517 M2094.64 378.267 Q2094.6 374.772 2092.67 372.688 Q2090.78 370.605 2087.63 370.605 Q2084.06 370.605 2081.91 372.619 Q2079.78 374.633 2079.46 378.29 L2094.64 378.267 Z" fill="#000000" fill-rule="evenodd" fill-opacity="1" /><path clip-path="url(#clip710)" d="M2117.67 380.512 Q2112.51 380.512 2110.52 381.693 Q2108.53 382.873 2108.53 385.721 Q2108.53 387.989 2110.01 389.332 Q2111.52 390.651 2114.09 390.651 Q2117.63 390.651 2119.76 388.151 Q2121.91 385.628 2121.91 381.461 L2121.91 380.512 L2117.67 380.512 M2126.17 378.753 L2126.17 393.545 L2121.91 393.545 L2121.91 389.609 Q2120.45 391.971 2118.28 393.105 Q2116.1 394.216 2112.95 394.216 Q2108.97 394.216 2106.61 391.994 Q2104.27 389.748 2104.27 385.998 Q2104.27 381.623 2107.19 379.401 Q2110.13 377.179 2115.94 377.179 L2121.91 377.179 L2121.91 376.762 Q2121.91 373.823 2119.97 372.225 Q2118.04 370.605 2114.55 370.605 Q2112.33 370.605 2110.22 371.137 Q2108.11 371.67 2106.17 372.735 L2106.17 368.799 Q2108.51 367.897 2110.71 367.457 Q2112.91 366.994 2114.99 366.994 Q2120.61 366.994 2123.39 369.911 Q2126.17 372.827 2126.17 378.753 Z" fill="#000000" fill-rule="evenodd" fill-opacity="1" /><path clip-path="url(#clip710)" d="M2156.49 377.897 L2156.49 393.545 L2152.23 393.545 L2152.23 378.035 Q2152.23 374.355 2150.8 372.526 Q2149.36 370.698 2146.49 370.698 Q2143.04 370.698 2141.05 372.897 Q2139.06 375.096 2139.06 378.892 L2139.06 393.545 L2134.78 393.545 L2134.78 367.619 L2139.06 367.619 L2139.06 371.647 Q2140.59 369.309 2142.65 368.151 Q2144.73 366.994 2147.44 366.994 Q2151.91 366.994 2154.2 369.772 Q2156.49 372.526 2156.49 377.897 Z" fill="#000000" fill-rule="evenodd" fill-opacity="1" /><path clip-path="url(#clip710)" d="M2184.69 389.609 L2201.01 389.609 L2201.01 393.545 L2179.06 393.545 L2179.06 389.609 Q2181.72 386.855 2186.31 382.225 Q2190.91 377.573 2192.1 376.23 Q2194.34 373.707 2195.22 371.971 Q2196.12 370.211 2196.12 368.522 Q2196.12 365.767 2194.18 364.031 Q2192.26 362.295 2189.16 362.295 Q2186.96 362.295 2184.5 363.059 Q2182.07 363.823 2179.29 365.374 L2179.29 360.651 Q2182.12 359.517 2184.57 358.938 Q2187.03 358.36 2189.06 358.36 Q2194.43 358.36 2197.63 361.045 Q2200.82 363.73 2200.82 368.221 Q2200.82 370.35 2200.01 372.272 Q2199.22 374.17 2197.12 376.762 Q2196.54 377.434 2193.44 380.651 Q2190.34 383.846 2184.69 389.609 Z" fill="#000000" fill-rule="evenodd" fill-opacity="1" /><path clip-path="url(#clip710)" d="M2220.82 362.063 Q2217.21 362.063 2215.38 365.628 Q2213.58 369.17 2213.58 376.299 Q2213.58 383.406 2215.38 386.971 Q2217.21 390.512 2220.82 390.512 Q2224.46 390.512 2226.26 386.971 Q2228.09 383.406 2228.09 376.299 Q2228.09 369.17 2226.26 365.628 Q2224.46 362.063 2220.82 362.063 M2220.82 358.36 Q2226.63 358.36 2229.69 362.966 Q2232.77 367.549 2232.77 376.299 Q2232.77 385.026 2229.69 389.633 Q2226.63 394.216 2220.82 394.216 Q2215.01 394.216 2211.93 389.633 Q2208.88 385.026 2208.88 376.299 Q2208.88 367.549 2211.93 362.966 Q2215.01 358.36 2220.82 358.36 Z" fill="#000000" fill-rule="evenodd" fill-opacity="1" /></svg>
